<svg xmlns="http://www.w3.org/2000/svg" xmlns:xlink="http://www.w3.org/1999/xlink" width="169" height="169" viewBox="0 0 169 169">
  <defs>
    <clipPath id="clip-path">
      <rect id="Rect치ngulo_351448" data-name="Rect치ngulo 351448" width="130.999" height="130.87" fill="none"/>
    </clipPath>
  </defs>
  <g id="Grupo_1018505" data-name="Grupo 1018505" transform="translate(6811.999 4174.756)">
    <g id="Grupo_1018367" data-name="Grupo 1018367" transform="translate(-7549 -6232.756)">
      <g id="Grupo_159183" data-name="Grupo 159183" transform="translate(737.001 2058)">
        <path id="Uni칩n_12" data-name="Uni칩n 12" d="M84.5,0A84.5,84.5,0,1,1,0,84.5,84.5,84.5,0,0,1,84.5,0Z" fill="#cda7ff"/>
      </g>
    </g>
    <g id="Grupo_1018461" data-name="Grupo 1018461" transform="translate(-6789.999 -4155.966)">
      <g id="Grupo_1018460" data-name="Grupo 1018460" clip-path="url(#clip-path)">
        <path id="Trazado_721981" data-name="Trazado 721981" d="M102.379,86.484c3.835,0,7.679-.164,11.5.035a17.722,17.722,0,0,1,7.972,32.859,7.382,7.382,0,0,0-2.62,2.633c-2.786,4.561-7.091,7.262-11.951,9.115-1.965.749-3.169-.517-2.6-2.564.428-1.553,1.049-3.057,1.414-4.622.141-.6.631-1.705-.535-1.863-.9-.122-2.047-.532-2.7.739a15.891,15.891,0,0,1-1.615,2.591A14.172,14.172,0,0,1,90,131.041c-2.9.079-5.805.156-8.692-.025-1.96-.123-2.12.728-1.693,2.2.261.895.671,1.75.9,2.651.5,2.012-.709,3.125-2.685,2.519a5.777,5.777,0,0,1-.951-.366,40.074,40.074,0,0,1-15.628-15.13c-5.538-9.081,1.076-20.574,11.614-21.472a1.964,1.964,0,0,0,2.088-1.645c2.585-8.571,8.774-13.22,17.713-13.362,3.239-.052,6.478-.008,9.718-.008v.084M69.3,106.436c-5.763,2.766-8.132,10.281-4.279,15.554,2.825,3.865,6.654,7,10.043,10.448.027.027.155-.046.38-.119,0-.345,0-.739,0-1.132-.024-3.8.222-4.047,4.025-4.057,3.656-.009,7.314.033,10.969-.046a8.92,8.92,0,0,0,7.254-3.6c1.06-.887,1.276-1.464-.477-1.495-3.478-.06-7,.353-10.395-.76-1.426-.467-2.794-1.023-2.462-2.968.847-1.344,2.074-1.257,3.362-.874a9.713,9.713,0,0,0,4.2.7c5.1.049,10.191.166,15.285.115,2.1-.021,3,.9,2.967,2.861-.026,1.418-.19,2.833-.315,4.55,2.543-1.536,4.791-3.079,6.041-5.575a8.867,8.867,0,0,1,3.769-3.867,13.05,13.05,0,0,0,6.855-12.505A12.8,12.8,0,0,0,119.037,92.1a11.743,11.743,0,0,0-7.013-1.884c-6.394-.033-12.788.041-19.181-.024-9.9-.1-17.121,9.3-13.928,18.429.463,1.324.459,2.512-.839,3.391-3.166.1-3.182-2.621-3.314-4.425-.208-2.83-1.583-2.594-3.446-2.069a3.907,3.907,0,0,0-2.016.917" transform="translate(-28.919 -42.167)" fill="#050506"/>
        <path id="Trazado_721982" data-name="Trazado 721982" d="M32.242,189.188c1.924-.466,2.764.4,3.2,2.249a31.808,31.808,0,0,1,.367,9.654c-.175,2.441-2,3.8-4.378,3.824q-12.264.14-24.531.009a4.42,4.42,0,0,1-4.625-4.492c-.381-6.173.037-12.149,5.146-16.637a1.745,1.745,0,0,0,.53-1.785c-.64-5.575,1.5-9.886,5.946-12.174a11.293,11.293,0,0,1,12.6,1.67c3.627,3.226,4.583,7.822,2.719,13.063-.057.16-.085.33-.126.494-2.96,4.638-7.089,6.762-12.622,5.873a10.946,10.946,0,0,1-5.242-2.962c-1.157-1.35-1.8-.925-2.693.227-2.719,3.527-2.439,7.624-2.363,11.7.021,1.11.808,1.124,1.6,1.115q4.068-.044,8.135-.1c2.9.036,5.791.1,8.686.1,8.562.014,8.76-.2,7.062-8.763a3.2,3.2,0,0,1,.589-3.061M21.1,186.855a6.725,6.725,0,0,0,5.192-6.478,6.657,6.657,0,0,0-4.242-7.1c-3.469-1.382-6.554-.723-8.726,1.862a7.455,7.455,0,0,0-.622,8.585q2.639,4.327,8.4,3.136" transform="translate(-1.058 -82.312)" fill="#0a0707"/>
        <path id="Trazado_721983" data-name="Trazado 721983" d="M32.037,36.944c1.849-.662,2.869,0,3.346,1.9A29.912,29.912,0,0,1,35.773,49a3.831,3.831,0,0,1-4.087,3.5c-8.348.061-16.7.083-25.046-.005-2.582-.027-4.208-1.752-4.363-4.43C1.918,41.882,2.324,35.9,7.47,31.433a1.7,1.7,0,0,0,.483-1.788c-.7-5.359,1.436-9.723,5.765-12.029a11.208,11.208,0,0,1,12.619,1.428c3.738,3.263,4.762,7.788,2.946,13-.084.24-.123.5-.184.745-2.958,4.675-7.22,6.525-12.651,5.844-1.9-.746-3.909-1.384-5.235-3.018-1.166-1.437-1.812-.83-2.659.264C5.824,39.4,6.079,43.5,6.193,47.582c.035,1.255.991,1.178,1.845,1.173,2.632-.016,5.265-.05,7.9-.077,3.049.027,6.1.075,9.145.079,7.958.011,8.218-.3,6.677-8.42-.227-1.194-.5-2.316.279-3.392M21.063,20.625a6.987,6.987,0,0,0-8.072,2.58,7.576,7.576,0,0,0-.009,8.63,6.978,6.978,0,0,0,8.071,2.616c3.7-1.39,5.478-3.831,5.3-7.277a6.871,6.871,0,0,0-5.295-6.549" transform="translate(-1.064 -7.956)" fill="#050506"/>
        <path id="Trazado_721984" data-name="Trazado 721984" d="M217.541,189.259c2.095-.686,2.994.394,3.383,2.267a31.922,31.922,0,0,1,.436,9.149,4.355,4.355,0,0,1-4.572,4.251q-12.255.121-24.511,0a4.326,4.326,0,0,1-4.5-4.292c-.347-6.235-.169-12.341,5.129-16.856.747-.636.512-1.344.442-2.09-.506-5.434,1.654-9.669,6.049-11.875a11.242,11.242,0,0,1,12.578,1.75c3.654,3.332,4.583,7.937,2.637,13.05a7.323,7.323,0,0,0-.2.733c-3.1,4.5-7.257,6.562-12.754,5.539a11.641,11.641,0,0,1-5.187-3.079c-.991-1.158-1.587-.74-2.346.218-2.815,3.553-2.74,7.714-2.565,11.895.044,1.041.859,1.112,1.666,1.1l7.883-.109q7.368.055,14.734.115c.926.009,1.717-.069,1.66-1.311-.11-2.361.279-4.75-.335-7.082a3.52,3.52,0,0,1,.368-3.368m-11.226-2.332a6.975,6.975,0,0,0,5.475-6.5c.352-3.125-1.31-5.688-4.435-7.215-3.415-1.283-6.362-.654-8.5,1.812a7.286,7.286,0,0,0-.829,8.525q2.5,4.353,8.288,3.378" transform="translate(-91.609 -82.314)" fill="#060808"/>
        <path id="Trazado_721985" data-name="Trazado 721985" d="M217.554,36.96c1.743-.694,2.739-.045,3.195,1.713a26.559,26.559,0,0,1,.506,10.133,3.99,3.99,0,0,1-4.212,3.692c-8.344.06-16.689.079-25.033-.013a4.132,4.132,0,0,1-4.231-4.223c-.343-6.243-.144-12.346,5.163-16.858.649-.551.5-1.176.447-1.856-.435-5.855,1.579-9.841,6.082-12.086a11.255,11.255,0,0,1,12.576,1.8c3.63,3.3,4.472,7.878,2.456,13.34a1.236,1.236,0,0,0-.04.252c-3.011,4.754-7.369,6.491-12.84,5.736-1.844-.834-3.814-1.521-5.139-3.135-.956-1.164-1.536-.836-2.31.135-2.877,3.609-2.807,7.841-2.6,12.095.049,1.017.869,1.091,1.684,1.079,2.621-.04,5.242-.066,7.863-.1q7.243.045,14.486.091c.967.007,1.957.056,1.9-1.351-.09-2.363.287-4.751-.318-7.084-.307-1.184-.507-2.325.364-3.367m-10.816-2.536c3.41-1.277,5.213-3.9,5.106-7.251-.085-2.638-2.4-6.372-5.566-6.623a7.009,7.009,0,0,0-7.947,2.787,7.361,7.361,0,0,0,.275,8.746,7.1,7.1,0,0,0,8.132,2.341" transform="translate(-91.61 -7.957)" fill="#050506"/>
        <path id="Trazado_721986" data-name="Trazado 721986" d="M214.42,54.384c5.471.755,9.829-.982,12.84-5.736a10.073,10.073,0,0,1,3.09,4.1c-.87,1.042-.671,2.183-.364,3.367.606,2.334.229,4.721.319,7.084.054,1.408-.936,1.358-1.9,1.352q-7.243-.051-14.487-.092a48.961,48.961,0,0,1,.506-10.077" transform="translate(-104.407 -23.747)" fill="#fbcc58"/>
        <path id="Trazado_721987" data-name="Trazado 721987" d="M45.1,52.667c-.782,1.076-.506,2.2-.279,3.393,1.541,8.117,1.28,8.431-6.678,8.42-3.048,0-6.1-.051-9.145-.079.029-3.357-.346-6.735.514-10.049,5.431.681,9.693-1.169,12.65-5.843A7.971,7.971,0,0,1,45.1,52.667" transform="translate(-14.127 -23.679)" fill="#c0d63f"/>
        <path id="Trazado_721988" data-name="Trazado 721988" d="M214.455,206.819c5.5,1.022,9.654-1.041,12.754-5.539a12.1,12.1,0,0,1,3.124,3.917,3.521,3.521,0,0,0-.368,3.369c.614,2.332.225,4.72.335,7.082.057,1.243-.734,1.32-1.66,1.311q-7.367-.068-14.734-.115c0-3.351-.227-6.716.55-10.025" transform="translate(-104.401 -98.252)" fill="#31d0f5"/>
        <path id="Trazado_721989" data-name="Trazado 721989" d="M45.306,204.863a3.2,3.2,0,0,0-.589,3.061c1.7,8.558,1.5,8.777-7.062,8.763-2.9,0-5.791-.067-8.686-.1.137-3.328-.425-6.7.565-9.976,5.532.89,9.662-1.235,12.622-5.873q1.574,2.064,3.149,4.126" transform="translate(-14.123 -97.987)" fill="#fb60a4"/>
        <path id="Trazado_721990" data-name="Trazado 721990" d="M122.165,4.376c-1.1,0-2.2.041-3.294-.011-1.348-.063-2.307-.729-2.335-2.149a2.013,2.013,0,0,1,2.079-2.13c2.445-.108,4.9-.117,7.347-.01A1.994,1.994,0,0,1,128.035,2.2c-.011,1.491-1.01,2.063-2.323,2.142-1.178.071-2.365.015-3.547.015v.021" transform="translate(-56.885 0)" fill="#0b0b0b"/>
        <path id="Trazado_721991" data-name="Trazado 721991" d="M247.059,129.585c.075-1.35.12-2.7.233-4.051a1.88,1.88,0,0,1,1.96-1.908,1.935,1.935,0,0,1,2.186,1.964,36.064,36.064,0,0,1-.509,8.082,1.848,1.848,0,0,1-2.022,1.56,1.905,1.905,0,0,1-2.03-1.851c-.075-1.261-.017-2.53-.017-3.8h.2" transform="translate(-120.491 -60.345)" fill="#0b0b0b"/>
        <path id="Trazado_721992" data-name="Trazado 721992" d="M249.845,103.941a2.161,2.161,0,0,1-1.867,2.409c-1.4.213-2.2-.556-2.441-1.949-.392-2.249-.837-4.488-1.222-6.738a2.109,2.109,0,0,1,1.719-2.673,2,2,0,0,1,2.415,1.737c.538,2.388.939,4.807,1.4,7.214" transform="translate(-119.235 -46.344)" fill="#0b0b0b"/>
        <path id="Trazado_721993" data-name="Trazado 721993" d="M110.4,250.7c-1.459-.2-3.552-.5-5.649-.764-1.482-.19-2.423-.928-2.176-2.493.252-1.595,1.472-1.894,2.884-1.725,2.014.242,4.029.468,6.042.72,1.367.171,2.594.661,2.472,2.293-.129,1.734-1.411,2.125-3.572,1.969" transform="translate(-50.049 -119.924)" fill="#0b0b0b"/>
        <path id="Trazado_721994" data-name="Trazado 721994" d="M246.5,155.233c-.681,2.14-1.4,4.568-2.237,6.953a1.872,1.872,0,0,1-2.628,1.258,1.961,1.961,0,0,1-1.318-2.626c.654-2.271,1.313-4.54,2.021-6.794a2.017,2.017,0,0,1,2.518-1.562c1.32.273,1.694,1.245,1.644,2.772" transform="translate(-117.247 -74.392)" fill="#090909"/>
        <path id="Trazado_721995" data-name="Trazado 721995" d="M96.583,1.9c1.679-.038,2.541.416,2.8,1.576a1.911,1.911,0,0,1-1.46,2.537c-2.372.614-4.753,1.2-7.145,1.732a2.021,2.021,0,0,1-2.551-1.522,1.834,1.834,0,0,1,1.276-2.426c2.5-.764,5.046-1.362,7.076-1.9" transform="translate(-43.018 -0.924)" fill="#0b0b0b"/>
        <path id="Trazado_721996" data-name="Trazado 721996" d="M134.138,250.771c-1.536.1-2.825-.318-2.975-2.021-.14-1.594,1.058-2.162,2.448-2.33,2.1-.254,4.2-.488,6.3-.732,1.357-.157,2.442.3,2.674,1.7.255,1.542-.674,2.321-2.16,2.517-2.1.276-4.194.573-6.291.861" transform="translate(-64.02 -119.915)" fill="#0b0b0b"/>
        <path id="Trazado_721997" data-name="Trazado 721997" d="M.011,128.725c.106-2.186-.591-4.534,2-4.691,2.666-.162,2.173,2.237,2.314,3.927s.223,3.38.336,5.07A2.05,2.05,0,0,1,2.7,135.5c-1.375.092-2.133-.8-2.249-2.209-.139-1.686-.325-3.369-.442-4.568" transform="translate(0 -60.542)" fill="#0b0b0b"/>
        <path id="Trazado_721998" data-name="Trazado 721998" d="M9.772,161.395a2.174,2.174,0,0,1-1.692,2.27,1.85,1.85,0,0,1-2.3-1.124,35.8,35.8,0,0,1-2.328-7.752,1.818,1.818,0,0,1,1.373-2.153c1.076-.3,2.142-.12,2.54,1.042.875,2.554,1.614,5.154,2.4,7.717" transform="translate(-1.669 -74.444)" fill="#0b0b0b"/>
        <path id="Trazado_721999" data-name="Trazado 721999" d="M148.5,2c1.7.412,4.019.9,6.291,1.547a2.056,2.056,0,0,1,1.591,2.728,1.929,1.929,0,0,1-2.59,1.368c-2.31-.5-4.611-1.047-6.906-1.613A1.967,1.967,0,0,1,145.207,3.6c.281-1.367,1.311-1.886,3.29-1.606" transform="translate(-70.855 -0.94)" fill="#090909"/>
        <path id="Trazado_722000" data-name="Trazado 722000" d="M.871,104c.387-2.159.732-4.326,1.176-6.473.289-1.4,1.1-2.333,2.68-1.983,1.471.325,1.732,1.429,1.5,2.738-.36,2.078-.774,4.147-1.08,6.232-.213,1.453-.854,2.5-2.41,2.315S.747,105.461.871,104" transform="translate(-0.416 -46.602)" fill="#090909"/>
        <path id="Trazado_722001" data-name="Trazado 722001" d="M72.629,12.292a2.4,2.4,0,0,1-1.289,1.894Q68.179,15.8,65.013,17.4a2,2,0,0,1-2.871-.731,1.97,1.97,0,0,1,.7-2.877,32.169,32.169,0,0,1,7.028-3.486c1.652-.537,2.479.522,2.756,1.985" transform="translate(-30.162 -4.962)" fill="#0b0b0b"/>
        <path id="Trazado_722002" data-name="Trazado 722002" d="M77.7,237.663c2.216.832,4.86,1.725,7.408,2.839a1.744,1.744,0,0,1,.723,2.428,1.872,1.872,0,0,1-2.2,1.313,34.456,34.456,0,0,1-7.813-2.906,1.829,1.829,0,0,1-.771-2.439c.379-.97,1.168-1.414,2.655-1.236" transform="translate(-36.548 -115.993)" fill="#0b0b0b"/>
        <path id="Trazado_722003" data-name="Trazado 722003" d="M175.128,9.935a34.541,34.541,0,0,1,7.762,4.026,1.747,1.747,0,0,1,.272,2.526,1.852,1.852,0,0,1-2.4.886c-2.379-1.1-4.724-2.286-7.039-3.52a1.924,1.924,0,0,1-.861-2.439,2.155,2.155,0,0,1,2.263-1.48" transform="translate(-84.32 -4.85)" fill="#0b0b0b"/>
        <path id="Trazado_722004" data-name="Trazado 722004" d="M167.837,237.6c1.447-.118,2.233.315,2.559,1.32a1.865,1.865,0,0,1-.843,2.416,34.96,34.96,0,0,1-7.805,2.87,1.817,1.817,0,0,1-2.143-1.379,1.79,1.79,0,0,1,.795-2.412c2.554-1.084,5.188-1.977,7.437-2.815" transform="translate(-77.831 -115.971)" fill="#090909"/>
        <path id="Trazado_722005" data-name="Trazado 722005" d="M147.637,97.555a12.8,12.8,0,0,1,7.487,11.564,13.05,13.05,0,0,1-6.854,12.505,8.865,8.865,0,0,0-3.77,3.867c-1.249,2.5-3.5,4.04-6.041,5.575.124-1.718.289-3.133.315-4.55.036-1.965-.869-2.883-2.967-2.861-5.094.051-10.19-.066-15.286-.115a5.629,5.629,0,0,0-.985-2.6c-5.2-9.872,2.085-22.961,14.013-22.78,3.828.058,7.658.026,11.486-.006.893-.008,1.9.324,2.6-.6" transform="translate(-57.519 -47.62)" fill="#31d0f5"/>
        <path id="Trazado_722006" data-name="Trazado 722006" d="M137,95.735c-.7.926-1.709.594-2.6.6-3.828.032-7.659.064-11.486.006-11.928-.18-19.212,12.909-14.013,22.78a5.629,5.629,0,0,1,.985,2.6,9.712,9.712,0,0,1-4.2-.7c-1.288-.383-2.515-.47-3.362.874a18.721,18.721,0,0,1-6.282-6.251c1.3-.879,1.3-2.067.838-3.391-3.192-9.129,4.032-18.53,13.928-18.429,6.393.066,12.787-.009,19.181.024A11.743,11.743,0,0,1,137,95.735" transform="translate(-46.88 -45.8)" fill="#14a9e3"/>
        <path id="Trazado_722007" data-name="Trazado 722007" d="M101.407,142.61a8.921,8.921,0,0,1-7.254,3.6c-3.655.078-7.312.036-10.969.045-3.8.01-4.049.258-4.025,4.057,0,.393,0,.787,0,1.132-.225.073-.354.146-.38.119-3.389-3.451-7.218-6.583-10.043-10.448-3.854-5.273-1.483-12.787,4.279-15.554.653,7.495,7.806,15,15.487,16.5,4.3.836,8.61.235,12.9.55" transform="translate(-32.633 -61.29)" fill="#fb60a4"/>
        <path id="Trazado_722008" data-name="Trazado 722008" d="M107.284,141.424c-4.294-.315-8.608.287-12.9-.55-7.681-1.5-14.834-9.005-15.487-16.5a3.907,3.907,0,0,1,2.016-.917c1.862-.525,3.238-.761,3.445,2.069.132,1.8.147,4.525,3.314,4.425a18.73,18.73,0,0,0,6.282,6.25c-.332,1.945,1.036,2.5,2.462,2.968,3.4,1.113,6.916.7,10.394.76,1.753.031,1.537.608.477,1.495" transform="translate(-38.511 -60.105)" fill="#f55377"/>
        <path id="Trazado_722009" data-name="Trazado 722009" d="M20.245,208.584c-.99,3.28-.428,6.648-.565,9.976q-4.068.051-8.136.1c-.79.008-1.578-.006-1.6-1.115-.076-4.072-.357-8.168,2.362-11.7.889-1.153,1.536-1.578,2.693-.227a10.943,10.943,0,0,0,5.243,2.962" transform="translate(-4.833 -99.961)" fill="#f55377"/>
        <path id="Trazado_722010" data-name="Trazado 722010" d="M30.13,190.612q-5.761,1.191-8.4-3.136a7.455,7.455,0,0,1,.622-8.585c2.172-2.585,5.257-3.243,8.726-1.862-1.162.119-1.7.947-2.212,1.866-2.349,4.212-1.683,8.083,1.262,11.717" transform="translate(-10.085 -86.07)" fill="#e8b367"/>
        <path id="Trazado_722011" data-name="Trazado 722011" d="M36.6,191.286c-2.945-3.634-3.611-7.5-1.262-11.717.512-.919,1.05-1.747,2.212-1.866a6.657,6.657,0,0,1,4.242,7.1,6.725,6.725,0,0,1-5.192,6.478" transform="translate(-16.559 -86.743)" fill="#f6cf90"/>
        <path id="Trazado_722012" data-name="Trazado 722012" d="M20.216,56.241c-.859,3.314-.485,6.692-.514,10.049-2.633.027-5.265.061-7.9.077-.853.005-1.81.081-1.845-1.173-.115-4.081-.37-8.184,2.361-11.708.847-1.093,1.494-1.7,2.659-.264,1.326,1.634,3.337,2.272,5.235,3.018" transform="translate(-4.831 -25.568)" fill="#aab917"/>
        <path id="Trazado_722013" data-name="Trazado 722013" d="M30.072,38.212A6.979,6.979,0,0,1,22,35.6a7.575,7.575,0,0,1,.01-8.631,6.986,6.986,0,0,1,8.071-2.58c-3.411,4.606-3.5,9.215-.01,13.826" transform="translate(-10.083 -11.717)" fill="#e8b367"/>
        <path id="Trazado_722014" data-name="Trazado 722014" d="M36.589,38.577c-3.488-4.611-3.4-9.22.01-13.826a6.87,6.87,0,0,1,5.295,6.55c.174,3.445-1.605,5.886-5.3,7.276" transform="translate(-16.6 -12.082)" fill="#f6cf90"/>
        <path id="Trazado_722015" data-name="Trazado 722015" d="M205.308,208.5c-.777,3.309-.545,6.674-.55,10.025l-7.883.109c-.807.011-1.623-.059-1.666-1.1-.175-4.181-.25-8.342,2.565-11.895.759-.958,1.355-1.376,2.346-.218a11.643,11.643,0,0,0,5.188,3.079" transform="translate(-95.254 -99.929)" fill="#14a9e3"/>
        <path id="Trazado_722016" data-name="Trazado 722016" d="M215.235,190.68q-5.8.971-8.288-3.378a7.287,7.287,0,0,1,.829-8.525c2.137-2.466,5.084-3.095,8.5-1.812-2,.564-2.541,2.322-3.146,3.968-1.352,3.674.23,6.75,2.105,9.746" transform="translate(-100.528 -86.067)" fill="#e8b367"/>
        <path id="Trazado_722017" data-name="Trazado 722017" d="M221.606,191.3c-1.875-3-3.457-6.072-2.105-9.746.606-1.647,1.143-3.4,3.146-3.968,3.124,1.527,4.786,4.089,4.434,7.215a6.975,6.975,0,0,1-5.475,6.5" transform="translate(-106.899 -86.685)" fill="#f6cf90"/>
        <path id="Trazado_722018" data-name="Trazado 722018" d="M205.261,56.157a48.961,48.961,0,0,0-.506,10.077c-2.621.031-5.242.057-7.863.1-.814.013-1.635-.062-1.684-1.079-.2-4.254-.273-8.485,2.6-12.094.774-.972,1.354-1.3,2.311-.136,1.324,1.613,3.294,2.3,5.139,3.135" transform="translate(-95.247 -25.52)" fill="#f6b059"/>
        <path id="Trazado_722019" data-name="Trazado 722019" d="M215.655,38.2a7.1,7.1,0,0,1-8.132-2.341,7.361,7.361,0,0,1-.275-8.746,7.009,7.009,0,0,1,7.947-2.787,3.166,3.166,0,0,1-.3.962c-3.657,4.969-2.592,9.063.761,12.912" transform="translate(-100.527 -11.731)" fill="#e8b367"/>
        <path id="Trazado_722020" data-name="Trazado 722020" d="M222.007,38.477c-3.353-3.849-4.418-7.943-.761-12.912a3.166,3.166,0,0,0,.3-.962c3.168.251,5.481,3.985,5.566,6.623.107,3.348-1.7,5.974-5.106,7.251" transform="translate(-106.88 -12.01)" fill="#f6cf90"/>
      </g>
    </g>
  </g>
</svg>
