<svg id="Grupo_1018244" data-name="Grupo 1018244" xmlns="http://www.w3.org/2000/svg" xmlns:xlink="http://www.w3.org/1999/xlink" width="383.465" height="315.92" viewBox="0 0 383.465 315.92">
  <defs>
    <clipPath id="clip-path">
      <rect id="Rectángulo_351021" data-name="Rectángulo 351021" width="383.465" height="315.921" fill="none"/>
    </clipPath>
  </defs>
  <g id="Grupo_1018243" data-name="Grupo 1018243" clip-path="url(#clip-path)">
    <path id="Trazado_720780" data-name="Trazado 720780" d="M151.721,66.85A66.85,66.85,0,1,1,84.872,0,66.849,66.849,0,0,1,151.721,66.85" transform="translate(15.636 0.001)" fill="#cda7ff"/>
    <path id="Trazado_720781" data-name="Trazado 720781" d="M267.431,114.462A66.85,66.85,0,1,1,200.58,47.611a66.849,66.849,0,0,1,66.851,66.851" transform="translate(116.033 41.31)" fill="#cda7ff"/>
    <path id="Trazado_720782" data-name="Trazado 720782" d="M133.7,149.231A66.85,66.85,0,1,1,66.849,82.382,66.849,66.849,0,0,1,133.7,149.231" transform="translate(0 71.48)" fill="#cda7ff"/>
    <path id="Trazado_720783" data-name="Trazado 720783" d="M167.288,310.988c-1.847,0-3.691-.035-5.541-.106a.863.863,0,0,1-.827-.895.809.809,0,0,1,.9-.827q5.141.2,10.278.022h.03a.862.862,0,0,1,.03,1.724c-1.619.054-3.244.082-4.865.082m15.152-.8a.862.862,0,0,1-.086-1.72q1.507-.157,3-.347c2.389-.3,4.8-.669,7.172-1.1a.863.863,0,1,1,.306,1.7c-2.4.431-4.845.8-7.261,1.109q-1.516.193-3.041.351a.763.763,0,0,1-.093.006m-30.971-.09a.874.874,0,0,1-.1-.006c-3.453-.392-6.914-.919-10.289-1.565a.862.862,0,1,1,.321-1.694c3.336.639,6.753,1.16,10.162,1.546a.862.862,0,0,1-.1,1.718m51.321-3.56a.862.862,0,0,1-.215-1.7c3.287-.84,6.606-1.815,9.865-2.9a.862.862,0,1,1,.545,1.636c-3.3,1.1-6.656,2.082-9.985,2.934a.919.919,0,0,1-.211.026m-71.617-.346a.889.889,0,0,1-.232-.032c-3.356-.926-6.692-2-9.914-3.184a.861.861,0,1,1,.592-1.617c3.181,1.171,6.471,2.226,9.779,3.14a.862.862,0,0,1-.226,1.694m91.233-6.174a.862.862,0,0,1-.329-1.658c3.147-1.294,6.3-2.717,9.378-4.232a.861.861,0,0,1,.758,1.546c-3.11,1.531-6.3,2.971-9.478,4.279a.853.853,0,0,1-.329.065m-110.625-.973a.87.87,0,0,1-.368-.082c-.551-.26-1.1-.523-1.649-.788-2.547-1.248-5.091-2.613-7.568-4.064a.861.861,0,0,1,.87-1.487c2.439,1.429,4.946,2.773,7.458,4q.81.392,1.623.779a.862.862,0,0,1-.366,1.642m129.175-8.162a.861.861,0,0,1-.433-1.606c2.955-1.711,5.894-3.539,8.733-5.437a.862.862,0,1,1,.96,1.433c-2.872,1.918-5.84,3.769-8.83,5.495a.83.83,0,0,1-.43.116m-147.006-2.28a.863.863,0,0,1-.5-.159c-2.807-2-5.567-4.159-8.206-6.414a.861.861,0,1,1,1.117-1.311c2.605,2.223,5.327,4.348,8.091,6.32a.862.862,0,0,1-.5,1.563m164.2-9.208a.863.863,0,0,1-.527-1.546c2.7-2.071,5.383-4.264,7.96-6.518a.863.863,0,0,1,1.137,1.3c-2.609,2.279-5.313,4.5-8.048,6.589a.859.859,0,0,1-.523.177m-179.914-4.2a.854.854,0,0,1-.613-.258c-2.424-2.456-4.776-5.052-7-7.717a.863.863,0,0,1,1.328-1.1c2.187,2.63,4.5,5.19,6.9,7.611a.862.862,0,0,1-.614,1.468m195.481-9.406a.858.858,0,0,1-.613-.254.867.867,0,0,1,0-1.22c2.422-2.406,4.8-4.925,7.056-7.486a.862.862,0,1,1,1.292,1.141c-2.284,2.589-4.686,5.134-7.131,7.568a.864.864,0,0,1-.609.25m-208.7-6.481a.859.859,0,0,1-.7-.37c-1.985-2.844-3.866-5.8-5.594-8.787a.862.862,0,1,1,1.492-.863c1.7,2.945,3.558,5.859,5.515,8.664a.863.863,0,0,1-.71,1.356M287.4,250.289a.863.863,0,0,1-.682-1.39c2.1-2.719,4.122-5.526,6.014-8.345a.863.863,0,1,1,1.432.962c-1.912,2.848-3.959,5.687-6.083,8.436a.859.859,0,0,1-.682.336m-122.5-2.174c-1.466,0-2.928-.05-4.352-.149a.862.862,0,0,1,.121-1.72,64.37,64.37,0,0,0,10.194-.125.863.863,0,0,1,.155,1.718c-2.06.183-4.118.276-6.118.276m-14.484-1.825a.8.8,0,0,1-.22-.03,45.248,45.248,0,0,1-9.783-3.874.861.861,0,1,1,.818-1.515,43.605,43.605,0,0,0,9.409,3.722.863.863,0,0,1-.224,1.7m30.736-.082a.861.861,0,0,1-.192-1.7c1.7-.387,3.414-.839,5.1-1.343,1.574-.469,3.158-.99,4.716-1.545a.862.862,0,0,1,.583,1.623c-1.588.566-3.2,1.1-4.805,1.573-1.726.515-3.481.977-5.211,1.373a.853.853,0,0,1-.192.021M54.674,241.415a.868.868,0,0,1-.781-.5c-1.475-3.153-2.822-6.389-4-9.62a.861.861,0,1,1,1.617-.59c1.162,3.184,2.49,6.372,3.943,9.478a.863.863,0,0,1-.781,1.229m145.919-2.133a.862.862,0,0,1-.375-1.638,91.9,91.9,0,0,0,8.944-4.992.861.861,0,0,1,.923,1.455,93.365,93.365,0,0,1-9.114,5.089.858.858,0,0,1-.377.086m-68.147-2.822a.854.854,0,0,1-.588-.233,44.342,44.342,0,0,1-6.746-8.078.862.862,0,0,1,1.444-.943,42.636,42.636,0,0,0,6.479,7.762.863.863,0,0,1-.588,1.492m166.472-3.339a.863.863,0,0,1-.749-1.294c1.707-2.957,3.332-6.012,4.83-9.079a.861.861,0,1,1,1.546.756c-1.513,3.1-3.156,6.193-4.884,9.185a.86.86,0,0,1-.743.431m-80.894-4.906a.863.863,0,0,1-.542-1.533,85.528,85.528,0,0,0,7.555-6.9.862.862,0,1,1,1.238,1.2,86.844,86.844,0,0,1-7.708,7.047.856.856,0,0,1-.543.192M47.6,222a.859.859,0,0,1-.831-.641q-.521-1.967-.975-3.95c-.467-2.064-.885-4.159-1.235-6.234a.863.863,0,0,1,1.7-.288c.346,2.043.756,4.107,1.214,6.141q.448,1.953.96,3.888a.863.863,0,0,1-.613,1.055A.917.917,0,0,1,47.6,222m73.522-2.648a.864.864,0,0,1-.8-.547,58.359,58.359,0,0,1-2.915-10.074.863.863,0,0,1,1.694-.331,56.16,56.16,0,0,0,2.828,9.775.861.861,0,0,1-.489,1.117.836.836,0,0,1-.314.06m67.075-.771a.862.862,0,0,1-.161-1.709,34.917,34.917,0,0,0,9.5-3.31.862.862,0,1,1,.79,1.531,36.654,36.654,0,0,1-9.966,3.474.965.965,0,0,1-.162.013m119.781-4.043a.859.859,0,0,1-.8-1.182c1.277-3.175,2.45-6.428,3.489-9.671a.864.864,0,0,1,1.645.527c-1.053,3.281-2.241,6.574-3.534,9.787a.861.861,0,0,1-.8.54m-75.609-1.165a.863.863,0,0,1-.691-1.378c1.167-1.563,2.28-3.173,3.3-4.787.784-1.231,1.543-2.506,2.251-3.789a.864.864,0,0,1,1.513.835c-.728,1.315-1.505,2.62-2.307,3.879-1.05,1.651-2.187,3.3-3.38,4.9a.858.858,0,0,1-.689.346M206.4,209.3a.862.862,0,0,1-.583-1.5,40.351,40.351,0,0,0,6.582-7.667.861.861,0,1,1,1.436.949,41.889,41.889,0,0,1-6.86,8,.847.847,0,0,1-.575.222M44.142,201.631a.86.86,0,0,1-.857-.8c-.237-3.044-.359-6.154-.36-9.241l0-1.169a.861.861,0,0,1,.861-.854H43.8a.862.862,0,0,1,.855.868l-.007,1.154c0,3.042.123,6.107.355,9.109a.86.86,0,0,1-.79.926c-.024,0-.047,0-.069,0m72.992-2.477a.865.865,0,0,1-.863-.842c-.011-.491-.015-.982-.015-1.472q0-1.563.08-3.113c.1-1.944.284-3.92.557-5.87a.871.871,0,0,1,.973-.734.861.861,0,0,1,.734.973c-.267,1.9-.448,3.825-.545,5.719q-.076,1.507-.075,3.026c0,.476,0,.952.017,1.431a.866.866,0,0,1-.844.883Zm125.23-3.819a.854.854,0,0,1-.314-.058.863.863,0,0,1-.487-1.117,79.462,79.462,0,0,0,3.072-9.751.861.861,0,1,1,1.673.409,80.539,80.539,0,0,1-3.14,9.968.865.865,0,0,1-.8.549m71.9-.489a.84.84,0,0,1-.2-.024.862.862,0,0,1-.639-1.038c.8-3.317,1.477-6.707,2.028-10.078a.862.862,0,0,1,1.7.278c-.558,3.412-1.248,6.845-2.053,10.2a.861.861,0,0,1-.837.661m-96.652-2.66a.84.84,0,0,1-.267-.043.861.861,0,0,1-.551-1.087,34.569,34.569,0,0,0,1.39-5.98,36.228,36.228,0,0,0,.334-3.933.863.863,0,0,1,1.726.052,39.62,39.62,0,0,1-.353,4.118,36.691,36.691,0,0,1-1.457,6.279.865.865,0,0,1-.822.594M44.338,180.967a.647.647,0,0,1-.084,0,.866.866,0,0,1-.775-.941c.331-3.429.814-6.9,1.436-10.315a.862.862,0,1,1,1.7.308c-.614,3.367-1.091,6.791-1.414,10.173a.863.863,0,0,1-.859.779m75.631-2.221a.9.9,0,0,1-.25-.037.866.866,0,0,1-.575-1.076,67.191,67.191,0,0,1,3.812-9.751.862.862,0,0,1,1.552.753,64.956,64.956,0,0,0-3.711,9.5.868.868,0,0,1-.827.613M247.316,175.3a.959.959,0,0,1-.1-.006.861.861,0,0,1-.753-.958,86.236,86.236,0,0,0,.592-10.119.908.908,0,0,1,.863-.913.82.82,0,0,1,.863.812v.1a86.9,86.9,0,0,1-.609,10.323.859.859,0,0,1-.852.76m70.3-.855c-.028,0-.056,0-.08,0a.866.866,0,0,1-.783-.939c.312-3.379.508-6.834.585-10.267a.944.944,0,0,1,.878-.842.863.863,0,0,1,.844.88c-.075,3.474-.273,6.968-.586,10.388a.863.863,0,0,1-.857.783m-302.645-1a.863.863,0,0,1-.857-.779c-.327-3.427-.536-6.922-.613-10.388a.863.863,0,0,1,.84-.882.887.887,0,0,1,.882.842c.078,3.425.282,6.879.605,10.263a.86.86,0,0,1-.773.939.649.649,0,0,1-.084,0m203.381-1.681a.865.865,0,0,1-.842-.669,43.592,43.592,0,0,0-3.435-9.519.86.86,0,1,1,1.539-.768,44.888,44.888,0,0,1,3.575,9.9.863.863,0,0,1-.642,1.035.9.9,0,0,1-.194.022M48.046,160.637a.8.8,0,0,1-.224-.032.864.864,0,0,1-.607-1.057c.91-3.347,1.97-6.686,3.154-9.927a.861.861,0,1,1,1.617.59c-1.164,3.2-2.211,6.488-3.106,9.788a.867.867,0,0,1-.835.637m80.935-.42a.86.86,0,0,1-.7-1.36,59.949,59.949,0,0,1,6.772-8,.862.862,0,0,1,1.212,1.225,58.454,58.454,0,0,0-6.578,7.771.857.857,0,0,1-.7.364M247.3,154.659a.86.86,0,0,1-.854-.76,88.032,88.032,0,0,0-1.793-10.082.863.863,0,0,1,1.679-.4,89.3,89.3,0,0,1,1.825,10.28.858.858,0,0,1-.753.958c-.036,0-.069,0-.1,0m70.779-.88a.86.86,0,0,1-.861-.824c-.155-3.412-.431-6.862-.814-10.253a.863.863,0,0,1,.76-.954.893.893,0,0,1,.954.76c.387,3.429.663,6.92.822,10.369a.862.862,0,0,1-.822.9l-.039,0m-108.829-.394a.859.859,0,0,1-.669-.317,45.213,45.213,0,0,0-7.237-7.086.861.861,0,1,1,1.055-1.362,46.806,46.806,0,0,1,7.517,7.357.862.862,0,0,1-.667,1.408m-194.734-.6h-.043a.864.864,0,0,1-.818-.906c.17-3.436.467-6.923.887-10.366a.862.862,0,1,1,1.711.207c-.413,3.4-.708,6.849-.876,10.244a.862.862,0,0,1-.861.82m129.138-6.994a.863.863,0,0,1-.48-1.58,54.14,54.14,0,0,1,9.26-4.944.863.863,0,1,1,.663,1.593,52.367,52.367,0,0,0-8.967,4.785.849.849,0,0,1-.476.146m-88.516-4.565a.874.874,0,0,1-.362-.082A.863.863,0,0,1,54.353,140c1.466-3.147,3.084-6.257,4.807-9.243a.859.859,0,0,1,1.177-.316.868.868,0,0,1,.317,1.178c-1.7,2.942-3.293,6.006-4.738,9.107a.863.863,0,0,1-.783.5m137.893-.387a.86.86,0,0,1-.349-.077,45.322,45.322,0,0,0-9.66-3.063.861.861,0,1,1,.338-1.688,46.9,46.9,0,0,1,10.024,3.179.863.863,0,0,1-.353,1.649m-30.394-2.953a.863.863,0,0,1-.174-1.707,54.431,54.431,0,0,1,10.436-1.132h.007a.862.862,0,0,1,.009,1.724,52.754,52.754,0,0,0-10.1,1.1.817.817,0,0,1-.177.019m79.863-3.3a.865.865,0,0,1-.811-.564,83.83,83.83,0,0,0-4.107-9.372.861.861,0,1,1,1.531-.788,85.786,85.786,0,0,1,4.2,9.564.866.866,0,0,1-.512,1.108.892.892,0,0,1-.3.052m73.265-1.35a.865.865,0,0,1-.848-.71c-.6-3.352-1.322-6.737-2.144-10.061a.861.861,0,1,1,1.672-.415c.833,3.36,1.563,6.783,2.172,10.171a.862.862,0,0,1-.7,1,.888.888,0,0,1-.155.015m-298.772-.973a.955.955,0,0,1-.162-.015.865.865,0,0,1-.685-1.009c.642-3.375,1.418-6.789,2.3-10.143a.861.861,0,1,1,1.666.435c-.868,3.321-1.634,6.694-2.269,10.031a.864.864,0,0,1-.846.7m48.483-8.926a.862.862,0,0,1-.7-1.36c1.2-1.711,2.473-3.41,3.769-5.052q1.275-1.616,2.615-3.184a.862.862,0,1,1,1.311,1.119q-1.314,1.544-2.572,3.134c-1.281,1.617-2.529,3.293-3.713,4.977a.863.863,0,0,1-.706.366m167.574-7.1a.852.852,0,0,1-.708-.375,85.825,85.825,0,0,0-6.292-8.068.863.863,0,0,1,1.294-1.141,87.272,87.272,0,0,1,6.417,8.235.862.862,0,0,1-.712,1.35m77.751-3.08a.86.86,0,0,1-.82-.6c-1.033-3.252-2.183-6.516-3.423-9.7a.862.862,0,1,1,1.606-.628c1.253,3.22,2.417,6.52,3.461,9.807a.864.864,0,0,1-.562,1.083.906.906,0,0,1-.261.039m-288.578-.9a.878.878,0,0,1-.273-.045.863.863,0,0,1-.545-1.091c1.087-3.261,2.3-6.541,3.612-9.751a.862.862,0,1,1,1.6.648c-1.294,3.179-2.5,6.423-3.573,9.648a.86.86,0,0,1-.818.59M78.866,107.6a.858.858,0,0,1-.618-.26.867.867,0,0,1,.013-1.22c2.473-2.413,5.091-4.744,7.777-6.933a.863.863,0,1,1,1.091,1.337c-2.648,2.155-5.228,4.453-7.661,6.83a.849.849,0,0,1-.6.245m140.555-6.866a.866.866,0,0,1-.577-.22,92.6,92.6,0,0,0-7.982-6.423.862.862,0,0,1,1-1.4A94.416,94.416,0,0,1,220,99.234a.861.861,0,0,1-.577,1.5M94.894,94.559a.86.86,0,0,1-.482-1.576c2.88-1.942,5.874-3.769,8.9-5.429a.862.862,0,0,1,.827,1.513c-2.973,1.634-5.922,3.433-8.761,5.345a.876.876,0,0,1-.48.148m208.4-.669a.861.861,0,0,1-.781-.5c-1.449-3.106-3.013-6.193-4.647-9.178a.863.863,0,0,1,1.515-.827c1.651,3.016,3.229,6.137,4.693,9.279a.861.861,0,0,1-.416,1.145.873.873,0,0,1-.364.08M30.023,93.108a.86.86,0,0,1-.775-1.238c1.507-3.1,3.132-6.2,4.835-9.206a.863.863,0,0,1,1.5.85C33.9,86.487,32.29,89.552,30.8,92.623a.855.855,0,0,1-.775.486m172.626-4.423a.88.88,0,0,1-.426-.112,98.3,98.3,0,0,0-9.172-4.58.862.862,0,0,1,.689-1.58,99.635,99.635,0,0,1,9.331,4.66.862.862,0,0,1-.422,1.612M113,84.612a.863.863,0,0,1-.344-1.653c3.194-1.39,6.475-2.637,9.747-3.705a.861.861,0,1,1,.532,1.638c-3.22,1.053-6.447,2.28-9.592,3.649a.885.885,0,0,1-.344.071m70.712-4.18a.858.858,0,0,1-.261-.041,98.944,98.944,0,0,0-9.915-2.59.863.863,0,0,1,.346-1.69,100.846,100.846,0,0,1,10.093,2.637.862.862,0,0,1-.261,1.685M132.643,78.2a.862.862,0,0,1-.187-1.7,102.931,102.931,0,0,1,10.281-1.741.862.862,0,1,1,.2,1.713,101.6,101.6,0,0,0-10.108,1.711.833.833,0,0,1-.189.021m30.844-1.94c-.03,0-.058,0-.086,0-3.063-.3-6.161-.454-9.209-.454l-1.022.007a.893.893,0,0,1-.876-.852.865.865,0,0,1,.854-.874l1.044-.006c3.1,0,6.259.155,9.379.461a.862.862,0,0,1-.084,1.72m129.868-.5a.857.857,0,0,1-.725-.4c-1.847-2.893-3.806-5.747-5.821-8.481a.862.862,0,0,1,1.388-1.023c2.039,2.766,4.019,5.65,5.887,8.576a.863.863,0,0,1-.728,1.326M40.224,75.123a.861.861,0,0,1-.721-1.334c1.9-2.9,3.913-5.762,5.98-8.507a.862.862,0,1,1,1.378,1.037c-2.045,2.717-4.038,5.549-5.917,8.414a.861.861,0,0,1-.721.39m240.859-16a.865.865,0,0,1-.657-.3c-2.213-2.605-4.544-5.16-6.933-7.594a.863.863,0,0,1,1.234-1.207c2.413,2.462,4.77,5.046,7.011,7.684a.865.865,0,0,1-.093,1.216.878.878,0,0,1-.562.205M52.662,58.607a.862.862,0,0,1-.654-1.425c2.264-2.626,4.634-5.2,7.049-7.65a.862.862,0,0,1,1.227,1.212c-2.387,2.42-4.731,4.966-6.97,7.564a.854.854,0,0,1-.652.3M266.609,44.366a.863.863,0,0,1-.573-.215c-1.66-1.466-3.373-2.906-5.087-4.279q-1.42-1.135-2.867-2.23a.862.862,0,0,1,1.04-1.375q1.465,1.109,2.9,2.258c1.737,1.39,3.47,2.848,5.155,4.333a.861.861,0,0,1-.57,1.507M67.18,43.884a.861.861,0,0,1-.572-1.507c2.6-2.3,5.3-4.527,8.025-6.619a.862.862,0,1,1,1.05,1.367c-2.693,2.068-5.364,4.268-7.934,6.542a.86.86,0,0,1-.57.217M250.134,31.879a.857.857,0,0,1-.469-.138c-2.848-1.847-5.816-3.623-8.819-5.28a.862.862,0,0,1,.831-1.511c3.042,1.677,6.046,3.476,8.926,5.343a.863.863,0,0,1-.469,1.586M83.582,31.307a.863.863,0,0,1-.474-1.584C86.008,27.813,89,26,92,24.32a.863.863,0,0,1,.84,1.507c-2.966,1.653-5.92,3.45-8.785,5.336a.855.855,0,0,1-.474.144m148.451-9.415a.854.854,0,0,1-.36-.078c-3.083-1.431-6.272-2.777-9.473-4.006a.862.862,0,1,1,.618-1.61c3.24,1.244,6.462,2.605,9.579,4.051a.861.861,0,0,1-.364,1.644m-130.4-.659a.862.862,0,0,1-.362-1.644c3.125-1.453,6.352-2.813,9.587-4.04a.862.862,0,1,1,.614,1.61c-3.2,1.214-6.387,2.559-9.475,3.993a.861.861,0,0,1-.364.08m111.1-6.746a.863.863,0,0,1-.254-.037c-3.259-1.007-6.6-1.918-9.925-2.71a.861.861,0,1,1,.4-1.675c3.362.8,6.735,1.72,10.033,2.738a.861.861,0,0,1-.256,1.685m-91.773-.6a.861.861,0,0,1-.248-1.687c3.293-.99,6.679-1.883,10.059-2.65a.863.863,0,0,1,.381,1.683c-3.341.758-6.686,1.64-9.947,2.618a.852.852,0,0,1-.245.035m71.658-4.2a.975.975,0,0,1-.146-.011c-3.36-.573-6.789-1.046-10.19-1.4a.861.861,0,1,1,.177-1.713c3.44.359,6.907.835,10.3,1.416a.861.861,0,0,1-.144,1.711m-51.5-.383a.861.861,0,0,1-.133-1.713c3.4-.534,6.877-.964,10.323-1.272a.862.862,0,0,1,.155,1.716c-3.41.306-6.843.73-10.211,1.259a.814.814,0,0,1-.134.009m30.94-1.772-.037,0c-3.4-.136-6.866-.166-10.287-.08h-.022a.862.862,0,0,1-.022-1.724c3.468-.086,6.963-.056,10.4.082a.862.862,0,0,1-.035,1.724" transform="translate(11.716 4.933)" fill="#bcf987" stroke="#bcf987" stroke-width="4"/>
    <path id="Trazado_720784" data-name="Trazado 720784" d="M153.683,38.62,110.1,3.945,50.368,79.022,111.2,127.43l46.006-57.817Z" transform="translate(43.702 3.423)" fill="#e1e3e5"/>
    <path id="Trazado_720785" data-name="Trazado 720785" d="M98.333,39.771,115.592,53.5l-3.526-30.99Z" transform="translate(85.32 19.532)" fill="#f5f6f7"/>
    <path id="Trazado_720786" data-name="Trazado 720786" d="M115.592,45.484,98.333,31.753l3.524,30.99Z" transform="translate(85.32 27.551)" fill="#b7b9bd"/>
    <rect id="Rectángulo_350980" data-name="Rectángulo 350980" width="21.504" height="19.849" transform="translate(140.162 33.153) rotate(-51.492)" fill="#fff"/>
    <path id="Trazado_720787" data-name="Trazado 720787" d="M92.188,29.631c.209-.953.433-1.993.416-2.049S91.23,25.554,90.364,24.3c-.269-.39-.493-.713-.616-.889l.392-1.1-.041,0,.67-.844a1.378,1.378,0,0,0,.4-.039,1.547,1.547,0,0,0,.489-.239c.224-.162.459-.512.751-.553a2.124,2.124,0,0,0,.721-.11,3.2,3.2,0,0,0,1.16-1.023c.084-.116.174-.351-.058-.359-.1,0-.168.14-.261.133h-.007c.2-.136.4-.28.482-.351a7.677,7.677,0,0,0,.758-.773,3.268,3.268,0,0,0,1.21-2.15,2.587,2.587,0,0,0-.738-2.1c-.022-.015-.28-.185-.271-.133-.037-.215-.252-.4-.379-.562a3.985,3.985,0,0,0-3.2-1.113c-1.108.075-1.612.906-2.114,1.686a5.628,5.628,0,0,0-.525.846,1.889,1.889,0,0,1-.245.439.161.161,0,0,0,.021-.116c-.06-.224-.267-.084-.362.024a3.145,3.145,0,0,0-.736,1.36,2.035,2.035,0,0,0,.054.727c.024.293-.263.6-.37.855a1.512,1.512,0,0,0-.123.53,1.656,1.656,0,0,0,.092.545l-.62.779-.007-.049-.981.628c-.093-.037-.226-.092-.388-.155l-.159-.063-.174-.069c-.09-.037-.185-.075-.282-.114-1.418-.562-3.627-1.438-3.7-1.444s-1.18.519-2.109.962a1.418,1.418,0,0,0-.493.392l-2.943,3.7L82.118,28.7l.093.075.219.174L88.894,34.1,91.8,30.44a1.965,1.965,0,0,0,.385-.809" transform="translate(65.652 10.496)" fill="#b7b9bd"/>
    <rect id="Rectángulo_350981" data-name="Rectángulo 350981" width="3.258" height="25.717" transform="translate(166.882 35.906) rotate(-51.487)" fill="#b7b9bd"/>
    <rect id="Rectángulo_350982" data-name="Rectángulo 350982" width="3.26" height="25.718" transform="translate(162.994 40.792) rotate(-51.49)" fill="#b7b9bd"/>
    <rect id="Rectángulo_350983" data-name="Rectángulo 350983" width="3.26" height="25.717" transform="translate(159.108 45.675) rotate(-51.49)" fill="#b7b9bd"/>
    <rect id="Rectángulo_350984" data-name="Rectángulo 350984" width="3.251" height="66.066" transform="matrix(0.623, -0.782, 0.782, 0.623, 132.586, 41.865)" fill="#b7b9bd"/>
    <rect id="Rectángulo_350985" data-name="Rectángulo 350985" width="3.251" height="66.066" transform="matrix(0.623, -0.783, 0.783, 0.623, 126.74, 49.214)" fill="#b7b9bd"/>
    <rect id="Rectángulo_350986" data-name="Rectángulo 350986" width="3.251" height="66.066" transform="matrix(0.623, -0.783, 0.783, 0.623, 120.897, 56.558)" fill="#b7b9bd"/>
    <rect id="Rectángulo_350987" data-name="Rectángulo 350987" width="3.253" height="66.065" transform="matrix(0.623, -0.783, 0.783, 0.623, 115.052, 63.904)" fill="#b7b9bd"/>
    <rect id="Rectángulo_350988" data-name="Rectángulo 350988" width="3.253" height="66.066" transform="translate(109.207 71.248) rotate(-51.491)" fill="#b7b9bd"/>
    <rect id="Rectángulo_350989" data-name="Rectángulo 350989" width="3.253" height="66.066" transform="translate(103.363 78.592) rotate(-51.491)" fill="#b7b9bd"/>
    <path id="Trazado_720788" data-name="Trazado 720788" d="M84.642,76.182,86.87,77.99a2.018,2.018,0,0,0,2.837-.34l1.817-2.241L87.75,72.35Z" transform="translate(73.441 62.775)" fill="#aab6c2"/>
    <path id="Trazado_720789" data-name="Trazado 720789" d="M83.765,73.146a2.021,2.021,0,0,0,.254,2.844l1.789,1.449,3.108-3.834-3.332-2.7Z" transform="translate(72.274 61.52)" fill="#ccced1"/>
    <path id="Trazado_720790" data-name="Trazado 720790" d="M118.789,36.6l.26-.317-.106-.086Z" transform="translate(103.069 31.404)" fill="#f66423"/>
    <path id="Trazado_720791" data-name="Trazado 720791" d="M114.984,33.472l.362-.232-.1-.086Z" transform="translate(99.768 28.767)" fill="#fd793e"/>
    <path id="Trazado_720792" data-name="Trazado 720792" d="M92.222,96.163l-4.52,5.575,3.775,3.061,3.229-3.984,51.056-62.983-3.775-3.061Z" transform="translate(76.096 30.169)" fill="#f66423"/>
    <path id="Trazado_720793" data-name="Trazado 720793" d="M89.147,96.309l-3.229,3.984,3.334,2.7,4.52-5.575,49.766-61.392-3.332-2.7Z" transform="translate(74.547 28.914)" fill="#fd793e"/>
    <path id="Trazado_720794" data-name="Trazado 720794" d="M85.072,71.716l-.551.682,3.332,2.7.553-.68,2.056-2.536-3.332-2.7Z" transform="translate(73.336 60.026)" fill="#22c2f8"/>
    <path id="Trazado_720795" data-name="Trazado 720795" d="M86.858,73.163l-.553.682L90.08,76.9l.551-.682,2.056-2.536-3.773-3.059Z" transform="translate(74.884 61.28)" fill="#08b3ec"/>
    <path id="Trazado_720796" data-name="Trazado 720796" d="M118.431,35.811l2.5,2.026,3.261-8.679-.756.484Z" transform="translate(102.758 25.3)" fill="#50545d"/>
    <path id="Trazado_720797" data-name="Trazado 720797" d="M119.386,35.586l5-6.169-7.06,4.5Z" transform="translate(101.802 25.524)" fill="#68696c"/>
    <path id="Trazado_720798" data-name="Trazado 720798" d="M117.028,36.232l-.26.318,3.775,3.061.153-.405,1.675-4.46-2.5-2.025Z" transform="translate(101.315 28.391)" fill="#f7d83b"/>
    <path id="Trazado_720799" data-name="Trazado 720799" d="M115.347,34.391l-.362.232,3.332,2.7.258-.319,2.846-3.511-2.056-1.666Z" transform="translate(99.768 27.616)" fill="#fce156"/>
    <path id="Trazado_720800" data-name="Trazado 720800" d="M93.939,77.671c-.157.021-.543-.245-.68-.308l-1.311-.6c-1.332-.607-1.378-.017-2.7-.622-3.237-1.47-6.242-3.45-9.473-4.919L76.2,69.593c-.209-.1-1.225-.4-1.291-.618-.043-.121.19-.54.226-.661.049-.148.194-.622.355-1.2a19.877,19.877,0,0,0,.624-2.835c.03-.439-.867-8.554-.542-9.49.4-1.126,1.02-2.228,1.517-3.326l2.088-4.585c.157-.34.291-.717.476-1.046a3.422,3.422,0,0,1,2.622-1.881,2.176,2.176,0,0,1,1.989.994,2.869,2.869,0,0,1-.086,1.847,12.062,12.062,0,0,1-.939,2.359c-.486.973-.388,1.487-.091,1.419.413-.084.659-1.051.8-1.363L93.56,28.088c.273-.6.506-1.261.835-1.83a1.156,1.156,0,0,1,.577-.461,1.389,1.389,0,0,1,.191-.075l.03-.007a4.075,4.075,0,0,1,.446-.108,3.2,3.2,0,0,1,3.375,1.5,3.287,3.287,0,0,1,.213.387l.011.024a1.9,1.9,0,0,1,.157.512,1.177,1.177,0,0,1-.08.614c-.144.344-.306.67-.459,1.014-.586,1.279-6.819,14.73-7.065,15.515-.2.614.452.861.768.321a17.674,17.674,0,0,0,.79-1.733,28.9,28.9,0,0,1,1.881-3.838c1.083-1.037,3.289-.336,4.006.829a2.564,2.564,0,0,1,.052,2.45l-1.012,2.228a15.111,15.111,0,0,0-.773,1.7c-.162.547.161.706.644.652.443-.05,1.546-2.112,1.864-2.811a3.045,3.045,0,0,1,1.851-1.845,2.8,2.8,0,0,1,3.214,1.421,2.306,2.306,0,0,1-.129,2.3c-.353.775-1.881,3.625-1.253,3.952.271.151.807-.777.953-1.037a2.43,2.43,0,0,1,3.117-1.055,2.827,2.827,0,0,1,1.545,2.361l0-.009a.117.117,0,0,1,0,.071.084.084,0,0,1,0,.049l.006.021-.006.006c-.14.684-3.627,8.078-5.03,11.152l-1.559,3.435a9.009,9.009,0,0,1-3.448,3.494,39.377,39.377,0,0,0-2.757,2.992c-.086.114-1.037,2.183-1.7,3.638-.276.607-.508,1.106-.6,1.315-.082.181-.123.422-.278.443" transform="translate(64.988 22.163)" fill="#fdc99c"/>
    <rect id="Rectángulo_350990" data-name="Rectángulo 350990" width="4.786" height="24.484" transform="matrix(0.414, -0.91, 0.91, 0.414, 137.05, 92.977)" fill="#fff"/>
    <path id="Trazado_720801" data-name="Trazado 720801" d="M105.231,61.469,77.313,48.76,66.327,73.887,89.615,92.416Z" transform="translate(57.55 42.307)" fill="#7d7e81"/>
    <path id="Trazado_720802" data-name="Trazado 720802" d="M86.6,30.688c-1.178-.342-1.655-1.868-1.061-3.392l.5-1.272a3.081,3.081,0,0,1,.14-.31,3.467,3.467,0,0,1,.448-.108A3.2,3.2,0,0,1,90,27.106a3.275,3.275,0,0,1,.215.387l.009.024-.4,1.014c-.6,1.526-2.051,2.5-3.225,2.157" transform="translate(73.999 22.163)" fill="#fde3d0"/>
    <path id="Trazado_720803" data-name="Trazado 720803" d="M155.962,36.551,114.234,55.523l32.682,71.886,58.256-26.483L180,45.565Z" transform="translate(99.117 31.714)" fill="#dcdedf"/>
    <path id="Trazado_720804" data-name="Trazado 720804" d="M144.09,53.078l16.527-7.514-24.041-9.013Z" transform="translate(118.502 31.714)" fill="#ecedee"/>
    <path id="Trazado_720805" data-name="Trazado 720805" d="M157.126,41.377,140.6,48.891,164.638,57.9Z" transform="translate(121.993 35.901)" fill="#b3b5b8"/>
    <rect id="Rectángulo_350991" data-name="Rectángulo 350991" width="40.201" height="2.169" transform="matrix(0.91, -0.414, 0.414, 0.91, 219.519, 91.111)" fill="#b3b5b8"/>
    <rect id="Rectángulo_350992" data-name="Rectángulo 350992" width="40.201" height="2.17" transform="matrix(0.91, -0.414, 0.414, 0.91, 221.239, 94.895)" fill="#b3b5b8"/>
    <rect id="Rectángulo_350993" data-name="Rectángulo 350993" width="40.202" height="2.171" transform="matrix(0.91, -0.414, 0.414, 0.91, 222.959, 98.679)" fill="#b3b5b8"/>
    <rect id="Rectángulo_350994" data-name="Rectángulo 350994" width="54.377" height="2.678" transform="translate(229.598 113.28) rotate(-24.474)" fill="#b3b5b8"/>
    <rect id="Rectángulo_350995" data-name="Rectángulo 350995" width="54.377" height="2.677" transform="matrix(0.91, -0.414, 0.414, 0.91, 232.791, 120.302)" fill="#b3b5b8"/>
    <rect id="Rectángulo_350996" data-name="Rectángulo 350996" width="54.377" height="2.677" transform="matrix(0.91, -0.414, 0.414, 0.91, 235.988, 127.335)" fill="#b3b5b8"/>
    <rect id="Rectángulo_350997" data-name="Rectángulo 350997" width="54.377" height="2.678" transform="matrix(0.91, -0.414, 0.414, 0.91, 239.185, 134.368)" fill="#b3b5b8"/>
    <rect id="Rectángulo_350998" data-name="Rectángulo 350998" width="54.377" height="2.678" transform="matrix(0.91, -0.414, 0.414, 0.91, 242.382, 141.4)" fill="#b3b5b8"/>
    <rect id="Rectángulo_350999" data-name="Rectángulo 350999" width="54.377" height="2.678" transform="matrix(0.91, -0.414, 0.414, 0.91, 245.579, 148.433)" fill="#b3b5b8"/>
    <path id="Trazado_720806" data-name="Trazado 720806" d="M167.675,37.056,125.948,56.028l32.682,71.886,58.256-26.485L191.714,46.068Z" transform="translate(109.28 32.152)" fill="#ecedee"/>
    <path id="Trazado_720807" data-name="Trazado 720807" d="M155.8,53.582l16.525-7.514-24.039-9.011Z" transform="translate(128.666 32.153)" fill="#ecedee"/>
    <path id="Trazado_720808" data-name="Trazado 720808" d="M168.838,41.882,152.313,49.4l24.039,9.013Z" transform="translate(132.156 36.339)" fill="#b3b5b8"/>
    <rect id="Rectángulo_351000" data-name="Rectángulo 351000" width="40.201" height="2.17" transform="translate(241.396 92.053) rotate(-24.448)" fill="#b3b5b8"/>
    <rect id="Rectángulo_351001" data-name="Rectángulo 351001" width="40.201" height="2.17" transform="matrix(0.91, -0.414, 0.414, 0.91, 243.116, 95.837)" fill="#b3b5b8"/>
    <rect id="Rectángulo_351002" data-name="Rectángulo 351002" width="40.201" height="2.17" transform="matrix(0.91, -0.414, 0.414, 0.91, 244.836, 99.621)" fill="#b3b5b8"/>
    <rect id="Rectángulo_351003" data-name="Rectángulo 351003" width="54.377" height="2.678" transform="matrix(0.91, -0.414, 0.414, 0.91, 251.468, 114.206)" fill="#b3b5b8"/>
    <rect id="Rectángulo_351004" data-name="Rectángulo 351004" width="54.378" height="2.677" transform="translate(254.667 121.244) rotate(-24.448)" fill="#b3b5b8"/>
    <rect id="Rectángulo_351005" data-name="Rectángulo 351005" width="54.377" height="2.677" transform="matrix(0.91, -0.414, 0.414, 0.91, 257.866, 128.277)" fill="#b3b5b8"/>
    <rect id="Rectángulo_351006" data-name="Rectángulo 351006" width="54.377" height="2.678" transform="matrix(0.91, -0.414, 0.414, 0.91, 261.062, 135.31)" fill="#b3b5b8"/>
    <rect id="Rectángulo_351007" data-name="Rectángulo 351007" width="54.377" height="2.678" transform="matrix(0.91, -0.414, 0.414, 0.91, 264.26, 142.342)" fill="#b3b5b8"/>
    <rect id="Rectángulo_351008" data-name="Rectángulo 351008" width="54.377" height="2.678" transform="matrix(0.91, -0.414, 0.414, 0.91, 267.457, 149.375)" fill="#b3b5b8"/>
    <path id="Trazado_720809" data-name="Trazado 720809" d="M142.8,54.5c.463-1.367,1.182-3.5,2.452-7.3l-5.132-.887c-.077,4-.118,6.251-.142,7.7Z" transform="translate(121.45 40.19)" fill="#00b3a9"/>
    <path id="Trazado_720810" data-name="Trazado 720810" d="M144.947,14.8l1.358-7.833,8.769,5.553-.981,5.657Z" transform="translate(125.765 6.049)" fill="#00b3a9"/>
    <path id="Trazado_720811" data-name="Trazado 720811" d="M152.655,25.957l-9.906-1.715c-.144.988-.28,1.965-.413,2.936l9.721,1.685c.2-.96.4-1.926.6-2.906" transform="translate(123.499 21.034)" fill="#646567"/>
    <path id="Trazado_720812" data-name="Trazado 720812" d="M143.975,27.738c-1.332,10.225-2.329,20.259-4.083,34.953l5.625.973c3.289-14.428,5.724-24.216,7.906-34.288Z" transform="translate(121.379 24.067)" fill="#646567"/>
    <path id="Trazado_720813" data-name="Trazado 720813" d="M150.622,12.035a3.273,3.273,0,0,0-3.321.951c-1.894,1.739-3.2,5.392-3.887,10.857-1.561,10.922-4.23,24.453-4.258,24.59,0,0,4.766-1.438,3.75-7.368.674-3.838,4.105-20.115,4.141-20.277a4,4,0,0,1,.917-1.772c.332-.3.9-.62,1.941.149.863.633,1.369.467,1.64.217,1.091-1-.254-5.681-.691-7.1l-.054-.179Z" transform="translate(120.74 10.33)" fill="#646567"/>
    <path id="Trazado_720814" data-name="Trazado 720814" d="M152.281,27.5l-9.721-1.681c-.168,1.2-.327,2.4-.482,3.593l9.449,1.636c.254-1.177.506-2.355.755-3.549" transform="translate(123.276 22.399)" fill="#00b3a9"/>
    <path id="Trazado_720815" data-name="Trazado 720815" d="M156.833,12.523,146.879,10.8c-1.952,10.013-3.27,17.847-4.322,25.105l9.906,1.716c1.453-7.19,2.843-15.012,4.37-25.1" transform="translate(123.691 9.37)" fill="#646567"/>
    <path id="Trazado_720816" data-name="Trazado 720816" d="M139.986,50.441a9.576,9.576,0,0,0,.043,1.808,9.729,9.729,0,0,0,.657,2.538,12.3,12.3,0,0,0,2.122-3.859l-2.822-.487" transform="translate(121.44 43.766)" fill="#646567"/>
    <path id="Trazado_720817" data-name="Trazado 720817" d="M170.109,60.205l2.251,2.138a7.341,7.341,0,0,1,1.793,3.616,33.4,33.4,0,0,0,1.589,2.951c.09.136,2.772,2.673,3.235,3.119.118.114.3.213.271.34s-.336.355-.422.445l-.818.861c-.829.874-.383,1.066-1.208,1.937-2.015,2.124-4.359,3.93-6.371,6.049L168.2,84.007c-.131.138-.639.846-.827.839-.106,0-.368-.293-.454-.357a24.048,24.048,0,0,0-2.878-1.843c-.334-.14-6.888-1.619-7.525-2.127-.775-.613-1.464-1.386-2.181-2.068l-3.011-2.856c-.224-.213-.48-.42-.687-.654a2.817,2.817,0,0,1-.758-2.546,1.8,1.8,0,0,1,1.3-1.281,2.381,2.381,0,0,1,1.418.564,9.911,9.911,0,0,1,1.584,1.365c.628.639,1.052.7,1.081.452.041-.344-.641-.8-.846-.992L140.568,59.357c-.394-.374-.848-.734-1.2-1.141a1.069,1.069,0,0,1-.209-.74,3.42,3.42,0,0,1,.034-.4,2.646,2.646,0,0,1,2.075-2.226,3.419,3.419,0,0,1,.359-.06,1.134,1.134,0,0,1,.917.241c.228.2.443.418.665.628.84.8,9.635,9.26,10.179,9.663.424.314.788-.121.454-.514A14.7,14.7,0,0,0,152.7,63.73a23.347,23.347,0,0,1-2.482-2.5c-.519-1.121.618-2.648,1.718-2.895a2.126,2.126,0,0,1,1.924.616l1.461,1.388A12.374,12.374,0,0,0,156.44,61.4c.381.275.59.065.678-.325.08-.357-1.229-1.771-1.685-2.2a2.516,2.516,0,0,1-.939-1.937,2.3,2.3,0,0,1,1.965-2.118,1.9,1.9,0,0,1,1.757.715c.506.482,2.316,2.437,2.738,2.038.189-.172-.387-.839-.553-1.022a2,2,0,0,1,.019-2.708,2.326,2.326,0,0,1,2.256-.566l-.011-.006a.117.117,0,0,1,.054.015.1.1,0,0,1,.039.011l.017,0,0,0c.5.3,5.313,4.992,7.332,6.907" transform="translate(120.74 46.151)" fill="#fbc79b"/>
    <rect id="Rectángulo_351009" data-name="Rectángulo 351009" width="20.152" height="3.939" transform="translate(285.926 130.986) rotate(-46.491)" fill="#fff"/>
    <path id="Trazado_720818" data-name="Trazado 720818" d="M189.82,80.384,170.892,62.419,153.513,80.731l11.51,10.926Z" transform="translate(133.197 54.158)" fill="#7d7e81"/>
    <path id="Trazado_720819" data-name="Trazado 720819" d="M141.4,54.071l1.126.973a1.724,1.724,0,0,1-2.254,2.609l-1.085-.938a3.2,3.2,0,0,1,.015-.381,2.5,2.5,0,0,1,1.86-2.189,2.668,2.668,0,0,1,.338-.075" transform="translate(120.763 46.915)" fill="#dac1ae"/>
    <path id="Trazado_720820" data-name="Trazado 720820" d="M205.11,128.877l-14.538,44.96a6.312,6.312,0,0,1-7.943,4.062l-23.456-7.585-22.8-7.375A6.306,6.306,0,0,1,132.31,155l20.165-62.359a6.306,6.306,0,0,1,7.943-4.06l14.346,4.637-.289.9-2.187-.708a2.464,2.464,0,0,0-2.5.616l-11.559-3.739-21.947,67.865L160.566,166l24.945,8.065,13.132-40.61c-.5.349-.99.7-1.5,1.048l-12.28,37.973-23.895-7.727-23.239-7.515,21.11-65.286,10.248,3.313,0,.007a2.469,2.469,0,0,0,1.589,3.112l10.644,3.442,11.3,3.653a2.472,2.472,0,0,0,3.112-1.591l0-.009,10.25,3.315-2.079,6.419c.366-.3.728-.592,1.083-.885.166-.142.327-.265.491-.4l1.982-6.12L195.9,102.465a2.458,2.458,0,0,0-1.67-1.965l-2.187-.708.289-.9,14.347,4.639a6.3,6.3,0,0,1,4.316,5.312,8.58,8.58,0,0,1,1.386-.407,7.738,7.738,0,0,0-5.259-6.281l-14.345-4.637.071-.217a2.614,2.614,0,0,0-1.685-3.293l-3.412-1.106a3.028,3.028,0,0,0-5.762-1.862l-3.414-1.1a2.618,2.618,0,0,0-3.295,1.683l-.069.219L160.863,87.2a7.762,7.762,0,0,0-9.764,4.992l-20.165,62.359a7.762,7.762,0,0,0,4.992,9.762l46.256,14.96a7.766,7.766,0,0,0,9.766-4.992L207.1,127.422c-.232.172-.465.346-.7.515-.433.318-.865.628-1.294.939m-20.122-38.4a1.552,1.552,0,0,1,.342.063,1.5,1.5,0,0,1-.924,2.859,1.465,1.465,0,0,1-.314-.148,1.5,1.5,0,0,1,.9-2.775m-9.536,2.957.114-.347,16.189,5.237-.112.347-.29.895-8.421-2.723-7.769-2.512Z" transform="translate(113.28 75.335)" fill="#69c0cc"/>
    <path id="Trazado_720821" data-name="Trazado 720821" d="M157.089,98.446l-8.612-2.785-2.787,8.61,8.614,2.785Zm-3.733,6.755-5.807-1.879,1.877-5.807,5.808,1.879Z" transform="translate(126.41 83.001)" fill="#69c0cc"/>
    <path id="Trazado_720822" data-name="Trazado 720822" d="M153.724,108.848l-8.61-2.785-2.787,8.614,8.612,2.783Zm-3.733,6.757-5.807-1.879,1.875-5.808,5.81,1.879Z" transform="translate(123.493 92.027)" fill="#69c0cc"/>
    <path id="Trazado_720823" data-name="Trazado 720823" d="M138.964,125.077l8.61,2.785,2.787-8.61-8.612-2.785Zm3.733-6.755L148.5,120.2l-1.877,5.807-5.808-1.879Z" transform="translate(120.574 101.054)" fill="#69c0cc"/>
    <path id="Trazado_720824" data-name="Trazado 720824" d="M176.663,107.189l-17.646-5.708-6.29-2.032-.418,1.3,6.288,2.032,17.646,5.708Z" transform="translate(132.152 86.288)" fill="#69c0cc"/>
    <path id="Trazado_720825" data-name="Trazado 720825" d="M165.5,116.5l1.2-1.046-11.042-3.571-6.29-2.034-.418,1.3,6.288,2.034Z" transform="translate(129.234 95.314)" fill="#69c0cc"/>
    <path id="Trazado_720826" data-name="Trazado 720826" d="M145.58,121.553l6.288,2.034,17.648,5.706.42-1.3-17.648-5.706L146,120.255Z" transform="translate(126.314 104.341)" fill="#69c0cc"/>
    <path id="Trazado_720827" data-name="Trazado 720827" d="M178.95,115.54c.5-.347,1-.7,1.494-1.042.839-.588,1.673-1.175,2.506-1.769l-1.365-1.759-.816-1.051-2.376-3.063q-1.146.969-2.28,1.942c-3.451,2.957-6.955,6.042-11.049,9.622l-1.2,1.046c-1.877,1.64-3.885,3.386-6.075,5.28.047.062.093.121.14.181-.1.1-.187.2-.28.3q-.661.7-1.2,1.27c-1.15,1.214-1.918,2.026-2.46,2.6-.144.138-.3.3-.452.471a7.349,7.349,0,0,0-.467.588,5.614,5.614,0,0,0-.293.48,7.9,7.9,0,0,0-.657,1.319c.25-.037.525-.088.82-.161a8.989,8.989,0,0,0,2.077-.773c.11-.056.233-.112.334-.168l.252-.14.276-.153c.4-.22.883-.489,1.459-.809l.493-.275c.562-.314,1.19-.663,1.946-1.081l.586-.327c.021.024.041.05.06.075s.056.071.082.106c2.355-1.636,4.529-3.136,6.567-4.535s3.937-2.7,5.747-3.941c2.148-1.474,4.163-2.859,6.132-4.228m-23.409,14.374-.6-.775,3.1-3.272,1.442,1.86c-1.84,1.023-3.067,1.705-3.939,2.187" transform="translate(131.988 92.714)" fill="#69c0cc"/>
    <path id="Trazado_720828" data-name="Trazado 720828" d="M195.729,104.771l-2.206-8.066-4.643,3.6-.034-.043c-.247.183-.484.36-.723.54-.205.151-.4.3-.6.452a2.224,2.224,0,0,0-.3-.185c-.026-.013-.06-.026-.088-.039a2.43,2.43,0,0,0-.3-.123c-.075-.024-.161-.041-.243-.062s-.153-.043-.241-.056a3.632,3.632,0,0,0-.594-.047,5.248,5.248,0,0,0-.779.067c-.1.017-.2.05-.293.071-.228.049-.461.11-.7.185a7.722,7.722,0,0,0-.741.275q-.465.2-.962.459a22.151,22.151,0,0,0-3.229,2.155q-.583.457-1.19.975c-.239.2-.486.4-.728.6q-.773.63-1.569,1.27l-.252.2c-1.3,1.042-2.626,2.086-3.905,3.082-.852.663-1.687,1.305-2.478,1.914s-1.545,1.18-2.234,1.705-1.32,1-1.868,1.41-1.014.758-1.376,1.031l-.764.568-.114.084a3.129,3.129,0,0,0,.338.127,4.709,4.709,0,0,0,.895.192,4.6,4.6,0,0,0,1.281-.03,4.312,4.312,0,0,0,.977-.286,4.57,4.57,0,0,0,1.018-.6,6.389,6.389,0,0,0,1.489-1.666c.3-.232.725-.551,1.24-.934,1.031-.766,2.422-1.784,3.887-2.85q.384-.277.771-.56l1.513-1.1,1.012-.732c1.057-.766,2.036-1.472,2.811-2.03,1.035-.745,1.707-1.231,1.735-1.249a3.721,3.721,0,0,1,.471-.269,3.465,3.465,0,0,1,.39-.155,1.954,1.954,0,0,1,.59-.112,1.046,1.046,0,0,1,.166.013h0l-.958.732c-1.479,1.139-2.869,2.226-4.2,3.281-.067.054-.134.108-.2.161-.672.532-1.322,1.055-1.965,1.571-.106.084-.215.172-.319.256-.058.047-.114.093-.174.14q-.709.572-1.4,1.137c-.224.183-.454.368-.676.551q-.9.737-1.772,1.466l1.266,1.634.818,1.053,2.605,3.358q.843-.608,1.694-1.233c.056-.039.11-.078.166-.121q.86-.628,1.737-1.279c.032-.022.062-.047.093-.069,2.895-2.152,5.95-4.494,9.4-7.226,1.393-1.106,2.852-2.273,4.387-3.519l-.034-.043Zm-14.855,9.3-2.023,1.554-1.935,1.487L175.51,115.3l-.758-.977,6.042-4.707,2.032-1.584,1.84-1.432,1.823-1.418,1.89-1.472,2.266,2.854Zm8.868-12.65-.252-.486,3.541-2.745,1.709,6.253-1.657,1.285q-1.67-2.152-3.341-4.307" transform="translate(141.053 83.907)" fill="#69c0cc"/>
    <path id="Trazado_720829" data-name="Trazado 720829" d="M16.7,80.672A7.937,7.937,0,0,0,13.069,91.28l37.344,70.388a7.937,7.937,0,0,0,10.821,2.94l27.453-14.566L44.155,66.106Z" transform="translate(10.605 57.358)" fill="#eaba86"/>
    <path id="Trazado_720830" data-name="Trazado 720830" d="M57.563,58.554,29.32,73.536l44.533,83.936L102.1,142.49a7.938,7.938,0,0,0,3.631-10.608L68.382,61.494a7.935,7.935,0,0,0-10.819-2.94" transform="translate(25.44 49.927)" fill="#d6a773"/>
    <rect id="Rectángulo_351010" data-name="Rectángulo 351010" width="33.105" height="86.714" transform="translate(26.826 141.448) rotate(-27.948)" fill="#929397"/>
    <rect id="Rectángulo_351011" data-name="Rectángulo 351011" width="33.998" height="86.714" transform="translate(56.071 125.932) rotate(-27.948)" fill="#7a7c83"/>
    <rect id="Rectángulo_351012" data-name="Rectángulo 351012" width="31.677" height="83.422" transform="matrix(0.883, -0.469, 0.469, 0.883, 28.881, 142.277)" fill="#fff"/>
    <rect id="Rectángulo_351013" data-name="Rectángulo 351013" width="32.569" height="83.42" transform="translate(56.866 127.429) rotate(-27.946)" fill="#f8f9fa"/>
    <path id="Trazado_720831" data-name="Trazado 720831" d="M23.538,70.883l1.154,2.178a3.29,3.29,0,0,0,4.486,1.22l7.187-3.812-2.646-4.987Z" transform="translate(20.423 56.816)" fill="#e1e4e6"/>
    <path id="Trazado_720832" data-name="Trazado 720832" d="M28.989,68.186l2.646,4.987,7.973-4.228a3.293,3.293,0,0,0,1.505-4.4l-1.156-2.178Z" transform="translate(25.153 54.113)" fill="#c6ccd2"/>
    <path id="Trazado_720833" data-name="Trazado 720833" d="M23.562,73.446A3.108,3.108,0,0,0,22.139,77.6l.164.31a3.11,3.11,0,0,0,4.24,1.152l12.814-6.8-2.981-5.618Z" transform="translate(18.921 57.828)" fill="#b8babe"/>
    <path id="Trazado_720834" data-name="Trazado 720834" d="M43.209,62.968l-13.6,7.217L32.59,75.8l13.6-7.217a3.108,3.108,0,0,0,1.423-4.156l-.164-.31a3.11,3.11,0,0,0-4.24-1.152" transform="translate(25.691 54.291)" fill="#9fa3aa"/>
    <path id="Trazado_720835" data-name="Trazado 720835" d="M27.331,91.126l9.376-4.974-4.664-8.787-9.376,4.974Zm-3.623-8.505,7.986-4.238,3.973,7.487L27.68,90.106Z" transform="translate(19.667 67.127)" fill="#a5a7ab"/>
    <rect id="Rectángulo_351014" data-name="Rectángulo 351014" width="8.571" height="1.658" transform="translate(57.062 146.088) rotate(-27.951)" fill="#a5a7ab"/>
    <rect id="Rectángulo_351015" data-name="Rectángulo 351015" width="24.054" height="1.658" transform="matrix(0.883, -0.469, 0.469, 0.883, 64.633, 142.072)" fill="#8b9197"/>
    <path id="Trazado_720836" data-name="Trazado 720836" d="M33.56,102.868l9.376-4.974-4.664-8.787L28.9,94.081Zm-3.621-8.505,7.984-4.238,3.973,7.487-7.986,4.236Z" transform="translate(25.072 77.315)" fill="#a5a7ab"/>
    <rect id="Rectángulo_351016" data-name="Rectángulo 351016" width="8.57" height="1.658" transform="translate(68.697 168.02) rotate(-27.951)" fill="#a5a7ab"/>
    <rect id="Rectángulo_351017" data-name="Rectángulo 351017" width="24.054" height="1.658" transform="matrix(0.883, -0.469, 0.469, 0.883, 76.268, 164.002)" fill="#8b9197"/>
    <path id="Trazado_720837" data-name="Trazado 720837" d="M39.791,114.61l9.374-4.974L44.5,100.849l-9.376,4.974ZM36.167,106.1l7.984-4.238,3.973,7.487L40.14,113.59Z" transform="translate(30.478 87.503)" fill="#a5a7ab"/>
    <rect id="Rectángulo_351018" data-name="Rectángulo 351018" width="8.57" height="1.658" transform="translate(80.333 189.95) rotate(-27.951)" fill="#a5a7ab"/>
    <rect id="Rectángulo_351019" data-name="Rectángulo 351019" width="24.055" height="1.658" transform="translate(87.903 185.932) rotate(-27.946)" fill="#8b9197"/>
    <path id="Trazado_720838" data-name="Trazado 720838" d="M30.886,65.838a1.851,1.851,0,0,1,.5-2.271l-.876-1.649a3.77,3.77,0,0,0-1.371,4.847l-4.109,2.181a3.29,3.29,0,0,0-1.505,4.4l.334.629,10.181-5.4L33.044,66.7a1.852,1.852,0,0,1-2.157-.863" transform="translate(20.105 53.724)" fill="#a5a7ab"/>
    <path id="Trazado_720839" data-name="Trazado 720839" d="M41.265,62.789a3.289,3.289,0,0,0-4.486-1.218l-4.113,2.18a3.809,3.809,0,0,0-5.194-1.412,4.164,4.164,0,0,0-.374.247l.876,1.647a1.92,1.92,0,0,1,.368-.254A1.83,1.83,0,1,1,30.056,67.2a2.018,2.018,0,0,1-.418.162l.994,1.873L41.6,63.42Z" transform="translate(23.513 53.058)" fill="#8b9197"/>
    <path id="Trazado_720840" data-name="Trazado 720840" d="M38.311,102.22,28.256,95.911l.807-1.143,7.954,4.99L37.6,85.716,39,85.7Z" transform="translate(24.516 74.356)" fill="#f34f4f"/>
    <path id="Trazado_720841" data-name="Trazado 720841" d="M46.89,73.1S37.421,75.709,33.8,87.4c1.509-.981,3.741-2.392,6.52-4.006,4.094-2.381,4.822-2.557,5.547-2.6,4.284-.247,7.926,5.155,8.412,3.343.146-.545.65-6.653.65-6.653Z" transform="translate(29.327 63.424)" fill="#f6bb93"/>
    <path id="Trazado_720842" data-name="Trazado 720842" d="M57.9,71.728l-7.988-.7a1.924,1.924,0,0,0-1.373.08L38.184,75.773a1.935,1.935,0,0,0-.934.9s-4.283,10.465-4.411,12.405a1.945,1.945,0,0,0,1.907,2.073c1.171-.114,1.795-1.787,2.383-2.6A20.869,20.869,0,0,0,38.7,85.762q1.146-2.241,2.293-4.482a1.93,1.93,0,0,1,1.533-1.042l4.619-.443A1.932,1.932,0,0,1,49,80.743l.84,1.44a1.928,1.928,0,0,1,.133,1.672,1.88,1.88,0,0,1-.388.622l-1.029,1.1a1.92,1.92,0,0,1-.958.557l-1.459.353c-1.675.405-3.334.891-4.989,1.376a19.691,19.691,0,0,0-3.634,1.046,1.76,1.76,0,0,0-1.149,1.414A3.529,3.529,0,0,0,36.6,92.31a2.542,2.542,0,0,0,.719.951c.265.215.424.035.762.071a26.874,26.874,0,0,0,2.781-.317,101.231,101.231,0,0,1,14.5-.887,1.976,1.976,0,0,0,.751-.172L63.2,89.549c.786-.357,6.632-1.746,6.5-2.6l-4.6-13.2c-.11-.728-6.509-1.8-7.211-2.021" transform="translate(28.49 61.548)" fill="#fac29a"/>
    <path id="Trazado_720843" data-name="Trazado 720843" d="M49.907,71.025a1.929,1.929,0,0,0-1.371.08L38.186,75.773a1.915,1.915,0,0,0-.934.9s-4.283,10.465-4.413,12.4a1.945,1.945,0,0,0,1.909,2.073c1.171-.112,1.795-1.787,2.381-2.6A20.753,20.753,0,0,0,38.7,85.761q1.146-2.241,2.3-4.482a1.929,1.929,0,0,1,1.533-1.04l4.619-.443A1.927,1.927,0,0,1,49,80.743l.84,1.442a1.933,1.933,0,0,1,.131,1.672l15.268,1.427-.131-11.535C65,73.02,58.6,71.95,57.9,71.728Z" transform="translate(28.49 61.549)" fill="#fac29a"/>
    <path id="Trazado_720844" data-name="Trazado 720844" d="M35.823,89.187c.185-.728.471-1.864.977-3.881l-2.7-.252c.123,2.075.192,3.244.237,3.993Z" transform="translate(29.59 73.798)" fill="#2bc6fa"/>
    <path id="Trazado_720845" data-name="Trazado 720845" d="M35.217,68.548l.387-4.116,4.77,2.523-.28,2.971Z" transform="translate(30.556 55.905)" fill="#f34f4f"/>
    <path id="Trazado_720846" data-name="Trazado 720846" d="M39.756,74l-5.2-.487c-.035.519-.065,1.031-.1,1.539l5.106.478c.067-.506.131-1.014.192-1.53" transform="translate(29.897 63.782)" fill="#666568"/>
    <path id="Trazado_720847" data-name="Trazado 720847" d="M34.726,75.341c-.275,5.355-.387,10.593-.7,18.283l2.955.276c1.121-7.614,1.987-12.782,2.708-18.094Z" transform="translate(29.523 65.37)" fill="#666568"/>
    <path id="Trazado_720848" data-name="Trazado 720848" d="M37.505,67.06a1.7,1.7,0,0,0-1.683.628c-.911.977-1.442,2.923-1.574,5.782-.366,5.724-1.2,12.846-1.21,12.917a3.156,3.156,0,0,0,1.645-3.969C34.876,80.4,36,71.826,36.008,71.74a2.06,2.06,0,0,1,.4-.956c.161-.172.439-.357,1.012,0,.473.293.728.187.859.047.523-.562-.362-2.934-.648-3.649l-.034-.09Z" transform="translate(28.666 58.152)" fill="#f34f4f"/>
    <path id="Trazado_720849" data-name="Trazado 720849" d="M39.612,74.812l-5.106-.478c-.039.631-.071,1.257-.1,1.881l4.962.467c.084-.62.168-1.242.248-1.87" transform="translate(29.848 64.497)" fill="#f34f4f"/>
    <path id="Trazado_720850" data-name="Trazado 720850" d="M40.959,66.939l-5.228-.489c-.607,5.269-.973,9.381-1.223,13.186l5.2.487c.461-3.784.865-7.895,1.248-13.184" transform="translate(29.941 57.656)" fill="#666568"/>
    <path id="Trazado_720851" data-name="Trazado 720851" d="M34.23,87.192a5.2,5.2,0,0,0,.1.936,4.962,4.962,0,0,0,.443,1.289,6.253,6.253,0,0,0,.594-1.063,6.449,6.449,0,0,0,.349-1.022l-1.483-.14" transform="translate(29.7 75.653)" fill="#666568"/>
    <path id="Trazado_720852" data-name="Trazado 720852" d="M47.967,78.475l-1.029,1.1a1.937,1.937,0,0,1-.958.558l-1.459.351c-1.675.405-3.334.893-4.989,1.376A19.838,19.838,0,0,0,35.9,82.907a1.765,1.765,0,0,0-1.149,1.414,3.513,3.513,0,0,0,.241,1.987,2.557,2.557,0,0,0,.717.953c.265.213.424.034.762.071a26.91,26.91,0,0,0,2.781-.319,101.54,101.54,0,0,1,14.5-.887,1.975,1.975,0,0,0,.751-.172l6.488-2.945c.786-.357,2.79-.771,2.66-1.627l-.024-2.1L48.355,77.853a1.88,1.88,0,0,1-.388.622" transform="translate(30.105 67.55)" fill="#fac29a"/>
    <path id="Trazado_720853" data-name="Trazado 720853" d="M37.883,81a3.968,3.968,0,0,1,.581,2.852l-2.775.678a2.548,2.548,0,0,1-.719-.953,3.109,3.109,0,0,1-.14-2.051l.013-.045Z" transform="translate(30.124 70.28)" fill="#fcceb0"/>
    <path id="Trazado_720854" data-name="Trazado 720854" d="M53.257,92.357l7.889-1.292L57.934,70.156l-8.167,2.107Z" transform="translate(43.181 60.872)" fill="#f8f9fa"/>
    <path id="Trazado_720855" data-name="Trazado 720855" d="M64.627,68.62l-13.3,3.465,5.6,21.835,18.156-2.787Z" transform="translate(44.533 59.539)" fill="#7d7e81"/>
    <path id="Trazado_720856" data-name="Trazado 720856" d="M36.454,131.89c.112.035.428-.1.532-.131l1.029-.258c1.044-.258,1,.176,2.038-.084,2.536-.626,4.974-1.651,7.506-2.277l2.8-.7c.164-.041.938-.121,1.016-.275.049-.082-.065-.415-.075-.508-.017-.112-.056-.474-.093-.915a14.685,14.685,0,0,1-.071-2.133c.039-.319,1.778-6.062,1.67-6.781-.136-.868-.435-1.746-.646-2.607l-.891-3.593c-.069-.267-.114-.558-.2-.82a2.515,2.515,0,0,0-1.642-1.713,1.6,1.6,0,0,0-1.571.45,2.115,2.115,0,0,0-.187,1.347,8.82,8.82,0,0,0,.36,1.83c.222.768.082,1.128-.123,1.038-.288-.118-.336-.848-.4-1.094l-4.1-16.549c-.118-.469-.2-.981-.359-1.434a.829.829,0,0,0-.351-.413,1.525,1.525,0,0,0-.131-.08l-.019-.009c-.1-.05-.209-.1-.308-.138a2.355,2.355,0,0,0-2.639.629,2.583,2.583,0,0,0-.207.25l-.013.017a1.24,1.24,0,0,0-.179.349.863.863,0,0,0-.026.454c.058.267.131.525.2.794.25,1,2.942,11.561,3.014,12.16.058.471-.443.562-.6.129a12.418,12.418,0,0,1-.334-1.358,21.62,21.62,0,0,0-.842-3.027c-.644-.893-2.331-.684-3.007.06a1.889,1.889,0,0,0-.37,1.765l.431,1.744A10.427,10.427,0,0,1,38,109.343c.045.418-.211.489-.553.385-.314-.1-.833-1.735-.967-2.28a2.242,2.242,0,0,0-1.089-1.584,2.063,2.063,0,0,0-2.514.594,1.693,1.693,0,0,0-.217,1.679c.151.607.872,2.871.374,3.024-.217.073-.48-.67-.551-.878A1.784,1.784,0,0,0,30.37,109.1a2.075,2.075,0,0,0-1.432,1.5v-.007a.092.092,0,0,0-.013.05.072.072,0,0,0-.009.035l-.006.013,0,.006c.009.514,1.531,6.324,2.133,8.735l.663,2.691a6.624,6.624,0,0,0,2.019,2.988,29.208,29.208,0,0,1,1.591,2.533c.045.093.452,1.718.738,2.858.12.476.217.867.258,1.031.034.144.032.321.142.359" transform="translate(25.083 81.453)" fill="#fecca1"/>
    <rect id="Rectángulo_351020" data-name="Rectángulo 351020" width="17.994" height="3.518" transform="matrix(0.971, -0.241, 0.241, 0.971, 59.955, 212.248)" fill="#fff"/>
    <path id="Trazado_720857" data-name="Trazado 720857" d="M56.26,125.461l-3.2-12.887-21.882,5.42,5.082,18.081Z" transform="translate(27.048 97.676)" fill="#7d7e81"/>
    <path id="Trazado_720858" data-name="Trazado 720858" d="M36.709,97.721c.9-.09,1.446-1.128,1.223-2.308l-.189-.986a2.344,2.344,0,0,0-.062-.245c-.1-.049-.207-.1-.308-.138a2.356,2.356,0,0,0-2.639.631,2.316,2.316,0,0,0-.205.25l-.013.017.153.786c.226,1.182,1.145,2.077,2.039,1.993" transform="translate(29.948 81.453)" fill="#fee4d3"/>
    <path id="Trazado_720859" data-name="Trazado 720859" d="M57.181,79.018c.433-.452.857-.889,1.263-1.3-.405.413-.829.85-1.263,1.3" transform="translate(49.614 67.431)" fill="#2b2924"/>
    <path id="Trazado_720860" data-name="Trazado 720860" d="M116.114,108.362c-.114-2.094-.288-4.215-.577-6.322C113.1,84.344,98.027,69.393,79.08,72.972c-4.723.891-11.852,2.178-13.94,7.36-8.453-.723-12.185,11.824-13.272,18.3-.222,1.317-.415,2.637-.562,3.965a112.1,112.1,0,0,0-.019,18.52c.308,5.528,1.466,11.865,4.51,16.607,2.379,3.707,5.891,8.985,9.869,11.118,8.152,4.368,17.022,3.937,25.856,2.564,4.35-.674,8.905-.84,12.724-3.578,4.716-3.384,7.1-6.6,8.632-12.291a86.871,86.871,0,0,0,3.235-27.171" transform="translate(44.169 62.852)" fill="#997450"/>
    <path id="Trazado_720861" data-name="Trazado 720861" d="M61.01,121.04c-1.3,6.343,15.164,18.5,15.164,18.5l10.965-5.592L61.01,107.438a41.831,41.831,0,0,1,0,13.6" transform="translate(52.872 93.22)" fill="#f7ceaf"/>
    <path id="Trazado_720862" data-name="Trazado 720862" d="M91.55,107.228c1.134-7.631-30.574,2.815-30.574,2.815l27.518,28.127L94,125.74a36.328,36.328,0,0,1-2.447-18.512" transform="translate(52.907 90.617)" fill="#e8bdac"/>
    <path id="Trazado_720863" data-name="Trazado 720863" d="M98.414,125.79c1.655-2.215,1.987-4.731,2.288-7.3.129-1.106,1.2-1.457,2.127-2.071,1.974-1.307,2.45-2.6,3.018-5.562.953-4.951,2.011-6.651-3.153-8.322-9.54-3.091-21.306-6.654-29.765-12.515-1.849-1.281-9.068-4.665-8.793-7.194-.566,5.222-3.289,8.668-5.814,12.949l-.021.064a24.064,24.064,0,0,1-2.658,4.65,35.288,35.288,0,0,0-1.843,3.931,7.842,7.842,0,0,0-.1,2.815c.217,1.554,1.27,9.047,4.641,9.251.8.049,1.235.988,1.369,1.776,1.029,5.991,5.1,10.173,9.665,14.275q.448.4.9.807c3.5,3.1,6.953,4.518,10.379,4.292,3.425.226,6.882-1.188,10.379-4.292.65-.577,1.3-1.156,1.941-1.746a42.739,42.739,0,0,0,5.44-5.8" transform="translate(46.522 71.861)" fill="#ffe5cb"/>
    <path id="Trazado_720864" data-name="Trazado 720864" d="M90.819,134.337c-3.42-4.464-8.545-9.267-14.289-10.745-5.745,1.477-10.872,6.281-14.291,10.745a2.189,2.189,0,0,0-.282,2.2l14.138,33.3a2.24,2.24,0,0,0,.435.657,2.236,2.236,0,0,0,.433-.657l14.138-33.3a2.189,2.189,0,0,0-.282-2.2" transform="translate(53.605 107.236)" fill="#e6e7e8"/>
    <path id="Trazado_720865" data-name="Trazado 720865" d="M90.775,177.713c-.854-.435-1.688-.872-2.525-1.361h-.017a88.251,88.251,0,0,1-7.758-4.832.017.017,0,0,1-.017-.019,97.23,97.23,0,0,1-34.966-43.449c.818-.217,1.617-.416,2.363-.616,6.139-1.6,10.354-1.763,16.256-4.105.4-.164,1.944-1.072,3.687-2.161,1.8-1.126,3.76-2.435,4.9-3.326h.019c.254-.2.454-.362.616-.508.237-.2.364-.362.364-.454q2.7,8.774,5.394,17.563c.2.637.383,1.274.583,1.909.581,1.853,1.143,3.724,1.707,5.577v.019q1.824,5.911,3.633,11.787c.6,1.926,1.18,3.851,1.78,5.777q1.936,6.292,3.868,12.569c.037-.09.056-.2.091-.31v4.415Z" transform="translate(39.472 101.413)" fill="#97b6c4"/>
    <path id="Trazado_720866" data-name="Trazado 720866" d="M131.558,171.282c0,5.3-.164,10.7-.454,15.894a98.852,98.852,0,0,1-16.674,1.416A96.89,96.89,0,0,1,74.6,180.073c-1.126-.51-2.271-1.053-3.379-1.617a4.888,4.888,0,0,1-.562-.273c-.308-.144-.618-.308-.91-.471l-.017-1.526v-4.415c.308-1,.618-2.015.926-3.014.943-3.087,1.888-6.158,2.833-9.245.6-1.926,1.18-3.87,1.78-5.8q1.827-5.883,3.633-11.805c.581-1.853,1.145-3.707,1.707-5.558.181-.545.346-1.109.508-1.653.926-2.979,1.836-5.977,2.762-8.955.908-2.96,1.815-5.9,2.725-8.864,0,.09.127.235.344.454.164.127.364.31.618.491,1.145.889,3.16,2.215,4.959,3.341.745.473,1.434.908,2.034,1.272h.019c.8.473,1.4.8,1.616.891,5.906,2.342,10.119,2.506,16.239,4.1a72.071,72.071,0,0,1,8.029,2.363,17.477,17.477,0,0,1,6.739,4.178,8.515,8.515,0,0,1,.654.781,7.18,7.18,0,0,1,.926,2.125c.273.908.527,2.034.783,3.36v.019a121.939,121.939,0,0,1,1.416,12.551c.383,5.558.581,11.933.581,18.473" transform="translate(60.501 101.413)" fill="#87a5af"/>
    <path id="Trazado_720867" data-name="Trazado 720867" d="M80.84,157.038a.55.55,0,0,1-.019.346l-6.012,15.4a5.212,5.212,0,0,1-.562-.273c-.308-.146-.618-.308-.91-.473-.854-.435-1.688-.872-2.523-1.362H70.8l-5.16-13.3a.6.6,0,0,1-.035-.346l.581-2.635,1.4-6.339.148-.654,2.831-12.842a3.155,3.155,0,0,0-.289-2.107l-1.58-2.942-.31-.581a.6.6,0,0,1,.146-.618c.635-.656,1.291-1.291,1.927-1.926.362-.364.816-.727,1.178-1.108.073-.092.148-.183.219-.273.254-.346.416-.745.691-1.072a1.824,1.824,0,0,1,.435-.418c.437-.289.818.056,1.089.454a3.382,3.382,0,0,1,.31.545c0,.019.019.035.019.054a5.679,5.679,0,0,0,1.378,1.58c.71.727,1.436,1.436,2.163,2.163a.56.56,0,0,1,.127.618l-.308.562-1.561,2.96a3.038,3.038,0,0,0-.291,2.107l.508,2.325v.019l2.325,10.517v.019l.127.6,1.4,6.393Z" transform="translate(56.91 107.085)" fill="#3d5872"/>
    <path id="Trazado_720868" data-name="Trazado 720868" d="M99,125.487l-3.7-10.614-2.977,5.4c-3.367,4.749-10.717,9.54-13.329,9.611-2.609-.071-9.635-4.628-13.328-9.611l-2.977-5.4-3.705,10.614a.763.763,0,0,0-.007.474l6.78,21.954c.19.616,1.02,3.9,1.4.226l3.8-6.591a13.731,13.731,0,0,1,1.541-2.17l6.5-8.108L85.5,139.38a14.114,14.114,0,0,1,1.543,2.17l3.793,6.591c.377,3.67,1.208.39,1.4-.226l6.78-21.954a.763.763,0,0,0-.007-.474" transform="translate(51.141 99.671)" fill="#fff"/>
    <path id="Trazado_720869" data-name="Trazado 720869" d="M101.65,137.112S107.9,148.283,107.9,148.3c.4.708-12.734,19.362-20.417,31.823-1.124-.51-2.271-1.053-3.379-1.617a4.891,4.891,0,0,1-.562-.273c-.308-.146-.618-.308-.91-.471-.854-.437-1.688-.872-2.523-1.363H80.09a87.777,87.777,0,0,1-7.756-4.832.018.018,0,0,1-.019-.019c-7.209-10.971-15.494-22.7-15.184-23.249.019-.019,6.268-11.189,6.268-11.189l-8.52.908c.8-2.488,2.525-13.968,4.777-16.8a1.886,1.886,0,0,1,.562-.527l4.7-3.8.092-.073.179.564,5.76,17.11.618,1.871,1.815,5.377,1.871,5.575,1.761,5.814,5.5,18.163,1.018-3.36,4.486-14.768v-.019l1.761-5.831,1.871-5.575,1.8-5.377L94,134.75l3.033-9.045,2.8-8.319.183-.564.09.073,4.723,3.8a2.181,2.181,0,0,1,.581.527,7.152,7.152,0,0,1,.889,1.616c1.78,4.215,3.162,13.042,3.853,15.186Z" transform="translate(47.616 101.362)" fill="#70868c"/>
    <path id="Trazado_720870" data-name="Trazado 720870" d="M107.112,96.821l-.762-2.054-1.855.383h-.017l-3.016.6a5.625,5.625,0,0,0-.689-.945c-1.616-1.743-4.688-2.742-8.41-2.742-3.633,0-8.01,1.035-9.863,3.341l-.035-.108a5.794,5.794,0,0,1-2.671.727,5.679,5.679,0,0,1-2.652-.727l-.054.108c-1.855-2.307-6.231-3.341-9.863-3.341-3.724,0-6.776,1-8.41,2.742a4.806,4.806,0,0,0-.672.945l-3.633-.672-.635-.127L53.439,97l.4.073,3.67.616a4.861,4.861,0,0,0-.019,1.018c.381,5.031,5.213,7.665,9.792,7.665a2.92,2.92,0,0,0,.381-.017,10.579,10.579,0,0,0,2.506-.364A11.072,11.072,0,0,0,77.687,99.2a4.046,4.046,0,0,0,.271-1.418,7.168,7.168,0,0,0,1.836.273,7.018,7.018,0,0,0,1.834-.273A4.092,4.092,0,0,0,81.9,99.2a11.065,11.065,0,0,0,7.519,6.793,10.763,10.763,0,0,0,2.527.364,2.485,2.485,0,0,0,.362.017c4.578,0,9.409-2.633,9.79-7.665a4.62,4.62,0,0,0-.019-1.018l4.469-.779ZM75.8,98.455a9.068,9.068,0,0,1-6.158,5.6,9.544,9.544,0,0,1-2.051.289H67.28c-3.651,0-7.486-1.98-7.777-5.777a2.954,2.954,0,0,1,.8-2.379c1.22-1.326,3.8-2.107,6.922-2.107,3.778,0,7.319,1.164,8.41,2.744a1.637,1.637,0,0,1,.162,1.634m16.512,5.885H92a9.765,9.765,0,0,1-2.054-.289,9.079,9.079,0,0,1-6.158-5.6,1.651,1.651,0,0,1,.164-1.634c1.089-1.58,4.632-2.744,8.41-2.744,3.125,0,5.7.781,6.92,2.107a2.948,2.948,0,0,1,.8,2.379c-.289,3.8-4.122,5.777-7.773,5.777" transform="translate(46.367 79.879)" fill="#455256"/>
    <path id="Trazado_720871" data-name="Trazado 720871" d="M99.826,119.928l19.093,17.524L125,130.568,99.826,105.461Z" transform="translate(86.615 91.504)" fill="#e8af93"/>
    <path id="Trazado_720872" data-name="Trazado 720872" d="M134.874,103.4,99.826,105.5v1.75l25.18,25.107,9.869-11.163Z" transform="translate(86.615 89.719)" fill="#dba18f"/>
    <path id="Trazado_720873" data-name="Trazado 720873" d="M154.664,100.677c-.062-1.225-.719-3.283-2.314-2.1-.721.534-.37,1.851-1.04,2.292-1.623,1.066-1.78-1.339-1.888-2.4-.409-4.045,1.41-7.928.924-11.9-.674-5.538-5.846-9.293-10.715-11.17a24.983,24.983,0,0,0-16.181-.108,24.983,24.983,0,0,0-16.181.108c-4.867,1.877-10.041,5.633-10.715,11.17-.484,3.974,1.335,7.857.924,11.9-.108,1.063-.265,3.468-1.888,2.4-.671-.441-.318-1.757-1.038-2.292-1.6-1.18-2.252.878-2.316,2.1a27.214,27.214,0,0,0,2.338,13.079c1.121,2.292,2.684,2.945,4.249,4.6,1.731,1.838,1.444,5.439,2.09,7.732a13.209,13.209,0,0,0,2.006,4.221c1.92,2.65,5.259,3.887,7.458,6.3,2.06,2.256,3.965,4.507,6.8,5.963,1.707.876,4.086.893,6.277.784,2.191.108,4.57.092,6.277-.784,2.831-1.457,4.738-3.707,6.8-5.963,2.2-2.409,5.538-3.646,7.459-6.3a13.205,13.205,0,0,0,2-4.221c.646-2.293.36-5.894,2.094-7.732,1.561-1.657,3.125-2.31,4.247-4.6a27.235,27.235,0,0,0,2.336-13.079" transform="translate(79.992 64.198)" fill="#f9cfb3"/>
    <path id="Trazado_720874" data-name="Trazado 720874" d="M94.084,104.495a18.037,18.037,0,0,1,.676,6.292c-.011.3-.035.771-.026,1.276h2.912a15.272,15.272,0,0,0-.017-1.545,42.329,42.329,0,0,1,.062-4.669c.116-2.236-.159-4.535.063-6.757.585-5.844,5.582-9.964,11.135-10.4,4.075-.318,8.164.519,12.248.529,5.048.011,7.327-2.422,11.307-4.9,1.068-.667.433-.749,1.546-.467.723.185,1.647,1.169,2.275,1.552,3.78,2.316,10.577,4.613,11.667,9.5.859,3.842.682,7.768.579,11.671a42.816,42.816,0,0,0-.37,5.487h2.275c.728-2.359,1.7-5.562,1.939-6.8a63.679,63.679,0,0,0,.966-9.254c.822-7.48,1.235-14.646-3.379-20.92-4.936-6.718-12.252-10.648-16.159-10.149-.224.03-2.867.267-2.534.568-1.391-1.253-3.832-1.343-5.553-1.754-9.172-2.187-20.77,3.517-27.436,9.607-7.034,6.43-6,14.7-5.2,22.649.28,2.772.256,5.838,1.022,8.485" transform="translate(80.251 54.903)" fill="#5f5c54"/>
    <path id="Trazado_720875" data-name="Trazado 720875" d="M134.869,137.394l-16.547,44.247a2.36,2.36,0,0,1-.473.162l-1.49-3.577v-.017l-11.5-27.611-5.033-12.1c-.035-.308.891-1.526,2.325-3.214.144-.2.327-.4.508-.616.473-.547.981-1.145,1.526-1.763a.313.313,0,0,0,.073-.092c2.29-2.577,5.067-5.612,7.448-8.137,1.126-1.235,2.161-2.344,3-3.214.237-.273.473-.51.656-.727.8-.818,1.253-1.309,1.253-1.309h2.18l2.688,3,8.937,9.99.071.073,2.127,2.4Z" transform="translate(86.617 103.624)" fill="#bad1dd"/>
    <path id="Trazado_720876" data-name="Trazado 720876" d="M122.1,157.784l-5.721-25.968a3.544,3.544,0,0,1,.331-2.432l2.172-4.085a.657.657,0,0,0-.148-.713l-2.508-2.493a6.719,6.719,0,0,1-1.584-1.836c-.235-.529-.885-1.716-1.638-1.212-.661.441-.882,1.134-1.307,1.718a14.927,14.927,0,0,1-1.608,1.6q-1.118,1.112-2.239,2.226a.661.661,0,0,0-.148.713l2.172,4.085a3.555,3.555,0,0,1,.332,2.432l-5.721,25.968a.686.686,0,0,0,.026.392l7.926,20.359a1.208,1.208,0,0,0,1.707,0l7.926-20.359a.657.657,0,0,0,.028-.392" transform="translate(90.645 103.185)" fill="#3d5872"/>
    <path id="Trazado_720877" data-name="Trazado 720877" d="M142.062,186.012c-1.18.366-2.361.693-3.56,1-2.561.672-5.177,1.235-7.829,1.707A98.812,98.812,0,0,1,114,190.135a96.841,96.841,0,0,1-39.835-8.52c-1.124-.506-2.269-1.051-3.377-1.614a5.618,5.618,0,0,1-.564-.273V151.318a12,12,0,0,1,1.216-5.265c.308-.637.62-1.272.947-1.926v-.021c.924-1.886,1.87-3.793,2.779-5.61.6-1.236,1.178-2.417,1.743-3.524,1.526-3.033,2.764-5.431,3.287-6.32.146-.2.237-.329.273-.366.037-.017.146-.069.347-.144.471-.162,1.378-.471,2.632-.852a1.668,1.668,0,0,1,.273-.092c1.472-.473,3.36-1.055,5.5-1.728q1.771-.543,3.76-1.143c.383-.108.764-.235,1.145-.346h.019c6.12-1.888,13.242-4.051,18.927-5.777q.927-.272,1.8-.545c.51-.144,1.018-.308,1.49-.454,2.415-.727,4.378-1.309,5.612-1.672.327-.106.6-.181.818-.252.381-.11.581-.181.581-.181l5.521,18.307.982,3.253.87,2.867,4.74,15.731v.019l6.524,21.67.034,4.594v.437Z" transform="translate(60.931 99.87)" fill="#78919e"/>
    <path id="Trazado_720878" data-name="Trazado 720878" d="M167.389,128.561c-9.844,25.557-26.308,45.3-51.882,55.128-1.6.618-3.216,1.2-4.85,1.707a2.359,2.359,0,0,1-.473.162c-.491.164-.981.31-1.472.456l-.019-4.034v-.435l-.034-4.594.762,2.542v-.381l7.611-24.522,4.559-14.693.181-.564v-.019l.982-3.141,6.52-21.071s.217.075.6.183c.217.073.489.146.818.254,1.743.508,4.992,1.489,8.9,2.669,11.062,3.362,23.727,8.991,27.8,10.354" transform="translate(94.28 99.869)" fill="#6a828c"/>
    <path id="Trazado_720879" data-name="Trazado 720879" d="M137.089,110.27l-17.351,15.651a.693.693,0,0,1-.93,0L101.457,110.27,97.58,121.629l7.495,24.817L118.7,127.275a.7.7,0,0,1,1.139,0l13.628,19.172,7.5-24.817Z" transform="translate(84.666 95.677)" fill="#e4f4ff"/>
    <path id="Trazado_720880" data-name="Trazado 720880" d="M146.962,131.037l9.1,3.851L130.343,183.6c-1.6.618-3.216,1.2-4.85,1.707a2.36,2.36,0,0,1-.473.162c-.491.164-.981.31-1.472.456-1.18.362-2.361.689-3.56,1l-7.375-14.187L92.925,134.888l8.591-3.633.51-.219L91.563,125.9a72.542,72.542,0,0,1,3-7.775c.62-.181,1.218-.362,1.8-.545.51-.144,1.018-.308,1.49-.454,2.415-.725,4.378-1.307,5.612-1.67.327-.108.6-.181.818-.254l6.1,18.128,1.055,3.16.943,2.76,2.852,8.483,1.963,6.449,6.791,22.305,7.721-22.724,2.053-6.031,2.669-7.919.183-.564v-.019l1.053-3.069,7.049-20.961c.217.073.489.146.818.254,1.743.508,4.992,1.489,8.9,2.669a73.036,73.036,0,0,1,3,7.775Z" transform="translate(79.446 99.954)" fill="#64787d"/>
  </g>
</svg>
