<svg xmlns="http://www.w3.org/2000/svg" xmlns:xlink="http://www.w3.org/1999/xlink" width="169" height="169" viewBox="0 0 169 169">
  <defs>
    <clipPath id="clip-path">
      <rect id="Rect치ngulo_351312" data-name="Rect치ngulo 351312" width="131.476" height="131.623" fill="none"/>
    </clipPath>
  </defs>
  <g id="Grupo_1018498" data-name="Grupo 1018498" transform="translate(6788.999 6426.049)">
    <g id="Grupo_1018325" data-name="Grupo 1018325" transform="translate(-7526 -8484.049)">
      <g id="Grupo_159183" data-name="Grupo 159183" transform="translate(737.001 2058)">
        <path id="Uni칩n_12" data-name="Uni칩n 12" d="M84.5,0A84.5,84.5,0,1,1,0,84.5,84.5,84.5,0,0,1,84.5,0Z" fill="#cda7ff"/>
      </g>
    </g>
    <g id="Grupo_1018333" data-name="Grupo 1018333" transform="translate(-6766 -6406.36)">
      <g id="Grupo_1018332" data-name="Grupo 1018332" clip-path="url(#clip-path)">
        <path id="Trazado_721456" data-name="Trazado 721456" d="M4.454,149.912c-4.448.276-4.448.276-4.448-4.148q0-17.154.005-34.308c.017-9.7,6.481-16.176,16.2-16.259,3.755-.032,7.51.012,11.265-.012,3.91-.026,5.365-1.5,5.382-5.429,0-1.108-.051-2.216-.08-3.323.192-1.055-.75-1.244-1.326-1.648a21.434,21.434,0,0,1-9.169-14.273c-.672-3.8-.134-7.69-.37-11.525-.145-2.346.8-3.513,2.873-4.469,9.918-4.58,19.77-9.3,29.645-13.978.473-.184.958-.344,1.418-.557,6.9-3.2,8.1-2.665,9.356,4.967,1.2,7.292.483,14.677.459,22.016-.025,7.39-3.29,13.3-9.272,17.687-.628.461-1.71.634-1.438,1.829-.544,6.9-.07,9.138,7.853,8.734,3.068-.156,6.153-.088,9.227-.011,8.994.223,15.4,6.626,15.636,15.614.067,2.552.01,5.107.255,7.755,2.245-4.282,5.723-7.907,6.535-12.884a15.339,15.339,0,0,1,14.7-12.623c6.406-.124,12.818-.006,19.226-.051,2.357-.016,3.166,1.121,3.037,3.36a15.3,15.3,0,0,1-14.132,14.08,3.221,3.221,0,0,0-3.113,1.964c-6.022,11.276-12.271,22.433-18.127,33.793-1.624,3.151-3.482,4.5-6.868,3.751,1.13-3.24,3.044-6.082,4.649-9.077q7.622-14.218,15.366-28.372c.77-1.411.872-2.1-1.123-2-2.729.128-5.473.129-8.2-.006a3.009,3.009,0,0,0-3.206,1.838c-2.826,5.265-5.775,10.463-8.682,15.685-.667,1.2-1.274,2.589-3.035,2.124-1.684-.445-1.752-1.858-1.749-3.29.011-5.469.076-10.94-.03-16.408A10.671,10.671,0,0,0,72.9,99.773a18.044,18.044,0,0,1-2.551-.13c-3-.566-4.765.82-6.49,3.208-5.6,7.749-11.451,15.317-17.211,22.949-2.358,3.124-3.389,3.095-5.721-.158-5.173-7.216-10.531-14.31-15.417-21.716-2.178-3.3-4.509-4.538-8.472-4.369-8.37.356-12.579,4.293-12.589,12.685q-.022,18.835,0,37.67m32.76-57.905c-1.006,4.9-4.225,7.3-9.352,7.811,1.952,2.735,3.758,5.192,5.472,7.711a2.237,2.237,0,0,0,2.209.874c5.716-.012,11.432,0,17.147-.017.647,0,1.385.25,1.895-.428,2.006-2.67,4.013-5.338,6.152-8.184-6.356-.469-8.519-2.15-10.407-7.783a18.186,18.186,0,0,1,.041-2.038c.24-1.877-.322-2.277-2.228-1.763a20.125,20.125,0,0,1-7.11.26c-3.679-.345-3.681-.314-3.818,3.557M56.47,44.712c-7.716,3.577-15.445,7.126-23.139,10.748-2.364,1.113-5.738,1.514-6.762,3.665-1.062,2.232-.418,5.357-.253,8.076.461,7.614,4.232,13.04,11.3,15.919a16.8,16.8,0,0,0,18.352-3.956,14.15,14.15,0,0,0,5.1-9.981,173.916,173.916,0,0,0,.023-22.292c-.259-4.363-.711-4.483-4.621-2.179m51.885,61.521c2.471,0,4.945.069,7.414-.014,4.857-.164,8.447-2.354,10.458-6.868.442-.991.753-1.936-1.055-1.9-5.538.1-11.082-.04-16.614.157a10.566,10.566,0,0,0-9.279,6.946c-.37,1.142-.294,1.749,1.15,1.709,2.64-.072,5.284-.021,7.926-.026m-64.5,16,7.063-9.366H37.2l6.66,9.366" transform="translate(0 -18.544)" fill="#060606"/>
        <path id="Trazado_721457" data-name="Trazado 721457" d="M8.662,208.021q0-18.835,0-37.67c.01-8.392,4.219-12.329,12.589-12.686,3.963-.169,6.294,1.068,8.472,4.369,4.886,7.406,10.244,14.5,15.417,21.715,2.332,3.253,3.363,3.282,5.721.158,5.761-7.632,11.613-15.2,17.212-22.949,1.725-2.387,3.489-3.774,6.49-3.208a18.122,18.122,0,0,0,2.551.13c.061,5.356-1.807,10.266-3.543,15.2-.446,1.268-1.169,2.457-.988,3.881a.368.368,0,0,1-.24.332c-1.035.2-1.178,1.161-1.531,1.893-4.119,8.545-10.326,15.286-17.777,21.044-4.007,3.1-8.568,5.2-12.851,7.792l-16.4.022c-.239-2.836.926-5.86-.821-8.487-4.575-6.882-4.487-13.771-.014-20.568,1.159-1.762.115-2.1-.97-2.834s-1.822-1.217-2.8.329c-4.466,7.091-5.531,14.523-1.767,22.1a17.8,17.8,0,0,1,2.149,9.464l-10.9-.028" transform="translate(-4.209 -76.652)" fill="#4297cf"/>
        <path id="Trazado_721458" data-name="Trazado 721458" d="M68.956,26.524C59.081,31.2,49.229,35.922,39.311,40.5c-2.07.956-3.018,2.123-2.873,4.469.237,3.835-.3,7.721.37,11.525a21.434,21.434,0,0,0,9.169,14.273c.577.4,1.519.593,1.326,1.648l-4.345.065c-.426-.019-.852-.044-1.279-.055-7.56-.205-11.757-4.5-11.769-12.111-.013-8.026-.114-16.055.06-24.077A28.139,28.139,0,0,1,54.5,9.312c.25.937,1.1,1.322,1.81,1.693a24.485,24.485,0,0,1,7.258,5.942c2.392,2.823,5.045,5.57,5.383,9.577" transform="translate(-14.525 -4.528)" fill="#f6b24c"/>
        <path id="Trazado_721459" data-name="Trazado 721459" d="M133.071,177.208c-.181-1.424.542-2.613.988-3.881,1.736-4.937,3.6-9.846,3.543-15.2a10.671,10.671,0,0,1,10.27,10.68c.105,5.468.041,10.939.029,16.408,0,1.432.065,2.844,1.75,3.29,1.76.465,2.368-.925,3.035-2.124,2.907-5.221,5.856-10.42,8.681-15.685a3.01,3.01,0,0,1,3.206-1.838c2.728.135,5.472.134,8.2.006,2-.093,1.893.594,1.123,2q-7.725,14.164-15.366,28.372c-1.605,2.994-3.519,5.836-4.649,9.077l-16.807-.036a17.185,17.185,0,0,1,2.047-9.45c3.373-6.556,2.914-13.309-.462-19.817-1.929-3.718-2-3.678-5.588-1.8" transform="translate(-64.698 -76.895)" fill="#3e8dc1"/>
        <path id="Trazado_721460" data-name="Trazado 721460" d="M50.124,4.825A28.139,28.139,0,0,0,25.59,31.75c-.173,8.023-.072,16.052-.06,24.077.012,7.611,4.209,11.906,11.769,12.112.426.011.853.036,1.279.055.179,5,.179,5-4.828,4.078A14.9,14.9,0,0,1,21.167,57.645c-.272-9.134-.584-18.306.15-27.423A32.775,32.775,0,0,1,86.5,28.705c.833,6.438.216,12.98.281,19.474.031,3.077.067,6.157-.031,9.231A15.355,15.355,0,0,1,72.39,72.4c-2.3.212-3.637-.156-3.15-2.838a8.763,8.763,0,0,0,.012-1.537c.6-.031,1.194-.069,1.792-.089,6.817-.238,11.279-4.509,11.389-11.269.133-8.121.229-16.252-.032-24.367A28.248,28.248,0,0,0,50.124,4.825" transform="translate(-10.145 -0.04)" fill="#070605"/>
        <path id="Trazado_721461" data-name="Trazado 721461" d="M183.116.026c4.528,0,9.058-.044,13.586.01,6.809.082,11.385,4.645,11.443,11.46q.089,10.51,0,21.02c-.067,6.586-4.486,11.022-11.068,11.278a2.247,2.247,0,0,1-.512.006c-7.061-1.381-12.284,1.461-16.409,7.013a25.624,25.624,0,0,1-3.257,3.26,2.147,2.147,0,0,1-2.593.426,2.1,2.1,0,0,1-1.152-2.1q-.006-2.564-.009-5.127c0-3.427,0-3.4-3.317-3.476a17.52,17.52,0,0,1-3.81-.343,10.663,10.663,0,0,1-8.169-10.216c-.107-7.518-.127-15.04,0-22.557A10.715,10.715,0,0,1,168.505.068c4.867-.133,9.74-.027,14.61-.027Zm17.413,5.456a5,5,0,0,0-3.6-1.02c-9.3-.033-18.591-.082-27.885.009-4.207.041-6.771,2.491-6.852,6.668-.142,7.245-.1,14.5,0,21.744a5.817,5.817,0,0,0,3.81,5.8c2.729,1.471,5.681.657,8.531.77,2.045.081,2.994.893,2.924,2.946-.049,1.409-.01,2.822-.01,4.232l.827.537c1.853-2.066,3.736-4.106,5.548-6.207a4.221,4.221,0,0,1,3.6-1.5c3.158.081,6.322.093,9.479,0,4.03-.116,6.7-2.558,6.773-6.51.134-7.342.074-14.689.017-22.034a5.7,5.7,0,0,0-3.164-5.444" transform="translate(-76.716 0)" fill="#070706"/>
        <path id="Trazado_721462" data-name="Trazado 721462" d="M77.824,9.069A28.248,28.248,0,0,1,110.1,36.54c.261,8.115.165,16.247.032,24.367-.11,6.76-4.572,11.031-11.389,11.269-.6.021-1.194.059-1.792.089L92.8,72.222c-.272-1.195.81-1.368,1.438-1.829,5.983-4.387,9.248-10.3,9.272-17.687.025-7.339.743-14.724-.459-22.016-1.258-7.632-2.46-8.17-9.356-4.968-.46.214-.945.373-1.418.557-.339-4.007-2.991-6.754-5.383-9.577a24.469,24.469,0,0,0-7.258-5.942c-.706-.371-1.56-.756-1.81-1.693" transform="translate(-37.845 -4.285)" fill="#f2a735"/>
        <path id="Trazado_721463" data-name="Trazado 721463" d="M70.029,226.648c4.283-2.6,8.843-4.695,12.851-7.792,7.451-5.759,13.658-12.5,17.777-21.045.353-.731.5-1.69,1.531-1.893.6,1.123,1.2,2.251,1.809,3.369,2.9,5.317,3.492,10.949.39,16.135-2.187,3.656-2.541,7.281-2.421,11.216l-31.937.01" transform="translate(-34.055 -95.274)" fill="#3e8dc1"/>
        <path id="Trazado_721464" data-name="Trazado 721464" d="M132.18,225.143c-.12-3.934.233-7.56,2.42-11.216,3.1-5.185,2.515-10.817-.39-16.135-.611-1.119-1.206-2.246-1.808-3.369a.367.367,0,0,0,.24-.332c3.583-1.874,3.659-1.914,5.588,1.8,3.377,6.508,3.836,13.26.462,19.817a17.185,17.185,0,0,0-2.047,9.45l-4.465-.02" transform="translate(-64.268 -93.778)" fill="#020406"/>
        <path id="Trazado_721465" data-name="Trazado 721465" d="M25.68,224.936a17.8,17.8,0,0,0-2.149-9.464c-3.763-7.576-2.7-15.007,1.766-22.1.974-1.546,1.7-1.071,2.8-.329s2.129,1.072.97,2.834c-4.472,6.8-4.56,13.687.014,20.568,1.747,2.628.582,5.652.821,8.488l-4.219,0" transform="translate(-10.327 -93.539)" fill="#020406"/>
        <path id="Trazado_721466" data-name="Trazado 721466" d="M80.557,85.393a16.8,16.8,0,0,1-18.352,3.956C55.132,86.47,51.361,81.044,50.9,73.43c-.164-2.719-.809-5.844.253-8.076,1.024-2.15,4.4-2.552,6.762-3.665,7.694-3.623,15.424-7.171,23.139-10.748-.17,1.547.538,3.031.481,4.521-.381,9.976,1.113,20.015-.979,29.932" transform="translate(-24.585 -24.772)" fill="#fbc7a1"/>
        <path id="Trazado_721467" data-name="Trazado 721467" d="M76.705,142.976c1.888,5.633,4.051,7.314,10.407,7.783l-6.152,8.184c-.51.678-1.248.427-1.895.429-5.716.018-11.432,0-17.147.016a2.237,2.237,0,0,1-2.209-.874c-1.714-2.519-3.52-4.976-5.472-7.711,5.127-.507,8.346-2.906,9.352-7.811a21.689,21.689,0,0,0,13.116-.016" transform="translate(-26.375 -69.528)" fill="#fbc7a1"/>
        <path id="Trazado_721468" data-name="Trazado 721468" d="M202.158,162.384c-2.642,0-5.286-.049-7.926.024-1.443.04-1.52-.567-1.149-1.709a10.565,10.565,0,0,1,9.279-6.947c5.533-.2,11.077-.058,16.614-.157,1.808-.032,1.5.912,1.055,1.9-2.011,4.513-5.6,6.7-10.458,6.868-2.469.084-4.943.015-7.414.017" transform="translate(-93.803 -74.692)" fill="#f7c49f"/>
        <path id="Trazado_721469" data-name="Trazado 721469" d="M108.957,83.986c2.092-9.917.6-19.956.979-29.932.057-1.49-.651-2.974-.481-4.521,3.91-2.3,4.362-2.184,4.621,2.179a173.923,173.923,0,0,1-.023,22.293,14.148,14.148,0,0,1-5.1,9.981" transform="translate(-52.985 -23.365)" fill="#f3bd95"/>
        <path id="Trazado_721470" data-name="Trazado 721470" d="M79.071,192.979l-6.66-9.366H86.134l-7.063,9.366" transform="translate(-35.213 -89.29)" fill="#d75345"/>
        <path id="Trazado_721471" data-name="Trazado 721471" d="M85.558,139.183a21.689,21.689,0,0,1-13.116.016c.137-3.871.14-3.9,3.818-3.557a20.112,20.112,0,0,0,7.11-.26c1.906-.514,2.469-.114,2.228,1.764a18.185,18.185,0,0,0-.04,2.038" transform="translate(-35.228 -65.735)" fill="#f3bd95"/>
        <path id="Trazado_721472" data-name="Trazado 721472" d="M170.115,42.867a5.817,5.817,0,0,1-3.81-5.8c-.1-7.247-.146-14.5,0-21.744.082-4.177,2.646-6.627,6.852-6.668,9.294-.091,18.59-.043,27.885-.009a5,5,0,0,1,3.6,1.02c-.866,1.982-1.042,4.392-3.389,5.452-2.3-.008-4.6.071-6.885-.053-1.5-.082-1.774.513-1.876,1.889-.152,2.064.389,2.993,2.605,2.673a19.833,19.833,0,0,1,3.305.054c.359,1.681-1.938,2.355-1.539,4.052-7.331.046-14.663.169-21.993.088-2-.022-2.107.841-2.146,2.426-.042,1.659.417,2.167,2.117,2.139,5.285-.087,10.573.011,15.86.037-.193,1.835-2.583,2.294-2.641,4.213-4.406.005-8.811-.009-13.216.034-.685.007-1.549-.38-2.006.579a2.522,2.522,0,0,0,2.252,3.837c1.439.015,2.877.049,4.316.074-.167,1.17-1.272,1.233-2.028,1.689-2.37,1.429-5.149,2.121-7.261,4.019m10.259-23.275c2.135,0,4.274-.076,6.4.022,1.995.091,1.342-1.332,1.356-2.271.015-.966.569-2.313-1.387-2.275-4.184.081-8.37.069-12.555.005-1.93-.03-1.386,1.317-1.4,2.3s-.519,2.344,1.427,2.242c2.044-.107,4.1-.024,6.148-.024" transform="translate(-80.827 -4.182)" fill="#ece0d3"/>
        <path id="Trazado_721473" data-name="Trazado 721473" d="M200.557,24.736c-.4-1.7,1.9-2.37,1.539-4.052,2.672.418,3.4-.919,2.985-3.3-.072-.417-.09-.842-.134-1.263,2.347-1.061,2.524-3.471,3.389-5.452a5.7,5.7,0,0,1,3.164,5.444c.057,7.345.117,14.692-.017,22.034-.072,3.951-2.743,6.394-6.773,6.51-3.157.091-6.321.078-9.479,0a4.221,4.221,0,0,0-3.6,1.5c-1.812,2.1-3.695,4.141-5.548,6.207l-.826-.537c0-1.411-.04-2.823.009-4.232.07-2.053-.879-2.865-2.924-2.946-2.85-.113-5.8.7-8.531-.77,2.112-1.9,4.891-2.59,7.262-4.019.756-.456,1.86-.519,2.028-1.689,1.522-.025,3.043-.068,4.565-.072,4.4-.01,4.4,0,4.089-4.453.058-1.92,2.448-2.378,2.641-4.213,2.988-.026,5.977-.114,8.964-.05,1.327.028,1.667-.383,1.782-1.721.193-2.258-.511-3.185-2.809-2.8a7.56,7.56,0,0,1-1.774-.118" transform="translate(-84.523 -5.189)" fill="#e8d9c7"/>
        <path id="Trazado_721474" data-name="Trazado 721474" d="M203.022,38.052a7.56,7.56,0,0,0,1.774.118c2.3-.384,3,.543,2.809,2.8-.115,1.338-.455,1.749-1.782,1.721-2.986-.063-5.975.024-8.964.05-5.287-.026-10.575-.124-15.86-.037-1.7.028-2.159-.48-2.117-2.139.04-1.585.144-2.448,2.146-2.426,7.33.081,14.662-.042,21.993-.088" transform="translate(-86.988 -18.504)" fill="#0d0d0c"/>
        <path id="Trazado_721475" data-name="Trazado 721475" d="M186.548,25.714c-2.05,0-4.1-.083-6.148.024-1.946.1-1.436-1.251-1.427-2.242s-.535-2.33,1.4-2.3c4.184.064,8.371.076,12.555-.005,1.955-.038,1.4,1.308,1.387,2.275-.014.939.639,2.362-1.356,2.271-2.131-.1-4.27-.022-6.4-.022" transform="translate(-87 -10.305)" fill="#0d0d0c"/>
        <path id="Trazado_721476" data-name="Trazado 721476" d="M194.018,55.35c.311,4.45.311,4.444-4.09,4.453-1.522,0-3.043.047-4.565.072-1.439-.026-2.877-.059-4.316-.074a2.521,2.521,0,0,1-2.252-3.837c.456-.96,1.32-.573,2.006-.579,4.4-.043,8.81-.029,13.216-.034" transform="translate(-86.787 -26.898)" fill="#0d0d0c"/>
        <path id="Trazado_721477" data-name="Trazado 721477" d="M226.105,21.225c.043.421.062.847.134,1.263.413,2.38-.312,3.717-2.985,3.3a19.887,19.887,0,0,0-3.305-.053c-2.216.32-2.757-.61-2.6-2.674.1-1.376.375-1.97,1.876-1.889,2.289.125,4.589.046,6.885.054" transform="translate(-105.681 -10.292)" fill="#0d0d0c"/>
      </g>
    </g>
  </g>
</svg>
