<svg xmlns="http://www.w3.org/2000/svg" xmlns:xlink="http://www.w3.org/1999/xlink" width="422.586" height="317.918" viewBox="0 0 422.586 317.918">
  <defs>
    <clipPath id="clip-path">
      <rect id="Rectángulo_351303" data-name="Rectángulo 351303" width="389.622" height="299.743" fill="none"/>
    </clipPath>
    <clipPath id="clip-path-3">
      <path id="Trazado_721288" data-name="Trazado 721288" d="M408.929,469.4a.512.512,0,0,0,.006.09v-.09Z" transform="translate(-408.929 -469.404)" fill="none"/>
    </clipPath>
    <linearGradient id="linear-gradient" x1="-29257.172" y1="1201.45" x2="-29185.627" y2="1201.45" gradientUnits="objectBoundingBox">
      <stop offset="0" stop-color="#5f6767"/>
      <stop offset="0.024" stop-color="#5f6767"/>
      <stop offset="0.476" stop-color="#676b6c"/>
      <stop offset="0.513" stop-color="#707475"/>
      <stop offset="0.619" stop-color="#868a8b"/>
      <stop offset="0.72" stop-color="#949798"/>
      <stop offset="0.811" stop-color="#999c9d"/>
      <stop offset="1" stop-color="#999c9d"/>
    </linearGradient>
    <clipPath id="clip-path-5">
      <rect id="Rectángulo_351227" data-name="Rectángulo 351227" width="135.416" height="122.991" fill="none"/>
    </clipPath>
    <clipPath id="clip-path-6">
      <rect id="Rectángulo_351231" data-name="Rectángulo 351231" width="132.608" height="24.956" fill="none"/>
    </clipPath>
    <clipPath id="clip-path-7">
      <rect id="Rectángulo_351241" data-name="Rectángulo 351241" width="13.427" height="109.615" fill="none"/>
    </clipPath>
    <clipPath id="clip-path-8">
      <rect id="Rectángulo_351250" data-name="Rectángulo 351250" width="8.994" height="71.861" fill="none"/>
    </clipPath>
    <clipPath id="clip-path-9">
      <rect id="Rectángulo_351258" data-name="Rectángulo 351258" width="24.729" height="77.93" fill="none"/>
    </clipPath>
    <clipPath id="clip-path-10">
      <rect id="Rectángulo_351267" data-name="Rectángulo 351267" width="7.254" height="88.642" fill="none"/>
    </clipPath>
    <clipPath id="clip-path-11">
      <rect id="Rectángulo_351276" data-name="Rectángulo 351276" width="23.565" height="94.493" fill="none"/>
    </clipPath>
    <clipPath id="clip-path-12">
      <rect id="Rectángulo_351289" data-name="Rectángulo 351289" width="14.061" height="124.185" fill="none"/>
    </clipPath>
  </defs>
  <g id="Grupo_1018496" data-name="Grupo 1018496" transform="translate(10155.964 6141.998)">
    <g id="Grupo_1018284" data-name="Grupo 1018284" transform="translate(530.494)">
      <path id="Trazado_721279" data-name="Trazado 721279" d="M151.721,66.85A66.85,66.85,0,1,1,84.872,0,66.849,66.849,0,0,1,151.721,66.85" transform="translate(-10670.822 -6141.999)" fill="#cda7ff"/>
      <path id="Trazado_721280" data-name="Trazado 721280" d="M267.431,114.462A66.85,66.85,0,1,1,200.58,47.611a66.849,66.849,0,0,1,66.851,66.851" transform="translate(-10570.425 -6100.69)" fill="#cda7ff"/>
      <path id="Trazado_721281" data-name="Trazado 721281" d="M133.7,149.231A66.85,66.85,0,1,1,66.849,82.382,66.849,66.849,0,0,1,133.7,149.231" transform="translate(-10686.458 -6070.521)" fill="#cda7ff"/>
      <path id="Trazado_721282" data-name="Trazado 721282" d="M167.288,310.988c-1.847,0-3.691-.035-5.541-.106a.863.863,0,0,1-.827-.895.809.809,0,0,1,.9-.827q5.141.2,10.278.022h.03a.862.862,0,0,1,.03,1.724c-1.619.054-3.244.082-4.865.082m15.152-.8a.862.862,0,0,1-.086-1.72q1.507-.157,3-.347c2.389-.3,4.8-.669,7.172-1.1a.863.863,0,1,1,.306,1.7c-2.4.431-4.845.8-7.261,1.109q-1.516.193-3.041.351a.763.763,0,0,1-.093.006m-30.971-.09a.874.874,0,0,1-.1-.006c-3.453-.392-6.914-.919-10.289-1.565a.862.862,0,1,1,.321-1.694c3.336.639,6.753,1.16,10.162,1.546a.862.862,0,0,1-.1,1.718m51.321-3.56a.862.862,0,0,1-.215-1.7c3.287-.84,6.606-1.815,9.865-2.9a.862.862,0,1,1,.545,1.636c-3.3,1.1-6.656,2.082-9.985,2.934a.919.919,0,0,1-.211.026m-71.617-.346a.889.889,0,0,1-.232-.032c-3.356-.926-6.692-2-9.914-3.184a.861.861,0,1,1,.592-1.617c3.181,1.171,6.471,2.226,9.779,3.14a.862.862,0,0,1-.226,1.694m91.233-6.174a.862.862,0,0,1-.329-1.658c3.147-1.294,6.3-2.717,9.378-4.232a.861.861,0,0,1,.758,1.546c-3.11,1.531-6.3,2.971-9.478,4.279a.853.853,0,0,1-.329.065m-110.625-.973a.87.87,0,0,1-.368-.082c-.551-.26-1.1-.523-1.649-.788-2.547-1.248-5.091-2.613-7.568-4.064a.861.861,0,0,1,.87-1.487c2.439,1.429,4.946,2.773,7.458,4q.81.392,1.623.779a.862.862,0,0,1-.366,1.642m129.175-8.162a.861.861,0,0,1-.433-1.606c2.955-1.711,5.894-3.539,8.733-5.437a.862.862,0,1,1,.96,1.433c-2.872,1.918-5.84,3.769-8.83,5.495a.83.83,0,0,1-.43.116m-147.006-2.28a.863.863,0,0,1-.5-.159c-2.807-2-5.567-4.159-8.206-6.414a.861.861,0,1,1,1.117-1.311c2.605,2.223,5.327,4.348,8.091,6.32a.862.862,0,0,1-.5,1.563m164.2-9.208a.863.863,0,0,1-.527-1.546c2.7-2.071,5.383-4.264,7.96-6.518a.863.863,0,0,1,1.137,1.3c-2.609,2.279-5.313,4.5-8.048,6.589a.859.859,0,0,1-.523.177m-179.914-4.2a.854.854,0,0,1-.613-.258c-2.424-2.456-4.776-5.052-7-7.717a.863.863,0,0,1,1.328-1.1c2.187,2.63,4.5,5.19,6.9,7.611a.862.862,0,0,1-.614,1.468m195.481-9.406a.858.858,0,0,1-.613-.254.867.867,0,0,1,0-1.22c2.422-2.406,4.8-4.925,7.056-7.486a.862.862,0,1,1,1.292,1.141c-2.284,2.589-4.686,5.134-7.131,7.568a.864.864,0,0,1-.609.25m-208.7-6.481a.859.859,0,0,1-.7-.37c-1.985-2.844-3.866-5.8-5.594-8.787a.862.862,0,1,1,1.492-.863c1.7,2.945,3.558,5.859,5.515,8.664a.863.863,0,0,1-.71,1.356M287.4,250.289a.863.863,0,0,1-.682-1.39c2.1-2.719,4.122-5.526,6.014-8.345a.863.863,0,1,1,1.432.962c-1.912,2.848-3.959,5.687-6.083,8.436a.859.859,0,0,1-.682.336m-122.5-2.174c-1.466,0-2.928-.05-4.352-.149a.862.862,0,0,1,.121-1.72,64.37,64.37,0,0,0,10.194-.125.863.863,0,0,1,.155,1.718c-2.06.183-4.118.276-6.118.276m-14.484-1.825a.8.8,0,0,1-.22-.03,45.248,45.248,0,0,1-9.783-3.874.861.861,0,1,1,.818-1.515,43.605,43.605,0,0,0,9.409,3.722.863.863,0,0,1-.224,1.7m30.736-.082a.861.861,0,0,1-.192-1.7c1.7-.387,3.414-.839,5.1-1.343,1.574-.469,3.158-.99,4.716-1.545a.862.862,0,0,1,.583,1.623c-1.588.566-3.2,1.1-4.805,1.573-1.726.515-3.481.977-5.211,1.373a.853.853,0,0,1-.192.021M54.674,241.415a.868.868,0,0,1-.781-.5c-1.475-3.153-2.822-6.389-4-9.62a.861.861,0,1,1,1.617-.59c1.162,3.184,2.49,6.372,3.943,9.478a.863.863,0,0,1-.781,1.229m145.919-2.133a.862.862,0,0,1-.375-1.638,91.9,91.9,0,0,0,8.944-4.992.861.861,0,0,1,.923,1.455,93.365,93.365,0,0,1-9.114,5.089.858.858,0,0,1-.377.086m-68.147-2.822a.854.854,0,0,1-.588-.233,44.342,44.342,0,0,1-6.746-8.078.862.862,0,0,1,1.444-.943,42.636,42.636,0,0,0,6.479,7.762.863.863,0,0,1-.588,1.492m166.472-3.339a.863.863,0,0,1-.749-1.294c1.707-2.957,3.332-6.012,4.83-9.079a.861.861,0,1,1,1.546.756c-1.513,3.1-3.156,6.193-4.884,9.185a.86.86,0,0,1-.743.431m-80.894-4.906a.863.863,0,0,1-.542-1.533,85.528,85.528,0,0,0,7.555-6.9.862.862,0,1,1,1.238,1.2,86.844,86.844,0,0,1-7.708,7.047.856.856,0,0,1-.543.192M47.6,222a.859.859,0,0,1-.831-.641q-.521-1.967-.975-3.95c-.467-2.064-.885-4.159-1.235-6.234a.863.863,0,0,1,1.7-.288c.346,2.043.756,4.107,1.214,6.141q.448,1.953.96,3.888a.863.863,0,0,1-.613,1.055A.917.917,0,0,1,47.6,222m73.522-2.648a.864.864,0,0,1-.8-.547,58.359,58.359,0,0,1-2.915-10.074.863.863,0,0,1,1.694-.331,56.16,56.16,0,0,0,2.828,9.775.861.861,0,0,1-.489,1.117.836.836,0,0,1-.314.06m67.075-.771a.862.862,0,0,1-.161-1.709,34.917,34.917,0,0,0,9.5-3.31.862.862,0,1,1,.79,1.531,36.654,36.654,0,0,1-9.966,3.474.965.965,0,0,1-.162.013m119.781-4.043a.859.859,0,0,1-.8-1.182c1.277-3.175,2.45-6.428,3.489-9.671a.864.864,0,0,1,1.645.527c-1.053,3.281-2.241,6.574-3.534,9.787a.861.861,0,0,1-.8.54m-75.609-1.165a.863.863,0,0,1-.691-1.378c1.167-1.563,2.28-3.173,3.3-4.787.784-1.231,1.543-2.506,2.251-3.789a.864.864,0,0,1,1.513.835c-.728,1.315-1.505,2.62-2.307,3.879-1.05,1.651-2.187,3.3-3.38,4.9a.858.858,0,0,1-.689.346M206.4,209.3a.862.862,0,0,1-.583-1.5,40.351,40.351,0,0,0,6.582-7.667.861.861,0,1,1,1.436.949,41.889,41.889,0,0,1-6.86,8,.847.847,0,0,1-.575.222M44.142,201.631a.86.86,0,0,1-.857-.8c-.237-3.044-.359-6.154-.36-9.241l0-1.169a.861.861,0,0,1,.861-.854H43.8a.862.862,0,0,1,.855.868l-.007,1.154c0,3.042.123,6.107.355,9.109a.86.86,0,0,1-.79.926c-.024,0-.047,0-.069,0m72.992-2.477a.865.865,0,0,1-.863-.842c-.011-.491-.015-.982-.015-1.472q0-1.563.08-3.113c.1-1.944.284-3.92.557-5.87a.871.871,0,0,1,.973-.734.861.861,0,0,1,.734.973c-.267,1.9-.448,3.825-.545,5.719q-.076,1.507-.075,3.026c0,.476,0,.952.017,1.431a.866.866,0,0,1-.844.883Zm125.23-3.819a.854.854,0,0,1-.314-.058.863.863,0,0,1-.487-1.117,79.462,79.462,0,0,0,3.072-9.751.861.861,0,1,1,1.673.409,80.539,80.539,0,0,1-3.14,9.968.865.865,0,0,1-.8.549m71.9-.489a.84.84,0,0,1-.2-.024.862.862,0,0,1-.639-1.038c.8-3.317,1.477-6.707,2.028-10.078a.862.862,0,0,1,1.7.278c-.558,3.412-1.248,6.845-2.053,10.2a.861.861,0,0,1-.837.661m-96.652-2.66a.84.84,0,0,1-.267-.043.861.861,0,0,1-.551-1.087,34.569,34.569,0,0,0,1.39-5.98,36.228,36.228,0,0,0,.334-3.933.863.863,0,0,1,1.726.052,39.62,39.62,0,0,1-.353,4.118,36.691,36.691,0,0,1-1.457,6.279.865.865,0,0,1-.822.594M44.338,180.967a.647.647,0,0,1-.084,0,.866.866,0,0,1-.775-.941c.331-3.429.814-6.9,1.436-10.315a.862.862,0,1,1,1.7.308c-.614,3.367-1.091,6.791-1.414,10.173a.863.863,0,0,1-.859.779m75.631-2.221a.9.9,0,0,1-.25-.037.866.866,0,0,1-.575-1.076,67.191,67.191,0,0,1,3.812-9.751.862.862,0,0,1,1.552.753,64.956,64.956,0,0,0-3.711,9.5.868.868,0,0,1-.827.613M247.316,175.3a.959.959,0,0,1-.1-.006.861.861,0,0,1-.753-.958,86.236,86.236,0,0,0,.592-10.119.908.908,0,0,1,.863-.913.82.82,0,0,1,.863.812v.1a86.9,86.9,0,0,1-.609,10.323.859.859,0,0,1-.852.76m70.3-.855c-.028,0-.056,0-.08,0a.866.866,0,0,1-.783-.939c.312-3.379.508-6.834.585-10.267a.944.944,0,0,1,.878-.842.863.863,0,0,1,.844.88c-.075,3.474-.273,6.968-.586,10.388a.863.863,0,0,1-.857.783m-302.645-1a.863.863,0,0,1-.857-.779c-.327-3.427-.536-6.922-.613-10.388a.863.863,0,0,1,.84-.882.887.887,0,0,1,.882.842c.078,3.425.282,6.879.605,10.263a.86.86,0,0,1-.773.939.649.649,0,0,1-.084,0m203.381-1.681a.865.865,0,0,1-.842-.669,43.592,43.592,0,0,0-3.435-9.519.86.86,0,1,1,1.539-.768,44.888,44.888,0,0,1,3.575,9.9.863.863,0,0,1-.642,1.035.9.9,0,0,1-.194.022M48.046,160.637a.8.8,0,0,1-.224-.032.864.864,0,0,1-.607-1.057c.91-3.347,1.97-6.686,3.154-9.927a.861.861,0,1,1,1.617.59c-1.164,3.2-2.211,6.488-3.106,9.788a.867.867,0,0,1-.835.637m80.935-.42a.86.86,0,0,1-.7-1.36,59.949,59.949,0,0,1,6.772-8,.862.862,0,0,1,1.212,1.225,58.454,58.454,0,0,0-6.578,7.771.857.857,0,0,1-.7.364M247.3,154.659a.86.86,0,0,1-.854-.76,88.032,88.032,0,0,0-1.793-10.082.863.863,0,0,1,1.679-.4,89.3,89.3,0,0,1,1.825,10.28.858.858,0,0,1-.753.958c-.036,0-.069,0-.1,0m70.779-.88a.86.86,0,0,1-.861-.824c-.155-3.412-.431-6.862-.814-10.253a.863.863,0,0,1,.76-.954.893.893,0,0,1,.954.76c.387,3.429.663,6.92.822,10.369a.862.862,0,0,1-.822.9l-.039,0m-108.829-.394a.859.859,0,0,1-.669-.317,45.213,45.213,0,0,0-7.237-7.086.861.861,0,1,1,1.055-1.362,46.806,46.806,0,0,1,7.517,7.357.862.862,0,0,1-.667,1.408m-194.734-.6h-.043a.864.864,0,0,1-.818-.906c.17-3.436.467-6.923.887-10.366a.862.862,0,1,1,1.711.207c-.413,3.4-.708,6.849-.876,10.244a.862.862,0,0,1-.861.82m129.138-6.994a.863.863,0,0,1-.48-1.58,54.14,54.14,0,0,1,9.26-4.944.863.863,0,1,1,.663,1.593,52.367,52.367,0,0,0-8.967,4.785.849.849,0,0,1-.476.146m-88.516-4.565a.874.874,0,0,1-.362-.082A.863.863,0,0,1,54.353,140c1.466-3.147,3.084-6.257,4.807-9.243a.859.859,0,0,1,1.177-.316.868.868,0,0,1,.317,1.178c-1.7,2.942-3.293,6.006-4.738,9.107a.863.863,0,0,1-.783.5m137.893-.387a.86.86,0,0,1-.349-.077,45.322,45.322,0,0,0-9.66-3.063.861.861,0,1,1,.338-1.688,46.9,46.9,0,0,1,10.024,3.179.863.863,0,0,1-.353,1.649m-30.394-2.953a.863.863,0,0,1-.174-1.707,54.431,54.431,0,0,1,10.436-1.132h.007a.862.862,0,0,1,.009,1.724,52.754,52.754,0,0,0-10.1,1.1.817.817,0,0,1-.177.019m79.863-3.3a.865.865,0,0,1-.811-.564,83.83,83.83,0,0,0-4.107-9.372.861.861,0,1,1,1.531-.788,85.786,85.786,0,0,1,4.2,9.564.866.866,0,0,1-.512,1.108.892.892,0,0,1-.3.052m73.265-1.35a.865.865,0,0,1-.848-.71c-.6-3.352-1.322-6.737-2.144-10.061a.861.861,0,1,1,1.672-.415c.833,3.36,1.563,6.783,2.172,10.171a.862.862,0,0,1-.7,1,.888.888,0,0,1-.155.015m-298.772-.973a.955.955,0,0,1-.162-.015.865.865,0,0,1-.685-1.009c.642-3.375,1.418-6.789,2.3-10.143a.861.861,0,1,1,1.666.435c-.868,3.321-1.634,6.694-2.269,10.031a.864.864,0,0,1-.846.7m48.483-8.926a.862.862,0,0,1-.7-1.36c1.2-1.711,2.473-3.41,3.769-5.052q1.275-1.616,2.615-3.184a.862.862,0,1,1,1.311,1.119q-1.314,1.544-2.572,3.134c-1.281,1.617-2.529,3.293-3.713,4.977a.863.863,0,0,1-.706.366m167.574-7.1a.852.852,0,0,1-.708-.375,85.825,85.825,0,0,0-6.292-8.068.863.863,0,0,1,1.294-1.141,87.272,87.272,0,0,1,6.417,8.235.862.862,0,0,1-.712,1.35m77.751-3.08a.86.86,0,0,1-.82-.6c-1.033-3.252-2.183-6.516-3.423-9.7a.862.862,0,1,1,1.606-.628c1.253,3.22,2.417,6.52,3.461,9.807a.864.864,0,0,1-.562,1.083.906.906,0,0,1-.261.039m-288.578-.9a.878.878,0,0,1-.273-.045.863.863,0,0,1-.545-1.091c1.087-3.261,2.3-6.541,3.612-9.751a.862.862,0,1,1,1.6.648c-1.294,3.179-2.5,6.423-3.573,9.648a.86.86,0,0,1-.818.59M78.866,107.6a.858.858,0,0,1-.618-.26.867.867,0,0,1,.013-1.22c2.473-2.413,5.091-4.744,7.777-6.933a.863.863,0,1,1,1.091,1.337c-2.648,2.155-5.228,4.453-7.661,6.83a.849.849,0,0,1-.6.245m140.555-6.866a.866.866,0,0,1-.577-.22,92.6,92.6,0,0,0-7.982-6.423.862.862,0,0,1,1-1.4A94.416,94.416,0,0,1,220,99.234a.861.861,0,0,1-.577,1.5M94.894,94.559a.86.86,0,0,1-.482-1.576c2.88-1.942,5.874-3.769,8.9-5.429a.862.862,0,0,1,.827,1.513c-2.973,1.634-5.922,3.433-8.761,5.345a.876.876,0,0,1-.48.148m208.4-.669a.861.861,0,0,1-.781-.5c-1.449-3.106-3.013-6.193-4.647-9.178a.863.863,0,0,1,1.515-.827c1.651,3.016,3.229,6.137,4.693,9.279a.861.861,0,0,1-.416,1.145.873.873,0,0,1-.364.08M30.023,93.108a.86.86,0,0,1-.775-1.238c1.507-3.1,3.132-6.2,4.835-9.206a.863.863,0,0,1,1.5.85C33.9,86.487,32.29,89.552,30.8,92.623a.855.855,0,0,1-.775.486m172.626-4.423a.88.88,0,0,1-.426-.112,98.3,98.3,0,0,0-9.172-4.58.862.862,0,0,1,.689-1.58,99.635,99.635,0,0,1,9.331,4.66.862.862,0,0,1-.422,1.612M113,84.612a.863.863,0,0,1-.344-1.653c3.194-1.39,6.475-2.637,9.747-3.705a.861.861,0,1,1,.532,1.638c-3.22,1.053-6.447,2.28-9.592,3.649a.885.885,0,0,1-.344.071m70.712-4.18a.858.858,0,0,1-.261-.041,98.944,98.944,0,0,0-9.915-2.59.863.863,0,0,1,.346-1.69,100.846,100.846,0,0,1,10.093,2.637.862.862,0,0,1-.261,1.685M132.643,78.2a.862.862,0,0,1-.187-1.7,102.931,102.931,0,0,1,10.281-1.741.862.862,0,1,1,.2,1.713,101.6,101.6,0,0,0-10.108,1.711.833.833,0,0,1-.189.021m30.844-1.94c-.03,0-.058,0-.086,0-3.063-.3-6.161-.454-9.209-.454l-1.022.007a.893.893,0,0,1-.876-.852.865.865,0,0,1,.854-.874l1.044-.006c3.1,0,6.259.155,9.379.461a.862.862,0,0,1-.084,1.72m129.868-.5a.857.857,0,0,1-.725-.4c-1.847-2.893-3.806-5.747-5.821-8.481a.862.862,0,0,1,1.388-1.023c2.039,2.766,4.019,5.65,5.887,8.576a.863.863,0,0,1-.728,1.326M40.224,75.123a.861.861,0,0,1-.721-1.334c1.9-2.9,3.913-5.762,5.98-8.507a.862.862,0,1,1,1.378,1.037c-2.045,2.717-4.038,5.549-5.917,8.414a.861.861,0,0,1-.721.39m240.859-16a.865.865,0,0,1-.657-.3c-2.213-2.605-4.544-5.16-6.933-7.594a.863.863,0,0,1,1.234-1.207c2.413,2.462,4.77,5.046,7.011,7.684a.865.865,0,0,1-.093,1.216.878.878,0,0,1-.562.205M52.662,58.607a.862.862,0,0,1-.654-1.425c2.264-2.626,4.634-5.2,7.049-7.65a.862.862,0,0,1,1.227,1.212c-2.387,2.42-4.731,4.966-6.97,7.564a.854.854,0,0,1-.652.3M266.609,44.366a.863.863,0,0,1-.573-.215c-1.66-1.466-3.373-2.906-5.087-4.279q-1.42-1.135-2.867-2.23a.862.862,0,0,1,1.04-1.375q1.465,1.109,2.9,2.258c1.737,1.39,3.47,2.848,5.155,4.333a.861.861,0,0,1-.57,1.507M67.18,43.884a.861.861,0,0,1-.572-1.507c2.6-2.3,5.3-4.527,8.025-6.619a.862.862,0,1,1,1.05,1.367c-2.693,2.068-5.364,4.268-7.934,6.542a.86.86,0,0,1-.57.217M250.134,31.879a.857.857,0,0,1-.469-.138c-2.848-1.847-5.816-3.623-8.819-5.28a.862.862,0,0,1,.831-1.511c3.042,1.677,6.046,3.476,8.926,5.343a.863.863,0,0,1-.469,1.586M83.582,31.307a.863.863,0,0,1-.474-1.584C86.008,27.813,89,26,92,24.32a.863.863,0,0,1,.84,1.507c-2.966,1.653-5.92,3.45-8.785,5.336a.855.855,0,0,1-.474.144m148.451-9.415a.854.854,0,0,1-.36-.078c-3.083-1.431-6.272-2.777-9.473-4.006a.862.862,0,1,1,.618-1.61c3.24,1.244,6.462,2.605,9.579,4.051a.861.861,0,0,1-.364,1.644m-130.4-.659a.862.862,0,0,1-.362-1.644c3.125-1.453,6.352-2.813,9.587-4.04a.862.862,0,1,1,.614,1.61c-3.2,1.214-6.387,2.559-9.475,3.993a.861.861,0,0,1-.364.08m111.1-6.746a.863.863,0,0,1-.254-.037c-3.259-1.007-6.6-1.918-9.925-2.71a.861.861,0,1,1,.4-1.675c3.362.8,6.735,1.72,10.033,2.738a.861.861,0,0,1-.256,1.685m-91.773-.6a.861.861,0,0,1-.248-1.687c3.293-.99,6.679-1.883,10.059-2.65a.863.863,0,0,1,.381,1.683c-3.341.758-6.686,1.64-9.947,2.618a.852.852,0,0,1-.245.035m71.658-4.2a.975.975,0,0,1-.146-.011c-3.36-.573-6.789-1.046-10.19-1.4a.861.861,0,1,1,.177-1.713c3.44.359,6.907.835,10.3,1.416a.861.861,0,0,1-.144,1.711m-51.5-.383a.861.861,0,0,1-.133-1.713c3.4-.534,6.877-.964,10.323-1.272a.862.862,0,0,1,.155,1.716c-3.41.306-6.843.73-10.211,1.259a.814.814,0,0,1-.134.009m30.94-1.772-.037,0c-3.4-.136-6.866-.166-10.287-.08h-.022a.862.862,0,0,1-.022-1.724c3.468-.086,6.963-.056,10.4.082a.862.862,0,0,1-.035,1.724" transform="translate(-10674.742 -6137.067)" fill="#bcf987" stroke="#bcf987" stroke-width="4"/>
    </g>
    <g id="Grupo_1018316" data-name="Grupo 1018316" transform="translate(-10123 -6125.823)">
      <g id="Grupo_1018315" data-name="Grupo 1018315" clip-path="url(#clip-path)">
        <g id="Grupo_1018286" data-name="Grupo 1018286">
          <g id="Grupo_1018285" data-name="Grupo 1018285" clip-path="url(#clip-path)">
            <path id="Trazado_721283" data-name="Trazado 721283" d="M294.71,167.855A145.265,145.265,0,1,1,149.445,22.59,145.265,145.265,0,0,1,294.71,167.855" transform="translate(-2.475 -13.377)" fill="#3ed0ee" opacity="0.12"/>
            <path id="Trazado_721284" data-name="Trazado 721284" d="M.187,484.353s-1.824,3.395,11.125,6.225h271.1s9.069-.581,11.458-4.856l.015-2.343Z" transform="translate(-0.059 -286.232)" fill="#b0b0b0"/>
            <path id="Trazado_721285" data-name="Trazado 721285" d="M.192,468.967h293.73v7.541s.442,1.009-3.018.757H2.956s-2.7.759-2.956-1.009Z" transform="translate(0 -277.698)" fill="#fff"/>
            <path id="Trazado_721286" data-name="Trazado 721286" d="M671.431,478.994a.484.484,0,0,1-.435.524H661a.485.485,0,0,1-.435-.524.491.491,0,0,1,.435-.536h10a.49.49,0,0,1,.435.536" transform="translate(-391.153 -283.318)" fill="#b0b0b0"/>
            <path id="Trazado_721287" data-name="Trazado 721287" d="M311.415,469.114s-1.133,3.775,2.64,4.15h34.077s3.624.471,3.142-4.023Z" transform="translate(-184.31 -277.785)" fill="#b0b0b0"/>
          </g>
        </g>
        <g id="Grupo_1018288" data-name="Grupo 1018288" transform="translate(166.782 191.447)">
          <g id="Grupo_1018287" data-name="Grupo 1018287" clip-path="url(#clip-path-3)">
            <rect id="Rectángulo_351225" data-name="Rectángulo 351225" width="0.006" height="0.09" fill="url(#linear-gradient)"/>
          </g>
        </g>
        <g id="Grupo_1018314" data-name="Grupo 1018314">
          <g id="Grupo_1018313" data-name="Grupo 1018313" clip-path="url(#clip-path)">
            <path id="Trazado_721289" data-name="Trazado 721289" d="M307,258.463V124.582a11.079,11.079,0,0,0-11.045-11.049H81.909a11.08,11.08,0,0,0-11.048,11.049V258.463Z" transform="translate(-41.96 -67.228)" fill="#161d21"/>
            <rect id="Rectángulo_351226" data-name="Rectángulo 351226" width="220.949" height="128.421" transform="translate(36.495 54.595)" fill="#fff"/>
            <g id="Grupo_1018291" data-name="Grupo 1018291" transform="translate(79.262 54.595)" opacity="0.5">
              <g id="Grupo_1018290" data-name="Grupo 1018290">
                <g id="Grupo_1018289" data-name="Grupo 1018289" clip-path="url(#clip-path-5)">
                  <path id="Trazado_721290" data-name="Trazado 721290" d="M194.34,133.859l7.473,122.991H322.282l7.474-122.991Z" transform="translate(-194.34 -133.859)" fill="#b0b0b0"/>
                </g>
              </g>
            </g>
            <rect id="Rectángulo_351228" data-name="Rectángulo 351228" width="120.469" height="9.331" transform="translate(86.736)" fill="#f76031"/>
            <rect id="Rectángulo_351229" data-name="Rectángulo 351229" width="120.469" height="168.254" transform="translate(86.735 9.331)" fill="#f9f9f9"/>
            <path id="Trazado_721291" data-name="Trazado 721291" d="M677.69,495.044a.343.343,0,0,1,.292.376V501.3a.343.343,0,0,1-.292.376h-8.354a.344.344,0,0,1-.292-.376V495.42a.344.344,0,0,1,.292-.376Z" transform="translate(-396.174 -293.14)" fill="#f76031"/>
            <path id="Trazado_721292" data-name="Trazado 721292" d="M669.044,496.341v2.122h8.938v-2.122a.342.342,0,0,0-.292-.376h-8.354a.343.343,0,0,0-.292.376" transform="translate(-396.174 -293.685)" fill="#fff"/>
            <path id="Trazado_721293" data-name="Trazado 721293" d="M669.043,239.654v92.634h8.938V219.232h-8.938Z" transform="translate(-396.173 -129.818)" fill="#ffd11d"/>
            <path id="Trazado_721294" data-name="Trazado 721294" d="M677.06,239.654v92.634h2.4V219.232h-2.4Z" transform="translate(-400.92 -129.818)" fill="#161d21"/>
            <path id="Trazado_721295" data-name="Trazado 721295" d="M677.969,198.334l-4.493,3.168-4.494-3.167,4.494-14.489Z" transform="translate(-396.137 -108.865)" fill="#fff"/>
            <path id="Trazado_721296" data-name="Trazado 721296" d="M675.4,189.889h3.748l-1.873-6.043Z" transform="translate(-399.939 -108.864)" fill="#161d21"/>
            <path id="Trazado_721297" data-name="Trazado 721297" d="M645.244,323.4a4.558,4.558,0,0,0,4.554,4.555h6.092v1.363H634.01a4.253,4.253,0,0,0,0,8.467h5.775v1.031H634.3c-1.312,0-2.374,1.9-2.374,4.232s1.062,4.236,2.374,4.236h5.486v1.031h-2.513c-1.315,0-2.379,1.893-2.379,4.23s1.064,4.238,2.379,4.238h2.513v1.029h-.67c-1.315,0-2.376,1.894-2.376,4.233s1.062,4.234,2.376,4.234h5.641l2.366-.125c8.049-.082,17.27-.139,19.283-1.162a45.242,45.242,0,0,0,5.212-3.606s7.511-.029,16.048-.031V330.656c-3.808.037-7.384.071-10.137.093L669.465,321a4.93,4.93,0,0,0-4.133-2.15v-.007H649.8a4.556,4.556,0,0,0-4.554,4.553" transform="translate(-373.152 -188.802)" fill="#eda677"/>
            <path id="Trazado_721298" data-name="Trazado 721298" d="M837.371,326.525H756.143v45.238h37.862l43.366-.065Z" transform="translate(-447.749 -193.351)" fill="#fff"/>
            <path id="Trazado_721299" data-name="Trazado 721299" d="M768.376,413.385a2.062,2.062,0,1,1-2.173-1.944,2.061,2.061,0,0,1,2.173,1.944" transform="translate(-452.553 -243.632)" fill="#161d21"/>
            <rect id="Rectángulo_351230" data-name="Rectángulo 351230" width="70.962" height="49.923" transform="translate(318.66 130.398)" fill="#161d21"/>
            <g id="Grupo_1018294" data-name="Grupo 1018294" transform="translate(257.014 130.041)" opacity="0.2">
              <g id="Grupo_1018293" data-name="Grupo 1018293">
                <g id="Grupo_1018292" data-name="Grupo 1018292" clip-path="url(#clip-path-6)">
                  <path id="Trazado_721300" data-name="Trazado 721300" d="M762.775,319.2H691.812v2.775H681.547v8.737l-4.018.036L669.465,321a4.931,4.931,0,0,0-4.133-2.15v-.006H649.8a4.554,4.554,0,1,0,0,9.108h6.092v1.363H634.01a4.253,4.253,0,0,0,0,8.467h5.775v1.031H634.3c-1.312,0-2.374,1.9-2.374,4.232,0,.258.015.51.04.756H762.775Z" transform="translate(-630.167 -318.844)" fill="#fff"/>
                </g>
              </g>
            </g>
            <path id="Trazado_721301" data-name="Trazado 721301" d="M677.981,269.565V219.232h-8.938v50.333Z" transform="translate(-396.173 -129.818)" fill="#ffd11d"/>
            <rect id="Rectángulo_351232" data-name="Rectángulo 351232" width="2.397" height="51.014" transform="translate(276.139 89.414)" fill="#161d21"/>
            <path id="Trazado_721302" data-name="Trazado 721302" d="M677.969,198.334l-4.493,3.168-4.494-3.167,4.494-14.489Z" transform="translate(-396.137 -108.865)" fill="#fff"/>
            <path id="Trazado_721303" data-name="Trazado 721303" d="M675.4,189.889h3.748l-1.873-6.043Z" transform="translate(-399.939 -108.864)" fill="#161d21"/>
            <path id="Trazado_721304" data-name="Trazado 721304" d="M129.667,667.4v-2.7H19.181a6.771,6.771,0,0,0-6.771,6.772v6.326a6.771,6.771,0,0,0,6.771,6.771H129.667v-2.7H126.61V667.4Z" transform="translate(-7.349 -393.599)" fill="#2fbcbc"/>
            <path id="Trazado_721305" data-name="Trazado 721305" d="M132.819,671.317H26.911a4.3,4.3,0,0,0-4.3,4.3v5.863a4.3,4.3,0,0,0,4.3,4.3H132.819Z" transform="translate(-13.388 -397.519)" fill="#f1f1f1"/>
            <path id="Trazado_721306" data-name="Trazado 721306" d="M55.438,695.548,52.626,691.9l-2.811,3.646v-8.9h5.623Z" transform="translate(-29.498 -406.596)" fill="#f76031"/>
            <path id="Trazado_721307" data-name="Trazado 721307" d="M124.392,626.5v-2.22h-90.8a5.564,5.564,0,0,0-5.566,5.564v5.2a5.565,5.565,0,0,0,5.566,5.565h90.8v-2.219H121.88V626.5Z" transform="translate(-16.593 -369.665)" fill="#f76031"/>
            <path id="Trazado_721308" data-name="Trazado 721308" d="M126.985,629.72H39.942a3.536,3.536,0,0,0-3.536,3.536v4.817a3.537,3.537,0,0,0,3.536,3.537h87.043Z" transform="translate(-21.558 -372.888)" fill="#f1f1f1"/>
            <path id="Trazado_721309" data-name="Trazado 721309" d="M90.622,643.606l-2.31-3-2.311,3V636.29h4.621Z" transform="translate(-50.925 -376.778)" fill="#f76031"/>
            <path id="Trazado_721310" data-name="Trazado 721310" d="M127.548,582.73v-2.408H29.061a6.036,6.036,0,0,0-6.035,6.036V592a6.036,6.036,0,0,0,6.035,6.036h98.486v-2.406h-2.725v-12.9Z" transform="translate(-13.635 -343.637)" fill="#2fbcbc"/>
            <path id="Trazado_721311" data-name="Trazado 721311" d="M130.358,586.225h-94.4a3.835,3.835,0,0,0-3.835,3.836v5.225a3.836,3.836,0,0,0,3.835,3.835h94.4Z" transform="translate(-19.019 -347.132)" fill="#f1f1f1"/>
            <path id="Trazado_721312" data-name="Trazado 721312" d="M60.372,608.815l-2.506-3.249-2.505,3.249V600.88h5.012Z" transform="translate(-32.781 -355.81)" fill="#f76031"/>
            <path id="Trazado_721313" data-name="Trazado 721313" d="M56.96,552.7v2.344h95.926a5.879,5.879,0,0,0,5.879-5.878v-5.494a5.878,5.878,0,0,0-5.879-5.877H56.96v2.344h2.654V552.7Z" transform="translate(-33.729 -318.455)" fill="#2fbcbc"/>
            <path id="Trazado_721314" data-name="Trazado 721314" d="M63.105,556.1h91.951a3.736,3.736,0,0,0,3.734-3.736v-5.089a3.735,3.735,0,0,0-3.734-3.736H63.105Z" transform="translate(-37.368 -321.858)" fill="#f1f1f1"/>
            <path id="Trazado_721315" data-name="Trazado 721315" d="M240.729,558.879l-2.441-3.165-2.44,3.165v-7.728h4.881Z" transform="translate(-139.657 -326.363)" fill="#f76031"/>
            <rect id="Rectángulo_351233" data-name="Rectángulo 351233" width="26.365" height="109.615" transform="translate(165.895 181.351)" fill="#2fbcbc"/>
            <rect id="Rectángulo_351234" data-name="Rectángulo 351234" width="26.365" height="2.776" transform="translate(165.895 268.072)" fill="#fff"/>
            <rect id="Rectángulo_351235" data-name="Rectángulo 351235" width="26.365" height="2.775" transform="translate(165.895 198.001)" fill="#fff"/>
            <rect id="Rectángulo_351236" data-name="Rectángulo 351236" width="26.365" height="2.081" transform="translate(165.895 261.135)" fill="#fff"/>
            <g id="Grupo_1018297" data-name="Grupo 1018297" transform="translate(178.832 181.351)" opacity="0.2">
              <g id="Grupo_1018296" data-name="Grupo 1018296">
                <g id="Grupo_1018295" data-name="Grupo 1018295" clip-path="url(#clip-path-7)">
                  <rect id="Rectángulo_351237" data-name="Rectángulo 351237" width="13.428" height="109.615" transform="translate(0 0)" fill="#fff"/>
                  <rect id="Rectángulo_351238" data-name="Rectángulo 351238" width="13.428" height="2.776" transform="translate(0 86.721)" fill="#fff"/>
                  <rect id="Rectángulo_351239" data-name="Rectángulo 351239" width="13.428" height="2.775" transform="translate(0 16.65)" fill="#fff"/>
                  <rect id="Rectángulo_351240" data-name="Rectángulo 351240" width="13.428" height="2.081" transform="translate(0 79.784)" fill="#fff"/>
                </g>
              </g>
            </g>
            <rect id="Rectángulo_351242" data-name="Rectángulo 351242" width="17.284" height="71.861" transform="translate(234.233 219.105)" fill="#ffd11d"/>
            <rect id="Rectángulo_351243" data-name="Rectángulo 351243" width="17.284" height="1.819" transform="translate(234.233 275.958)" fill="#fff"/>
            <rect id="Rectángulo_351244" data-name="Rectángulo 351244" width="17.284" height="1.82" transform="translate(234.233 230.02)" fill="#fff"/>
            <rect id="Rectángulo_351245" data-name="Rectángulo 351245" width="17.284" height="1.365" transform="translate(234.233 271.409)" fill="#fff"/>
            <g id="Grupo_1018300" data-name="Grupo 1018300" transform="translate(242.523 219.105)" opacity="0.2">
              <g id="Grupo_1018299" data-name="Grupo 1018299">
                <g id="Grupo_1018298" data-name="Grupo 1018298" clip-path="url(#clip-path-8)">
                  <rect id="Rectángulo_351246" data-name="Rectángulo 351246" width="8.995" height="71.861" fill="#fff"/>
                  <rect id="Rectángulo_351247" data-name="Rectángulo 351247" width="8.995" height="1.819" transform="translate(0 56.852)" fill="#fff"/>
                  <rect id="Rectángulo_351248" data-name="Rectángulo 351248" width="8.995" height="1.82" transform="translate(0 10.915)" fill="#fff"/>
                  <rect id="Rectángulo_351249" data-name="Rectángulo 351249" width="8.995" height="1.365" transform="translate(0 52.304)" fill="#fff"/>
                </g>
              </g>
            </g>
            <rect id="Rectángulo_351251" data-name="Rectángulo 351251" width="20.853" height="77.247" transform="translate(250.776 215.01) rotate(-10.485)" fill="#2fbcbc"/>
            <path id="Trazado_721316" data-name="Trazado 721316" d="M642.138,669l20.505-3.793.356,1.922-20.5,3.8Z" transform="translate(-380.241 -393.904)" fill="#fff"/>
            <rect id="Rectángulo_351252" data-name="Rectángulo 351252" width="20.853" height="1.956" transform="translate(252.911 226.547) rotate(-10.486)" fill="#fff"/>
            <rect id="Rectángulo_351253" data-name="Rectángulo 351253" width="20.853" height="1.466" transform="translate(261.008 270.295) rotate(-10.485)" fill="#fff"/>
            <g id="Grupo_1018303" data-name="Grupo 1018303" transform="translate(260.609 211.215)" opacity="0.2">
              <g id="Grupo_1018302" data-name="Grupo 1018302">
                <g id="Grupo_1018301" data-name="Grupo 1018301" clip-path="url(#clip-path-9)">
                  <rect id="Rectángulo_351254" data-name="Rectángulo 351254" width="10.852" height="77.246" transform="matrix(0.983, -0.182, 0.182, 0.983, 0, 1.975)" fill="#fff"/>
                  <rect id="Rectángulo_351255" data-name="Rectángulo 351255" width="10.852" height="1.956" transform="matrix(0.983, -0.182, 0.182, 0.983, 11.122, 62.067)" fill="#fff"/>
                  <rect id="Rectángulo_351256" data-name="Rectángulo 351256" width="10.852" height="1.956" transform="translate(2.136 13.508) rotate(-10.45)" fill="#fff"/>
                  <rect id="Rectángulo_351257" data-name="Rectángulo 351257" width="10.852" height="1.465" transform="matrix(0.983, -0.182, 0.182, 0.983, 10.232, 57.26)" fill="#fff"/>
                </g>
              </g>
            </g>
            <rect id="Rectángulo_351259" data-name="Rectángulo 351259" width="14.258" height="88.642" transform="translate(219.987 202.324)" fill="#2fbcbc"/>
            <rect id="Rectángulo_351260" data-name="Rectángulo 351260" width="14.258" height="2.245" transform="translate(219.987 215.787)" fill="#fff"/>
            <rect id="Rectángulo_351261" data-name="Rectángulo 351261" width="14.258" height="1.684" transform="translate(219.987 268.864)" fill="#fff"/>
            <rect id="Rectángulo_351262" data-name="Rectángulo 351262" width="14.258" height="1.684" transform="translate(219.987 274.402)" fill="#fff"/>
            <g id="Grupo_1018306" data-name="Grupo 1018306" transform="translate(226.991 202.324)" opacity="0.2">
              <g id="Grupo_1018305" data-name="Grupo 1018305">
                <g id="Grupo_1018304" data-name="Grupo 1018304" clip-path="url(#clip-path-10)">
                  <rect id="Rectángulo_351263" data-name="Rectángulo 351263" width="7.254" height="88.642" transform="translate(0 0)" fill="#fff"/>
                  <rect id="Rectángulo_351264" data-name="Rectángulo 351264" width="7.254" height="2.245" transform="translate(0 70.128)" fill="#fff"/>
                  <rect id="Rectángulo_351265" data-name="Rectángulo 351265" width="7.254" height="2.245" transform="translate(0 13.463)" fill="#fff"/>
                  <rect id="Rectángulo_351266" data-name="Rectángulo 351266" width="7.254" height="1.683" transform="translate(0 64.518)" fill="#fff"/>
                </g>
              </g>
            </g>
            <rect id="Rectángulo_351268" data-name="Rectángulo 351268" width="94.542" height="15.206" transform="matrix(0.169, -0.986, 0.986, 0.169, 134.923, 288.403)" fill="#f76031"/>
            <rect id="Rectángulo_351269" data-name="Rectángulo 351269" width="2.394" height="15.207" transform="translate(137.848 271.299) rotate(-80.297)" fill="#fff"/>
            <rect id="Rectángulo_351270" data-name="Rectángulo 351270" width="2.394" height="15.207" transform="matrix(0.169, -0.986, 0.986, 0.169, 148.036, 211.728)" fill="#fff"/>
            <rect id="Rectángulo_351271" data-name="Rectángulo 351271" width="1.794" height="15.206" transform="matrix(0.169, -0.986, 0.986, 0.169, 138.958, 264.81)" fill="#fff"/>
            <g id="Grupo_1018309" data-name="Grupo 1018309" transform="translate(142.284 196.473)" opacity="0.2">
              <g id="Grupo_1018308" data-name="Grupo 1018308">
                <g id="Grupo_1018307" data-name="Grupo 1018307" clip-path="url(#clip-path-11)">
                  <rect id="Rectángulo_351272" data-name="Rectángulo 351272" width="94.542" height="7.736" transform="matrix(0.169, -0.986, 0.986, 0.169, 0, 93.188)" fill="#fff"/>
                  <rect id="Rectángulo_351273" data-name="Rectángulo 351273" width="2.395" height="7.738" transform="translate(2.925 76.086) rotate(-80.305)" fill="#fff"/>
                  <rect id="Rectángulo_351274" data-name="Rectángulo 351274" width="2.394" height="7.737" transform="translate(13.114 16.515) rotate(-80.31)" fill="#fff"/>
                  <rect id="Rectángulo_351275" data-name="Rectángulo 351275" width="1.795" height="7.737" transform="translate(4.035 69.595) rotate(-80.272)" fill="#fff"/>
                </g>
              </g>
            </g>
            <rect id="Rectángulo_351277" data-name="Rectángulo 351277" width="27.751" height="124.185" transform="translate(192.259 166.781)" fill="#ffd11d"/>
            <rect id="Rectángulo_351278" data-name="Rectángulo 351278" width="27.751" height="2.081" transform="translate(192.259 171.637)" fill="#fff"/>
            <rect id="Rectángulo_351279" data-name="Rectángulo 351279" width="27.751" height="2.082" transform="translate(192.259 176.493)" fill="#fff"/>
            <rect id="Rectángulo_351280" data-name="Rectángulo 351280" width="27.751" height="2.082" transform="translate(192.259 272.928)" fill="#fff"/>
            <rect id="Rectángulo_351281" data-name="Rectángulo 351281" width="27.751" height="2.082" transform="translate(192.259 282.745)" fill="#fff"/>
            <rect id="Rectángulo_351282" data-name="Rectángulo 351282" width="27.751" height="2.082" transform="translate(192.259 277.784)" fill="#fff"/>
            <g id="Grupo_1018312" data-name="Grupo 1018312" transform="translate(205.949 166.781)" opacity="0.2">
              <g id="Grupo_1018311" data-name="Grupo 1018311">
                <g id="Grupo_1018310" data-name="Grupo 1018310" clip-path="url(#clip-path-12)">
                  <rect id="Rectángulo_351283" data-name="Rectángulo 351283" width="14.061" height="124.185" transform="translate(0 0)" fill="#fff"/>
                  <rect id="Rectángulo_351284" data-name="Rectángulo 351284" width="14.061" height="2.081" transform="translate(0 4.856)" fill="#fff"/>
                  <rect id="Rectángulo_351285" data-name="Rectángulo 351285" width="14.061" height="2.082" transform="translate(0 9.712)" fill="#fff"/>
                  <rect id="Rectángulo_351286" data-name="Rectángulo 351286" width="14.061" height="2.082" transform="translate(0 106.147)" fill="#fff"/>
                  <rect id="Rectángulo_351287" data-name="Rectángulo 351287" width="14.061" height="2.082" transform="translate(0 115.964)" fill="#fff"/>
                  <rect id="Rectángulo_351288" data-name="Rectángulo 351288" width="14.061" height="2.082" transform="translate(0 111.003)" fill="#fff"/>
                </g>
              </g>
            </g>
            <rect id="Rectángulo_351290" data-name="Rectángulo 351290" width="46.268" height="4.07" transform="translate(95.833 43.329)" fill="#b0b0b0"/>
            <rect id="Rectángulo_351291" data-name="Rectángulo 351291" width="102.239" height="4.069" transform="translate(95.832 59.984)" fill="#b0b0b0"/>
            <rect id="Rectángulo_351292" data-name="Rectángulo 351292" width="102.239" height="4.07" transform="translate(95.832 69.235)" fill="#b0b0b0"/>
            <rect id="Rectángulo_351293" data-name="Rectángulo 351293" width="102.239" height="4.069" transform="translate(95.832 78.486)" fill="#b0b0b0"/>
            <rect id="Rectángulo_351294" data-name="Rectángulo 351294" width="102.239" height="4.073" transform="translate(95.832 87.737)" fill="#b0b0b0"/>
            <rect id="Rectángulo_351295" data-name="Rectángulo 351295" width="102.239" height="4.069" transform="translate(95.832 97.003)" fill="#b0b0b0"/>
            <rect id="Rectángulo_351296" data-name="Rectángulo 351296" width="102.239" height="4.071" transform="translate(95.832 106.254)" fill="#b0b0b0"/>
            <rect id="Rectángulo_351297" data-name="Rectángulo 351297" width="102.239" height="4.068" transform="translate(95.832 115.505)" fill="#b0b0b0"/>
            <rect id="Rectángulo_351298" data-name="Rectángulo 351298" width="102.239" height="4.074" transform="translate(95.832 124.756)" fill="#b0b0b0"/>
            <rect id="Rectángulo_351299" data-name="Rectángulo 351299" width="102.239" height="4.071" transform="translate(95.832 133.962)" fill="#b0b0b0"/>
            <rect id="Rectángulo_351300" data-name="Rectángulo 351300" width="102.239" height="4.069" transform="translate(95.832 143.214)" fill="#b0b0b0"/>
            <rect id="Rectángulo_351301" data-name="Rectángulo 351301" width="102.239" height="4.072" transform="translate(95.832 152.466)" fill="#b0b0b0"/>
          </g>
        </g>
      </g>
    </g>
  </g>
</svg>
