<svg xmlns="http://www.w3.org/2000/svg" xmlns:xlink="http://www.w3.org/1999/xlink" width="169" height="169" viewBox="0 0 169 169">
  <defs>
    <clipPath id="clip-path">
      <rect id="Rect치ngulo_351444" data-name="Rect치ngulo 351444" width="138.002" height="137.988" fill="none"/>
    </clipPath>
  </defs>
  <g id="Grupo_1018501" data-name="Grupo 1018501" transform="translate(-366.501 -7543.244)">
    <g id="Grupo_1018361" data-name="Grupo 1018361" transform="translate(-18.5 5485.244)">
      <g id="Grupo_159182" data-name="Grupo 159182" transform="translate(385.001 2058)">
        <path id="Uni칩n_12" data-name="Uni칩n 12" d="M84.5,0A84.5,84.5,0,1,1,0,84.5,84.5,84.5,0,0,1,84.5,0Z" transform="translate(0 0)" fill="#cda7ff"/>
      </g>
    </g>
    <g id="Grupo_1018453" data-name="Grupo 1018453" transform="translate(382 7558.75)">
      <g id="Grupo_1018452" data-name="Grupo 1018452" clip-path="url(#clip-path)">
        <path id="Trazado_721871" data-name="Trazado 721871" d="M95,75.392c1.831.339,2.072,1.622,2.066,3.211-.037,9.068.029,18.137-.056,27.2-.017,1.831.385,2.419,2.215,1.781,1.347-.47,2.8-.633,4.157-1.077,2.377-.775,2.938-2.94,1.192-4.761a13.972,13.972,0,0,1-3.806-9.5c-.191-4.3-.49-8.6-.829-12.9-.479-6.067,3.236-10.279,9.258-10.343,3.232-.034,6.468-.09,9.7.03a8.458,8.458,0,0,1,8.384,8.72c-.149,5.468-.617,10.929-1,16.39a12.257,12.257,0,0,1-3.409,7.433c-1.941,2.162-1.4,4.224,1.339,5.007,2.065.59,4.185.992,6.242,1.607a9.967,9.967,0,0,1,7.508,9.941c.049,5.476-.079,10.956.051,16.43.062,2.594-.927,3.451-3.479,3.44-18.137-.072-36.275-.038-54.413-.038q-37.981,0-75.963,0c-3.774,0-4.114-.35-4.117-4.184,0-5.117-.024-10.235.006-15.353.031-5.314,2.878-9.019,7.994-10.414,1.9-.519,3.844-.876,5.739-1.409,2.742-.77,3.312-2.869,1.378-5a12.66,12.66,0,0,1-3.471-7.692c-.282-3.758-.686-7.517-.747-11.28a13.408,13.408,0,1,1,26.814-.092c-.039,3.765-.31,7.535-.632,11.289a12.628,12.628,0,0,1-3.477,7.7c-2.073,2.219-1.448,4.283,1.477,5.12,5.844,1.671,5.844,1.671,5.844-4.328,0-13.019.022-26.038-.023-39.057-.007-2.04.349-3.609,2.758-3.743,1.3-.072.989-1.022.994-1.764.022-2.783-.012-5.567.015-8.35.052-5.27,2.744-8.828,7.768-10.282,1.845-.534,3.865-.639,5.11-2.486.229-.339.956-.385,1.468-.479.629-.115,1.543.5,1.763-.6a2.363,2.363,0,0,0-.514-2.482C56.9,30,56.118,25.95,56.041,21.6c-.048-2.689-.445-5.374-.455-8.062a13.415,13.415,0,1,1,26.83-.082c-.014,3.764-.332,7.533-.653,11.287a11.954,11.954,0,0,1-3.44,7.7c-.893.884-1.5,1.763-1.162,3.045.375,1.408,1.705.2,2.224.718,2.891,2.877,7.384,2.395,10.356,5.038A9.839,9.839,0,0,1,93.3,48.784c.018,2.963.042,5.927-.005,8.888-.017,1.1.021,1.85,1.467,1.938,1.571.1,2.321,1.16,2.292,2.765-.031,1.705-.047,3.413.006,5.117A2.347,2.347,0,0,1,95,70.169c-2.517-.65-1.939-2.714-1.892-4.409.044-1.567-.316-2.2-2.066-2.191q-22.075.1-44.151.008c-1.552-.005-1.974.5-1.969,2q.067,21.4,0,42.8a2.926,2.926,0,0,0,1.462,2.939c1.04.5,1.4-.813,2.058-1.293a13.172,13.172,0,0,1,4.611-2.114c1.736-.439,3.5-.789,5.221-1.266,2.9-.8,3.506-2.919,1.437-5.145a12.2,12.2,0,0,1-3.4-7.448c-.43-5.453-.835-10.917-.94-16.383a8.483,8.483,0,0,1,8.486-8.64c1.792-.073,3.59-.053,5.383,0A13.348,13.348,0,0,1,82.42,82.565c-.035,3.673-.327,7.348-.64,11.011a12.844,12.844,0,0,1-3.15,7.569c-2.522,2.868-1.953,4.605,1.692,5.627,3.331.934,6.932,1.161,9.7,3.658,1.419,1.282,2.657.841,3-1.033a11.982,11.982,0,0,0,.047-2.149q0-14.133,0-28.266c0-1.56-.112-3.148,1.935-3.589M23.2,97.136c-3.479.613-5.29-1.888-7.588-4.528.211,2.841.9,4.919,2.66,6.246a5.048,5.048,0,0,1,1.975,5.688c-.612,2.406.389,2.862,2.393,2.668a10.76,10.76,0,0,0,3.463.131c1.932-.036,2.978-.518,2.471-2.868a5.142,5.142,0,0,1,1.96-5.671c1.614-1.221,2.532-3.15,2.291-6.218-2.281,4.546-5.879,4.74-9.625,4.551m43.654,10.072a13.744,13.744,0,0,0,3.727.157c2.005-.042,3.181-.5,2.6-2.975a5.146,5.146,0,0,1,2.031-5.639,5.887,5.887,0,0,0,2.122-5.781c-2.04,4.219-5.662,4.343-9.4,4.159-3.474.721-5.279-1.825-7.465-4.245-.163,2.567.595,4.474,2.135,5.65,2.282,1.742,2.667,3.913,2.177,6.38-.38,1.912.382,2.437,2.077,2.295M72.232,11.5a6.686,6.686,0,0,1-6.027.125c-3.061-1.4-6.465,1.3-6.375,4.7.078,2.953.261,5.913.6,8.846A6.8,6.8,0,0,0,63.462,30.3c2.645,2.535,5.759,2.754,8.94,1.457a8.117,8.117,0,0,0,5.258-7.189c.226-2.5.406-5,.509-7.507.164-3.994-1.834-5.832-5.937-5.565M46.7,124.079c-2.615-.543-1.99-2.637-1.957-4.321.06-3.053-.382-6.039-3.54-7.169-3.881-1.389-7.8-3.114-12.2-1.676a12.144,12.144,0,0,1-7.694.27c-4.361-1.492-8.438-.357-12.567.861-2.831.836-4.5,2.717-4.6,5.6-.164,4.927-.036,9.862-.1,14.793-.019,1.468.814,1.517,1.9,1.53,1.1.013,1.641-.308,1.6-1.532-.074-2.15-.01-4.3-.017-6.455,0-1.4.638-2.29,2.059-2.253,1.282.034,1.87.906,1.872,2.171,0,1.973.1,3.951-.018,5.916-.1,1.626.428,2.187,2.1,2.17q10.894-.113,21.789,0c1.576.016,2.008-.536,1.922-2.016-.108-1.877-.005-3.765-.031-5.647-.02-1.44.454-2.584,2.038-2.589,1.634,0,2,1.247,2,2.629.007,1.883.055,3.768-.012,5.648-.045,1.278.2,1.982,1.735,1.986,1.5,0,1.883-.611,1.735-1.933a2.343,2.343,0,0,1,1.978-2.747,2.362,2.362,0,0,1,1.961,2.769c-.149,1.422.468,1.847,1.851,1.86,1.6.015,1.686-.87,1.659-2.066-.043-1.882,0-3.766-.012-5.648-.012-1.443.471-2.573,2.084-2.51,1.423.056,1.913,1.089,1.891,2.443-.033,1.972.067,3.949-.031,5.916-.07,1.409.436,1.862,1.834,1.852,7.352-.051,14.705-.063,22.057.009,1.583.015,2.006-.568,1.927-2.037-.1-1.878,0-3.765-.031-5.647-.027-1.46.465-2.561,2.06-2.537,1.451.022,1.921,1.085,1.913,2.418-.012,1.883.05,3.768-.015,5.648-.046,1.347.128,2.2,1.841,2.168,1.58-.033,1.685-.842,1.675-2.055-.037-4.483,0-8.966-.023-13.449-.009-2.172-.588-4.341-2.556-5.321-3.585-1.787-7.451-3.389-11.523-2.5a28.084,28.084,0,0,1-12.468,0c-4.076-.91-7.9.775-11.541,2.454a4.773,4.773,0,0,0-2.434,3.988,32.644,32.644,0,0,0-.137,4.292c.019,1.437-.439,2.45-1.981,2.709m46.612.742c0,2.332.019,4.664-.009,7-.013,1.15-.035,2.072,1.61,2.106,1.771.036,1.82-.934,1.789-2.216-.043-1.793-.019-3.588,0-5.382.012-1.394.472-2.622,2.052-2.624,1.55,0,2.075,1.127,2.052,2.582-.031,1.973.054,3.949-.027,5.919-.053,1.287.411,1.71,1.695,1.7q11.167-.067,22.334,0c1.509.01,1.792-.7,1.751-1.984-.063-1.971,0-3.945-.01-5.919,0-1.374.6-2.348,2.016-2.3,1.4.043,1.96,1.029,1.939,2.4-.03,2.062.032,4.127-.017,6.189-.027,1.136.4,1.61,1.557,1.609,1.144,0,1.873-.2,1.856-1.595-.059-4.932,0-9.866-.077-14.8a4.8,4.8,0,0,0-2.991-4.743c-3.905-1.335-7.758-3.248-12.173-1.917-2.575.777-5.354,1.254-7.963.381-4.365-1.461-8.46-.479-12.589.808a6.158,6.158,0,0,0-4.782,6.328c-.054,2.151-.01,4.305-.012,6.458m20.215-51.648c-1.524,0-3.05-.043-4.572.009-3.291.111-4.706,1.81-5,5.029-.521,5.777,1.692,10.22,5.978,13.87,1.681,1.431,5.735,1.431,7.431.028a15.985,15.985,0,0,0,6.018-13.867c-.153-3.164-1.795-4.951-5.019-5.059-1.612-.054-3.227-.009-4.84-.01M67.438,73.1c-1.015,0-1.553,0-2.089,0-4.556.047-5.934,1.722-6.051,6.193a14.886,14.886,0,0,0,5,11.837c2.809,2.668,6.706,2.848,9.3.032q1.365-1.481,2.653-3.031a9.061,9.061,0,0,0-.442-12.115c-2.433-2.605-5.525-3.1-8.378-2.916M15.071,82.731c0,4.558,5.184,10.382,9.233,10.383,3.962,0,9.428-5.894,9.51-10.258a9.364,9.364,0,0,0-9.376-9.665c-5.514-.018-9.374,3.912-9.368,9.539M48.646,53.214q0,1.886,0,3.771c0,1.244-.277,2.537,1.766,2.527,1.763-.009,1.833-.971,1.783-2.248-.051-1.3.321-2.4,1.85-2.435,1.655-.043,2.214,1.061,2.048,2.5-.223,1.932.762,2.209,2.376,2.167,5.7-.148,4.6.661,4.721-4.659.025-1.077.013-2.155,0-3.232-.012-.72.042-1.506-1.1-1.35-1.926.264-2.41-1.084-2.855-2.535s-.987-2.882-1.475-4.325c-.2-.6-.346-1.121-1.214-1.153a7.51,7.51,0,0,0-7.893,7.474c-.033,1.166-.005,2.334-.007,3.5m40.725.01c-.136-1.665.249-3.648-.275-5.6-.833-3.1-3.445-5.233-7.327-5.215-2.53.012-1.629,2.882-2.609,4.265a1.87,1.87,0,0,0-.194.5c-.534,1.617-.837,3.432-3.277,3.083-.977-.14-.827.729-.85,1.31-.039.986-.016,1.975-.016,2.962,0,5.251,0,5.2,5.231,4.97,1.373-.061,1.976-.449,1.858-1.87-.121-1.466.157-2.823,2.023-2.8,1.714.02,1.96,1.307,1.886,2.666-.068,1.273.225,1.986,1.746,2.012,1.736.03,1.867-.909,1.815-2.217-.05-1.254-.01-2.513-.01-4.067m32.885,39.417a9.159,9.159,0,0,1-8.615,4.593,9.246,9.246,0,0,1-8.549-4.555c-.042,3.122.952,5.019,2.651,6.4a4.676,4.676,0,0,1,1.82,4.163c-.1,4.213-.045,4.22,4.329,4.139.714-.013,1.426-.106,2.14-.142,1.527-.079,2.2-.558,1.75-2.337a5.431,5.431,0,0,1,2.033-6.159c1.641-1.263,2.371-3.224,2.442-6.1M65.679,36.032c-.639-.3-.846.422-1.162,1.27-.331.885-.629,1.453.367,2.245,3.548,2.818,4.225,2.859,7.929.205a1.669,1.669,0,0,0,.77-2.364c-.457-1.245-1.05-1.447-2.147-1.138a10.389,10.389,0,0,1-5.757-.218M75.665,7.267c-2.438-4.561-12.105-3.81-13.175.009a53.235,53.235,0,0,0,13.175-.009M70.671,56.791c-.337-.944.869-2.679-1.578-2.738C66.76,54,67.329,55.555,67.4,56.72c.067,1.078-.889,2.747,1.524,2.817,2.34.069,1.615-1.479,1.745-2.746M69.206,50.11c.794.066,1.48.026,1.491-1.2a1.693,1.693,0,1,0-3.38-.033c0,1.474.942,1.22,1.889,1.229" transform="translate(-0.015 -0.026)" fill="#050504"/>
        <path id="Trazado_721872" data-name="Trazado 721872" d="M133.382,129.7c-2.047.442-1.936,2.03-1.935,3.59q.013,14.133,0,28.266a11.939,11.939,0,0,1-.048,2.149c-.346,1.873-1.583,2.315-3,1.032-2.764-2.5-6.365-2.724-9.7-3.658-3.645-1.022-4.214-2.76-1.692-5.627a12.842,12.842,0,0,0,3.15-7.568c.314-3.662.606-7.338.64-11.011a13.347,13.347,0,0,0-13.176-13.537c-1.793-.05-3.591-.07-5.383,0a8.483,8.483,0,0,0-8.486,8.64c.105,5.466.51,10.93.94,16.384a12.2,12.2,0,0,0,3.4,7.447c2.068,2.226,1.467,4.342-1.437,5.145-1.725.477-3.485.827-5.221,1.266a13.162,13.162,0,0,0-4.611,2.114c-.658.479-1.018,1.79-2.058,1.293a2.927,2.927,0,0,1-1.462-2.939q.056-21.4,0-42.8c0-1.5.417-2.006,1.969-2q22.075.078,44.151-.008c1.75-.008,2.11.624,2.066,2.19-.047,1.695-.625,3.759,1.892,4.409q0,2.611,0,5.223" transform="translate(-38.395 -54.332)" fill="#f75225"/>
        <path id="Trazado_721873" data-name="Trazado 721873" d="M11.9,34.509a2.756,2.756,0,0,1-3.071,2.028c-1.882-.057-3.767-.01-5.651-.017C.956,36.512-.011,35.414,0,33.164Q.068,18.23,0,3.3C0,1.058.919,0,3.206,0Q24.33.043,45.454,0c2.282-.006,3.239.983,3.231,3.243-.037,9.956-.057,19.912.013,29.868.019,2.636-1.255,3.435-3.648,3.436-3.748,0-3.747.065-3.756,3.827a15.681,15.681,0,0,1-.047,2.149c-.347,2.416-2.46,3.248-4.293,1.585-2.122-1.927-4.148-3.972-6.085-6.086a4.373,4.373,0,0,0-3.762-1.528c-2.327.115-4.664.01-7,.036-1.484.017-2.671-.344-3.008-2.011.16-1.074.715-2.084,1.8-2.04,5.838.236,12.394-2.121,16.6,4.4.322.5.734,1.245,1.707,1.154,0-.644-.007-1.261,0-1.878.041-3.127.656-3.736,3.794-3.767a10.534,10.534,0,0,1,1.614.011c1.62.236,2.146-.332,2.115-2.04-.111-6.192-.043-12.386-.043-18.58,0-8.382,0-8.382-8.555-7.523Q20.818,4.173,5.5,4.08c-1.022-.007-1.431.374-1.422,1.409q.112,11.818.172,23.637C3.93,32.385,3.931,32.359,7.2,32.4c1.854.022,4.042-.6,4.707,2.113" transform="translate(0 0)" fill="#0b0b0c"/>
        <path id="Trazado_721874" data-name="Trazado 721874" d="M39.654,7.58c8.555-.859,8.555-.859,8.555,7.523,0,6.194-.067,12.388.043,18.58.031,1.708-.494,2.276-2.115,2.04a10.6,10.6,0,0,0-1.614-.011c-3.138.031-3.753.64-3.794,3.767-.008.617,0,1.234,0,1.878-.973.091-1.384-.654-1.707-1.154-4.205-6.52-10.761-4.164-16.6-4.4-1.081-.044-1.637.965-1.8,2.04l-5.2-.009c-.665-2.713-2.853-2.092-4.707-2.113-3.267-.037-3.267-.011-2.943-3.271,8.616,0,17.232-.055,25.847.034,2.372.024,4.205-.639,5.483-2.661l3.454-.1a1.953,1.953,0,0,0,2.151-1.9c.084-1.406-.834-2.069-2.153-2.19-.968-.089-1.94-.116-2.911-.171l-.006-3.128c1.056-.038,2.113-.063,3.168-.117a1.807,1.807,0,0,0,1.879-1.833A1.814,1.814,0,0,0,42.812,18.3c-1.053-.077-2.111-.1-3.167-.15q0-5.287.009-10.574" transform="translate(-3.522 -3.325)" fill="#d9eff6"/>
        <path id="Trazado_721875" data-name="Trazado 721875" d="M50.129,223.64a2.342,2.342,0,0,0-1.978,2.747c.148,1.322-.236,1.937-1.735,1.933-1.533,0-1.78-.708-1.735-1.987.067-1.881.019-3.765.012-5.648,0-1.381-.366-2.633-2-2.629-1.583,0-2.058,1.149-2.038,2.589.026,1.882-.077,3.771.031,5.647.085,1.479-.347,2.032-1.922,2.016q-10.894-.112-21.789,0c-1.672.017-2.2-.544-2.1-2.17.12-1.965.019-3.943.017-5.916,0-1.265-.589-2.137-1.871-2.171-1.422-.037-2.064.858-2.059,2.253.007,2.152-.057,4.306.017,6.455.042,1.224-.5,1.545-1.6,1.532-1.087-.013-1.92-.063-1.9-1.53.065-4.931-.064-9.866.1-14.793.1-2.886,1.765-4.768,4.6-5.6,4.129-1.218,8.206-2.354,12.566-.861a12.146,12.146,0,0,0,7.695-.27c4.4-1.438,8.315.287,12.2,1.676,3.158,1.13,3.6,4.116,3.54,7.169-.033,1.684-.658,3.778,1.957,4.321v5.239M27.788,213.427c1.826-.226,3.53-.358,5.2-.669,1.251-.233,2.2-.973,1.912-2.43-.282-1.414-1.33-1.842-2.652-1.566a21.574,21.574,0,0,1-8.81.011c-1.319-.268-2.375.091-2.7,1.494-.335,1.445.549,2.236,1.833,2.47,1.76.321,3.549.477,5.216.689" transform="translate(-3.447 -94.348)" fill="#01baf2"/>
        <path id="Trazado_721876" data-name="Trazado 721876" d="M86.6,223.646q0-2.62,0-5.239c1.542-.259,2-1.272,1.98-2.709a33.024,33.024,0,0,1,.137-4.292,4.774,4.774,0,0,1,2.435-3.988c3.64-1.678,7.465-3.364,11.54-2.454a28.076,28.076,0,0,0,12.468,0c4.073-.893,7.938.709,11.524,2.5,1.968.98,2.547,3.149,2.556,5.321.018,4.483-.014,8.966.022,13.449.009,1.213-.1,2.022-1.675,2.056-1.714.037-1.888-.82-1.842-2.167.066-1.881,0-3.765.015-5.648.009-1.333-.462-2.4-1.912-2.417-1.6-.024-2.088,1.077-2.061,2.537.035,1.882-.071,3.77.031,5.647.079,1.469-.344,2.052-1.927,2.037-7.352-.071-14.705-.059-22.058-.008-1.4.01-1.9-.444-1.834-1.853.1-1.968,0-3.944.031-5.916.023-1.354-.466-2.387-1.89-2.443-1.613-.063-2.1,1.067-2.084,2.51.017,1.883-.031,3.767.012,5.648.028,1.2-.054,2.081-1.658,2.066-1.383-.012-2-.438-1.85-1.86a2.364,2.364,0,0,0-1.962-2.769M108.9,213.468c1.824-.254,3.689-.434,5.517-.8a2.016,2.016,0,1,0-.827-3.946,23.034,23.034,0,0,1-9.282.006,1.9,1.9,0,0,0-2.464,1.465,1.938,1.938,0,0,0,1.712,2.538c1.742.345,3.523.495,5.345.736" transform="translate(-39.915 -94.354)" fill="#f9be42"/>
        <path id="Trazado_721877" data-name="Trazado 721877" d="M173.052,219.165c0-2.153-.043-4.306.012-6.458a6.159,6.159,0,0,1,4.782-6.328c4.129-1.286,8.223-2.269,12.589-.808,2.609.873,5.388.4,7.963-.381,4.415-1.332,8.268.582,12.173,1.916a4.8,4.8,0,0,1,2.991,4.743c.076,4.931.018,9.865.077,14.8.017,1.4-.712,1.594-1.857,1.595-1.16,0-1.584-.473-1.556-1.609.049-2.062-.014-4.126.017-6.188.02-1.374-.542-2.36-1.939-2.4-1.419-.043-2.021.93-2.017,2.3.007,1.973-.052,3.948.011,5.919.04,1.285-.243,1.994-1.752,1.984q-11.166-.076-22.334,0c-1.284.008-1.749-.416-1.7-1.7.082-1.97,0-3.946.027-5.919.023-1.456-.5-2.584-2.052-2.583-1.581,0-2.039,1.23-2.052,2.624-.016,1.794-.039,3.588,0,5.381.031,1.282-.018,2.252-1.789,2.216-1.645-.033-1.624-.955-1.61-2.106.027-2.332.008-4.664.009-7m20.254-5.7c1.7-.213,3.477-.372,5.227-.679,1.256-.22,2.193-.933,1.936-2.389a1.942,1.942,0,0,0-2.583-1.633,22.215,22.215,0,0,1-9.013-.005,1.955,1.955,0,0,0-2.6,1.617c-.274,1.45.681,2.171,1.918,2.406,1.658.315,3.349.456,5.118.683" transform="translate(-79.757 -94.37)" fill="#f94654"/>
        <path id="Trazado_721878" data-name="Trazado 721878" d="M202.317,135.677c1.613,0,3.228-.044,4.84.01,3.224.108,4.866,1.894,5.019,5.059a15.985,15.985,0,0,1-6.018,13.867c-1.7,1.4-5.75,1.4-7.431-.028-4.287-3.65-6.5-8.093-5.978-13.87.291-3.219,1.706-4.919,5-5.029,1.522-.052,3.047-.009,4.572-.009" transform="translate(-88.808 -62.529)" fill="#017094"/>
        <path id="Trazado_721879" data-name="Trazado 721879" d="M118.1,135.522c2.853-.178,5.944.311,8.378,2.917a9.061,9.061,0,0,1,.441,12.115q-1.284,1.552-2.653,3.031c-2.6,2.816-6.494,2.636-9.3-.032a14.888,14.888,0,0,1-5-11.837c.118-4.471,1.5-6.145,6.051-6.193.537-.005,1.074,0,2.089,0" transform="translate(-50.682 -62.45)" fill="#f9672f"/>
        <path id="Trazado_721880" data-name="Trazado 721880" d="M27.93,145.265c-.006-5.627,3.854-9.557,9.368-9.539a9.364,9.364,0,0,1,9.376,9.665c-.082,4.363-5.548,10.259-9.51,10.258-4.049,0-9.228-5.825-9.233-10.383" transform="translate(-12.874 -62.559)" fill="#017094"/>
        <path id="Trazado_721881" data-name="Trazado 721881" d="M90.2,89.278c0-1.167-.027-2.335.006-3.5A7.509,7.509,0,0,1,98.1,78.3c.868.031,1.01.551,1.214,1.153.489,1.443,1.029,2.87,1.475,4.325s.929,2.8,2.855,2.534c1.137-.156,1.083.63,1.095,1.35.018,1.077.03,2.155,0,3.232-.125,5.32.977,4.51-4.721,4.658-1.614.042-2.6-.235-2.376-2.167.165-1.436-.394-2.54-2.048-2.5-1.528.039-1.9,1.134-1.85,2.435.05,1.277-.02,2.239-1.783,2.247-2.042.01-1.764-1.284-1.766-2.527s0-2.514,0-3.77" transform="translate(-41.571 -36.089)" fill="#067daa"/>
        <path id="Trazado_721882" data-name="Trazado 721882" d="M153.312,89.439c0,1.555-.039,2.813.01,4.068.052,1.308-.079,2.247-1.815,2.217-1.521-.026-1.815-.74-1.746-2.012.073-1.358-.172-2.646-1.886-2.666-1.866-.022-2.143,1.335-2.023,2.8.118,1.422-.485,1.809-1.859,1.87-5.233.232-5.232.281-5.231-4.97,0-.988-.024-1.976.015-2.962.023-.581-.127-1.45.85-1.31,2.44.349,2.743-1.466,3.277-3.083a1.879,1.879,0,0,1,.194-.5c.981-1.383.079-4.253,2.609-4.264,3.883-.018,6.494,2.115,7.327,5.214.525,1.95.139,3.933.276,5.6" transform="translate(-63.956 -36.241)" fill="#067daa"/>
        <path id="Trazado_721883" data-name="Trazado 721883" d="M114.588,39.867a6.8,6.8,0,0,1-3.033-5.129c-.339-2.934-.521-5.894-.6-8.847-.09-3.4,3.314-6.105,6.375-4.7a6.685,6.685,0,0,0,6.026-.126c.341,2.537-.505,4.987-.557,7.5-2.567-1.047-3.337-.637-3.708,2-.082.585.133,1.246-.626,1.586a1.872,1.872,0,0,0-1.186,2.554c.487,1.41,1.713,1.307,2.851,1.376-1.25,2.139-3.355,3.027-5.544,3.793" transform="translate(-51.142 -9.592)" fill="#faeae2"/>
        <path id="Trazado_721884" data-name="Trazado 721884" d="M125.908,28.753c.052-2.508.9-4.958.557-7.5,4.1-.267,6.1,1.571,5.937,5.565-.1,2.505-.284,5.01-.509,7.507a8.117,8.117,0,0,1-5.258,7.189c-3.182,1.3-6.295,1.078-8.94-1.457,2.189-.766,4.294-1.655,5.544-3.793,3.08-1.671,3.719-3.468,2.669-7.515" transform="translate(-54.248 -9.786)" fill="#fadbcb"/>
        <path id="Trazado_721885" data-name="Trazado 721885" d="M212.083,171.8c-.071,2.879-.8,4.84-2.442,6.1a5.432,5.432,0,0,0-2.033,6.158c.454,1.779-.222,2.259-1.749,2.337-.714.037-1.426.13-2.14.143-4.374.081-4.433.074-4.329-4.14a4.674,4.674,0,0,0-1.82-4.162c-1.7-1.383-2.693-3.279-2.65-6.4a10.338,10.338,0,0,0,17.164-.037" transform="translate(-89.842 -79.189)" fill="#f8ab9a"/>
        <path id="Trazado_721886" data-name="Trazado 721886" d="M125.013,176.572c3.742.184,7.364.06,9.4-4.159a5.887,5.887,0,0,1-2.122,5.781,5.146,5.146,0,0,0-2.031,5.639c.579,2.477-.6,2.933-2.6,2.975a13.744,13.744,0,0,1-3.727-.157,32.172,32.172,0,0,1,1.077-10.079" transform="translate(-57.097 -79.469)" fill="#f8ab9a"/>
        <path id="Trazado_721887" data-name="Trazado 721887" d="M42.53,176.25c3.745.189,7.343-.005,9.624-4.551.241,3.067-.676,5-2.29,6.218a5.142,5.142,0,0,0-1.96,5.671c.507,2.35-.54,2.833-2.471,2.868a10.753,10.753,0,0,1-3.462-.131c.12-3.362-.3-6.754.558-10.075" transform="translate(-19.345 -79.14)" fill="#f8ab9a"/>
        <path id="Trazado_721888" data-name="Trazado 721888" d="M120.546,66.733a10.389,10.389,0,0,0,5.757.218c1.1-.309,1.689-.107,2.147,1.138a1.669,1.669,0,0,1-.77,2.364c-3.7,2.653-4.382,2.613-7.929-.205-1-.791-.7-1.36-.367-2.245.316-.848.523-1.571,1.162-1.27" transform="translate(-54.882 -30.727)" fill="#f2c3b5"/>
        <path id="Trazado_721889" data-name="Trazado 721889" d="M36.521,176.271c-.862,3.321-.438,6.713-.558,10.075-2,.195-3.006-.262-2.394-2.668a5.047,5.047,0,0,0-1.976-5.688c-1.756-1.328-2.45-3.4-2.66-6.246,2.3,2.639,4.109,5.142,7.588,4.528" transform="translate(-13.336 -79.161)" fill="#f2c3b5"/>
        <path id="Trazado_721890" data-name="Trazado 721890" d="M119.586,176.5a32.172,32.172,0,0,0-1.077,10.079c-1.694.142-2.457-.383-2.077-2.295.49-2.467.106-4.638-2.177-6.38-1.541-1.175-2.3-3.083-2.135-5.65,2.186,2.42,3.991,4.967,7.465,4.245" transform="translate(-51.669 -79.396)" fill="#f2c3b5"/>
        <path id="Trazado_721891" data-name="Trazado 721891" d="M129.068,10.745a53.23,53.23,0,0,1-13.174.009c1.069-3.819,10.736-4.57,13.174-.009" transform="translate(-53.418 -3.503)" fill="#f9be42"/>
        <path id="Trazado_721892" data-name="Trazado 721892" d="M128.16,102.959c-.13,1.267.595,2.815-1.745,2.746-2.413-.071-1.457-1.739-1.524-2.817-.072-1.165-.642-2.724,1.691-2.667,2.447.059,1.241,1.793,1.578,2.738" transform="translate(-57.504 -46.193)" fill="#f9be42"/>
        <path id="Trazado_721893" data-name="Trazado 721893" d="M126.735,90.346c-.948-.009-1.894.245-1.889-1.229a1.693,1.693,0,1,1,3.38.033c-.011,1.223-.7,1.263-1.491,1.2" transform="translate(-57.545 -40.261)" fill="#f9be42"/>
        <path id="Trazado_721894" data-name="Trazado 721894" d="M39.624,7.744q0,5.288-.009,10.574c-3.658.036-7.316.085-10.975.1-1.493.006-2.811.339-2.718,2.133.082,1.6,1.316,1.873,2.716,1.868,3.658-.012,7.316.051,10.975.084q0,1.564.007,3.128-7.227.072-14.452.14c-1.552.012-3.041.265-2.958,2.214.075,1.773,1.5,1.92,2.944,1.921,4.641,0,9.283.051,13.924.082-1.278,2.023-3.112,2.686-5.483,2.661-8.616-.089-17.232-.035-25.848-.034Q7.667,20.8,7.575,8.978c-.01-1.035.4-1.416,1.422-1.409q15.314.11,30.628.175M22.618,10.995c-3.041,0-6.083.01-9.124,0-1.451-.006-2.513.473-2.445,2.114.062,1.514,1.151,1.843,2.443,1.842,5.814,0,11.629-.017,17.444.011,1.44.007,2.625-.443,2.622-1.988s-1.169-2.012-2.619-1.989c-2.772.044-5.546.013-8.32.015m-5.93,11.393c1.25,0,2.5.051,3.75-.015a1.842,1.842,0,0,0,1.934-2.079,1.756,1.756,0,0,0-1.905-1.816c-2.5-.046-5-.054-7.5,0a1.775,1.775,0,0,0-1.926,2.055,1.8,1.8,0,0,0,1.9,1.843c1.247.056,2.5.013,3.75.015" transform="translate(-3.491 -3.489)" fill="#ecf5f9"/>
        <path id="Trazado_721895" data-name="Trazado 721895" d="M51.587,45.43c-4.641-.031-9.283-.08-13.924-.082-1.446,0-2.869-.148-2.944-1.921-.083-1.949,1.406-2.2,2.958-2.214q7.227-.057,14.452-.14c.97.055,1.943.082,2.91.171,1.319.121,2.237.784,2.153,2.19a1.953,1.953,0,0,1-2.151,1.9l-3.454.1" transform="translate(-16.001 -18.932)" fill="#0b0b0c"/>
        <path id="Trazado_721896" data-name="Trazado 721896" d="M55.3,31.692c-3.658-.033-7.317-.1-10.975-.084-1.4,0-2.633-.271-2.716-1.868-.093-1.794,1.225-2.127,2.718-2.133,3.659-.015,7.317-.064,10.975-.1,1.056.048,2.113.073,3.166.15a1.814,1.814,0,0,1,1.879,2.084,1.807,1.807,0,0,1-1.878,1.833c-1.056.054-2.113.079-3.169.117" transform="translate(-19.175 -12.679)" fill="#050504"/>
        <path id="Trazado_721897" data-name="Trazado 721897" d="M39.067,216.839c-1.667-.212-3.457-.369-5.216-.689-1.285-.235-2.168-1.025-1.833-2.47.326-1.4,1.381-1.762,2.7-1.494a21.575,21.575,0,0,0,8.81-.011c1.322-.276,2.37.152,2.652,1.566.29,1.457-.66,2.2-1.912,2.43-1.671.311-3.375.443-5.2.669" transform="translate(-14.725 -97.76)" fill="#050504"/>
        <path id="Trazado_721898" data-name="Trazado 721898" d="M121.872,216.854c-1.822-.241-3.6-.391-5.345-.736a1.938,1.938,0,0,1-1.712-2.538,1.9,1.9,0,0,1,2.464-1.465,23.033,23.033,0,0,0,9.282-.006,2.016,2.016,0,1,1,.827,3.946c-1.828.364-3.693.544-5.517.8" transform="translate(-52.883 -97.74)" fill="#0b0b0c"/>
        <path id="Trazado_721899" data-name="Trazado 721899" d="M204.581,216.844c-1.769-.227-3.46-.368-5.118-.683-1.237-.235-2.192-.957-1.918-2.406a1.955,1.955,0,0,1,2.6-1.617,22.216,22.216,0,0,0,9.013.005,1.942,1.942,0,0,1,2.583,1.633c.257,1.456-.68,2.169-1.936,2.389-1.75.307-3.526.465-5.227.679" transform="translate(-91.031 -97.746)" fill="#050504"/>
        <path id="Trazado_721900" data-name="Trazado 721900" d="M128.082,34.727c1.05,4.046.411,5.844-2.669,7.515-1.139-.07-2.364.034-2.851-1.377a1.872,1.872,0,0,1,1.185-2.554c.76-.34.544-1,.626-1.585.371-2.636,1.141-3.045,3.708-2" transform="translate(-56.423 -15.761)" fill="#0b0b0c"/>
        <path id="Trazado_721901" data-name="Trazado 721901" d="M25.585,13.91c2.773,0,5.547.031,8.32-.014,1.45-.023,2.615.458,2.618,1.99s-1.182,1.995-2.621,1.988c-5.814-.027-11.629-.016-17.444-.011-1.292,0-2.381-.328-2.443-1.842-.067-1.641.994-2.121,2.446-2.114,3.041.014,6.083,0,9.124,0" transform="translate(-6.458 -6.405)" fill="#050504"/>
        <path id="Trazado_721902" data-name="Trazado 721902" d="M19.648,31.681c-1.25,0-2.5.042-3.75-.013A1.8,1.8,0,0,1,14,29.824a1.775,1.775,0,0,1,1.926-2.055c2.5-.051,5-.043,7.5,0a1.756,1.756,0,0,1,1.905,1.816,1.843,1.843,0,0,1-1.934,2.08c-1.247.065-2.5.014-3.75.013" transform="translate(-6.452 -12.783)" fill="#050504"/>
      </g>
    </g>
  </g>
</svg>
