<svg xmlns="http://www.w3.org/2000/svg" xmlns:xlink="http://www.w3.org/1999/xlink" width="169" height="169" viewBox="0 0 169 169">
  <defs>
    <clipPath id="clip-path">
      <rect id="Rect치ngulo_351449" data-name="Rect치ngulo 351449" width="96.829" height="130.831" fill="none"/>
    </clipPath>
  </defs>
  <g id="Grupo_1018506" data-name="Grupo 1018506" transform="translate(6461.334 4174.756)">
    <g id="Grupo_1018368" data-name="Grupo 1018368" transform="translate(-7549.334 -6232.755)">
      <g id="Grupo_159184" data-name="Grupo 159184" transform="translate(1088 2057.999)">
        <path id="Uni칩n_12" data-name="Uni칩n 12" d="M84.5,0A84.5,84.5,0,1,1,0,84.5,84.5,84.5,0,0,1,84.5,0Z" transform="translate(0 0)" fill="#cda7ff"/>
      </g>
    </g>
    <g id="Grupo_1018463" data-name="Grupo 1018463" transform="translate(-6425.266 -4157)">
      <g id="Grupo_1018462" data-name="Grupo 1018462" clip-path="url(#clip-path)">
        <path id="Trazado_722021" data-name="Trazado 722021" d="M23.918,151.975l-4.165-.033c-.472-1.474-1.6-1.812-2.991-1.8-2.719.025-5.454-.166-8.154.059-2.322.193-2.778-.623-2.77-2.822.085-22.525.052-45.05.052-67.576,0-4.93-.016-9.86.009-14.791.007-1.442-.138-2.737-1.784-3.241q-.014-1.939-.029-3.878c1.435-.506,1.83-1.607,1.794-3.013-.041-1.615.122-3.247-.042-4.847-.2-2.009.489-2.562,2.516-2.553,18.463.079,36.926.044,55.389.059.633,0,1.334-.237,2.088.451-1.683,1.332-1.547,3.22-1.546,5.094q.015,27.061.006,54.123c0,7.489.024,14.977-.016,22.466-.01,1.824.305,3.553,2.057,4.313a2.3,2.3,0,0,1,1.552,2.72,15.348,15.348,0,0,0,.037,2.8,5.929,5.929,0,0,0,5.856,5.314,5.835,5.835,0,0,0,5.936-5.192,19.28,19.28,0,0,0,.078-3.313,1.834,1.834,0,0,1,1.237-2.154,3.8,3.8,0,0,0,2.349-3.882c0-8.169-.011-16.339.022-24.508.005-1.363-.436-2.281-1.812-2.618q.014-2.16.026-4.321c1.759-.576,1.789-1.986,1.786-3.5q-.035-17.585,0-35.171c0-.851-.2-1.767.505-2.533.248,5.048.257,10.08.243,15.111,0,1.369.121,2.719,1.873,2.728s1.9-1.321,1.895-2.7c-.017-5.437-.059-10.875.02-16.311.031-2.118-.659-3.241-2.923-3.09-.694.047-1.72.283-1.6-.972a8.488,8.488,0,0,0-1.342-4.7h7.3V150c-9.6.056-19.205.137-28.808.162-11.055.028-22.11.009-33.166,0-1.484,0-2.966-.044-3.471,1.811m12.357-23.5q-10.314,0-20.629-.006c-1.491,0-3.207-.064-3.243,1.908s1.684,2.008,3.177,2.008q20.63,0,41.259,0c1.508,0,3.168-.062,3.109-2.073-.054-1.828-1.617-1.849-3.043-1.846q-10.314.023-20.629.007m-2.36-47.522q9.422,0,18.844.005c1.495,0,3.2.041,3.228-1.931s-1.676-2.012-3.176-2.012H15.633c-1.487,0-3.2-.01-3.226,1.961s1.669,1.984,3.174,1.981q9.168-.019,18.335-.005m.566,11.276q-9.422,0-18.845,0c-1.492,0-3.2-.048-3.232,1.927s1.673,2.016,3.172,2.016q18.591,0,37.18,0c1.49,0,3.2,0,3.23-1.961.026-1.982-1.663-1.985-3.17-1.982-6.112.014-12.224.006-18.335.006M34.3,84.951c-6.455,0-12.911-.028-19.366.016-2.164.014-3.125,1.293-2.268,2.773.643,1.11,1.7.952,2.7.952q18.729.009,37.458.01c1.5,0,3.2.06,3.149-1.964-.042-1.837-1.664-1.8-3.071-1.794q-9.3.018-18.6.007m3.377-11.639c5.1,0,10.2-.016,15.3.01,1.453.007,2.973-.088,3.02-1.888s-1.465-2.027-2.922-2.027q-15.3.008-30.608.01c-1.469,0-2.967.247-2.894,2.052s1.6,1.865,3.052,1.858c5.017-.027,10.033-.011,15.049-.014M28.85,140.3c4.5,0,9-.016,13.5.009,1.459.008,2.953-.113,2.917-1.953-.033-1.65-1.429-1.812-2.811-1.809q-13.628.031-27.256,0c-1.392,0-2.774.192-2.792,1.832-.02,1.837,1.488,1.938,2.941,1.931,4.5-.025,9-.009,13.5-.009m-3.1-36.851c3.394,0,6.788-.019,10.181.009,1.378.012,2.717-.156,2.8-1.827.088-1.729-1.27-1.98-2.637-1.98q-10.563,0-21.126.007c-1.306,0-2.535.325-2.559,1.827-.026,1.634,1.21,1.993,2.648,1.979,3.563-.034,7.127-.011,10.69-.015m-4.564-37.8h7.123c1.309,0,2.173-.655,2.159-1.949A1.808,1.808,0,0,0,28.424,61.9q-6.994-.019-13.989,0A1.805,1.805,0,0,0,12.4,63.714c-.007,1.3.863,1.94,2.171,1.939q3.307,0,6.614,0" transform="translate(-1.997 -23.215)" fill="#d9dce5"/>
        <path id="Trazado_722022" data-name="Trazado 722022" d="M21.923,128.759c.5-1.855,1.986-1.812,3.47-1.811,11.056.006,22.111.025,33.166,0,9.6-.025,19.2-.105,28.807-.162.674.053,1.347.144,2.021.151,3.58.038,3.581.031,3.581-3.61V29.469c0-5.541,0-5.541-5.6-4.989h-7.3a8.483,8.483,0,0,1,1.342,4.7c-.118,1.255.908,1.019,1.6.972,2.263-.15,2.953.973,2.923,3.09-.08,5.436-.037,10.874-.02,16.31,0,1.381-.146,2.712-1.895,2.7s-1.877-1.359-1.873-2.728c.014-5.031.006-10.063-.243-15.112-.705.767-.5,1.682-.5,2.533q-.024,17.586,0,35.171c0,1.516-.028,2.926-1.786,3.5-1.806-.394-2.03-1.675-2.024-3.272.04-11.109.021-22.219.021-33.329,0-5.338,0-5.338-5.557-4.835-.925-.06-1.85-.173-2.774-.17-3.731.014-3.213-.333-3.217,3.287q-.025,20.251-.007,40.5c0,5.956,0,5.956,5.975,5.485,2.254-.284,5.492,1.788,6.054-2.587.074-.574.933-.621,1.5-.761,1.377.339,1.818,1.257,1.813,2.62-.033,8.169-.021,16.339-.021,24.508a3.8,3.8,0,0,1-2.349,3.882,1.833,1.833,0,0,0-1.237,2.154,19.331,19.331,0,0,1-.079,3.313,5.835,5.835,0,0,1-5.936,5.192,5.929,5.929,0,0,1-5.856-5.314,15.35,15.35,0,0,1-.037-2.8,2.3,2.3,0,0,0-1.552-2.72c-1.752-.76-2.067-2.488-2.057-4.313.04-7.489.016-14.977.016-22.466q0-27.061-.006-54.123c0-1.875-.137-3.762,1.546-5.094-.754-.688-1.455-.451-2.088-.451-18.463-.015-36.926.02-55.388-.059-2.027-.009-2.721.544-2.516,2.553.163,1.6,0,3.231.041,4.847.035,1.406-.36,2.507-1.794,3.013C.509,34.3,0,33.294,0,31.69Q.084,17.272.011,2.853C0,.749.924.014,2.952.016Q48.369.06,93.785,0c2.679-.005,3.051,1.364,3.046,3.531q-.053,25.647-.019,51.295,0,35.982,0,71.965c0,3.813-.2,4.006-4.044,4.006q-33.68,0-67.36.012c-1.609,0-3.133.016-3.484-2.049m55.615-99.1c.364-1.517-.19-2.148-1.776-2-1.229.117-2.473.068-3.71.094-1.594-.038-3.189-.063-4.783-.118-1.037-.036-1.239.56-1.263,1.442-.026.94.472,1.14,1.254,1.12,1.6-.04,3.191-.065,4.787-.1l5.1-.027c.333.051.482-.072.4-.418M71.993,107.47c.922.061,1.854.055,2.764.2,2.313.358,3.018-.521,2.972-2.882-.04-2.1-.565-2.918-2.677-2.6a26.484,26.484,0,0,1-3.033.119,21.641,21.641,0,0,1-3.036-.1c-2.546-.432-3.1.662-3,3.046.081,1.9.59,2.62,2.473,2.391,1.167-.142,2.355-.116,3.533-.165M72,98.3c5.622.6,5.622.6,5.622-4.762V92.515c0-5.442,0-5.442-5.593-5.089-5.971-.379-5.971-.379-5.971,5.416V93.1c0,5.807,0,5.807,5.942,5.2M87.35,20.379c1.187.027,2.386-.04,3.56.1,1.728.212,2.152-.517,2.09-2.138-.117-3.054-.033-6.115-.033-9.173,0-5.526,0-5.526-5.6-5.114A1.2,1.2,0,0,0,87.117,4Q46.434,3.963,5.752,3.9C4.257,3.9,3.876,4.48,3.9,5.858c.062,4,.147,8-.03,11.988-.1,2.14.541,2.679,2.669,2.667,16.07-.094,32.14-.051,48.21-.051,2.976,0,5.952-.007,8.928,0,.885,0,1.475-.02,1.771-1.216.905-3.661,3.131-5.462,6.338-5.489,3.247-.027,5.41,1.7,6.449,5.361.289,1.019.7,1.388,1.727,1.356,2.463-.077,4.928-.071,7.392-.1M71.47,23.932c1.693.019,3.452.559,3.193-2.214-.188-2.007-.274-3.849-2.724-4.146C70.157,17.355,69.2,18.954,69,21.524c-.168,2.128.646,2.8,2.471,2.408m2.588,89.856c.229-1.427.105-2.594-2.256-2.475-1.8.091-2.4.592-2.213,2.337.182,1.716-.339,3.956,2.3,3.985,2.27.025,2.174-1.914,2.174-3.846" transform="translate(-0.002 0.001)" fill="#050606"/>
        <path id="Trazado_722023" data-name="Trazado 722023" d="M2.116,75.445c1.645.5,1.791,1.8,1.784,3.241-.025,4.931-.009,9.861-.009,14.791,0,22.524.033,45.05-.052,67.575-.008,2.2.448,3.014,2.77,2.822,2.7-.224,5.435-.033,8.154-.058,1.388-.012,2.52.325,2.992,1.8-.341,1.606-1.351,2.133-2.953,2.1q-5.986-.113-11.977-.006C.718,167.748,0,166.783,0,164.764q.044-43.2,0-86.406c0-1.589.451-2.637,2.116-2.913" transform="translate(0 -36.888)" fill="#0d0d0e"/>
        <path id="Trazado_722024" data-name="Trazado 722024" d="M170.948,47.678c5.6-.552,5.6-.552,5.6,4.99v93.855c0,3.641,0,3.648-3.58,3.61-.674-.007-1.347-.1-2.021-.15q0-51.152,0-102.3" transform="translate(-83.583 -23.198)" fill="#caccd8"/>
        <path id="Trazado_722025" data-name="Trazado 722025" d="M140.969,66.694c5.557-.5,5.557-.5,5.557,4.835,0,11.11.019,22.22-.02,33.33-.006,1.6.219,2.878,2.024,3.272q-.014,2.161-.027,4.321c-.57.14-1.428.186-1.5.76-.562,4.375-3.8,2.3-6.054,2.588q.011-24.553.022-49.105" transform="translate(-68.915 -32.507)" fill="#fbba53"/>
        <path id="Trazado_722026" data-name="Trazado 722026" d="M44.233,205.954q10.314,0,20.629-.007c1.426,0,2.989.018,3.043,1.845.059,2.011-1.6,2.073-3.109,2.073H23.538c-1.493,0-3.213-.026-3.177-2.009s1.751-1.911,3.242-1.908q10.315.019,20.629.006" transform="translate(-9.955 -100.696)" fill="#0e0e0e"/>
        <path id="Trazado_722027" data-name="Trazado 722027" d="M41.877,109.206q-9.168,0-18.335.005c-1.505,0-3.2,0-3.174-1.981s1.739-1.961,3.226-1.961H60.773c1.5,0,3.2.039,3.176,2.012s-1.734,1.934-3.228,1.931q-9.422-.018-18.844-.005" transform="translate(-9.959 -51.47)" fill="#0e0e0f"/>
        <path id="Trazado_722028" data-name="Trazado 722028" d="M42.44,135.031q9.168,0,18.335-.006c1.507,0,3.2,0,3.17,1.982-.026,1.965-1.74,1.961-3.229,1.961q-18.591,0-37.181,0c-1.5,0-3.2-.041-3.172-2.016s1.74-1.929,3.232-1.926q9.422.017,18.845,0" transform="translate(-9.956 -66.019)" fill="#0e0e0f"/>
        <path id="Trazado_722029" data-name="Trazado 722029" d="M42.21,120.792q9.3,0,18.6-.006c1.407,0,3.029-.043,3.071,1.794.047,2.024-1.653,1.965-3.148,1.964q-18.729-.015-37.459-.01c-1,0-2.057.158-2.7-.952-.857-1.48.1-2.759,2.268-2.773,6.455-.043,12.911-.015,19.366-.016" transform="translate(-9.908 -59.056)" fill="#010101"/>
        <path id="Trazado_722030" data-name="Trazado 722030" d="M52.494,94.292c-5.017,0-10.033-.015-15.049.012-1.447.008-2.979-.063-3.052-1.858s1.425-2.051,2.894-2.051q15.3,0,30.608-.01c1.458,0,2.97.219,2.923,2.027s-1.567,1.9-3.02,1.888c-5.1-.026-10.2-.01-15.3-.008" transform="translate(-16.815 -44.193)" fill="#0e0e0f"/>
        <path id="Trazado_722031" data-name="Trazado 722031" d="M36.812,225.515c-4.5,0-9-.016-13.5.009-1.453.008-2.961-.094-2.941-1.931.018-1.64,1.4-1.835,2.792-1.832q13.628.034,27.256,0c1.381,0,2.778.158,2.81,1.809.036,1.839-1.458,1.96-2.917,1.952-4.5-.025-9-.009-13.5-.009" transform="translate(-9.96 -108.428)" fill="#010101"/>
        <path id="Trazado_722032" data-name="Trazado 722032" d="M33.714,153.366c-3.564,0-7.127-.021-10.69.013-1.438.014-2.674-.345-2.648-1.979.024-1.5,1.254-1.827,2.559-1.827q10.564,0,21.126-.007c1.368,0,2.725.251,2.637,1.98-.086,1.671-1.424,1.838-2.8,1.827-3.393-.029-6.787-.009-10.181-.007" transform="translate(-9.962 -73.129)" fill="#010101"/>
        <path id="Trazado_722033" data-name="Trazado 722033" d="M29.141,79.435q-3.307,0-6.614,0c-1.308,0-2.178-.643-2.171-1.939a1.805,1.805,0,0,1,2.035-1.816q6.994-.024,13.989,0a1.808,1.808,0,0,1,2.043,1.807c.014,1.295-.85,1.949-2.159,1.949H29.141" transform="translate(-9.953 -36.998)" fill="#010101"/>
        <path id="Trazado_722034" data-name="Trazado 722034" d="M91.036,24.112c-2.464.028-4.929.022-7.392.1-1.028.032-1.438-.337-1.727-1.356-1.038-3.664-3.2-5.388-6.449-5.361-3.206.027-5.432,1.828-6.337,5.489-.3,1.2-.886,1.219-1.771,1.216-2.976-.011-5.952,0-8.928,0-16.07,0-32.141-.042-48.21.051-2.128.013-2.764-.527-2.669-2.667.177-3.989.092-7.992.03-11.988-.021-1.378.36-1.96,1.855-1.957q40.682.088,81.365.1a1.21,1.21,0,0,1,.249.053q-.008,8.161-.016,16.322M11.7,15.824a5.767,5.767,0,0,0,5.609,5.728,5.86,5.86,0,0,0,5.811-5.825A5.865,5.865,0,0,0,17.214,10,5.77,5.77,0,0,0,11.7,15.824m15.319-.077a5.772,5.772,0,0,0,5.534,5.8A5.866,5.866,0,0,0,38.443,15.8,5.863,5.863,0,0,0,32.611,10a5.769,5.769,0,0,0-5.59,5.749m20.9,5.806a5.775,5.775,0,0,0,.221-11.547,5.776,5.776,0,0,0-.221,11.547" transform="translate(-3.689 -3.733)" fill="#5691c6"/>
        <path id="Trazado_722035" data-name="Trazado 722035" d="M135.237,66.728q-.011,24.552-.022,49.105c-5.976.471-5.976.471-5.976-5.485q0-20.251.007-40.5c0-3.62-.515-3.273,3.217-3.287.924,0,1.85.109,2.775.169" transform="translate(-63.183 -32.541)" fill="#f6ce56"/>
        <path id="Trazado_722036" data-name="Trazado 722036" d="M170.914,24.11q.008-8.161.016-16.322c5.6-.412,5.6-.412,5.6,5.114,0,3.058-.083,6.119.033,9.173.062,1.622-.361,2.351-2.09,2.139-1.173-.144-2.372-.076-3.56-.1" transform="translate(-83.567 -3.731)" fill="#4c86bc"/>
        <path id="Trazado_722037" data-name="Trazado 722037" d="M135.194,181.807c-5.942.607-5.942.607-5.942-5.2v-.253c0-5.8,0-5.8,5.971-5.416l-.029,10.869" transform="translate(-63.196 -83.51)" fill="#4cbeec"/>
        <path id="Trazado_722038" data-name="Trazado 722038" d="M140.878,181.816l.029-10.869c5.593-.353,5.593-.353,5.593,5.089v1.019c0,5.364,0,5.364-5.622,4.762" transform="translate(-68.881 -83.52)" fill="#39abd8"/>
        <path id="Trazado_722039" data-name="Trazado 722039" d="M137.458,40.725c-1.824.39-2.639-.28-2.471-2.408.2-2.571,1.158-4.169,2.94-3.954,2.45.3,2.536,2.139,2.724,4.147.26,2.774-1.5,2.234-3.192,2.214" transform="translate(-65.99 -16.792)" fill="#ec4523"/>
        <path id="Trazado_722040" data-name="Trazado 722040" d="M135.108,205.157c-1.179.05-2.366.024-3.533.166-1.883.228-2.392-.487-2.473-2.391-.1-2.384.45-3.479,3-3.047a21.562,21.562,0,0,0,3.035.1q-.012,2.586-.026,5.17" transform="translate(-63.117 -97.686)" fill="#f6ce56"/>
        <path id="Trazado_722041" data-name="Trazado 722041" d="M140.865,205.167q.013-2.585.026-5.17a26.369,26.369,0,0,0,3.033-.119c2.113-.315,2.638.5,2.678,2.6.045,2.361-.66,3.24-2.972,2.882-.91-.141-1.842-.135-2.764-.2" transform="translate(-68.875 -97.696)" fill="#e2ab4b"/>
        <path id="Trazado_722042" data-name="Trazado 722042" d="M140.6,220.276c0,1.932.1,3.871-2.174,3.846-2.635-.029-2.113-2.269-2.3-3.985-.185-1.744.415-2.246,2.213-2.337,2.361-.119,2.485,1.048,2.256,2.475" transform="translate(-66.544 -106.488)" fill="#4c86bc"/>
        <path id="Trazado_722043" data-name="Trazado 722043" d="M135.19,56.555c-1.6.031-3.191.056-4.787.1-.781.02-1.28-.18-1.254-1.12.025-.882.226-1.478,1.264-1.442,1.594.055,3.189.08,4.783.118l-.006,2.349" transform="translate(-63.146 -26.445)" fill="#e2ab4b"/>
        <path id="Trazado_722044" data-name="Trazado 722044" d="M140.97,56.559l.006-2.349c1.237-.025,2.481.023,3.71-.094,1.586-.151,2.14.481,1.775,2l-.4.418-5.1.027" transform="translate(-68.926 -26.449)" fill="#fbba53"/>
        <path id="Trazado_722045" data-name="Trazado 722045" d="M150.942,58.463l.4-.418c.087.346-.062.469-.4.418" transform="translate(-73.802 -28.381)" fill="#e2ab4b"/>
        <path id="Trazado_722046" data-name="Trazado 722046" d="M15.679,18.087a5.77,5.77,0,0,1,5.512-5.821,5.776,5.776,0,1,1,.1,11.549,5.767,5.767,0,0,1-5.609-5.728m5.551,1.786c1.176-.025,1.846-.577,1.911-1.67a1.652,1.652,0,0,0-1.75-1.981,1.7,1.7,0,0,0-1.876,1.652,1.756,1.756,0,0,0,1.715,2" transform="translate(-7.666 -5.995)" fill="#050606"/>
        <path id="Trazado_722047" data-name="Trazado 722047" d="M45.653,18.008a5.768,5.768,0,0,1,5.59-5.748,5.776,5.776,0,1,1-.056,11.551,5.772,5.772,0,0,1-5.534-5.8m7.514.027c-.091-.94-.487-1.719-1.631-1.806a1.717,1.717,0,0,0-2.048,1.725,1.7,1.7,0,0,0,1.879,1.9c1.127.01,1.654-.676,1.8-1.817" transform="translate(-22.322 -5.994)" fill="#050606"/>
        <path id="Trazado_722048" data-name="Trazado 722048" d="M81.217,23.818a5.776,5.776,0,0,1,.221-11.547,5.775,5.775,0,0,1-.221,11.547m.182-3.953a1.67,1.67,0,0,0,1.718-1.823,1.654,1.654,0,0,0-1.93-1.806,1.684,1.684,0,0,0-1.717,1.8A1.749,1.749,0,0,0,81.4,19.865" transform="translate(-36.988 -5.999)" fill="#050606"/>
        <path id="Trazado_722049" data-name="Trazado 722049" d="M24.892,23.66a1.756,1.756,0,0,1-1.715-2,1.7,1.7,0,0,1,1.876-1.652,1.652,1.652,0,0,1,1.75,1.981c-.065,1.093-.735,1.645-1.911,1.67" transform="translate(-11.328 -9.783)" fill="#ec4523"/>
        <path id="Trazado_722050" data-name="Trazado 722050" d="M56.834,21.825c-.146,1.141-.673,1.828-1.8,1.817a1.7,1.7,0,0,1-1.879-1.9A1.717,1.717,0,0,1,55.2,20.019c1.144.087,1.54.866,1.631,1.806" transform="translate(-25.988 -9.784)" fill="#f6ce56"/>
        <path id="Trazado_722051" data-name="Trazado 722051" d="M85.055,23.656a1.749,1.749,0,0,1-1.928-1.826,1.684,1.684,0,0,1,1.717-1.8,1.654,1.654,0,0,1,1.93,1.806,1.67,1.67,0,0,1-1.718,1.823" transform="translate(-40.644 -9.789)" fill="#4cbeec"/>
      </g>
    </g>
  </g>
</svg>
