<svg xmlns="http://www.w3.org/2000/svg" xmlns:xlink="http://www.w3.org/1999/xlink" width="169" height="169" viewBox="0 0 169 169">
  <defs>
    <clipPath id="clip-path">
      <rect id="Rect치ngulo_351315" data-name="Rect치ngulo 351315" width="121.821" height="132.425" fill="none"/>
    </clipPath>
  </defs>
  <g id="Grupo_1018500" data-name="Grupo 1018500" transform="translate(7141.499 6032.049)">
    <g id="Grupo_1018336" data-name="Grupo 1018336" transform="translate(-7526.5 -8090.049)">
      <g id="Grupo_159182" data-name="Grupo 159182" transform="translate(385.001 2058)">
        <path id="Uni칩n_12" data-name="Uni칩n 12" d="M84.5,0A84.5,84.5,0,1,1,0,84.5,84.5,84.5,0,0,1,84.5,0Z" transform="translate(0 0)" fill="#cda7ff"/>
      </g>
    </g>
    <g id="Grupo_1018338" data-name="Grupo 1018338" transform="translate(-7117.909 -6016.367)">
      <g id="Grupo_1018337" data-name="Grupo 1018337" clip-path="url(#clip-path)">
        <path id="Trazado_721492" data-name="Trazado 721492" d="M104.637,42.635c10.13-.064,20.259-.168,30.389-.155,1.878,0,2.746-.206,2.8-2.49.081-3.16,3.245-4.541,5.783-2.633,4.9,3.682,9.709,7.484,14.464,11.349,2.019,1.64,1.968,4.053-.091,5.724-4.69,3.806-9.424,7.562-14.243,11.2-2.748,2.075-5.98.522-5.947-2.968.022-2.409-.871-2.679-2.916-2.637-6.219.127-12.443.046-18.665.046H113.51c.578,1.09,1.377,1.068,1.978,1.3a49.084,49.084,0,0,1,31.764,51.023c-.184,1.964.464,2.664,2.14,3.141,1.79.511,3.268,1.481,3.375,3.617.1,1.983-1.182,2.993-2.716,3.9-4.739,2.79-9.429,5.662-14.17,8.449-2.979,1.751-5.148.959-6.182-2.28q-2.627-8.23-5.107-16.507c-.913-3.039.782-5.425,3.784-4.967,2.107.321,1.713-.767,1.609-1.875-1.165-12.511-7.29-21.686-18.645-27.128-2.1-1.009-2.974-2.1-2.881-4.392.151-3.727-.023-7.466.054-11.2A23.292,23.292,0,0,0,103,46.985c-.735-.925-1.611-1.816-.928-3.067.5-.919-.229-1-.657-1.375a22.982,22.982,0,0,0-10.98-5.693c-2.409-.463-3.483-1.653-3.321-4.206.185-2.921-.023-5.866.07-8.8.045-1.425-.245-2.149-1.866-2.006a3.738,3.738,0,0,1-3.98-2.1c-.865-1.777-.092-3.224,1.025-4.624,3.434-4.305,6.8-8.664,10.247-12.96,2.309-2.88,4.423-2.881,6.736,0,3.448,4.294,6.818,8.651,10.248,12.959,1.113,1.4,1.888,2.846,1.017,4.626a3.743,3.743,0,0,1-3.98,2.095c-1.619-.14-1.889.582-1.869,2.006.074,5.065.025,10.133.032,15.2a7.42,7.42,0,0,1-.415,3.144c-.1.1-.3.237-.281.31.083.31.313.258.537.135m42.922,76.892c-5.581-2.477-5.269-1.333-4.55-7.074A42.1,42.1,0,0,0,140.756,92.8c-4.552-12.72-13.164-21.658-25.567-27-1.848-.8-2.553-.5-2.362,1.605a22.7,22.7,0,0,1-.007,4.523c-.217,1.948.543,2.934,2.269,3.9,12.634,7.06,18.928,17.981,19.238,32.391.034,1.565.235,3.279-1.028,4.534-1.231,1.223-2.645-.074-4.2-.058,1.477,4.767,2.895,9.307,4.282,13.855.283.927.7,1.074,1.526.57,4.076-2.473,8.174-4.911,12.656-7.6m-5.384-77.918c-.435,5.11-.435,5.111-5.163,5.111-8.612,0-17.224-.012-25.835.019-.828,0-1.77-.368-2.6.5a24.8,24.8,0,0,1,2.821,6.239c.415,1.766,1.185,2.361,3.069,2.328,7.455-.13,14.914-.054,22.372-.053,5.044,0,5.041,0,5.173,4.912,0,.124.174.242.431.579l12.332-9.716-12.6-9.92M85.983,17.491c1.025.054,1.446.086,1.868.1,3.279.089,3.555.371,3.575,3.747.011,1.864,0,3.727,0,5.591,0,5.1,0,5.09,4.547,7.036a20.1,20.1,0,0,1,2.851,1.42c1.367.865,1.651.3,1.642-1.02-.027-3.9-.01-7.809-.009-11.713,0-4.8,0-4.8,4.708-5.131.113-.008.21-.231.435-.495-2.931-3.728-5.895-7.47-8.821-11.241-.6-.776-1-.777-1.6,0-2.927,3.771-5.894,7.511-9.2,11.708" transform="translate(-37.741 0)" fill="#080707"/>
        <path id="Trazado_721493" data-name="Trazado 721493" d="M84.8,144.027a27.766,27.766,0,1,1-27.712,27.8,27.729,27.729,0,0,1,27.712-27.8m8.044,34.722.01.005a1.084,1.084,0,0,0-1.052-.582,15.628,15.628,0,0,0-22.134,9.671,2.166,2.166,0,0,0,.982,2.655,23.124,23.124,0,0,0,27.535.464c1.09-.669,2.52-1.043,1.911-2.91-1.214-3.72-3.054-6.937-6.617-8.892l.028.032-.662-.443m10.033,4.356a2.952,2.952,0,0,0,1.176,1.965,22.393,22.393,0,0,0,4.1-10.333c1.29-7.574-2.853-17.483-8.84-21.172a10.791,10.791,0,0,0-1.18-1.059c-7.4-4.933-15.241-5.694-23.272-1.932-8.049,3.771-12.491,10.383-13.4,19.164A21.482,21.482,0,0,0,65.79,185.28c3.334-6.158,5.049-8.34,9.126-10.483,1.949-1.025,1.955-1.676.729-3.382a10.745,10.745,0,0,1,.59-13.34,11.247,11.247,0,0,1,12.8-3.266c6.779,2.7,9.038,10.837,4.733,17.12-.584.852-1.616,1.532.124,2.358a20.828,20.828,0,0,1,8.979,8.819M91.76,165.253A6.917,6.917,0,0,0,77.93,165a6.916,6.916,0,1,0,13.829.251" transform="translate(-26.609 -67.133)" fill="#050505"/>
        <path id="Trazado_721494" data-name="Trazado 721494" d="M35.024,91.943c-3.731,0-7.464.057-11.193-.029-1.425-.033-2.149.256-2,1.864.161,1.785-.309,3.408-2.074,4.252-1.885.9-3.372.005-4.841-1.173C10.688,93.467,6.4,90.163,2.16,86.789-.7,84.514-.72,82.281,2.1,80.041c4.308-3.426,8.659-6.8,12.976-10.214,1.374-1.087,2.741-1.987,4.592-1.1a3.684,3.684,0,0,1,2.151,3.928c-.153,1.882,1.007,1.662,2.184,1.66q11.194-.018,22.388,0c12.46.037,20.611,8.226,20.667,20.737.011,2.488.04,4.976-.009,7.463-.053,2.741-.794,3.426-3.41,2.985a30.529,30.529,0,0,0-10.857.027c-2.256.428-3.392-.471-3.367-2.811.026-2.4.014-4.8,0-7.2-.017-3.208-.345-3.554-3.462-3.569-3.643-.017-7.285,0-10.928,0M17.494,73.386,4.78,83.4,17.563,93.463c0-1.352.043-2.113-.009-2.867-.139-2.036.847-2.966,2.822-2.966,9.055,0,18.11-.077,27.163.047,3.719.051,5.969,2.546,6.156,6.337.087,1.771.064,3.551.015,5.326-.031,1.114.32,1.472,1.514,1.512,7.909.265,8,.206,7.47-7.739-.006-.089-.013-.177-.019-.265A14.971,14.971,0,0,0,49.147,78.769a34.3,34.3,0,0,0-3.72-.167c-7.989-.014-15.979,0-23.968-.01-3.6,0-3.8-.21-3.9-3.684-.009-.326-.028-.651-.066-1.522" transform="translate(0 -31.866)" fill="#0a0a08"/>
        <path id="Trazado_721495" data-name="Trazado 721495" d="M124.83,79.469c-.224.124-.454.176-.537-.135-.02-.073.182-.205.281-.31l.255.445" transform="translate(-57.935 -36.834)" fill="#6e6f6f"/>
        <path id="Trazado_721496" data-name="Trazado 721496" d="M175.334,176.623c-4.482,2.685-8.58,5.124-12.656,7.6-.831.5-1.243.357-1.526-.57-1.387-4.549-2.805-9.088-4.281-13.855,1.558-.015,2.973,1.281,4.2.059,1.263-1.255,1.062-2.969,1.028-4.534-.31-14.411-6.6-25.332-19.238-32.392-1.725-.964-2.485-1.95-2.269-3.9a22.7,22.7,0,0,0,.007-4.523c-.19-2.11.515-2.4,2.362-1.605,12.4,5.341,21.014,14.279,25.567,27a42.09,42.09,0,0,1,2.254,19.649c-.72,5.74-1.031,4.6,4.549,7.073" transform="translate(-65.517 -57.097)" fill="#f9616c"/>
        <path id="Trazado_721497" data-name="Trazado 721497" d="M166.281,77.935l12.6,9.919-12.332,9.717c-.257-.336-.428-.455-.431-.579-.131-4.912-.129-4.912-5.173-4.912-7.458,0-14.917-.077-22.372.053-1.884.033-2.653-.561-3.069-2.328a24.8,24.8,0,0,0-2.821-6.238c.827-.87,1.768-.5,2.6-.5,8.612-.031,17.224-.019,25.835-.019,4.729,0,4.729,0,5.163-5.111" transform="translate(-61.847 -36.327)" fill="#85c2f6"/>
        <path id="Trazado_721498" data-name="Trazado 721498" d="M90.36,22.031c3.3-4.2,6.27-7.937,9.2-11.708.6-.778,1-.777,1.6,0,2.926,3.771,5.89,7.513,8.821,11.241-.224.264-.322.487-.435.495-4.706.334-4.707.332-4.708,5.131,0,3.9-.019,7.809.009,11.713.009,1.325-.275,1.886-1.642,1.02a20.1,20.1,0,0,0-2.851-1.42c-4.543-1.947-4.547-1.937-4.547-7.036,0-1.864.009-3.727,0-5.591-.021-3.377-.3-3.659-3.575-3.747-.421-.011-.842-.043-1.868-.1" transform="translate(-42.118 -4.54)" fill="#bce653"/>
        <path id="Trazado_721499" data-name="Trazado 721499" d="M106.589,186.749a20.823,20.823,0,0,0-8.98-8.819c-1.739-.827-.707-1.507-.124-2.358,4.3-6.283,2.046-14.424-4.733-17.121a11.247,11.247,0,0,0-12.8,3.266,10.745,10.745,0,0,0-.59,13.34c1.226,1.705,1.22,2.357-.729,3.382-4.076,2.144-5.792,4.326-9.125,10.483a21.481,21.481,0,0,1-4.323-15.542c.905-8.781,5.347-15.392,13.4-19.163,8.031-3.762,15.873-3,23.271,1.931a10.7,10.7,0,0,1,1.18,1.059,3.424,3.424,0,0,0,.351,1.231c3.844,4.753,6.186,10.1,6.154,16.273-.022,4.214-.072,8.49-2.944,12.037" transform="translate(-30.322 -70.777)" fill="#817481"/>
        <path id="Trazado_721500" data-name="Trazado 721500" d="M109.053,219.251a23.125,23.125,0,0,1-27.536-.464,2.165,2.165,0,0,1-.981-2.655,15.628,15.628,0,0,1,22.134-9.671,1.021,1.021,0,0,0,1.052.582l-.01-.005.661.443-.028-.032a1.771,1.771,0,0,0,.468,1.451c2.453,3.022,3.529,6.612,4.239,10.35" transform="translate(-37.48 -95.423)" fill="#88c6fb"/>
        <path id="Trazado_721501" data-name="Trazado 721501" d="M109.956,177.747a6.916,6.916,0,1,1-13.829-.251,6.917,6.917,0,0,1,13.829.251" transform="translate(-44.805 -79.627)" fill="#f1d7c9"/>
        <path id="Trazado_721502" data-name="Trazado 721502" d="M139.744,191.432c2.872-3.547,2.922-7.823,2.944-12.037.032-6.175-2.31-11.521-6.154-16.273a3.425,3.425,0,0,1-.351-1.231c5.988,3.689,10.13,13.6,8.84,21.172a22.4,22.4,0,0,1-4.1,10.333,2.953,2.953,0,0,1-1.176-1.965" transform="translate(-63.477 -75.46)" fill="#655b65"/>
        <path id="Trazado_721503" data-name="Trazado 721503" d="M129.935,221.636c-.71-3.738-1.786-7.328-4.239-10.35a1.771,1.771,0,0,1-.468-1.451c3.563,1.955,5.4,5.172,6.617,8.891.61,1.867-.821,2.241-1.91,2.91" transform="translate(-58.361 -97.807)" fill="#5daff2"/>
        <path id="Trazado_721504" data-name="Trazado 721504" d="M123.159,208.565a1.021,1.021,0,0,1-1.052-.582,1.085,1.085,0,0,1,1.052.582" transform="translate(-56.916 -96.944)" fill="#5daff2"/>
        <path id="Trazado_721505" data-name="Trazado 721505" d="M124.721,209.507l-.662-.443.662.443" transform="translate(-57.826 -97.448)" fill="#5daff2"/>
        <path id="Trazado_721506" data-name="Trazado 721506" d="M21.667,77.769c.038.871.057,1.2.066,1.522.1,3.474.3,3.681,3.9,3.684,7.99.008,15.979,0,23.968.01a34.3,34.3,0,0,1,3.72.167A14.971,14.971,0,0,1,66.848,97.23c.006.088.013.177.019.265.529,7.945.439,8-7.47,7.739-1.194-.04-1.545-.4-1.514-1.512.049-1.774.072-3.554-.015-5.326-.187-3.792-2.437-6.286-6.156-6.337-9.053-.124-18.108-.046-27.163-.047-1.975,0-2.961.931-2.822,2.966.052.754.009,1.516.009,2.868L8.953,87.783,21.667,77.769" transform="translate(-4.173 -36.249)" fill="#f8db73"/>
      </g>
    </g>
  </g>
</svg>
