<svg id="Grupo_1018341" data-name="Grupo 1018341" xmlns="http://www.w3.org/2000/svg" xmlns:xlink="http://www.w3.org/1999/xlink" width="188" height="188.125" viewBox="0 0 188 188.125">
  <defs>
    <clipPath id="clip-path">
      <rect id="Rectángulo_351316" data-name="Rectángulo 351316" width="188" height="188.124" fill="none"/>
    </clipPath>
  </defs>
  <g id="Grupo_1018340" data-name="Grupo 1018340" clip-path="url(#clip-path)">
    <path id="Trazado_721507" data-name="Trazado 721507" d="M72.922,188.122q-32.94,0-65.879,0c-5.748,0-7.619-2.171-6.894-7.714,1.439-11,2.8-22.006,4.218-33.007,1.31-10.151,6.718-16.979,16.555-20.084,4.926-1.554,9.912-2.915,14.854-4.421,4.423-1.347,9.078-2.11,12.427-5.9,1.377-1.56,3.614-2.029,5.6-2.7.944-.317,2.444.056,2.378-1.664-.054-1.4.388-2.789-1.314-3.865a33.519,33.519,0,0,1-15.894-23.8c-.241-1.472-.836-2.062-2.409-2.006a23.444,23.444,0,0,1-7.7-.6C18,79.093,14.013,65.815,21.595,57.387a7.26,7.26,0,0,0,2.063-5.527C23.47,43.839,23.5,35.87,26.5,28.178A43.649,43.649,0,0,1,66.741.121c7.741-.04,15.515-.654,23.189,1.318a43.783,43.783,0,0,1,32.891,41.5c.03,1.85.058,3.7,0,5.551-.11,3.8.171,7.114,3.051,10.41,3.845,4.4,3.875,10.024,1.3,15.315s-6.977,8.141-12.825,8.725a12.343,12.343,0,0,1-2.956.027c-2.69-.389-3.688.59-4.237,3.393A32.959,32.959,0,0,1,92.5,108.133a4.223,4.223,0,0,0-2.311,4.115c.074,2.411,2,1.819,3.163,2.274,1.848.725,3.884,1.3,5.189,2.718,3.041,3.3,7.119,4.086,11.076,5.355,2.2.706,2.86.537,2.916-2.069.458-21.781,17.611-38.114,39.208-37.516,18.85.522,35,16.142,36.179,34.984,1.216,19.494-12.248,36.708-31.106,39.884a30.523,30.523,0,0,1-11.032.283c-2.594-.514-2.292.744-2.086,2.327.84,6.477,1.617,12.963,2.531,19.43.863,6.109-.867,8.2-7.06,8.2q-33.125.008-66.249,0m2.414-177.68c-14.33,0-19.817,1.137-26.146,5.4C37.53,23.69,33.283,35,33.92,48.654c.113,2.447.45,3.516,3.175,3.3a87.43,87.43,0,0,1,9.973-.043C61.2,52.438,72.489,47.27,80.493,35.4c1.741-2.581,4.015-3.315,7.042-2.182,7.881,2.949,13.927,8.091,17.234,15.741,1.562,3.613,3.986,3.225,6.444,2.821s.934-2.781,1.2-4.247a21.28,21.28,0,0,0,.047-4.056A33.435,33.435,0,0,0,87.546,11.508a44.914,44.914,0,0,0-12.21-1.066m22.308,61.71c0-4.12.135-7.33-.028-10.527A20.612,20.612,0,0,0,89.023,45.6c-1.426-1.08-2.267-1.119-3.566.389A44.924,44.924,0,0,1,51.185,62.2c-1.976.048-2.467.635-2.422,2.515.119,5.05-.034,10.106.061,15.157A24.395,24.395,0,0,0,97.06,84.494c.99-4.409.348-8.842.584-12.342m52.666,75.985a27.385,27.385,0,1,0-27.472-27.488,27.452,27.452,0,0,0,27.472,27.488M34.055,177.751c6.786,0,13.571.019,20.356-.018,1.14-.006,2.7.526,3.087-1.194,1.441-6.491,2.97-12.972,4.035-19.529.256-1.578-.852-3.629-1.869-5.089-.957-1.372-2.082.518-3.234.606-1.7.132-3.373-.045-4.4-1.4-3.993-5.262-9.081-9.858-10.675-16.632-.417-1.771-1.155-2.181-2.838-1.656-5.169,1.614-10.416,2.992-15.542,4.733-4.888,1.661-7.563,5.342-8.23,10.423-1.186,9.041-2.23,18.1-3.515,27.128-.328,2.3.427,2.69,2.467,2.66,6.784-.1,13.571-.036,20.356-.036m78.419,0c6.774,0,13.548.009,20.322-.008,1.271,0,2.84.455,2.507-1.9-.929-6.577-1.762-13.168-2.588-19.759a3.558,3.558,0,0,0-1.816-2.946,37.422,37.422,0,0,1-14.879-16.463c-.629-1.34-8.482-4.549-9.779-4.093a1.626,1.626,0,0,0-1,1.424c-1.251,6.8-6.489,11.163-10.161,16.472-1.293,1.869-3.5,2.889-5.519,1.8-2.495-1.345-2.992-.161-3.849,1.738a8.555,8.555,0,0,0-.534,5.722c1.167,5.029,2.456,10.039,3.374,15.115.418,2.315,1.294,3.008,3.6,2.958,6.771-.149,13.547-.054,20.321-.054M79.7,113.444a31.523,31.523,0,0,1-11.217.308c-1.045-.159-1.851-.465-1.935,1.137-.263,5.009.712,9.514,4.5,13.155,1.553,1.494,2.722,1.564,4.325.025,4.127-3.964,5.007-8.824,4.328-14.625M73.132,177.76a14.241,14.241,0,0,1,1.836.012c2.831.368,3.96-.314,2.924-3.5A86.1,86.1,0,0,1,75.551,163.9c-.279-1.448-.49-2.5-2.4-2.489-2.025.011-1.967,1.331-2.25,2.653-.614,2.871-1.324,5.722-1.971,8.586-1.153,5.108-1.145,5.11,4.2,5.11m-17.16-53.291a15.761,15.761,0,0,0-1.757.93c-3.4,2.312-3.9,6.217-1.292,9.974,3.584,5.173,3.584,5.173,8.348,1.924a11.569,11.569,0,0,1,1.223-.818c1.3-.655,1.053-1.3.186-2.214a22.2,22.2,0,0,1-5.057-8.452c-.231-.706-.44-1.443-1.65-1.344m39.283,6.3a7.228,7.228,0,0,0-2-4.627c-2.392-2.338-3.507-2.1-4.882.885-.817,1.772-1.547,3.779-2.9,5.07-2.986,2.848-2.457,4.633,1.079,6.162a15.438,15.438,0,0,1,2.158,1.4c.543.355,1.145.61,1.6-.044,1.947-2.774,4.738-5.086,4.936-8.846M38.5,67.613c-.678-2.048,1.857-5.91-3.5-5.43-4.473.4-6.973,1.984-6.9,5.361.067,3.334,2.556,4.792,7.1,5.171,4.775.4,2.848-2.909,3.3-5.1m69.522-.293c0,5.3,0,5.3,3.2,5.311,4.562.013,7.053-1.753,7.136-5.06.085-3.36-2.45-4.969-6.877-5.4-4.895-.47-3.187,2.86-3.464,5.145M73.177,151.113c2.264.012,5.083-2.862,4.678-5.3-.38-2.282-2.754-3.451-4.573-3.514a4.894,4.894,0,0,0-4.7,3.424c-.575,2.171,2.451,5.375,4.6,5.386" transform="translate(0 0)" fill="#030302"/>
    <path id="Trazado_721508" data-name="Trazado 721508" d="M78.774,11.5a44.884,44.884,0,0,1,12.21,1.067A33.432,33.432,0,0,1,115.9,44.538a21.207,21.207,0,0,1-.045,4.056c-.271,1.466,1.256,3.844-1.2,4.248s-4.882.791-6.444-2.822c-3.307-7.65-9.355-12.791-17.235-15.741-3.027-1.133-5.3-.4-7.04,2.182-8,11.869-19.289,17.037-33.424,16.515a87.446,87.446,0,0,0-9.974.043c-2.725.212-3.061-.858-3.175-3.3-.636-13.659,3.61-24.965,15.269-32.814,6.329-4.261,11.816-5.4,26.146-5.4" transform="translate(-3.439 -1.059)" fill="#fcd43f"/>
    <path id="Trazado_721509" data-name="Trazado 721509" d="M102.6,76.7c-.237,3.5.406,7.933-.584,12.342a24.395,24.395,0,0,1-48.236-4.62c-.1-5.051.058-10.107-.062-15.157-.044-1.88.447-2.466,2.422-2.514A44.928,44.928,0,0,0,90.41,50.535c1.3-1.508,2.139-1.469,3.565-.388a20.608,20.608,0,0,1,8.593,16.031c.162,3.2.028,6.406.028,10.526" transform="translate(-4.952 -4.552)" fill="#fcd0bc"/>
    <path id="Trazado_721510" data-name="Trazado 721510" d="M162.786,157.621a27.386,27.386,0,1,1,27.3-27.291,27.424,27.424,0,0,1-27.3,27.291m5.08-33.056c0-2.092.111-4.19-.026-6.273a5.057,5.057,0,0,0-5.252-5.04,4.963,4.963,0,0,0-5.023,4.9c-.216,2.175.587,5.006-.515,6.387-1.189,1.492-4.14.312-6.308.53-3.019.3-5.212,2.511-5.022,5.292a4.94,4.94,0,0,0,4.914,5c2.077.179,4.18.056,6.272.056,10.816,0,10.977-.158,10.96-10.85" transform="translate(-12.476 -9.483)" fill="#bbf7fc"/>
    <path id="Trazado_721511" data-name="Trazado 721511" d="M35.189,191.222c-6.785,0-13.572-.06-20.356.036-2.041.029-2.8-.355-2.467-2.66,1.284-9.026,2.329-18.087,3.515-27.128.667-5.082,3.343-8.762,8.23-10.423,5.125-1.741,10.373-3.119,15.542-4.734,1.683-.526,2.421-.114,2.838,1.657,1.594,6.773,6.682,11.37,10.675,16.632,1.025,1.351,2.694,1.529,4.4,1.4,1.152-.089,2.277-1.979,3.234-.606,1.018,1.46,2.125,3.511,1.869,5.089-1.066,6.555-2.594,13.038-4.035,19.529-.382,1.719-1.946,1.187-3.087,1.194-6.785.037-13.571.018-20.356.018" transform="translate(-1.133 -13.47)" fill="#778ab2"/>
    <path id="Trazado_721512" data-name="Trazado 721512" d="M121.1,191.213c-6.774,0-13.55-.1-20.321.053-2.3.051-3.18-.642-3.6-2.957-.918-5.076-2.207-10.086-3.373-15.116a8.546,8.546,0,0,1,.533-5.721c.857-1.9,1.355-3.083,3.85-1.738,2.021,1.09,4.226.07,5.519-1.8,3.672-5.309,8.91-9.668,10.161-16.473a1.624,1.624,0,0,1,1-1.423c1.3-.456,9.15,2.753,9.779,4.092A37.429,37.429,0,0,0,139.524,166.6a3.557,3.557,0,0,1,1.815,2.946c.826,6.591,1.66,13.181,2.588,19.759.333,2.358-1.236,1.9-2.506,1.9-6.774.017-13.548.008-20.322.008" transform="translate(-8.625 -13.461)" fill="#778ab2"/>
    <path id="Trazado_721513" data-name="Trazado 721513" d="M86.452,124.966c.678,5.8-.2,10.66-4.328,14.625-1.6,1.54-2.772,1.47-4.325-.025-3.786-3.641-4.762-8.146-4.5-13.155.084-1.6.89-1.3,1.935-1.137a31.5,31.5,0,0,0,11.217-.308" transform="translate(-6.755 -11.522)" fill="#f7bba9"/>
    <path id="Trazado_721514" data-name="Trazado 721514" d="M80.07,194.154c-5.341,0-5.349,0-4.2-5.11.645-2.864,1.356-5.715,1.97-8.586.282-1.322.225-2.642,2.25-2.652,1.9-.01,2.116,1.04,2.4,2.489a85.948,85.948,0,0,0,2.34,10.375c1.036,3.181-.092,3.863-2.923,3.5a14.258,14.258,0,0,0-1.837-.012" transform="translate(-6.939 -16.394)" fill="#f76b88"/>
    <path id="Trazado_721515" data-name="Trazado 721515" d="M61.178,137.109c1.21-.1,1.419.638,1.65,1.344a22.2,22.2,0,0,0,5.057,8.452c.867.911,1.109,1.559-.186,2.214a11.566,11.566,0,0,0-1.223.818c-4.765,3.249-4.765,3.249-8.348-1.923-2.6-3.758-2.11-7.663,1.292-9.975a15.762,15.762,0,0,1,1.757-.931" transform="translate(-5.207 -12.641)" fill="#ebecec"/>
    <path id="Trazado_721516" data-name="Trazado 721516" d="M103.735,143.426c-.194,3.756-2.985,6.068-4.932,8.842-.459.655-1.061.4-1.6.045a15.418,15.418,0,0,0-2.158-1.4c-3.538-1.53-4.065-3.314-1.079-6.162,1.353-1.29,2.083-3.3,2.9-5.07,1.374-2.985,2.489-3.223,4.882-.884a7.2,7.2,0,0,1,1.992,4.63" transform="translate(-8.484 -12.652)" fill="#eceded"/>
    <path id="Trazado_721517" data-name="Trazado 721517" d="M41.355,73.924c-.455,2.191,1.472,5.5-3.3,5.1-4.545-.379-7.035-1.837-7.1-5.172-.068-3.377,2.432-4.96,6.9-5.361,5.358-.479,2.821,3.383,3.5,5.43" transform="translate(-2.854 -6.311)" fill="#f7bba8"/>
    <path id="Trazado_721518" data-name="Trazado 721518" d="M118.988,73.63c.277-2.284-1.432-5.615,3.464-5.144,4.426.425,6.962,2.035,6.877,5.394-.084,3.307-2.575,5.074-7.137,5.061-3.2-.009-3.2-.009-3.2-5.312" transform="translate(-10.964 -6.31)" fill="#f6bba8"/>
    <path id="Trazado_721519" data-name="Trazado 721519" d="M80.135,165.566c-2.144-.011-5.17-3.215-4.6-5.386a4.894,4.894,0,0,1,4.7-3.424c1.818.063,4.192,1.232,4.573,3.514.4,2.434-2.414,5.308-4.678,5.3" transform="translate(-6.958 -14.453)" fill="#f4859c"/>
    <path id="Trazado_721520" data-name="Trazado 721520" d="M168.922,125.621c.017,10.692-.143,10.853-10.96,10.85-2.092,0-4.195.123-6.272-.056a4.94,4.94,0,0,1-4.914-5c-.19-2.781,2-4.989,5.022-5.292,2.169-.218,5.119.962,6.308-.53,1.1-1.382.3-4.212.515-6.387a4.963,4.963,0,0,1,5.023-4.9,5.057,5.057,0,0,1,5.252,5.04c.137,2.082.026,4.181.026,6.273" transform="translate(-13.532 -10.538)" fill="#020303"/>
  </g>
</svg>
