<svg id="Grupo_1018355" data-name="Grupo 1018355" xmlns="http://www.w3.org/2000/svg" xmlns:xlink="http://www.w3.org/1999/xlink" width="184.409" height="190.438" viewBox="0 0 184.409 190.438">
  <defs>
    <clipPath id="clip-path">
      <rect id="Rectángulo_351320" data-name="Rectángulo 351320" width="184.409" height="190.438" fill="none"/>
    </clipPath>
  </defs>
  <g id="Grupo_1018354" data-name="Grupo 1018354" clip-path="url(#clip-path)">
    <path id="Trazado_721588" data-name="Trazado 721588" d="M22.779,147.82c-1.168-.1-1.633-.167-2.1-.176-8.28-.172-11.349-2.992-11.714-11.37-.253-5.812-.286-11.655.005-17.464.545-10.851,10.043-19.673,21.188-20.016,10.6-.326,20.49,7.885,21.9,18.378a95.554,95.554,0,0,1,.234,18.554c-.566,9.34-3.037,11.578-12.675,12.059a15.707,15.707,0,0,0,7.189,3.5c4.52.957,8.43,2.831,11.222,6.628a1.976,1.976,0,0,0,2.484.925c6.343-2.005,13.1-2.659,19.044-5.974,3.055-1.7,3.394-4.69.548-6.875a19.328,19.328,0,0,1-7.272-10.466,3.705,3.705,0,0,0-2.859-2.857c-6.013-2.048-8.247-8.439-4.874-13.854a7.768,7.768,0,0,0,1.106-4.532c-.053-3.963-.082-7.9,1.365-11.718,4.773-12.6,21.859-17.944,32.473-10.021a3.724,3.724,0,0,0,3.376.647c7.942-1.51,14.586,3.861,14.806,11.939.068,2.476.022,4.956.01,7.433a17.845,17.845,0,0,0,1.446,8.219c2.336,4.88-.467,10.356-5.853,12.047a3.944,3.944,0,0,0-3.114,3.084,18.809,18.809,0,0,1-6.582,9.652c-3.078,2.495-2.595,5.477.871,7.392,5.964,3.294,12.736,3.863,19.054,5.939,1.27.417,1.792-.351,2.4-1.141,2.789-3.622,6.6-5.4,10.969-6.4a31.735,31.735,0,0,0,5.831-2.315c2.3-1.042,2.332-2.264.208-3.677a15.287,15.287,0,0,1-6.36-8.43c-.451-1.5-1.4-1.676-2.586-2.114-5.6-2.066-7.232-7.338-3.63-12.167,1.217-1.63,1.047-3.231,1.039-4.906-.044-8.784,3.74-15.32,11.66-19.1,8.072-3.851,15.928-2.971,23.078,2.389,5.3,3.975,7.744,9.515,7.718,16.12a9.951,9.951,0,0,0,1.775,6.536c2.854,3.865.988,9.02-3.763,10.893a4.866,4.866,0,0,0-3.317,3.394,14.16,14.16,0,0,1-6.262,7.584c-2.319,1.473-1.841,2.44.307,3.574a45.077,45.077,0,0,0,8.351,2.988A15.469,15.469,0,0,1,183.065,166.4q.8,10.56,1.305,21.14c.342,7.115-1.421,8.912-8.439,8.916-13.505.01-27.012.112-40.514-.076-3.281-.045-3.842.94-3.535,3.995,1.127,11.235-.4,12.794-11.628,12.794q-29.922,0-59.843,0c-6.3,0-8.526-2.3-8.319-8.527.008-.248.019-.495.029-.743.313-7.516.313-7.544-7.424-7.56-12.265-.025-24.53,0-36.795-.013-6.312-.007-8.163-1.882-7.875-8.293.334-7.424.659-14.856,1.328-22.254.632-7,4.669-11.539,11.323-13.669,3.259-1.043,6.692-1.61,10.1-4.285m69.062,61.6c5.576,0,11.154-.1,16.726.051,2.251.062,2.986-.522,2.924-2.871-.169-6.439-.153-12.887.006-19.326.041-1.673-1.316-4.675,1.872-4.633,2.731.036,1.731,2.813,1.772,4.481.116,4.706.041,9.416.041,14.124,0,8.212,0,8.212,8.252,8.174,4.745-.022,5.452-.634,5.177-5.4-.7-12.116-1.5-24.226-2.3-36.336a5.81,5.81,0,0,0-4.853-5.735c-6.088-1.545-12.423-2.344-17.964-5.635-1.676-1-1.986.052-2.545,1.362-.843,1.973-.656,4.924-3.144,5.558a23.6,23.6,0,0,1-11.036.036c-2.543-.584-2.361-3.528-3.229-5.491-.531-1.2-.695-2.454-2.49-1.4-5.433,3.2-11.634,4.051-17.619,5.5-3.743.9-5.282,3.095-5.451,6.833-.464,10.269-.914,20.545-1.713,30.791-.886,11.383-.865,9.745,9.487,9.977,2.509.057,3.092-.756,3.041-3.124-.147-6.812-.074-13.629-.031-20.443.009-1.4-.374-3.337,1.855-3.359s1.888,1.908,1.9,3.317c.042,6.566.173,13.139-.05,19.7-.1,2.967.5,4.131,3.765,3.935,5.185-.31,10.4-.083,15.607-.083m79.309-27.359a54.566,54.566,0,0,1-.046,6.686c-.586,4.7,2.69,3.514,5.218,3.72,3.032.248,4.691-.556,4.391-4.067-.6-7.023-.984-14.065-1.4-21.1-.359-6.047-3.271-9.805-9.158-11.632-2.473-.767-5.1-1.1-7.343-2.518-1.595-1.01-2.592-.549-2.868,1.2-.707,4.482-4.062,3.745-7.134,3.86-3.047.114-5.75.028-6.431-3.83-.164-.932-.438-2.5-2.13-1.5-3.146,1.859-6.852,2.093-10.128,3.54-4.608,2.037-5.469,3.9-4.248,8.724a12.059,12.059,0,0,1,.272,2.2c.472,7.407.912,14.815,1.415,22.22.075,1.1-.441,2.748,1.528,2.773,2.005.027,1.514-1.6,1.526-2.721.052-4.832.017-9.665.029-14.5,0-1.492-.126-3.377,1.951-3.319s1.787,2,1.794,3.447c.022,4.585.177,9.178-.052,13.751-.144,2.875.9,3.569,3.615,3.5,7.183-.172,14.377-.205,21.557.01,3.089.093,4.126-.813,3.948-3.935-.254-4.446-.06-8.918-.064-13.379,0-1.563.15-3.306,2.077-3.322s1.652,1.8,1.67,3.122c.034,2.354.01,4.709.012,7.063M30.641,192.522c3.839,0,7.684-.14,11.512.05,2.531.125,3.51-.579,3.387-3.266-.208-4.572-.065-9.16-.052-13.74,0-1.6-.224-3.72,2-3.676,2.371.046,1.707,2.307,1.728,3.787.068,4.7.03,9.41.024,14.114,0,1.4-.154,2.787,1.979,2.729,2.045-.057,1.56-1.545,1.63-2.656.358-5.682.537-11.378,1.031-17.048.265-3.054-.316-6.319,1.208-9.115,1.084-1.987.394-3.164-.856-4.561-2.859-3.2-7-3.387-10.618-4.861-3.192-1.3-5.862-2.923-6.562,2.272-.043.317-.382.8-.648.851-3.7.662-3.365,3.383-3.258,6.089.049,1.231-.082,2.686-1.744,2.8-1.952.13-2.019-1.444-2.1-2.822-.067-1.111-.006-2.229-.038-3.342-.025-.861.024-1.874-1.208-1.9-2.617-.066-3.04-2.062-3.715-3.951-.313-.876-.378-2.464-2.12-1.423-2.807,1.679-6.079,2.022-9.083,3.122a11.419,11.419,0,0,0-8.017,10.558q-.724,10-1.287,20.006c-.333,6.066-.15,6.069,6.032,6.056,2.391-.005,2.906-.847,2.844-3.025-.138-4.825-.039-9.657-.044-14.485,0-1.525-.06-3.306,2.027-3.241,1.845.057,1.728,1.746,1.727,3.127,0,4.953.092,9.908-.042,14.857-.057,2.127.658,2.815,2.755,2.741,3.833-.135,7.675-.039,11.513-.038m77.244-67.9h-.014c0-2.35-.173-4.716.049-7.045.218-2.293-.743-3.043-2.848-3.217a16.022,16.022,0,0,1-7.912-2.908c-1.234-.863-1.987-.792-3.109.258a20.209,20.209,0,0,1-15.679,5.334c-1.958-.122-2.621.312-2.548,2.319.138,3.829-.034,7.668.076,11.5a16,16,0,0,0,31.98-.3c.033-1.979.005-3.958.005-5.936M89.33,93.275c-1.3,0-1.8,0-2.294,0-10.8.112-17.988,8.011-17.122,18.784.1,1.283.241,3.045,1.955,1.842,2.347-1.646,4.753-1.118,7.143-.993a16.077,16.077,0,0,0,13.344-5.177c1.819-1.966,3.65-2.368,5.773-.494a13.742,13.742,0,0,0,8.142,3.22c2.626.218,4.909.539,6.032,3.319a1.29,1.29,0,0,0,1.475.858c.792-.185.668-.936.673-1.519.02-2.226.048-4.455-.007-6.68-.185-7.465-4.877-11.063-11.957-9.1-1.249.346-2.438.917-3.343-.361-2.682-3.78-6.535-4.047-9.815-3.7m77.075,35.338c-.374-1.958,1.05-4.67-.659-6.482-2.031-2.156-2.443-5.79-4.3-6.946-2.05-1.277-5.656-.054-8.584.077a3.623,3.623,0,0,1-.741-.016c-4.239-.689-8.407-1.463-9.556,4.584-.292,1.537-2.678,2.118-2.569,4.251.152,2.961-.129,5.951.129,8.9a12.892,12.892,0,0,0,14.948,11.476c7.781-1.225,11.285-6.026,11.329-15.841m-124.9,15.04c4.9.1,6.6-1.679,6.824-7.165.218-5.311.133-10.64.063-15.959-.115-8.628-6.4-16.216-14.341-17.437-9.457-1.454-18.192,3.154-20.474,11.936-2.121,8.16-1.7,16.686-.117,24.982.7,3.656,2.271,4.2,6.584,3.386-4.758-4.839-5.345-10.759-5.068-16.959.132-2.948,1.31-4.653,4.421-4.767a11.845,11.845,0,0,0,8.547-3.878c2.086-2.254,4.106-2.538,6.289-.165a12.392,12.392,0,0,0,8.485,4.054c2.87.216,4.052,1.809,4.147,4.636.209,6.285.106,12.439-5.36,17.336m1.512-14.2c.823-2.8-.412-4.2-3.813-4.456a10,10,0,0,1-6.136-3.2c-1.229-1.241-2.089-1.645-3.554-.156a13.435,13.435,0,0,1-8.255,3.781c-.811.094-1.63-.065-2.045,1.1-1.623,4.557.819,12.015,5.1,14.973a11.061,11.061,0,0,0,11.912.97c5.113-2.575,7.014-7.02,6.787-13.011M136,116.334c.354.949-.83,2.68.757,3.089,1.441.372,2.358-1.1,3.056-2.264a7.356,7.356,0,0,0,.679-2.089c.873-3.7,2.682-5.092,6.366-4.347a23.694,23.694,0,0,0,8.851.458c5.549-1.01,10.2-1.248,11.137,6.1a2.8,2.8,0,0,0,3.068,2.219c1.517-.359.966-2.091.962-3.221-.026-8.887-7.878-16.126-17.419-16.146-9.582-.02-17.252,7.04-17.456,16.2m-43.96,43.4c1.371-.38,3.32.794,4.089-.834a20.625,20.625,0,0,0,2.467-8.088c.054-1.656-.86-1.832-2.154-1.483a17.328,17.328,0,0,1-8.805.1c-.775-.19-1.875-.629-1.966.781-.2,3.08,1.38,5.726,2.385,8.475.674,1.845,2.633.667,3.984,1.047M30.6,147.42c-1.138,1.135-3.422-1.617-3.733,1.328-.3,2.85,1.969,5.587,4.265,5.61a4.82,4.82,0,0,0,4.432-5.75c-.64-3.4-3.464.414-4.964-1.188m81.175-23.852a9.861,9.861,0,0,0,.019,1.829c.236,1.234-.817,3.228.728,3.564,1.805.394,2.944-1.35,3.714-2.957a4.793,4.793,0,0,0,.136-3.91c-.639-1.691-1.762-3.423-3.536-3.228-2.083.228-.644,2.377-1.046,3.607a3.7,3.7,0,0,0-.016,1.095M157.454,148.5c-1.183-.68-2.388.106-3.583-.029-1.22-.136-2.453-.141-3.676-.249-.5-.045-.989-.115-1.287.38-.675,1.12,1.822,5.621,3.2,5.8,3.668.471,4.282-.2,5.344-5.9M72.029,124.069a5.235,5.235,0,0,0-.022-1.474c-.387-1.263,1.042-3.478-.932-3.686-1.918-.2-3.068,1.667-3.668,3.582a5.01,5.01,0,0,0,.312,3.6c.653,1.52,1.756,3.168,3.43,2.891,1.807-.3.507-2.265.859-3.438a5.319,5.319,0,0,0,.022-1.474m63.954-.112c-2.481.448-3.207,1.939-3.173,3.765a3.433,3.433,0,0,0,3.173,3.55Zm34.3,7.253c3.2-1.406,4.172-3.8,2.575-5.915-.5-.665-1.147-1.472-2.088-1.135-.845.3-.446,1.246-.468,1.9-.056,1.676-.019,3.357-.019,5.147" transform="translate(0 -22.728)" fill="#2c2727"/>
    <path id="Trazado_721589" data-name="Trazado 721589" d="M132.282,22.451c13.485,0,26.616-.089,39.746.038,6.445.063,10.933,4.489,11.226,11,.234,5.2.221,10.416.009,15.612-.268,6.569-4.645,10.739-11.178,11.042a4.6,4.6,0,0,1-1.113,0c-6.581-1.338-10.866,1.223-13.872,7.219-2.034,4.059-4.607,4.036-6.631-.176-2.906-6.045-7.226-7.655-13.6-7.166-6.945.533-10.381-2.451-12.448-9.151-.275-.891-.106-2.052-1.746-1.574-5.224,1.521-10.59.571-15.89.711a5.267,5.267,0,0,0-4.9,2.621c-1.88,3.055-3.857,6.055-5.9,9.007-2.235,3.237-4.264,3.172-6.558-.19-2.023-2.964-3.972-5.98-5.9-9.009a4.516,4.516,0,0,0-3.874-2.4c-5.667-.265-11.395.811-17-.778-1.423-.4-1.18.854-1.408,1.58-2.216,7.07-5.354,9.41-12.676,9.431a2.06,2.06,0,0,1-.371,0c-5.987-1.126-9.87,1.162-12.684,6.654-2.455,4.793-4.77,4.794-7.238.07C25.466,61.6,21.762,59.7,15.647,60.107c-9.018.6-13.168-3.937-13.2-12.958-.018-4.338-.088-8.678.021-13.013.182-7.209,4.51-11.556,11.7-11.6,12.145-.077,24.293-.125,36.435.1,2.541.048,2.881-.714,2.736-2.807a58.264,58.264,0,0,1,0-5.946A13.948,13.948,0,0,1,67.085.1q25.654-.2,51.309-.01c7.834.054,13.7,6.15,13.877,14.026.064,2.827.01,5.658.01,8.337M92.944,3.8c-8.3,0-16.608-.06-24.911.019C61.381,3.88,57.138,8.162,57.093,14.8c-.048,7.064-.05,14.129.057,21.191a10.132,10.132,0,0,0,10.087,10.24q5.944.172,11.9.008a7.947,7.947,0,0,1,7.452,3.982c1.595,2.508,3.289,4.953,4.889,7.458.952,1.493,1.76,1.473,2.705-.007,1.6-2.505,3.3-4.944,4.884-7.46a7.858,7.858,0,0,1,7.446-3.971c3.59.117,7.188.051,10.782.018,6.878-.065,11.137-4.251,11.2-11.073q.088-10.038.029-20.077c-.049-7.093-4.257-11.257-11.407-11.3C109.055,3.764,101,3.8,92.944,3.8M153.8,26.192c-5.694,0-11.391.126-17.08-.048-3.307-.1-4.659.892-4.423,4.447.318,4.787.442,9.6-2.676,13.885-3.645,5.011-.526,11.456,5.624,11.962a19.471,19.471,0,0,0,4.45,0c5.694-.856,9.872.949,12.271,6.412.949,2.159,2.327,3.04,3.555.17,2.418-5.651,6.755-7.436,12.564-6.572a18.721,18.721,0,0,0,3.338.016c5.078-.169,7.823-2.8,7.933-7.813.106-4.825.1-9.655.006-14.481-.1-5.325-2.739-7.9-8.11-7.962-5.816-.063-11.635-.014-17.452-.016m-121.958,0c-5.942,0-11.887-.086-17.827.027-4.839.093-7.546,2.854-7.679,7.651-.089,3.216-.024,6.437-.025,9.656,0,11.971.967,13.138,12.809,12.849,4.723-.115,7.966,1.077,10.283,5.417,2.147,4.02,2.7,4,4.946-.06,2.265-4.1,5.287-5.906,9.95-5.31a26.225,26.225,0,0,0,6.3-.051c5.342-.621,9.18-6.595,6.238-10.588-3.679-4.994-3.782-10.318-3.547-15.879.118-2.793-.96-3.771-3.622-3.737-5.941.078-11.884.025-17.827.024" transform="translate(-0.615 0)" fill="#2b2828"/>
    <path id="Trazado_721590" data-name="Trazado 721590" d="M78.994,97.07c.08.755-4.381,5.588-4.841,5.383-2.167-.965-3.168-3.256-5.014-4.627-.294-.219,4.32-5.473,4.657-5.211,1.848,1.436,3.571,3.034,5.2,4.455" transform="translate(-17.691 -23.7)" fill="#6cc96c"/>
    <path id="Trazado_721591" data-name="Trazado 721591" d="M201.693,10.634c-2.67,1.231-4.485,2.611-5.353,5.33-1.474-2.182-2.836-4.2-5.836-5.218a9.6,9.6,0,0,0,5.658-5.571,8.292,8.292,0,0,0,5.531,5.459" transform="translate(-48.754 -1.324)" fill="#ea5354"/>
    <path id="Trazado_721592" data-name="Trazado 721592" d="M51.672,17.161a1.548,1.548,0,0,1-1.382,1.8,1.627,1.627,0,0,1-2.068-1.495c-.155-1.235.74-1.793,1.758-1.86a1.6,1.6,0,0,1,1.692,1.552" transform="translate(-12.337 -3.994)" fill="#54aad2"/>
    <path id="Trazado_721593" data-name="Trazado 721593" d="M218.058,3.738a1.723,1.723,0,0,1-1.9-1.8,1.722,1.722,0,1,1,3.444.039,1.668,1.668,0,0,1-1.54,1.759" transform="translate(-55.319 -0.051)" fill="#fcca29"/>
    <path id="Trazado_721594" data-name="Trazado 721594" d="M111.073,232.5c-5.2,0-10.421-.227-15.607.083-3.261.195-3.865-.969-3.764-3.935.223-6.56.092-13.132.05-19.7-.009-1.409.339-3.338-1.9-3.316s-1.845,1.956-1.854,3.358c-.044,6.815-.116,13.632.031,20.443.051,2.369-.533,3.181-3.042,3.124-10.352-.232-10.373,1.406-9.486-9.977.8-10.247,1.247-20.522,1.712-30.792.17-3.738,1.708-5.929,5.452-6.833,5.985-1.444,12.185-2.291,17.619-5.5,1.795-1.059,1.958.194,2.49,1.4.868,1.962.686,4.906,3.229,5.49a23.588,23.588,0,0,0,11.037-.035c2.487-.635,2.3-3.586,3.143-5.558.56-1.31.869-2.357,2.545-1.362,5.54,3.29,11.876,4.089,17.964,5.635a5.809,5.809,0,0,1,4.853,5.735c.793,12.11,1.6,24.22,2.3,36.336.274,4.768-.433,5.38-5.177,5.4-8.253.037-8.253.037-8.253-8.175,0-4.708.076-9.419-.04-14.124-.041-1.667.958-4.444-1.772-4.48-3.188-.042-1.831,2.959-1.871,4.632-.16,6.439-.176,12.887-.007,19.326.061,2.35-.673,2.934-2.925,2.872-5.571-.154-11.15-.051-16.726-.051m.337-39.525c-1.22-.011-1.727.661-1.7,1.807a1.556,1.556,0,0,0,1.559,1.648,1.621,1.621,0,0,0,1.9-1.676,1.575,1.575,0,0,0-1.768-1.779m-.113,28.667c-.779.174-1.525.523-1.569,1.6-.046,1.144.36,1.921,1.665,1.9a1.574,1.574,0,0,0,1.754-1.511c.118-1.213-.591-1.788-1.849-1.991m.054-15.682a1.531,1.531,0,0,0,1.758-1.437,1.569,1.569,0,0,0-1.616-1.923,1.458,1.458,0,0,0-1.729,1.42,1.579,1.579,0,0,0,1.586,1.939m1.781,7.747a1.634,1.634,0,0,0-2.038-1.514,1.492,1.492,0,0,0-1.33,1.819,1.564,1.564,0,0,0,2.005,1.51c1-.138,1.382-.848,1.363-1.815" transform="translate(-19.233 -45.81)" fill="#e6e6e7"/>
    <path id="Trazado_721595" data-name="Trazado 721595" d="M215.646,203.99c0-2.354.023-4.709-.011-7.063-.019-1.325.25-3.138-1.67-3.121s-2.078,1.76-2.077,3.322c0,4.461-.19,8.933.064,13.379.178,3.122-.859,4.028-3.948,3.935-7.18-.216-14.375-.182-21.557-.01-2.716.065-3.76-.63-3.615-3.5.23-4.573.074-9.166.052-13.751-.007-1.452.3-3.389-1.794-3.447s-1.947,1.827-1.951,3.32c-.012,4.832.023,9.665-.029,14.5-.012,1.118.479,2.748-1.526,2.721-1.969-.025-1.452-1.67-1.528-2.773-.5-7.4-.943-14.813-1.415-22.22a12.133,12.133,0,0,0-.271-2.2c-1.222-4.821-.361-6.688,4.247-8.724,3.276-1.447,6.982-1.68,10.128-3.54,1.692-1,1.965.566,2.13,1.5.682,3.857,3.384,3.943,6.432,3.829,3.072-.115,6.427.622,7.133-3.86.276-1.749,1.274-2.21,2.868-1.2,2.24,1.417,4.869,1.751,7.343,2.518,5.886,1.827,8.8,5.585,9.157,11.633.418,7.038.8,14.079,1.4,21.1.3,3.511-1.359,4.315-4.391,4.067-2.528-.206-5.8.982-5.218-3.72a54.272,54.272,0,0,0,.045-6.686m-11.391-8.32c.735,0,1.471-.013,2.206,0,1.359.028,2.548-.26,2.5-1.926s-1.311-1.826-2.63-1.8c-1.348.022-2.7-.012-4.045.023-1.237.033-2.256.538-2.2,1.906s1.115,1.771,2.338,1.79c.613.01,1.225,0,1.839.01" transform="translate(-44.496 -44.655)" fill="#af6d3a"/>
    <path id="Trazado_721596" data-name="Trazado 721596" d="M31.924,214.429c-3.839,0-7.68-.1-11.514.038-2.1.074-2.812-.613-2.755-2.741.133-4.949.039-9.9.042-14.856,0-1.381.119-3.07-1.726-3.127-2.087-.065-2.028,1.716-2.027,3.241,0,4.829-.1,9.66.044,14.485.063,2.179-.453,3.02-2.844,3.025-6.183.013-6.366.011-6.032-6.056q.55-10.008,1.287-20.006a11.419,11.419,0,0,1,8.017-10.558c3-1.1,6.276-1.444,9.083-3.122,1.741-1.042,1.807.547,2.12,1.423.675,1.889,1.1,3.884,3.715,3.951,1.232.031,1.183,1.043,1.208,1.9.032,1.113-.029,2.231.038,3.342.083,1.379.15,2.952,2.1,2.822,1.662-.11,1.793-1.566,1.744-2.8-.108-2.705-.44-5.426,3.258-6.089a1.178,1.178,0,0,0,.647-.851c.7-5.2,3.371-3.572,6.563-2.272,3.618,1.474,7.759,1.665,10.617,4.861,1.25,1.4,1.941,2.574.857,4.562-1.524,2.8-.943,6.061-1.208,9.114-.493,5.67-.672,11.366-1.03,17.048-.07,1.112.414,2.6-1.631,2.656-2.132.058-1.98-1.333-1.978-2.729.006-4.7.043-9.41-.024-14.114-.022-1.48.643-3.74-1.728-3.787-2.224-.044-1.995,2.078-2,3.676-.013,4.581-.157,9.169.052,13.741.122,2.686-.856,3.391-3.387,3.265-3.829-.19-7.674-.049-11.512-.05" transform="translate(-1.283 -44.635)" fill="#f97681"/>
    <path id="Trazado_721597" data-name="Trazado 721597" d="M133.963,132.2c0,1.979.028,3.958-.005,5.936a16,16,0,0,1-31.98.3c-.11-3.831.062-7.671-.076-11.5-.073-2.007.589-2.441,2.548-2.319a20.209,20.209,0,0,0,15.679-5.334c1.121-1.05,1.875-1.121,3.109-.258a16.022,16.022,0,0,0,7.912,2.908c2.106.175,3.066.924,2.848,3.217-.222,2.329-.049,4.7-.049,7.045Z" transform="translate(-26.078 -30.31)" fill="#f6ceb2"/>
    <path id="Trazado_721598" data-name="Trazado 721598" d="M113.353,94.772c3.28-.346,7.133-.08,9.814,3.7.906,1.277,2.094.707,3.343.36,7.081-1.964,11.774,1.633,11.957,9.1.055,2.226.028,4.454.007,6.681-.005.583.119,1.333-.673,1.519a1.288,1.288,0,0,1-1.474-.858c-1.123-2.78-3.406-3.1-6.033-3.318a13.74,13.74,0,0,1-8.142-3.221c-2.124-1.874-3.956-1.472-5.773.494a16.078,16.078,0,0,1-13.345,5.177c-2.389-.124-4.8-.652-7.142.993-1.715,1.2-1.853-.56-1.956-1.842-.865-10.774,6.325-18.672,17.123-18.784.495-.005.99,0,2.294,0" transform="translate(-24.022 -24.226)" fill="#6b6a69"/>
    <path id="Trazado_721599" data-name="Trazado 721599" d="M214.556,137.486c-.044,9.814-3.549,14.615-11.33,15.841a12.892,12.892,0,0,1-14.948-11.476c-.258-2.947.023-5.937-.129-8.9-.11-2.133,2.276-2.714,2.569-4.251,1.149-6.046,5.317-5.273,9.556-4.584a3.622,3.622,0,0,0,.741.016c2.928-.13,6.535-1.353,8.584-.077,1.856,1.156,2.266,4.79,4.3,6.946,1.708,1.813.284,4.525.659,6.482m-16.173,2.988a27.608,27.608,0,0,0-2.652.846c-1.308.568-3.258.911-2.579,2.921.71,2.1,2.394.577,3.711.679,3.2.248,6.428-.682,9.583.214,1.269.36,2.554.747,3.107-.853.53-1.534-.765-1.95-1.807-2.717-3.056-2.249-6.542.992-9.364-1.089" transform="translate(-48.151 -31.601)" fill="#f2caaf"/>
    <path id="Trazado_721600" data-name="Trazado 721600" d="M45.681,148.474c5.465-4.9,5.567-11.05,5.358-17.336-.093-2.827-1.276-4.421-4.146-4.636a12.391,12.391,0,0,1-8.485-4.054c-2.183-2.373-4.2-2.089-6.289.165a11.843,11.843,0,0,1-8.546,3.878c-3.112.114-4.29,1.819-4.421,4.767-.278,6.2.31,12.12,5.068,16.959-4.314.818-5.889.27-6.586-3.386-1.579-8.3-2-16.822.118-24.982,2.282-8.782,11.017-13.39,20.473-11.936,7.936,1.22,14.226,8.809,14.341,17.437.071,5.319.156,10.648-.062,15.96-.225,5.485-1.926,7.265-6.822,7.164" transform="translate(-4.172 -27.55)" fill="#868686"/>
    <path id="Trazado_721601" data-name="Trazado 721601" d="M49.454,140.415c.227,5.992-1.675,10.436-6.787,13.011a11.06,11.06,0,0,1-11.911-.97c-4.284-2.958-6.727-10.416-5.1-14.973.414-1.164,1.234-1.005,2.044-1.1a13.433,13.433,0,0,0,8.255-3.781c1.466-1.49,2.325-1.086,3.554.156a10,10,0,0,0,6.137,3.2c3.4.256,4.636,1.655,3.813,4.456" transform="translate(-6.436 -33.691)" fill="#f2caaf"/>
    <path id="Trazado_721602" data-name="Trazado 721602" d="M182.745,120.229c.2-9.159,7.874-16.219,17.456-16.2,9.541.019,17.394,7.259,17.42,16.146,0,1.13.554,2.862-.963,3.221a2.8,2.8,0,0,1-3.068-2.219c-.935-7.349-5.588-7.111-11.137-6.1a23.694,23.694,0,0,1-8.851-.458c-3.685-.745-5.494.644-6.366,4.347a7.343,7.343,0,0,1-.679,2.088c-.7,1.165-1.615,2.637-3.056,2.265-1.586-.409-.4-2.14-.757-3.089" transform="translate(-46.744 -26.623)" fill="#e3e3e4"/>
    <path id="Trazado_721603" data-name="Trazado 721603" d="M121.5,180.494c-1.351-.379-3.31.8-3.985-1.047-1-2.749-2.583-5.395-2.384-8.475.091-1.41,1.191-.972,1.966-.781a17.328,17.328,0,0,0,8.805-.1c1.294-.349,2.208-.173,2.154,1.483a20.625,20.625,0,0,1-2.467,8.088c-.769,1.628-2.718.454-4.089.834" transform="translate(-29.461 -43.491)" fill="#f2caaf"/>
    <path id="Trazado_721604" data-name="Trazado 721604" d="M39.826,167.484c1.5,1.6,4.324-2.217,4.964,1.188a4.82,4.82,0,0,1-4.432,5.75c-2.3-.023-4.566-2.76-4.265-5.61.311-2.945,2.6-.193,3.733-1.328" transform="translate(-9.23 -42.792)" fill="#f2caaf"/>
    <path id="Trazado_721605" data-name="Trazado 721605" d="M150.175,133.9a3.7,3.7,0,0,1,.016-1.095c.4-1.231-1.036-3.379,1.046-3.607,1.774-.194,2.9,1.538,3.536,3.229a4.79,4.79,0,0,1-.136,3.91c-.77,1.607-1.909,3.35-3.714,2.956-1.545-.336-.493-2.33-.728-3.563a9.869,9.869,0,0,1-.019-1.83" transform="translate(-38.404 -33.061)" fill="#f2caaf"/>
    <path id="Trazado_721606" data-name="Trazado 721606" d="M208.63,168.92c-1.062,5.7-1.676,6.37-5.345,5.9-1.38-.177-3.877-4.678-3.2-5.8.3-.494.785-.424,1.287-.379,1.223.108,2.457.112,3.676.249,1.195.135,2.4-.651,3.583.029" transform="translate(-51.176 -43.151)" fill="#f2caaf"/>
    <path id="Trazado_721607" data-name="Trazado 721607" d="M95.142,134.417a5.32,5.32,0,0,1-.022,1.474c-.351,1.173.948,3.139-.859,3.438-1.675.278-2.777-1.371-3.43-2.891a5.007,5.007,0,0,1-.312-3.6c.6-1.915,1.75-3.785,3.668-3.582,1.974.208.545,2.423.932,3.686a5.235,5.235,0,0,1,.022,1.474" transform="translate(-23.113 -33.076)" fill="#f2caaf"/>
    <path id="Trazado_721608" data-name="Trazado 721608" d="M181.661,136.045v7.316a3.434,3.434,0,0,1-3.173-3.551c-.034-1.826.692-3.316,3.173-3.765" transform="translate(-45.678 -34.817)" fill="#f2caaf"/>
    <path id="Trazado_721609" data-name="Trazado 721609" d="M228.83,143.341c0-1.79-.037-3.47.019-5.147.022-.658-.376-1.6.468-1.9.941-.336,1.584.47,2.088,1.135,1.6,2.111.621,4.509-2.575,5.915" transform="translate(-58.548 -34.859)" fill="#f2caaf"/>
    <path id="Trazado_721610" data-name="Trazado 721610" d="M111.742,5.1c8.056,0,16.112-.034,24.167.01,7.151.039,11.359,4.2,11.407,11.3q.069,10.038-.028,20.077c-.06,6.822-4.319,11.008-11.2,11.073-3.593.033-7.191.1-10.781-.018a7.86,7.86,0,0,0-7.446,3.971c-1.581,2.516-3.285,4.956-4.885,7.461-.945,1.48-1.752,1.5-2.705.007-1.6-2.505-3.293-4.95-4.889-7.459a7.949,7.949,0,0,0-7.452-3.982q-5.943.169-11.9-.008a10.131,10.131,0,0,1-10.086-10.24c-.107-7.062-.1-14.128-.058-21.191C75.936,9.461,80.18,5.178,86.831,5.115c8.3-.078,16.607-.019,24.911-.019m-.792,33.23V38c6.318,0,12.636.041,18.952-.033,1.345-.016,3.39.464,3.317-1.852-.066-2.092-1.9-1.93-3.38-1.928q-18.4.035-36.808.115c-1.554.007-3.658-.323-3.618,2.04.039,2.339,2.142,1.961,3.691,1.97,5.949.036,11.9.014,17.847.014m.122-10.063v-.086c6.3,0,12.609.019,18.914-.014,1.412-.007,3.313.38,3.229-1.917-.069-1.894-1.7-1.806-3.073-1.8q-18.728.031-37.457.086c-1.481.005-3.343-.113-3.247,2.008.1,2.176,2.072,1.7,3.462,1.708,6.058.044,12.115.019,18.173.019m.193-9.756v-.07q9.456,0,18.911,0c1.393,0,2.99.011,3-1.879.013-1.929-1.607-1.856-2.988-1.854q-18.911.029-37.824.068c-1.4,0-2.992,0-3.006,1.88-.014,1.921,1.609,1.854,2.992,1.855q9.456.008,18.911,0" transform="translate(-19.414 -1.299)" fill="#6cc96c"/>
    <path id="Trazado_721611" data-name="Trazado 721611" d="M197.019,35.182c5.817,0,11.635-.048,17.452.015,5.372.058,8.011,2.637,8.11,7.962.089,4.825.1,9.656-.006,14.481-.11,5.017-2.856,7.643-7.933,7.813a18.728,18.728,0,0,1-3.339-.016c-5.808-.863-10.146.921-12.563,6.572-1.228,2.87-2.607,1.989-3.555-.17-2.4-5.464-6.578-7.268-12.271-6.412a19.513,19.513,0,0,1-4.45,0c-6.151-.506-9.27-6.951-5.624-11.962,3.118-4.287,2.995-9.1,2.676-13.885-.236-3.554,1.116-4.548,4.423-4.447,5.688.173,11.386.048,17.08.048" transform="translate(-43.835 -8.99)" fill="#fcca29"/>
    <path id="Trazado_721612" data-name="Trazado 721612" d="M33.176,35.19c5.943,0,11.886.054,17.827-.024,2.662-.035,3.74.944,3.622,3.736-.235,5.561-.132,10.885,3.547,15.879,2.942,3.994-.9,9.967-6.238,10.588a26.264,26.264,0,0,1-6.3.052c-4.662-.6-7.685,1.211-9.95,5.31-2.243,4.058-2.8,4.08-4.946.059-2.317-4.339-5.56-5.532-10.283-5.417-11.842.289-12.809-.878-12.809-12.849,0-3.218-.065-6.439.025-9.656.133-4.8,2.839-7.558,7.679-7.651,5.941-.114,11.885-.027,17.827-.027" transform="translate(-1.951 -8.998)" fill="#54aad2"/>
    <path id="Trazado_721613" data-name="Trazado 721613" d="M123.3,197.787a1.576,1.576,0,0,1,1.769,1.779,1.621,1.621,0,0,1-1.9,1.676,1.555,1.555,0,0,1-1.558-1.648c-.033-1.146.475-1.819,1.694-1.807" transform="translate(-31.121 -50.618)" fill="#2b2828"/>
    <path id="Trazado_721614" data-name="Trazado 721614" d="M123.19,236.314c1.257.2,1.966.779,1.848,1.991a1.573,1.573,0,0,1-1.753,1.511c-1.3.016-1.711-.76-1.664-1.9.043-1.074.789-1.423,1.569-1.6" transform="translate(-31.124 -60.478)" fill="#2b2828"/>
    <path id="Trazado_721615" data-name="Trazado 721615" d="M123.253,214.081a1.58,1.58,0,0,1-1.588-1.939,1.459,1.459,0,0,1,1.73-1.42,1.569,1.569,0,0,1,1.616,1.922,1.531,1.531,0,0,1-1.758,1.437" transform="translate(-31.133 -53.927)" fill="#262623"/>
    <path id="Trazado_721616" data-name="Trazado 721616" d="M125.033,225.125c.019.963-.36,1.673-1.363,1.81a1.563,1.563,0,0,1-2.005-1.51,1.491,1.491,0,0,1,1.33-1.819,1.634,1.634,0,0,1,2.038,1.518" transform="translate(-31.133 -57.219)" fill="#262623"/>
    <path id="Trazado_721617" data-name="Trazado 721617" d="M213.27,201.669c-.613,0-1.225,0-1.839-.005-1.223-.019-2.287-.432-2.338-1.79s.968-1.873,2.2-1.906c1.348-.035,2.7,0,4.045-.023,1.319-.022,2.577.132,2.63,1.8s-1.138,1.955-2.5,1.926c-.735-.016-1.471,0-2.206-.007" transform="translate(-53.511 -50.658)" fill="#262623"/>
    <path id="Trazado_721618" data-name="Trazado 721618" d="M200.057,146.319c2.822,2.081,6.308-1.159,9.364,1.089,1.042.766,2.336,1.183,1.807,2.717-.554,1.6-1.838,1.214-3.107.853-3.155-.9-6.379.034-9.583-.214-1.317-.1-3,1.424-3.711-.679-.679-2.011,1.271-2.353,2.579-2.921a27.608,27.608,0,0,1,2.652-.846" transform="translate(-49.824 -37.446)" fill="#2c2727"/>
    <path id="Trazado_721619" data-name="Trazado 721619" d="M115.611,48.337c-5.949,0-11.9.022-17.846-.014-1.548-.01-3.653.369-3.691-1.97-.039-2.363,2.065-2.033,3.618-2.04q18.4-.093,36.809-.115c1.477,0,3.314-.164,3.38,1.928.074,2.316-1.972,1.836-3.317,1.852-6.316.073-12.634.033-18.952.033,0,.109,0,.218,0,.327" transform="translate(-24.075 -11.31)" fill="#2b2828"/>
    <path id="Trazado_721620" data-name="Trazado 721620" d="M115.741,34.923c-6.058,0-12.115.025-18.172-.019-1.391-.01-3.365.467-3.463-1.708-.1-2.121,1.766-2,3.247-2.008q18.728-.059,37.457-.086c1.372,0,3-.091,3.073,1.8.084,2.3-1.817,1.91-3.229,1.917-6.3.032-12.609.014-18.914.014v.086" transform="translate(-24.083 -7.959)" fill="#262623"/>
    <path id="Trazado_721621" data-name="Trazado 721621" d="M115.909,21.817q-9.456,0-18.912,0c-1.383,0-3.006.066-2.992-1.855.014-1.877,1.607-1.877,3.006-1.88q18.913-.037,37.824-.068c1.381,0,3-.074,2.988,1.854-.013,1.89-1.61,1.877-3,1.879q-9.456.009-18.911,0Z" transform="translate(-24.058 -4.609)" fill="#262623"/>
  </g>
</svg>
