<svg xmlns="http://www.w3.org/2000/svg" xmlns:xlink="http://www.w3.org/1999/xlink" width="169" height="169" viewBox="0 0 169 169">
  <defs>
    <clipPath id="clip-path">
      <rect id="Rect치ngulo_351447" data-name="Rect치ngulo 351447" width="131.842" height="131.825" fill="none"/>
    </clipPath>
  </defs>
  <g id="Grupo_1018504" data-name="Grupo 1018504" transform="translate(7164.499 4174.756)">
    <g id="Grupo_1018366" data-name="Grupo 1018366" transform="translate(-7549.5 -6232.756)">
      <g id="Grupo_159182" data-name="Grupo 159182" transform="translate(385.001 2058)">
        <path id="Uni칩n_12" data-name="Uni칩n 12" d="M84.5,0A84.5,84.5,0,1,1,0,84.5,84.5,84.5,0,0,1,84.5,0Z" transform="translate(0 0)" fill="#cda7ff"/>
      </g>
    </g>
    <g id="Grupo_1018459" data-name="Grupo 1018459" transform="translate(-7145.011 -4156.169)">
      <g id="Grupo_1018458" data-name="Grupo 1018458" clip-path="url(#clip-path)">
        <path id="Trazado_721948" data-name="Trazado 721948" d="M118.578,114.748c1.659.27,1.9,1.45,1.895,2.854-.023,3.6,0,7.209-.011,10.813-.012,2.958-.461,3.41-3.449,3.409q-27.291-.01-54.582-.038c-6.952-.006-13.9-.1-20.853.027a5.737,5.737,0,0,1-5.138-2.222c-.415-.54-1.006-.943-1.434-1.475-3.44-4.285-7.591-7.082-13.3-7.68-3.618-.379-5.766-3.8-5.427-7.284a6.738,6.738,0,0,1,6.693-6.2,45.1,45.1,0,0,1,5.661.006c2.048.162,3.129-.162,2.917-2.663A4.895,4.895,0,0,1,34.7,99.411a5.115,5.115,0,0,1,5.569.627,5.011,5.011,0,0,1,2.079,4.728,4.025,4.025,0,0,0,1.52,3.525c3.322,3.3,6.508,6.745,10.025,9.937.675-3.119.579-6.025,1.266-8.844a32.158,32.158,0,0,1,7.969-15.027c1.264-1.313,1.122-1.975-.059-3.2A30.725,30.725,0,0,1,55.3,76.6c-.324-1.386-.711-1.887-2.219-2.081-6.419-.828-10.539-5.271-10.838-11.674-.077-1.647-.75-1.713-2.015-1.709-9.526.035-19.052.022-28.578.018C3.72,61.146.006,57.434.005,49.518Q0,30.08.01,10.641C.02,4,4.247-.072,10.845,0c1.58.018,2.666.446,3.088,2.049-.514,1.735-1.814,1.99-3.413,2.01-4.539.056-6.533,2.094-6.541,6.668q-.035,19.808,0,39.615c.007,4.781,2.114,6.831,6.956,6.835,11.662.01,23.324.053,34.985-.043a6.041,6.041,0,0,1,4.91,2.1c3.091,3.329,6.321,6.531,9.547,9.731.666.661,1.167,2.024,2.414,1.436,1.045-.493.544-1.7.545-2.585q.038-28.3.018-56.592c0-5.155-2.009-7.187-7.114-7.19q-17.493-.012-34.985.015c-1.655.005-3.11-.12-3.687-1.995.3-1.538,1.33-2.036,2.79-2.034,12.434.014,24.868-.029,37.3.04a9.014,9.014,0,0,1,8.092,4.645c.766,1.317,1.367,1.42,2.785,1.111a21.119,21.119,0,0,1,18.958,4.7,1.82,1.82,0,0,0,2.6.208c4.066-2.469,8.124-2.12,11.851,1.029,1.057.893,1.546.78,2.42-.118,3.348-3.442,6.815-6.768,10.145-10.227,1.565-1.625,2.755-1.49,4.269.095,7.5,7.853,9.53,20.379,4.717,30.615a3.3,3.3,0,0,0,.327,3.8c3.167,4.938,2.6,9.886-.762,14.749,5.269,2.038,8.511,5.682,8.77,11.421a11.7,11.7,0,0,1-9.417,12.092c-2.059.4-2.672,1.291-3.131,3.189A29.773,29.773,0,0,1,111.9,90.988c-1.283,1.356-1.49,2.121-.054,3.59a31.188,31.188,0,0,1,7.422,13.318c.5,1.7.307,2.976-1.334,3.845-1.659-.225-2.126-1.482-2.56-2.845-.723-2.277-1.3-4.634-3.171-6.9-.894,4.087-1.875,7.718-2.434,11.413-.418,2.766-1.62,3.954-4.4,3.539-2.114-.315-2.761.427-1.447,2.279,1.634,2.306.938,4.063-1.049,5.746-.832.7-1.931,1.357-2.189,2.8,4.729,0,9.269-.062,13.805.032,1.681.035,2.006-.7,1.963-2.154-.079-2.654,0-5.313-.03-7.97-.021-1.554.408-2.708,2.154-2.931m-98.047.172a1.987,1.987,0,0,0,1.253,1.479c4.347,2.341,7.918,1.709,11.272-1.992l3.866-3.605c-5.052,0-9.445-.1-13.832.041-2.295.073-3.145,1.64-2.56,4.077m25.364,12.7H57.627c-3.807-3.857-7.321-7.456-10.876-11.012-5.343-5.344-5.356-5.332-10.441.382a2.491,2.491,0,0,0-.257.44c-.76.672-1.536,1.326-2.272,2.024-.348.33-.892.728-.359,1.267a65.1,65.1,0,0,0,6.748,6.58c1.53,1.155,3.786.4,5.723.32m24.684.1h4.068l-3.523-3.632a3.287,3.287,0,0,1-.548-4.19c1.051-2.219.562-2.986-1.932-2.926-2.145.052-3.037-.815-3.424-2.883-.737-3.942-1.725-7.836-2.714-12.218A29.947,29.947,0,0,0,58.272,118c0,1.655-.678,3.51.6,4.958,2.546,2.9,5.089,5.892,9.66,4.813a9.828,9.828,0,0,1,2.05-.055m4.152-83a13.848,13.848,0,0,0,8.388-2.777,3.879,3.879,0,0,1,4.674-.329A22.442,22.442,0,0,0,101.72,43.9c17.563-2.557,26.351-22.756,16.135-37.219-.927-1.312-1.424-1.563-2.63-.3-3.318,3.474-6.742,6.848-10.176,10.208-2.1,2.057-3.026,1.919-4.561-.48-2.18-3.408-6.787-4.067-9.449-1.076-1.765,1.983-3.012,1.774-4.589,0A16.383,16.383,0,0,0,75.256,9.413c-.926-.047-1.853-.142-2.779-.131-4.734.051-5.043.361-5.031,4.963,0,.928.062,1.856.095,2.784q-.333,10.015,0,20.03c-.463,7.557.12,8.177,7.19,7.661M87.08,97.827c14.684,1.039,28.857-11.946,29.3-27.091.238-8.232.054-16.476.031-24.714a6.945,6.945,0,0,0-.671-3.689,1.779,1.779,0,0,0-.52.143c-8.908,6.317-18.394,7.4-28.459,3.131a1.837,1.837,0,0,0-1.915.027c-5.21,3.279-10.883,3.85-16.821,2.8-1.278.367-.666,1.42-.673,2.134-.055,5.744-.025,11.49-.033,17.235-.008,6.091-3.043,8.116-8.446,5.647.661,12.854,14.867,25.128,28.212,24.375m5.154,29.911c2.063,0,6.28-2.959,7.772-5.6,1.016-1.8-.842-2.939-1.239-4.424-.13-.487-.486-.91-.655-1.392-.726-2.058.119-3.367,2.289-3.492,1.2-.069,2.4-.036,3.6-.011a1.8,1.8,0,0,0,2.127-1.657c.741-3.763,1.686-7.486,2.438-11.246.28-1.4.634-3.235-1.1-3.816-1.634-.547-2.779.784-3.611,2.142-.178.291-.309.612-.462.918q-6.424,12.879-12.846,25.759c-1.358,2.727-1.29,2.821,1.691,2.822m-7.033-.107a6.436,6.436,0,0,0-.292-1.1q-6.79-13.864-13.595-27.722a4.163,4.163,0,0,0-1.867-2.046c-.792-.394-1.42-1.4-2.5-.625a2.42,2.42,0,0,0-.922,2.736c.809,3.667,1.759,7.31,2.383,11.008.389,2.3,1.36,3.062,3.709,2.989,5.473-.168,5.974.761,3.574,5.666-.478.979-1.508,2.055-.851,3.087a23.634,23.634,0,0,0,5.531,5.687c1.292,1.013,3.1.393,4.832.322M120.522,66.3c0,.685,0,1.37,0,2.055.013,2.44.366,2.7,2.6,1.591a7.878,7.878,0,0,0,4.763-7.327,7.732,7.732,0,0,0-4.512-7.456c-.824-.42-2.186-1.563-2.722.012-.374,1.1-.9,2.968,1.361,3.4a5.392,5.392,0,0,1,4.023,3.268,1.833,1.833,0,0,1-.635,2.491,1.782,1.782,0,0,1-2.52-.374c-.556-.617-.971-1.792-1.882-1.44-1.063.411-.273,1.647-.462,2.5a6.034,6.034,0,0,0-.015,1.281M46.036,62.585a8.284,8.284,0,0,0,5.731,7.682c.8.26,1.808.756,2.364-.022.581-.813.133-1.794-.576-2.524Q50.7,64.787,47.839,61.86c-.349-.356-.715-.831-1.289-.6s-.5.824-.513,1.329M95.068,106.76c1.065-2.148,2.343-3.97,2.9-6.643-2.532,1.069-4.812,1.181-7.374,1.813l4.478,4.83M87.3,111.346c1.231-1.058,2.588-2.23,2.754-3.6a3.2,3.2,0,0,0-2.587-3.039c-1.267-.089-2.735,1.644-2.777,2.848-.049,1.406,1.585,2.486,2.609,3.788m-7.717-4.717A24.741,24.741,0,0,0,84,101.884l-7.479-1.574,3.066,6.319m41.142-59.906a7.1,7.1,0,0,0,.855-6.444c-.309-.9-.3-2.414-1.521-2.162-1.024.211-.585,1.617-.448,2.5.3,1.923.693,3.831,1.114,6.1M38.608,105.517c-.038-1.423-.1-2.655-1.665-2.614-1.385.036-1.42,1.151-1.485,2.238-.075,1.254.259,1.891,1.664,1.9,1.364,0,1.58-.7,1.485-1.519m48.743,16.7c.7-1.279,1.937-2.178.675-3.546-.361-.391-.624-.68-1.181-.124-1.319,1.318-.18,2.269.507,3.67" transform="translate(0 0)" fill="#060606"/>
        <path id="Trazado_721949" data-name="Trazado 721949" d="M21.289,3.984c.577,1.876,2.032,2,3.688,2q17.493-.051,34.985-.015c5.1,0,7.113,2.034,7.114,7.19q.007,28.3-.018,56.592c0,.884.5,2.093-.545,2.586-1.247.588-1.748-.776-2.414-1.436-3.226-3.2-6.456-6.4-9.547-9.731a6.038,6.038,0,0,0-4.91-2.1c-11.661.1-23.323.053-34.985.043-4.841,0-6.949-2.054-6.956-6.835q-.03-19.807,0-39.614c.008-4.574,2-6.613,6.541-6.668,1.6-.02,2.9-.275,3.414-2.01l3.63.007M37.2,19.05q9.893,0,19.786,0c1.406,0,2.973.091,2.992-1.886s-1.518-1.932-2.945-1.932q-19.657.009-39.315-.006c-1.453,0-3.008.045-3.03,1.89s1.518,1.945,2.982,1.941c6.51-.021,13.019-.009,19.529-.009m.268,5.988c-6.6,0-13.191.013-19.786-.01-1.465-.006-3,.076-2.992,1.923s1.566,1.914,3.017,1.912q19.657-.018,39.314-.006c1.421,0,2.97.033,2.958-1.93s-1.566-1.9-2.983-1.893q-9.764.012-19.529,0m.016,23.41h19.53c1.411,0,2.973.052,2.963-1.923S58.429,44.617,57,44.618q-19.658.011-39.317-.006c-1.466,0-3,.078-3,1.922s1.554,1.925,3.007,1.922c6.6-.016,13.192-.007,19.787-.007M30.518,34.823c-4.372,0-8.745.02-13.117-.011-1.438-.01-2.74.3-2.714,1.959s1.39,1.9,2.792,1.9q12.988-.022,25.977,0c1.414,0,2.728-.246,2.7-1.972s-1.373-1.891-2.773-1.882c-4.287.027-8.573.01-12.86.01m24.737.039c-1.106,0-2.216-.052-3.318.014a1.746,1.746,0,0,0-1.734,1.85,1.713,1.713,0,0,0,1.719,1.858c2.125.066,4.254.065,6.38.01A1.659,1.659,0,0,0,60,36.742a1.684,1.684,0,0,0-1.677-1.872c-1.017-.063-2.042-.013-3.064-.008" transform="translate(-3.726 -1.928)" fill="#92e9f8"/>
        <path id="Trazado_721950" data-name="Trazado 721950" d="M213.276,210.676c-1.746.223-2.174,1.376-2.154,2.931.035,2.656-.048,5.315.03,7.969.043,1.457-.281,2.189-1.963,2.154-4.536-.095-9.076-.032-13.805-.032.258-1.445,1.357-2.1,2.19-2.8,1.987-1.683,2.683-3.44,1.049-5.746-1.313-1.853-.667-2.595,1.448-2.279,2.78.415,3.982-.773,4.4-3.539.558-3.695,1.54-7.326,2.433-11.413,1.867,2.27,2.448,4.629,3.171,6.9.433,1.363.9,2.62,2.56,2.845l.642,3.008" transform="translate(-94.699 -95.927)" fill="#3d5066"/>
        <path id="Trazado_721951" data-name="Trazado 721951" d="M131.955,88.254c5.938,1.049,11.611.478,16.821-2.8a1.837,1.837,0,0,1,1.914-.027c10.065,4.267,19.551,3.186,28.459-3.131a1.767,1.767,0,0,1,.52-.143,6.95,6.95,0,0,1,.671,3.689c.023,8.238.207,16.483-.031,24.714-.438,15.145-14.611,28.131-29.3,27.091a13.23,13.23,0,0,0-1.267-.842c-11.9-6.122-17.534-16.084-17.779-29.255-.12-6.43-.016-12.863-.013-19.295m26.721,28.58c.073-3.679-2.4-5.578-7.286-5.592-4.906-.014-7.409,1.847-7.386,5.491a7.337,7.337,0,0,0,14.672.1m4.2-16.232c0,1.285-.044,2.572.013,3.855a1.879,1.879,0,0,0,1.913,2,1.828,1.828,0,0,0,2.031-1.873c.094-2.566.088-5.14-.009-7.706A1.834,1.834,0,0,0,164.8,94.99a1.915,1.915,0,0,0-1.914,2.015c-.061,1.2-.013,2.4-.015,3.6m-23.163.043c0-1.2.014-2.4,0-3.6a1.842,1.842,0,0,0-1.863-2.033,1.783,1.783,0,0,0-1.929,1.95c-.044,2.487-.029,4.976-.012,7.464a1.774,1.774,0,0,0,1.862,2.006c1.37,0,1.966-.85,1.956-2.179-.01-1.2,0-2.4-.009-3.6" transform="translate(-63.934 -39.817)" fill="#fcc9b1"/>
        <path id="Trazado_721952" data-name="Trazado 721952" d="M130.91,42.285q-.328-10.014,0-20.029a77.161,77.161,0,0,1,7.715-7.616,16.386,16.386,0,0,1,11.193,5.622c1.578,1.773,2.824,1.982,4.589,0,2.662-2.991,7.269-2.332,9.449,1.076,1.534,2.4,2.459,2.536,4.561.48,3.434-3.361,6.858-6.735,10.176-10.208,1.206-1.263,1.7-1.011,2.63.3,10.217,14.464,1.428,34.663-16.135,37.219a22.441,22.441,0,0,1-13.927-2.287,3.878,3.878,0,0,0-4.674.329,13.856,13.856,0,0,1-8.388,2.778l-7.19-7.663" transform="translate(-63.37 -5.226)" fill="#3d5167"/>
        <path id="Trazado_721953" data-name="Trazado 721953" d="M123.388,93.994c0,6.432-.106,12.865.013,19.295.245,13.171,5.875,23.133,17.779,29.254a13.161,13.161,0,0,1,1.267.842c-13.344.753-27.55-11.521-28.212-24.375,5.4,2.469,8.438.444,8.447-5.647.008-5.745-.023-11.49.033-17.235.007-.714-.6-1.767.673-2.134" transform="translate(-55.367 -45.557)" fill="#e49674"/>
        <path id="Trazado_721954" data-name="Trazado 721954" d="M176.592,218c-2.982,0-3.049-.1-1.691-2.822q6.413-12.885,12.847-25.759c.153-.307.283-.627.462-.918.832-1.358,1.977-2.689,3.611-2.142,1.736.581,1.382,2.414,1.1,3.816-.752,3.761-1.7,7.483-2.438,11.246a1.8,1.8,0,0,1-2.127,1.657c-1.2-.025-2.4-.058-3.6.011-2.17.125-3.014,1.434-2.289,3.492.17.481.525.9.656,1.391.4,1.485,2.256,2.624,1.239,4.424-1.492,2.644-5.709,5.605-7.772,5.6" transform="translate(-84.359 -90.265)" fill="#162534"/>
        <path id="Trazado_721955" data-name="Trazado 721955" d="M147.209,217.784c-1.727.071-3.54.692-4.832-.322a23.634,23.634,0,0,1-5.531-5.687c-.658-1.032.373-2.109.851-3.087,2.4-4.905,1.9-5.834-3.574-5.666-2.348.072-3.32-.685-3.709-2.989-.624-3.7-1.574-7.341-2.383-11.009a2.42,2.42,0,0,1,.922-2.736c1.084-.773,1.711.23,2.5.625a4.159,4.159,0,0,1,1.867,2.046q6.791,13.863,13.595,27.721a6.436,6.436,0,0,1,.292,1.1" transform="translate(-62.009 -90.153)" fill="#162534"/>
        <path id="Trazado_721956" data-name="Trazado 721956" d="M125.215,223.528a9.826,9.826,0,0,0-2.05.055c-4.571,1.079-7.114-1.916-9.66-4.813-1.273-1.449-.594-3.3-.6-4.958a29.951,29.951,0,0,1,4.233-16.132c.989,4.381,1.976,8.276,2.714,12.218.387,2.068,1.279,2.935,3.424,2.883,2.495-.06,2.984.706,1.932,2.926a3.287,3.287,0,0,0,.548,4.19c-1.048,1.081-.368,2.421-.545,3.632" transform="translate(-54.638 -95.811)" fill="#26384b"/>
        <path id="Trazado_721957" data-name="Trazado 721957" d="M69.963,223.381a2.5,2.5,0,0,1,.257-.44c5.086-5.714,5.1-5.726,10.441-.382,3.556,3.557,7.07,7.155,10.876,11.012H79.8c-2.719-3.939-6.375-6.973-9.841-10.191" transform="translate(-33.91 -105.952)" fill="#3d5066"/>
        <path id="Trazado_721958" data-name="Trazado 721958" d="M233.685,117.431a6.067,6.067,0,0,1,.015-1.281c.189-.851-.6-2.088.462-2.5.911-.352,1.326.823,1.882,1.44a1.782,1.782,0,0,0,2.52.374,1.832,1.832,0,0,0,.635-2.491,5.392,5.392,0,0,0-4.023-3.268c-2.265-.433-1.736-2.3-1.361-3.4.536-1.576,1.9-.433,2.722-.012a7.731,7.731,0,0,1,4.512,7.456,7.878,7.878,0,0,1-4.763,7.327c-2.235,1.107-2.588.849-2.6-1.591,0-.685,0-1.37,0-2.055" transform="translate(-113.163 -51.133)" fill="#f2bca3"/>
        <path id="Trazado_721959" data-name="Trazado 721959" d="M67.279,227.876c3.466,3.218,7.121,6.252,9.841,10.191-1.937.077-4.193.835-5.723-.32a65.2,65.2,0,0,1-6.748-6.58c-.532-.54.011-.937.36-1.267.735-.7,1.511-1.352,2.271-2.024" transform="translate(-31.226 -110.447)" fill="#26384b"/>
        <path id="Trazado_721960" data-name="Trazado 721960" d="M39.672,219.1c-.585-2.436.265-4,2.559-4.077,4.386-.139,8.781-.04,13.832-.04l-3.866,3.6c-4.178.088-8.382-.455-12.525.512" transform="translate(-19.141 -104.184)" fill="#f5c3ac"/>
        <path id="Trazado_721961" data-name="Trazado 721961" d="M89.331,120.144c.019-.505-.07-1.1.514-1.329s.94.248,1.289.6q2.867,2.923,5.716,5.862c.71.73,1.157,1.711.577,2.524-.556.778-1.563.281-2.364.022a8.286,8.286,0,0,1-5.732-7.683" transform="translate(-43.296 -57.559)" fill="#f5c3ac"/>
        <path id="Trazado_721962" data-name="Trazado 721962" d="M39.84,222.458c4.143-.967,8.347-.425,12.525-.512-3.354,3.7-6.924,4.333-11.272,1.992a1.987,1.987,0,0,1-1.253-1.48" transform="translate(-19.31 -107.537)" fill="#e49674"/>
        <path id="Trazado_721963" data-name="Trazado 721963" d="M138.693,18.144a77.211,77.211,0,0,0-7.715,7.615c-.032-.928-.092-1.856-.094-2.784-.013-4.6.3-4.912,5.031-4.963.926-.01,1.853.085,2.779.131" transform="translate(-63.437 -8.73)" fill="#26384b"/>
        <path id="Trazado_721964" data-name="Trazado 721964" d="M130.953,71.915l7.19,7.663c-7.07.515-7.652-.106-7.19-7.663" transform="translate(-63.412 -34.856)" fill="#26384b"/>
        <path id="Trazado_721965" data-name="Trazado 721965" d="M180.273,200.925l-4.478-4.83c2.562-.633,4.842-.745,7.374-1.813-.553,2.673-1.832,4.5-2.9,6.642" transform="translate(-85.204 -94.165)" fill="#aba8bb"/>
        <path id="Trazado_721966" data-name="Trazado 721966" d="M166.957,209.829c-1.024-1.3-2.659-2.381-2.61-3.788.042-1.2,1.51-2.937,2.777-2.848a3.2,3.2,0,0,1,2.587,3.039c-.166,1.367-1.524,2.538-2.754,3.6" transform="translate(-79.655 -98.482)" fill="#ed6da5"/>
        <path id="Trazado_721967" data-name="Trazado 721967" d="M151.553,200.977l-3.066-6.319,7.479,1.574a24.756,24.756,0,0,1-4.413,4.745" transform="translate(-71.969 -94.347)" fill="#aba8bb"/>
        <path id="Trazado_721968" data-name="Trazado 721968" d="M233.027,82.549c-.422-2.272-.817-4.18-1.115-6.1-.137-.886-.576-2.293.448-2.5,1.224-.252,1.213,1.265,1.522,2.162a7.1,7.1,0,0,1-.855,6.444" transform="translate(-112.301 -35.825)" fill="#26384b"/>
        <path id="Trazado_721969" data-name="Trazado 721969" d="M71.948,202.3c.1.824-.121,1.524-1.485,1.519-1.406,0-1.74-.641-1.664-1.9.065-1.087.1-2.2,1.485-2.238,1.56-.041,1.627,1.19,1.665,2.614" transform="translate(-33.341 -96.784)" fill="#e49674"/>
        <path id="Trazado_721970" data-name="Trazado 721970" d="M136.906,244.423c.177-1.212-.5-2.551.545-3.632l3.524,3.632Z" transform="translate(-66.328 -116.707)" fill="#3d5066"/>
        <path id="Trazado_721971" data-name="Trazado 721971" d="M168.459,233.424c-.686-1.4-1.826-2.352-.507-3.67.557-.556.82-.267,1.181.124,1.263,1.368.028,2.268-.675,3.546" transform="translate(-81.109 -111.207)" fill="#ed6da5"/>
        <path id="Trazado_721972" data-name="Trazado 721972" d="M43.788,29.631c-6.51,0-13.019-.011-19.529.009-1.465,0-3-.091-2.982-1.941s1.576-1.892,3.03-1.891q19.657.024,39.315.006c1.427,0,2.964-.039,2.945,1.931s-1.586,1.887-2.992,1.886q-9.893-.005-19.786,0" transform="translate(-10.313 -12.509)" fill="#000101"/>
        <path id="Trazado_721973" data-name="Trazado 721973" d="M44.057,44.835q9.764,0,19.529,0c1.417,0,2.972-.076,2.984,1.893s-1.537,1.93-2.958,1.93q-19.658,0-39.315.006c-1.452,0-3.009-.064-3.017-1.913s1.528-1.929,2.992-1.923c6.6.023,13.191.01,19.786.01" transform="translate(-10.313 -21.726)" fill="#000101"/>
        <path id="Trazado_721974" data-name="Trazado 721974" d="M44.073,86.666c-6.6,0-13.192-.009-19.787.007-1.452,0-3.007-.067-3.007-1.922s1.531-1.924,3-1.922q19.658.027,39.317.006c1.424,0,2.965-.057,2.974,1.907s-1.552,1.924-2.963,1.923H44.073" transform="translate(-10.314 -40.146)" fill="#000101"/>
        <path id="Trazado_721975" data-name="Trazado 721975" d="M37.1,63.824c4.286,0,8.573.018,12.86-.01,1.4-.009,2.742.151,2.774,1.882s-1.282,1.974-2.7,1.972q-12.988-.017-25.977,0c-1.4,0-2.766-.224-2.791-1.9s1.276-1.97,2.714-1.959c4.372.031,8.744.011,13.117.011" transform="translate(-10.309 -30.929)" fill="#000101"/>
        <path id="Trazado_721976" data-name="Trazado 721976" d="M95.244,63.884c1.021,0,2.046-.053,3.064.01a1.684,1.684,0,0,1,1.677,1.873,1.658,1.658,0,0,1-1.694,1.852c-2.125.056-4.254.056-6.38-.01a1.713,1.713,0,0,1-1.719-1.858,1.746,1.746,0,0,1,1.734-1.85c1.1-.066,2.212-.014,3.318-.018" transform="translate(-43.714 -30.953)" fill="#000101"/>
        <path id="Trazado_721977" data-name="Trazado 721977" d="M170.049,144.2a7.337,7.337,0,0,1-14.672-.1c-.023-3.644,2.48-5.505,7.386-5.491,4.885.014,7.359,1.912,7.286,5.592m-7.44,3.28a3.366,3.366,0,0,0,3.416-3.15c0-2.173-1.75-1.81-2.982-1.827-1.412-.019-3.321-.539-3.707,1.651-.272,1.539,1.572,3.276,3.274,3.326" transform="translate(-75.308 -67.178)" fill="#070505"/>
        <path id="Trazado_721978" data-name="Trazado 721978" d="M191.978,112.676c0-1.2-.047-2.4.014-3.6a1.914,1.914,0,0,1,1.913-2.015,1.834,1.834,0,0,1,2.019,1.889c.1,2.566.1,5.14.009,7.706a1.829,1.829,0,0,1-2.031,1.873,1.879,1.879,0,0,1-1.912-2c-.058-1.283-.013-2.569-.012-3.855" transform="translate(-93.04 -51.89)" fill="#0e0b0a"/>
        <path id="Trazado_721979" data-name="Trazado 721979" d="M143.449,112.737c0,1.2,0,2.4.006,3.6.011,1.329-.585,2.183-1.955,2.179a1.774,1.774,0,0,1-1.863-2.006c-.018-2.488-.032-4.977.012-7.464a1.783,1.783,0,0,1,1.929-1.95,1.842,1.842,0,0,1,1.863,2.033c.019,1.2,0,2.4.008,3.6" transform="translate(-67.671 -51.908)" fill="#000101"/>
        <path id="Trazado_721980" data-name="Trazado 721980" d="M166.308,151.075c-1.7-.051-3.545-1.787-3.274-3.326.387-2.189,2.3-1.669,3.707-1.651,1.232.016,2.982-.346,2.982,1.827a3.366,3.366,0,0,1-3.416,3.15" transform="translate(-79.006 -70.779)" fill="#ed6da5"/>
      </g>
    </g>
  </g>
</svg>
