<svg id="Grupo_1018228" data-name="Grupo 1018228" xmlns="http://www.w3.org/2000/svg" xmlns:xlink="http://www.w3.org/1999/xlink" width="95.358" height="83.641" viewBox="0 0 95.358 83.641">
  <defs>
    <clipPath id="clip-path">
      <rect id="Rectángulo_350978" data-name="Rectángulo 350978" width="95.358" height="83.641" fill="none"/>
    </clipPath>
  </defs>
  <rect id="Rectángulo_350951" data-name="Rectángulo 350951" width="95.358" height="77.844" transform="translate(0 5.798)" fill="#f2f2f2"/>
  <rect id="Rectángulo_350952" data-name="Rectángulo 350952" width="95.358" height="14.353" transform="translate(0 5.717)" fill="#3ed0ee"/>
  <rect id="Rectángulo_350953" data-name="Rectángulo 350953" width="9.355" height="9.355" transform="translate(80.084 25.178)" fill="#ccb8c6"/>
  <rect id="Rectángulo_350954" data-name="Rectángulo 350954" width="9.355" height="9.355" transform="translate(67.694 25.178)" fill="#ccb8c6"/>
  <rect id="Rectángulo_350955" data-name="Rectángulo 350955" width="9.355" height="9.355" transform="translate(55.637 25.178)" fill="#ccb8c6"/>
  <rect id="Rectángulo_350956" data-name="Rectángulo 350956" width="9.355" height="9.355" transform="translate(43.247 25.178)" fill="#ccb8c6"/>
  <rect id="Rectángulo_350957" data-name="Rectángulo 350957" width="9.355" height="9.355" transform="translate(30.525 25.178)" fill="#ccb8c6"/>
  <rect id="Rectángulo_350958" data-name="Rectángulo 350958" width="9.355" height="9.355" transform="translate(18.135 25.178)" fill="#0da9c9"/>
  <rect id="Rectángulo_350959" data-name="Rectángulo 350959" width="9.355" height="9.355" transform="translate(6.244 25.178)" fill="#0da9c9"/>
  <rect id="Rectángulo_350960" data-name="Rectángulo 350960" width="9.355" height="9.355" transform="translate(80.084 37.584)" fill="#ccb8c6"/>
  <rect id="Rectángulo_350961" data-name="Rectángulo 350961" width="9.355" height="9.355" transform="translate(67.694 37.584)" fill="#ccb8c6"/>
  <rect id="Rectángulo_350962" data-name="Rectángulo 350962" width="9.355" height="9.355" transform="translate(55.637 37.584)" fill="#ccb8c6"/>
  <rect id="Rectángulo_350963" data-name="Rectángulo 350963" width="9.355" height="9.355" transform="translate(43.247 37.584)" fill="#ccb8c6"/>
  <rect id="Rectángulo_350964" data-name="Rectángulo 350964" width="9.355" height="9.355" transform="translate(30.525 37.584)" fill="#ccb8c6"/>
  <rect id="Rectángulo_350965" data-name="Rectángulo 350965" width="9.355" height="9.355" transform="translate(18.135 37.584)" fill="#0da9c9"/>
  <rect id="Rectángulo_350966" data-name="Rectángulo 350966" width="9.355" height="9.355" transform="translate(6.244 37.584)" fill="#0da9c9"/>
  <rect id="Rectángulo_350967" data-name="Rectángulo 350967" width="9.355" height="9.355" transform="translate(80.084 49.99)" fill="#ccb8c6"/>
  <rect id="Rectángulo_350968" data-name="Rectángulo 350968" width="9.355" height="9.355" transform="translate(67.694 49.99)" fill="#ccb8c6"/>
  <rect id="Rectángulo_350969" data-name="Rectángulo 350969" width="9.355" height="9.355" transform="translate(55.637 49.99)" fill="#ccb8c6"/>
  <rect id="Rectángulo_350970" data-name="Rectángulo 350970" width="9.355" height="9.355" transform="translate(43.247 49.99)" fill="#ccb8c6"/>
  <rect id="Rectángulo_350971" data-name="Rectángulo 350971" width="9.355" height="9.355" transform="translate(30.525 49.99)" fill="#ccb8c6"/>
  <rect id="Rectángulo_350972" data-name="Rectángulo 350972" width="9.355" height="9.355" transform="translate(18.135 49.99)" fill="#0da9c9"/>
  <rect id="Rectángulo_350973" data-name="Rectángulo 350973" width="9.355" height="9.355" transform="translate(6.244 49.99)" fill="#0da9c9"/>
  <rect id="Rectángulo_350974" data-name="Rectángulo 350974" width="9.355" height="9.355" transform="translate(80.084 63.613)" fill="#ccb8c6"/>
  <rect id="Rectángulo_350975" data-name="Rectángulo 350975" width="9.355" height="9.355" transform="translate(67.694 63.613)" fill="#ccb8c6"/>
  <rect id="Rectángulo_350976" data-name="Rectángulo 350976" width="9.355" height="9.355" transform="translate(55.637 63.613)" fill="#ccb8c6"/>
  <rect id="Rectángulo_350977" data-name="Rectángulo 350977" width="9.355" height="9.355" transform="translate(43.247 63.613)" fill="#ccb8c6"/>
  <g id="Grupo_1018227" data-name="Grupo 1018227">
    <g id="Grupo_1018226" data-name="Grupo 1018226" clip-path="url(#clip-path)">
      <path id="Trazado_720765" data-name="Trazado 720765" d="M33.973,0h3.445a.1.1,0,0,1,.1.1V10.48a.1.1,0,0,1-.1.1H33.973a.1.1,0,0,1-.1-.1V.1a.1.1,0,0,1,.1-.1" transform="translate(-28.965)" fill="#a8daf5"/>
      <path id="Trazado_720766" data-name="Trazado 720766" d="M104.513,0h3.445a.1.1,0,0,1,.1.1V10.48a.1.1,0,0,1-.1.1h-3.445a.1.1,0,0,1-.1-.1V.1a.1.1,0,0,1,.1-.1" transform="translate(-89.288)" fill="#a8daf5"/>
      <path id="Trazado_720767" data-name="Trazado 720767" d="M180.931,0h3.445a.1.1,0,0,1,.1.1V10.48a.1.1,0,0,1-.1.1h-3.445a.1.1,0,0,1-.1-.1V.1a.1.1,0,0,1,.1-.1" transform="translate(-154.638)" fill="#a8daf5"/>
      <path id="Trazado_720768" data-name="Trazado 720768" d="M251.472,0h3.445a.1.1,0,0,1,.1.1V10.48a.1.1,0,0,1-.1.1h-3.445a.1.1,0,0,1-.1-.1V.1a.1.1,0,0,1,.1-.1" transform="translate(-214.962)" fill="#a8daf5"/>
      <path id="Trazado_720769" data-name="Trazado 720769" d="M322.012,0h3.445a.1.1,0,0,1,.1.1V10.48a.1.1,0,0,1-.1.1h-3.445a.1.1,0,0,1-.1-.1V.1a.1.1,0,0,1,.1-.1" transform="translate(-275.285)" fill="#a8daf5"/>
      <path id="Trazado_720770" data-name="Trazado 720770" d="M392.552,0H396a.1.1,0,0,1,.1.1V10.48a.1.1,0,0,1-.1.1h-3.445a.1.1,0,0,1-.1-.1V.1a.1.1,0,0,1,.1-.1" transform="translate(-335.608)" fill="#a8daf5"/>
      <path id="Trazado_720771" data-name="Trazado 720771" d="M466.451,0H469.9a.1.1,0,0,1,.1.1V10.48a.1.1,0,0,1-.1.1h-3.445a.1.1,0,0,1-.1-.1V.1a.1.1,0,0,1,.1-.1" transform="translate(-398.803)" fill="#a8daf5"/>
      <path id="Trazado_720772" data-name="Trazado 720772" d="M538.4,0h3.445a.1.1,0,0,1,.1.1V10.48a.1.1,0,0,1-.1.1H538.4a.1.1,0,0,1-.1-.1V.1a.1.1,0,0,1,.1-.1" transform="translate(-460.331)" fill="#a8daf5"/>
      <path id="Trazado_720773" data-name="Trazado 720773" d="M605.012,0h3.445a.1.1,0,0,1,.1.1V10.48a.1.1,0,0,1-.1.1h-3.445a.1.1,0,0,1-.1-.1V.1a.1.1,0,0,1,.1-.1" transform="translate(-517.295)" fill="#a8daf5"/>
      <path id="Trazado_720774" data-name="Trazado 720774" d="M357.784,240.856a9.823,9.823,0,1,1,9.822-9.825,9.836,9.836,0,0,1-9.822,9.825m0-17.3a7.475,7.475,0,1,0,7.474,7.474,7.483,7.483,0,0,0-7.474-7.474" transform="translate(-297.561 -189.169)" fill="#0da9c9"/>
      <path id="Trazado_720775" data-name="Trazado 720775" d="M436.509,266.46a.933.933,0,1,1-.651.273.893.893,0,0,1,.651-.273m-.755-8h1.517v7.426h-1.517Z" transform="translate(-372.495 -221.027)" fill="#0da9c9"/>
      <path id="Trazado_720776" data-name="Trazado 720776" d="M410.978,266.46a.933.933,0,1,1-.651.273.893.893,0,0,1,.651-.273m-.755-8h1.517v7.426h-1.517Z" transform="translate(-350.662 -221.027)" fill="#0da9c9"/>
      <path id="Trazado_720777" data-name="Trazado 720777" d="M386.625,266.46a.934.934,0,1,1-.651.273.893.893,0,0,1,.651-.273m-.755-8h1.517v7.426H385.87Z" transform="translate(-329.836 -221.027)" fill="#0da9c9"/>
    </g>
  </g>
</svg>
