<svg xmlns="http://www.w3.org/2000/svg" xmlns:xlink="http://www.w3.org/1999/xlink" width="169" height="169" viewBox="0 0 169 169">
  <defs>
    <clipPath id="clip-path">
      <rect id="Rect치ngulo_351404" data-name="Rect치ngulo 351404" width="131.491" height="131.512" fill="none"/>
    </clipPath>
  </defs>
  <g id="Grupo_1018521" data-name="Grupo 1018521" transform="translate(4268.499 5080.44)">
    <g id="Grupo_1018402" data-name="Grupo 1018402" transform="translate(-4653.5 -7138.44)">
      <g id="Grupo_159182" data-name="Grupo 159182" transform="translate(385.001 2058)">
        <path id="Uni칩n_12" data-name="Uni칩n 12" d="M84.5,0A84.5,84.5,0,1,1,0,84.5,84.5,84.5,0,0,1,84.5,0Z" transform="translate(0 0)" fill="#cda7ff"/>
      </g>
    </g>
    <g id="Grupo_1018416" data-name="Grupo 1018416" transform="translate(-4249 -5061.696)">
      <g id="Grupo_1018415" data-name="Grupo 1018415" clip-path="url(#clip-path)">
        <path id="Trazado_721814" data-name="Trazado 721814" d="M15.6,72.046c-1.7-1.3-2.837-2.116-3.923-3A31.735,31.735,0,0,1,45.1,15.684a12.91,12.91,0,0,0,5.873,1.293c6.244-.089,12.492-.1,18.736.011,1.813.032,2.387-.3,2.453-2.306a14.8,14.8,0,0,1,27.1-8.11,13.367,13.367,0,0,1,2.468,8.451c-.11,1.656.489,1.971,2.014,1.956,7.443-.074,14.887-.041,22.331-.03,3.967.006,5.411,1.441,5.412,5.4q.008,49.79,0,99.579c0,3.783-1.5,5.3-5.282,5.306q-24.256.024-48.513-.012c-1.513,0-2.515.161-3.42,1.768a4.919,4.919,0,0,1-8.763-.336c-2.262-5.141-4.108-10.473-5.931-15.792-.449-1.309-.139-2.883-.142-4.336,0-.891-.053-1.694-1.234-.961-5.927,3.682-12.037,3.052-18.233.835-.8-.287-1.666-.395-2.466-.681-2.277-.814-3.925-1.106-6.229,1.028-2.967,2.747-7.179,1.96-10.943.674-.6-.2-1-.845-1.841-.386-4.176,2.29-8.7,1.222-13.066,1.034-3.206-.138-5.35-2.885-5.375-6.152q-.1-12.7,0-25.408c.028-3.79,2.617-6.3,6.539-6.444,2.772-.1,5.55-.02,9.018-.02m39.512,2.846c4.321-.8,4.321-.8,4.321-4.78,0-4.192-.052-8.384.017-12.575.069-4.152,2.611-6.61,6.8-6.674q3.721-.057,7.443,0c4.282.061,6.867,2.609,6.915,6.87.047,4.191.071,8.384-.023,12.574a2.229,2.229,0,0,0,1.7,2.569c3.911,1.5,6.433,4.42,6.61,8.634.261,6.233.173,12.485.06,18.725a6.149,6.149,0,0,1-4.57,5.566c-1.25.39-3.022-.813-3.632.609-.529,1.23-.193,2.866-.109,4.315a17.345,17.345,0,0,1-.489,3.76c8.283,0,16.319-.029,24.355.028,1.308.009,1.558-.489,1.532-1.645-.064-2.822.114-5.654-.064-8.466-.132-2.074.4-2.885,2.621-2.729,2.809.2,5.646-.027,8.465.08,1.4.053,1.69-.441,1.688-1.748q-.055-34.26.007-68.52c0-1.513-.5-1.84-1.894-1.8-3.42.089-6.844.06-10.265.011a3.135,3.135,0,0,0-2.436,1.056c-10.152,9.913-24.251,9.934-34.364.073a3.115,3.115,0,0,0-2.408-1.137c-3.506.072-7.018.1-10.521-.008-1.587-.051-1.8.631-1.78,1.971.069,3.933.024,7.869.024,11.8V74.893m72.193-2.723V39.316c0-5.39-.025-10.78.018-16.169.011-1.291-.135-2.072-1.762-2.041-4.79.091-9.583.055-14.374.025-2.445-.016-2.347,2.229-2.589,3.479-.32,1.654,1.491.787,2.269.82,3.16.135,6.334.158,9.493.018,1.932-.086,2.645.386,2.639,2.5q-.113,37.472-.019,74.946a4.312,4.312,0,0,1-1.449,3.354q-5.594,5.475-11.067,11.073a4.221,4.221,0,0,1-3.373,1.366c-5.3-.066-10.61-.027-15.915-.027-3.765,0-7.53-.017-11.295.011-1.3.01-3.078,2.192-2.77,3.554.34,1.5,1.7.745,2.547.748,14.888.055,29.777-.027,44.664.1,2.568.022,3.056-.775,3.039-3.172-.109-15.912-.056-31.826-.056-47.739M33.941,93.148c0,2.479.051,4.961-.022,7.438-.035,1.2.264,1.824,1.552,2.149,3.389.854,6.707,1.994,10.1,2.822a11.847,11.847,0,0,0,8.752-.815q9.833-5.492,19.486-11.3a5.3,5.3,0,0,0,2.272-6.267c-.689-2.283-2.271-2.957-4.295-1.7-2.174,1.352-4.322,2.759-6.387,4.273a18.635,18.635,0,0,1-12.017,3.613c-1.683-.053-2.613-.109-2.583-2.268.028-2.033.889-2.182,2.467-2.113a38.538,38.538,0,0,0,4.35-.187c1.332-.093,1.914-.758,1.841-2.179-.11-2.132-.08-4.276-.01-6.411.044-1.322-.216-1.847-1.725-1.476-7.373,1.814-14.759,3.58-22.168,5.239-1.443.323-1.688.978-1.64,2.254.087,2.306.025,4.617.025,6.925M42.47,44.523c0-4.357-.169-8.723.067-13.067.131-2.418-.788-3.655-2.916-4.338-.81-.26-1.579-.649-2.393-.891-2.912-.866-3.02-.86-3.25,2.231-.115,1.554-1.069,1.318-1.932,1.222-.846-.095-2.18.71-2.311-1.1-.069-.952.568-2.261-.472-2.779-.986-.491-2.181.195-3.2.563-1.514.548-2.938,1.341-4.4,2.03-1.544.727-1.79,1.6-.289,2.655,1.376.968,1.239,1.764.059,2.958-1.215,1.229-2.037,1.552-3.108,0-.94-1.362-1.713-1.3-2.558.21a31.836,31.836,0,0,0-2.383,5.358c-.7,2.061-.539,3.314,2.107,2.852,1.613-.281,1.616.833,1.469,1.89-.126.913.714,2.277-1.287,2.386-3.031.166-3.075.294-2.085,3.3a37.932,37.932,0,0,0,1.724,3.98c.873,1.889,1.909,2.853,3.487.561.947-1.376,1.74-.539,2.359.309.531.727,2.189,1.052.814,2.572-2.033,2.247-1.976,2.37.781,3.789A36.234,36.234,0,0,0,27,62.963c1.892.686,3.172.449,2.758-2.045-.262-1.578.776-1.655,1.876-1.515.931.119,2.262-.643,2.346,1.338.124,2.931.252,2.944,3.218,2.034.974-.3,1.9-.745,2.867-1.073,1.867-.633,2.542-1.809,2.461-3.856-.176-4.435-.054-8.883-.054-13.325m-.158-20.9c.395-4.729.391-4.715-3.773-5.812a26.749,26.749,0,0,0-14.174.173A27.554,27.554,0,1,0,40.027,70.815c2.438-.775,3.315-2.041,2.361-4.357-.833-2.022-2.155-.071-3.054.224A23.546,23.546,0,0,1,10,52.7,23.292,23.292,0,0,1,22.954,22.987c6.443-2.656,12.821-2.289,19.358.639M16.978,91.342c0-4.021-.048-8.044.02-12.064.035-2.076-.856-2.979-2.913-2.932-2.395.055-4.791.035-7.187.01-1.833-.02-2.664.91-2.665,2.676q0,12.193.008,24.385a2.279,2.279,0,0,0,2.541,2.547c2.482.013,4.964,0,7.445.011,1.91.011,2.8-.869,2.768-2.826-.056-3.935-.016-7.871-.016-11.807m88.287-70.19c-11.929,0-23.525.014-35.121-.012-2.221-.005-1.03,1.208-.691,1.932,3.966,8.473,14.2,12.825,23.341,9.914a19.083,19.083,0,0,0,12.47-11.834M65.639,25.464c-1.46-4.31-1.46-4.31-5.443-4.31-3.679,0-7.363.136-11.032-.052-2.134-.109-2.5.689-2.491,2.61.068,16.934.039,33.869.039,50.8v2.3c4.18-.629,4.18-.629,4.18-4.422,0-14.882.027-29.764-.036-44.646-.008-1.742.4-2.391,2.25-2.331,4.09.134,8.187.042,12.533.042M29.752,91.118c0-3.668.006-7.337,0-11-.008-3.436-.335-3.747-3.869-3.762-.512,0-1.027.034-1.535-.005-2.328-.182-3.2.944-3.182,3.2q.08,11.645,0,23.289c-.016,2.312,1,3.294,3.255,3.155a22.358,22.358,0,0,1,2.3,0c2.17.091,3.083-.94,3.047-3.1-.065-3.923-.018-7.848-.017-11.772m46.666-76.6c.1,1.064-.633,2.55,1.647,2.488,1.794-.049,2.665-.2,2.646-2.417a6.047,6.047,0,0,1,7.024-6.007c3.319.369,5.447,2.736,5.565,6.8.068,2.363,1.59,1.361,2.629,1.559,1.393.265,1.669-.425,1.679-1.717A10.8,10.8,0,0,0,87.1,4.207,10.639,10.639,0,0,0,76.419,14.52m4.207,62.24c0,7.7.009,14.954-.008,22.214,0,1.443.365,2.63,2.02,2.686s2.172-1.043,2.169-2.528c-.011-5.553.039-11.106-.034-16.658-.034-2.6-1.373-4.426-4.147-5.714M69.982,59.387c1.367,0,2.739.066,4.1-.024.882-.058,2.229.6,2.31-1.141.07-1.5-.3-2.937-2.009-3.039a80.528,80.528,0,0,0-8.705-.009c-1.756.086-2.051,1.458-2.021,2.984.035,1.8,1.352,1.151,2.226,1.206,1.361.085,2.733.023,4.1.023m6.431,37.361c-1.713,1.687-4.252,1.46-4.327,3.949-.082,2.721.018,5.447-.031,8.169-.034,1.885,1.32,1.36,2.321,1.409s2.083.222,2.057-1.423c-.06-3.81-.019-7.622-.019-12.1M70.013,67.8c1.617,0,3.24-.082,4.85.023,1.561.1,1.638-.81,1.532-1.921-.094-.979.521-2.336-1.408-2.3-3.317.069-6.638.012-9.957.026-.557,0-1.115-.117-1.363.736-.663,2.286.123,3.426,2.516,3.433,1.277,0,2.553,0,3.83,0M63.669,85.9c1.725-1.768,4.155-1.7,4.174-4.175.02-2.72-.067-5.443.031-8.16.057-1.58-.855-1.6-1.944-1.513-.989.081-2.317-.494-2.282,1.423.07,3.889.021,7.781.021,12.426m12.746-4.991c0-2.23-.115-4.438.035-6.629.125-1.825-.534-2.3-2.3-2.309s-2.29.619-2.1,2.239a17.282,17.282,0,0,1,.013,2.045c0,4.049,0,4.049,4.35,4.655m-1.111,33.7H64.859c1.017,4.1,1.025,3.906,6.718,4.14,3.175.131,2.831-2.131,3.727-4.14M34.02,80.012c2.617-.623,5-1.194,7.393-1.761,1.838-.436,1.092-1.93,1-2.915-.135-1.4-1.222-.4-1.753-.284a28.069,28.069,0,0,1-5.493.962c-1.014.021-1.632.229-1.327,1.472a15.783,15.783,0,0,1,.183,2.525m33.82,22.274c-4.323,1.7-4.864,2.731-4.2,6.9.251,1.568,1.311,1.056,2.113,1.056s2.061.538,2.079-1.058c.025-2.273.006-4.547.006-6.9M86.924,16.942c.994-.064,2.32.476,2.146-1.452-.125-1.375-.32-2.626-1.995-2.681-1.778-.059-2.155,1.165-2.29,2.684-.172,1.931,1.16,1.373,2.139,1.449m28.442,89.173c-5.567-.364-5.964.069-4.621,4.614l4.621-4.614m-47.86,16.823c1.292,1.614.714,4.028,2.655,3.952,1.314-.052,1.981-2.437,1.615-3.316-.563-1.354-2.362-.417-4.27-.636" transform="translate(0 0)" fill="#050504"/>
        <path id="Trazado_721815" data-name="Trazado 721815" d="M18.737,235.175c-1.738.379-2.482-.2-2.36-2.084.091-1.41.055-2.437,1.99-2.273,1.435.122,2.654-.087,2.461,2.041-.133,1.465.044,2.839-2.091,2.316" transform="translate(-7.957 -112.223)" fill="#171717"/>
        <path id="Trazado_721816" data-name="Trazado 721816" d="M51.762,235.172c-1.775.409-2.434-.258-2.327-2.1.082-1.415.058-2.419,1.988-2.262,1.457.119,2.626-.044,2.44,2.057-.131,1.473.029,2.829-2.1,2.3" transform="translate(-24.031 -112.221)" fill="#171717"/>
        <path id="Trazado_721817" data-name="Trazado 721817" d="M37.161,233.065c.51,1.952-.525,2.175-2.171,2.211-1.694.037-2.11-.512-2.1-2.147s.243-2.393,2.155-2.332c1.727.054,2.582.41,2.113,2.268" transform="translate(-15.993 -112.219)" fill="#171717"/>
        <path id="Trazado_721818" data-name="Trazado 721818" d="M70.166,232.883c.358,1.681-.087,2.519-2.024,2.383-1.411-.1-2.437-.062-2.243-1.983.139-1.376-.2-2.681,1.99-2.473,1.462.14,2.832-.058,2.277,2.073" transform="translate(-32.031 -112.216)" fill="#171717"/>
        <path id="Trazado_721819" data-name="Trazado 721819" d="M84.781,230.915c2.122-.543,1.974.8,2.106,2.273.185,2.081-.948,1.974-2.428,2.081-1.916.137-1.911-.854-1.983-2.275-.091-1.809.511-2.525,2.3-2.079" transform="translate(-40.098 -112.215)" fill="#171717"/>
        <path id="Trazado_721820" data-name="Trazado 721820" d="M107.25,102.974V71.534c0-3.935.045-7.871-.024-11.8-.024-1.34.193-2.022,1.78-1.971,3.5.113,7.015.081,10.521.008a3.115,3.115,0,0,1,2.408,1.137c10.113,9.861,24.212,9.839,34.364-.073a3.135,3.135,0,0,1,2.436-1.056c3.421.049,6.845.079,10.265-.011,1.392-.036,1.9.291,1.894,1.8q-.072,34.259-.007,68.52c0,1.307-.292,1.8-1.688,1.748-2.82-.107-5.656.119-8.465-.08-2.216-.157-2.752.655-2.621,2.729.178,2.812,0,5.644.064,8.466.026,1.156-.223,1.654-1.532,1.645-8.036-.057-16.072-.028-24.355-.028a17.346,17.346,0,0,0,.489-3.76c-.083-1.449-.419-3.084.109-4.315.61-1.422,2.382-.218,3.632-.609a6.149,6.149,0,0,0,4.57-5.566c.113-6.241.2-12.493-.06-18.726-.177-4.214-2.7-7.137-6.61-8.634a2.229,2.229,0,0,1-1.7-2.569c.093-4.19.07-8.383.023-12.574-.048-4.261-2.633-6.809-6.915-6.87q-3.721-.053-7.443,0c-4.187.064-6.73,2.522-6.8,6.674-.07,4.191-.017,8.383-.018,12.575,0,3.976,0,3.976-4.321,4.78m48.908-32.46c-2.987,0-5.976.064-8.959-.029-1.354-.043-1.738.392-1.723,1.73.065,5.972.056,11.945.005,17.917-.01,1.219.355,1.609,1.593,1.6q9.087-.085,18.175,0c1.144.01,1.443-.384,1.436-1.471-.041-6.058-.051-12.116.007-18.174.012-1.225-.325-1.63-1.575-1.595-2.984.084-5.973.027-8.959.026M145.5,106.378c0,2.9.076,5.805-.031,8.7-.055,1.5.268,2.079,1.936,2.047,5.8-.11,11.605-.085,17.406-.012,1.407.018,1.909-.3,1.886-1.81-.087-5.886-.065-11.775-.012-17.661.011-1.25-.211-1.8-1.65-1.784q-8.959.121-17.919,0c-1.467-.02-1.663.6-1.636,1.816.063,2.9.02,5.8.02,8.7m-19.13-31.627c4.355,0,8.711-.071,13.063.038,1.6.04,1.876-.648,1.76-1.969-.1-1.111.407-2.367-1.629-2.347q-13.191.132-26.383,0c-2.04-.021-1.529,1.236-1.626,2.344-.115,1.313.143,2.014,1.751,1.973,4.352-.11,8.708-.038,13.063-.038m-10.766-8.559a17.2,17.2,0,0,1,2.3.017c1.654.224,2.115-.387,2.149-2.069.038-1.851-.547-2.383-2.3-2.183a20.533,20.533,0,0,1-3.828.009c-1.555-.116-2.477.021-2.435,2.067.037,1.851.6,2.43,2.329,2.172a12.253,12.253,0,0,1,1.786-.014" transform="translate(-52.136 -28.083)" fill="#e0e3e7"/>
        <path id="Trazado_721821" data-name="Trazado 721821" d="M200.254,92.142c0,15.913-.052,31.827.057,47.739.016,2.4-.472,3.195-3.039,3.172-14.887-.129-29.776-.048-44.664-.1-.847,0-2.207.753-2.547-.749-.308-1.362,1.475-3.544,2.77-3.554,3.765-.028,7.53-.01,11.295-.01,5.305,0,10.61-.04,15.915.027a4.224,4.224,0,0,0,3.373-1.366q5.459-5.61,11.067-11.074a4.311,4.311,0,0,0,1.448-3.353q-.06-37.473.019-74.946c.007-2.117-.706-2.589-2.638-2.5-3.16.14-6.334.117-9.494-.018-.778-.033-2.588.833-2.268-.82.242-1.25.144-3.5,2.589-3.48,4.791.031,9.584.067,14.374-.024,1.627-.031,1.772.75,1.762,2.04-.043,5.39-.018,10.78-.018,16.17V92.142" transform="translate(-72.947 -19.974)" fill="#c0936d"/>
        <path id="Trazado_721822" data-name="Trazado 721822" d="M66.034,167.548c0-2.308.062-4.62-.025-6.925-.048-1.276.2-1.931,1.64-2.254,7.409-1.659,14.795-3.425,22.168-5.239,1.508-.371,1.769.154,1.725,1.476-.071,2.135-.1,4.279.009,6.411.073,1.422-.509,2.086-1.841,2.179a38.525,38.525,0,0,1-4.35.187c-1.577-.069-2.439.08-2.467,2.113-.03,2.158.9,2.215,2.583,2.268A18.637,18.637,0,0,0,97.5,164.15c2.064-1.513,4.213-2.92,6.387-4.273,2.024-1.259,3.6-.585,4.295,1.7a5.3,5.3,0,0,1-2.272,6.267q-9.658,5.793-19.486,11.3a11.848,11.848,0,0,1-8.753.815c-3.394-.828-6.712-1.968-10.1-2.822-1.287-.325-1.588-.949-1.552-2.149.073-2.477.022-4.959.022-7.438" transform="translate(-32.093 -74.4)" fill="#eccdb1"/>
        <path id="Trazado_721823" data-name="Trazado 721823" d="M54.785,68.781c0,4.442-.121,8.889.054,13.325.081,2.047-.594,3.222-2.461,3.855-.966.328-1.893.774-2.867,1.073-2.967.91-3.094.9-3.218-2.034-.084-1.982-1.414-1.219-2.346-1.338-1.1-.141-2.138-.064-1.876,1.514.414,2.494-.867,2.731-2.758,2.045a36.231,36.231,0,0,1-4.243-1.742c-2.757-1.419-2.815-1.542-.782-3.789,1.376-1.52-.282-1.845-.813-2.572-.619-.848-1.411-1.684-2.359-.309-1.579,2.293-2.615,1.328-3.487-.561a37.736,37.736,0,0,1-1.725-3.98c-.99-3.01-.946-3.138,2.085-3.3,2-.109,1.161-1.473,1.288-2.386.146-1.057.144-2.171-1.469-1.89C25.16,67.15,25,65.9,25.7,63.836a31.837,31.837,0,0,1,2.383-5.358c.845-1.511,1.618-1.572,2.558-.21,1.071,1.553,1.893,1.23,3.108,0,1.181-1.195,1.318-1.99-.059-2.958-1.5-1.056-1.256-1.928.289-2.655,1.462-.689,2.887-1.481,4.4-2.03,1.017-.368,2.212-1.054,3.2-.563,1.04.517.4,1.827.472,2.778.132,1.805,1.466,1,2.312,1.1.863.1,1.817.332,1.932-1.222.23-3.091.338-3.1,3.25-2.231.814.243,1.583.631,2.393.891,2.128.683,3.046,1.919,2.915,4.338-.235,4.344-.066,8.71-.066,13.067M44.232,75.1c4.455-.047,7.822-4.781,5.656-8.625-1.379-2.448-.852-4.213.091-6.3.457-1.011.906-2.027,1.3-3.063.2-.519.477-1.014-.222-1.557-1.925-1.495-3.238-1.217-4.173,1.034-.459,1.1-.89,2.218-1.348,3.322-1.429,3.438-3.405,3.919-5.97,1.185-1.364-1.454-1.98-.7-3.014.235-1.129,1.022-1.421,1.811-.05,2.8a3.556,3.556,0,0,1,1.47,3.932A6.075,6.075,0,0,0,44.232,75.1" transform="translate(-12.315 -24.259)" fill="#66d0ed"/>
        <path id="Trazado_721824" data-name="Trazado 721824" d="M46.342,39.656c-6.537-2.927-12.915-3.294-19.358-.639A23.293,23.293,0,0,0,14.027,68.735,23.546,23.546,0,0,0,43.364,82.713c.9-.3,2.221-2.246,3.054-.224.955,2.315.077,3.581-2.361,4.357A27.554,27.554,0,1,1,28.4,34.016a26.748,26.748,0,0,1,14.174-.173c4.164,1.1,4.167,1.084,3.773,5.812" transform="translate(-4.03 -16.031)" fill="#c4c9d1"/>
        <path id="Trazado_721825" data-name="Trazado 721825" d="M20.982,163.593c0,3.936-.04,7.872.016,11.807.028,1.956-.859,2.837-2.768,2.826-2.481-.014-4.963,0-7.445-.011a2.279,2.279,0,0,1-2.541-2.547q-.022-12.193-.008-24.384c0-1.766.832-2.7,2.665-2.676,2.4.026,4.792.045,7.187-.01,2.057-.047,2.947.856,2.913,2.932-.068,4.02-.02,8.043-.02,12.064" transform="translate(-4.004 -72.252)" fill="#f8d46e"/>
        <path id="Trazado_721826" data-name="Trazado 721826" d="M170.407,41.158a19.086,19.086,0,0,1-12.471,11.834c-9.143,2.91-19.375-1.441-23.341-9.914-.339-.724-1.53-1.937.691-1.932,11.6.026,23.192.012,35.121.012m-16.2,6.358c-.3,1.594.13,2.356,1.967,2.282,1.584-.063,2.47-.164,2.436-2.157-.031-1.815-.565-2.309-2.329-2.278-1.64.029-2.47.407-2.074,2.152m-8.4-.115c-.2,1.474-.142,2.47,1.855,2.384,1.658-.071,2.431-.279,2.346-2.2-.069-1.572-.334-2.266-2.093-2.169-1.475.081-2.585.129-2.108,1.983" transform="translate(-65.141 -20.006)" fill="#f5e1a0"/>
        <path id="Trazado_721827" data-name="Trazado 721827" d="M109.809,45.425c-4.346,0-8.443.092-12.533-.042-1.85-.06-2.257.589-2.25,2.331.063,14.882.036,29.764.036,44.646,0,3.794,0,3.794-4.18,4.422v-2.3c0-16.935.028-33.87-.04-50.8-.008-1.92.357-2.719,2.491-2.61,3.669.188,7.354.052,11.032.052,3.983,0,3.983,0,5.443,4.31" transform="translate(-44.171 -19.961)" fill="#c99a73"/>
        <path id="Trazado_721828" data-name="Trazado 721828" d="M49.782,163.354c0,3.924-.047,7.849.018,11.773.035,2.156-.877,3.187-3.047,3.1a22.215,22.215,0,0,0-2.3,0c-2.255.139-3.271-.843-3.255-3.155q.082-11.644,0-23.289c-.015-2.255.854-3.382,3.182-3.2.509.04,1.023,0,1.535,0,3.534.015,3.861.326,3.869,3.762.008,3.668,0,7.337,0,11" transform="translate(-20.03 -72.236)" fill="#f4d06c"/>
        <path id="Trazado_721829" data-name="Trazado 721829" d="M148.706,18.5A10.64,10.64,0,0,1,159.383,8.186,10.8,10.8,0,0,1,169.9,19.2c-.01,1.292-.286,1.982-1.679,1.717-1.039-.2-2.561.8-2.629-1.559-.118-4.063-2.246-6.43-5.565-6.8A6.048,6.048,0,0,0,153,18.569c.02,2.213-.852,2.368-2.646,2.417-2.281.063-1.549-1.424-1.647-2.488" transform="translate(-72.287 -3.979)" fill="#f4d06c"/>
        <path id="Trazado_721830" data-name="Trazado 721830" d="M156.923,149.4c2.774,1.288,4.113,3.113,4.147,5.714.072,5.552.023,11.106.034,16.658,0,1.485-.524,2.584-2.169,2.528s-2.024-1.243-2.02-2.687c.017-7.259.008-14.518.008-22.213" transform="translate(-76.297 -72.645)" fill="#eccdb1"/>
        <path id="Trazado_721831" data-name="Trazado 721831" d="M130.224,111.5c-1.367,0-2.738.063-4.1-.023-.874-.055-2.19.592-2.226-1.206-.03-1.527.266-2.9,2.021-2.984a80.538,80.538,0,0,1,8.706.009c1.712.1,2.079,1.536,2.009,3.039-.081,1.74-1.429,1.083-2.31,1.141-1.361.089-2.733.024-4.1.024" transform="translate(-60.242 -52.109)" fill="#a7afba"/>
        <path id="Trazado_721832" data-name="Trazado 721832" d="M144.6,188.311c0,4.483-.041,8.295.019,12.1.026,1.645-1.045,1.472-2.057,1.422s-2.355.476-2.321-1.409c.049-2.723-.051-5.449.031-8.17.075-2.489,2.614-2.261,4.327-3.948" transform="translate(-68.19 -91.563)" fill="#f27b68"/>
        <path id="Trazado_721833" data-name="Trazado 721833" d="M130.054,128c-1.277,0-2.553,0-3.83,0-2.394-.007-3.18-1.146-2.516-3.433.247-.852.805-.733,1.362-.736,3.319-.014,6.639.043,9.957-.026,1.93-.04,1.315,1.317,1.408,2.3.106,1.111.029,2.023-1.532,1.921-1.61-.105-3.233-.023-4.849-.023" transform="translate(-60.041 -60.199)" fill="#a7afba"/>
        <path id="Trazado_721834" data-name="Trazado 721834" d="M123.9,154.056c0-4.644.049-8.536-.021-12.426-.034-1.917,1.293-1.342,2.283-1.423,1.089-.089,2-.067,1.944,1.513-.1,2.717-.011,5.44-.031,8.16-.018,2.472-2.449,2.407-4.174,4.175" transform="translate(-60.236 -68.159)" fill="#afd77c"/>
        <path id="Trazado_721835" data-name="Trazado 721835" d="M144.568,149.014c-4.35-.606-4.35-.606-4.35-4.654a17.29,17.29,0,0,0-.013-2.045c-.194-1.619.331-2.249,2.1-2.239s2.428.485,2.3,2.309c-.15,2.191-.035,4.4-.035,6.629" transform="translate(-68.153 -68.109)" fill="#f27b68"/>
        <path id="Trazado_721836" data-name="Trazado 721836" d="M136.686,223.075c-.9,2.009-.552,4.271-3.727,4.14-5.693-.235-5.7-.041-6.718-4.14Z" transform="translate(-61.383 -108.466)" fill="#a7afba"/>
        <path id="Trazado_721837" data-name="Trazado 721837" d="M65.97,150.612a15.9,15.9,0,0,0-.183-2.525c-.305-1.244.312-1.452,1.327-1.473a28.1,28.1,0,0,0,5.493-.961c.532-.118,1.619-1.113,1.753.284.1.985.841,2.478-1,2.915-2.388.567-4.775,1.137-7.393,1.761" transform="translate(-31.95 -70.601)" fill="#e0e3e7"/>
        <path id="Trazado_721838" data-name="Trazado 721838" d="M127.846,199.089c0,2.352.018,4.625-.006,6.9-.017,1.6-1.275,1.058-2.079,1.058s-1.863.512-2.113-1.056c-.666-4.169-.125-5.2,4.2-6.9" transform="translate(-60.006 -96.803)" fill="#afd77c"/>
        <path id="Trazado_721839" data-name="Trazado 721839" d="M167.153,29.061c-.981-.078-2.312.48-2.14-1.451.135-1.519.512-2.742,2.289-2.684,1.675.055,1.871,1.307,1.995,2.682.175,1.928-1.151,1.388-2.144,1.453" transform="translate(-80.227 -12.119)" fill="#f6f8f9"/>
        <path id="Trazado_721840" data-name="Trazado 721840" d="M219.564,206.447l-4.621,4.614c-1.343-4.545-.945-4.978,4.621-4.614" transform="translate(-104.197 -100.332)" fill="#afd77c"/>
        <path id="Trazado_721841" data-name="Trazado 721841" d="M131.394,239.179c1.908.219,3.707-.718,4.27.636.366.879-.3,3.264-1.615,3.316-1.942.077-1.364-2.338-2.655-3.952" transform="translate(-63.888 -116.241)" fill="#a7afba"/>
        <path id="Trazado_721842" data-name="Trazado 721842" d="M192.358,82.559c2.987,0,5.975.057,8.959-.027,1.251-.035,1.587.369,1.575,1.595-.058,6.057-.048,12.116-.007,18.173.007,1.088-.291,1.481-1.435,1.472q-9.088-.075-18.176,0c-1.238.011-1.6-.379-1.593-1.6.051-5.972.06-11.945-.006-17.917-.014-1.338.369-1.772,1.723-1.73,2.984.094,5.973.029,8.959.03m6.32,10.6c0-6.373,0-6.386-6.33-6.366-2.041.006-4.737-.679-5.953.349-1.44,1.218-.44,4.01-.464,6.111-.073,6.285-.026,6.285,6.389,6.285,6.358,0,6.358,0,6.358-6.379" transform="translate(-88.337 -40.127)" fill="#030202"/>
        <path id="Trazado_721843" data-name="Trazado 721843" d="M181.7,142.44c0-2.9.043-5.8-.02-8.7-.027-1.22.17-1.836,1.636-1.816q8.958.121,17.919,0c1.44-.02,1.662.534,1.651,1.784-.053,5.887-.076,11.775.012,17.661.022,1.507-.479,1.828-1.886,1.81-5.8-.074-11.606-.1-17.407.012-1.669.032-1.991-.547-1.936-2.047.107-2.9.031-5.8.031-8.7m10.622-6.276c-6.422,0-6.468,0-6.4,6.279.025,2.1-.973,4.894.461,6.113,1.21,1.029,3.909.347,5.949.353,6.336.02,6.336.007,6.336-6.359,0-6.386,0-6.386-6.351-6.386" transform="translate(-88.329 -64.144)" fill="#030202"/>
        <path id="Trazado_721844" data-name="Trazado 721844" d="M130.453,86.786c-4.355,0-8.711-.072-13.063.038-1.608.041-1.866-.66-1.751-1.973.1-1.109-.414-2.365,1.626-2.344q13.191.134,26.383,0c2.036-.02,1.532,1.236,1.629,2.347.116,1.321-.162,2.009-1.76,1.969-4.352-.108-8.708-.037-13.063-.037" transform="translate(-56.216 -40.117)" fill="#050504"/>
        <path id="Trazado_721845" data-name="Trazado 721845" d="M119.645,70.131a12.253,12.253,0,0,0-1.786.014c-1.732.258-2.292-.321-2.329-2.172-.042-2.047.88-2.184,2.435-2.067a20.534,20.534,0,0,0,3.828-.009c1.751-.2,2.336.332,2.3,2.183-.034,1.682-.5,2.293-2.149,2.069a17.2,17.2,0,0,0-2.3-.017" transform="translate(-56.173 -32.022)" fill="#030202"/>
        <path id="Trazado_721846" data-name="Trazado 721846" d="M53.936,79.584a6.076,6.076,0,0,1-6.262-7.039,3.556,3.556,0,0,0-1.47-3.932c-1.371-.986-1.078-1.776.05-2.8,1.034-.936,1.651-1.689,3.014-.235,2.565,2.734,4.541,2.253,5.97-1.185.459-1.1.889-2.218,1.348-3.321.936-2.251,2.249-2.529,4.173-1.034.7.544.42,1.038.222,1.557-.393,1.036-.842,2.053-1.3,3.063-.943,2.085-1.47,3.852-.091,6.3,2.167,3.845-1.2,8.578-5.656,8.626m2.018-6.249a1.976,1.976,0,0,0-2.044-2.116,1.868,1.868,0,0,0-2.1,1.992,1.92,1.92,0,0,0,2,2.131,2.022,2.022,0,0,0,2.149-2.007" transform="translate(-22.02 -28.74)" fill="#050504"/>
        <path id="Trazado_721847" data-name="Trazado 721847" d="M173.259,51.507c-.4-1.745.433-2.123,2.073-2.153,1.764-.031,2.3.463,2.33,2.278.034,1.993-.852,2.094-2.437,2.157-1.836.073-2.263-.688-1.966-2.282" transform="translate(-84.196 -23.997)" fill="#171717"/>
        <path id="Trazado_721848" data-name="Trazado 721848" d="M156.9,51.438c-.477-1.853.633-1.9,2.108-1.983,1.759-.1,2.024.6,2.093,2.169.084,1.918-.688,2.126-2.346,2.2-2,.086-2.057-.91-1.855-2.384" transform="translate(-76.236 -24.042)" fill="#050504"/>
        <path id="Trazado_721849" data-name="Trazado 721849" d="M202.407,96.993c0,6.38,0,6.38-6.358,6.38-6.415,0-6.462,0-6.388-6.285.024-2.1-.976-4.894.464-6.112,1.215-1.028,3.911-.343,5.952-.349,6.33-.02,6.33-.007,6.33,6.366m-5.789-3.376a18.718,18.718,0,0,0-3.965,3.922,1.44,1.44,0,0,0,.166.452c.854,2.1,2.666,2.45,4.3.827a13.537,13.537,0,0,0,1.242-1.265c.364-.475,1.39-.8.768-1.592a7.835,7.835,0,0,0-2.507-2.342" transform="translate(-92.066 -43.96)" fill="#f27b68"/>
        <path id="Trazado_721850" data-name="Trazado 721850" d="M196.056,140.178c6.351,0,6.351,0,6.351,6.386,0,6.367,0,6.379-6.336,6.359-2.04-.006-4.74.676-5.949-.353-1.434-1.22-.437-4.011-.461-6.113-.073-6.279-.026-6.279,6.4-6.279m.661,3.018c-.443-.007-4.1,3.633-3.986,3.947a5.554,5.554,0,0,0,2.543,2.68c.287.18,4.116-3.334,3.994-3.717-.433-1.354-1.727-1.981-2.55-2.91" transform="translate(-92.066 -68.159)" fill="#f27b68"/>
        <path id="Trazado_721851" data-name="Trazado 721851" d="M62.12,84.8A2.022,2.022,0,0,1,59.972,86.8a1.92,1.92,0,0,1-2-2.131,1.868,1.868,0,0,1,2.1-1.992A1.976,1.976,0,0,1,62.12,84.8" transform="translate(-28.187 -40.201)" fill="#f27b68"/>
        <path id="Trazado_721852" data-name="Trazado 721852" d="M199.749,96.653A7.835,7.835,0,0,1,202.256,99c.623.8-.4,1.117-.768,1.592a13.54,13.54,0,0,1-1.242,1.265c-1.63,1.623-3.442,1.275-4.3-.827a1.441,1.441,0,0,1-.166-.452,18.718,18.718,0,0,1,3.965-3.922" transform="translate(-95.196 -46.996)" fill="#050504"/>
        <path id="Trazado_721853" data-name="Trazado 721853" d="M199.919,146.053c.823.929,2.117,1.556,2.55,2.91.123.383-3.707,3.9-3.994,3.717a5.553,5.553,0,0,1-2.543-2.68c-.114-.314,3.543-3.953,3.986-3.947" transform="translate(-95.267 -71.015)" fill="#030202"/>
      </g>
    </g>
  </g>
</svg>
