<svg xmlns="http://www.w3.org/2000/svg" xmlns:xlink="http://www.w3.org/1999/xlink" width="169" height="169" viewBox="0 0 169 169">
  <defs>
    <clipPath id="clip-path">
      <rect id="Rect치ngulo_351452" data-name="Rect치ngulo 351452" width="115.588" height="132.263" fill="none"/>
    </clipPath>
  </defs>
  <g id="Grupo_1018514" data-name="Grupo 1018514" transform="translate(-1062.166 -3490.95)">
    <g id="Grupo_1015077" data-name="Grupo 1015077" transform="translate(-25.834 1432.951)">
      <g id="Grupo_159184" data-name="Grupo 159184" transform="translate(1088 2057.999)">
        <path id="Uni칩n_12" data-name="Uni칩n 12" d="M84.5,0A84.5,84.5,0,1,1,0,84.5,84.5,84.5,0,0,1,84.5,0Z" transform="translate(0 0)" fill="#cda7ff"/>
      </g>
    </g>
    <g id="Grupo_1018469" data-name="Grupo 1018469" transform="translate(1088.987 3507.737)">
      <g id="Grupo_1018468" data-name="Grupo 1018468" clip-path="url(#clip-path)">
        <path id="Trazado_722115" data-name="Trazado 722115" d="M130.923,132.007q0,2.5,0,5c-1.906.385-2,1.806-2,3.361q.027,15.75.009,31.5c0,3.663,0,3.667-3.737,3.668q-43.375,0-86.75-.006c-.854,0-1.708-.1-2.563-.154q0-38.777,0-77.553A8.066,8.066,0,0,1,36.9,97.7q45.05-.01,90.1-.047c1.671,0,1.972.555,1.963,2.067-.061,9.639-.021,19.278-.041,28.916,0,1.561.112,2.97,2,3.371m-35.558-2.139c-.335-1.737-1.573-2.021-3.086-2.011-4.643.03-9.287-.011-13.93.018-3.664.023-5.2,1.537-5.211,5.176q-.035,15.221,0,30.442c.009,3.54,1.531,5.08,5.008,5.085q19.734.029,39.468,0c3.369-.005,4.971-1.537,4.982-4.839q.051-15.479,0-30.958c-.009-3.2-1.576-4.851-4.691-4.895-4.9-.068-9.8,0-14.7-.029-1.471-.008-2.507.475-2.845,2.01H95.365" transform="translate(-17.341 -47.19)" fill="#fecf85"/>
        <path id="Trazado_722116" data-name="Trazado 722116" d="M113.582,84.817c-1.887-.4-2-1.81-2-3.371.021-9.639-.02-19.278.041-28.916.01-1.512-.292-2.07-1.962-2.067q-45.05.081-90.1.047a8.065,8.065,0,0,0-1.019.127c-4.033-.044-8.073.035-12.1-.183-2.124-.115-2.5.653-2.5,2.593.067,19.5.041,39,.041,58.507,0,4.811.038,9.623-.019,14.433-.02,1.611.534,2.4,2.218,2.365,4.117-.084,8.235-.111,12.352-.162.855.054,1.709.154,2.564.155q43.375.012,86.75.006c3.733,0,3.736,0,3.737-3.667q0-15.751-.009-31.5c0-1.555.093-2.977,2-3.362,1.55.318,2.007,1.353,2,2.827-.022,11.272.02,22.543-.031,33.814-.017,3.618-2.224,5.785-5.823,5.787q-51.879.029-103.758,0c-3.772,0-5.946-2.136-5.95-5.923q-.037-39.88.018-79.76a12.785,12.785,0,0,1,9.571-12.6c1.71-.5,2.031-1.265,1.989-2.851-.109-4.041-.059-8.087-.029-12.131.037-5.023,2.263-7.254,7.229-7.31,4.359-.05,4.359-.05,4.384-4.416C23.213,2.379,25.564.039,30.5.037,48.478.029,66.459.053,84.44,0a4.912,4.912,0,0,1,3.841,1.615Q95.329,8.8,102.513,15.854a4.616,4.616,0,0,1,1.53,3.633c-.071,4.043.036,8.089-.057,12.131-.031,1.354.4,1.871,1.7,2.286,6.359,2.03,9.856,6.832,9.878,13.489.038,11.357,0,22.715.024,34.073,0,1.571-.124,2.958-2.006,3.352M38.781,4.051c-3.059-.507-6.138-.179-9.206-.184A2.176,2.176,0,0,0,27.159,5.74c-.233,1.924-.568,3.888.228,5.769.079.187.613.261.933.253,3.33-.084,6.669.266,9.992-.192,7.908.039,15.816.066,23.723.122,4.294.031,8.952-.909,12.779.457,3.843,1.371,6.284,5.659,9.344,8.661,2.757,2.706,6.422,5.11,7.794,8.43s.425,7.6.44,11.466c.025,6.328,0,6.287,6.342,5.871,1.162-.076,1.421-.448,1.415-1.518q-.053-11.738,0-23.477c.007-1.153-.386-1.47-1.484-1.441-2.492.065-4.987.03-7.481.017-4.9-.026-7.2-2.338-7.239-7.291-.02-2.322-.068-4.646.005-6.965.043-1.37-.294-2-1.843-1.991-14.443.085-28.887.1-43.331.14M26.82,46.456l60.12.085a1.951,1.951,0,0,1,.258,0c1.027.135,1.323-.343,1.313-1.33-.042-3.957-.05-7.915,0-11.871.017-1.233-.433-1.656-1.652-1.626q-4,.1-8,.005c-4.1-.087-6.515-2.528-6.581-6.636-.042-2.58-.056-5.162.012-7.741.032-1.209-.111-1.833-1.614-1.825-14.449.085-28.9.088-43.347.115-3-.029-5.991-.051-8.987-.089-1.887-.024-2.892.855-2.893,2.774,0,8.909.024,17.818-.032,26.727-.008,1.314.485,1.556,1.643,1.524,3.251-.09,6.5-.083,9.757-.114m-15.21-4.22c0-.939-.057-1.882.012-2.816.13-1.75-.524-2.133-2.084-1.4a9.5,9.5,0,0,0-4.795,4.764c-1.447,3.187-1.07,3.766,2.351,3.768,4.515,0,4.515,0,4.515-4.317m92.365-.327a6.141,6.141,0,0,0,.014,1.283c.239,1.093-.745,2.906.64,3.179a23.822,23.822,0,0,0,6.622-.035c.59-.053.289-1.067.166-1.6a9.191,9.191,0,0,0-3.319-5.351c-1.075-.834-2.351-2.071-3.606-1.553-1.168.481-.309,2.17-.51,3.3a4.5,4.5,0,0,0-.007.77M87.784,7.056c0,2.4-.041,4.589.016,6.78a2.107,2.107,0,0,0,1.976,2.293,33.305,33.305,0,0,0,7.1-.048l-9.1-9.025M76.274,18.944c0,2.308-.047,4.588.019,6.864a1.979,1.979,0,0,0,1.978,2.014c2.332.109,4.672.033,6.8.033l-8.8-8.91" transform="translate(0 0)" fill="#090907"/>
        <path id="Trazado_722117" data-name="Trazado 722117" d="M22.238,175.359c-4.118.05-8.236.077-12.353.162-1.683.034-2.237-.754-2.218-2.366.058-4.81.02-9.622.02-14.433,0-19.5.026-39-.041-58.506-.007-1.94.372-2.708,2.5-2.593,4.023.218,8.064.138,12.1.182q0,38.776,0,77.553" transform="translate(-3.695 -47.17)" fill="#fec265"/>
        <path id="Trazado_722118" data-name="Trazado 722118" d="M141.726,159.994h4.994c.362,1.7,1.558,2.028,3.09,2.014,4.469-.042,8.939,0,13.409-.022.994,0,1.8-.1,1.788,1.392q-.085,14.956-.008,29.914c0,1.124-.354,1.474-1.472,1.467-10.568-.072-21.137-.1-31.706-.136q.009-1.775.018-3.55l20.825-.079c1.715-.006,3.43.017,5.143-.019a1.781,1.781,0,0,0,1.962-1.9c.021-1.283-.784-1.82-1.963-1.887-.684-.039-1.371-.023-2.057-.025l-23.913-.074q0-1.584,0-3.17c.94-.032,1.881-.091,2.821-.092,7.458-.008,14.916.01,22.374-.013,2.294-.007,3.407-1.328,2.5-2.862-.65-1.1-1.751-.906-2.76-.911q-12.469-.064-24.937-.107,0-1.574-.006-3.15c1.884-.025,3.769-.068,5.653-.07,6.515-.009,13.031.018,19.545-.017,2.306-.012,3.431-1.368,2.5-2.884-.649-1.061-1.729-.932-2.76-.935q-12.47-.033-24.941-.077-.008-1.508-.016-3.016,12.36-.056,24.721-.115c1.475-.008,3.2.109,3.209-2s-1.706-1.98-3.192-1.985q-12.363-.036-24.726-.079,0-1.763,0-3.526c2.375-.031,4.751-.1,7.125-.081,1.459.009,2.469-.482,2.768-2.011" transform="translate(-63.701 -77.315)" fill="#d9ebfd"/>
        <path id="Trazado_722119" data-name="Trazado 722119" d="M130.187,158.112c-.3,1.529-1.309,2.02-2.768,2.011-2.375-.014-4.75.05-7.125.081-2.311-.037-4.625-.027-6.933-.129-1.151-.052-1.448.4-1.445,1.485q.048,14.918,0,29.835c0,1.078.28,1.556,1.439,1.5,2.307-.106,4.618-.111,6.928-.157,10.569.039,21.138.065,31.706.136,1.118.007,1.476-.343,1.472-1.467q-.053-14.957.008-29.914c.008-1.488-.795-1.4-1.788-1.392-4.469.018-8.939-.02-13.409.022-1.532.014-2.728-.316-3.09-2.014.338-1.535,1.374-2.018,2.845-2.01,4.9.028,9.8-.039,14.7.029,3.115.043,4.681,1.7,4.691,4.895q.045,15.479,0,30.958c-.011,3.3-1.612,4.834-4.982,4.839q-19.734.028-39.468,0c-3.477-.005-5-1.546-5.008-5.085q-.037-15.221,0-30.442c.008-3.639,1.547-5.154,5.211-5.176,4.643-.029,9.287.012,13.93-.018,1.513-.01,2.751.274,3.086,2.011" transform="translate(-52.162 -75.433)" fill="#0e0d0c"/>
        <path id="Trazado_722120" data-name="Trazado 722120" d="M52.322,30.144c14.449-.027,28.9-.03,43.347-.115,1.5-.009,1.646.615,1.614,1.825-.068,2.579-.054,5.161-.012,7.741.067,4.107,2.479,6.549,6.581,6.636q4,.084,8-.005c1.219-.029,1.668.393,1.652,1.626-.052,3.956-.044,7.914,0,11.871.01.988-.285,1.466-1.313,1.33a1.952,1.952,0,0,0-.258,0l-60.12-.085q0-1.92,0-3.84c.943-.038,1.886-.109,2.829-.11q22.846-.01,45.691-.006c.774,0,1.55.015,2.321-.042a1.734,1.734,0,0,0,1.76-1.845,1.76,1.76,0,0,0-1.755-1.859c-.769-.067-1.547-.04-2.321-.042q-24.261-.052-48.522-.1l-.025-3.009c.941-.05,1.882-.142,2.823-.143q18.718-.015,37.437-.01a15.856,15.856,0,0,0,2.316-.1,1.785,1.785,0,0,0,1.626-1.994,1.817,1.817,0,0,0-1.842-1.8c-.687-.031-1.376-.02-2.064-.022l-40.272-.075c-.007-3.512-.072-7.025.005-10.535.039-1.765-.477-3.606.506-5.287" transform="translate(-24.991 -14.511)" fill="#d9ebfd"/>
        <path id="Trazado_722121" data-name="Trazado 722121" d="M74.445,7.708c14.443-.037,28.887-.054,43.331-.14,1.549-.009,1.886.62,1.843,1.991-.073,2.32-.025,4.643-.005,6.965.042,4.954,2.337,7.266,7.239,7.291,2.494.013,4.989.049,7.481-.017,1.1-.028,1.49.288,1.484,1.441q-.067,11.739,0,23.478c0,1.069-.253,1.441-1.415,1.517-6.338.417-6.317.457-6.342-5.87-.016-3.862.931-8.15-.44-11.466s-5.037-5.725-7.794-8.43c-3.06-3-5.5-7.289-9.344-8.661-3.827-1.366-8.485-.426-12.779-.457-7.907-.057-15.816-.084-23.724-.122a18.545,18.545,0,0,1,.471-7.519" transform="translate(-35.664 -3.657)" fill="#60daf8"/>
        <path id="Trazado_722122" data-name="Trazado 722122" d="M41.216,50.136l.025,3.009c-.856.042-1.713.078-2.568.129a1.867,1.867,0,1,0,0,3.734c.855.038,1.71.094,2.565.143v3.84c-3.252.031-6.506.024-9.757.114-1.159.033-1.652-.21-1.644-1.524.056-8.909.028-17.818.032-26.727,0-1.919,1.006-2.8,2.892-2.774,3,.039,5.992.06,8.987.089-.983,1.682-.467,3.523-.505,5.288-.078,3.51-.012,7.023-.006,10.534-.844.03-1.689.05-2.533.094A1.851,1.851,0,0,0,36.757,48,1.884,1.884,0,0,0,38.7,49.935c.837.081,1.677.135,2.516.2" transform="translate(-14.419 -14.534)" fill="#b1d4f4"/>
        <path id="Trazado_722123" data-name="Trazado 722123" d="M63.923,7.574a18.545,18.545,0,0,0-.471,7.519c-3.322.458-6.661.108-9.991.192-.319.009-.853-.066-.932-.253-.8-1.88-.461-3.844-.228-5.769A2.177,2.177,0,0,1,54.717,7.39c3.069.007,6.147-.322,9.206.184" transform="translate(-25.142 -3.523)" fill="#10aaca"/>
        <path id="Trazado_722124" data-name="Trazado 722124" d="M15.3,77.46c0,4.319,0,4.319-4.515,4.317-3.421,0-3.8-.581-2.351-3.768a9.5,9.5,0,0,1,4.795-4.764c1.561-.735,2.214-.351,2.084,1.4-.069.934-.012,1.877-.012,2.816" transform="translate(-3.69 -35.224)" fill="#f1a00e"/>
        <path id="Trazado_722125" data-name="Trazado 722125" d="M201.1,77.174a4.453,4.453,0,0,1,.006-.77c.2-1.135-.658-2.824.511-3.3,1.254-.517,2.531.72,3.606,1.554A9.192,9.192,0,0,1,208.544,80c.123.529.424,1.544-.166,1.6a23.8,23.8,0,0,1-6.622.035c-1.384-.272-.4-2.085-.64-3.179a6.068,6.068,0,0,1-.013-1.283" transform="translate(-97.127 -35.265)" fill="#f1a00e"/>
        <path id="Trazado_722126" data-name="Trazado 722126" d="M169.861,13.654l9.1,9.025a33.305,33.305,0,0,1-7.1.048,2.107,2.107,0,0,1-1.976-2.293c-.057-2.191-.016-4.384-.016-6.78" transform="translate(-82.076 -6.598)" fill="#00baf1"/>
        <path id="Trazado_722127" data-name="Trazado 722127" d="M147.585,36.66l8.8,8.91c-2.13,0-4.47.076-6.8-.033a1.979,1.979,0,0,1-1.978-2.014c-.066-2.276-.019-4.556-.019-6.864" transform="translate(-71.311 -17.716)" fill="#8ec5f4"/>
        <path id="Trazado_722128" data-name="Trazado 722128" d="M124,196.454c-2.309.047-4.621.05-6.928.157-1.159.054-1.442-.425-1.439-1.5q.046-14.918,0-29.835c0-1.09.293-1.536,1.445-1.485,2.308.1,4.622.093,6.933.129q0,1.763,0,3.526c-2.643.289-3.69,1.245-3.031,2.795.578,1.359,1.92,1.12,3.018,1.38q.009,1.508.016,3.016c-1.522.159-3.383.028-3.08,2.374.231,1.783,1.888,1.37,3.078,1.609q0,1.575.006,3.15c-1.18.266-2.843-.164-3.086,1.618-.329,2.4,1.611,2.148,3.085,2.367q0,1.584,0,3.169c-1.265.246-3.026-.171-3.1,1.859-.083,2.179,1.7,1.947,3.1,2.124q-.009,1.774-.018,3.549" transform="translate(-55.877 -79.147)" fill="#accdeb"/>
        <path id="Trazado_722129" data-name="Trazado 722129" d="M128.822,175.041c-1.1-.26-2.441-.021-3.018-1.38-.659-1.549.388-2.506,3.031-2.795q12.364.04,24.726.079c1.486,0,3.2-.127,3.192,1.985s-1.734,1.988-3.209,2q-12.36.066-24.721.115" transform="translate(-60.701 -82.569)" fill="#0d0f10"/>
        <path id="Trazado_722130" data-name="Trazado 722130" d="M128.95,216.413c-1.4-.177-3.186.055-3.1-2.124.076-2.03,1.837-1.613,3.1-1.859l23.913.074c.685,0,1.373-.014,2.056.024,1.18.068,1.984.605,1.963,1.888a1.781,1.781,0,0,1-1.962,1.9c-1.714.036-3.429.012-5.143.019l-20.825.079" transform="translate(-60.813 -102.655)" fill="#010101"/>
        <path id="Trazado_722131" data-name="Trazado 722131" d="M128.943,188.763c-1.19-.239-2.847.174-3.078-1.609-.3-2.346,1.558-2.215,3.08-2.374q12.47.04,24.941.078c1.031,0,2.111-.127,2.76.934.928,1.517-.2,2.872-2.5,2.885-6.515.035-13.031.008-19.545.017-1.885,0-3.769.046-5.654.07" transform="translate(-60.807 -89.293)" fill="#010101"/>
        <path id="Trazado_722132" data-name="Trazado 722132" d="M128.942,202.569c-1.474-.218-3.413.033-3.085-2.367.244-1.782,1.906-1.352,3.086-1.619q12.469.051,24.937.106c1.009.005,2.11-.193,2.76.911.9,1.535-.209,2.855-2.5,2.862-7.458.023-14.916.006-22.374.013-.941,0-1.88.06-2.821.092" transform="translate(-60.801 -95.964)" fill="#010101"/>
        <path id="Trazado_722133" data-name="Trazado 722133" d="M47.745,78.722c-.855-.048-1.71-.1-2.566-.142a1.867,1.867,0,1,1,0-3.734c.855-.052,1.712-.086,2.568-.129q24.261.05,48.522.1c.774,0,1.552-.024,2.321.042a1.76,1.76,0,0,1,1.755,1.859,1.734,1.734,0,0,1-1.76,1.845c-.771.057-1.548.042-2.321.042q-22.846,0-45.691.006c-.943,0-1.886.071-2.829.11" transform="translate(-20.924 -36.106)" fill="#010101"/>
        <path id="Trazado_722134" data-name="Trazado 722134" d="M47.687,65.016c-.839-.066-1.678-.12-2.516-.2a1.884,1.884,0,0,1-1.944-1.939,1.851,1.851,0,0,1,1.949-1.913c.844-.044,1.689-.064,2.533-.094l40.272.076c.688,0,1.378-.01,2.065.021a1.818,1.818,0,0,1,1.842,1.8,1.785,1.785,0,0,1-1.626,1.994,15.85,15.85,0,0,1-2.316.1q-18.718.009-37.437.01c-.941,0-1.882.093-2.823.143" transform="translate(-20.889 -29.414)" fill="#0d0f10"/>
      </g>
    </g>
  </g>
</svg>
