<svg xmlns="http://www.w3.org/2000/svg" xmlns:xlink="http://www.w3.org/1999/xlink" width="169" height="169" viewBox="0 0 169 169">
  <defs>
    <clipPath id="clip-path">
      <rect id="Rect치ngulo_351403" data-name="Rect치ngulo 351403" width="131" height="130.974" fill="none"/>
    </clipPath>
  </defs>
  <g id="Grupo_1018520" data-name="Grupo 1018520" transform="translate(3565.334 5588.44)">
    <g id="Grupo_1018401" data-name="Grupo 1018401" transform="translate(-4653.334 -7646.439)">
      <g id="Grupo_159184" data-name="Grupo 159184" transform="translate(1088 2057.999)">
        <path id="Uni칩n_12" data-name="Uni칩n 12" d="M84.5,0A84.5,84.5,0,1,1,0,84.5,84.5,84.5,0,0,1,84.5,0Z" transform="translate(0 0)" fill="#cda7ff"/>
      </g>
    </g>
    <g id="Grupo_1018414" data-name="Grupo 1018414" transform="translate(-3546 -5569.761)">
      <g id="Grupo_1018413" data-name="Grupo 1018413" clip-path="url(#clip-path)">
        <path id="Trazado_721785" data-name="Trazado 721785" d="M73.222,124.2a35.523,35.523,0,0,0-3.546,1.813c-1.21.781-1.984.517-2.926-.467-2.736-2.855-5.5-5.686-8.4-8.38a2.314,2.314,0,0,1-.513-3.371c.953-1.675,2.008-3.158,1.087-5.545-.994-2.577-2.734-3.426-4.991-3.878-1.6-.32-2.05-1.114-1.988-2.7a77.694,77.694,0,0,0-.03-10.013c-.26-2.869.6-4.4,3.493-4.8,1.549-.213,2.362-1.147,3.146-2.652,1.221-2.343.743-4.16-.559-6.044-1.016-1.472-.891-2.536.517-3.795a69.755,69.755,0,0,0,7.069-7.089c1.735-2.072,3.326-2.514,5.468-.871,1.456,1.117,2.851.911,4.615.389,2.641-.781,3.208-2.724,3.684-4.837a2.211,2.211,0,0,1,2.665-2.047c3.951.139,7.914.136,11.865,0,1.551-.053,2.073.539,2.534,1.891.6,1.77.584,3.747,3.072,4.729,2.361.931,4.166.827,6.046-.529,1.6-1.155,2.7-.792,3.991.619,2.49,2.721,5.112,5.334,7.828,7.83a2.471,2.471,0,0,1,.544,3.593c-.9,1.6-2.064,3.01-1.059,5.3.95,2.163,2.11,3.5,4.4,3.793,2.17.278,2.771,1.439,2.619,3.57a50.746,50.746,0,0,0,.014,8.955c.338,3.163-.536,4.959-3.87,5.291-1.407.14-2.03,1.155-2.7,2.438a5.185,5.185,0,0,0,.411,6.05c1.126,1.521,1,2.671-.512,4a70.89,70.89,0,0,0-6.9,6.887c-1.765,2.049-3.4,2.752-5.678.925-1.344-1.079-2.688-.88-4.365-.38-2.455.732-3.281,2.413-3.691,4.5-.368,1.87-1.2,2.551-3.178,2.439a68.488,68.488,0,0,0-10.013.019c-2.722.246-3.938-.688-4.454-3.288-.41-2.069-3.579-4.379-5.69-4.339m28.388-4.69c.428.032,1-.1,1.262.122,3.321,2.842,5.59,1.008,7.7-1.655a3.8,3.8,0,0,1,.745-.743c2.016-1.438,2.607-3.077.936-5.215a2.818,2.818,0,0,1-.71-2.445,19.128,19.128,0,0,0,2.625-5.985c.279-.989.757-1.663,1.675-1.75,3.44-.323,4.248-2.345,3.735-5.386a6.858,6.858,0,0,1,0-2.364c.446-2.358-.511-3.569-2.831-3.981-.973-.173-2.118-.265-2.464-1.6a24.3,24.3,0,0,0-2.483-6.063,1.783,1.783,0,0,1,.139-2.2c2.171-2.56,1.21-4.478-1.112-6.27a22.287,22.287,0,0,1-2.8-2.782c-.747-.827-1.509-1.2-2.472-.423-2.242,1.811-4.4,1.471-6.682-.019a9.743,9.743,0,0,0-3.192-1.177c-.983-.219-1.723-.672-1.8-1.622-.3-3.662-2.592-4.162-5.608-3.795a20.743,20.743,0,0,1-3.686.007c-1.014-.059-1.81.182-1.9,1.279-.262,3.149-2.3,4.381-5.063,5.037a11.624,11.624,0,0,0-2.86,1.3,1.964,1.964,0,0,1-2.43.043c-2.674-2.236-4.64-1.195-6.465,1.223a21.257,21.257,0,0,1-2.781,2.8,1.484,1.484,0,0,0-.319,2.275c1.775,2.227,1.559,4.381.053,6.685a10.682,10.682,0,0,0-1.264,3.438c-.212.918-.71,1.527-1.514,1.578-3.926.247-4.205,2.768-3.856,5.831a25.017,25.017,0,0,1,.012,3.686c-.027.78.113,1.528.968,1.586,3.7.251,4.741,2.9,5.594,5.862a14.9,14.9,0,0,0,1.465,2.772c0,.345.14.818-.032,1.018-3.148,3.673-.89,6.053,1.939,8.313a2.631,2.631,0,0,1,.555.56c1.406,2.1,3.053,2.235,5.03.754a2.859,2.859,0,0,1,2.445-.713,20.641,20.641,0,0,0,5.963,2.627c.815.249,1.592.492,1.665,1.4.333,4.087,2.99,4.414,6.221,4.014a20.538,20.538,0,0,1,3.411-.01c.8.036,1.506-.172,1.558-1,.232-3.712,2.942-4.676,5.859-5.554a15.553,15.553,0,0,0,2.761-1.466" transform="translate(-24.471 -28.262)" fill="#070706"/>
        <path id="Trazado_721786" data-name="Trazado 721786" d="M27.522,221.425c-8.443,0-16.886-.048-25.328.04-1.695.017-2.21-.394-2.195-2.141.014-1.7.437-2.436,2.173-2.121,1.709.31,2.215-.371,2.163-2.107-.131-4.3.02-8.618-.077-12.924-.034-1.482.372-1.953,1.879-1.894,2.986.118,5.982.116,8.968,0,1.492-.058,1.924.386,1.891,1.883-.1,4.394.074,8.8-.087,13.187-.068,1.86.765,1.895,2.162,1.891s2.2-.021,2.167-1.885c-.129-7.12,0-14.244-.094-21.365-.024-1.71.408-2.255,2.152-2.164,2.894.152,5.806.124,8.7.007,1.493-.06,1.906.389,1.889,1.884-.078,7.121.022,14.245-.076,21.366-.023,1.706.411,2.2,2.148,2.19,1.71-.007,2.246-.441,2.159-2.178-.148-2.982.018-5.979-.069-8.966-.037-1.265.335-1.656,1.612-1.621q4.745.131,9.5,0c1.271-.035,1.653.348,1.616,1.617-.088,2.987.078,5.984-.069,8.966-.086,1.73.437,2.425,2.156,2.113s2.168.407,2.177,2.116c.009,1.737-.486,2.164-2.19,2.146-8.442-.089-16.885-.041-25.328-.041m2.111-14.6c0-2.978-.088-5.96.035-8.934.066-1.582-.551-1.96-1.968-1.828-1.168.108-2.389-.343-2.341,1.725q.2,8.8,0,17.6c-.045,1.938.944,1.76,2.241,1.844,1.572.1,2.166-.317,2.076-2.005-.148-2.795-.04-5.6-.041-8.407M8.514,210.824c0,1.66.08,3.326-.022,4.98-.111,1.795,1.126,1.419,2.087,1.378.9-.039,2.214.573,2.177-1.286-.067-3.32-.04-6.642,0-9.963.01-.948-.217-1.376-1.292-1.432-1.961-.1-3.473-.02-2.984,2.659a20.822,20.822,0,0,1,.038,3.664m38.013,2.4a17.2,17.2,0,0,1,.018-2.352c.241-1.733-.463-2.159-2.152-2.179-1.768-.022-2.274.559-2.119,2.221a21.584,21.584,0,0,1,0,4.18c-.18,1.738.474,2.159,2.163,2.18,1.768.022,2.333-.563,2.106-2.221a13.626,13.626,0,0,1-.013-1.829" transform="translate(0 -90.492)"/>
        <path id="Trazado_721787" data-name="Trazado 721787" d="M20.923,0a37.805,37.805,0,0,1,14.2,3.27c.936.391,1.185.873,1.043,1.988-.431,3.374,1.115,5.192,4.5,5.275,1.421.035,1.715.461,1.7,1.783-.132,13.712-5.995,24.492-16.75,32.732a7.081,7.081,0,0,1-8.837-.03C6.036,36.756.177,25.979.059,12.263.047,10.841.5,10.579,1.82,10.539c3.24-.1,4.945-1.973,4.469-5.072-.213-1.387.2-1.836,1.322-2.3A37.817,37.817,0,0,1,20.923,0m2.407,41.41c8.6-6.643,13.363-14.892,14.632-25.171a1.764,1.764,0,0,0-1.2-2.214,7.9,7.9,0,0,1-4.837-6.158,2.068,2.068,0,0,0-1.716-1.948c-1.791-.426-3.589-.827-5.369-1.3-1.181-.311-1.577.088-1.527,1.279.07,1.668-.051,3.344.037,5.009.069,1.3-.273,1.771-1.71,1.853-2.062.117-2.836-.5-2.576-2.592a28.486,28.486,0,0,0,.018-4.215c-.012-.476.21-1.059-.4-1.38-1.641-.863-7.757,1.9-8.255,3.75-.547,2.027-1.478,4.044-3.368,4.828-2.8,1.16-2.885,2.988-2.238,5.37.252.929.345,1.9.592,2.832A35.681,35.681,0,0,0,19.1,41.35c0-7.7.045-14.976-.034-22.248-.017-1.635.3-2.286,2.122-2.256,1.706.029,2.209.461,2.185,2.2-.1,7.282-.041,14.567-.041,22.365" transform="translate(-0.028 0)" fill="#040405"/>
        <path id="Trazado_721788" data-name="Trazado 721788" d="M188.893,202.619c-3.427,0-6.855.046-10.281-.012a6.278,6.278,0,0,1-6.582-6.656c-.052-5.446-.006-10.893-.017-16.34a5.755,5.755,0,0,1,2.8-5.333c1.346-.767,1.465-1.7,1.439-2.977-.049-2.371-.071-4.746.008-7.115a12.657,12.657,0,0,1,25.3.035c.055,1.579.01,3.163.021,4.744.016,2.371-.477,4.767,2.432,6.23,1.453.731,1.8,2.7,1.8,4.452-.018,5.447.035,10.894-.021,16.34-.041,4-2.621,6.558-6.618,6.622-3.426.055-6.853.011-10.28.011m-.107-4.223c3.162,0,6.327-.078,9.486.025,2.329.076,3.384-.786,3.338-3.212-.094-4.916-.079-9.836,0-14.753.033-2.206-.789-3.22-3.082-3.2-6.412.067-12.825.056-19.236,0-2.082-.017-3.083.779-3.061,2.94q.08,7.64,0,15.281c-.022,2.17,1,2.971,3.074,2.927,3.16-.067,6.324-.017,9.486-.017m.032-25.336c2.283,0,4.571-.091,6.846.033,1.435.078,1.779-.44,1.722-1.776-.1-2.367.052-4.744-.058-7.108a8.426,8.426,0,0,0-16.837.076c-.1,2.366.075,4.745-.062,7.108-.086,1.485.516,1.743,1.805,1.692,2.192-.087,4.389-.024,6.584-.024" transform="translate(-81.146 -71.685)" fill="#020202"/>
        <path id="Trazado_721789" data-name="Trazado 721789" d="M183.146,46.507a23.231,23.231,0,1,1,23.348-22.989,23.274,23.274,0,0,1-23.348,22.989m19.112-23.165a19,19,0,1,0-19,18.929,19.05,19.05,0,0,0,19-18.929" transform="translate(-75.494 -0.022)" fill="#080806"/>
        <path id="Trazado_721790" data-name="Trazado 721790" d="M36.071,118.88c0-6.948.06-13.9-.042-20.843-.025-1.722.436-2.179,2.156-2.183s2.156.483,2.148,2.189q-.106,21.108,0,42.215c.008,1.719-.435,2.178-2.155,2.183s-2.173-.481-2.149-2.19c.1-7.122.041-14.247.041-21.371" transform="translate(-16.997 -45.22)"/>
        <path id="Trazado_721791" data-name="Trazado 721791" d="M102,43.976c5.365,0,10.734.1,16.095-.052,1.861-.051,1.89.771,1.891,2.164s-.038,2.179-1.891,2.161q-16.1-.157-32.192,0c-1.856.018-1.889-.77-1.889-2.163s.033-2.213,1.892-2.162c5.361.148,10.73.052,16.095.052" transform="translate(-39.634 -20.721)"/>
        <path id="Trazado_721792" data-name="Trazado 721792" d="M119.876,224.066c-4.662,0-9.327-.105-13.983.052-1.859.063-1.9-.763-1.893-2.16s.03-2.186,1.888-2.164q13.983.169,27.968,0c1.853-.022,1.894.763,1.892,2.16s-.025,2.228-1.889,2.164c-4.656-.157-9.321-.052-13.982-.052" transform="translate(-49.063 -103.69)"/>
        <path id="Trazado_721793" data-name="Trazado 721793" d="M204.193,108.676c0,3.606-.083,7.214.039,10.815.053,1.575-.511,1.987-1.941,1.816-1.11-.134-2.4.484-2.368-1.657.125-7.384.113-14.773,0-22.157-.029-1.973,1.152-1.482,2.207-1.539,1.187-.064,2.178-.189,2.1,1.647-.151,3.687-.045,7.384-.045,11.077" transform="translate(-94.316 -45.253)"/>
        <path id="Trazado_721794" data-name="Trazado 721794" d="M68,113.284a14.9,14.9,0,0,1-1.465-2.772c-.853-2.963-1.9-5.611-5.594-5.862-.855-.058-1-.806-.968-1.586a25.017,25.017,0,0,0-.012-3.686c-.35-3.062-.071-5.583,3.856-5.831.8-.051,1.3-.66,1.514-1.578a10.682,10.682,0,0,1,1.264-3.438c1.506-2.3,1.722-4.458-.053-6.685a1.485,1.485,0,0,1,.319-2.275,21.225,21.225,0,0,0,2.781-2.8c1.825-2.418,3.791-3.459,6.465-1.223a1.963,1.963,0,0,0,2.43-.043,11.625,11.625,0,0,1,2.86-1.3c2.758-.657,4.8-1.888,5.063-5.037.091-1.1.888-1.338,1.9-1.279a20.692,20.692,0,0,0,3.686-.007c3.017-.367,5.311.133,5.608,3.795.077.95.818,1.4,1.8,1.623a9.743,9.743,0,0,1,3.192,1.177c2.278,1.49,4.44,1.83,6.682.02.963-.778,1.724-.4,2.472.423a22.318,22.318,0,0,0,2.8,2.781c2.322,1.792,3.282,3.71,1.112,6.27a1.783,1.783,0,0,0-.139,2.2,24.3,24.3,0,0,1,2.483,6.063c.346,1.331,1.491,1.423,2.464,1.6,2.321.412,3.277,1.624,2.831,3.982a6.855,6.855,0,0,0,0,2.363c.512,3.042-.3,5.063-3.735,5.386-.918.086-1.4.76-1.675,1.75a19.128,19.128,0,0,1-2.625,5.985,2.1,2.1,0,0,0-.311,0c-1.664-3.471-1.429-6.941-.4-10.58.744-2.632.3-5.408-.251-8.1-2.543-12.331-14.864-20.276-27.535-17.741-12.065,2.414-20.45,14.6-17.887,26.612a15.666,15.666,0,0,1-.621,9.811,1.983,1.983,0,0,0-.307,0" transform="translate(-28.234 -31.974)" fill="#f6d26d"/>
        <path id="Trazado_721795" data-name="Trazado 721795" d="M121.526,172.468a15.551,15.551,0,0,1-2.761,1.466c-2.917.878-5.627,1.842-5.859,5.554-.052.83-.758,1.039-1.558,1a20.534,20.534,0,0,0-3.411.01c-3.23.4-5.887.073-6.221-4.014-.073-.9-.85-1.147-1.665-1.4a20.641,20.641,0,0,1-5.963-2.627,1.42,1.42,0,0,0,0-.3l27.438,0a1.609,1.609,0,0,0,0,.3" transform="translate(-44.387 -81.221)" fill="#f8d36e"/>
        <path id="Trazado_721796" data-name="Trazado 721796" d="M83.822,163.559a1.418,1.418,0,0,1,0,.3,2.858,2.858,0,0,0-2.445.713c-1.978,1.482-3.624,1.343-5.03-.754a2.619,2.619,0,0,0-.555-.56c-2.829-2.26-5.087-4.64-1.939-8.313.172-.2.029-.673.032-1.018a1.923,1.923,0,0,1,.307,0c.563,6.114,3.474,9.029,9.629,9.637" transform="translate(-34.122 -72.612)" fill="#ebc868"/>
        <path id="Trazado_721797" data-name="Trazado 721797" d="M146.025,163.859a1.607,1.607,0,0,1,0-.3c6.131-.582,9.067-3.52,9.627-9.633a2.031,2.031,0,0,1,.311,0,2.818,2.818,0,0,0,.71,2.445c1.671,2.138,1.08,3.776-.936,5.215a3.8,3.8,0,0,0-.745.743c-2.114,2.664-4.383,4.5-7.7,1.655-.263-.225-.835-.09-1.262-.122" transform="translate(-68.886 -72.613)" fill="#ebc868"/>
        <path id="Trazado_721798" data-name="Trazado 721798" d="M52.279,210.606c0,2.8-.108,5.612.041,8.407.09,1.688-.5,2.107-2.076,2.005-1.3-.083-2.287.094-2.241-1.844q.208-8.8,0-17.6c-.048-2.068,1.172-1.616,2.341-1.725,1.416-.132,2.033.246,1.968,1.828-.123,2.973-.035,5.955-.035,8.933" transform="translate(-22.645 -94.268)" fill="#ec7284"/>
        <path id="Trazado_721799" data-name="Trazado 721799" d="M16,222.13a20.766,20.766,0,0,0-.037-3.664c-.489-2.679,1.023-2.76,2.984-2.658,1.074.055,1.3.484,1.292,1.432-.035,3.32-.062,6.643,0,9.963.038,1.858-1.276,1.247-2.177,1.285-.96.042-2.2.417-2.087-1.378.1-1.654.022-3.319.021-4.98" transform="translate(-7.488 -101.798)" fill="#ec7284"/>
        <path id="Trazado_721800" data-name="Trazado 721800" d="M84.255,228.29a13.626,13.626,0,0,0,.013,1.829c.227,1.658-.338,2.242-2.106,2.221-1.688-.021-2.342-.442-2.163-2.18a21.583,21.583,0,0,0,0-4.18c-.154-1.662.351-2.243,2.119-2.221,1.688.021,2.393.446,2.152,2.18a17.2,17.2,0,0,0-.018,2.352" transform="translate(-37.727 -105.561)" fill="#ec7284"/>
        <path id="Trazado_721801" data-name="Trazado 721801" d="M27.288,45.352c0-7.8-.057-15.083.041-22.365.023-1.737-.479-2.169-2.185-2.2-1.818-.03-2.14.62-2.122,2.256.079,7.272.034,14.546.034,22.248A35.681,35.681,0,0,1,9.372,25.3c-.247-.931-.34-1.9-.592-2.832-.648-2.382-.558-4.21,2.238-5.37,1.89-.784,2.821-2.8,3.368-4.828.5-1.85,6.615-4.614,8.255-3.75.61.321.388.9.4,1.38a28.487,28.487,0,0,1-.018,4.215c-.26,2.095.513,2.709,2.576,2.592,1.438-.082,1.779-.551,1.71-1.853-.088-1.666.033-3.342-.037-5.009-.05-1.191.347-1.59,1.527-1.279,1.78.468,3.578.869,5.369,1.3a2.068,2.068,0,0,1,1.716,1.948,7.9,7.9,0,0,0,4.837,6.158,1.764,1.764,0,0,1,1.2,2.214C40.651,30.46,35.888,38.71,27.288,45.352" transform="translate(-3.986 -3.943)" fill="#a8b0bb"/>
        <path id="Trazado_721802" data-name="Trazado 721802" d="M192.554,221c-3.162,0-6.325-.049-9.486.017-2.074.044-3.1-.758-3.074-2.927q.078-7.64,0-15.281c-.022-2.162.979-2.957,3.061-2.94,6.412.052,12.825.062,19.236,0,2.293-.024,3.115.989,3.082,3.2-.074,4.917-.089,9.837,0,14.753.046,2.426-1.009,3.288-3.338,3.212-3.159-.1-6.324-.026-9.486-.026m.3-2.2c1.642.553,2.131-.271,1.945-1.866a3.417,3.417,0,0,1,1.645-3.679,6.023,6.023,0,0,0,.856-9.22,6.247,6.247,0,0,0-9.332.109,6.043,6.043,0,0,0,1.049,9.208,2.99,2.99,0,0,1,1.549,3.2c-.2,1.643.053,2.867,2.288,2.254" transform="translate(-84.914 -94.288)" fill="#b2da7d"/>
        <path id="Trazado_721804" data-name="Trazado 721804" d="M206.041,27.125a19,19,0,1,1-18.865-19.06,19.061,19.061,0,0,1,18.865,19.06m-13.063-4.291c2.805.032,3.045-.313,1.92-2.638a5.242,5.242,0,0,0-3.61-3.226c-1.886-.336-2.453-1.265-2.131-3,.328-1.767-.775-1.738-2.026-1.715-1.275.024-2.576-.161-2.2,1.808.309,1.613-.228,2.382-1.962,2.858a6.037,6.037,0,0,0-4.332,6.7,6.4,6.4,0,0,0,6.105,5.53c1.491.078,2.988.008,4.482.048a2.028,2.028,0,0,1,1.931,1.53,1.88,1.88,0,0,1-.681,2.118c-1.26,1.084-6.38.8-7.322-.605-1.218-1.817-3.163-1.232-4.145-.694-1.093.6.085,2.159.659,3.157a4.761,4.761,0,0,0,3.252,2.5c1.747.29,2.35,1.14,2.014,2.806-.384,1.9.822,1.809,2.155,1.864,1.5.061,2.371-.189,2.082-1.959-.23-1.409.079-2.248,1.823-2.692a6.041,6.041,0,0,0,4.441-6.865,6.419,6.419,0,0,0-6.227-5.4c-1.4-.059-2.813.005-4.219-.029a2.073,2.073,0,0,1-2.088-1.675,1.893,1.893,0,0,1,.816-2.072c1.233-.949,6.369-.681,7.121.6a1.98,1.98,0,0,0,2.141,1.054" transform="translate(-79.277 -3.805)" fill="#f8d36e"/>
        <path id="Trazado_721805" data-name="Trazado 721805" d="M122.554,120.979c-.561,6.114-3.5,9.052-9.628,9.633l-27.438,0c-6.154-.609-9.067-3.522-9.63-9.637a15.663,15.663,0,0,0,.622-9.811c-2.563-12.01,5.822-24.2,17.887-26.613,12.671-2.535,24.992,5.411,27.535,17.741.556,2.7.995,5.472.251,8.1-1.028,3.638-1.264,7.108.4,10.579m-23.36,5.279c4.483,0,8.967.024,13.45-.007,4.633-.031,6.777-3.312,4.757-7.4-4.506-9.127-9.1-18.214-13.636-27.325-.975-1.957-2.368-3.29-4.68-3.236-2.185.051-3.5,1.359-4.426,3.218-4.539,9.111-9.125,18.2-13.634,27.324-2.028,4.1.089,7.387,4.717,7.42,4.484.033,8.968.007,13.452.007m-9.1-35.045C83.561,93.454,78.651,103.589,80.8,109.8l9.293-18.583m27.772,19.075c1.135-8.469-3.953-18.257-9.346-18.664l9.346,18.664" transform="translate(-35.787 -39.668)" fill="#060504"/>
        <path id="Trazado_721806" data-name="Trazado 721806" d="M198.5,220.7c-2.234.613-2.485-.611-2.288-2.255a2.989,2.989,0,0,0-1.549-3.2,6.043,6.043,0,0,1-1.049-9.208,6.248,6.248,0,0,1,9.332-.108,6.022,6.022,0,0,1-.856,9.22,3.417,3.417,0,0,0-1.645,3.679c.186,1.595-.3,2.418-1.945,1.866m1.943-10.368a2.052,2.052,0,0,0-1.9-2.169,2.077,2.077,0,1,0-.174,4.142,2.051,2.051,0,0,0,2.075-1.973" transform="translate(-90.556 -96.191)" fill="#030301"/>
        <path id="Trazado_721807" data-name="Trazado 721807" d="M202.368,26.575a1.98,1.98,0,0,1-2.141-1.054c-.751-1.277-5.887-1.545-7.121-.6A1.893,1.893,0,0,0,192.291,27a2.073,2.073,0,0,0,2.088,1.675c1.406.034,2.815-.03,4.219.029a6.419,6.419,0,0,1,6.227,5.4,6.041,6.041,0,0,1-4.441,6.865c-1.744.444-2.053,1.283-1.823,2.692.289,1.77-.584,2.02-2.082,1.959-1.332-.055-2.539.039-2.155-1.864.336-1.666-.267-2.516-2.014-2.806a4.761,4.761,0,0,1-3.252-2.5c-.575-1-1.752-2.557-.659-3.157.982-.538,2.926-1.124,4.145.694.943,1.407,6.063,1.69,7.322.605a1.88,1.88,0,0,0,.681-2.118,2.028,2.028,0,0,0-1.931-1.53c-1.494-.04-2.991.03-4.482-.048a6.4,6.4,0,0,1-6.105-5.53,6.037,6.037,0,0,1,4.332-6.7c1.734-.476,2.271-1.245,1.962-2.858-.378-1.969.924-1.784,2.2-1.808,1.25-.023,2.354-.052,2.026,1.715-.321,1.731.246,2.66,2.131,3a5.242,5.242,0,0,1,3.61,3.226c1.126,2.325.886,2.67-1.92,2.638" transform="translate(-88.668 -7.545)" fill="#030301"/>
        <path id="Trazado_721808" data-name="Trazado 721808" d="M103.12,130.011c-4.484,0-8.968.025-13.452-.007-4.628-.033-6.745-3.317-4.717-7.421,4.51-9.125,9.1-18.213,13.635-27.324.926-1.859,2.241-3.167,4.427-3.218,2.312-.054,3.7,1.28,4.679,3.236,4.54,9.111,9.131,18.2,13.637,27.325,2.019,4.09-.124,7.37-4.757,7.4-4.484.031-8.968.006-13.452.006m2.122-23.223c0-2.977-.1-5.958.039-8.928.088-1.849-1-1.63-2.151-1.634s-2.18-.2-2.147,1.64q.163,8.927,0,17.858c-.034,1.844,1,1.629,2.153,1.633s2.232.2,2.144-1.641c-.143-2.97-.039-5.951-.039-8.928m.006,16.871c-.178-1.2-.806-2.017-2.027-2.044a1.934,1.934,0,0,0-2.155,2.108,1.907,1.907,0,0,0,1.978,2.026c1.356.045,2.041-.8,2.2-2.09" transform="translate(-39.714 -43.421)" fill="#ec7284"/>
        <path id="Trazado_721809" data-name="Trazado 721809" d="M94.052,97.579l-9.293,18.583c-2.149-6.206,2.761-16.342,9.293-18.583" transform="translate(-39.745 -46.034)" fill="#edeff0"/>
        <path id="Trazado_721810" data-name="Trazado 721810" d="M147.036,117.021c-3.324-6.637-6.311-12.605-9.346-18.664,5.392.407,10.48,10.195,9.346,18.664" transform="translate(-64.957 -46.401)" fill="#edeff0"/>
        <path id="Trazado_721811" data-name="Trazado 721811" d="M204.277,214.136a2.051,2.051,0,0,1-2.075,1.973,2.077,2.077,0,1,1,.174-4.142,2.052,2.052,0,0,1,1.9,2.169" transform="translate(-94.393 -99.992)" fill="#ebc868"/>
        <path id="Trazado_721812" data-name="Trazado 721812" d="M120.247,110.52c0,2.977-.1,5.958.039,8.928.088,1.84-.982,1.645-2.144,1.641s-2.187.211-2.154-1.633q.162-8.927,0-17.858c-.033-1.836.984-1.644,2.146-1.641s2.239-.215,2.151,1.634c-.142,2.97-.038,5.951-.038,8.928" transform="translate(-54.719 -47.153)"/>
        <path id="Trazado_721813" data-name="Trazado 721813" d="M120.328,150.071c-.163,1.291-.848,2.135-2.2,2.09a1.907,1.907,0,0,1-1.978-2.026,1.934,1.934,0,0,1,2.155-2.108c1.221.027,1.849.84,2.027,2.044" transform="translate(-54.793 -69.833)" fill="#080806"/>
      </g>
    </g>
  </g>
</svg>
