<svg xmlns="http://www.w3.org/2000/svg" xmlns:xlink="http://www.w3.org/1999/xlink" width="169" height="169" viewBox="0 0 169 169">
  <defs>
    <clipPath id="clip-path">
      <rect id="Rect치ngulo_351401" data-name="Rect치ngulo 351401" width="131" height="132" fill="none"/>
    </clipPath>
  </defs>
  <g id="Grupo_1018518" data-name="Grupo 1018518" transform="translate(4268.499 5588.44)">
    <g id="Grupo_1018399" data-name="Grupo 1018399" transform="translate(-4653.5 -7646.44)">
      <g id="Grupo_159182" data-name="Grupo 159182" transform="translate(385.001 2058)">
        <path id="Uni칩n_12" data-name="Uni칩n 12" d="M84.5,0A84.5,84.5,0,1,1,0,84.5,84.5,84.5,0,0,1,84.5,0Z" transform="translate(0 0)" fill="#cda7ff"/>
      </g>
    </g>
    <g id="Grupo_1018410" data-name="Grupo 1018410" transform="translate(-4249 -5570)">
      <g id="Grupo_1018409" data-name="Grupo 1018409" clip-path="url(#clip-path)">
        <path id="Trazado_721745" data-name="Trazado 721745" d="M46.1,129.941a2.843,2.843,0,0,1-3.308,2.044c-2.29-.161-4.6-.052-6.9-.037-2.2.014-3.711-.9-3.721-3.25-.007-1.642-.808-1.749-2.076-1.739q-8.435.062-16.871.011c-8.246-.05-13.193-5.043-13.2-13.31q-.013-41.847-.02-83.7c0-1.648.021-3.143,2.008-3.6,2.074.669,1.83,2.4,1.83,4.031q0,40.939,0,81.878a25.383,25.383,0,0,0,.113,3.34c.471,3.535,2.274,6,5.8,6.989a7.044,7.044,0,0,0,3.5.551c4.177,0,8.354.03,12.529-.011,3.531-.034,7.228.791,10-2.648.661-.819,1.525-1.193,1.577-2.517.161-4.035,2.775-6.832,6.789-6.908,8.008-.152,16.024-.124,24.033.005,3.275.053,6.083,2.256,6.44,5.218.279,2.313,1.522,3.459,2.944,5.067,2.531,2.862,5.319,2.233,8.135,1.721,3.37-.611,5.931-4.022,6.079-7.406.037-.839.139-1.555-1.114-1.4-2.338.3-4.014-.9-5.587-2.506C79.276,105.845,73.4,99.98,67.561,94.088c-2.706-2.73-3.236-4.919-1.911-7.813A7.206,7.206,0,0,1,73.348,82a2.956,2.956,0,0,0,2.858-1.055q6.468-6.6,13.022-13.11a7.1,7.1,0,0,0,2.5-5.581c.079-7.466-.227-14.931-.019-22.392.048-1.721-.477-2.159-2.141-2.139-7.244.088-14.489.052-21.734.033-6.489-.017-9.969-3.5-9.979-9.983-.012-7.127-.088-14.255.051-21.38.039-1.995-.553-2.357-2.405-2.353-13.551.033-27.1-.062-40.655-.1a15.146,15.146,0,0,0-4.573.308C6.238,5.428,4.119,7.959,3.888,12.085c-.124,2.213-.066,4.439-.04,6.658a2.393,2.393,0,0,1-1.826,2.684C.509,21.125-.049,20.185,0,18.658c.077-2.23-.028-4.466.036-6.7A12.093,12.093,0,0,1,11.808.068c15-.117,30-.053,45-.03a9.487,9.487,0,0,1,6.831,3.026Q78.173,17.571,92.7,32.079a9.928,9.928,0,0,1,3,7.4c-.037,5.319-.011,10.638-.011,16.212,3.621-1.416,6.165-.085,8.619,2.52,5.572,5.916,11.385,11.6,17.087,17.393,2.532,2.572,2.954,4.973,1.44,7.883a7.415,7.415,0,0,1-7.617,4.037c-1.143-.167-4.476,2.043-4.652,3.125-.144.884.717,1.075,1.187,1.454q7.379,5.954,14.825,11.825c3.008,2.367,5.108,5.214,4.208,9.245a11,11,0,0,1-7.937,8.327c-4.091,1.269-7.04-1.007-9.456-4.063-3.819-4.834-7.561-9.73-11.423-14.53-.518-.643-.865-2.478-2.046-1.507s-3.205,1.795-2.882,3.8a7.849,7.849,0,0,1-1.014,5.647c-.676,1.1-.31,2.351-.322,3.527-.077,7.729-5.174,12.935-12.835,12.91-1.69-.006-2.816,0-2.928,2.236-.081,1.6-1.5,2.415-3.139,2.417-7.757.013-15.513-.006-23.269.02a2.223,2.223,0,0,1-2.528-1.976c.381-1.911,1.813-1.988,3.337-1.984q9.956.02,19.914,0c2.064-.006,2.636-1.068,1.629-2.892a3.362,3.362,0,0,0-2.949-1.733c-1.187-.072-2.381-.035-3.573-.035q-14.425,0-28.85,0c-1.979,0-3.81.3-4.479,2.553-.372,1.252-.2,2.181,1.5,2.1,1.783-.082,3.575.044,5.36-.005,1.519-.042,2.674.4,3.2,1.953M70.7,116.886c-.495-1.606-1.763-1.949-3.2-1.946q-11.223.026-22.447.077a4.921,4.921,0,0,0-1.261-.027,3.136,3.136,0,0,0-2.648,3.539c.2,1.879,1.893.959,2.869.969,8.318.08,16.638-.006,24.956.079,2.286.024,2.728-.763,1.735-2.69m.434-30.758c-2.729,1.851-2.939,3.066-.817,5.214q8.751,8.852,17.539,17.666c1.949,1.957,2.775,1.886,4.743-.287,1.191-1.274.86-2.438-.247-3.553q-9.169-9.229-18.335-18.46c-.833-.839-1.711-1.456-2.884-.58m26.6-26.841c-2.965,1.941-3.118,3.117-.717,5.566,1.2,1.221,2.354,2.488,3.622,3.631a3.185,3.185,0,0,1,1.142,3.642,2.461,2.461,0,0,1-3.578-.587c-.838-.961-1.816-1.8-2.668-2.748-.652-.727-1.122-.767-1.839-.025-4.433,4.583-8.908,9.124-13.369,13.679-2.739,2.36-2.74,2.361-.314,4.8C84.1,91.366,88.279,95.4,92.237,99.637c1.685,1.806,2.773,1.853,3.949-.283,3.272-3.231,6.585-6.42,9.8-9.71,1.645-1.686,4.607-3.158,4.495-5.179-.1-1.747-2.81-3.388-4.448-4.992-1.067-1.045-1.744-2.1-1.012-3.6a2.287,2.287,0,0,1,3.343.445c1.861,1.966,3.788,3.869,5.7,5.786,2.261,2.268,3.527,2.12,5.351-.6.8-1.27.263-2.221-.66-3.152q-9.093-9.171-18.163-18.363c-.78-.786-1.619-1.637-2.85-.7m7.6,41.344c3.918,5.074,7.758,10.212,11.783,15.2,2.311,2.863,5.157,2.728,7.9-.043,2.687-2.712,2.833-5.75.075-8.019-4.942-4.065-10.03-7.948-15.058-11.907-2.5-2.326-2.375-2.181-5.246.374-2.235,1.989-.852,3.092.543,4.4M61.75,6.583V24.633c0,8.71.617,9.331,9.284,9.331H88.06L61.75,6.583" transform="translate(0 0)" fill="#060605"/>
        <path id="Trazado_721746" data-name="Trazado 721746" d="M11.677,126.586c-3.525-.989-5.328-3.454-5.8-6.989a25.383,25.383,0,0,1-.113-3.34q-.008-40.939,0-81.878c0-1.629.244-3.361-1.83-4.031l.009-4.937a2.393,2.393,0,0,0,1.826-2.684c-.026-2.22-.084-4.445.04-6.658.23-4.126,2.35-6.657,6.384-7.843-3.366,3.881-3.137,8.567-3.128,13.3q.091,46.053.036,92.106c0,4.232-.683,8.618,2.507,12.2.135.151.052.5.071.756" transform="translate(-1.92 -3.984)" fill="#c5d5d8"/>
        <path id="Trazado_721747" data-name="Trazado 721747" d="M80.3,245.751c-.524-1.552-1.679-1.995-3.2-1.953-1.786.049-3.577-.077-5.36.005-1.692.078-1.869-.852-1.5-2.1.67-2.254,2.5-2.553,4.479-2.553q14.425,0,28.85,0c1.191,0,2.386-.037,3.573.035a3.361,3.361,0,0,1,2.949,1.733c1.007,1.824.435,2.885-1.629,2.892q-9.956.03-19.914,0c-1.524,0-2.956.073-3.337,1.984l-4.916-.039" transform="translate(-34.208 -115.81)" fill="#c5855a"/>
        <path id="Trazado_721748" data-name="Trazado 721748" d="M16.545,126.272c-.019-.256.064-.6-.071-.756-3.19-3.582-2.506-7.968-2.507-12.2q-.012-46.054-.035-92.106c-.009-4.732-.239-9.417,3.127-13.3A15.146,15.146,0,0,1,21.632,7.6c13.552.041,27.1.136,40.655.1,1.851,0,2.444.358,2.405,2.353-.139,7.124-.063,14.253-.051,21.38.011,6.478,3.491,9.966,9.979,9.983,7.245.019,14.49.055,21.734-.033,1.664-.02,2.189.418,2.141,2.139-.208,7.461.1,14.926.019,22.392a7.1,7.1,0,0,1-2.5,5.581q-6.56,6.506-13.022,13.11a2.953,2.953,0,0,1-2.858,1.054,7.208,7.208,0,0,0-7.7,4.278c-1.324,2.894-.795,5.083,1.912,7.813,5.843,5.893,11.714,11.758,17.522,17.686,1.573,1.605,3.249,2.8,5.587,2.506,1.254-.159,1.151.557,1.114,1.4-.148,3.384-2.709,6.8-6.079,7.406-2.817.511-5.6,1.14-8.135-1.721-1.422-1.608-2.665-2.754-2.944-5.067-.358-2.963-3.165-5.166-6.44-5.218-8.01-.129-16.025-.157-24.034-.006-4.013.076-6.627,2.874-6.788,6.908-.053,1.324-.916,1.7-1.578,2.517-2.776,3.439-6.472,2.614-10,2.648-4.176.041-8.353.008-12.529.011a7.049,7.049,0,0,1-3.5-.551M48.223,68.661q-10.591,0-21.182-.005c-1.5,0-3.193-.038-3.243,1.951s1.619,2.062,3.138,2.061q21.183-.009,42.365,0c1.5,0,3.191.022,3.238-1.964.047-2-1.606-2.054-3.133-2.05q-10.591.024-21.183.007m-3.857,34.925c5.783,0,11.565-.008,17.347.005,1.522,0,3.181-.052,3.152-2.047s-1.711-1.969-3.215-1.968q-17.347.017-34.7,0c-1.522,0-3.184.038-3.156,2.034s1.721,1.981,3.219,1.979q8.674-.012,17.348,0m-2-19.464c-4.679,0-9.357-.027-14.036.014-1.612.014-3.919-.572-3.985,1.922-.067,2.53,2.231,2.051,3.86,2.055q14.036.037,28.072,0c1.537,0,3.653.487,3.718-1.932.066-2.453-2.033-2.037-3.593-2.046-4.678-.028-9.357-.01-14.036-.01M40.828,37.74c-4.508,0-9.016.015-13.523-.009-1.463-.008-2.948.143-3,1.951s1.408,2.066,2.888,2.065q13.651-.015,27.3-.005c1.421,0,2.951-.054,2.97-1.953.021-2.086-1.62-2.053-3.116-2.051q-6.762.007-13.523,0M39.511,57.2h13.02c1.433,0,2.925-.091,2.918-2.006S53.962,53.2,52.522,53.2q-12.892.009-25.783-.005c-1.474,0-2.944.184-2.943,2s1.49,2.006,2.951,2c4.255-.014,8.51-.005,12.764-.006M73.32,53.207c-3.32,0-6.641.015-9.961-.007-1.439-.01-2.7.4-2.673,2.027s1.32,1.979,2.735,1.976q9.706-.019,19.411,0c1.417,0,2.7-.378,2.67-2.032S84.187,53.189,82.77,53.2c-3.15.023-6.3.007-9.45.007" transform="translate(-6.788 -3.67)" fill="#e0eaef"/>
        <path id="Trazado_721749" data-name="Trazado 721749" d="M181.6,139.939c-.732,1.508-.055,2.559,1.013,3.6,1.637,1.6,4.35,3.244,4.448,4.992.113,2.021-2.85,3.493-4.495,5.179-3.211,3.29-6.525,6.479-9.8,9.71-.081-1.177-1.077-1.7-1.761-2.418-4.643-4.885-9.664-9.4-14.1-14.491,4.461-4.555,8.937-9.1,13.369-13.679.717-.742,1.188-.7,1.84.025.851.95,1.83,1.786,2.667,2.748a2.462,2.462,0,0,0,3.579.587l3.234,3.744" transform="translate(-76.587 -64.07)" fill="#f1da45"/>
        <path id="Trazado_721750" data-name="Trazado 721750" d="M120.624,12.765l26.31,27.38H129.908c-8.667,0-9.284-.62-9.284-9.331V12.765" transform="translate(-58.874 -6.182)" fill="#cedfe2"/>
        <path id="Trazado_721751" data-name="Trazado 721751" d="M210.475,185.873c5.027,3.959,10.116,7.842,15.057,11.907,2.758,2.269,2.613,5.307-.074,8.019-2.745,2.771-5.591,2.906-7.9.044-4.025-4.985-7.865-10.123-11.783-15.2a22.77,22.77,0,0,1,4.7-4.773" transform="translate(-100.433 -90.016)" fill="#c38459"/>
        <path id="Trazado_721752" data-name="Trazado 721752" d="M195.929,131.544l-3.234-3.744a3.185,3.185,0,0,0-1.142-3.642c-1.268-1.143-2.424-2.41-3.622-3.631-2.4-2.449-2.247-3.625.717-5.566-.192,1.31.722,2.016,1.5,2.8q8.838,8.9,17.677,17.8c.712.716,1.33,1.6,2.5,1.612-1.825,2.719-3.09,2.867-5.351.6-1.912-1.917-3.838-3.82-5.7-5.786a2.287,2.287,0,0,0-3.343-.445" transform="translate(-90.912 -55.674)" fill="#ba7a4f"/>
        <path id="Trazado_721753" data-name="Trazado 721753" d="M158.285,189.6c-1.968,2.173-2.794,2.243-4.743.287q-8.786-8.816-17.539-17.666c-2.123-2.148-1.913-3.362.817-5.214a2.285,2.285,0,0,0,.629,1.874c6.974,6.877,13.63,14.079,20.837,20.719" transform="translate(-65.681 -80.879)" fill="#be7c50"/>
        <path id="Trazado_721754" data-name="Trazado 721754" d="M212.57,136.788c-1.167-.011-1.785-.9-2.5-1.612q-8.844-8.9-17.677-17.8c-.779-.784-1.692-1.49-1.5-2.8,1.232-.937,2.071-.086,2.85.7q9.1,9.168,18.164,18.362c.923.931,1.465,1.882.66,3.152" transform="translate(-93.159 -55.288)" fill="#bb7e55"/>
        <path id="Trazado_721755" data-name="Trazado 721755" d="M160.423,189.2c-7.207-6.64-13.862-13.842-20.837-20.719a2.285,2.285,0,0,1-.629-1.874c1.173-.876,2.051-.258,2.884.58q9.168,9.23,18.335,18.46c1.108,1.115,1.438,2.278.247,3.553" transform="translate(-67.82 -80.48)" fill="#c38459"/>
        <path id="Trazado_721756" data-name="Trazado 721756" d="M154.916,159.866c4.432,5.094,9.453,9.606,14.1,14.491.684.72,1.68,1.24,1.762,2.418-1.176,2.137-2.265,2.088-3.949.283-3.957-4.24-8.135-8.271-12.223-12.387-2.425-2.442-2.425-2.443.315-4.8" transform="translate(-74.588 -77.421)" fill="#f0d031"/>
        <path id="Trazado_721757" data-name="Trazado 721757" d="M109.91,224.832c.993,1.927.551,2.714-1.735,2.69-8.318-.085-16.638,0-24.956-.079-.976-.009-2.672.91-2.869-.969A3.136,3.136,0,0,1,83,222.934a4.943,4.943,0,0,1,1.261.028c-.711,1.732-.528,2.589,1.723,2.551,7.2-.123,14.4-.041,21.6-.053.819,0,1.726.223,2.331-.629" transform="translate(-39.206 -107.946)" fill="#b7784e"/>
        <path id="Trazado_721758" data-name="Trazado 721758" d="M113.306,224.821c-.605.851-1.512.627-2.331.629-7.2.012-14.4-.07-21.6.053-2.251.038-2.434-.819-1.723-2.551q11.223-.04,22.447-.077c1.442,0,2.71.34,3.2,1.946" transform="translate(-42.602 -107.935)" fill="#c5855a"/>
        <path id="Trazado_721759" data-name="Trazado 721759" d="M208.833,184.325a22.771,22.771,0,0,0-4.7,4.773c-1.4-1.307-2.778-2.409-.543-4.4,2.87-2.555,2.743-2.7,5.246-.375" transform="translate(-98.792 -88.468)" fill="#b7784e"/>
        <path id="Trazado_721760" data-name="Trazado 721760" d="M57.655,126.015q10.591,0,21.183-.007c1.527,0,3.181.048,3.133,2.051-.047,1.986-1.735,1.965-3.238,1.964q-21.183-.012-42.366,0c-1.519,0-3.187-.059-3.138-2.061s1.742-1.954,3.242-1.951q10.591.019,21.183.006" transform="translate(-16.218 -61.024)" fill="#0d0e0f"/>
        <path id="Trazado_721761" data-name="Trazado 721761" d="M53.8,189.978q-8.674,0-17.348,0c-1.5,0-3.192.012-3.219-1.979s1.635-2.035,3.156-2.034q17.348.018,34.7,0c1.5,0,3.187-.03,3.215,1.968s-1.629,2.05-3.152,2.047c-5.783-.014-11.565-.006-17.348-.006" transform="translate(-16.219 -90.062)" fill="#0d0e0f"/>
        <path id="Trazado_721762" data-name="Trazado 721762" d="M52.324,155.968c4.678,0,9.357-.018,14.036.01,1.56.009,3.659-.407,3.593,2.047-.064,2.419-2.181,1.928-3.718,1.932q-14.035.043-28.072,0c-1.628,0-3.927.474-3.86-2.055.066-2.493,2.373-1.907,3.985-1.921,4.678-.042,9.357-.015,14.036-.015" transform="translate(-16.742 -75.516)" fill="#0d0e0f"/>
        <path id="Trazado_721763" data-name="Trazado 721763" d="M50.743,66.056q6.762,0,13.523,0c1.5,0,3.138-.035,3.117,2.051-.019,1.9-1.549,1.954-2.97,1.954q-13.651,0-27.3,0c-1.479,0-2.936-.246-2.888-2.065s1.534-1.959,3-1.951c4.508.024,9.015.009,13.523.009" transform="translate(-16.703 -31.985)" fill="#0d0e0f"/>
        <path id="Trazado_721764" data-name="Trazado 721764" d="M48.94,100.037c-4.255,0-8.51-.009-12.765.006-1.461.005-2.949-.177-2.951-2s1.469-2.006,2.943-2q12.892.025,25.784.005c1.44,0,2.92.08,2.927,1.989s-1.486,2.006-2.918,2q-6.51,0-13.019,0" transform="translate(-16.216 -46.51)" fill="#0e0f0f"/>
        <path id="Trazado_721765" data-name="Trazado 721765" d="M117.92,96.047c3.15,0,6.3.016,9.45-.007,1.418-.011,2.7.325,2.732,1.968s-1.253,2.033-2.67,2.032q-9.705-.008-19.411,0c-1.415,0-2.713-.347-2.735-1.976s1.234-2.037,2.673-2.027c3.32.023,6.641.007,9.961.007" transform="translate(-51.388 -46.511)" fill="#0e0f0f"/>
      </g>
    </g>
  </g>
</svg>
