<svg xmlns="http://www.w3.org/2000/svg" xmlns:xlink="http://www.w3.org/1999/xlink" width="169" height="169" viewBox="0 0 169 169">
  <defs>
    <clipPath id="clip-path">
      <rect id="Rect치ngulo_351398" data-name="Rect치ngulo 351398" width="129.582" height="129.579" fill="none"/>
    </clipPath>
  </defs>
  <g id="Grupo_1018515" data-name="Grupo 1018515" transform="translate(-366.501 -6129.56)">
    <g id="Grupo_1018396" data-name="Grupo 1018396" transform="translate(-18.5 4071.56)">
      <g id="Grupo_159182" data-name="Grupo 159182" transform="translate(385.001 2058)">
        <path id="Uni칩n_12" data-name="Uni칩n 12" d="M84.5,0A84.5,84.5,0,1,1,0,84.5,84.5,84.5,0,0,1,84.5,0Z" transform="translate(0 0)" fill="#cda7ff"/>
      </g>
    </g>
    <g id="Grupo_1018404" data-name="Grupo 1018404" transform="translate(386.209 6149.271)">
      <g id="Grupo_1018403" data-name="Grupo 1018403" clip-path="url(#clip-path)">
        <path id="Trazado_721671" data-name="Trazado 721671" d="M21.088.025A20.895,20.895,0,1,1,.03,20.759,20.935,20.935,0,0,1,21.088.025M8.387,31.732c0-4.819,0-9.056,0-13.293,0-3.482.292-3.78,3.677-3.785,5.047-.007,10.093.016,15.14-.006,6.632-.03,6.305-.428,6.262,6.173-.022,3.486,0,6.971,0,10.979,5.979-7.408,5.282-17.192-1.176-23.164a16.64,16.64,0,0,0-23.9,23.1m20.891-4.29c0-2.344-.064-4.689.025-7.03.049-1.279-.423-1.614-1.642-1.6-4.426.06-8.855.088-13.279-.012-1.542-.034-1.863.529-1.838,1.938.079,4.338.087,8.681-.005,13.019a2.3,2.3,0,0,0,1.728,2.458,16.8,16.8,0,0,0,12.917.213,2.761,2.761,0,0,0,2.137-3.264c-.188-1.891-.042-3.815-.043-5.725" transform="translate(-0.014 -0.012)" fill="#040405"/>
        <path id="Trazado_721672" data-name="Trazado 721672" d="M205.729,188.851a20.9,20.9,0,1,1-20.876-20.915,20.934,20.934,0,0,1,20.876,20.915m-31.346,12.683c0-4.707-.009-9.048,0-13.39.009-3.09.4-3.468,3.446-3.5,6.685-.06,6.744-.061,6.958,6.734.047,1.49.6,1.691,1.846,1.646,2.173-.079,4.351-.023,6.527-.022,4.1,0,4.167.094,4.232,4.3.009.606-.385,1.361.354,1.865a16.478,16.478,0,0,0-2.338-23.3,16.709,16.709,0,0,0-23.723,2.63c-5.576,7.177-4.483,17.725,2.7,23.032m4.187-4.864a10.882,10.882,0,0,0,.011,1.562c.3,2.073-1.1,4.85.7,6.1,2.328,1.619,5.442,1.526,8.333.939.255-.052.508-.117.762-.174,4.695-1.052,4.983-1.5,4.846-6.177-.041-1.385-.469-1.794-1.808-1.753-2.689.084-5.384.008-8.075.028-1.84.014-2.72-.868-2.693-2.7.021-1.389.014-2.779,0-4.168-.009-.671.132-1.425-.948-1.475-1.251-.057-1.116.8-1.119,1.569-.008,2.084,0,4.168,0,6.253" transform="translate(-78.252 -80.16)" fill="#040405"/>
        <path id="Trazado_721673" data-name="Trazado 721673" d="M188.989.022a20.9,20.9,0,1,1-21.06,20.736A20.935,20.935,0,0,1,188.989.022m16.548,21a16.712,16.712,0,1,0-16.883,16.608,16.74,16.74,0,0,0,16.883-16.608" transform="translate(-80.157 -0.01)" fill="#060606"/>
        <path id="Trazado_721674" data-name="Trazado 721674" d="M41.817,188.864a20.9,20.9,0,1,1-20.859-20.93,20.919,20.919,0,0,1,20.859,20.93m-4.185-.058a16.71,16.71,0,1,0-16.754,16.732,16.735,16.735,0,0,0,16.754-16.732" transform="translate(-0.012 -80.159)" fill="#060606"/>
        <path id="Trazado_721675" data-name="Trazado 721675" d="M152.118,113.325c-4.172.209-4.172.209-4.172-3.83q0-12.791,0-25.583c0-3.75.192-3.932,4.047-3.935,1.914,0,3.829.029,5.743-.008,1.825-.035,2.752.763,2.75,2.637-.012,9.746-.027,19.492.022,29.238.007,1.252-.332,1.736-1.6,1.579-.858-.107-1.734-.071-2.6-.1,0-8.964-.025-17.928.012-26.892.006-1.446.016-2.389-1.979-2.358-1.87.029-2.279.569-2.261,2.358.091,8.963.038,17.928.036,26.892" transform="translate(-70.618 -38.171)" fill="#010101"/>
        <path id="Trazado_721676" data-name="Trazado 721676" d="M97.379,151.911c8.965,0,17.931.036,26.9-.034,1.6-.012,2.279.255,2.213,2.073-.057,1.6-.318,2.191-2.111,2.183q-27.157-.112-54.314-.013c-1.6,0-2.193-.268-2.229-2.068-.04-1.984.7-2.193,2.388-2.178,9.052.078,18.1.037,27.157.037" transform="translate(-32.378 -72.493)"/>
        <path id="Trazado_721677" data-name="Trazado 721677" d="M116.138,122.866c-4.172.209-4.172.209-4.172-3.829q0-7.7,0-15.4c0-3.387.3-3.664,3.786-3.672,2,0,4,.028,6-.009,1.824-.033,2.755.762,2.751,2.636-.015,6.264-.039,12.529.023,18.792.012,1.254-.335,1.735-1.6,1.578-.858-.107-1.734-.071-2.6-.1,0-5.569-.061-11.138.028-16.705.025-1.562-.326-2.135-2-2.072-1.526.057-2.314.179-2.267,2.072.137,5.565.045,11.136.042,16.7" transform="translate(-53.443 -47.711)" fill="#010101"/>
        <path id="Trazado_721678" data-name="Trazado 721678" d="M240.693,104.34a65.585,65.585,0,0,1-3.652,21.17c-.425,1.227-.774,2.035-2.312,1.205-1.1-.594-2.468-.546-1.747-2.565a58.429,58.429,0,0,0,.387-39.027c-.7-2.1.817-1.922,1.844-2.483,1.478-.808,1.887,0,2.269,1.224a67.042,67.042,0,0,1,3.211,20.476" transform="translate(-111.112 -39.291)" fill="#070707"/>
        <path id="Trazado_721679" data-name="Trazado 721679" d="M99.12,73.635q-8.173,4.841-16.341,9.689c-1.223.729-2.085,1.772-3.415-.282-1.446-2.232.066-2.618,1.336-3.386q7.246-4.383,14.506-8.741c.724-.436,1.42-.919,2.718-1.764-2.6.01-4.609-.063-3.889-3.056.274-1.138.674-1.4,1.727-1.289,2.767.3,5.553.437,8.31.8,2.366.314,2.9,1.363,2.027,3.653-.894,2.35-1.943,4.647-2.753,7.025-.548,1.609-1.213,1.929-2.83,1.226-1.483-.645-2.124-1.247-1.174-2.756a3.48,3.48,0,0,0,.26-.732q.009-.325.021-.651l-.5.258" transform="translate(-37.601 -30.923)" fill="#070707"/>
        <path id="Trazado_721680" data-name="Trazado 721680" d="M4.539,82.238c2.468.244,3.14,1.284,2.431,3.632a59.287,59.287,0,0,0,.225,36.662c.716,2.151-.269,2.344-1.722,3-1.885.854-1.962-.412-2.322-1.55A64.392,64.392,0,0,1,3.212,84c.208-.648.036-1.863,1.327-1.764" transform="translate(0 -39.251)" fill="#080808"/>
        <path id="Trazado_721681" data-name="Trazado 721681" d="M103,.007a68.315,68.315,0,0,1,21.257,3.225c.939.3,2.192.434,1.277,2.012-.6,1.039-.245,2.842-2.568,2.07a58.677,58.677,0,0,0-37.861,0c-2.3.764-1.977-1-2.582-2.054-.9-1.568.307-1.749,1.263-2.01C86.547,2.5,89.3,1.678,92.1,1.144A55.518,55.518,0,0,1,103,.007" transform="translate(-39.239 0)" fill="#080808"/>
        <path id="Trazado_721682" data-name="Trazado 721682" d="M103.891,241.085a66.581,66.581,0,0,1-19.97-3.2c-1.1-.346-2.17-.558-1.344-2.22.6-1.219.539-2.581,2.711-1.858a57.936,57.936,0,0,0,35.848.509c2.188-.663,2.191.661,2.726,1.919.683,1.606-.333,1.879-1.471,2.2a66.244,66.244,0,0,1-18.5,2.645" transform="translate(-39.276 -111.507)" fill="#080808"/>
        <path id="Trazado_721683" data-name="Trazado 721683" d="M155.9,117.076c0-8.964.055-17.928-.036-26.892-.018-1.789.391-2.329,2.261-2.358,1.995-.031,1.985.912,1.979,2.358-.037,8.964-.015,17.928-.012,26.892H155.9" transform="translate(-74.396 -41.921)" fill="#fe6668"/>
        <path id="Trazado_721684" data-name="Trazado 721684" d="M80.148,132.406c-4.172.209-4.172.209-4.172-3.826,0-1.914.043-3.828-.011-5.74-.055-1.938.736-2.935,2.756-2.9q3.521.066,7.045,0c2.019-.038,2.8.96,2.759,2.9a61.4,61.4,0,0,0,.036,7.04c.2,2.192-.5,3.023-2.663,2.619a12.021,12.021,0,0,0-1.557-.093c0-2.261-.1-4.527.024-6.781.1-1.7-.932-1.548-1.989-1.488-1.019.058-2.358-.492-2.249,1.487.125,2.254.024,4.52.021,6.781" transform="translate(-36.258 -57.251)" fill="#010101"/>
        <path id="Trazado_721685" data-name="Trazado 721685" d="M119.91,126.636c0-5.569.1-11.14-.042-16.7-.047-1.893.741-2.015,2.267-2.072,1.67-.063,2.021.51,2,2.072-.089,5.567-.031,11.137-.028,16.705H119.91" transform="translate(-57.215 -51.481)" fill="#fe6668"/>
        <path id="Trazado_721686" data-name="Trazado 721686" d="M83.946,136.208c0-2.261.1-4.527-.021-6.781-.11-1.979,1.229-1.429,2.249-1.487,1.057-.06,2.084-.212,1.989,1.488-.126,2.254-.026,4.52-.024,6.781H83.946" transform="translate(-40.056 -61.053)" fill="#fe6668"/>
        <path id="Trazado_721687" data-name="Trazado 721687" d="M12.264,35.534a16.64,16.64,0,0,1,23.9-23.1c6.458,5.972,7.155,15.757,1.176,23.164,0-4.008-.019-7.494,0-10.979.043-6.6.37-6.2-6.263-6.173-5.046.022-10.093,0-15.14.006-3.385.005-3.673.3-3.677,3.785-.006,4.237,0,8.474,0,13.293" transform="translate(-3.891 -3.814)" fill="#aac9f2"/>
        <path id="Trazado_721688" data-name="Trazado 721688" d="M40.7,44.589c0,1.909-.146,3.834.043,5.724a2.761,2.761,0,0,1-2.137,3.264,16.8,16.8,0,0,1-12.917-.212,2.3,2.3,0,0,1-1.727-2.458c.091-4.338.084-8.68,0-13.019-.026-1.409.3-1.973,1.838-1.938,4.424.1,8.854.072,13.279.011,1.218-.016,1.691.318,1.642,1.6-.089,2.34-.026,4.686-.025,7.03m-2.658,4.873c.483-1.909-.633-1.949-2.118-2.043-1.842-.117-1.992.7-2.068,2.224-.091,1.84.7,2,2.231,2.065,1.805.07,2.309-.612,1.955-2.245m-7.346-.1c.742-1.969-.61-1.82-2.05-1.934-1.78-.141-2.059.588-2.105,2.179-.052,1.773.6,2.071,2.2,2.1,1.738.032,2.371-.521,1.957-2.345m7.347-8.024c.324-1.589-.058-2.388-1.926-2.279-1.474.086-2.388.129-2.259,2.031.1,1.472.134,2.407,2.035,2.252,1.429-.117,2.652-.04,2.15-2m-7.315-.193c.458-1.846-.535-2.022-2.085-2.089-1.778-.076-2.056.6-2.1,2.193-.053,1.773.6,2.071,2.2,2.1,1.737.031,2.373-.519,1.99-2.2" transform="translate(-11.438 -17.159)" fill="#4892f0"/>
        <path id="Trazado_721689" data-name="Trazado 721689" d="M178.225,205.342c-7.179-5.307-8.273-15.855-2.7-23.032a16.709,16.709,0,0,1,23.724-2.63,16.478,16.478,0,0,1,2.338,23.3c-.74-.5-.345-1.258-.354-1.864-.065-4.209-.135-4.3-4.232-4.3-2.176,0-4.354-.057-6.527.022-1.245.045-1.8-.157-1.846-1.646-.214-6.8-.273-6.793-6.958-6.734-3.05.027-3.437.406-3.446,3.5-.012,4.341,0,8.683,0,13.39m9.218-25.241c-1.841-.055-4.52-.374-5.734,2.645-.467,1.159-.975,2.964.22,3.41.844.316,3.427,1.726,3.663-1.335.058-.743.779-.516,1.247-.531a17.9,17.9,0,0,1,3.123.015c1.832.267,1.878-.733,1.885-2.12.007-1.407-.085-2.413-1.893-2.1a18.887,18.887,0,0,1-2.511.016" transform="translate(-82.094 -83.967)" fill="#aacaf3"/>
        <path id="Trazado_721690" data-name="Trazado 721690" d="M191.726,215.766c0-2.084-.005-4.168,0-6.253,0-.773-.132-1.626,1.119-1.569,1.08.05.94.8.949,1.475.018,1.389.025,2.779,0,4.168-.027,1.837.852,2.718,2.693,2.7,2.692-.019,5.386.056,8.075-.028,1.34-.042,1.768.368,1.808,1.753.137,4.677-.151,5.125-4.846,6.177-.254.057-.506.122-.762.174-2.891.587-6,.68-8.333-.939-1.8-1.252-.4-4.029-.7-6.1a10.807,10.807,0,0,1-.01-1.562" transform="translate(-91.407 -99.256)" fill="#59b15f"/>
        <path id="Trazado_721691" data-name="Trazado 721691" d="M209.36,24.849A16.712,16.712,0,1,1,192.688,8.037,16.777,16.777,0,0,1,209.36,24.849m-19.48,6.164c3.927,0,7.805-.08,11.677.038,1.626.05,1.676-.8,1.526-1.916-.126-.937.687-2.352-1.369-2.323-5.648.077-11.3.038-16.949.017a2.312,2.312,0,0,0-2.354,1.281,2.1,2.1,0,0,0,.692,2.557,57.316,57.316,0,0,1,4.2,4.272c1.348,1.656,2.233,1.392,3.617-.026,1.992-2.042-.789-2.283-1.042-3.9m5.537-12.533c-3.932,0-7.816.1-11.692-.044-1.713-.063-1.61.882-1.5,1.94.094.948-.664,2.339,1.384,2.308,5.65-.084,11.3-.041,16.951-.02a2.3,2.3,0,0,0,2.342-1.3,2.124,2.124,0,0,0-.718-2.556,54.156,54.156,0,0,1-4.2-4.275c-1.378-1.716-2.273-1.3-3.616.074-1.992,2.044.852,2.264,1.052,3.877" transform="translate(-83.979 -3.836)" fill="#a9c9f2"/>
        <path id="Trazado_721692" data-name="Trazado 721692" d="M41.456,192.626a16.71,16.71,0,1,1-16.8-16.689,16.736,16.736,0,0,1,16.8,16.689m-12.751,4.2c2.007,0,4,.018,5.994-.005,2.02-.023,2.883-1.064,2.421-3.033-.574-2.448-1.3-4.861-1.845-7.314-.375-1.689-1.376-2.24-2.993-2.194-2.171.061-4.349.088-6.518-.008-1.876-.083-3.013.589-3.242,2.524-.162,1.372-.9,1.876-2.28,1.7-.941-.12-1.915.04-2.865-.036-1.894-.152-2.881.65-3.25,2.537-.432,2.209-1.1,4.372-1.624,6.564-.593,2.472.106,3.4,2.647,3.434,3.3.042,6.607.014,9.91.01,3.623,0,4.04-.467,3.646-4.179" transform="translate(-3.836 -83.979)" fill="#a9c8f1"/>
        <path id="Trazado_721693" data-name="Trazado 721693" d="M117.7,81.483l.5-.258q-.012.325-.021.651l-.482-.393" transform="translate(-56.182 -38.771)" fill="#f6f8f9"/>
        <path id="Trazado_721694" data-name="Trazado 721694" d="M47.075,59.927c.354,1.634-.15,2.315-1.955,2.245-1.531-.06-2.322-.225-2.231-2.065.075-1.527.225-2.341,2.068-2.224,1.485.094,2.6.134,2.118,2.043" transform="translate(-20.468 -27.624)"/>
        <path id="Trazado_721695" data-name="Trazado 721695" d="M33.052,59.833c.413,1.825-.219,2.378-1.957,2.345-1.594-.029-2.25-.328-2.2-2.1.047-1.591.326-2.32,2.105-2.179,1.44.114,2.793-.035,2.051,1.934" transform="translate(-13.791 -27.629)"/>
        <path id="Trazado_721696" data-name="Trazado 721696" d="M47.074,44.173c.5,1.964-.721,1.886-2.15,2-1.9.155-1.935-.779-2.035-2.252-.129-1.9.785-1.945,2.259-2.031,1.868-.109,2.25.69,1.926,2.279" transform="translate(-20.466 -19.992)"/>
        <path id="Trazado_721697" data-name="Trazado 721697" d="M33.084,43.98c.383,1.686-.253,2.236-1.99,2.2-1.594-.029-2.25-.327-2.2-2.1.047-1.589.325-2.269,2.1-2.193,1.55.066,2.543.243,2.085,2.089" transform="translate(-13.792 -19.993)"/>
        <path id="Trazado_721698" data-name="Trazado 721698" d="M195.848,183.859a18.886,18.886,0,0,0,2.511-.016c1.808-.312,1.9.695,1.893,2.1-.007,1.387-.052,2.387-1.885,2.12a17.9,17.9,0,0,0-3.123-.015c-.468.015-1.189-.212-1.247.531-.237,3.061-2.819,1.651-3.663,1.335-1.195-.446-.687-2.251-.22-3.41,1.214-3.019,3.893-2.7,5.734-2.645" transform="translate(-90.499 -87.726)" fill="#020202"/>
        <path id="Trazado_721699" data-name="Trazado 721699" d="M195.605,48.159c.253,1.617,3.035,1.858,1.042,3.9-1.385,1.419-2.269,1.681-3.617.026a57.314,57.314,0,0,0-4.2-4.272,2.1,2.1,0,0,1-.693-2.557,2.312,2.312,0,0,1,2.355-1.281c5.65.021,11.3.06,16.949-.017,2.056-.028,1.242,1.387,1.369,2.323.151,1.117.1,1.966-1.526,1.916-3.872-.118-7.75-.038-11.677-.038" transform="translate(-89.704 -20.982)" fill="#020202"/>
        <path id="Trazado_721700" data-name="Trazado 721700" d="M201.1,23.376c-.2-1.614-3.044-1.833-1.052-3.877,1.343-1.378,2.238-1.79,3.616-.074a54.158,54.158,0,0,0,4.2,4.275,2.124,2.124,0,0,1,.718,2.556,2.3,2.3,0,0,1-2.342,1.3c-5.65-.02-11.3-.064-16.951.02-2.048.031-1.29-1.36-1.384-2.308-.105-1.058-.209-2,1.5-1.94,3.876.142,7.76.044,11.692.044" transform="translate(-89.66 -8.733)" fill="#020202"/>
        <path id="Trazado_721701" data-name="Trazado 721701" d="M32.6,204.43c.394,3.713-.022,4.175-3.645,4.179-3.3,0-6.608.032-9.91-.01-2.541-.032-3.241-.962-2.647-3.434.526-2.192,1.192-4.355,1.624-6.564.369-1.887,1.356-2.689,3.25-2.537.95.076,1.924-.084,2.865.036,1.378.176,2.118-.329,2.28-1.7.229-1.935,1.366-2.607,3.242-2.524,2.169.1,4.347.068,6.518.008,1.617-.045,2.618.505,2.993,2.194.545,2.453,1.271,4.867,1.845,7.314.462,1.968-.4,3.01-2.421,3.033-1.993.024-3.987.005-5.994.005m-4.675.009c-.778-4.246-.789-4.053-4.08-4.248-2.859-.169-2.572,2.006-2.663,3.437-.109,1.724,1.541.626,2.346.753a29.611,29.611,0,0,0,4.4.059m2.414-8.179c1,4.594,1.177,4.7,5.91,3.653-.87-4.24-.87-4.24-5.91-3.653" transform="translate(-7.734 -91.584)" fill="#020202"/>
        <path id="Trazado_721702" data-name="Trazado 721702" d="M32.476,212.03a29.618,29.618,0,0,1-4.4-.059c-.8-.127-2.455.971-2.345-.753.091-1.432-.2-3.606,2.663-3.437,3.291.195,3.3,0,4.08,4.248" transform="translate(-12.281 -99.175)" fill="#f6bd4a"/>
        <path id="Trazado_721703" data-name="Trazado 721703" d="M43.255,200.019c5.04-.587,5.04-.587,5.91,3.653-4.733,1.048-4.906.941-5.91-3.653" transform="translate(-20.647 -95.342)" fill="#f6bd4a"/>
      </g>
    </g>
  </g>
</svg>
