<svg xmlns="http://www.w3.org/2000/svg" xmlns:xlink="http://www.w3.org/1999/xlink" width="169" height="169" viewBox="0 0 169 169">
  <defs>
    <clipPath id="clip-path">
      <rect id="Rect치ngulo_351451" data-name="Rect치ngulo 351451" width="132" height="131.868" fill="none"/>
    </clipPath>
  </defs>
  <g id="Grupo_1018513" data-name="Grupo 1018513" transform="translate(-711.501 -3490.951)">
    <g id="Grupo_1015076" data-name="Grupo 1015076" transform="translate(-25.5 1432.951)">
      <g id="Grupo_159183" data-name="Grupo 159183" transform="translate(737.001 2058)">
        <path id="Uni칩n_12" data-name="Uni칩n 12" d="M84.5,0A84.5,84.5,0,1,1,0,84.5,84.5,84.5,0,0,1,84.5,0Z" fill="#cda7ff"/>
      </g>
    </g>
    <g id="Grupo_1018467" data-name="Grupo 1018467" transform="translate(734 3507.737)">
      <g id="Grupo_1018466" data-name="Grupo 1018466" clip-path="url(#clip-path)">
        <path id="Trazado_722080" data-name="Trazado 722080" d="M66.038,131.866q-26.777,0-53.554,0c-5.635,0-7.993-2.331-8.007-7.941-.017-7.036-.028-14.073.018-21.109A3,3,0,0,0,3.032,99.9a6.306,6.306,0,0,1-.021-10.766,3.184,3.184,0,0,0,1.476-3.166Q4.456,51.73,4.473,17.491c0-6.654,2.082-8.711,8.8-8.712a14.67,14.67,0,0,1,1.8.011c1.81.223,2.637-.157,2.634-2.361C17.7,2.571,20.6.021,24.6.017q41.324-.035,82.648,0c4.47,0,7.116,2.72,7.132,7.285.032,9.268.053,18.536-.029,27.8-.015,1.732.34,2.512,2.223,2.307a27.156,27.156,0,0,1,4.372,0c3.92.21,6.35,2.6,6.552,6.507.1,1.968.035,3.946.035,5.919q0,18.021-.018,36.041a3.414,3.414,0,0,0,1.6,3.372,6.252,6.252,0,0,1-.092,10.6,3.182,3.182,0,0,0-1.5,3.157q.049,10.425.011,20.852c-.013,5.651-2.357,8.012-7.935,8.013q-26.777.006-53.554,0M82.8,112.045l-.034.031-.8.749C65.614,125.993,44.3,115.309,42.129,98.185c-.08-.631-.079-1.424-1.1-1.422-.957,0-1.749,0-2.359,1.057a6.421,6.421,0,0,1-6.266,3.248c-1.285-.052-2.573-.014-3.86-.018A6.371,6.371,0,0,1,23.287,98.3a4.373,4.373,0,0,0-6.9.056c-1.349,1.693-3.078,2.877-5.293,2.657-2.147-.213-2.308.795-2.285,2.528.086,6.518.034,13.039.035,19.558,0,4.118.219,4.338,4.383,4.338q52.766,0,105.531,0c.515,0,1.03-.01,1.544,0,1.887.03,2.865-.82,2.859-2.781-.02-7.292-.038-14.584.02-21.875.011-1.35-.389-1.837-1.747-1.737a6.441,6.441,0,0,1-5.952-2.9c-1.437-1.968-5.2-2.007-6.608-.061a7.146,7.146,0,0,1-5.66,3.012c-4.373.326-8.319-.175-10.93-4.253-1.131-.2-2.258-.456-2.461,1.251-.62,5.218-3.152,9.522-6.5,13.424l-.061.066-.459.46M61.41,70.635a37.117,37.117,0,0,1,9.164.1c.734.127,1.844,1.2,2.064-.645.186-1.563-.368-2.24-1.964-1.994-3.7.571-6.858-.321-9.2-3.411a3.278,3.278,0,0,0-2.132-1.714c0,2.218.07,4.328-.021,6.432-.08,1.872.629,2.115,2.089,1.235m55.089-28.8c-1.387-.284-2.184-.119-2.152,1.7.107,6.144.1,12.291.006,18.435-.027,1.775.715,2.049,2.157,1.693,1.455.038,2.919-.017,4.361.136,1.758.187,2.385-.364,2.329-2.231-.137-4.539-.044-9.086-.044-13.629,0-6.455,0-6.455-6.656-6.1M92.289,92.179c1.686-1.718,2.981-4.027,5.775-4.143,2.054-.086,4.119-.1,6.171.006a6.023,6.023,0,0,1,4.5,2.665,4.357,4.357,0,0,0,6.882-.035,6.231,6.231,0,0,1,5.541-2.694c1.568.111,2.07-.378,2.039-2-.1-5.318-.076-10.639-.012-15.957.017-1.362-.231-1.974-1.8-1.961-11.067.092-22.135.092-33.2.121-.914.019-2.5-.726-2.384.859C86.15,73.859,84.33,78.9,87.4,83.476a14.66,14.66,0,0,1,2.28,6.728c.173,1.757.842,2.495,2.607,1.976M103.62,4.559c-1.274-.22-2.573-.679-2.529,1.516.107,5.364.093,10.73.127,16.1a7.167,7.167,0,0,0-.081.766c0,1.3.139,2.705-1.414,3.257-1.672.593-2.494-.647-3.329-1.762-1.028-1.373-2.1-2.716-3.079-4.124-.688-.988-1.191-.97-1.874.008-.982,1.406-2.082,2.728-3.088,4.118-.83,1.146-1.661,2.359-3.314,1.764s-1.493-2.1-1.491-3.483c.008-5.494-.023-10.988.023-16.482.01-1.222-.186-1.833-1.649-1.829Q53.461,4.472,25,4.419c-2.272,0-2.942,1.109-2.928,3.216q.088,12.747-.011,25.5c-.013,1.558.366,2.078,1.991,2.028,3.946-.121,7.9.022,11.846-.068a5.124,5.124,0,0,1,4.1,1.676c3.71,3.815,7.519,7.535,11.263,11.318.726.733,1.239,1.221,2.306.333,6.8-5.665,17.139-6.467,25.781.536l.562.526,1.449,1.555c2.356,3.5,4.246,7.179,4.334,11.536.03,1.487,1.017,1.286,1.986,1.091,6.589.039,13.181-.011,19.766.169,2.1.058,2.516-.642,2.508-2.591-.071-17.035-.041-34.069-.041-51.1,0-5.982-.089-6.061-6.287-5.573M23.093,39.61c-4.118,0-8.237.051-12.353-.028-1.378-.026-1.935.25-1.93,1.8q.087,22.387,0,44.774c-.006,1.545.557,1.889,1.944,1.816a6.576,6.576,0,0,1,6.026,3.251c1.048,1.534,5.049,1.484,6.157,0,3.505-4.7,12.343-4.825,15.669-.109a2.362,2.362,0,0,0,2.56,1.11c1.247-.155.85-1.293,1.073-2.031.419-1.39.419-3.043,1.2-4.162,3.352-4.8,2.841-10.2,2.8-15.561-.017-2.4.013-4.8.024-7.2A16.915,16.915,0,0,1,48.731,54.2c.874-1.392.439-2.037-.524-2.975q-5.252-5.118-10.369-10.374a3.912,3.912,0,0,0-3.164-1.271c-3.859.072-7.721.026-11.581.026M85.723,94.5A19.722,19.722,0,1,0,65.946,114.3,19.714,19.714,0,0,0,85.723,94.5m-4.36-19.069c0-4.392.266-8.746-.059-13.057a15.351,15.351,0,0,0-29.988-3.114c-1.518,5.315-.479,10.767-.728,16.384,4.475-2.684,4.472-2.684,4.476-7.24,0-1.715-.041-3.433.034-5.145a10.911,10.911,0,0,1,21.8-.1,27.745,27.745,0,0,1-.01,5.651c-.583,3.627,1.186,5.48,4.474,6.62m-63.751-51.2V18.82c0-5.853,0-5.806-5.861-5.6-2.063.074-2.944.949-2.919,3,.05,4.119.014,8.239.014,12.358,0,7.022,0,6.985,7.206,6.571,1.247-.072,1.605-.457,1.58-1.653-.064-3.088-.021-6.179-.02-9.268m79.211-7.363V11.153c0-7.143,0-7.143-7.077-6.706-.256.015-.513.007-.769.027-.462.038-.874.213-.876.734-.016,3.842-.009,7.684-.009,11.8,1.8-1.33,2.112-3.642,4.327-3.664,2.256-.023,2.4,2.67,4.4,3.52M69.693,63.777c.681-.677,2.956,1.282,2.706-1.315-.393-4.085-5.728-6.647-9.276-4.595-.431.25-1.184.367-.759,1.287.853,1.844,5.042,4.621,7.329,4.622M30.662,96.755c.6,0,1.194.013,1.79,0,1.534-.042,2.745-.552,2.7-2.336-.045-1.628-1.188-2.126-2.618-2.153-1.192-.023-2.387-.035-3.579.005-1.482.05-2.523.8-2.483,2.319.037,1.374,1.042,2.073,2.406,2.154.594.035,1.193.006,1.789.013m70.429,0c.6,0,1.193,0,1.79,0,1.47-.012,2.613-.662,2.647-2.169.037-1.663-1.156-2.329-2.737-2.325-1.023,0-2.045,0-3.068,0-1.5,0-2.82.374-2.862,2.164-.046,1.955,1.353,2.33,2.952,2.334q.639,0,1.278,0m-92.245,0c.6,0,1.191.007,1.786,0,1.487-.021,2.566-.729,2.574-2.231s-1.039-2.241-2.54-2.257c-.936-.01-1.872.012-2.807-.01-1.646-.039-3.287.149-3.3,2.234s1.62,2.3,3.268,2.271c.34-.007.68,0,1.021-.006m114.117,0c.6,0,1.191.008,1.786,0,1.548-.026,2.746-.583,2.705-2.329-.038-1.588-1.16-2.147-2.61-2.162-1.191-.012-2.382-.024-3.573.005-1.5.037-2.5.8-2.473,2.313.027,1.38,1.011,2.083,2.378,2.162.594.035,1.191.006,1.786.012" transform="translate(0 0)" fill="#060504"/>
        <path id="Trazado_722081" data-name="Trazado 722081" d="M102.094,55.148l-1.449-1.555-.562-.526c-8.642-7-18.98-6.2-25.781-.536-1.066.888-1.579.4-2.305-.333-3.745-3.783-7.553-7.5-11.263-11.318a5.121,5.121,0,0,0-4.1-1.676c-3.947.09-7.9-.053-11.846.068-1.624.049-2-.471-1.991-2.028q.109-12.747.01-25.5c-.014-2.107.656-3.219,2.928-3.216q28.461.04,56.922-.015c1.462,0,1.659.607,1.648,1.829-.045,5.494-.015,10.988-.022,16.482,0,1.387-.155,2.891,1.491,3.483s2.485-.617,3.315-1.764c1.006-1.39,2.106-2.712,3.087-4.118.683-.977,1.186-1,1.874-.008.98,1.407,2.05,2.751,3.079,4.124.835,1.114,1.658,2.355,3.329,1.762,1.554-.552,1.414-1.961,1.415-3.257a6.883,6.883,0,0,1,.081-.765c.968-.131,1.121,1.213,2.4,1.181V8.674c6.2-.488,6.287-.408,6.287,5.573,0,17.035-.03,34.069.041,51.1.008,1.949-.4,2.649-2.508,2.591-6.586-.18-13.177-.13-19.767-.169a13.716,13.716,0,0,0-.075-2.809c-.92-3.992-1.944-7.959-6.244-9.818M89,43.734c5.836,0,11.672-.066,17.506.04,1.773.032,2.365-.425,2.343-2.268-.021-1.761-.456-2.336-2.3-2.323q-17.634.123-35.269-.008c-2-.017-2.138.812-2.159,2.417-.022,1.628.357,2.219,2.116,2.186,5.919-.113,11.842-.043,17.762-.043M69.137,30.453c5.223,0,10.447-.069,15.668.041,1.622.034,2.109-.445,1.962-2.012-.119-1.266.28-2.417-1.859-2.392q-15.666.186-31.336.007c-1.926-.019-1.923.843-2,2.282-.092,1.719.5,2.143,2.155,2.11,5.135-.1,10.274-.037,15.411-.037m8.687-8.781c2.489,0,4.983-.095,7.466.032,1.709.088,1.552-.97,1.421-1.973-.119-.909.763-2.4-1.262-2.389-4.978.031-9.957.039-14.935,0-2.01-.017-1.2,1.441-1.3,2.365-.1.983-.325,2.085,1.4,2,2.4-.122,4.8-.031,7.208-.03m37.46,39.617c1.706,0,3.419-.1,5.117.027,1.65.119,1.588-.91,1.456-1.943-.128-1,.749-2.59-1.39-2.57q-5.118.048-10.237-.008c-1.1-.014-1.434.4-1.516,1.487-.156,2.061.079,3.486,2.736,3.043a23.643,23.643,0,0,1,3.833-.036m.039-8.777c1.707,0,3.417-.073,5.119.02,1.937.106,1.408-1.272,1.414-2.254.006-1,.481-2.323-1.425-2.283-3.412.073-6.826.052-10.239,0-1.14-.016-1.392.476-1.477,1.522-.168,2.093.155,3.46,2.774,3.029a24.067,24.067,0,0,1,3.834-.037M58.04,21.672c1.705,0,3.418-.107,5.113.029,1.829.146,1.614-1.021,1.552-2.116-.056-.99.5-2.31-1.432-2.259-3.407.091-6.819.016-10.229.035-.547,0-1.135-.162-1.414.689-.75,2.292.146,3.617,2.574,3.621q1.918,0,3.836,0m59.435,22.059c1.027,0,2.055.012,3.082-.005.489-.008.974.069,1.264-.571.955-2.1-.2-3.926-2.551-3.931-1.541,0-3.083-.014-4.624.007-.65.009-1.324-.14-1.593.837-.682,2.473.122,3.658,2.623,3.666q.9,0,1.8,0" transform="translate(-20.738 -4.115)" fill="#94c5ec"/>
        <path id="Trazado_722082" data-name="Trazado 722082" d="M100.567,187.7c2.611,4.078,6.557,4.579,10.93,4.253a7.149,7.149,0,0,0,5.661-3.012c1.411-1.946,5.171-1.907,6.607.061a6.441,6.441,0,0,0,5.952,2.9c1.358-.1,1.758.387,1.747,1.738-.058,7.291-.04,14.583-.02,21.875.006,1.962-.972,2.812-2.859,2.781-.514-.008-1.029,0-1.544,0q-52.765,0-105.531,0c-4.164,0-4.383-.22-4.383-4.338,0-6.519.051-13.04-.035-19.558-.023-1.733.138-2.741,2.285-2.528,2.215.22,3.944-.964,5.293-2.657a4.374,4.374,0,0,1,6.9-.056,6.367,6.367,0,0,0,5.256,2.752c1.287,0,2.576-.034,3.861.018a6.421,6.421,0,0,0,6.266-3.248c.609-1.056,1.4-1.055,2.358-1.057,1.022,0,1.021.791,1.1,1.422,2.167,17.124,23.485,27.808,39.837,14.641.471-.032.871-.141.8-.749l.035-.031c.365.058.523-.09.458-.46l.061-.066c1.062.44,1.558-.409,2.149-.974a23.281,23.281,0,0,0,6.814-13.7" transform="translate(-8.281 -90.853)" fill="#fddc54"/>
        <path id="Trazado_722083" data-name="Trazado 722083" d="M31.375,76.819c3.861,0,7.722.046,11.581-.026a3.91,3.91,0,0,1,3.164,1.271q5.106,5.264,10.369,10.374c.963.938,1.4,1.583.524,2.975a16.919,16.919,0,0,0-2.463,9.059c-.011,2.4-.041,4.8-.024,7.2.038,5.358.549,10.758-2.8,15.561-.781,1.12-.781,2.773-1.2,4.162-.222.738.174,1.876-1.072,2.031a2.363,2.363,0,0,1-2.56-1.11c-3.326-4.715-12.163-4.586-15.668.109-1.109,1.485-5.11,1.535-6.158,0a6.575,6.575,0,0,0-6.026-3.251c-1.387.073-1.95-.271-1.944-1.816q.083-22.387,0-44.774c-.006-1.55.551-1.826,1.929-1.8,4.116.078,8.235.028,12.353.028" transform="translate(-8.283 -37.209)" fill="#fddc54"/>
        <path id="Trazado_722084" data-name="Trazado 722084" d="M171.019,132.168c11.067-.029,22.135-.029,33.2-.121,1.568-.013,1.815.6,1.8,1.961-.063,5.319-.089,10.64.012,15.957.031,1.618-.471,2.108-2.039,2a6.231,6.231,0,0,0-5.541,2.694,4.357,4.357,0,0,1-6.882.035,6.023,6.023,0,0,0-4.5-2.665c-2.052-.107-4.117-.091-6.171-.006-2.795.116-4.09,2.425-5.776,4.143a22.8,22.8,0,0,0-3.505-9.788,4.111,4.111,0,0,1-.666-2.4c.032-3.935.044-7.87.063-11.8" transform="translate(-82.839 -63.985)" fill="#fddc54"/>
        <path id="Trazado_722085" data-name="Trazado 722085" d="M129.231,164.739a19.722,19.722,0,1,1-19.79-19.78,19.756,19.756,0,0,1,19.79,19.78m-19.839,15.332A15.326,15.326,0,1,0,94.1,164.624a15.375,15.375,0,0,0,15.291,15.446" transform="translate(-43.508 -70.242)" fill="#f79310"/>
        <path id="Trazado_722086" data-name="Trazado 722086" d="M128.809,120.9c-3.288-1.14-5.056-2.993-4.474-6.62a27.741,27.741,0,0,0,.01-5.65,10.911,10.911,0,0,0-21.8.1c-.075,1.712-.032,3.43-.033,5.145,0,4.556,0,4.556-4.476,7.24.249-5.617-.79-11.069.728-16.385a15.351,15.351,0,0,1,29.988,3.115c.325,4.31.059,8.665.059,13.057" transform="translate(-47.446 -45.474)" fill="#cfced1"/>
        <path id="Trazado_722087" data-name="Trazado 722087" d="M25.912,36.6c0,3.09-.043,6.18.021,9.268.025,1.2-.332,1.581-1.58,1.653-7.208.414-7.206.451-7.206-6.571,0-4.119.036-8.239-.014-12.358-.025-2.046.856-2.922,2.919-3,5.862-.209,5.86-.256,5.86,5.6q0,2.7,0,5.407" transform="translate(-8.302 -12.37)" fill="#fd9711"/>
        <path id="Trazado_722088" data-name="Trazado 722088" d="M226.02,81.057c6.656-.353,6.656-.353,6.656,6.1,0,4.544-.092,9.089.045,13.629.056,1.866-.571,2.417-2.329,2.231-1.442-.153-2.907-.1-4.361-.136q-.005-10.912-.011-21.825" transform="translate(-109.521 -39.219)" fill="#fd9711"/>
        <path id="Trazado_722089" data-name="Trazado 722089" d="M179.635,20.9c-2.007-.85-2.149-3.543-4.4-3.52-2.214.022-2.524,2.333-4.327,3.664,0-4.116-.007-7.958.009-11.8,0-.521.414-.7.876-.734.256-.021.513-.012.769-.027,7.077-.437,7.077-.437,7.077,6.706Z" transform="translate(-82.813 -4.034)" fill="#f54d22"/>
        <path id="Trazado_722090" data-name="Trazado 722090" d="M168.632,132.133c-.019,3.935-.031,7.87-.063,11.8a4.111,4.111,0,0,0,.666,2.4,22.805,22.805,0,0,1,3.505,9.788c-1.764.519-2.433-.219-2.607-1.976a14.661,14.661,0,0,0-2.28-6.728c-3.073-4.579-1.253-9.617-1.606-14.433-.117-1.585,1.47-.841,2.384-.859" transform="translate(-80.452 -63.95)" fill="#e0bd29"/>
        <path id="Trazado_722091" data-name="Trazado 722091" d="M128.2,117.5c-2.286,0-6.475-2.778-7.328-4.622-.426-.92.327-1.037.759-1.287,3.548-2.052,8.883.51,9.276,4.595.25,2.6-2.025.638-2.706,1.315" transform="translate(-58.51 -53.722)" fill="#94c5ec"/>
        <path id="Trazado_722092" data-name="Trazado 722092" d="M198.654,8.662V27.457c-1.281.031-1.434-1.313-2.4-1.182-.035-5.365-.021-10.732-.127-16.1-.044-2.2,1.255-1.736,2.529-1.516" transform="translate(-95.034 -4.103)" fill="#74afdd"/>
        <path id="Trazado_722093" data-name="Trazado 722093" d="M224,81.067q.005,10.912.011,21.825c-1.442.356-2.183.081-2.157-1.693.091-6.144.1-12.291-.006-18.435-.032-1.816.765-1.981,2.152-1.7" transform="translate(-107.497 -39.229)" fill="#e88504"/>
        <path id="Trazado_722094" data-name="Trazado 722094" d="M119.2,125.49c2.343,3.09,5.5,3.982,9.2,3.411,1.6-.246,2.15.43,1.964,1.994-.22,1.848-1.33.772-2.064.645a37.145,37.145,0,0,0-9.164-.1q.032-2.977.064-5.953" transform="translate(-57.731 -60.808)" fill="#fddc54"/>
        <path id="Trazado_722095" data-name="Trazado 722095" d="M55.543,183.47c-.6,0-1.195.026-1.789-.01-1.364-.081-2.369-.78-2.406-2.153-.041-1.52,1-2.27,2.483-2.319,1.192-.04,2.386-.028,3.579-.006,1.43.027,2.573.525,2.618,2.153.049,1.785-1.161,2.295-2.7,2.336-.6.016-1.193,0-1.79,0" transform="translate(-24.881 -86.718)" fill="#d8d9da"/>
        <path id="Trazado_722096" data-name="Trazado 722096" d="M192.149,183.488q-.639,0-1.278,0c-1.6,0-3-.379-2.952-2.334.042-1.79,1.358-2.165,2.861-2.164,1.023,0,2.046,0,3.068,0,1.581,0,2.775.661,2.738,2.324-.034,1.508-1.177,2.158-2.647,2.17-.6,0-1.193,0-1.79,0" transform="translate(-91.057 -86.732)" fill="#d8d9da"/>
        <path id="Trazado_722097" data-name="Trazado 722097" d="M13.131,183.479c-.34,0-.68,0-1.021,0-1.648.034-3.283-.184-3.268-2.27s1.656-2.273,3.3-2.234c.935.022,1.871,0,2.807.01,1.5.015,2.548.762,2.54,2.257s-1.088,2.21-2.574,2.231c-.6.008-1.191,0-1.786,0" transform="translate(-4.284 -86.724)" fill="#d8d9da"/>
        <path id="Trazado_722098" data-name="Trazado 722098" d="M234.646,183.476c-.6,0-1.192.025-1.786-.009-1.367-.079-2.351-.781-2.378-2.162-.029-1.514.976-2.276,2.473-2.313,1.19-.029,2.382-.018,3.572-.006,1.45.015,2.572.575,2.61,2.162.041,1.746-1.157,2.3-2.7,2.329-.595.01-1.191,0-1.786,0" transform="translate(-111.682 -86.724)" fill="#d8d9da"/>
        <path id="Trazado_722099" data-name="Trazado 722099" d="M170.617,187.751a23.281,23.281,0,0,1-6.814,13.7c-.591.565-1.088,1.414-2.149.974,3.35-3.9,5.883-8.206,6.5-13.425.2-1.707,1.329-1.448,2.461-1.252" transform="translate(-78.331 -90.908)" fill="#e0bd29"/>
        <path id="Trazado_722100" data-name="Trazado 722100" d="M157.837,99.009c4.3,1.859,5.324,5.826,6.245,9.819a13.785,13.785,0,0,1,.075,2.808c-.97.2-1.956.4-1.986-1.09-.088-4.357-1.979-8.033-4.334-11.537" transform="translate(-76.482 -47.976)" fill="#74afdd"/>
        <path id="Trazado_722101" data-name="Trazado 722101" d="M117.236,123.879q-.032,2.977-.064,5.953c-1.46.88-2.168.637-2.088-1.235.09-2.1.021-4.213.021-6.432a3.278,3.278,0,0,1,2.132,1.714" transform="translate(-55.762 -59.197)" fill="#e0bd29"/>
        <path id="Trazado_722102" data-name="Trazado 722102" d="M159.825,217.439c.066.608-.333.717-.8.749l.8-.749" transform="translate(-77.055 -105.363)" fill="#e0bd29"/>
        <path id="Trazado_722103" data-name="Trazado 722103" d="M153.935,94.973l.562.526-.562-.526" transform="translate(-74.591 -46.02)" fill="#74afdd"/>
        <path id="Trazado_722104" data-name="Trazado 722104" d="M161.105,216.486c.065.37-.093.518-.458.46l.458-.46" transform="translate(-77.843 -104.901)" fill="#e0bd29"/>
        <path id="Trazado_722105" data-name="Trazado 722105" d="M113.741,72.578c-5.921,0-11.844-.07-17.763.043-1.76.034-2.138-.558-2.116-2.186.021-1.6.155-2.434,2.16-2.417q17.633.151,35.269.008c1.843-.013,2.278.562,2.3,2.323.022,1.843-.57,2.3-2.343,2.268-5.833-.106-11.67-.04-17.505-.04" transform="translate(-45.481 -32.959)" fill="#080b0d"/>
        <path id="Trazado_722106" data-name="Trazado 722106" d="M77.375,47c-5.137,0-10.276-.064-15.411.037-1.65.032-2.247-.392-2.154-2.11.077-1.439.075-2.3,2-2.282q15.667.155,31.336-.007c2.139-.025,1.74,1.126,1.859,2.392.146,1.567-.341,2.046-1.962,2.012C87.823,46.93,82.6,47,77.375,47" transform="translate(-28.977 -20.66)"/>
        <path id="Trazado_722107" data-name="Trazado 722107" d="M102.579,29.99c-2.4,0-4.811-.091-7.208.03-1.728.088-1.5-1.015-1.4-2,.1-.925-.709-2.382,1.3-2.365,4.978.042,9.957.035,14.935,0,2.025-.013,1.144,1.479,1.262,2.389.131,1,.288,2.06-1.421,1.973-2.482-.127-4.977-.032-7.466-.032" transform="translate(-45.494 -12.432)"/>
        <path id="Trazado_722108" data-name="Trazado 722108" d="M177.215,106.7a23.7,23.7,0,0,0-3.833.037c-2.658.443-2.892-.982-2.736-3.044.082-1.084.419-1.5,1.516-1.487q5.118.064,10.237.008c2.138-.02,1.261,1.57,1.389,2.57.132,1.033.194,2.062-1.456,1.943-1.7-.122-3.411-.027-5.117-.027" transform="translate(-82.671 -49.525)" fill="#080b0d"/>
        <path id="Trazado_722109" data-name="Trazado 722109" d="M177.255,89.649a24.007,24.007,0,0,0-3.834.036c-2.619.431-2.942-.936-2.774-3.028.085-1.046.337-1.538,1.477-1.522,3.413.048,6.827.069,10.239,0,1.906-.041,1.431,1.282,1.425,2.283-.006.982.523,2.359-1.414,2.253-1.7-.093-3.412-.019-5.119-.019" transform="translate(-82.671 -41.251)" fill="#080b0d"/>
        <path id="Trazado_722110" data-name="Trazado 722110" d="M66.1,29.977q-1.918,0-3.836,0c-2.428-.005-3.324-1.329-2.574-3.621.279-.852.867-.687,1.414-.69,3.41-.019,6.821.056,10.229-.035,1.936-.052,1.375,1.269,1.431,2.259.062,1.095.277,2.262-1.552,2.116-1.694-.136-3.408-.029-5.113-.029" transform="translate(-28.799 -12.419)"/>
        <path id="Trazado_722111" data-name="Trazado 722111" d="M183.3,72.62c-.6,0-1.2,0-1.8,0-2.5-.009-3.306-1.194-2.623-3.666.269-.976.942-.827,1.593-.836,1.541-.021,3.083-.01,4.624-.007,2.349.005,3.506,1.827,2.551,3.93-.29.64-.775.563-1.264.571-1.027.018-2.055.005-3.082.007" transform="translate(-86.566 -33.001)" fill="#080b0d"/>
        <path id="Trazado_722112" data-name="Trazado 722112" d="M113.446,184.264a15.326,15.326,0,1,1,15.524-15.2,15.388,15.388,0,0,1-15.524,15.2m11.038-15.19a10.922,10.922,0,1,0-11.053,10.884,10.962,10.962,0,0,0,11.053-10.884" transform="translate(-47.562 -74.435)" fill="#070301"/>
        <path id="Trazado_722113" data-name="Trazado 722113" d="M128.7,173.133a10.921,10.921,0,1,1-10.785-11.142A10.975,10.975,0,0,1,128.7,173.133m-10.726-6.659c-1.8,0-3.594.058-5.386-.017-1.665-.07-1.494,1.05-1.414,2.058.07.884-.526,2.48,1.194,2.178,3.533-.621,3.468,1.484,3.283,3.869-.06.765,0,1.538-.012,2.307-.03,1.458-.3,2.765,2.077,2.757,2.2-.008,2.329-.986,2.219-2.629-.085-1.276.1-2.576-.044-3.843-.215-1.9.438-2.718,2.4-2.414,1.374.214,2.121-.074,2.195-1.834.091-2.176-.776-2.639-2.662-2.459-1.271.122-2.563.023-3.845.027" transform="translate(-51.781 -78.494)" fill="#f54d22"/>
        <path id="Trazado_722114" data-name="Trazado 722114" d="M121.988,170.63c1.282,0,2.574.1,3.845-.025,1.887-.18,2.753.282,2.662,2.458-.074,1.761-.821,2.048-2.195,1.834-1.958-.3-2.61.51-2.4,2.414.143,1.266-.041,2.566.044,3.843.109,1.643-.02,2.621-2.219,2.629-2.374.009-2.108-1.3-2.077-2.757.016-.769-.047-1.543.012-2.308.186-2.385.25-4.49-3.283-3.869-1.72.3-1.124-1.294-1.194-2.178-.08-1.007-.251-2.127,1.414-2.058,1.792.076,3.591.017,5.386.015" transform="translate(-55.793 -82.652)"/>
      </g>
    </g>
  </g>
</svg>
