<svg id="Grupo_1018223" data-name="Grupo 1018223" xmlns="http://www.w3.org/2000/svg" xmlns:xlink="http://www.w3.org/1999/xlink" width="133.008" height="59.871" viewBox="0 0 133.008 59.871">
  <defs>
    <clipPath id="clip-path">
      <rect id="Rectángulo_350949" data-name="Rectángulo 350949" width="133.008" height="59.871" fill="none"/>
    </clipPath>
  </defs>
  <g id="Grupo_1018222" data-name="Grupo 1018222" clip-path="url(#clip-path)">
    <path id="Trazado_720746" data-name="Trazado 720746" d="M24.533,77.509s-1.12-8.878,1.638-7.187c6.823,4.185,14.326-.175,15.1-1.729,4.72-9.439,2.547-36.573,15.284-36.573s6.914,24.746,13.829,30.2S86.762,42.574,96.952,42.574,109.689,61.5,118.423,61.5s11.645-8.734,20.743-10.189V77.576Z" transform="translate(-18.524 -24.401)" fill="#fff176"/>
    <path id="Trazado_720747" data-name="Trazado 720747" d="M12.635,4.822a.8.8,0,0,1-.593-1.347L14.986.261a.8.8,0,0,1,1.187,0l2.681,2.946a.8.8,0,1,1-1.187,1.083L15.577,2,13.229,4.562a.808.808,0,0,1-.593.261" transform="translate(-9.017)" fill="#3b3348"/>
    <path id="Trazado_720748" data-name="Trazado 720748" d="M538.735,210.216a.8.8,0,0,1,1.347-.593l3.215,2.945a.8.8,0,0,1,0,1.187l-2.946,2.681a.8.8,0,1,1-1.083-1.187l2.3-2.091L539,210.81a.808.808,0,0,1-.261-.593" transform="translate(-410.549 -159.585)" fill="#3b3348"/>
    <path id="Trazado_720749" data-name="Trazado 720749" d="M159.158,54.889a.4.4,0,0,1-.4-.4V2.65a.4.4,0,0,1,.8,0V54.487a.4.4,0,0,1-.4.4" transform="translate(-120.983 -1.714)" fill="#3b3348"/>
    <path id="Trazado_720750" data-name="Trazado 720750" d="M326.9,54.889a.4.4,0,0,1-.4-.4V2.65a.4.4,0,0,1,.8,0V54.487a.4.4,0,0,1-.4.4" transform="translate(-248.812 -1.714)" fill="#3b3348"/>
    <path id="Trazado_720751" data-name="Trazado 720751" d="M505.917,54.889a.4.4,0,0,1-.4-.4V2.65a.4.4,0,0,1,.8,0V54.487a.4.4,0,0,1-.4.4" transform="translate(-385.234 -1.714)" fill="#3b3348"/>
    <path id="Trazado_720752" data-name="Trazado 720752" d="M24.453,66.308a.8.8,0,0,1-.8-.8V9.249a.8.8,0,1,1,1.606,0V65.5a.8.8,0,0,1-.8.8" transform="translate(-18.023 -6.436)" fill="#3b3348"/>
    <path id="Trazado_720753" data-name="Trazado 720753" d="M131,222.841H.8a.8.8,0,0,1,0-1.606H131a.8.8,0,0,1,0,1.606" transform="translate(0 -168.595)" fill="#3b3348"/>
    <path id="Trazado_720754" data-name="Trazado 720754" d="M157.985,21.148a1.365,1.365,0,1,0-1.365,1.365,1.365,1.365,0,0,0,1.365-1.365" transform="translate(-118.315 -15.076)" fill="#fff"/>
    <path id="Trazado_720755" data-name="Trazado 720755" d="M155.4,21.675a1.745,1.745,0,1,1,1.745-1.745,1.746,1.746,0,0,1-1.745,1.745m0-2.732a.987.987,0,1,0,.986.986.986.986,0,0,0-.986-.986" transform="translate(-117.095 -13.858)" fill="#3b3348"/>
    <path id="Trazado_720756" data-name="Trazado 720756" d="M324.7,70.092a1.365,1.365,0,1,0-1.365,1.365,1.365,1.365,0,0,0,1.365-1.365" transform="translate(-245.358 -52.374)" fill="#fff"/>
    <path id="Trazado_720757" data-name="Trazado 720757" d="M322.12,70.617a1.744,1.744,0,1,1,1.745-1.742,1.745,1.745,0,0,1-1.745,1.742m0-2.729a.985.985,0,1,0,.987.986.986.986,0,0,0-.987-.986" transform="translate(-244.148 -51.157)" fill="#3b3348"/>
    <path id="Trazado_720758" data-name="Trazado 720758" d="M502.621,107.818a1.365,1.365,0,1,0-1.365,1.365,1.365,1.365,0,0,0,1.365-1.365" transform="translate(-380.949 -81.124)" fill="#fff"/>
    <path id="Trazado_720759" data-name="Trazado 720759" d="M500.047,108.344a1.743,1.743,0,1,1,1.745-1.742,1.745,1.745,0,0,1-1.745,1.742m0-2.728a.985.985,0,1,0,.987.986.986.986,0,0,0-.987-.986" transform="translate(-379.739 -79.908)" fill="#3b3348"/>
  </g>
</svg>
