<svg xmlns="http://www.w3.org/2000/svg" xmlns:xlink="http://www.w3.org/1999/xlink" width="169" height="169" viewBox="0 0 169 169">
  <defs>
    <clipPath id="clip-path">
      <rect id="Rect치ngulo_351306" data-name="Rect치ngulo 351306" width="123.822" height="123.792" fill="none"/>
    </clipPath>
  </defs>
  <g id="Grupo_1018494" data-name="Grupo 1018494" transform="translate(-366.501 -5291.951)">
    <g id="Grupo_1015075" data-name="Grupo 1015075" transform="translate(-18.5 3233.951)">
      <g id="Grupo_159182" data-name="Grupo 159182" transform="translate(385.001 2058)">
        <path id="Uni칩n_12" data-name="Uni칩n 12" d="M84.5,0A84.5,84.5,0,1,1,0,84.5,84.5,84.5,0,0,1,84.5,0Z" transform="translate(0 0)" fill="#cda7ff"/>
      </g>
    </g>
    <g id="Grupo_1018322" data-name="Grupo 1018322" transform="translate(390 5313.916)">
      <g id="Grupo_1018321" data-name="Grupo 1018321" clip-path="url(#clip-path)">
        <path id="Trazado_721341" data-name="Trazado 721341" d="M89.436,46.876a41.916,41.916,0,0,1-7.04,21.8c-1.187,1.788-1.111,2.856.532,4.032a5.823,5.823,0,0,1,1.238,1.238c1.487,1.984,2.925,2.533,4.606.151,1.213-1.72,2.437-1.332,3.816.058,9.064,9.14,18.239,18.171,27.268,27.347a12.881,12.881,0,0,1,.209,18.389c-5.118,5.2-13.164,5.241-18.6-.112-9.1-8.968-18.054-18.081-27.149-27.052-1.645-1.623-1.816-2.906.049-4.247,1.947-1.4,1.614-2.481-.016-4-3.412-3.18-3.33-3.269-7.43-.935a44.025,44.025,0,0,1-49.174-3.319C2.8,68.427-3,52.721,1.472,34.271,6.038,15.442,18.721,4.03,37.778.663,64.737-4.1,89.506,17.39,89.436,46.876M86.5,46.833C86.556,18.99,63.323-1.015,37.874,3.6,20.488,6.752,8.841,17.22,4.434,34.37S5.07,66.419,18.949,77.411,48.26,89.324,64.227,81.729c2.444-1.163,4.475-4.1,6.988-3.743s3.962,3.493,5.985,5.3c.546.488,1,1.343,1.884.409,1.668-1.762,4.06-3.254,4.793-5.337.48-1.363-2.365-2.725-3.6-4.2a6.17,6.17,0,0,0-1.037-1.028c-1.841-1.342-1.642-2.617-.358-4.4a39.546,39.546,0,0,0,7.618-21.9m34.167,63.456c.2-2.489-1.04-4.875-3.016-6.878-5.671-5.748-11.412-11.425-17.091-17.165-1-1.007-1.766-1.272-2.885-.127-3.807,3.9-7.681,7.727-11.543,11.569-.781.776-1.206,1.487-.225,2.443,6.335,6.177,12.25,12.792,18.953,18.58,3.107,2.683,6.9,2.6,10.452.979,3.7-1.689,5.41-4.866,5.356-9.4M96.613,82.678a15.556,15.556,0,0,0-1.086-1.434c-1.078-1.124-2.275-2.143-3.273-3.33C91.1,76.543,90.239,76.551,89,77.884c-2.587,2.776-5.328,5.408-8.013,8.091-5.032,5.031-5,4.994.308,9.618,1.16,1.01,1.911.941,2.929-.094,3.754-3.818,7.564-7.578,11.336-11.378a12.068,12.068,0,0,0,1.055-1.444" transform="translate(0 0)" fill="#0a0a0b"/>
        <path id="Trazado_721342" data-name="Trazado 721342" d="M190.505,38.743a11.487,11.487,0,1,1-11.458-11.6,11.575,11.575,0,0,1,11.458,11.6m-2.934-.163a8.55,8.55,0,1,0-8.665,8.764,8.628,8.628,0,0,0,8.665-8.764" transform="translate(-69.408 -11.245)" fill="#0a0b09"/>
        <path id="Trazado_721343" data-name="Trazado 721343" d="M53.107,184.681a8.594,8.594,0,1,1,8.623-8.42,8.477,8.477,0,0,1-8.623,8.42m5.692-8.644a5.659,5.659,0,1,0-5.684,5.706,5.534,5.534,0,0,0,5.684-5.706" transform="translate(-18.452 -69.392)" fill="#070a06"/>
        <path id="Trazado_721344" data-name="Trazado 721344" d="M7.2,164.4c-1.318-.262-2.2-1.018-2.1-2.349a2.046,2.046,0,0,1,2.367-1.993,2.018,2.018,0,0,1,1.93,2.147,2.191,2.191,0,0,1-2.2,2.2" transform="translate(-2.11 -66.307)" fill="#121212"/>
        <path id="Trazado_721345" data-name="Trazado 721345" d="M156.963,7.195A2.007,2.007,0,0,1,154.8,9.367a1.987,1.987,0,0,1-2.071-1.977,2.024,2.024,0,0,1,2.028-2.315,2,2,0,0,1,2.21,2.121" transform="translate(-63.271 -2.101)" fill="#121212"/>
        <path id="Trazado_721346" data-name="Trazado 721346" d="M204.073,83.731a2.1,2.1,0,0,1,2.093,2.292,1.924,1.924,0,0,1-2.036,1.986,1.987,1.987,0,0,1-2.233-2.092,2.128,2.128,0,0,1,2.175-2.186" transform="translate(-83.646 -34.689)" fill="#121212"/>
        <path id="Trazado_721347" data-name="Trazado 721347" d="M181.679,112.867a2.086,2.086,0,0,1-2.16,2.234,1.9,1.9,0,0,1-2.112-1.888,1.989,1.989,0,0,1,1.943-2.36c1.349-.1,2.069.772,2.329,2.014" transform="translate(-73.496 -45.923)" fill="#121212"/>
        <path id="Trazado_721348" data-name="Trazado 721348" d="M14.35,4.8c-.208,1.146-.691,2.043-2.014,2.1a1.993,1.993,0,0,1-2.291-2.089,1.987,1.987,0,0,1,2.274-2.1c1.325.05,1.816.941,2.031,2.087" transform="translate(-4.162 -1.121)" fill="#0b0c0d"/>
        <path id="Trazado_721349" data-name="Trazado 721349" d="M127.591,196.558c-.295,1.352-.893,2.257-2.35,2.207a2.1,2.1,0,0,1-.051-4.2c1.472-.1,2.039.85,2.4,1.989" transform="translate(-51.059 -80.607)" fill="#0b0c0d"/>
        <path id="Trazado_721350" data-name="Trazado 721350" d="M88.541,48.91a39.551,39.551,0,0,1-7.619,21.9c-1.284,1.778-1.483,3.053.358,4.4a6.143,6.143,0,0,1,1.036,1.028c1.237,1.471,4.081,2.833,3.6,4.2-.733,2.083-3.125,3.576-4.793,5.338-.885.934-1.338.078-1.885-.409-2.022-1.8-3.485-4.943-5.985-5.3s-4.544,2.58-6.988,3.742C50.3,91.4,34.877,90.488,20.989,79.487S2.067,53.6,6.475,36.446,22.529,8.828,39.916,5.676C65.364,1.062,88.6,21.066,88.541,48.91M46.861,77.03A30.229,30.229,0,1,0,16.555,46.8,30.045,30.045,0,0,0,46.861,77.03M84.166,47.48A37.492,37.492,0,0,0,77.3,25.186c-1.062-1.5-2.318-2.875-3.521-4.276-.684-.8-1.588-1.367-2.49-.47s-.307,1.776.421,2.527c.271.279.549.552.8.846,7.836,9.126,10.385,19.608,7.755,31.285A32.506,32.506,0,0,1,72.04,70.312c-.8.858-1.912,1.825-.693,2.921,1.237,1.113,2.076-.2,2.877-1a20.12,20.12,0,0,0,1.36-1.525A36.714,36.714,0,0,0,84.166,47.48" transform="translate(-2.04 -2.077)" fill="#b8dffa"/>
        <path id="Trazado_721351" data-name="Trazado 721351" d="M181.03,170.674c.054,4.535-1.658,7.713-5.356,9.4-3.551,1.621-7.345,1.7-10.452-.979-6.7-5.788-12.618-12.4-18.953-18.58-.981-.957-.556-1.667.224-2.443,3.863-3.842,7.737-7.673,11.544-11.569,1.119-1.145,1.889-.88,2.885.127,5.679,5.739,11.42,11.417,17.091,17.165,1.977,2,3.217,4.389,3.017,6.879m-9.74-5.049a5.691,5.691,0,0,0-5.666,5.8,5.937,5.937,0,0,0,5.735,5.83,6.135,6.135,0,0,0,5.891-5.732,5.922,5.922,0,0,0-5.96-5.9" transform="translate(-60.363 -60.385)" fill="#555e6d"/>
        <path id="Trazado_721352" data-name="Trazado 721352" d="M151.262,137.062a12.066,12.066,0,0,1-1.055,1.444c-3.771,3.8-7.582,7.561-11.336,11.378-1.018,1.036-1.769,1.1-2.929.094-5.312-4.624-5.34-4.587-.308-9.618,2.685-2.684,5.426-5.316,8.013-8.091,1.242-1.333,2.1-1.341,3.255.029,1,1.188,2.2,2.206,3.273,3.33a15.552,15.552,0,0,1,1.086,1.434" transform="translate(-54.649 -54.384)" fill="#3f4853"/>
        <path id="Trazado_721353" data-name="Trazado 721353" d="M189.652,40.634a8.549,8.549,0,1,1-8.608-8.534,8.614,8.614,0,0,1,8.608,8.534" transform="translate(-71.489 -13.299)" fill="#66c542"/>
        <path id="Trazado_721354" data-name="Trazado 721354" d="M60.88,178.118a5.659,5.659,0,1,1-5.784-5.6,5.539,5.539,0,0,1,5.784,5.6" transform="translate(-20.533 -71.473)" fill="#66c542"/>
        <path id="Trazado_721355" data-name="Trazado 721355" d="M55.086,85.209A30.229,30.229,0,1,1,85.242,54.868,30.13,30.13,0,0,1,55.086,85.209M82.337,54.985A27.318,27.318,0,1,0,55.114,82.3a27.206,27.206,0,0,0,27.223-27.32" transform="translate(-10.267 -10.255)" fill="#0b0c0d"/>
        <path id="Trazado_721356" data-name="Trazado 721356" d="M130.767,58.069a36.714,36.714,0,0,1-8.582,23.225,20.119,20.119,0,0,1-1.36,1.525c-.8.8-1.64,2.117-2.877,1-1.218-1.1-.11-2.063.693-2.921a32.506,32.506,0,0,0,8.222-15.214c2.629-11.677.081-22.159-7.755-31.285-.253-.295-.531-.568-.8-.846-.729-.751-1.315-1.638-.421-2.527s1.806-.326,2.49.47c1.2,1.4,2.459,2.772,3.521,4.276a37.491,37.491,0,0,1,6.871,22.294" transform="translate(-48.641 -12.666)" fill="#090b0d"/>
        <path id="Trazado_721357" data-name="Trazado 721357" d="M185.383,179.68a5.922,5.922,0,0,1,5.96,5.9,6.135,6.135,0,0,1-5.891,5.732,5.937,5.937,0,0,1-5.735-5.83,5.692,5.692,0,0,1,5.666-5.8m.053,2.869a2.822,2.822,0,0,0-2.768,2.659,2.847,2.847,0,1,0,5.683.216c0-1.639-1.072-2.618-2.915-2.874" transform="translate(-74.456 -74.441)" fill="#060707"/>
        <path id="Trazado_721358" data-name="Trazado 721358" d="M84.4,57.052a27.318,27.318,0,1,1-27.248-27.31A27.171,27.171,0,0,1,84.4,57.052M53.787,64.141c1.28-.274,3.495.814,4.121-.8,1.031-2.655,3.336-3.352,5.309-4.623,4.789-3.086,6.463-7.028,5.216-12.463-1.039-4.53-4.768-7.464-10.256-8.069-4.95-.546-10.383,2.243-12.259,6.265-.388.831-.819,1.771.011,2.4a26.391,26.391,0,0,0,5.8,3.818c1.446.578,1.81-1.725,2.916-2.442a7.293,7.293,0,0,1,.979-.627,2.418,2.418,0,0,1,3.149.681c.78,1.06.177,2.022-.634,2.83A16.7,16.7,0,0,1,54,53.816a8.6,8.6,0,0,0-4.3,4.56c-1.71,4.522-.873,5.764,4.088,5.765M53.98,67.1c-4.831,0-4.831,0-4.833,4.033,0,4.732,0,4.732,4.214,4.735,5.1,0,5.1,0,5.1-4.114,0-4.653,0-4.653-4.485-4.654" transform="translate(-12.333 -12.322)" fill="#fbfbfb"/>
        <path id="Trazado_721359" data-name="Trazado 721359" d="M187.514,184.579c1.843.257,2.913,1.235,2.915,2.874a2.847,2.847,0,1,1-5.683-.216,2.822,2.822,0,0,1,2.768-2.658" transform="translate(-76.534 -76.47)" fill="#e9ebec"/>
        <path id="Trazado_721360" data-name="Trazado 721360" d="M64.883,70.068c-4.961,0-5.8-1.243-4.088-5.766a8.6,8.6,0,0,1,4.3-4.56,16.7,16.7,0,0,0,4.132-2.7c.812-.808,1.414-1.769.635-2.83a2.419,2.419,0,0,0-3.149-.681,7.283,7.283,0,0,0-.98.628c-1.105.717-1.47,3.02-2.916,2.442a26.4,26.4,0,0,1-5.8-3.819c-.829-.63-.4-1.57-.01-2.4,1.876-4.022,7.31-6.811,12.259-6.265,5.489.606,9.217,3.539,10.256,8.069,1.246,5.434-.426,9.377-5.216,12.463-1.973,1.272-4.277,1.969-5.309,4.623-.626,1.61-2.841.522-4.12.8m2.83-23.117a9.934,9.934,0,0,0-6.822,2.972c-.514.555-1.311,1.239-.306,1.888.747.482,1.39,1.939,2.668.7a9.294,9.294,0,0,1,1.6-1.263,5.572,5.572,0,0,1,7.362,1.162c1.539,2.034,1.137,4.643-1.056,6.8A18.2,18.2,0,0,1,66.8,62.124a6.524,6.524,0,0,0-2.7,2.165c-.49.8-1.428,1.98-.621,2.567a2.5,2.5,0,0,0,3.442-.315c1.416-2.048,3.553-2.96,5.53-4.167,4.024-2.458,5.373-5.658,4.158-9.836-1.013-3.484-4.383-5.664-8.9-5.588" transform="translate(-23.428 -18.249)" fill="#0d0a0b"/>
        <path id="Trazado_721361" data-name="Trazado 721361" d="M67.687,93.524c4.486,0,4.486,0,4.485,4.654,0,4.118,0,4.118-5.1,4.114-4.215,0-4.215,0-4.214-4.735,0-4.033,0-4.033,4.833-4.033m-.125,2.934c-1.122-.118-1.838.087-1.823,1.491.015,1.464.867,1.431,1.9,1.452s1.6-.184,1.642-1.4c.042-1.345-.55-1.711-1.715-1.543" transform="translate(-26.04 -38.747)" fill="#0d0a0b"/>
        <path id="Trazado_721362" data-name="Trazado 721362" d="M70.226,49c4.515-.076,7.885,2.1,8.9,5.588,1.215,4.177-.134,7.378-4.158,9.836-1.976,1.207-4.113,2.119-5.53,4.167a2.5,2.5,0,0,1-3.442.315c-.807-.587.131-1.769.621-2.567a6.524,6.524,0,0,1,2.7-2.165,18.2,18.2,0,0,0,4.351-2.909c2.193-2.159,2.6-4.769,1.056-6.8A5.572,5.572,0,0,0,67.364,53.3a9.293,9.293,0,0,0-1.6,1.263c-1.277,1.237-1.921-.22-2.668-.7-1.005-.649-.207-1.334.306-1.888A9.934,9.934,0,0,1,70.226,49" transform="translate(-25.941 -20.301)" fill="#f25480"/>
        <path id="Trazado_721363" data-name="Trazado 721363" d="M69.6,98.507c1.165-.168,1.757.2,1.715,1.543-.038,1.216-.624,1.42-1.642,1.4s-1.881.012-1.9-1.452c-.015-1.4.7-1.61,1.823-1.491" transform="translate(-28.08 -40.796)" fill="#f25480"/>
      </g>
    </g>
  </g>
</svg>
