<svg xmlns="http://www.w3.org/2000/svg" xmlns:xlink="http://www.w3.org/1999/xlink" width="391.801" height="330.513" viewBox="0 0 391.801 330.513">
  <defs>
    <clipPath id="clip-path">
      <rect id="Rectángulo_351186" data-name="Rectángulo 351186" width="391.8" height="300.127" fill="none"/>
    </clipPath>
  </defs>
  <g id="Grupo_1018493" data-name="Grupo 1018493" transform="translate(10171.93 7757.181)">
    <path id="Polígono_1" data-name="Polígono 1" d="M149.223,35.931a24,24,0,0,1,41.553,0l128.4,222.055A24,24,0,0,1,298.4,294H41.6a24,24,0,0,1-20.777-36.014Z" transform="translate(-10150.889 -7757.181)" fill="#bcf987"/>
    <path id="Trazado_720881" data-name="Trazado 720881" d="M118.73,15.45C126.61-.167,147.359.456,156.1,16.571L277.566,240.484c8.752,16.134-1.092,35.692-17.714,35.193L28.9,268.752c-16.622-.5-27.546-20.679-19.657-36.314Z" transform="translate(-10176.914 -7458.475) rotate(-82)" fill="#cda7ff"/>
    <g id="Grupo_1018270" data-name="Grupo 1018270" transform="translate(-10171.93 -7743.826)">
      <g id="Grupo_1018269" data-name="Grupo 1018269" clip-path="url(#clip-path)">
        <path id="Trazado_720990" data-name="Trazado 720990" d="M9.006,55.71a9.005,9.005,0,0,0-9.006,9v93.56a9.006,9.006,0,0,0,9.006,9.006H43.214V55.71Z" transform="translate(0 72.21)" fill="#c49a6c"/>
        <path id="Trazado_720991" data-name="Trazado 720991" d="M54.011,55.71H18.82V167.279H54.011a9.005,9.005,0,0,0,9-9.006V64.713a9,9,0,0,0-9-9" transform="translate(24.394 72.21)" fill="#b0875a"/>
        <rect id="Rectángulo_351140" data-name="Rectángulo 351140" width="36.443" height="101.82" transform="translate(6.771 131.197)" fill="#6d6e71"/>
        <rect id="Rectángulo_351141" data-name="Rectángulo 351141" width="37.423" height="101.82" transform="translate(43.214 131.199)" fill="#56585d"/>
        <rect id="Rectángulo_351142" data-name="Rectángulo 351142" width="34.87" height="97.953" transform="translate(8.347 133.19)" fill="#fff"/>
        <rect id="Rectángulo_351143" data-name="Rectángulo 351143" width="35.848" height="97.953" transform="translate(43.216 133.19)" fill="#e6e7e8"/>
        <path id="Trazado_720992" data-name="Trazado 720992" d="M13.3,55.034v2.9a3.734,3.734,0,0,0,3.734,3.734h8.953V55.034Z" transform="translate(17.233 71.334)" fill="#bcbec0"/>
        <path id="Trazado_720993" data-name="Trazado 720993" d="M18.82,55.034v6.629h9.933a3.732,3.732,0,0,0,3.734-3.734v-2.9Z" transform="translate(24.394 71.334)" fill="#a2a7ac"/>
        <path id="Trazado_720994" data-name="Trazado 720994" d="M13.857,56.3a3.525,3.525,0,0,0-3.527,3.527v.413a3.526,3.526,0,0,0,3.527,3.527H29.825V56.3Z" transform="translate(13.39 72.969)" fill="#939598"/>
        <path id="Trazado_720995" data-name="Trazado 720995" d="M35.768,56.3H18.82v7.467H35.768A3.526,3.526,0,0,0,39.3,60.235v-.413A3.525,3.525,0,0,0,35.768,56.3" transform="translate(24.394 72.969)" fill="#7b7e84"/>
        <path id="Trazado_720996" data-name="Trazado 720996" d="M7.717,76.158H19.4V64.475H7.717ZM8.58,65.341h9.952v9.952H8.58Z" transform="translate(10.003 83.572)" fill="#808285"/>
        <rect id="Rectángulo_351144" data-name="Rectángulo 351144" width="9.433" height="1.947" transform="translate(33.781 152.65)" fill="#808285"/>
        <rect id="Rectángulo_351145" data-name="Rectángulo 351145" width="26.475" height="1.947" transform="translate(43.216 152.65)" fill="#686c71"/>
        <path id="Trazado_720997" data-name="Trazado 720997" d="M7.717,88.854H19.4V77.171H7.717ZM8.58,78.037h9.952v9.952H8.58Z" transform="translate(10.003 100.028)" fill="#808285"/>
        <rect id="Rectángulo_351146" data-name="Rectángulo 351146" width="9.433" height="1.947" transform="translate(33.781 181.8)" fill="#808285"/>
        <rect id="Rectángulo_351147" data-name="Rectángulo 351147" width="26.475" height="1.947" transform="translate(43.216 181.803)" fill="#686c71"/>
        <path id="Trazado_720998" data-name="Trazado 720998" d="M7.717,101.549H19.4V89.866H7.717ZM8.58,90.732h9.952v9.952H8.58Z" transform="translate(10.003 116.483)" fill="#808285"/>
        <rect id="Rectángulo_351148" data-name="Rectángulo 351148" width="9.433" height="1.947" transform="translate(33.781 210.953)" fill="#808285"/>
        <rect id="Rectángulo_351149" data-name="Rectángulo 351149" width="26.475" height="1.947" transform="translate(43.216 210.953)" fill="#686c71"/>
        <path id="Trazado_720999" data-name="Trazado 720999" d="M24.328,55.455a2.141,2.141,0,0,1,1.656-2.083V51.182a4.3,4.3,0,0,0-3.832,4.273H17.029A3.734,3.734,0,0,0,13.3,59.189v.838H25.984V57.538a2.141,2.141,0,0,1-1.656-2.083" transform="translate(17.233 66.341)" fill="#808285"/>
        <path id="Trazado_721000" data-name="Trazado 721000" d="M32.487,59.217a3.734,3.734,0,0,0-3.734-3.734H23.631a4.322,4.322,0,0,0-4.321-4.324,4.25,4.25,0,0,0-.489.051V53.4a2.145,2.145,0,1,1,0,4.165v2.489H32.487Z" transform="translate(24.394 66.313)" fill="#686c71"/>
        <path id="Trazado_721001" data-name="Trazado 721001" d="M24.879,93.735c1.093-1.169,2.794-2.99,5.814-6.23q-2.383-1.626-4.765-3.247c-1.91,4-2.983,6.246-3.669,7.69Z" transform="translate(28.852 109.215)" fill="#00a79d"/>
        <path id="Trazado_721002" data-name="Trazado 721002" d="M40.97,61.379,45.925,54.1l6.292,9.614L48.639,68.97Z" transform="translate(53.104 70.129)" fill="#00a79d"/>
        <path id="Trazado_721003" data-name="Trazado 721003" d="M44.328,73.363l-9.2-6.264q-.9,1.395-1.761,2.769L42.4,76.017c.645-.877,1.286-1.757,1.933-2.654" transform="translate(43.255 86.973)" fill="#414042"/>
        <path id="Trazado_721004" data-name="Trazado 721004" d="M43.8,69.786c-6.025,9.69-11.626,19.343-20.128,33.347q2.614,1.781,5.226,3.559c9.924-13.035,16.859-21.777,23.671-30.93Z" transform="translate(30.688 90.456)" fill="#414042"/>
        <path id="Trazado_721005" data-name="Trazado 721005" d="M56.885,58.528a3.622,3.622,0,0,0-3.782-.563c-2.7.884-5.7,3.966-8.891,9.157-6.576,10.292-15.465,22.7-15.552,22.826,0,0,5.46.735,7.153-5.706,2.436-3.559,13.352-18.388,13.463-18.533a4.367,4.367,0,0,1,1.736-1.369c.473-.154,1.185-.214,1.887,1.04.579,1.031,1.164,1.1,1.552.969,1.557-.507,2.349-5.841,2.553-7.465l.025-.207Z" transform="translate(37.149 74.8)" fill="#414042"/>
        <path id="Trazado_721006" data-name="Trazado 721006" d="M43.6,74.455,34.572,68.3q-1.078,1.708-2.129,3.4l8.769,5.975c.8-1.07,1.589-2.14,2.386-3.226" transform="translate(42.052 88.535)" fill="#00a79d"/>
        <path id="Trazado_721007" data-name="Trazado 721007" d="M59.234,63.241q-4.619-3.152-9.24-6.3C43.441,66.139,38.523,73.429,34.137,80.26l9.2,6.266c4.755-6.581,9.74-13.823,15.9-23.286" transform="translate(44.248 73.811)" fill="#414042"/>
        <path id="Trazado_721008" data-name="Trazado 721008" d="M22.987,87.607a10.762,10.762,0,0,0-1.288,4.7,13.595,13.595,0,0,0,3.908-2.916q-1.312-.892-2.62-1.786" transform="translate(28.126 113.555)" fill="#414042"/>
        <path id="Trazado_721009" data-name="Trazado 721009" d="M49.24,59.07l-13.846,20.4,4.163,2.838L53.573,61.95Z" transform="translate(45.877 76.566)" fill="#bcbec0"/>
        <path id="Trazado_721010" data-name="Trazado 721010" d="M136.567,5.27H42.3a11.9,11.9,0,0,0-11.9,11.9V93.905a11.9,11.9,0,0,0,11.9,11.9h94.265a11.9,11.9,0,0,0,11.9-11.9V17.169a11.9,11.9,0,0,0-11.9-11.9" transform="translate(39.41 6.831)" fill="#ea5f21"/>
        <rect id="Rectángulo_351150" data-name="Rectángulo 351150" width="53.283" height="91.59" transform="translate(73.505 17.55)" fill="#808285"/>
        <rect id="Rectángulo_351151" data-name="Rectángulo 351151" width="53.283" height="91.59" transform="translate(130.901 17.55)" fill="#808285"/>
        <rect id="Rectángulo_351152" data-name="Rectángulo 351152" width="52.571" height="91.59" transform="translate(74.245 16.471)" fill="#fff"/>
        <rect id="Rectángulo_351153" data-name="Rectángulo 351153" width="52.573" height="91.59" transform="translate(130.873 16.471)" fill="#fff"/>
        <path id="Trazado_721011" data-name="Trazado 721011" d="M57.34,12.194c0,2.085-1.155,3.78-2.581,3.78s-2.583-1.695-2.583-3.78,1.157-3.777,2.583-3.777,2.581,1.692,2.581,3.777" transform="translate(67.63 10.91)" fill="#a7a9ac"/>
        <path id="Trazado_721012" data-name="Trazado 721012" d="M57.34,19.005c0,2.087-1.155,3.777-2.581,3.777s-2.583-1.69-2.583-3.777,1.157-3.777,2.583-3.777,2.581,1.692,2.581,3.777" transform="translate(67.63 19.738)" fill="#a7a9ac"/>
        <path id="Trazado_721013" data-name="Trazado 721013" d="M57.34,25.817c0,2.085-1.155,3.777-2.581,3.777s-2.583-1.692-2.583-3.777,1.157-3.777,2.583-3.777,2.581,1.69,2.581,3.777" transform="translate(67.63 28.568)" fill="#a7a9ac"/>
        <path id="Trazado_721014" data-name="Trazado 721014" d="M57.34,32.629c0,2.085-1.155,3.777-2.581,3.777s-2.583-1.692-2.583-3.777,1.157-3.78,2.583-3.78,2.581,1.692,2.581,3.78" transform="translate(67.63 37.394)" fill="#a7a9ac"/>
        <path id="Trazado_721015" data-name="Trazado 721015" d="M57.34,39.44c0,2.087-1.155,3.777-2.581,3.777s-2.583-1.69-2.583-3.777,1.157-3.78,2.583-3.78,2.581,1.695,2.581,3.78" transform="translate(67.63 46.222)" fill="#a7a9ac"/>
        <path id="Trazado_721016" data-name="Trazado 721016" d="M57.34,46.248c0,2.087-1.155,3.78-2.581,3.78s-2.583-1.692-2.583-3.78,1.157-3.777,2.583-3.777,2.581,1.692,2.581,3.777" transform="translate(67.63 55.05)" fill="#a7a9ac"/>
        <path id="Trazado_721017" data-name="Trazado 721017" d="M63.445,12.35c0,2.085-1.155,3.78-2.581,3.78s-2.583-1.695-2.583-3.78,1.157-3.78,2.583-3.78,2.581,1.692,2.581,3.78" transform="translate(75.543 11.108)" fill="#a7a9ac"/>
        <path id="Trazado_721018" data-name="Trazado 721018" d="M63.445,19.158c0,2.087-1.155,3.78-2.581,3.78s-2.583-1.692-2.583-3.78,1.157-3.777,2.583-3.777,2.581,1.692,2.581,3.777" transform="translate(75.543 19.937)" fill="#a7a9ac"/>
        <path id="Trazado_721019" data-name="Trazado 721019" d="M63.445,25.969c0,2.087-1.155,3.78-2.581,3.78s-2.583-1.692-2.583-3.78,1.157-3.777,2.583-3.777,2.581,1.692,2.581,3.777" transform="translate(75.543 28.765)" fill="#a7a9ac"/>
        <path id="Trazado_721020" data-name="Trazado 721020" d="M63.445,32.78c0,2.085-1.155,3.777-2.581,3.777s-2.583-1.692-2.583-3.777S59.438,29,60.864,29s2.581,1.69,2.581,3.777" transform="translate(75.543 37.593)" fill="#a7a9ac"/>
        <path id="Trazado_721021" data-name="Trazado 721021" d="M63.445,39.591c0,2.085-1.155,3.78-2.581,3.78s-2.583-1.695-2.583-3.78,1.157-3.777,2.583-3.777,2.581,1.69,2.581,3.777" transform="translate(75.543 46.422)" fill="#a7a9ac"/>
        <path id="Trazado_721022" data-name="Trazado 721022" d="M63.445,46.4c0,2.087-1.155,3.777-2.581,3.777s-2.583-1.69-2.583-3.777,1.157-3.78,2.583-3.78,2.581,1.695,2.581,3.78" transform="translate(75.543 55.249)" fill="#a7a9ac"/>
        <path id="Trazado_721023" data-name="Trazado 721023" d="M65.395,13.722H55.5a2.064,2.064,0,0,1,0-4.129h9.892a2.064,2.064,0,1,1,0,4.129" transform="translate(69.269 12.434)" fill="#808285"/>
        <path id="Trazado_721024" data-name="Trazado 721024" d="M65.395,20.426H55.5a2.064,2.064,0,0,1,0-4.129h9.892a2.064,2.064,0,1,1,0,4.129" transform="translate(69.269 21.124)" fill="#808285"/>
        <path id="Trazado_721025" data-name="Trazado 721025" d="M65.395,27.13H55.5A2.064,2.064,0,0,1,55.5,23h9.892a2.064,2.064,0,0,1,0,4.129" transform="translate(69.269 29.814)" fill="#808285"/>
        <path id="Trazado_721026" data-name="Trazado 721026" d="M65.395,33.836H55.5a2.065,2.065,0,0,1,0-4.131h9.892a2.065,2.065,0,0,1,0,4.131" transform="translate(69.269 38.503)" fill="#808285"/>
        <path id="Trazado_721027" data-name="Trazado 721027" d="M65.395,40.54H55.5a2.065,2.065,0,0,1,0-4.131h9.892a2.065,2.065,0,0,1,0,4.131" transform="translate(69.269 47.193)" fill="#808285"/>
        <path id="Trazado_721028" data-name="Trazado 721028" d="M65.395,47.244H55.5a2.065,2.065,0,0,1,0-4.131h9.892a2.065,2.065,0,0,1,0,4.131" transform="translate(69.269 55.882)" fill="#808285"/>
        <rect id="Rectángulo_351154" data-name="Rectángulo 351154" width="10.746" height="6.014" transform="translate(77.747 24.004)" fill="#ed1c24"/>
        <rect id="Rectángulo_351155" data-name="Rectángulo 351155" width="10.746" height="6.014" transform="translate(107.216 24.004)" fill="#bcbec0"/>
        <rect id="Rectángulo_351156" data-name="Rectángulo 351156" width="40.215" height="0.606" transform="translate(77.747 35.008)" fill="#bcbec0"/>
        <rect id="Rectángulo_351157" data-name="Rectángulo 351157" width="40.215" height="0.606" transform="translate(77.747 43.901)" fill="#bcbec0"/>
        <rect id="Rectángulo_351158" data-name="Rectángulo 351158" width="40.215" height="0.606" transform="translate(77.747 52.794)" fill="#bcbec0"/>
        <rect id="Rectángulo_351159" data-name="Rectángulo 351159" width="40.215" height="0.606" transform="translate(77.747 61.687)" fill="#bcbec0"/>
        <rect id="Rectángulo_351160" data-name="Rectángulo 351160" width="40.215" height="0.604" transform="translate(77.747 70.58)" fill="#bcbec0"/>
        <rect id="Rectángulo_351161" data-name="Rectángulo 351161" width="40.215" height="0.604" transform="translate(77.747 79.473)" fill="#bcbec0"/>
        <rect id="Rectángulo_351162" data-name="Rectángulo 351162" width="40.215" height="0.604" transform="translate(77.747 88.366)" fill="#bcbec0"/>
        <rect id="Rectángulo_351163" data-name="Rectángulo 351163" width="40.215" height="0.604" transform="translate(77.747 97.26)" fill="#bcbec0"/>
        <rect id="Rectángulo_351164" data-name="Rectángulo 351164" width="10.746" height="6.014" transform="translate(171.041 24.004)" fill="#ed1c24"/>
        <rect id="Rectángulo_351165" data-name="Rectángulo 351165" width="10.748" height="6.014" transform="translate(141.569 24.004)" fill="#bcbec0"/>
        <rect id="Rectángulo_351166" data-name="Rectángulo 351166" width="40.218" height="0.606" transform="translate(141.569 35.008)" fill="#bcbec0"/>
        <rect id="Rectángulo_351167" data-name="Rectángulo 351167" width="40.218" height="0.606" transform="translate(141.569 43.901)" fill="#bcbec0"/>
        <rect id="Rectángulo_351168" data-name="Rectángulo 351168" width="40.218" height="0.606" transform="translate(141.569 52.794)" fill="#bcbec0"/>
        <rect id="Rectángulo_351169" data-name="Rectángulo 351169" width="40.218" height="0.606" transform="translate(141.569 61.687)" fill="#bcbec0"/>
        <rect id="Rectángulo_351170" data-name="Rectángulo 351170" width="40.218" height="0.604" transform="translate(141.569 70.58)" fill="#bcbec0"/>
        <rect id="Rectángulo_351171" data-name="Rectángulo 351171" width="40.218" height="0.604" transform="translate(141.569 79.473)" fill="#bcbec0"/>
        <rect id="Rectángulo_351172" data-name="Rectángulo 351172" width="40.218" height="0.604" transform="translate(141.569 88.366)" fill="#bcbec0"/>
        <rect id="Rectángulo_351173" data-name="Rectángulo 351173" width="40.218" height="0.604" transform="translate(141.569 97.26)" fill="#bcbec0"/>
        <path id="Trazado_721029" data-name="Trazado 721029" d="M42.05,14.672h9.531V1.3L46.815,5.65l-4.838-4.4Z" transform="translate(54.41 1.621)" fill="#00a79d"/>
        <path id="Trazado_721030" data-name="Trazado 721030" d="M36.271,16.293H45.8V.064L41.038,5.341,36.2,0Z" transform="translate(46.921 0)" fill="#f9ed32"/>
        <path id="Trazado_721031" data-name="Trazado 721031" d="M73.257,43.279l-5.192-20.8,1.738-.537L73.65,37.36l8.344-20.875,1.644.817Z" transform="translate(88.225 21.368)" fill="#ed1c24"/>
        <path id="Trazado_721032" data-name="Trazado 721032" d="M138.812,86.354v74.621h24.7V77.785h-24.7v1.729l1.493.347Zm12.983,69.618-.225.009a6.255,6.255,0,1,1,0-12.51l.207.009a6.249,6.249,0,0,1,.018,12.491M141.462,81.656v-.225H161.68v57.338H141.462Z" transform="translate(179.926 100.824)" fill="#5ddff4"/>
        <path id="Trazado_721033" data-name="Trazado 721033" d="M147.629,106.76l-.041,0c-.051,0-.1-.007-.154-.007a5.429,5.429,0,1,0,0,10.859c.051,0,.1,0,.154,0l.041,0a5.425,5.425,0,0,0,0-10.843m-.03,10.032c-.055,0-.11.009-.165.009a4.62,4.62,0,0,1,0-9.24c.055,0,.11,0,.165.007a4.615,4.615,0,0,1,0,9.224" transform="translate(184.062 138.369)" fill="#5ddff4"/>
        <path id="Trazado_721034" data-name="Trazado 721034" d="M162.851,160.976h12.595V77.785h-25.52v83.191h12.925Zm.057-5-.223.009a6.255,6.255,0,0,1,0-12.51l.2.009a6.249,6.249,0,0,1,.018,12.491m-10.333-48.8V81.431H172.8v57.338h-20.22Z" transform="translate(194.332 100.824)" fill="#5ddff4"/>
        <path id="Trazado_721035" data-name="Trazado 721035" d="M158.744,106.76l-.041,0c-.051,0-.1-.007-.154-.007a5.429,5.429,0,1,0,0,10.859c.053,0,.1,0,.154,0l.041,0a5.425,5.425,0,0,0,0-10.843m-.03,10.032c-.055,0-.11.009-.165.009a4.62,4.62,0,1,1,0-9.24c.055,0,.11,0,.165.007a4.615,4.615,0,0,1,0,9.224" transform="translate(198.469 138.369)" fill="#5ddff4"/>
        <path id="Trazado_721036" data-name="Trazado 721036" d="M144.944,163.26l17.329-75.292.824-3.587.505-2.191-.505-.117-.824-.191-10.946-2.519-12.6-2.9-18.656,81.074,12.595,2.9ZM140.5,80.613l10.014,2.305,9.69,2.23-12.859,55.878-9.692-2.23-10.011-2.305Zm-10.767,72.144a6.254,6.254,0,0,1,6.707-9.417l.2.055a6.25,6.25,0,0,1-1.6,12.291,6.381,6.381,0,0,1-1.187-.113,2.129,2.129,0,0,1-.241-.048,6.185,6.185,0,0,1-3.878-2.769" transform="translate(155.638 99.111)" fill="#5ddff4"/>
        <path id="Trazado_721037" data-name="Trazado 721037" d="M128.588,116.632l.041.007a5.542,5.542,0,0,0,1.031.1,5.425,5.425,0,0,0,1.4-10.666l-.037-.011c-.051-.016-.1-.03-.149-.041a5.494,5.494,0,0,0-1.222-.14,5.431,5.431,0,0,0-1.212,10.723c.048.011.1.021.149.03m-3.435-6.358a4.621,4.621,0,0,1,5.538-3.467c.055.014.106.032.161.048a4.614,4.614,0,0,1-2.071,8.987c-.053-.012-.108-.016-.163-.03a4.617,4.617,0,0,1-3.465-5.538" transform="translate(161.016 137.239)" fill="#5ddff4"/>
        <rect id="Rectángulo_351174" data-name="Rectángulo 351174" width="115.781" height="6.652" transform="translate(266.872 263.515)" fill="#5ddff4"/>
        <rect id="Rectángulo_351175" data-name="Rectángulo 351175" width="16.516" height="2.452" transform="translate(348.556 188.356)" fill="#5ddff4"/>
        <rect id="Rectángulo_351176" data-name="Rectángulo 351176" width="16.516" height="2.452" transform="translate(348.556 192.609)" fill="#5ddff4"/>
        <rect id="Rectángulo_351177" data-name="Rectángulo 351177" width="16.519" height="2.452" transform="translate(323.239 188.356)" fill="#5ddff4"/>
        <rect id="Rectángulo_351178" data-name="Rectángulo 351178" width="16.519" height="2.452" transform="translate(323.239 192.609)" fill="#5ddff4"/>
        <rect id="Rectángulo_351179" data-name="Rectángulo 351179" width="2.453" height="16.518" transform="translate(296.013 187.919) rotate(-77.001)" fill="#5ddff4"/>
        <rect id="Rectángulo_351180" data-name="Rectángulo 351180" width="2.453" height="16.518" transform="translate(295.057 192.061) rotate(-76.993)" fill="#5ddff4"/>
        <path id="Trazado_721038" data-name="Trazado 721038" d="M254.487,62.993,167.634,43.912,95.3,57.289l111.73,25.283Z" transform="translate(123.523 56.918)" fill="#bcbec0"/>
        <path id="Trazado_721039" data-name="Trazado 721039" d="M254.181,61,167.328,41.92,94.991,55.3l111.73,25.283Z" transform="translate(123.126 54.337)" fill="#e6e7e8"/>
        <path id="Trazado_721040" data-name="Trazado 721040" d="M254.8,58.341,167.946,39.257,95.61,52.637,207.34,77.92Z" transform="translate(123.928 50.885)" fill="#bcbec0"/>
        <path id="Trazado_721041" data-name="Trazado 721041" d="M256.75,56.257,169.9,37.173,97.56,50.553,209.29,75.836Z" transform="translate(126.455 48.183)" fill="#e6e7e8"/>
        <path id="Trazado_721042" data-name="Trazado 721042" d="M255.458,54.663,168.6,35.58,96.268,48.959,208,74.243Z" transform="translate(124.781 46.118)" fill="#bcbec0"/>
        <path id="Trazado_721043" data-name="Trazado 721043" d="M257.433,52.431,170.58,33.35,98.243,46.73l111.73,25.283Z" transform="translate(127.341 43.228)" fill="#e6e7e8"/>
        <path id="Trazado_721044" data-name="Trazado 721044" d="M258.051,49.769,171.2,30.688,98.861,44.066l111.73,25.283Z" transform="translate(128.143 39.777)" fill="#bcbec0"/>
        <path id="Trazado_721045" data-name="Trazado 721045" d="M260,47.685,173.148,28.6,100.812,41.982l111.73,25.283Z" transform="translate(130.67 37.076)" fill="#e6e7e8"/>
        <path id="Trazado_721046" data-name="Trazado 721046" d="M260.493,45.75,173.64,26.669,101.3,40.048l111.73,25.283Z" transform="translate(131.307 34.567)" fill="#bcbec0"/>
        <path id="Trazado_721047" data-name="Trazado 721047" d="M201.766,50.63,117.944,31.818l-6.7,1.332,85.71,19.29Z" transform="translate(144.189 41.242)" fill="#a7a9ac"/>
        <path id="Trazado_721048" data-name="Trazado 721048" d="M203.325,48.689,122.986,30.751l-6.126,1.217,82.073,18.374Z" transform="translate(151.472 39.859)" fill="#a7a9ac"/>
        <path id="Trazado_721049" data-name="Trazado 721049" d="M204.758,46.914,127.622,29.773,122,30.889l78.734,17.538Z" transform="translate(158.133 38.592)" fill="#a7a9ac"/>
        <path id="Trazado_721050" data-name="Trazado 721050" d="M206.076,45.285,131.9,28.874,126.72,29.9l75.655,16.776Z" transform="translate(164.253 37.427)" fill="#a7a9ac"/>
        <path id="Trazado_721051" data-name="Trazado 721051" d="M207.292,43.784l-71.437-15.74-4.783.951,72.8,16.076Z" transform="translate(169.894 36.349)" fill="#a7a9ac"/>
        <path id="Trazado_721052" data-name="Trazado 721052" d="M96.46,35.655l69.815,15.8L148.719,25.99Z" transform="translate(125.03 33.688)" fill="#e2e4e8"/>
        <path id="Trazado_721053" data-name="Trazado 721053" d="M153.04,26.043c-7.853,5.063-18.326,4.133-26.666-.629l-7.155,1.323L136.776,52.2l41.915,9.483L226.15,42.1Z" transform="translate(154.53 32.941)" fill="#d2d3d7"/>
        <path id="Trazado_721054" data-name="Trazado 721054" d="M149,27.392l-13.743-3.019-12.923,2.39c8.34,4.762,18.813,5.692,26.666.629" transform="translate(158.569 31.592)" fill="#e2e4e8"/>
        <path id="Trazado_721055" data-name="Trazado 721055" d="M169.408,45.9l4.815-1.809L123.912,32.8l2.338,3.389Z" transform="translate(160.612 42.511)" fill="#bdbec3"/>
        <path id="Trazado_721056" data-name="Trazado 721056" d="M146.614,37.042,113.1,29.522l-6.7,1.329,42.553,9.58Z" transform="translate(137.912 38.266)" fill="#cdcfd4"/>
        <path id="Trazado_721057" data-name="Trazado 721057" d="M185.476,44.262,122.053,30.1l2.119,3.075,56.909,12.739Z" transform="translate(158.203 39.015)" fill="#bdbec3"/>
        <path id="Trazado_721058" data-name="Trazado 721058" d="M118.143,28.455l-6.126,1.217L137.181,35.3l-2.119-3.072Z" transform="translate(145.194 36.883)" fill="#cdcfd4"/>
        <path id="Trazado_721059" data-name="Trazado 721059" d="M122.78,27.478l-5.623,1.116,9.288,2.071-1.931-2.8Z" transform="translate(151.856 35.616)" fill="#cdcfd4"/>
        <path id="Trazado_721060" data-name="Trazado 721060" d="M195.762,44.4l-75.4-16.755,1.931,2.8,69.446,15.467Z" transform="translate(156.009 35.833)" fill="#bdbec3"/>
        <path id="Trazado_721061" data-name="Trazado 721061" d="M127.056,26.578,121.878,27.6,197.53,44.38l3.7-1.391Z" transform="translate(157.976 34.45)" fill="#bdbec3"/>
        <path id="Trazado_721062" data-name="Trazado 721062" d="M131.012,25.747l-4.783.951,72.805,16.076,3.414-1.286Z" transform="translate(163.617 33.373)" fill="#bdbec3"/>
        <path id="Trazado_721063" data-name="Trazado 721063" d="M157.878,29.6l-.305,2.388a1.7,1.7,0,0,1-1.917,1.437l-2.4-.31.519-4.044Z" transform="translate(198.642 37.679)" fill="#9ba6b1"/>
        <path id="Trazado_721064" data-name="Trazado 721064" d="M156.336,27.822a1.692,1.692,0,0,1,1.493,1.871l-.243,1.917-4.108-.526.457-3.571Z" transform="translate(198.935 35.663)" fill="#bcbec0"/>
        <path id="Trazado_721065" data-name="Trazado 721065" d="M120.7,26.729l-.34-.046.011-.113Z" transform="translate(156.007 34.44)" fill="#ea5f21"/>
        <path id="Trazado_721066" data-name="Trazado 721066" d="M121.13,23.348l-.354.069.014-.113Z" transform="translate(156.549 30.207)" fill="#f9773d"/>
        <path id="Trazado_721067" data-name="Trazado 721067" d="M186.793,33.3l5.972.765-.517,4.044-4.266-.549-67.476-8.634.517-4.046Z" transform="translate(156.199 32.246)" fill="#ea5f21"/>
        <path id="Trazado_721068" data-name="Trazado 721068" d="M188.663,31.961l4.266.544-.457,3.573-5.97-.765-65.77-8.42.455-3.571Z" transform="translate(156.492 30.231)" fill="#f9773d"/>
        <path id="Trazado_721069" data-name="Trazado 721069" d="M155.151,27.669l.728.094-.457,3.571-.728-.092-2.719-.349.457-3.571Z" transform="translate(196.988 35.415)" fill="#20b7ea"/>
        <path id="Trazado_721070" data-name="Trazado 721070" d="M154.984,29.225l.728.092L155.2,33.36l-.73-.092-2.714-.349.514-4.041Z" transform="translate(196.698 37.431)" fill="#07a6db"/>
        <path id="Trazado_721071" data-name="Trazado 721071" d="M123.093,25.126l-.342,2.677-7.006-3.378.737-.145Z" transform="translate(150.027 31.473)" fill="#42454c"/>
        <path id="Trazado_721072" data-name="Trazado 721072" d="M122.677,25.892l-6.611-.845,6.893-1.357Z" transform="translate(150.443 30.707)" fill="#58595b"/>
        <path id="Trazado_721073" data-name="Trazado 721073" d="M122.9,25.132l.34.044-.517,4.044-.328-.158-3.6-1.734.342-2.677Z" transform="translate(153.982 31.95)" fill="#e8cb37"/>
        <path id="Trazado_721074" data-name="Trazado 721074" d="M123.15,23.392l.354-.069-.455,3.568-.34-.041-3.763-.482.282-2.2Z" transform="translate(154.175 30.232)" fill="#f7dc54"/>
        <path id="Trazado_721075" data-name="Trazado 721075" d="M125.155,32.9c1.421.386,3.637.987,7.575,2.05q.3-2.638.59-5.277c-4.076.165-6.37.259-7.839.324Z" transform="translate(162.224 38.464)" fill="#20b7ea"/>
        <path id="Trazado_721076" data-name="Trazado 721076" d="M159.672,31.982l8.055.9-5.116,9.261-5.816-.65Z" transform="translate(203.235 41.455)" fill="#20b7ea"/>
        <path id="Trazado_721077" data-name="Trazado 721077" d="M148.3,40.975l1.141-10.186c-1.015-.085-2.016-.163-3.013-.241l-1.121,10q1.484.217,2.992.429" transform="translate(188.345 39.596)" fill="#414042"/>
        <path id="Trazado_721078" data-name="Trazado 721078" d="M164.771,31.573c-10.482-.73-20.753-1.134-35.814-2.023l-.648,5.784c14.884,2.466,24.989,4.344,35.373,5.949Z" transform="translate(166.313 38.302)" fill="#58595b"/>
        <path id="Trazado_721079" data-name="Trazado 721079" d="M178.7,37.642a3.342,3.342,0,0,0-1.171-3.32c-1.883-1.821-5.681-2.93-11.283-3.3-11.21-.921-25.141-2.811-25.279-2.829,0,0,1.752,4.76,7.727,3.364,3.943.45,20.716,2.953,20.882,2.976a4.072,4.072,0,0,1,1.86.827c.328.319.687.873-.032,1.984-.592.914-.393,1.419-.122,1.681,1.084,1.049,5.766-.6,7.176-1.137l.181-.067Z" transform="translate(182.713 36.55)" fill="#58595b"/>
        <path id="Trazado_721080" data-name="Trazado 721080" d="M147.372,40.7l1.118-10c-1.238-.094-2.461-.184-3.685-.269l-1.088,9.713c1.212.188,2.427.372,3.656.553" transform="translate(186.283 39.443)" fill="#20b7ea"/>
        <path id="Trazado_721081" data-name="Trazado 721081" d="M172.413,43.753q.575-5.115,1.148-10.234c-10.308-1.375-18.36-2.241-25.809-2.866l-1.141,10.184c7.4,1.04,15.446,1.977,25.8,2.916" transform="translate(190.035 39.732)" fill="#58595b"/>
        <path id="Trazado_721082" data-name="Trazado 721082" d="M127.769,29.816a9.753,9.753,0,0,0-4.379.978,12.607,12.607,0,0,0,4.053,1.924q.162-1.453.326-2.9" transform="translate(159.936 38.647)" fill="#414042"/>
        <path id="Trazado_721083" data-name="Trazado 721083" d="M101.046,170.847H80.881V82.421l20.165,20.165Z" transform="translate(104.837 106.832)" fill="#06968d"/>
        <path id="Trazado_721084" data-name="Trazado 721084" d="M80.881,116.577V56.07h20.165v80.672Z" transform="translate(104.837 72.677)" fill="#07b3a8"/>
        <path id="Trazado_721085" data-name="Trazado 721085" d="M89.663,136.742V56.07h19.651V156.39Z" transform="translate(116.22 72.677)" fill="#089a8b"/>
        <path id="Trazado_721086" data-name="Trazado 721086" d="M109.313,159.464H89.663V91.2l19.651,19.648Z" transform="translate(116.219 118.215)" fill="#077d71"/>
        <path id="Trazado_721087" data-name="Trazado 721087" d="M82.683,117.027V58.913H98.71v74.144Z" transform="translate(107.172 76.362)" fill="#fff"/>
        <path id="Trazado_721088" data-name="Trazado 721088" d="M98.71,128.757H82.683V84.222l16.027,16.03Z" transform="translate(107.173 109.167)" fill="#d9d9d9"/>
        <path id="Trazado_721089" data-name="Trazado 721089" d="M105.176,119.708H89.663V91.2l15.513,15.513Z" transform="translate(116.22 118.216)" fill="#c6c7c7"/>
        <path id="Trazado_721090" data-name="Trazado 721090" d="M89.663,133.057V58.913h15.513V148.57Z" transform="translate(116.22 76.362)" fill="#e2e3e4"/>
        <path id="Trazado_721091" data-name="Trazado 721091" d="M94.636,107.943c4.581.186,8.17,4.448,8.17,9.706s-3.589,9.518-8.17,9.7l-.064,0c-.078.007-.158.011-.239.011-4.67,0-8.471-4.36-8.471-9.72s3.8-9.722,8.471-9.722c.08,0,.161,0,.239.011Z" transform="translate(111.293 139.893)" fill="#515254"/>
        <path id="Trazado_721092" data-name="Trazado 721092" d="M93.878,125.086c-.085,0-.17.016-.257.016-3.982,0-7.21-3.7-7.21-8.273s3.228-8.271,7.21-8.271c.087,0,.172.014.257.016Z" transform="translate(112.005 140.711)" fill="#d9d9d9"/>
        <path id="Trazado_721093" data-name="Trazado 721093" d="M96.611,116.821c0,4.468-3.088,8.1-6.948,8.257V108.564c3.86.158,6.948,3.791,6.948,8.257" transform="translate(116.22 140.719)" fill="#c6c7c7"/>
        <rect id="Rectángulo_351181" data-name="Rectángulo 351181" width="19.906" height="7.913" transform="translate(195.8 143.727)" fill="#c4c6cf"/>
        <path id="Trazado_721094" data-name="Trazado 721094" d="M118.694,143.489H98.529V100.069l20.165,20.165Z" transform="translate(127.711 129.707)" fill="#ce7f12"/>
        <path id="Trazado_721095" data-name="Trazado 721095" d="M98.528,159.628V54.118h20.165V179.793Z" transform="translate(127.711 70.147)" fill="#eb9114"/>
        <path id="Trazado_721096" data-name="Trazado 721096" d="M126.961,132.106H107.31V108.851L126.961,128.5Z" transform="translate(139.094 141.09)" fill="#b77016"/>
        <path id="Trazado_721097" data-name="Trazado 721097" d="M107.311,179.793V54.119h19.651V199.442Z" transform="translate(139.094 70.148)" fill="#d4811a"/>
        <path id="Trazado_721098" data-name="Trazado 721098" d="M100.33,56.961h16.027V159.61H100.33V56.961Z" transform="translate(130.046 73.832)" fill="#f5f6f6"/>
        <path id="Trazado_721099" data-name="Trazado 721099" d="M107.311,56.961h15.513V159.61H107.311V56.961Z" transform="translate(139.094 73.832)" fill="#e2e3e4"/>
        <path id="Trazado_721100" data-name="Trazado 721100" d="M112.283,124.474l-.062,0c-.08.007-.161.011-.241.011-4.67,0-8.471-4.36-8.471-9.722a10.162,10.162,0,0,1,3.768-8.078L119.6,119.014a8.466,8.466,0,0,1-7.316,5.46" transform="translate(134.167 138.29)" fill="#515254"/>
        <path id="Trazado_721101" data-name="Trazado 721101" d="M105.15,107.616a7.672,7.672,0,0,1,4.7-1.642c.08,0,.158.007.239.011l.064,0c4.581.186,8.168,4.448,8.168,9.7a10.886,10.886,0,0,1-.852,4.246Z" transform="translate(136.294 137.362)" fill="#6d6e71"/>
        <path id="Trazado_721102" data-name="Trazado 721102" d="M111.527,122.464c-.087,0-.172.016-.259.016-3.979,0-7.21-3.7-7.21-8.273a8.578,8.578,0,0,1,3.5-7.084l3.968,3.968Z" transform="translate(134.878 138.851)" fill="#d9d9d9"/>
        <path id="Trazado_721103" data-name="Trazado 721103" d="M105.584,107.793a6.483,6.483,0,0,1,3.706-1.187c.087,0,.172.011.259.014v5.139Z" transform="translate(136.856 138.181)" fill="#f5f6f6"/>
        <path id="Trazado_721104" data-name="Trazado 721104" d="M107.311,120.224V108.851l6.365,6.365a7.3,7.3,0,0,1-6.365,5.008" transform="translate(139.095 141.091)" fill="#c6c7c7"/>
        <path id="Trazado_721105" data-name="Trazado 721105" d="M107.311,111.752v-5.139c3.862.158,6.946,3.789,6.946,8.255a9.255,9.255,0,0,1-.581,3.251Z" transform="translate(139.095 138.19)" fill="#e2e3e4"/>
        <rect id="Rectángulo_351182" data-name="Rectángulo 351182" width="19.908" height="7.913" transform="translate(236.452 139.243)" fill="#c4c6cf"/>
        <path id="Trazado_721106" data-name="Trazado 721106" d="M46.146,58.252V56.07H66.311V205H46.146Z" transform="translate(59.813 72.678)" fill="#f9ed32"/>
        <path id="Trazado_721107" data-name="Trazado 721107" d="M54.928,81.393V56.071H74.578V205H54.928Z" transform="translate(71.196 72.678)" fill="#e0ce2f"/>
        <path id="Trazado_721108" data-name="Trazado 721108" d="M47.947,59.315v-.4H63.975V161.561H47.947Z" transform="translate(62.149 76.362)" fill="#fff"/>
        <path id="Trazado_721109" data-name="Trazado 721109" d="M54.928,77.709v-18.8H70.441V161.561H54.928Z" transform="translate(71.196 76.362)" fill="#ebedf2"/>
        <path id="Trazado_721110" data-name="Trazado 721110" d="M59.6,127.369c-4.67,0-8.471-4.36-8.471-9.72s3.8-9.722,8.471-9.722c.08,0,.158,0,.239.011l.064,0c4.581.186,8.168,4.45,8.168,9.706s-3.587,9.518-8.168,9.7l-.064,0c-.08.007-.158.011-.239.011" transform="translate(66.269 139.893)" fill="#a8a9b2"/>
        <path id="Trazado_721111" data-name="Trazado 721111" d="M51.676,116.829c0,4.666,3.369,8.432,7.467,8.266V108.563c-4.1-.165-7.467,3.6-7.467,8.266" transform="translate(66.982 140.711)" fill="#f4f9fb"/>
        <path id="Trazado_721112" data-name="Trazado 721112" d="M54.928,108.564v16.512c3.862-.156,6.948-3.786,6.948-8.255s-3.086-8.1-6.948-8.257" transform="translate(71.197 140.719)" fill="#ebedf2"/>
        <rect id="Rectángulo_351183" data-name="Rectángulo 351183" width="19.908" height="7.913" transform="translate(116.04 143.727)" fill="#c4c6cf"/>
        <path id="Trazado_721113" data-name="Trazado 721113" d="M83.54,104.611v77.921H63.372V64.912L83.54,85.077Z" transform="translate(82.142 84.138)" fill="#ce3e3e"/>
        <path id="Trazado_721114" data-name="Trazado 721114" d="M63.372,82.588V51.275H83.539v51.478Z" transform="translate(82.142 66.462)" fill="#eb4747"/>
        <path id="Trazado_721115" data-name="Trazado 721115" d="M91.8,115.774v55.372H72.155V73.694L91.8,93.343Z" transform="translate(93.526 95.522)" fill="#b73939"/>
        <path id="Trazado_721116" data-name="Trazado 721116" d="M72.155,102.753V51.275H91.8V122.4Z" transform="translate(93.527 66.462)" fill="#d44242"/>
        <path id="Trazado_721117" data-name="Trazado 721117" d="M81.205,102.275v38.167H65.173V66.714L81.205,82.741Z" transform="translate(84.477 86.474)" fill="#d9d9d9"/>
        <path id="Trazado_721118" data-name="Trazado 721118" d="M65.174,83.041V54.118H81.206v44.95Z" transform="translate(84.477 70.147)" fill="#f5f6f6"/>
        <path id="Trazado_721119" data-name="Trazado 721119" d="M87.666,111.028v20.367H72.155v-57.7L87.666,89.207Z" transform="translate(93.526 95.521)" fill="#c6c7c7"/>
        <path id="Trazado_721120" data-name="Trazado 721120" d="M72.155,99.068V54.118H87.666v60.463Z" transform="translate(93.527 70.147)" fill="#e2e3e4"/>
        <path id="Trazado_721121" data-name="Trazado 721121" d="M77.129,103.15c4.579.186,8.168,4.448,8.168,9.7s-3.589,9.518-8.17,9.7l-.062.007c-.078,0-.161.011-.241.011-4.67,0-8.471-4.36-8.471-9.722s3.8-9.722,8.471-9.722c.08,0,.163.007.241.014Z" transform="translate(88.598 133.678)" fill="#515254"/>
        <path id="Trazado_721122" data-name="Trazado 721122" d="M76.37,120.29c-.087,0-.172.016-.259.016-3.982,0-7.208-3.7-7.208-8.271s3.226-8.271,7.208-8.271c.087,0,.172.011.259.014Z" transform="translate(89.311 134.497)" fill="#d9d9d9"/>
        <path id="Trazado_721123" data-name="Trazado 721123" d="M79.1,112.027c0,4.466-3.091,8.1-6.948,8.255V103.77c3.858.158,6.948,3.789,6.948,8.257" transform="translate(93.528 134.505)" fill="#c6c7c7"/>
        <rect id="Rectángulo_351184" data-name="Rectángulo 351184" width="19.908" height="7.913" transform="translate(155.727 132.717)" fill="#c4c6cf"/>
        <path id="Trazado_721124" data-name="Trazado 721124" d="M77.455,183.817c.344.083,1.279-.429,1.6-.535l3.088-1.047c3.132-1.049,3.1.282,6.22-.772,7.619-2.56,14.831-6.31,22.436-8.875l8.413-2.84c.491-.163,2.845-.608,3.045-1.093.122-.264-.308-1.256-.358-1.538-.078-.342-.292-1.44-.521-2.781a46.141,46.141,0,0,1-.749-6.521c.037-.99,3.922-19.031,3.405-21.21-.641-2.625-1.775-5.242-2.638-7.825l-3.637-10.792c-.273-.8-.491-1.681-.831-2.462-1.059-2.351-2.971-4.468-5.46-4.836-1.55-.232-3.773.278-4.7,1.775-.732,1.2-.416,2.861-.234,4.177a26.9,26.9,0,0,0,1.573,5.515c.866,2.3.528,3.435-.124,3.215-.912-.285-1.242-2.514-1.5-3.251l-16.735-49.7c-.48-1.405-.852-2.948-1.458-4.308A2.6,2.6,0,0,0,87.1,66.945a3.345,3.345,0,0,0-.416-.209c-.016-.012-.044-.016-.062-.028a9.293,9.293,0,0,0-.983-.347,7.235,7.235,0,0,0-7.929,2.6,8.088,8.088,0,0,0-.572.82l-.028.051a4.151,4.151,0,0,0-.471,1.116,2.686,2.686,0,0,0,.037,1.4c.248.808.537,1.58.8,2.383,1.02,3.015,11.931,34.7,12.305,36.516.3,1.428-1.212,1.83-1.8.544a39.045,39.045,0,0,1-1.378-4.078c-.625-1.858-2.553-8.119-3.346-9.068-2.2-2.576-7.316-1.509-9.2.944a5.8,5.8,0,0,0-.687,5.5l1.761,5.24a32.245,32.245,0,0,1,1.348,4c.239,1.268-.524,1.552-1.6,1.318-.985-.216-2.99-5.107-3.543-6.751a6.874,6.874,0,0,0-3.734-4.574,6.335,6.335,0,0,0-7.554,2.452c-1.242,1.741-.859,3.373-.241,5.2s3.394,8.581,1.908,9.176c-.65.273-1.639-1.933-1.908-2.553a5.491,5.491,0,0,0-6.765-3.091,6.384,6.384,0,0,0-4.014,4.948.035.035,0,0,0,0-.021.3.3,0,0,0-.03.161.243.243,0,0,0-.016.11c-.009.016,0,.023-.016.041l.011.016c.158,1.571,6.292,19,8.735,26.234l2.714,8.08c1.185,3.5,4.117,6.395,6.944,8.652a88.093,88.093,0,0,1,5.513,7.366c.163.273,1.823,5.148,2.985,8.569.478,1.431.884,2.6,1.049,3.1.142.429.181.978.526,1.061" transform="translate(63.485 85.599)" fill="#eab38b"/>
        <rect id="Rectángulo_351185" data-name="Rectángulo 351185" width="55.338" height="10.818" transform="translate(135.809 266.462) rotate(-18.618)" fill="#fff"/>
        <path id="Trazado_721125" data-name="Trazado 721125" d="M65.9,156.037,57.21,133.3l65.7-22.135,14.37,44.872Z" transform="translate(74.155 144.09)" fill="#58595b"/>
        <path id="Trazado_721126" data-name="Trazado 721126" d="M68.647,77.8c2.728-.5,4.152-3.819,3.171-7.382l-.829-2.974a7.414,7.414,0,0,0-.246-.732,9.478,9.478,0,0,0-.983-.347,7.238,7.238,0,0,0-7.929,2.595,7.659,7.659,0,0,0-.572.822l-.03.051.664,2.374c.992,3.566,4.034,6.078,6.753,5.594" transform="translate(79.365 85.599)" fill="#f2c4a5"/>
      </g>
    </g>
  </g>
</svg>
