<svg xmlns="http://www.w3.org/2000/svg" xmlns:xlink="http://www.w3.org/1999/xlink" width="169" height="169" viewBox="0 0 169 169">
  <defs>
    <clipPath id="clip-path">
      <rect id="Rect치ngulo_351402" data-name="Rect치ngulo 351402" width="131" height="132" fill="none"/>
    </clipPath>
  </defs>
  <g id="Grupo_1018519" data-name="Grupo 1018519" transform="translate(3915.999 5588.44)">
    <g id="Grupo_1018400" data-name="Grupo 1018400" transform="translate(-4653 -7646.44)">
      <g id="Grupo_159183" data-name="Grupo 159183" transform="translate(737.001 2058)">
        <path id="Uni칩n_12" data-name="Uni칩n 12" d="M84.5,0A84.5,84.5,0,1,1,0,84.5,84.5,84.5,0,0,1,84.5,0Z" fill="#cda7ff"/>
      </g>
    </g>
    <g id="Grupo_1018412" data-name="Grupo 1018412" transform="translate(-3901 -5570)">
      <g id="Grupo_1018411" data-name="Grupo 1018411" clip-path="url(#clip-path)">
        <path id="Trazado_721766" data-name="Trazado 721766" d="M83.7,20.3a19.558,19.558,0,0,0,3.848-3.373c1.437,1.254,2.589.517,3.84-.433a43.119,43.119,0,0,1,24.857-8.857C145.79,6.386,168.261,34.877,160.3,63.545A43.978,43.978,0,0,1,94.963,89.717c-3.731-2.258-5.277-2.088-8.3.938-2.477,2.482-4.982,4.938-7.394,7.482-.921.972-1.55,1.314-2.6.129-1.529-1.726-3.185-3.346-4.873-4.918-.962-.9-.985-1.5-.013-2.433,2.651-2.546,5.216-5.184,7.8-7.8,2.693-2.731,2.9-4.508,1-7.758a42.06,42.06,0,0,1-2.337-4.271Q67.473,46.516,83.1,24.724c1.015-1.408,2.334-2.681.6-4.427m71.374,31.671A37.2,37.2,0,1,0,117.8,89.344a37.23,37.23,0,0,0,37.281-37.376" transform="translate(-34.675 -3.678)" fill="#c1ced8"/>
        <path id="Trazado_721767" data-name="Trazado 721767" d="M49.029,16.619c1.73,1.746.411,3.018-.6,4.427Q32.741,42.808,43.57,67.405a42.06,42.06,0,0,0,2.336,4.271c1.9,3.25,1.7,5.027-1,7.758-2.582,2.619-5.147,5.256-7.8,7.8-.971.933-.948,1.538.014,2.434,1.688,1.571,3.344,3.191,4.873,4.917,1.049,1.185,1.677.842,2.6-.129,2.412-2.544,4.917-5,7.394-7.482,3.019-3.026,4.566-3.2,8.3-.938a43.979,43.979,0,0,0,65.339-26.172C133.587,31.2,111.116,2.708,81.574,3.957a43.118,43.118,0,0,0-24.856,8.857c-1.251.949-2.4,1.686-3.84.433-.6-1.571.14-2.515,1.35-3.461C81.678-11.686,123.457,4.1,130.059,38.454c5.228,27.2-11.817,52.469-38.806,57.249A45.851,45.851,0,0,1,58.6,89.467c-1.872-1.137-2.914-.952-4.3.579-2.238,2.472-4.635,4.8-7.046,7.107-.969.926-1.26,1.572-.166,2.644a1.89,1.89,0,0,1-.2,2.78c-1.564,1.676-3.335,3.006-3.47,5.792-.06,1.24-1.927,2.5-3.153,3.544-1.636,1.387-2.566,4.1-5.592,3.2-.34-.1-1.005.817-1.485,1.3-4.587,4.61-9.2,9.2-13.73,13.864A5,5,0,0,1,15.438,132c-4.176-.113-8.357-.09-12.535-.014-2.073.038-2.932-.8-2.894-2.9Q.124,122.644,0,116.2a4.559,4.559,0,0,1,1.529-3.6c4.684-4.634,9.3-9.334,13.94-14.016.751-.759,1.715-1.332,1.161-2.785-.312-.819.475-1.565,1.1-2.182,1.457-1.447,2.9-2.91,4.344-4.37.852-.862,1.645-1.628,3.094-1.278s1.92-1.188,2.727-1.948c1.5-1.413,2.822-2.979,4.878-.826.686.719,1.06-.083,1.419-.438,2.734-2.71,5.388-5.5,8.173-8.159,1.307-1.247.681-2.219-.014-3.366A47.256,47.256,0,0,1,35.4,46.263,47.957,47.957,0,0,1,45.653,18.27c.864-1.115,1.721-2.2,3.376-1.651m-21.6,88.441a2.743,2.743,0,0,1-3.419-.852c-.909-1.02-1.984-1.894-2.863-2.937-.954-1.133-1.612-1.337-2.788-.107-4.315,4.509-8.748,8.906-13.176,13.3a3.728,3.728,0,0,0-1.218,2.946c.066,2.83.085,5.664,0,8.493-.048,1.537.437,2.155,2.03,2.1,2.894-.1,5.794-.083,8.689,0a3.659,3.659,0,0,0,2.863-1.377c4.018-4.084,8.068-8.135,12.1-12.207,1.124-1.136,2.867-2.1.985-4.048-.538-.557.139-1.295.216-1.955,2-1.227,3.17.153,4.3,1.446,1.211,1.385,1.825.073,2.31-.6.547-.759,2.611-1.106,1.037-2.7-4.381-4.428-8.792-8.827-13.155-13.273-1.567-1.6-1.96.328-2.7.907s-2.025,1.224-.569,2.529c1.585,1.421,2.972,3.064,4.542,4.5,1.231,1.129,1.712,2.3.817,3.826m15.163-4.122a3.128,3.128,0,0,0-.382-.629Q36.888,94.923,31.55,89.554c-.954-.961-1.469-.048-2.1.481-.755.634-.754,1.164-.032,1.88,3.463,3.433,6.879,6.914,10.328,10.361.381.381.764,1.105,1.456.468.549-.505,1.247-.922,1.388-1.805" transform="translate(0 0)" fill="#070707"/>
        <path id="Trazado_721768" data-name="Trazado 721768" d="M33.593,61.912c-3.9-1.076-8.388-1.723-12.524-3.5a5.108,5.108,0,0,1-2.455-6.548A5.249,5.249,0,0,1,24.646,48.3c3.715.858,7.415,1.812,11.064,2.915a5.246,5.246,0,0,1,3.622,6.013,5.65,5.65,0,0,1-5.739,4.679m-.425-4.06c1.242.166,2.036-.05,2.308-1.062a1.486,1.486,0,0,0-1.156-1.958Q29.3,53.467,24.246,52.219a1.457,1.457,0,0,0-1.983,1.08,1.5,1.5,0,0,0,1.14,1.967c3.348.911,6.708,1.779,9.767,2.585" transform="translate(-8.911 -23.334)" fill="#090708"/>
        <path id="Trazado_721769" data-name="Trazado 721769" d="M24.833,101.316c-1.53.111-3.059.252-4.59.326a5.547,5.547,0,0,1-6.133-4.9A5.471,5.471,0,0,1,19.1,90.7c3.643-.37,7.311-.568,10.973-.642a5.448,5.448,0,0,1,.624,10.864c-1.945.229-3.906.333-5.859.492l-.008-.1m1.379-7.171c0-.023,0-.046-.006-.069-2.118.167-4.236.347-6.355.5-1.073.076-1.84.477-1.78,1.689a1.454,1.454,0,0,0,1.707,1.483c3.48-.182,6.96-.37,10.434-.632A1.49,1.49,0,0,0,31.62,95.32a1.416,1.416,0,0,0-1.587-1.334c-1.274,0-2.548.1-3.822.159" transform="translate(-6.868 -43.616)" fill="#090707"/>
        <path id="Trazado_721770" data-name="Trazado 721770" d="M55.3,19.926a5.316,5.316,0,0,1-7.795,4.792,106.933,106.933,0,0,1-9.894-6.348,5.334,5.334,0,0,1-1.285-7.145A5.291,5.291,0,0,1,43.479,9.3c3.31,1.926,6.5,4.061,9.689,6.2A4.905,4.905,0,0,1,55.3,19.926M41.244,12.5A1.661,1.661,0,0,0,39.5,13.553c-.387.981.154,1.623.933,2.125,2.717,1.751,5.423,3.518,8.156,5.243.935.59,1.958.836,2.65-.333.721-1.219-.156-1.9-1.046-2.477q-3.96-2.57-7.945-5.1a10.366,10.366,0,0,0-1.006-.515" transform="translate(-17.32 -4.168)" fill="#070506"/>
        <path id="Trazado_721771" data-name="Trazado 721771" d="M164.238,58.387a37.2,37.2,0,1,1-37.112-37.538,37.245,37.245,0,0,1,37.112,37.538m-20-28.718c-.195-.459-.623-.536-1.034-.642a29.541,29.541,0,0,0-18.563-4.245c-19.946,1.9-33.3,18.582-30.531,38.545,1.613,11.607,8.017,20.126,18.663,25.206a28.431,28.431,0,0,0,16.52,3.308c20.012-1.845,33.379-18.485,30.7-38.52a31.186,31.186,0,0,0-15.777-23.67Z" transform="translate(-43.836 -10.097)" fill="#060607"/>
        <path id="Trazado_721772" data-name="Trazado 721772" d="M34.611,202.641c-.076.661-.753,1.4-.216,1.955,1.882,1.951.14,2.912-.984,4.048-4.03,4.072-8.081,8.123-12.1,12.207a3.659,3.659,0,0,1-2.863,1.377c-2.895-.081-5.8-.1-8.69,0-1.593.055-2.078-.563-2.029-2.1.089-2.829.07-5.663,0-8.493a3.728,3.728,0,0,1,1.218-2.946c4.429-4.4,8.86-8.8,13.176-13.3,1.176-1.229,1.834-1.026,2.788.107.879,1.043,1.954,1.917,2.863,2.937a2.744,2.744,0,0,0,3.419.851l3.413,3.358" transform="translate(-3.77 -94.224)" fill="#796d78"/>
        <path id="Trazado_721773" data-name="Trazado 721773" d="M51.232,195.454,47.82,192.1c.9-1.53.414-2.7-.817-3.826-1.57-1.44-2.957-3.083-4.542-4.5-1.455-1.305-.179-1.941.569-2.529s1.128-2.5,2.7-.907c4.363,4.446,8.773,8.845,13.155,13.273,1.574,1.591-.49,1.938-1.037,2.7-.484.672-1.1,1.984-2.31.6-1.131-1.293-2.3-2.673-4.3-1.446" transform="translate(-20.392 -87.036)" fill="#beccd5"/>
        <path id="Trazado_721774" data-name="Trazado 721774" d="M70.107,184.648c-.141.883-.839,1.3-1.388,1.805-.692.637-1.075-.087-1.456-.468-3.449-3.447-6.865-6.927-10.328-10.361-.722-.716-.724-1.246.032-1.88.63-.529,1.145-1.442,2.1-.481q5.333,5.374,10.659,10.755a3.127,3.127,0,0,1,.382.629" transform="translate(-27.516 -83.71)" fill="#736772"/>
        <path id="Trazado_721775" data-name="Trazado 721775" d="M36.917,61.576C33.858,60.77,30.5,59.9,27.15,58.991a1.5,1.5,0,0,1-1.14-1.967,1.457,1.457,0,0,1,1.983-1.08q5.054,1.242,10.076,2.613a1.486,1.486,0,0,1,1.156,1.958c-.272,1.012-1.066,1.228-2.308,1.062" transform="translate(-12.66 -27.058)" fill="#f25f6a"/>
        <path id="Trazado_721776" data-name="Trazado 721776" d="M30.015,97.835c1.274-.058,2.548-.157,3.822-.159a1.416,1.416,0,0,1,1.587,1.334,1.49,1.49,0,0,1-1.408,1.795c-3.474.262-6.954.45-10.434.632a1.454,1.454,0,0,1-1.707-1.483c-.06-1.212.707-1.614,1.78-1.689,2.119-.151,4.237-.33,6.355-.5,0,.023,0,.046.006.069" transform="translate(-10.671 -47.306)" fill="#f25f6a"/>
        <path id="Trazado_721777" data-name="Trazado 721777" d="M44.937,16.15a10.368,10.368,0,0,1,1.006.515q3.981,2.537,7.945,5.1c.89.578,1.767,1.258,1.046,2.477-.691,1.17-1.715.923-2.65.333-2.733-1.725-5.438-3.493-8.156-5.243-.778-.5-1.32-1.143-.933-2.125a1.661,1.661,0,0,1,1.741-1.057" transform="translate(-21.013 -7.822)" fill="#f25f6a"/>
        <path id="Trazado_721778" data-name="Trazado 721778" d="M116.493,92.09c-10.646-5.081-17.05-13.6-18.663-25.206-2.774-19.964,10.585-36.645,30.531-38.546a29.547,29.547,0,0,1,18.563,4.245c.137.553.539.672,1.033.642l-.026-.018a3.432,3.432,0,0,0,.8,2.118c8.5,12,9.212,24.651,3.14,37.874-1.073-1.78-2.176-3.543-3.211-5.345-.706-1.23-1.573-1.945-3.048-1.372l-2.482-4.474c1.284-1.339.708-2.608-.067-3.945-3.343-5.763-6.64-11.553-9.972-17.322-1.667-2.887-3-2.9-4.648-.044q-5.124,8.877-10.21,17.777-3.951,6.891-7.887,13.791c-1.578,2.785-.935,3.846,2.3,3.886.766.01,1.533,0,2.3,0l34.486.109a4.554,4.554,0,0,1-.433,1.431,35.608,35.608,0,0,1-18.843,13.3c-4.5,1.361-9.1.867-13.67,1.1" transform="translate(-47.554 -13.654)" fill="#f6f4f5"/>
        <path id="Trazado_721779" data-name="Trazado 721779" d="M134.621,96.8c4.566-.232,9.167.262,13.67-1.1a35.608,35.608,0,0,0,18.843-13.3,4.554,4.554,0,0,0,.433-1.431c1.913-.134,2.926-.993,2.438-3.064,6.072-13.223,5.365-25.873-3.14-37.874a3.432,3.432,0,0,1-.8-2.118,31.188,31.188,0,0,1,15.777,23.671c2.683,20.034-10.684,36.675-30.7,38.52a28.439,28.439,0,0,1-16.52-3.308" transform="translate(-65.682 -18.364)" fill="#daf0f6"/>
        <path id="Trazado_721780" data-name="Trazado 721780" d="M195.078,37.35c-.494.03-.9-.089-1.034-.642.411.106.839.183,1.034.642" transform="translate(-94.674 -17.778)" fill="#daf0f6"/>
        <path id="Trazado_721781" data-name="Trazado 721781" d="M160.1,77.259q1.241,2.237,2.481,4.475c-1.25,1.207-.928,2.455-.069,3.69,1.036,1.489,1.193,2.258-1.136,2.232-9.122-.1-18.246-.082-27.368-.006-1.957.016-2.185-.385-1.2-2.072,4.146-7.091,8.2-14.239,12.286-21.363.827-1.44,1.675-2.869,2.649-4.536,3.1,5.413,6.058,10.52,8.961,15.656.775,1.371,1.6,2.465,3.395,1.924m-10.556-4.451h.036c0-.937.036-1.876-.009-2.812a1.736,1.736,0,0,0-1.942-1.868,1.7,1.7,0,0,0-1.745,1.81c-.038,1.873-.058,3.751.034,5.621a1.816,1.816,0,0,0,3.609.057c.079-.93.017-1.871.017-2.808m.042,9.531c-.053-1.232-.667-1.931-1.876-1.934a1.657,1.657,0,0,0-1.825,1.68,1.7,1.7,0,0,0,1.722,2.031,1.737,1.737,0,0,0,1.979-1.778" transform="translate(-64.521 -28.903)" fill="#f6af3f"/>
        <path id="Trazado_721782" data-name="Trazado 721782" d="M154.626,71.75c-1.794.541-2.62-.552-3.395-1.923-2.9-5.136-5.857-10.243-8.961-15.656-.974,1.667-1.821,3.1-2.648,4.536-4.09,7.124-8.14,14.273-12.287,21.363-.986,1.687-.758,2.088,1.2,2.072,9.122-.076,18.246-.091,27.368.006,2.328.026,2.171-.743,1.135-2.232-.86-1.236-1.181-2.483.069-3.69,1.476-.574,2.343.14,3.05,1.371,1.035,1.8,2.137,3.566,3.21,5.346.488,2.069-.524,2.93-2.437,3.063L126.443,85.9c-.767,0-1.533.008-2.3,0-3.237-.04-3.88-1.1-2.3-3.886,2.611-4.608,5.253-9.2,7.887-13.792q5.1-8.892,10.21-17.777c1.649-2.858,2.981-2.844,4.648.043,3.332,5.769,6.629,11.56,9.972,17.322.775,1.337,1.351,2.606.068,3.945" transform="translate(-59.044 -23.396)" fill="#060504"/>
        <path id="Trazado_721783" data-name="Trazado 721783" d="M162.515,80.74c0,.936.061,1.879-.017,2.808a1.817,1.817,0,0,1-3.61-.057c-.092-1.87-.072-3.748-.033-5.621A1.7,1.7,0,0,1,160.6,76.06a1.737,1.737,0,0,1,1.942,1.869c.046.935.009,1.874.009,2.812h-.036" transform="translate(-77.49 -36.836)" fill="#060504"/>
        <path id="Trazado_721784" data-name="Trazado 721784" d="M162.582,101.8a1.737,1.737,0,0,1-1.979,1.778,1.7,1.7,0,0,1-1.722-2.031,1.657,1.657,0,0,1,1.825-1.68c1.209,0,1.823.7,1.876,1.934" transform="translate(-77.515 -48.368)" fill="#100b04"/>
      </g>
    </g>
  </g>
</svg>
