<svg xmlns="http://www.w3.org/2000/svg" xmlns:xlink="http://www.w3.org/1999/xlink" width="169" height="169" viewBox="0 0 169 169">
  <defs>
    <clipPath id="clip-path">
      <rect id="Rect치ngulo_351446" data-name="Rect치ngulo 351446" width="131" height="130.965" fill="none"/>
    </clipPath>
  </defs>
  <g id="Grupo_1018503" data-name="Grupo 1018503" transform="translate(-1069.666 -7543.244)">
    <g id="Grupo_1018365" data-name="Grupo 1018365" transform="translate(-18.334 5485.245)">
      <g id="Grupo_159184" data-name="Grupo 159184" transform="translate(1088 2057.999)">
        <path id="Uni칩n_12" data-name="Uni칩n 12" d="M84.5,0A84.5,84.5,0,1,1,0,84.5,84.5,84.5,0,0,1,84.5,0Z" transform="translate(0 0)" fill="#cda7ff"/>
      </g>
    </g>
    <g id="Grupo_1018457" data-name="Grupo 1018457" transform="translate(1089 7561.034)">
      <g id="Grupo_1018456" data-name="Grupo 1018456" clip-path="url(#clip-path)">
        <path id="Trazado_721921" data-name="Trazado 721921" d="M9.2,52.269c-1.635-.634-1.539-2.016-1.537-3.414.017-11.252-.043-22.5.06-33.756.017-1.917-.446-2.409-2.359-2.354C.626,12.881,0,12.138,0,7.305,0,0,0,0,7.386,0h118.4c4.438,0,5.18.742,5.182,5.163,0,.256,0,.511,0,.767,0,6.443,0,6.526-6.3,6.814-1.747.08-1.371,1.058-1.372,2q-.012,17.39-.005,34.78c0,10.826.032,21.652-.036,32.478-.01,1.523.262,2.326,1.834,2.976a9.017,9.017,0,0,1,5.855,8.783c.074,5.369.06,10.741,0,16.111a10.538,10.538,0,0,1-7.159,10.167,2.131,2.131,0,0,0-1.752,2.53c.1,1.87.026,3.75.024,5.625,0,1.155-.117,2.334-1.454,2.666-1.486.37-2.168-.589-2.512-1.879.029-7.756.07-15.512.076-23.267,0-1.391.178-2.751,1.835-2.825,1.879-.082,2.057,1.411,2.058,2.865,0,3.069.033,6.138-.009,9.207-.02,1.495.59,1.59,1.672.9a6.788,6.788,0,0,0,3.356-5.958c.035-5.37.081-10.742-.014-16.111-.056-3.149-1.714-5.012-4.8-5.763-1.9-.463-3.846-.763-5.717-1.317a1.937,1.937,0,0,0-2.675,1.017,9.1,9.1,0,0,1-5.5,4.317c-1.493.412-1.75,1.213-1.73,2.578.069,4.688.03,9.377.023,14.066,0,1.4.009,2.969-1.921,2.98s-1.944-1.5-1.939-2.936c.017-4.774-.036-9.548.034-14.321.019-1.286-.278-1.955-1.62-2.357A9.917,9.917,0,0,1,95.307,87.1a1.927,1.927,0,0,0-2.243-1.118A22.6,22.6,0,0,0,81.681,90.07c-4.658,3.441-9.439,6.716-14.089,10.167-1.547,1.149-2.771,1.277-4.289,0-1.951-1.646-4.049-3.119-6.087-4.66-2.864-2.165-2.786-2.1-5.128.653-1.046,1.229-.909,1.834.272,2.819,3.533,2.948,7.031,5.946,10.394,9.085,1.917,1.79,3.654,2.022,5.935.7,5.813-3.37,11.708-6.6,17.587-9.855,2.425-1.343,3.2-.956,3.852,1.8q0,14.119,0,28.239c-.3,1.2-.933,2.107-2.282,1.9-1.53-.236-1.65-1.5-1.65-2.749q0-10.736,0-21.472v-2.744c-1.174-.194-1.787.508-2.5.9-4.617,2.538-9.2,5.132-13.826,7.661-3.217,1.76-3.451,4.723-.5,7.006a6.4,6.4,0,1,1-7.648-.1c2.613-1.96,2.487-5.174-.06-7.278-3.741-3.09-7.384-6.305-10.98-9.565a5.6,5.6,0,0,0-4.1-1.554c-12.7.059-25.391.036-38.087.03-4.309,0-4.99-.7-4.994-5.083,0-1.108,0-2.216.021-3.323.03-1.572.908-2.858,2.33-2.919,1.935-.083,1.845-1.083,1.841-2.42-.027-8.946.007-17.893-.035-26.84-.007-1.384.182-2.535,1.558-3.176,2.074.156,2.3,1.561,2.3,3.242-.027,8.65-.013,17.3-.012,25.949,0,3.158,0,3.158,3.354,2.97,7.157.026,14.318-.078,21.469.158,2.175.072,2.66-.842,3.052-2.548a3.467,3.467,0,0,0-.743-2.6c-3.569-6.67-7.177-13.318-10.742-19.989-1-1.87-.5-3.422,1.077-3.56,1.382-.122,1.863.931,2.4,1.924,3.338,6.215,6.735,12.4,10,18.65.766,1.467,1.438,2.23,3.277,1.746a5.053,5.053,0,0,1,4.285,1.229c1.759,1.344,3.554,2.643,5.284,4.024a4.446,4.446,0,0,0,3,1.073c5.71-.062,11.42-.032,17.13-.023a3.276,3.276,0,0,0,2.392-.6c5.5-4.831,12.069-6.776,19.233-7.13.649-.032,1.605.034,1.674-.8a12.145,12.145,0,0,0-.135-4.79c-.335-.967-2.009-.288-3.075-.416-.42-.051-.852,0-1.277-.018-3.741-.148-6.661-2.575-6.81-6.266-.216-5.357-.03-10.73-.009-16.1.007-1.663.806-2.539,2.522-2.465,1.167.6,1.268,1.618,1.253,2.8-.063,4.75-.017,9.5-.074,14.251a3.563,3.563,0,0,0,1.66,3.466c.641.377,1.433.872,2.132.372.767-.549-.013-1.219-.169-1.818-1.435-5.512-2.194-10.977,1.015-16.2,5.591-4.635,9.273-4.353,14.183,1.135a7.528,7.528,0,0,0,5.28,2.792c2.287.107,2.859,1.32,2.864,3.326a25.25,25.25,0,0,1-1.842,10.711c2.99.169,4.156-.679,4.193-3.229.071-4.857.127-9.722-.055-14.574-.168-4.486-3.988-8.681-8.434-8.262A56.651,56.651,0,0,1,98.246,45.7a5.512,5.512,0,0,0-2.878.784c-1.213.638-2.39,1.266-3.777.521-.892-1.92-.009-3.01,1.688-3.832a11.282,11.282,0,0,1,7.412-1.305,19.99,19.99,0,0,0,8.184-.012c3.87-.7,7.251.929,10.571,3.433,0-10.237-.088-20.033.065-29.825.036-2.308-.618-2.731-2.792-2.723-23.095.084-46.191.05-69.286.058-1.561,0-3.178.18-3.549-1.951.555-2.427,2.539-1.885,4.14-1.887q37.826-.044,75.651-.021c.767,0,1.534,0,2.3-.021a1.042,1.042,0,0,0,1.1-.8c.926-2.724-.145-4.266-3.031-4.268Q78.171,3.829,32.3,3.81q-13.034,0-26.068.1c-.769.005-1.745-.42-2.251.634C2.9,6.787,4.166,8.9,6.6,8.906q14.439.045,28.879.073c1.524,0,2.945.044,3.447,1.865-.379,1.636-1.5,1.98-3.038,1.975-7.011-.025-14.024.03-21.035.057C11.5,12.689,11.5,12.689,11.5,15.87q0,16.477,0,32.953c0,1.672.087,3.374-2.3,3.446m5.643,41.2c-1.834-.521-3.714-.077-5.56-.264-1.688-.17-2.163.508-2.17,2.176-.007,1.709.732,1.975,2.149,1.893,1.863-.109,3.734-.09,5.6-.126H43.8c-1.647-1.44-2.447-3.775-4.961-3.761-8,.045-15.995.057-23.992.082M96.452,62.751c-.305,4.953,1.455,9.267,6.149,12.177a3.807,3.807,0,0,0,4.29.017A13.1,13.1,0,0,0,113.1,62.635c-.094-1.027-.573-1.179-1.354-1.413a10.77,10.77,0,0,1-6.019-4.055c-1.413-2.05-3.119-3.091-5.612-2.369-2.226.644-3.559,2.686-3.657,5.526-.023.679,0,1.36,0,2.427m11.43,16.085a10.85,10.85,0,0,1-1.059.369,3.157,3.157,0,0,1-1.256.181c-2.685-.588-4.334.033-4.32,3.2a2.76,2.76,0,0,1-1.683,2.135c-.953.5-.626.951-.178,1.562,2.373,3.237,8.014,3.4,10.564.288.358-.438,1.025-.985.258-1.47-2.3-1.456-2.282-3.787-2.327-6.261m11.61.512c0-1.018,0-2.035,0-3.053,0-.653-.082-1.233-.994-.9-1.729.631-3.527.286-5.3.349-.752.027-1.2.117-1.369,1.041-.684,3.783-.023,4.9,3.613,5.758,4.048.954,4.048.954,4.046-3.2M45.443,86.98a2.512,2.512,0,0,0-2.485,1.461,2.292,2.292,0,0,0,.559,2.777c1.109,1.037,2.281,2.007,3.423,3.009.479.42.962,1.164,1.594.291.851-1.174,2.987-2.5,2.275-3.5a12.706,12.706,0,0,0-5.366-4.04m19.978,35.081c-1.589.192-2.524,1.055-2.448,2.652a2.283,2.283,0,0,0,2.464,2.336A2.313,2.313,0,0,0,68,124.555c-.006-1.594-1.021-2.394-2.578-2.494m4.506-28.517H61.266c4.77,4.093,3.507,4.172,8.662,0" transform="translate(0 0)" fill="#050504"/>
        <path id="Trazado_721922" data-name="Trazado 721922" d="M139.121,182.735c-.656-2.754-1.427-3.141-3.852-1.8-5.879,3.256-11.774,6.485-17.587,9.855-2.281,1.322-4.017,1.09-5.935-.7-3.363-3.139-6.861-6.138-10.394-9.085-1.181-.985-1.319-1.59-.272-2.819,2.341-2.748,2.263-2.818,5.127-.653,2.039,1.541,4.136,3.014,6.087,4.66,1.519,1.281,2.742,1.153,4.29,0,4.65-3.452,9.43-6.727,14.089-10.167a22.594,22.594,0,0,1,11.384-4.086,1.926,1.926,0,0,1,2.243,1.118,9.919,9.919,0,0,0,5.927,4.955c1.342.4,1.639,1.071,1.62,2.357-.07,4.773-.017,9.547-.034,14.321-.005,1.44.023,2.948,1.939,2.937s1.918-1.578,1.92-2.981c.007-4.688.046-9.378-.023-14.065-.02-1.365.237-2.166,1.73-2.578a9.1,9.1,0,0,0,5.5-4.317,1.936,1.936,0,0,1,2.675-1.018c1.872.554,3.817.854,5.717,1.317,3.085.751,4.743,2.614,4.8,5.763.1,5.369.049,10.741.014,16.111a6.788,6.788,0,0,1-3.356,5.958c-1.082.691-1.692.595-1.672-.9.041-3.069.012-6.138.009-9.207,0-1.453-.18-2.948-2.058-2.865-1.657.073-1.834,1.433-1.835,2.824-.006,7.756-.047,15.511-.076,23.267l-11.258-.014c-.045-3.147-.1-6.294-.134-9.441-.017-1.432-.424-2.658-2.1-2.569-1.511.08-1.808,1.243-1.8,2.58.015,3.15-.037,6.3-.062,9.449l-8.626-.1c0-7.61.013-15.221,0-22.832-.006-2.988-1.229-4.569-3.983-5.283" transform="translate(-48.993 -81.962)" fill="#fce67a"/>
        <path id="Trazado_721923" data-name="Trazado 721923" d="M23.623,101.662c-3.353.188-3.353.188-3.354-2.97,0-8.65-.014-17.3.012-25.949.005-1.682-.223-3.086-2.3-3.242q0-2.509-.009-5.017c2.383-.071,2.3-1.774,2.3-3.446q-.008-16.477,0-32.953c0-3.182,0-3.182,3.354-2.995v76.57" transform="translate(-8.774 -12.215)" fill="#dbe0e4"/>
        <path id="Trazado_721924" data-name="Trazado 721924" d="M176.065,196.862c2.754.714,3.976,2.294,3.983,5.283.016,7.61,0,15.221,0,22.832l-3.986.124q0-14.119,0-28.239" transform="translate(-85.937 -96.088)" fill="#fedd30"/>
        <path id="Trazado_721925" data-name="Trazado 721925" d="M200.7,240.506c.025-3.15.078-6.3.062-9.449-.006-1.337.291-2.5,1.8-2.58,1.68-.089,2.087,1.137,2.1,2.569.038,3.147.089,6.294.134,9.441-1.538,2.57-2.672,2.575-4.1.019" transform="translate(-97.962 -111.517)" fill="#0f0f0f"/>
        <path id="Trazado_721926" data-name="Trazado 721926" d="M29.008,99.787V23.217c7.012-.026,14.024-.081,21.035-.057,1.533.005,2.658-.339,3.038-1.975l4.961.007c.37,2.131,1.987,1.951,3.549,1.951,23.1-.008,46.191.027,69.286-.058,2.175-.008,2.828.416,2.792,2.723-.152,9.792-.065,19.588-.065,29.825-3.32-2.5-6.7-4.136-10.571-3.433a19.99,19.99,0,0,1-8.184.012,11.281,11.281,0,0,0-7.412,1.306c-1.7.822-2.58,1.911-1.688,3.832-1.484.916-2.1,2.433-2.738,3.94-1.716-.074-2.515.8-2.522,2.465-.022,5.366-.207,10.739.009,16.1.148,3.691,3.069,6.118,6.81,6.266.426.017.857-.032,1.277.018,1.067.128,2.741-.551,3.075.416a12.154,12.154,0,0,1,.135,4.79c-.069.835-1.025.77-1.674.8-7.164.354-13.734,2.3-19.233,7.13a3.277,3.277,0,0,1-2.392.6c-5.71-.009-11.421-.039-17.13.023a4.443,4.443,0,0,1-3-1.073c-1.73-1.38-3.524-2.68-5.284-4.024A5.049,5.049,0,0,0,58.8,93.568c-1.838.483-2.51-.28-3.277-1.747-3.268-6.251-6.664-12.435-10-18.65-.534-.993-1.015-2.045-2.4-1.924-1.577.139-2.076,1.69-1.077,3.56,3.565,6.672,7.173,13.32,10.742,19.989a3.47,3.47,0,0,1,.743,2.6c-.393,1.705-.877,2.619-3.052,2.547-7.15-.235-14.312-.132-21.469-.158M79.634,27.45h-13.3c-9.631,0-19.263.043-28.895-.03-2.424-.018-3.461.906-3.283,3.333.106,1.442.019,2.9.019,4.346,0,3.977.2,4.181,4.175,4.182q41.3,0,82.594,0c.6,0,1.194,0,1.79-.013a2.157,2.157,0,0,0,2.365-2.4c.013-1.875.008-3.751,0-5.626-.007-3.472-.317-3.793-3.793-3.794q-20.84-.008-41.681,0M57.9,48.216c6.9,0,13.806-.01,20.709.008,1.435,0,2.957-.012,3.035-1.865.08-1.894-1.445-2.026-2.885-2.026q-20.709,0-41.417,0c-1.454,0-2.946.136-2.9,2.018s1.571,1.879,3,1.875c6.818-.017,13.636-.008,20.453-.008m.276,8.971H73c1.875,0,3.75,0,5.625,0,1.406,0,2.976-.011,3.011-1.9.034-1.863-1.43-2.048-2.9-1.981-.17.008-.341,0-.511,0q-20.2,0-40.4,0a8.9,8.9,0,0,0-2.034.092,1.737,1.737,0,0,0-1.374,1.895,1.624,1.624,0,0,0,1.278,1.7,11.44,11.44,0,0,0,2.278.188q10.1.02,20.2.008M68.9,85.274c0,6.971-.666,6.429,6.191,6.415,7.306-.016,6.6.724,6.606-6.513.008-6.907.6-6.29-6.321-6.284C68.255,78.9,68.9,78.2,68.9,85.274M81.7,68.452c-.028-6.485.813-6.244-6.168-6.2h-.255c-7.307-.026-6.368-.383-6.374,6.5-.006,6.657-.88,6.347,6.285,6.339,7.461-.008,6.458.433,6.513-6.634M49.145,66.121c3.919,0,7.839-.021,11.757.011,1.387.011,2.744-.154,2.836-1.813.1-1.885-1.371-2.081-2.832-2.081q-11.885,0-23.77,0c-1.387,0-2.708.244-2.7,1.963.008,1.7,1.278,1.944,2.7,1.932,4-.032,8.009-.011,12.013-.011m8.659,5.1v-.009h-4.09a1.877,1.877,0,0,0-2.07,1.82,1.791,1.791,0,0,0,1.88,1.993q4.213.093,8.431-.011a1.722,1.722,0,0,0,1.8-1.785,1.8,1.8,0,0,0-1.864-1.99c-1.359-.076-2.726-.017-4.089-.017" transform="translate(-14.159 -10.34)" fill="#f3f6f7"/>
        <path id="Trazado_721927" data-name="Trazado 721927" d="M47.307,14.486l-4.96-.007c-.5-1.821-1.924-1.864-3.447-1.864Q24.46,12.6,10.021,12.54c-2.431-.008-3.7-2.119-2.619-4.362.506-1.054,1.482-.629,2.251-.634q13.034-.09,26.068-.1,45.876.006,91.752.042c2.887,0,3.957,1.543,3.031,4.268a1.042,1.042,0,0,1-1.1.8c-.766.018-1.533.021-2.3.021q-37.826,0-75.651.021c-1.6,0-3.586-.541-4.141,1.887" transform="translate(-3.424 -3.634)" fill="#29a5ea"/>
        <path id="Trazado_721928" data-name="Trazado 721928" d="M188.387,114.784c0-1.067-.02-1.748,0-2.427.1-2.84,1.43-4.881,3.656-5.525,2.494-.722,4.2.319,5.612,2.369a10.77,10.77,0,0,0,6.018,4.055c.782.234,1.26.385,1.355,1.413a13.1,13.1,0,0,1-6.206,12.311,3.808,3.808,0,0,1-4.29-.017c-4.694-2.91-6.454-7.224-6.149-12.177" transform="translate(-91.935 -52.032)" fill="#fbd59f"/>
        <path id="Trazado_721929" data-name="Trazado 721929" d="M188.486,89.278A56.651,56.651,0,0,0,201.1,89.3c4.446-.419,8.266,3.776,8.434,8.262.182,4.852.126,9.716.055,14.573-.037,2.55-1.2,3.4-4.193,3.23a25.252,25.252,0,0,0,1.842-10.712c0-2.007-.577-3.219-2.864-3.326a7.527,7.527,0,0,1-5.279-2.792c-4.91-5.489-8.592-5.771-14.183-1.136-.317-3.372,2.189-5.5,3.578-8.122" transform="translate(-90.24 -43.573)" fill="#9f7147"/>
        <path id="Trazado_721930" data-name="Trazado 721930" d="M29,182.521c8-.025,16-.038,23.992-.082,2.513-.014,3.314,2.32,4.961,3.761H29.018q-.01-1.84-.02-3.679" transform="translate(-14.154 -89.048)" fill="#2badf5"/>
        <path id="Trazado_721931" data-name="Trazado 721931" d="M182.966,89.278c-1.389,2.62-3.9,4.749-3.578,8.122-3.209,5.22-2.45,10.684-1.015,16.2.156.6.936,1.269.169,1.818-.7.5-1.491,0-2.132-.372a3.564,3.564,0,0,1-1.66-3.466c.057-4.75.011-9.5.074-14.251.015-1.185-.085-2.2-1.253-2.8.634-1.507,1.254-3.023,2.738-3.94,1.388.745,2.565.117,3.778-.521a5.513,5.513,0,0,1,2.878-.784" transform="translate(-84.72 -43.574)" fill="#8f633f"/>
        <path id="Trazado_721932" data-name="Trazado 721932" d="M202.23,154.009c.045,2.474.027,4.8,2.327,6.261.767.485.1,1.031-.259,1.47-2.549,3.114-8.19,2.949-10.564-.288-.448-.612-.776-1.058.178-1.562a2.76,2.76,0,0,0,1.682-2.135c-.013-3.163,1.635-3.783,4.32-3.2a3.138,3.138,0,0,0,1.256-.181,10.812,10.812,0,0,0,1.059-.368" transform="translate(-94.348 -75.172)" fill="#fbd59f"/>
        <path id="Trazado_721933" data-name="Trazado 721933" d="M225.9,151.147c0,4.15,0,4.15-4.047,3.2-3.637-.857-4.3-1.975-3.613-5.758.167-.924.616-1.015,1.369-1.041,1.768-.062,3.566.283,5.3-.349.912-.333.989.246.993.9.006,1.018,0,2.035,0,3.053" transform="translate(-106.405 -71.798)" fill="#dbe0e4"/>
        <path id="Trazado_721934" data-name="Trazado 721934" d="M86.175,169.917a12.692,12.692,0,0,1,5.366,4.04c.713.994-1.425,2.323-2.275,3.5-.633.873-1.115.129-1.595-.291-1.142-1-2.314-1.972-3.423-3.009a2.293,2.293,0,0,1-.559-2.777,2.513,2.513,0,0,1,2.485-1.461" transform="translate(-40.731 -82.936)" fill="#fbd59f"/>
        <path id="Trazado_721935" data-name="Trazado 721935" d="M21.628,182.324l.02,3.679c-1.867.036-3.738.018-5.6.126-1.417.083-2.156-.183-2.149-1.893.007-1.667.482-2.346,2.17-2.175,1.845.186,3.726-.257,5.559.264" transform="translate(-6.784 -88.851)" fill="#1a78ac"/>
        <path id="Trazado_721936" data-name="Trazado 721936" d="M125.464,238.448c1.557.1,2.572.9,2.578,2.494a2.313,2.313,0,0,1-2.562,2.494,2.283,2.283,0,0,1-2.464-2.336c-.076-1.6.859-2.46,2.448-2.652" transform="translate(-60.042 -116.386)" fill="#f3f6f7"/>
        <path id="Trazado_721937" data-name="Trazado 721937" d="M128.345,182.739c-5.155,4.172-3.892,4.093-8.662,0Z" transform="translate(-58.417 -89.195)" fill="#29a5ea"/>
        <path id="Trazado_721938" data-name="Trazado 721938" d="M84.528,33.394q20.84,0,41.681,0c3.476,0,3.786.322,3.793,3.794,0,1.875.009,3.751,0,5.626a2.157,2.157,0,0,1-2.366,2.4c-.6.016-1.193.013-1.79.013q-41.3,0-82.594,0c-3.973,0-4.173-.2-4.175-4.182,0-1.449.087-2.9-.019-4.346-.178-2.427.859-3.352,3.283-3.333,9.631.073,19.263.03,28.9.03h13.3m.027,7.945c13.035,0,26.07-.018,39.105.024,1.536.005,2.454-.019,2.46-2.07.006-2.1-1.007-2.033-2.494-2.031q-39.105.039-78.21,0c-1.536,0-2.454.018-2.46,2.069-.006,2.1,1.007,2.036,2.494,2.032Q65,41.307,84.555,41.339" transform="translate(-19.052 -16.285)" fill="#0f0f0f"/>
        <path id="Trazado_721939" data-name="Trazado 721939" d="M63.076,70.285c-6.817,0-13.636-.01-20.453.008-1.432,0-2.955.011-3-1.875s1.444-2.019,2.9-2.018q20.709.005,41.418,0c1.44,0,2.964.132,2.885,2.026-.078,1.853-1.6,1.868-3.035,1.865-6.9-.018-13.806-.008-20.709-.008" transform="translate(-19.338 -32.409)" fill="#0f0f0f"/>
        <path id="Trazado_721940" data-name="Trazado 721940" d="M63.332,87.8q-10.1,0-20.2-.008a11.432,11.432,0,0,1-2.277-.188,1.624,1.624,0,0,1-1.278-1.7,1.737,1.737,0,0,1,1.374-1.895,8.928,8.928,0,0,1,2.034-.092q20.2-.006,40.4,0c.17,0,.341.007.511,0,1.473-.067,2.937.118,2.9,1.981-.035,1.891-1.605,1.9-3.011,1.9-1.875.007-3.75,0-5.624,0H63.332" transform="translate(-19.317 -40.953)" fill="#0f0f0f"/>
        <path id="Trazado_721941" data-name="Trazado 721941" d="M106.916,140.283c0-7.078-.642-6.376,6.476-6.382,6.923-.006,6.329-.623,6.321,6.284-.009,7.237.7,6.5-6.606,6.513-6.857.015-6.188.556-6.191-6.415m6.464-2.489c-2.176-.523-2.688.484-2.693,2.547,0,1.961.523,2.587,2.542,2.592,2.069.006,2.772-.54,2.714-2.677-.052-1.915-.435-2.939-2.564-2.461" transform="translate(-52.177 -65.349)" fill="#050504"/>
        <path id="Trazado_721942" data-name="Trazado 721942" d="M119.7,107.6c-.055,7.066.948,6.626-6.513,6.634-7.165.008-6.29.317-6.285-6.339.006-6.88-.934-6.523,6.374-6.5h.255c6.982-.041,6.141-.282,6.169,6.2m-6.21-2.3c-1.929-.374-2.987.006-2.868,2.355.094,1.852.149,2.967,2.519,2.8,1.8-.128,3.031-.067,2.826-2.484-.15-1.771,0-3.333-2.476-2.669" transform="translate(-52.163 -49.484)" fill="#0a0a0a"/>
        <path id="Trazado_721943" data-name="Trazado 721943" d="M54.321,105.264c-4,0-8.009-.02-12.013.011-1.418.011-2.687-.234-2.7-1.933-.008-1.718,1.313-1.963,2.7-1.963q11.885,0,23.77,0c1.46,0,2.937.2,2.832,2.081-.092,1.66-1.45,1.824-2.836,1.813-3.919-.032-7.838-.011-11.757-.011" transform="translate(-19.335 -49.484)" fill="#0f0f0f"/>
        <path id="Trazado_721944" data-name="Trazado 721944" d="M79.383,118.912c1.363,0,2.73-.058,4.089.017a1.8,1.8,0,0,1,1.864,1.99,1.723,1.723,0,0,1-1.8,1.785q-4.213.1-8.43.011a1.791,1.791,0,0,1-1.88-1.993,1.877,1.877,0,0,1,2.07-1.82h4.09v.009" transform="translate(-35.738 -58.03)" fill="#0f0f0f"/>
        <path id="Trazado_721945" data-name="Trazado 721945" d="M88.294,45.051q-19.553,0-39.105.019c-1.487,0-2.5.072-2.494-2.032.006-2.051.923-2.071,2.46-2.069q39.105.048,78.21,0c1.487,0,2.5-.073,2.494,2.031-.006,2.051-.923,2.075-2.46,2.07-13.035-.042-26.07-.024-39.105-.024" transform="translate(-22.792 -19.997)" fill="#fe9800"/>
        <path id="Trazado_721946" data-name="Trazado 721946" d="M116.992,141.392c2.128-.478,2.512.547,2.564,2.461.058,2.138-.645,2.683-2.714,2.677-2.019-.005-2.546-.631-2.542-2.592,0-2.062.516-3.07,2.693-2.547" transform="translate(-55.789 -68.947)" fill="#39cbaf"/>
        <path id="Trazado_721947" data-name="Trazado 721947" d="M117.066,108.878c2.479-.664,2.326.9,2.476,2.669.205,2.417-1.027,2.356-2.826,2.484-2.369.169-2.425-.947-2.519-2.8-.119-2.349.939-2.728,2.868-2.355" transform="translate(-55.735 -53.067)" fill="#39cbaf"/>
      </g>
    </g>
  </g>
</svg>
