<svg xmlns="http://www.w3.org/2000/svg" xmlns:xlink="http://www.w3.org/1999/xlink" width="169" height="169" viewBox="0 0 169 169">
  <defs>
    <clipPath id="clip-path">
      <rect id="Rect치ngulo_351450" data-name="Rect치ngulo 351450" width="127.952" height="125.462" fill="none"/>
    </clipPath>
  </defs>
  <g id="Grupo_1018512" data-name="Grupo 1018512" transform="translate(-359.001 -3490.951)">
    <g id="Grupo_1015075" data-name="Grupo 1015075" transform="translate(-26 1432.951)">
      <g id="Grupo_159182" data-name="Grupo 159182" transform="translate(385.001 2058)">
        <path id="Uni칩n_12" data-name="Uni칩n 12" d="M84.5,0A84.5,84.5,0,1,1,0,84.5,84.5,84.5,0,0,1,84.5,0Z" transform="translate(0 0)" fill="#cda7ff"/>
      </g>
    </g>
    <g id="Grupo_1018465" data-name="Grupo 1018465" transform="translate(379.721 3511.005)">
      <g id="Grupo_1018464" data-name="Grupo 1018464" transform="translate(0)" clip-path="url(#clip-path)">
        <path id="Trazado_722052" data-name="Trazado 722052" d="M28.394,30.338a2.259,2.259,0,0,1-2.431-2.022c-.524-2.267-1.1-4.524-1.57-6.8-.833-3.992.676-6.305,4.695-7.333.787-.2,1.566-.44,2.479-.7-1.887-4.052-1.889-7.861,1.446-11.069A8.031,8.031,0,0,1,42.031.677C46,2.239,47.633,5.4,47.522,9.535c.223.055.385.151.517.12,7.26-1.685,11.317,1.784,10.8,9.356-.153,2.253-1.733,2.508-3.634,2.18-2.769-.478-4.906.552-5.732,2.779a4.6,4.6,0,0,0,1.46,5.612,4.553,4.553,0,0,0,5.775.217c3.423-2.239,4.324-1.864,5.291,2.216.606,2.558,1.733,5.09.269,7.746-.489.886.357.868.881.989,2.024.47,4.052.923,6.075,1.4,4.591,1.076,6.039,3.369,5.052,7.981-.137.639-.293,1.275-.467,2.028,1.011.1,1.922.112,2.8.292a8.665,8.665,0,0,1,6.714,10.767,8.548,8.548,0,0,1-11.257,5.744c-1.617-.608-1.973-.427-2.325,1.27-1.024,4.937-3.317,6.267-8.285,5.156-.973-.218-1.956-.4-2.928-.615-3.1-.7-3.662-2.126-1.819-4.722a4.769,4.769,0,0,0,.543-5.377,4.591,4.591,0,0,0-4.274-2.545,4.779,4.779,0,0,0-4.8,5.426c.433,4.15-.291,4.8-4.24,3.987-.726-.15-1.948-1.076-2.142.462-.157,1.239-1,2.808.907,3.688,2.411,1.115,4.748,2.39,7.151,3.524a12.448,12.448,0,0,1,5.835,5.593c.857,1.614,1.726,3.224,2.651,4.8a12.623,12.623,0,0,1,1.33,10.775,14.393,14.393,0,0,0-.629,6.415c.175,1.283-.027,2.312-1.25,2.958-1.646,0-2.369-.853-2.448-2.466a23.532,23.532,0,0,1,.721-8.149,8.808,8.808,0,0,0-.877-7.42,41.435,41.435,0,0,1-2.273-4.148,10.588,10.588,0,0,0-6.972-5.921,22.447,22.447,0,0,0-2.373-1.336A43.066,43.066,0,0,1,27.719,68.879c-1.321-1.494-2.8-2.847-4.227-4.249-2.293-2.258-4.764-2.484-6.529-.615-1.693,1.793-1.426,4.14.767,6.351q5.014,5.052,10.064,10.069A38.022,38.022,0,0,1,32.8,86.642c.714,1.1.991,2.232-.288,3.034-1.257.789-2.2.1-2.9-1.011a34.729,34.729,0,0,0-5.077-6.144c-3.307-3.286-6.626-6.561-9.884-9.9-2.979-3.049-3.4-6.323-1.328-10a2.437,2.437,0,0,0,.416-2.3c-1.706-4.328-3.349-8.681-5.061-13.007a2.428,2.428,0,0,0-3.231-1.565c-1.569.479-1.9,1.716-1.614,3.188.095.488.252.964.391,1.442,2.626,9.012,5.3,18.012,7.852,27.045a12.183,12.183,0,0,0,3.992,6.141c6.947,5.966,13.806,12.032,20.727,18.028a4.626,4.626,0,0,1,1.745,3.136c.777,6.354,1.663,12.7,2.51,19.041a1.826,1.826,0,0,1-2.113,1.646c-1.241-.128-1.54-1.038-1.685-2.118-.741-5.525-1.587-11.037-2.23-16.572a4.772,4.772,0,0,0-1.849-3.3c-6.736-5.833-13.409-11.739-20.158-17.557a13.689,13.689,0,0,1-4.357-6.806C6,69.805,3.24,60.575.524,51.334c-1.364-4.643-.043-7.908,3.719-9.21,3.6-1.245,6.591.516,8.387,4.93.125.308.267.608.471,1.071,1.546-1.274,3.159-2.413,5.26-2.3a6.407,6.407,0,0,1,4.922,2.574c.487.629.993.359,1.558.244,4.273-.871,6.757.446,8.116,4.437.33.968.634,1.382,1.712,1.119a5.1,5.1,0,0,1,2.215-.02c1.033.225,1.457.009,1.646-1.1.345-2.022.883-4.011,1.4-6.268-1.182.247-2.129.429-3.068.643-3.792.863-6.424-.66-7.372-4.336-.457-1.769-.714-3.594-1.244-5.339-.436-1.432-.188-2.435,1.163-3.116,1.524-.038,2.231.791,2.5,2.219.294,1.549.781,3.064,1.038,4.618.354,2.144,1.5,2.737,3.537,2.234,6.291-1.555,12.6-3.051,18.9-4.569.323-.057.65-.1.969-.174,3.055-.745,3.067-1,2.628-3.8-.508-3.239-2.249-.723-3.4-.9a2.052,2.052,0,0,0-.718.17,10.73,10.73,0,0,1-4.6-.847,8.339,8.339,0,0,1-4.874-7.268c-.219-4.144,1.913-6.874,5.488-8.651.87-1.156,4.131,1.214,3.4-2.306-.6-2.876-1.3-3.216-4.406-2.134-1.3.254-2.614.466-3.9.775-1,.24-2.016.537-2.8-.349s-.458-1.824.031-2.781a4.342,4.342,0,0,0,.49-3.138,4.778,4.778,0,0,0-4.311-3.919,4.544,4.544,0,0,0-4.855,2.8A4.565,4.565,0,0,0,35.736,12.3c.847.783,2.057,1.312,1.615,2.774-.419,1.385-1.753,1.371-2.841,1.67a30.454,30.454,0,0,1-3.88.921C28.3,17.983,27.418,19,28.213,21.4c.624,1.887.839,3.905,1.405,5.815a2.34,2.34,0,0,1-1.225,3.12m45.418,35.21c3.245.432,5.571-1.094,6.012-3.944.421-2.722-1.414-4.936-4.441-5.358a3.662,3.662,0,0,0-2.867.508,1.977,1.977,0,0,1-2.53.026,2.326,2.326,0,0,1-.525-2.54c.372-1.791.75-3.584,1.236-5.347.489-1.779-.191-2.719-1.91-3.053-2.037-.4-4.076-.777-6.115-1.164-3.806-1.358-7.617-2.123-11.6-.593A16,16,0,0,1,46.721,45.1c-2.382.2-3.345,1.419-3.26,3.684q-1.788,7.771-3.579,15.542A2.088,2.088,0,0,0,41.76,67.2c.8.148,1.6.292,2.367.432.081-.154.153-.227.154-.3a8.77,8.77,0,0,1,9.962-8.945,8.615,8.615,0,0,1,6.738,11.7c-.14.358-.464.857-.061,1.141a5.72,5.72,0,0,0,3.322.813c.925.01,1.426-.723,1.627-1.626.451-2.028.847-4.071,1.4-6.071.62-2.23,2.048-2.58,3.548-.879a5.175,5.175,0,0,0,2.991,2.082M29.35,64.724c0-3.469.092-7.077-.048-10.675-.052-1.325-1.184-1.925-2.512-1.884a1.776,1.776,0,0,0-1.983,1.475A10.228,10.228,0,0,0,29.35,64.724m-13.827-11.4c-.107,1.392.709,2.547.954,3.827.463,2.414,2.053,2.055,3.722,1.759,2.061-.365.788-1.771.837-2.722.051-.987-.119-1.982-.143-2.975-.047-1.925-.51-3.606-2.863-3.489-2.222.11-2.432,1.869-2.508,3.6m22.15,19.448c.38-1.727.383-3.033-.727-4.348a4.9,4.9,0,0,1-.869-4.474c.335-1.365.6-2.747.9-4.121.134-.618.609-1.309-.179-1.787a2.075,2.075,0,0,0-2.337.206,2.5,2.5,0,0,0-1.07,2.367,45.851,45.851,0,0,1,.033,5.719c-.351,3.34,1.766,4.829,4.252,6.439" transform="translate(0 0.001)" fill="#060606"/>
        <path id="Trazado_722053" data-name="Trazado 722053" d="M134.508,165.37c-.558,1.21-1.266,2.268-2.821,1.628-1.445-.594-1.142-1.866-.9-3.011.952-4.553,1.91-9.1,2.913-13.646a16.009,16.009,0,0,0-.38-8.378,12.424,12.424,0,0,1,1.337-10.531c.721-1.213,1.429-2.441,2.028-3.716a14.525,14.525,0,0,1,7.729-7.4c2.352-1.013,5.28-1.819,6.642-3.677,1.318-1.8.054-4.806.069-7.289.012-2.161-.18-4.323-.259-6.486-.165-4.544,2.85-7.512,7.307-6.959,1.383.172,1.616-.307,1.97-1.406a6.163,6.163,0,0,1,7.633-4.288c.686.157,1.312.71,2.007-.128,2.991-3.609,6.9-3.073,10.167-.254.419-1,.755-2,1.242-2.924a6.218,6.218,0,0,1,7.636-3.034,6.077,6.077,0,0,1,4.16,7.295c-2.971,10.457-6.09,20.873-9.191,31.293a10.845,10.845,0,0,1-3.61,4.982c-6.783,5.9-13.535,11.835-20.331,17.719a4.771,4.771,0,0,0-1.846,3.3c-.643,5.533-1.489,11.042-2.23,16.563-.145,1.079-.439,1.992-1.682,2.121a1.826,1.826,0,0,1-2.116-1.64c.834-6.259,1.713-12.514,2.469-18.783a5.205,5.205,0,0,1,1.958-3.556c7.055-6.088,14.048-12.248,21.09-18.351a10.172,10.172,0,0,0,3.274-5.162c1.326-4.8,2.806-9.563,4.211-14.343,1.382-4.7,2.772-9.4,4.108-14.115.409-1.443.409-2.951-1.258-3.6-1.313-.513-2.659-.452-3.226,1.261A1.288,1.288,0,0,0,184.125,90l.011-.025a2.068,2.068,0,0,0-.565,1.522l.041-.057c-1.431,3.528-2.845,7.062-4.3,10.579a2.057,2.057,0,0,0,.783,2.612c1.25,3.177,1.272,6.225-1.019,8.989-.779.94-1.642,1.81-2.467,2.712l-.535.652,0-.1c-4.427,4.263-9.135,8.262-12.586,13.435-.786,1.178-1.773,1.944-3.092,1-1.219-.868-.785-2.013-.081-3.083a38.792,38.792,0,0,1,5.032-6.185c3.48-3.466,6.975-6.918,10.4-10.432,1.858-1.9,1.884-4.35.215-5.988s-4.029-1.525-6,.306c-.608.567-1.2,1.159-1.772,1.76-5.426,5.652-10.795,11.436-18.423,14.152-5.893,2.1-9.617,6.144-12.066,11.75a10.216,10.216,0,0,0-.756,7.226,22.747,22.747,0,0,1,.276,11.109c-.948,4.467-1.816,8.951-2.718,13.428m20.726-50.636c2.589-1.854,4.567-3.422,4.358-6.563a47.1,47.1,0,0,1,.055-5.22c.08-1.775-.336-3.342-2.366-3.368-2.105-.026-2.73,1.521-2.634,3.423.189,3.717.372,7.434.587,11.728m8.4-8.185c4.071-2.163,4.75-5.912,4.61-10.109-.048-1.446-.257-2.494-1.928-2.544-1.568-.047-2.622.7-2.659,2.3-.078,3.453-.024,6.908-.024,10.348m13.88-11.717c-.083-1.551-.315-3.379-2.7-3.38-2.2,0-2.594,1.625-2.672,3.436-.058,1.319-.279,2.631-.317,3.95-.018.647-.53,1.905.481,1.81,1.209-.115,2.8,1.242,3.609-.375a11.257,11.257,0,0,0,1.6-5.44" transform="translate(-65.252 -41.729)" fill="#070505"/>
        <path id="Trazado_722054" data-name="Trazado 722054" d="M44.786,169.316c-.847-6.346-1.733-12.687-2.51-19.041a4.627,4.627,0,0,0-1.745-3.136c-6.921-6-13.78-12.062-20.726-18.027a12.184,12.184,0,0,1-3.992-6.142c-2.553-9.033-5.226-18.032-7.852-27.045-.139-.478-.3-.954-.391-1.442-.285-1.472.045-2.709,1.614-3.188a2.428,2.428,0,0,1,3.231,1.565c1.712,4.326,3.355,8.679,5.061,13.007a2.435,2.435,0,0,1-.416,2.3c-2.075,3.674-1.65,6.949,1.328,10,3.258,3.334,6.576,6.61,9.884,9.9a34.729,34.729,0,0,1,5.077,6.144c.7,1.115,1.644,1.8,2.9,1.012,1.279-.8,1-1.939.288-3.034a38.05,38.05,0,0,0-5.008-6.206q-5.042-5.024-10.063-10.069c-2.194-2.211-2.461-4.559-.768-6.351,1.765-1.869,4.237-1.642,6.529.615,1.424,1.4,2.906,2.755,4.227,4.249A43.06,43.06,0,0,0,47.3,125.857a22.316,22.316,0,0,1,2.373,1.336c.638,2.793,2.154,5.212,3.522,7.646a14.83,14.83,0,0,1,1.287,11.756,18.11,18.11,0,0,0-.118,7.648c.779,4.974,2.454,9.781,2.8,14.838l-12.379.236" transform="translate(-3.737 -45.544)" fill="#d28678"/>
        <path id="Trazado_722055" data-name="Trazado 722055" d="M138.427,186.323c.9-4.477,1.77-8.961,2.718-13.428a22.736,22.736,0,0,0-.276-11.109,10.219,10.219,0,0,1,.756-7.226c2.45-5.606,6.174-9.653,12.066-11.751,7.628-2.715,13-8.5,18.423-14.151.576-.6,1.163-1.193,1.772-1.76,1.966-1.832,4.325-1.946,6-.307s1.643,4.084-.215,5.988c-3.431,3.515-6.925,6.966-10.405,10.432a38.8,38.8,0,0,0-5.032,6.186c-.7,1.069-1.138,2.214.082,3.082,1.319.94,2.306.174,3.092-1,3.451-5.173,8.16-9.172,12.586-13.434a8.4,8.4,0,0,1-2.594,6.5c-1.82,1.813-3.752,3.517-5.69,5.205-4.683,4.081-9.444,8.076-14.075,12.215-1.514,1.353-3.66,2.454-3.983,4.619-.988,6.612-1.719,13.263-2.55,19.9l-12.67.045" transform="translate(-69.172 -62.682)" fill="#d38779"/>
        <path id="Trazado_722056" data-name="Trazado 722056" d="M56.288,34.136a2.34,2.34,0,0,0,1.225-3.119c-.567-1.91-.781-3.929-1.406-5.815-.795-2.4.083-3.421,2.417-3.742a30.537,30.537,0,0,0,3.88-.92c1.088-.3,2.421-.285,2.84-1.671.442-1.462-.767-1.991-1.615-2.774a4.566,4.566,0,0,1-1.212-5.665,4.544,4.544,0,0,1,4.856-2.795,4.778,4.778,0,0,1,4.311,3.919,4.343,4.343,0,0,1-.49,3.138c-.49.958-.8,1.9-.032,2.782s1.8.589,2.8.349c1.288-.309,2.6-.522,3.9-.775q.5,2.219,1.007,4.44c-3.576,1.777-5.707,4.506-5.488,8.65a8.34,8.34,0,0,0,4.873,7.269,10.739,10.739,0,0,0,4.6.847,13.461,13.461,0,0,1,.519,4.7c-6.3,1.518-12.605,3.013-18.9,4.569-2.034.5-3.183-.09-3.537-2.234-.256-1.554-.743-3.069-1.038-4.618-.271-1.427-.979-2.257-2.5-2.219l-1.013-4.319" transform="translate(-27.894 -3.798)" fill="#f89543"/>
        <path id="Trazado_722057" data-name="Trazado 722057" d="M141.331,45.614c-.85,1.287-1.918,1.329-3.243.719-1.732-.8-3.547-1.413-5.29-2.187-3.238-1.437-4.508-4.307-3.075-7.571.873-1.986,1.206-2.879-1.509-3.626-4.794-1.319-7-7.043-4.928-11.585a8.511,8.511,0,0,1,12-3.887c1.609.956,2.045.7,2.685-.89,1.826-4.549,4.332-5.534,8.851-3.691,1.153.47,2.323.905,3.449,1.432,2.251,1.053,2.567,2.762.75,4.474a5.227,5.227,0,0,0-1.976,4.11,4.89,4.89,0,0,0,4.815,4.76,4.828,4.828,0,0,0,4.789-4.507c.039-.578-.086-1.171-.021-1.744.2-1.824,1.211-2.656,3.062-2.3a6.985,6.985,0,0,1,1.175.407c8.453,3.286,9,4.563,5.565,12.872-2.284,5.521-4.549,11.049-6.845,16.565-1.743,4.188-4.314,5.227-8.568,3.5-2-.813-3.979-1.673-5.992-2.45a2.2,2.2,0,0,1-1.617-2.687,2.178,2.178,0,0,1,3.029-.813c1.689.7,3.4,1.337,5.1,2,3.264,1.545,3.581,1.431,4.938-1.868q3.594-8.736,7.175-17.478c1.586-3.863,1.526-3.989-2.551-5.339-1.384.3-.721,1.68-1.276,2.416l-.424.913c-3.513,4.325-7.962,5.424-12.014,3a8.65,8.65,0,0,1-2.807-11.992c.2-.323.648-.831.2-1.067a12.5,12.5,0,0,0-3.213-1.257c-1.089-.226-1.569.708-1.931,1.589-.723,1.766-1.434,3.537-2.168,5.3-.361.866-.8,1.662-1.919,1.693-1.087.03-1.54-.674-2.042-1.514-1.593-2.669-4.075-3.484-6.534-2.264a4.748,4.748,0,0,0-2.4,5.887c.893,2.572,3.228,3.713,6.241,2.951.942-.238,1.829-.438,2.533.362a2.314,2.314,0,0,1,.123,2.589c-.726,1.765-1.478,3.519-2.2,5.287-.607,1.5-.249,2.535,1.38,3.117,1.717.613,3.378,1.38,5.069,2.067a2.241,2.241,0,0,1,1.608,2.713" transform="translate(-61.217 -6.006)" fill="#080805"/>
        <path id="Trazado_722058" data-name="Trazado 722058" d="M157.331,52.3c-1.7-.664-3.415-1.305-5.1-2a2.178,2.178,0,0,0-3.029.812l-4.08-1.711a2.24,2.24,0,0,0-1.608-2.712c-1.691-.687-3.352-1.453-5.069-2.067-1.629-.583-1.988-1.619-1.38-3.117.717-1.769,1.47-3.523,2.2-5.287a2.313,2.313,0,0,0-.123-2.588c-.7-.8-1.591-.6-2.533-.362-3.012.761-5.348-.38-6.241-2.951a4.748,4.748,0,0,1,2.4-5.888c2.459-1.22,4.941-.4,6.534,2.264.5.84.955,1.544,2.042,1.514,1.116-.031,1.558-.827,1.919-1.693.734-1.761,1.445-3.532,2.168-5.3.361-.881.842-1.814,1.931-1.589a12.464,12.464,0,0,1,3.213,1.258c.448.236,0,.744-.2,1.067a8.65,8.65,0,0,0,2.807,11.992c4.052,2.426,8.5,1.326,12.014-3,1.15.734.206,1.45-.062,2.115q-3.875,9.63-7.8,19.24" transform="translate(-65.002 -9.788)" fill="#f9d944"/>
        <path id="Trazado_722059" data-name="Trazado 722059" d="M163.753,169.123c.83-6.636,1.561-13.286,2.549-19.9.323-2.165,2.469-3.266,3.983-4.619,4.632-4.139,9.392-8.133,14.075-12.215,1.938-1.689,3.87-3.392,5.69-5.2a8.4,8.4,0,0,0,2.594-6.5l0,.1.535-.651c.824-.9,1.688-1.772,2.466-2.711,2.291-2.764,2.269-5.812,1.019-8.989,1.323-4.357,3.035-8.61,3.519-13.191l-.041.057c.676-.327.506-.967.565-1.522l-.011.024c.467-.253.47-.7.482-1.146.567-1.713,1.913-1.774,3.226-1.261,1.667.651,1.667,2.16,1.258,3.6-1.337,4.714-2.727,9.414-4.109,14.115-1.4,4.781-2.884,9.541-4.211,14.344a10.175,10.175,0,0,1-3.274,5.161c-7.043,6.1-14.035,12.264-21.091,18.352a5.209,5.209,0,0,0-1.958,3.556c-.757,6.269-1.635,12.523-2.468,18.783l-4.8-.18" transform="translate(-81.828 -45.527)" fill="#c46d5b"/>
        <path id="Trazado_722060" data-name="Trazado 722060" d="M99.312,205.087c-.347-5.058-2.022-9.864-2.8-14.838a18.111,18.111,0,0,1,.118-7.648,14.83,14.83,0,0,0-1.287-11.755c-1.368-2.433-2.884-4.853-3.522-7.646a10.588,10.588,0,0,1,6.972,5.921,41.434,41.434,0,0,0,2.273,4.148,8.81,8.81,0,0,1,.877,7.421,23.529,23.529,0,0,0-.721,8.149c.079,1.613.8,2.467,2.448,2.466q.365,2.2.729,4.4c-1.311.671-1.561,1.679-1.224,3.083.477,1.982.757,4.011,1.122,6.02l-.531.391a17.285,17.285,0,0,1-4.454-.113" transform="translate(-45.883 -81.551)" fill="#c46d5b"/>
        <path id="Trazado_722061" data-name="Trazado 722061" d="M115.5,237.275c-.365-2.009-.645-4.037-1.122-6.02-.338-1.4-.087-2.412,1.224-3.083a3.243,3.243,0,0,1,.982.146c1.413.7,3.516,9.047,2.636,10.356-.9,1.332-2.4.932-3.619-.961a.376.376,0,0,0-.1-.438" transform="translate(-57.088 -114.019)" fill="#060606"/>
        <path id="Trazado_722062" data-name="Trazado 722062" d="M116.227,246.367a.376.376,0,0,1,.1.438l-.631-.047.531-.391" transform="translate(-57.814 -123.11)" fill="#d28678"/>
        <path id="Trazado_722063" data-name="Trazado 722063" d="M102.4,89.3c2.038.387,4.077.768,6.115,1.164,1.719.334,2.4,1.275,1.91,3.053-.485,1.762-.864,3.556-1.235,5.347a2.324,2.324,0,0,0,.524,2.539,1.978,1.978,0,0,0,2.531-.026,3.661,3.661,0,0,1,2.867-.508c2.01,3.529.6,6.48-1.571,9.3a5.172,5.172,0,0,1-2.991-2.082c-1.5-1.7-2.928-1.351-3.549.879-.555,2-.951,4.043-1.4,6.071-.2.9-.7,1.635-1.626,1.626a5.721,5.721,0,0,1-3.323-.813c-.4-.284-.079-.783.061-1.141a8.615,8.615,0,0,0-6.737-11.7,8.77,8.77,0,0,0-9.963,8.945c0,.075-.073.148-.154.3-.77-.141-1.569-.284-2.367-.432a2.088,2.088,0,0,1-1.878-2.873q1.8-7.769,3.579-15.542a14.374,14.374,0,0,0,3.649-.456c5.174-1.273,10.372-2.446,15.562-3.657" transform="translate(-39.73 -44.624)" fill="#30a4f7"/>
        <path id="Trazado_722064" data-name="Trazado 722064" d="M106.077,87.866c-5.19,1.21-10.388,2.383-15.562,3.657a14.373,14.373,0,0,1-3.649.456c-.086-2.265.878-3.487,3.259-3.684a16.007,16.007,0,0,0,4.351-1.022c3.983-1.529,7.794-.764,11.6.593" transform="translate(-43.404 -43.189)" fill="#1c92f1"/>
        <path id="Trazado_722065" data-name="Trazado 722065" d="M53.872,116.827a10.228,10.228,0,0,1-4.542-11.083,1.775,1.775,0,0,1,1.982-1.476c1.328-.04,2.46.559,2.512,1.884.14,3.6.048,7.206.048,10.675" transform="translate(-24.522 -52.102)" fill="#9d4c3f"/>
        <path id="Trazado_722066" data-name="Trazado 722066" d="M31.019,102.995c.075-1.731.286-3.491,2.508-3.6,2.352-.116,2.816,1.564,2.863,3.489.024.993.194,1.989.143,2.975-.049.951,1.223,2.357-.837,2.722-1.669.3-3.259.655-3.722-1.759-.245-1.28-1.061-2.435-.954-3.827" transform="translate(-15.496 -49.665)" fill="#b0584b"/>
        <path id="Trazado_722067" data-name="Trazado 722067" d="M71.017,130.479c-2.486-1.61-4.6-3.1-4.252-6.439a45.849,45.849,0,0,0-.033-5.719,2.5,2.5,0,0,1,1.07-2.367,2.075,2.075,0,0,1,2.337-.206c.787.478.312,1.169.179,1.787-.3,1.374-.562,2.757-.9,4.121a4.9,4.9,0,0,0,.869,4.474c1.11,1.315,1.107,2.621.727,4.348" transform="translate(-33.344 -57.702)" fill="#813c2e"/>
        <path id="Trazado_722068" data-name="Trazado 722068" d="M147.536,121.729c2.175-2.822,3.582-5.773,1.571-9.3,3.027.422,4.861,2.636,4.441,5.358-.441,2.85-2.767,4.376-6.012,3.944" transform="translate(-73.724 -56.18)" fill="#1c92f1"/>
        <path id="Trazado_722069" data-name="Trazado 722069" d="M110.175,72.634a13.46,13.46,0,0,0-.519-4.7,2.038,2.038,0,0,1,.718-.17c1.149.173,2.89-2.344,3.4.9.439,2.8.427,3.058-2.628,3.8-.318.078-.645.116-.969.173" transform="translate(-54.795 -33.476)" fill="#e97d26"/>
        <path id="Trazado_722070" data-name="Trazado 722070" d="M100.68,30.357q-.5-2.22-1.007-4.44c3.106-1.082,3.807-.741,4.406,2.134.732,3.52-2.529,1.15-3.4,2.306" transform="translate(-49.807 -12.668)" fill="#e97d26"/>
        <path id="Trazado_722071" data-name="Trazado 722071" d="M179.26,130.792c-.215-4.294-.4-8.012-.587-11.729-.1-1.9.528-3.449,2.634-3.422,2.03.025,2.445,1.592,2.366,3.368a47.1,47.1,0,0,0-.055,5.22c.209,3.141-1.77,4.71-4.358,6.563" transform="translate(-89.279 -57.786)" fill="#813c2e"/>
        <path id="Trazado_722072" data-name="Trazado 722072" d="M196.618,116.924c0-3.441-.054-6.9.024-10.349.037-1.606,1.09-2.35,2.659-2.3,1.67.05,1.88,1.1,1.928,2.544.14,4.2-.539,7.946-4.61,10.109" transform="translate(-98.241 -52.104)" fill="#9d4c3f"/>
        <path id="Trazado_722073" data-name="Trazado 722073" d="M218.547,102.766a11.257,11.257,0,0,1-1.6,5.44c-.813,1.617-2.4.26-3.609.375-1.011.1-.5-1.162-.481-1.81.038-1.319.26-2.631.317-3.95.079-1.81.476-3.436,2.672-3.436,2.389,0,2.621,1.829,2.7,3.38" transform="translate(-106.291 -49.663)" fill="#b0584b"/>
        <path id="Trazado_722074" data-name="Trazado 722074" d="M232.085,99.361c-.484,4.581-2.2,8.834-3.519,13.191a2.056,2.056,0,0,1-.783-2.612c1.457-3.517,2.871-7.052,4.3-10.579" transform="translate(-113.725 -49.651)" fill="#d28678"/>
        <path id="Trazado_722075" data-name="Trazado 722075" d="M237.062,96.432c-.059.555.112,1.2-.564,1.523a2.066,2.066,0,0,1,.564-1.523" transform="translate(-118.179 -48.187)" fill="#d28678"/>
        <path id="Trazado_722076" data-name="Trazado 722076" d="M238.086,94.191c-.012.444-.015.893-.482,1.146a1.289,1.289,0,0,1,.482-1.146" transform="translate(-118.731 -47.067)" fill="#d28678"/>
        <path id="Trazado_722077" data-name="Trazado 722077" d="M222.042,149.115l-.535.651.535-.651" transform="translate(-110.688 -74.513)" fill="#d38779"/>
        <path id="Trazado_722078" data-name="Trazado 722078" d="M184.547,60.308q3.907-9.618,7.8-19.24c.268-.665,1.212-1.381.062-2.115l.424-.914c1.43-.275,1.268-1.391,1.276-2.416,4.076,1.35,4.136,1.476,2.551,5.34q-3.587,8.739-7.175,17.478c-1.357,3.3-1.674,3.414-4.938,1.868" transform="translate(-92.219 -17.801)" fill="#f3c12c"/>
        <path id="Trazado_722079" data-name="Trazado 722079" d="M202.385,35.623c-.008,1.026.154,2.141-1.276,2.416.555-.736-.109-2.117,1.276-2.416" transform="translate(-100.495 -17.801)" fill="#f9d944"/>
      </g>
    </g>
  </g>
</svg>
