<svg xmlns="http://www.w3.org/2000/svg" xmlns:xlink="http://www.w3.org/1999/xlink" width="169" height="169" viewBox="0 0 169 169">
  <defs>
    <clipPath id="clip-path">
      <rect id="Rect치ngulo_351399" data-name="Rect치ngulo 351399" width="131" height="112.392" fill="none"/>
    </clipPath>
  </defs>
  <g id="Grupo_1018516" data-name="Grupo 1018516" transform="translate(-719.001 -6123.983)">
    <g id="Grupo_1018397" data-name="Grupo 1018397" transform="translate(-18 4065.983)">
      <g id="Grupo_159183" data-name="Grupo 159183" transform="translate(737.001 2058)">
        <path id="Uni칩n_12" data-name="Uni칩n 12" d="M84.5,0A84.5,84.5,0,1,1,0,84.5,84.5,84.5,0,0,1,84.5,0Z" fill="#cda7ff"/>
      </g>
    </g>
    <g id="Grupo_1018406" data-name="Grupo 1018406" transform="translate(735 6152.228)">
      <g id="Grupo_1018405" data-name="Grupo 1018405" clip-path="url(#clip-path)">
        <path id="Trazado_721704" data-name="Trazado 721704" d="M132.591,62.405q0,2.735.008,5.472c-1.938.484-1.824,2.173-1.824,3.809,0,15.819-.037,31.639.044,47.457.011,2.246-.368,3.063-2.608,3.058q-59.073-.131-118.146-.023c-2.028,0-2.547-.606-2.542-2.834q.1-40.921.006-81.842c0-1.94.388-2.568,2.22-2.54,7.329.115,14.661.025,21.992.045,1.535,0,2.953-.068,3.324-2.185h4.919c.58,2.311,2.23,2.185,3.893,2.184Q85.489,34.984,127.1,35c3.674,0,3.674,0,3.674,4.224,0,6.525.026,13.05-.017,19.575-.011,1.659.266,3,1.832,3.61M80.9,111.514a2.5,2.5,0,0,0,2.61,2.158q16.489-.062,32.978-.024a3.809,3.809,0,0,0,3.4-1.616c1.981-2.967,1.542-6.388.74-9.524-.7-2.748-3.084-3.1-5.456-3.1q-46.016.047-92.031.021c-.426,0-.853-.022-1.278.008-2.752.2-4.4,1.937-4.6,4.987a32.469,32.469,0,0,0,0,4.258c.2,3.14,1.777,4.929,4.575,4.936,17.213.044,34.426.018,51.64.043A2.252,2.252,0,0,0,76,111.522l4.9-.008M54.7,81.62c-1.637,0-3.228-.333-4.649.072-2.715.774-6.181-2.29-8.2,1.944,1.9,4.346,5.459,2.063,8.055,1.974,5.182-.175,9.726.429,13.008,5.409a2.108,2.108,0,0,0,.388.367c5.525,4.964,6.219,5.027,11.721-.079,1.327-1.232,1.954-1.209,3.24.08,6.1,6.117,15.425,4.672,19.648-3.073,1-1.832,1.913-2.894,3.919-2.546a1.946,1.946,0,0,0,2.464-2.1,1.868,1.868,0,0,0-2.269-2.023c-1.718.259-2.281-.538-2.157-2.348a19.174,19.174,0,0,0-.239-2.8c2.156,0,4.273.055,6.386-.021a1.97,1.97,0,0,0,2.066-2.3,1.94,1.94,0,0,0-2.069-2.01,13.283,13.283,0,0,0-3.825.024c-4.452,1.127-6.707-2.522-9.858-5.159.988,0,1.584.007,2.18,0a1.942,1.942,0,0,0,2.1-2.232,1.892,1.892,0,0,0-2.11-1.937c-.852.021-1.706.03-2.557-.012s-2.192.392-1.752-1.391c.333-1.351-.836-3.756,1.853-3.713,2.045.033,4.091.036,6.136-.012a1.993,1.993,0,0,0,2.223-2.141,1.968,1.968,0,0,0-2.164-2.191,49.028,49.028,0,0,0-5.622.022c-1.632.144-2.172-.487-2.336-2.28-.323-3.522-1.217-4.386-4.489-4.255a8.114,8.114,0,0,1-5.468-1.825c-2.6-1.964-5.408-3.6-7.958-5.639-2.3-1.837-4.269-1.755-6.493.084-1.837,1.519-3.9,2.7-5.814,4.1-2.638,1.927-5.187,3.869-8.666,3.317a2.741,2.741,0,0,0-3.171,2.911c.111,3.672-1.738,3.821-4.157,3.566a31.556,31.556,0,0,0-3.322-.02c-2.9,0-5.8-.026-8.693.023a2,2,0,0,0-2.118,2.266A2.037,2.037,0,0,0,32,57.735c.594.048,1.193.021,1.789.021q6.264,0,12.528,0c2.693-.006,1.476,2.415,1.8,3.762.432,1.8-.981,1.3-1.794,1.328-1.874.055-3.75.03-5.624.014-1.339-.011-2.741,0-2.777,2.006-.039,2.2,1.469,2.182,2.89,2.178,2.386-.007,4.778-.114,7.157.032s1.827,2.705,2.156,4.14c.371,1.615-1.282.879-2,.891-5.027.078-10.056.056-15.084.032-1.441-.007-3.012.065-3.085,2.05-.08,2.2,1.547,2.34,3.093,2.334,4.943-.018,9.905.29,14.822-.105,3.619-.291,5.8.97,6.82,5.2m-26.251.009v-.014c-2.886,0-5.773.028-8.658-.012-1.356-.018-2.463.372-2.474,2.08s1.079,2.135,2.439,2.129q8.532-.038,17.063-.009c1.367.006,2.493-.466,2.5-2.082s-1.087-2.13-2.471-2.106c-2.8.05-5.6.015-8.4.015m81.88-14.6c2.46,0,4.92.014,7.379-.006,1.414-.011,3.2.345,3.261-2.014.061-2.375-1.683-2.142-3.132-2.142-5.089,0-10.178.016-15.267-.011-1.423-.007-3.013-.02-3.038,2.014-.028,2.245,1.674,2.177,3.164,2.165,2.544-.021,5.089-.006,7.633-.006m1.969-9.268c2.04,0,4.08,0,6.12,0,1.435.005,2.638-.464,2.58-2.316-.053-1.677-1.206-2.079-2.533-2.075-4.165.011-8.33.005-12.5,0-1.418,0-2.637.4-2.574,2.3.057,1.719,1.227,2.078,2.527,2.083,2.125.008,4.251,0,6.376,0M26.176,67.043v-.016c2.29,0,4.58-.011,6.87.005,1.263.009,2.247-.494,2.3-2a1.9,1.9,0,0,0-2.14-2.156q-6.87,0-13.74-.019a1.9,1.9,0,0,0-2.152,2.14c.027,1.52.963,2.064,2.246,2.053,2.2-.018,4.41-.005,6.615-.005m88.061,14.6q-2.538,0-5.076,0a2.066,2.066,0,0,0-.017,4.129c3.3.014,6.6.008,9.9,0a2.068,2.068,0,0,0,.017-4.129q-2.411,0-4.822,0M22.23,57.758v-.015a30.769,30.769,0,0,0,3.312-.026,1.982,1.982,0,0,0,1.866-2.236,1.871,1.871,0,0,0-1.763-2.036c-2.205-.1-4.421-.114-6.625-.007a1.878,1.878,0,0,0-1.731,2.07,2,2,0,0,0,1.884,2.226,27.259,27.259,0,0,0,3.058.024m.23,14.395v-.009a32.818,32.818,0,0,0-3.313.024,1.978,1.978,0,0,0-1.859,2.239,1.889,1.889,0,0,0,1.758,2.052,65.289,65.289,0,0,0,6.623-.016,1.878,1.878,0,0,0,1.739-2.064,1.971,1.971,0,0,0-1.89-2.205c-1.012-.1-2.038-.021-3.058-.021m93.476,4.357c1.018,0,2.04.055,3.054-.015a2.171,2.171,0,0,0-.069-4.335c-1.951-.053-3.9-.059-5.854.008a1.919,1.919,0,0,0-2.015,2.052,2.006,2.006,0,0,0,2.084,2.278c.929.073,1.866.014,2.8.013" transform="translate(-3.673 -14.152)" fill="#e2e9ee"/>
        <path id="Trazado_721705" data-name="Trazado 721705" d="M128.919,48.252c-1.566-.607-1.843-1.951-1.832-3.61.042-6.524.017-13.05.017-19.575,0-4.224,0-4.224-3.675-4.224q-41.613,0-83.226.011c-1.663,0-3.312.126-3.893-2.184.5-2.154,1.974-2.242,3.608-2.239q20.836.043,41.672.016c14.4,0,28.8-.032,43.205.041,1.739.009,2.462-.433,2.307-2.49a35.606,35.606,0,0,1,.007-6.242c.285-2.787-.643-3.423-3.09-3.416q-52.026.14-104.051.068c-.85,0-1.7.069-2.549.106C13.513,4.48,9.607,4.486,5.7,4.388c-1.318-.033-1.823.484-1.788,1.956.066,2.735.078,5.477,0,8.212-.046,1.52.5,1.943,1.794,1.911,3.9-.1,7.811-.091,11.716-.125,3.649.035,7.3.1,10.948.091,1.51-.006,2.705.338,3.024,2.237-.371,2.116-1.788,2.189-3.324,2.185-7.331-.02-14.663.069-21.992-.045-1.832-.029-2.224.6-2.22,2.539q.085,40.921-.006,81.843c-.005,2.227.513,2.837,2.542,2.833q59.073-.1,118.146.023c2.24.005,2.62-.811,2.608-3.058-.081-15.819-.041-31.638-.044-47.457,0-1.636-.114-3.325,1.824-3.809,1.572.237,2.068,1.307,2.065,2.978-.025,16.767,0,33.534-.032,50.3-.007,3.324-1.769,5.2-4.785,5.371-.6.034-1.193.007-1.79.007H6.49c-5.218,0-6.489-1.41-6.489-7.194Q0,56.023,0,6.858C0,1.515,1.388,0,6.28,0q59.2,0,118.407,0c4.9,0,6.289,1.515,6.29,6.845,0,12.6-.02,25.2.025,37.8.006,1.811-.282,3.191-2.082,3.609" transform="translate(0 0)" fill="#0b0d0f"/>
        <path id="Trazado_721706" data-name="Trazado 721706" d="M47.939,21.961c-.319-1.9-1.514-2.243-3.024-2.237-3.649.014-7.3-.055-10.948-.091l-.009-4.477a2.956,2.956,0,0,0-.062-3.3q.035-2.026.07-4.052c.85-.037,1.7-.106,2.549-.106q52.026-.008,104.051-.068c2.447-.006,3.375.629,3.09,3.416a35.6,35.6,0,0,0-.007,6.241c.155,2.057-.568,2.5-2.307,2.49-14.4-.072-28.8-.041-43.205-.041q-20.836,0-41.672-.016c-1.634,0-3.11.085-3.608,2.239H47.939m-6.815-8.353c-.125-1.361-.787-2.144-1.975-2.126a1.8,1.8,0,0,0-1.815,1.944c-.047,1.312.587,2.2,1.8,2.239s1.823-.8,1.992-2.058" transform="translate(-16.547 -3.291)" fill="#08a8f0"/>
        <path id="Trazado_721707" data-name="Trazado 721707" d="M76.071,85.613c-1.019-4.233-3.2-5.494-6.82-5.2-4.918.395-9.88.087-14.823.105-1.546.006-3.174-.137-3.093-2.334.073-1.985,1.643-2.057,3.085-2.05,5.028.024,10.057.046,15.084-.032.715-.011,2.368.724,2-.891-.33-1.435.208-3.994-2.157-4.14s-4.771-.039-7.157-.032c-1.42,0-2.928.018-2.889-2.178.035-2,1.438-2.017,2.776-2.006,1.875.015,3.751.04,5.624-.014.813-.023,2.227.476,1.794-1.328-.323-1.346.9-3.767-1.8-3.762q-6.264.013-12.528,0c-.6,0-1.2.027-1.789-.021a2.038,2.038,0,0,1-2.069-2.058A2,2,0,0,1,53.426,57.4c2.9-.048,5.8-.02,8.693-.022a31.406,31.406,0,0,1,3.322.019c2.419.255,4.268.106,4.157-3.566a2.741,2.741,0,0,1,3.171-2.911c3.478.552,6.027-1.39,8.666-3.317,1.919-1.4,3.977-2.585,5.814-4.1,2.224-1.84,4.2-1.921,6.493-.084C96.292,45.46,99.1,47.1,101.7,49.06a8.116,8.116,0,0,0,5.467,1.825c3.272-.13,4.166.733,4.489,4.255.165,1.793.7,2.424,2.336,2.28a49.028,49.028,0,0,1,5.622-.022,1.968,1.968,0,0,1,2.164,2.191,1.994,1.994,0,0,1-2.223,2.141c-2.044.048-4.091.045-6.136.012-2.689-.043-1.52,2.362-1.853,3.713-.439,1.782.9,1.349,1.753,1.39s1.7.033,2.556.012a1.892,1.892,0,0,1,2.11,1.937,1.942,1.942,0,0,1-2.1,2.232c-.6.009-1.192,0-2.18,0,3.151,2.637,5.406,6.286,9.858,5.159a13.283,13.283,0,0,1,3.825-.024,1.94,1.94,0,0,1,2.069,2.01,1.969,1.969,0,0,1-2.066,2.3c-2.113.076-4.23.021-6.386.021a19.175,19.175,0,0,1,.239,2.8c-.124,1.809.44,2.607,2.157,2.348a1.868,1.868,0,0,1,2.269,2.023,1.946,1.946,0,0,1-2.463,2.1c-2.006-.348-2.921.714-3.92,2.546-4.222,7.745-13.542,9.19-19.648,3.073-1.286-1.288-1.912-1.311-3.24-.08-5.5,5.106-6.2,5.043-11.72.079a2.107,2.107,0,0,1-.388-.367C81,90.032,76.461,89.428,71.279,89.6c-2.6.088-6.157,2.371-8.055-1.974,2.017-4.233,5.484-1.17,8.2-1.944,1.421-.4,3.013-.072,4.649-.072m32.913-10.937c-3.545-.5-6.271,1.092-8.212,4.265a10.427,10.427,0,0,0-.317,10.907c2,3.662,5.031,5.473,9.011,4.836a9.883,9.883,0,0,0,8.082-10.265c-.14-5.2-3.693-9.241-8.564-9.743M78.78,54.594a5.012,5.012,0,0,1-3,.431c-2.087-.349-2.722.486-2.749,2.875-.165,14.195,4.638,25.732,14.612,34.59,3,2.664,3.028,2.624,6.012-.363,2.017-.962,2.45-2.413,1.954-4.891-1.325-6.63,1.832-13.673,7.667-15.692,3.551-1.229,4.33-3.5,4.5-6.811.133-2.636.1-5.283.194-7.922.047-1.307-.36-1.979-1.6-1.76-2.547.45-4.579-.783-6.6-2.3-2.6-1.952-5.329-3.7-7.954-5.61a1.846,1.846,0,0,0-2.521-.01c-3.478,2.531-7,4.982-10.509,7.463" transform="translate(-25.047 -18.145)" fill="#070706"/>
        <path id="Trazado_721708" data-name="Trazado 721708" d="M85.207,162a2.252,2.252,0,0,1-2.538,2.142c-17.213-.025-34.426,0-51.639-.043-2.8-.007-4.372-1.8-4.575-4.936a32.469,32.469,0,0,1,0-4.258c.2-3.05,1.853-4.792,4.6-4.986.424-.03.852-.009,1.278-.009q46.016,0,92.031-.021c2.373,0,4.755.349,5.456,3.1.8,3.137,1.241,6.557-.74,9.524a3.809,3.809,0,0,1-3.4,1.616q-16.489-.011-32.978.024a2.5,2.5,0,0,1-2.61-2.159,2.565,2.565,0,0,1,2.94-2.063c1.527.1,3.079-.135,4.592.057,2.3.292,2.126-1.284,2.149-2.971.022-1.652.069-2.9-2.048-2.777-3.31.2-6.637.046-9.956.053q-23.872.05-47.745.106c-2.722-.041-5.447-.024-8.167-.143-2.007-.088-1.6,1.466-1.571,2.7.035,1.279-.579,3.072,1.592,3.021,2.721-.064,5.443-.094,8.165-.139,1.017.038,2.034.109,3.051.109q19.367.011,38.735,0c1.49,0,2.973-.1,3.365,2.06m23.862-7.608a18.95,18.95,0,0,1-2.778-.136c-2.5-.478-2.928.9-2.846,3.31.06,1.764.373,2.651,2.116,2.426,1.169-.151,2.358-.108,3.539-.152,5.17.035,10.341,0,15.509.135,2.286.06,1.772-1.622,1.837-3.05.069-1.5.136-2.737-1.868-2.675-5.167.162-10.339.109-15.509.142" transform="translate(-12.882 -64.626)" fill="#080606"/>
        <path id="Trazado_721709" data-name="Trazado 721709" d="M98.225,165.284c-.392-2.163-1.874-2.061-3.365-2.059q-19.367.021-38.734,0c-1.017,0-2.034-.071-3.051-.109l-.02-5.439q23.872-.054,47.745-.106c3.32-.007,6.646.143,9.956-.052,2.118-.125,2.07,1.125,2.048,2.777-.023,1.687.151,3.263-2.149,2.97-1.512-.192-3.064.04-4.591-.057a2.565,2.565,0,0,0-2.939,2.064l-4.9.009" transform="translate(-25.9 -67.915)" fill="#fa4755"/>
        <path id="Trazado_721710" data-name="Trazado 721710" d="M37.785,118.605c2.8,0,5.6.035,8.4-.015,1.384-.024,2.482.49,2.471,2.106s-1.138,2.089-2.5,2.083q-8.531-.04-17.063.009c-1.36.006-2.451-.429-2.44-2.129s1.118-2.1,2.474-2.08c2.886.039,5.773.012,8.659.012Z" transform="translate(-13.011 -51.128)" fill="#020202"/>
        <path id="Trazado_721711" data-name="Trazado 721711" d="M198.084,89.8c-2.545,0-5.089-.015-7.633.006-1.49.013-3.192.08-3.164-2.165.026-2.034,1.615-2.021,3.039-2.014,5.089.027,10.178.01,15.267.011,1.448,0,3.194-.233,3.132,2.142-.061,2.359-1.847,2-3.262,2.014-2.459.02-4.919.006-7.379.006" transform="translate(-91.43 -36.92)" fill="#020202"/>
        <path id="Trazado_721712" data-name="Trazado 721712" d="M203.737,73.344c-2.125,0-4.251.005-6.376,0-1.3,0-2.471-.365-2.527-2.084-.063-1.9,1.156-2.3,2.574-2.3,4.166,0,8.331.007,12.5,0,1.327,0,2.48.4,2.533,2.075.058,1.853-1.145,2.321-2.58,2.316-2.04-.006-4.08,0-6.12,0" transform="translate(-95.113 -29.731)" fill="#0b0d0f"/>
        <path id="Trazado_721713" data-name="Trazado 721713" d="M35.514,89.808c-2.2,0-4.41-.013-6.615.005-1.283.01-2.219-.533-2.246-2.053A1.9,1.9,0,0,1,28.8,85.62q6.87.024,13.74.019a1.9,1.9,0,0,1,2.14,2.156c-.053,1.507-1.037,2.011-2.3,2-2.29-.017-4.58-.005-6.87-.005v.017" transform="translate(-13.011 -36.917)" fill="#020202"/>
        <path id="Trazado_721714" data-name="Trazado 721714" d="M209.289,118.644q2.411,0,4.822,0a2.068,2.068,0,0,1-.017,4.129c-3.3,0-6.6.01-9.9,0a2.066,2.066,0,0,1,.017-4.129q2.538,0,5.076,0" transform="translate(-98.726 -51.155)" fill="#020202"/>
        <path id="Trazado_721715" data-name="Trazado 721715" d="M31.543,73.326a27.258,27.258,0,0,1-3.058-.024A2,2,0,0,1,26.6,71.075a1.878,1.878,0,0,1,1.731-2.069c2.2-.108,4.42-.1,6.625.007a1.871,1.871,0,0,1,1.763,2.036,1.981,1.981,0,0,1-1.866,2.236,30.77,30.77,0,0,1-3.312.026v.016" transform="translate(-12.986 -29.72)" fill="#0b0d0f"/>
        <path id="Trazado_721716" data-name="Trazado 721716" d="M31.772,101.933c1.02,0,2.047-.08,3.059.021a1.971,1.971,0,0,1,1.89,2.205,1.877,1.877,0,0,1-1.738,2.064,65.136,65.136,0,0,1-6.624.016,1.889,1.889,0,0,1-1.758-2.051,1.978,1.978,0,0,1,1.858-2.24,32.818,32.818,0,0,1,3.313-.024v.009" transform="translate(-12.986 -43.933)" fill="#0b0d0f"/>
        <path id="Trazado_721717" data-name="Trazado 721717" d="M214.682,106.3c-.934,0-1.87.06-2.8-.014a2.006,2.006,0,0,1-2.084-2.277,1.918,1.918,0,0,1,2.015-2.052c1.95-.067,3.9-.062,5.854-.009a2.171,2.171,0,0,1,.069,4.336c-1.014.069-2.036.014-3.054.015" transform="translate(-102.42 -43.939)" fill="#0b0d0f"/>
        <path id="Trazado_721718" data-name="Trazado 721718" d="M21.137,15.19l.01,4.477c-3.906.034-7.812.027-11.716.125-1.289.032-1.84-.39-1.794-1.911.082-2.734.07-5.476.005-8.211-.035-1.473.47-1.989,1.788-1.956,3.9.1,7.81.092,11.715.127q-.035,2.026-.07,4.052c-1.079-.441-2.141-.7-2.924.589a2.115,2.115,0,0,0,.064,2.366c.826,1.2,1.872,1.014,2.922.342M13,11.5a1.981,1.981,0,0,0-1.771,2.309c.1,1.151.759,1.919,1.843,1.882a1.888,1.888,0,0,0,1.879-2.146A1.924,1.924,0,0,0,13,11.5" transform="translate(-3.727 -3.325)" fill="#028ecc"/>
        <path id="Trazado_721719" data-name="Trazado 721719" d="M44.4,16.526c-.169,1.257-.791,2.1-1.992,2.058s-1.845-.928-1.8-2.239A1.8,1.8,0,0,1,42.426,14.4c1.187-.018,1.85.765,1.975,2.126" transform="translate(-19.824 -6.209)" fill="#0b0d0f"/>
        <path id="Trazado_721720" data-name="Trazado 721720" d="M30.852,18.085c-1.05.671-2.1.858-2.922-.342a2.114,2.114,0,0,1-.064-2.366c.783-1.29,1.845-1.03,2.924-.589a2.956,2.956,0,0,1,.062,3.3" transform="translate(-13.442 -6.221)" fill="#070706"/>
        <path id="Trazado_721721" data-name="Trazado 721721" d="M104.985,58.047c3.507-2.481,7.031-4.932,10.509-7.463a1.846,1.846,0,0,1,2.522.01c2.625,1.914,5.353,3.658,7.953,5.61,2.022,1.517,4.054,2.75,6.6,2.3,1.242-.22,1.649.453,1.6,1.76-.094,2.639-.061,5.286-.194,7.922-.167,3.309-.947,5.581-4.5,6.811-5.835,2.019-8.992,9.061-7.667,15.691.5,2.479.062,3.929-1.954,4.892-.115-1.729-1.4-2.553-2.359-3.546-8.9-9.193-12.332-20.846-12.515-33.987m13.724,12.2c0-2.55,0-5.1,0-7.65,0-1.573-.366-2.963-2.034-2.931-1.5.029-1.9,1.316-1.9,2.789q0,7.791,0,15.582c0,1.476.394,2.751,1.9,2.78,1.679.032,2.04-1.345,2.035-2.921-.008-2.55,0-5.1,0-7.65m-.025,14.627c-.288-1.216-.865-2.1-2.1-1.964a1.9,1.9,0,0,0-1.721,2.294,1.8,1.8,0,0,0,1.9,1.822c1.244-.036,1.749-.919,1.916-2.152" transform="translate(-51.252 -21.598)" fill="#fbd102"/>
        <path id="Trazado_721722" data-name="Trazado 721722" d="M99.5,64.077c.184,13.142,3.618,24.794,12.515,33.987.961.993,2.244,1.817,2.359,3.546-2.984,2.987-3.013,3.027-6.012.363-9.975-8.859-14.778-20.4-14.612-34.59.028-2.389.663-3.224,2.749-2.875a5.012,5.012,0,0,0,3-.431" transform="translate(-45.763 -27.628)" fill="#f6c300"/>
        <path id="Trazado_721723" data-name="Trazado 721723" d="M160.494,99.382c4.871.5,8.424,4.544,8.564,9.743a9.883,9.883,0,0,1-8.082,10.265c-1-1.559-2.681-2.565-3.044-4.639,1.377.615,2.441.132,3.4-1.053s2.082-2.235,3.04-3.435c1.045-1.308,3.246-2.571,1.38-4.593-1.844-2-3,.418-4.132,1.622-2.532,2.687-2.5,2.729-4.8-.189.405-3.055,2.243-5.269,3.675-7.721" transform="translate(-76.556 -42.851)" fill="#00bd77"/>
        <path id="Trazado_721724" data-name="Trazado 721724" d="M154.541,99.313c-1.432,2.452-3.269,4.666-3.675,7.721-1.085-.749-2.251-1.249-3.165.129-.89,1.34-.187,2.456.731,3.463,1.206,1.324,2.367,2.7,3.547,4.056.363,2.075,2.045,3.081,3.044,4.639-3.98.637-7.01-1.175-9.011-4.836a10.429,10.429,0,0,1,.317-10.907c1.94-3.172,4.667-4.764,8.212-4.265" transform="translate(-70.604 -42.782)" fill="#09a253"/>
        <path id="Trazado_721725" data-name="Trazado 721725" d="M187.934,157.692c5.17-.033,10.342.02,15.509-.142,2-.063,1.937,1.179,1.868,2.675-.066,1.428.448,3.11-1.837,3.05-5.168-.135-10.339-.1-15.509-.135q-.015-2.724-.031-5.448" transform="translate(-91.746 -67.93)" fill="#8c9ba7"/>
        <path id="Trazado_721726" data-name="Trazado 721726" d="M43.715,157.7q.009,2.719.019,5.439c-2.721.045-5.443.075-8.165.139-2.172.051-1.557-1.741-1.592-3.02-.033-1.234-.437-2.788,1.571-2.7,2.719.119,5.444.1,8.167.143" transform="translate(-16.56 -67.931)" fill="#e52e3b"/>
        <path id="Trazado_721727" data-name="Trazado 721727" d="M182.561,157.627q.015,2.724.031,5.448c-1.18.044-2.37,0-3.539.152-1.743.225-2.056-.662-2.116-2.426-.082-2.408.344-3.788,2.846-3.31a18.954,18.954,0,0,0,2.778.136" transform="translate(-86.373 -67.865)" fill="#72828d"/>
        <path id="Trazado_721728" data-name="Trazado 721728" d="M16.411,14.371a1.924,1.924,0,0,1,1.951,2.044,1.888,1.888,0,0,1-1.879,2.146c-1.084.037-1.747-.73-1.843-1.882a1.981,1.981,0,0,1,1.771-2.309" transform="translate(-7.142 -6.196)" fill="#070706"/>
        <path id="Trazado_721729" data-name="Trazado 721729" d="M128.043,77.509c0,2.55-.006,5.1,0,7.65.005,1.576-.356,2.954-2.035,2.921-1.51-.029-1.906-1.3-1.9-2.779q0-7.792,0-15.583c0-1.473.408-2.759,1.9-2.789,1.667-.032,2.038,1.358,2.034,2.931-.006,2.55,0,5.1,0,7.65" transform="translate(-60.586 -28.857)" fill="#070706"/>
        <path id="Trazado_721730" data-name="Trazado 721730" d="M128.094,109.746c-.167,1.234-.672,2.116-1.916,2.152a1.8,1.8,0,0,1-1.9-1.822A1.9,1.9,0,0,1,126,107.782c1.233-.133,1.81.748,2.1,1.964" transform="translate(-60.662 -46.467)" fill="#070706"/>
        <path id="Trazado_721731" data-name="Trazado 721731" d="M154.522,118.936c-1.18-1.354-2.34-2.732-3.547-4.056-.918-1.007-1.62-2.122-.731-3.463.914-1.377,2.08-.878,3.165-.129,2.306,2.918,2.27,2.876,4.8.189,1.135-1.2,2.288-3.622,4.133-1.622,1.865,2.022-.335,3.285-1.381,4.592-.958,1.2-2.074,2.242-3.04,3.435s-2.025,1.669-3.4,1.053" transform="translate(-73.146 -47.037)" fill="#070706"/>
      </g>
    </g>
  </g>
</svg>
