<svg xmlns="http://www.w3.org/2000/svg" xmlns:xlink="http://www.w3.org/1999/xlink" width="169" height="169" viewBox="0 0 169 169">
  <defs>
    <clipPath id="clip-path">
      <rect id="Rect치ngulo_351311" data-name="Rect치ngulo 351311" width="130.813" height="130.952" fill="none"/>
    </clipPath>
  </defs>
  <g id="Grupo_1018497" data-name="Grupo 1018497" transform="translate(7141.499 6426.049)">
    <g id="Grupo_1018329" data-name="Grupo 1018329" transform="translate(-7526.5 -8484.049)">
      <g id="Grupo_159182" data-name="Grupo 159182" transform="translate(385.001 2058)">
        <path id="Uni칩n_12" data-name="Uni칩n 12" d="M84.5,0A84.5,84.5,0,1,1,0,84.5,84.5,84.5,0,0,1,84.5,0Z" transform="translate(0 0)" fill="#cda7ff"/>
      </g>
    </g>
    <g id="Grupo_1018331" data-name="Grupo 1018331" transform="translate(-7125 -6407)">
      <g id="Grupo_1018330" data-name="Grupo 1018330" clip-path="url(#clip-path)">
        <path id="Trazado_721403" data-name="Trazado 721403" d="M94.857,44.424c-.163-1.615.452-2.048,2.164-2.171,10.709-.774,15.277,4.229,14.919,14.829-.464,13.692-.105,27.412-.117,41.12-.006,7.321-4.3,11.62-11.594,11.636-5.36.012-10.722.1-16.079-.049-1.839-.05-1.915.736-1.9,2.15.014,1.375,0,2.411,1.884,2.149a25.328,25.328,0,0,1,3.686-.028,11.424,11.424,0,0,1,1.84.078c4.04.7,5.632,3.892,5.281,10.537a6.216,6.216,0,0,1-6.207,6.23q-23.329.1-46.658,0a6.2,6.2,0,0,1-6.2-6.23c-.045-.965-.013-1.933-.011-2.9.011-5.4,2.3-7.706,7.652-7.719a16.777,16.777,0,0,1,2.633.022c1.986.315,2.547-.431,2.443-2.406-.08-1.491-.459-1.889-1.929-1.866-5.447.084-10.9.05-16.344.03-6.95-.027-11.322-4.4-11.33-11.37q-.025-22.407,0-44.814C19,46.7,23.387,42.357,30.362,42.32a26.05,26.05,0,0,0,3.423-.03c1.763-.244,2.336.518,2.173,2.134.15,1.593-.38,2.411-2.164,2.147a21.164,21.164,0,0,0-3.16-.027c-5.01.022-7.415,2.412-7.418,7.424q-.013,22.146,0,44.292c0,4.871,2.429,7.347,7.225,7.352,13.709.015,27.419-.031,41.128.049,1.8.01,2.342-.368,2.362-2.261.02-1.949-.808-2.029-2.318-2.024-12.83.044-25.661.028-38.49.024-4.336,0-5.69-1.337-5.691-5.618q-.007-19.378,0-38.755c0-5.152,1.195-6.234,6.358-6.318,1.749-.028,2.338.538,2.172,2.157.163,1.62-.424,2.423-2.181,2.131-1.388-.231-2.187,0-2.173,1.849q.139,19.248,0,38.5c-.015,1.9.86,1.818,2.2,1.875,1.522.065,2.138-.234,2.106-1.972-.115-6.5.033-13.009-.093-19.511a5.427,5.427,0,0,1,1.921-4.575c1.039-.933,2.427-1.677,2.38-3.534-.126-4.918-.09-9.839-.119-14.759q0-4.221,0-8.441c.029-6.063.044-12.125.1-18.188.014-1.614-.468-3.016-2.263-2.823-1.646.177-3.928-1.462-4.7,1.954a16.688,16.688,0,0,1-18.19,12.653,16.919,16.919,0,0,1-.182-33.584A16.81,16.81,0,0,1,33.171,17.15c.4,1.675,1.082,2,2.625,1.994,6.667-.015,8.5,1.918,8.518,8.674.012,5.535.054,11.07.083,16.605q0,4.22,0,8.44V64.135l.53.386C47.637,59.2,52.2,58.9,57.253,59.129c6.276.291,6.286.07,5.956-6.265q0-4.22,0-8.44c.029-2.9-.027-5.8.122-8.69.079-1.528-.422-2.028-1.919-2.424-7.149-1.892-11.379-6.643-12.706-13.877A16.558,16.558,0,0,1,56.45,2.749c6.025-3.683,12.236-3.7,18.124.153s8.547,9.556,7.489,16.525C80.976,26.589,76.653,31.3,69.656,33.247c-1.709.476-2.273,1.029-2.173,2.75.163,2.8.094,5.617.123,8.426v8.441c-.028,1.489.027,2.987-.109,4.467s.388,1.942,1.883,1.9c3.682-.1,7.369-.033,11.054-.033,6.311,0,6.311,0,5.984-6.333q0-4.221,0-8.441.044-9.094.09-18.188c.031-4.643,2.516-7.228,7.189-7.068,2.409.083,3.545-.318,4.294-3.009A16.539,16.539,0,0,1,116.572,4.526a16.91,16.91,0,0,1-.7,33.495A16.692,16.692,0,0,1,97.68,25.367c-.77-3.416-3.054-1.776-4.7-1.954-1.8-.193-2.276,1.208-2.262,2.823.053,6.062.068,12.125.1,18.188q0,4.22,0,8.441c-.029,1.4.043,2.815-.111,4.2-.191,1.721.42,2.44,2.145,2.129,1.764-.319,2.154.475,2.138,2.149-.082,8.423.012,16.847-.079,25.269-.018,1.722.454,2.171,2.167,2.191,1.79.021,2.136-.578,2.124-2.23q-.109-14.74.005-29.481c.015-1.736-.476-2.425-2.174-2.107-1.755.328-2.331-.512-2.172-2.123.441-.635-.583-1.755.848-2.12,4.647-1.183,7.679,1.047,7.681,5.759,0,9.931.022,19.863-.021,29.794-.007,1.529-.1,2.564,2.08,2.532,2-.03,2.208-.733,2.194-2.429-.075-9.667-.262-19.342.03-29,.267-8.863-1.806-11.514-10.649-10.825-1.787.139-2.313-.558-2.163-2.152m-23.126,19c-5.709,0-11.419.051-17.126-.034-1.495-.023-1.941.4-1.888,1.895.111,3.07-.027,6.149.062,9.22.037,1.29-.392,1.638-1.638,1.6-3.072-.081-6.151.059-9.22-.062-1.536-.06-1.882.47-1.863,1.92.079,5.708.111,11.419-.014,17.126-.04,1.793.55,2.133,2.2,2.121,9.485-.075,18.973-.161,28.455.042,2.728.058,3.352-.707,3.2-3.286-.214-3.74,1.433-5.212,5.214-5.229,3.249-.014,6.5-.08,9.748.031,1.5.051,1.9-.41,1.887-1.894q-.112-10.8,0-21.606c.016-1.5-.423-1.9-1.9-1.882-5.708.083-11.418.034-17.127.034M92.9,92.961c-4.208,0-8.421.11-12.623-.049-1.927-.073-2.343.575-2.248,2.354a75.69,75.69,0,0,1,0,8.413c-.1,1.735.566,1.993,2.091,1.971,5.7-.083,11.408-.248,17.094.017,8.685.4,10.878-2.24,10.442-10.54-.085-1.618-.32-2.273-2.129-2.211-4.2.145-8.415.046-12.624.046M65.14,126.715c7.471,0,14.942-.038,22.412.023,2.211.018,3.179-.807,3.2-3.092.055-5.307.061-5.368-5.386-5.367-.528,0-1.058.034-1.581-.007a1.392,1.392,0,0,0-1.707,1.114c-.771,2.3-2.589,3.131-4.94,3.123-7.646-.028-15.293-.05-22.939.011-2.626.021-4.674-.669-5.6-3.365-.106-.31-.067-.789-.527-.8-2.271-.038-4.657-.6-6.776.257-1.966.8-1.149,2.919-1.183,4.5-.07,3.214.371,3.594,3.664,3.6q10.679.013,21.357,0m.268-8.441h6.306c6.573,0,6.519,0,6.391-6.588-.029-1.506-.473-1.9-1.929-1.877-5.692.077-11.385.031-17.078.031-6.752,0-6.712,0-6.383,6.847.061,1.267.421,1.633,1.658,1.611,3.678-.069,7.357-.025,11.035-.024m.1-97.052c3.989,0,4.124-.139,4.118-4.256,0-3.912-.224-4.183-3.39-4.185-5.022,0-5.022,0-5.044,4.125-.022,4.195.1,4.317,4.317,4.317m-48.8,4.22c4.327,0,4.4-.069,4.4-4.243,0-3.919-.225-4.2-3.377-4.2-5.032,0-5.032,0-5.057,4.111-.026,4.156.136,4.33,4.039,4.33M114.163,17c-4.439,0-4.439,0-4.446,4.195-.007,4.024.18,4.245,3.6,4.246,4.829,0,4.861-.028,4.839-4.327C118.131,17.132,118,17,114.163,17M25.257,21.34l.123.007c-.1.95-.212,1.9-.31,2.85-.04.391-.339.792.165,1.144,1.056.736,3.606-.153,3.971-1.4a13.655,13.655,0,0,0,.22-4.663c-.127-2.341-1.6-2.472-3.4-2.286-2.3.239-.415,1.7-.733,2.534a5.372,5.372,0,0,0-.039,1.813m80.818,4.322a21.2,21.2,0,0,1-.5-6.746c.027-.6,1.081-1.65-.35-1.846-1.076-.146-2.745-.621-3.205.31a8.814,8.814,0,0,0-.232,7.124c.774,2.018,2.567.441,4.284,1.158m15.794-.032c1.64-.686,3.425.889,4.208-1.123a9.123,9.123,0,0,0-.02-6.657c-.645-1.677-2.269-.756-3.419-.763-1.249-.007-.464,1.022-.406,1.571a21.673,21.673,0,0,1-.363,6.972M73.344,12.586a21.823,21.823,0,0,1,.384,6.72c-.059.6-.839,1.559.109,1.79,1.125.274,2.935.713,3.452-.252a8.556,8.556,0,0,0,.264-7.114c-.768-2.035-2.568-.445-4.209-1.144m-20.6,4.807c.036.325.159,1.1.2,1.878.126,2.418,1.9,2.025,3.387,1.93,2.086-.132.577-1.538.671-2.313.188-1.545-.041-3.15.227-4.673.226-1.291-.205-1.422-1.286-1.462-2.622-.1-3.18.581-3.2,4.64M4.219,21.385c.014.272.032.794.066,1.315.133,2.029.894,3.111,3.245,2.794,2.648-.357.68-1.95.89-2.894.3-1.335.008-2.8.272-4.145.245-1.255-.141-1.442-1.257-1.484-2.635-.1-3.192.564-3.216,4.414M48.455,67.09l-.71-.6c-.667.889-1.3,1.81-2.009,2.659-.7.827-1.479,1.58-2.348,2.5,6.556.451,5.025.714,5.068-4.562M15.01,29.709c.742,1.152.9,2.574,2.009,2.437.73-.09,1.436-1.26,1.369-2.437Zm96.932-.243c.841,1.386.985,2.715,2.123,2.7.734-.011,1.561-1.427,1.347-1.924-.556-1.293-1.895-.315-3.47-.774m3.98-16.491c-.832-1.386-.98-2.713-2.117-2.7-.734.01-1.56,1.428-1.347,1.924.556,1.293,1.895.315,3.464.773m-97.359-.3c-.416-1.094-.723-2.434-1.729-2.383-.879.044-1.39,1.287-1.521,2.383ZM63.6,8.479c1.394.06,2.389.309,3.4-.163-.225-1-.7-2.2-1.471-2.246C64.426,6,64.256,7.374,63.6,8.479m3.439,17.037c-1.217-.05-2.212-.3-3.322.214.53.9.7,2.27,1.809,2.2.778-.047,1.238-1.248,1.513-2.417M22.011,32.892c1.8-1.144,3.1-1.675,3.778-3.049-2.355-.84-2.875.762-3.778,3.049m52.51-7.187c-2.577-.923-3.15.574-3.666,2.477a7.722,7.722,0,0,0,3.666-2.477M22.057,10.014c.963,1.732,1.425,3.59,3.833,2.4a7.255,7.255,0,0,0-3.833-2.4m97.033-.008c.979,1.74,1.435,3.58,3.851,2.5a6.646,6.646,0,0,0-3.851-2.5M70.575,5.8C71.542,7.527,72,9.364,74.488,8.259A7.506,7.506,0,0,0,70.575,5.8m52.38,24.06c-2.427-.8-3.089.582-3.546,2.646a7.7,7.7,0,0,0,3.546-2.646M7.751,29.9a8.248,8.248,0,0,0,3.369,2.4c-.181-2.27-1.1-3.088-3.369-2.4M59.594,28.1c-.619-2.839-.619-2.839-3.07-2.271a6.908,6.908,0,0,0,3.07,2.271m45.269-15.513c2.322.6,3.256-.2,3.209-2.414a7.137,7.137,0,0,0-3.209,2.414M11.141,10.076a7.588,7.588,0,0,0-3.312,2.5c2.593.245,2.593.245,3.312-2.5M56.373,8.26c2.346.852,3.063-.206,3.27-2.335a7.5,7.5,0,0,0-3.27,2.335m48.519,21.7a7.288,7.288,0,0,0,3.127,2.285c-.383-2.69-.383-2.69-3.127-2.285" transform="translate(0 0)" fill="#020202"/>
        <path id="Trazado_721404" data-name="Trazado 721404" d="M60.765,84.17v8.441H56.722c.165-1.619-.423-2.186-2.173-2.157-5.163.084-6.357,1.166-6.357,6.318q0,19.377,0,38.755c0,4.281,1.355,5.617,5.691,5.618,12.831,0,25.661.02,38.492-.024,1.509,0,2.338.075,2.317,2.024-.02,1.893-.56,2.271-2.362,2.261-13.708-.08-27.418-.034-41.127-.049-4.8-.005-7.222-2.481-7.225-7.352q-.016-22.146,0-44.292c0-5.012,2.409-7.4,7.418-7.424a21.1,21.1,0,0,1,3.16.026c1.784.264,2.314-.554,2.164-2.147h4.043" transform="translate(-20.765 -39.747)" fill="#e5e8ec"/>
        <path id="Trazado_721405" data-name="Trazado 721405" d="M176.114,84.17c-.15,1.594.376,2.291,2.163,2.152,8.843-.69,10.916,1.962,10.649,10.825-.291,9.659-.105,19.334-.03,29,.013,1.7-.2,2.4-2.2,2.429-2.179.032-2.086-1-2.079-2.532.043-9.931.025-19.863.021-29.794,0-4.712-3.034-6.942-7.681-5.759-1.431.365-.407,1.485-.848,2.12h-4.043V84.17h4.043" transform="translate(-81.257 -39.747)" fill="#e5e8ec"/>
        <path id="Trazado_721406" data-name="Trazado 721406" d="M128.1,92.612V84.171h4.043c-.115,1.522.3,2.325,2.114,2.162a36.476,36.476,0,0,1,6.5,0c1.816.164,2.229-.64,2.114-2.162h4.043v8.441h-4.043c.125-1.536-.324-2.307-2.12-2.15a37.174,37.174,0,0,1-6.485,0c-1.8-.158-2.244.613-2.12,2.15H128.1" transform="translate(-60.491 -39.748)" fill="#e5e8ec"/>
        <path id="Trazado_721407" data-name="Trazado 721407" d="M84.12,92.611q0-4.22,0-8.44h4.044c-.116,1.522.3,2.325,2.114,2.162a36.47,36.47,0,0,1,6.5,0c1.816.164,2.23-.64,2.114-2.162h4.044q0,4.22,0,8.44H98.888c.127-1.538-.325-2.306-2.119-2.149a37.267,37.267,0,0,1-6.484,0c-1.794-.158-2.246.611-2.119,2.149H84.12" transform="translate(-39.724 -39.748)" fill="#e5e8ec"/>
        <path id="Trazado_721408" data-name="Trazado 721408" d="M146.464,82.232c.116,1.522-.3,2.325-2.114,2.162a36.472,36.472,0,0,0-6.5,0c-1.816.164-2.23-.64-2.114-2.162-.125-1.534.32-2.307,2.117-2.148a36.849,36.849,0,0,0,6.488,0c1.8-.159,2.242.614,2.118,2.148" transform="translate(-64.091 -37.808)"/>
        <path id="Trazado_721409" data-name="Trazado 721409" d="M102.49,82.232c.116,1.522-.3,2.325-2.114,2.162a36.472,36.472,0,0,0-6.5,0c-1.816.164-2.23-.64-2.114-2.162-.125-1.534.32-2.307,2.117-2.148a36.849,36.849,0,0,0,6.488,0c1.8-.159,2.242.614,2.118,2.148" transform="translate(-43.325 -37.808)"/>
        <path id="Trazado_721410" data-name="Trazado 721410" d="M107.559,120.138c5.709,0,11.419.049,17.127-.033,1.477-.022,1.916.378,1.9,1.881q-.116,10.8,0,21.606c.015,1.484-.388,1.945-1.888,1.894-3.246-.111-6.5-.045-9.748-.031-3.781.016-5.428,1.488-5.214,5.229.148,2.579-.477,3.344-3.2,3.286-9.481-.2-18.97-.117-28.456-.042-1.653.013-2.242-.327-2.2-2.121.126-5.706.093-11.418.015-17.126-.02-1.45.326-1.979,1.862-1.919,3.07.12,6.149-.019,9.221.062,1.246.033,1.674-.315,1.637-1.6-.088-3.072.05-6.151-.062-9.221-.054-1.489.393-1.917,1.887-1.895,5.708.086,11.418.034,17.127.034m-6.071,16.877c-6.5,0-13,.081-19.5-.051-1.862-.038-1.874.787-1.89,2.172-.017,1.43.1,2.16,1.912,2.148q19.237-.137,38.474,0c1.858.014,1.873-.786,1.889-2.171.016-1.429-.092-2.185-1.913-2.149-6.322.129-12.648.05-18.972.05m6.343-8.44c-4.391,0-8.785.106-13.17-.051-1.843-.065-1.906.749-1.9,2.159s.054,2.186,1.9,2.162q12.906-.17,25.816,0c1.837.024,1.9-.749,1.9-2.158s-.048-2.232-1.9-2.162c-4.209.16-8.428.051-12.643.051M81.9,149.643c1.449.116,2.791.338,2.5-1.839-.173-1.279.3-2.7-1.91-2.389-1.277.181-2.726-.294-2.379,1.911.194,1.232-.422,2.908,1.791,2.318m8.629-.042c1.4.27,2.553.264,2.313-1.829-.153-1.327.2-2.639-1.946-2.364-1.323.17-2.661-.2-2.354,1.949.183,1.281-.307,2.857,1.988,2.244m8.885.034c2.166.577,1.68-.995,1.863-2.277.305-2.146-1.033-1.779-2.355-1.949-2.149-.276-1.786,1.04-1.947,2.364-.258,2.118.962,2.043,2.439,1.863" transform="translate(-35.828 -56.716)" fill="#fee9a6"/>
        <path id="Trazado_721411" data-name="Trazado 721411" d="M162.7,176.089c4.208,0,8.42.1,12.624-.046,1.808-.062,2.044.593,2.129,2.211.436,8.3-1.756,10.944-10.441,10.54-5.687-.265-11.4-.1-17.095-.017-1.524.023-2.191-.236-2.091-1.971a75.681,75.681,0,0,0,0-8.412c-.1-1.779.321-2.427,2.247-2.354,4.2.159,8.415.05,12.624.05m-6.447,6.428c.368-1.66-.132-2.351-1.974-2.269-1.545.068-2.36.2-2.256,2.086.085,1.542.208,2.379,2.09,2.249,1.5-.1,2.65-.116,2.139-2.066m6.324-2.156c-1.886-.485-2.037.537-2.111,2.1-.085,1.813.609,2.074,2.217,2.127,1.808.059,2.09-.609,2.124-2.222.036-1.768-.515-2.409-2.23-2.008m8.154,4.135c1.449.12,2.775.322,2.492-1.839-.168-1.283.282-2.69-1.909-2.388-1.28.176-2.713-.277-2.378,1.911.189,1.237-.4,2.893,1.8,2.316" transform="translate(-69.804 -83.128)" fill="#fbd66f"/>
        <path id="Trazado_721412" data-name="Trazado 721412" d="M100.912,232.424q-10.679,0-21.357,0c-3.293,0-3.735-.384-3.665-3.6.035-1.579-.784-3.7,1.184-4.5,2.119-.859,4.505-.3,6.776-.257.46.008.421.487.527.8.923,2.7,2.971,3.386,5.6,3.365,7.646-.061,15.293-.04,22.939-.012,2.35.009,4.169-.82,4.939-3.123a1.393,1.393,0,0,1,1.707-1.114c.524.042,1.054.007,1.581.007,5.447,0,5.442.06,5.386,5.367-.024,2.284-.992,3.11-3.2,3.092-7.47-.061-14.941-.023-22.411-.023" transform="translate(-35.771 -105.709)" fill="#959da8"/>
        <path id="Trazado_721413" data-name="Trazado 721413" d="M64.233,100.164h4.043c.028,4.92-.008,9.842.119,14.759.047,1.858-1.341,2.6-2.38,3.535a5.429,5.429,0,0,0-1.921,4.575c.127,6.5-.021,13.009.094,19.511.031,1.739-.585,2.038-2.106,1.973-1.344-.058-2.218.021-2.2-1.875q.143-19.248,0-38.5c-.013-1.849.784-2.08,2.173-1.849,1.756.292,2.343-.511,2.181-2.131" transform="translate(-28.276 -47.3)" fill="#68d5f3"/>
        <path id="Trazado_721414" data-name="Trazado 721414" d="M112.475,216.526c-3.679,0-7.358-.044-11.035.024-1.237.023-1.6-.344-1.658-1.61-.328-6.849-.368-6.847,6.383-6.847,5.693,0,11.386.045,17.078-.031,1.457-.02,1.9.37,1.93,1.876.127,6.589.181,6.588-6.392,6.588h-6.306" transform="translate(-47.067 -98.252)" fill="#a9b1bc"/>
        <path id="Trazado_721415" data-name="Trazado 721415" d="M171.941,100.165h4.042c-.158,1.61.417,2.451,2.173,2.123,1.7-.318,2.19.372,2.174,2.107q-.129,14.74-.006,29.481c.012,1.651-.335,2.251-2.124,2.23-1.712-.021-2.184-.469-2.166-2.191.09-8.423,0-16.847.078-25.269.016-1.675-.374-2.468-2.138-2.149-1.725.312-2.335-.408-2.145-2.129.154-1.388.083-2.8.111-4.2" transform="translate(-81.127 -47.301)" fill="#69d5f3"/>
        <path id="Trazado_721416" data-name="Trazado 721416" d="M98.888,100.164h4.045c.33,6.335.319,6.556-5.956,6.265-5.051-.234-9.617.073-12.327,5.392l-.53-.386V100.163h4.045c-.119,1.532.326,2.314,2.123,2.158a37.7,37.7,0,0,1,6.476,0c1.8.156,2.243-.626,2.123-2.158" transform="translate(-39.724 -47.3)" fill="#68d4f2"/>
        <path id="Trazado_721417" data-name="Trazado 721417" d="M142.747,100.165h4.043c.327,6.333.327,6.333-5.984,6.333-3.685,0-7.371-.069-11.054.033-1.495.042-2.02-.408-1.883-1.9s.081-2.977.109-4.466h4.044c-.12,1.533.325,2.315,2.123,2.159a37.612,37.612,0,0,1,6.478,0c1.8.156,2.243-.626,2.123-2.159" transform="translate(-60.374 -47.3)" fill="#69d5f3"/>
        <path id="Trazado_721418" data-name="Trazado 721418" d="M120.254,32.657c-4.216,0-4.338-.122-4.316-4.317.022-4.128.022-4.128,5.044-4.125,3.166,0,3.385.272,3.39,4.185.006,4.118-.128,4.256-4.118,4.256" transform="translate(-54.748 -11.435)" fill="#67d2f0"/>
        <path id="Trazado_721419" data-name="Trazado 721419" d="M28.029,40.653c-3.9,0-4.064-.174-4.039-4.33.025-4.115.025-4.115,5.057-4.111,3.151,0,3.374.279,3.377,4.2,0,4.174-.068,4.243-4.4,4.243" transform="translate(-11.328 -15.211)" fill="#67d2f0"/>
        <path id="Trazado_721420" data-name="Trazado 721420" d="M212.333,32.212c3.841,0,3.968.131,3.988,4.115.022,4.3-.011,4.328-4.84,4.327-3.414,0-3.6-.223-3.595-4.246.007-4.195.007-4.195,4.446-4.195" transform="translate(-98.17 -15.211)" fill="#67d2f0"/>
        <path id="Trazado_721421" data-name="Trazado 721421" d="M47.5,36.492a5.386,5.386,0,0,1,.038-1.813c.317-.83-1.572-2.3.733-2.534,1.793-.186,3.271-.054,3.4,2.286a13.643,13.643,0,0,1-.22,4.663c-.365,1.246-2.915,2.134-3.971,1.4-.5-.351-.205-.753-.165-1.143.1-.951.205-1.9.309-2.85l-.123-.007" transform="translate(-22.248 -15.152)" fill="#66cfec"/>
        <path id="Trazado_721422" data-name="Trazado 721422" d="M196.581,40.71c-1.716-.717-3.509.86-4.284-1.157a8.816,8.816,0,0,1,.232-7.124c.46-.932,2.129-.457,3.205-.31,1.431.195.378,1.247.351,1.846a21.176,21.176,0,0,0,.5,6.745" transform="translate(-90.506 -15.048)" fill="#66cfec"/>
        <path id="Trazado_721423" data-name="Trazado 721423" d="M230.91,40.7a21.659,21.659,0,0,0,.364-6.972c-.059-.548-.843-1.578.406-1.571,1.15.007,2.774-.913,3.419.763a9.125,9.125,0,0,1,.02,6.657c-.784,2.011-2.569.436-4.208,1.123" transform="translate(-109.042 -15.069)" fill="#66cfec"/>
        <path id="Trazado_721424" data-name="Trazado 721424" d="M138.969,23.847c1.641.7,3.441-.891,4.209,1.143a8.559,8.559,0,0,1-.264,7.115c-.516.965-2.327.527-3.452.252-.947-.231-.167-1.186-.109-1.79a21.839,21.839,0,0,0-.384-6.72" transform="translate(-65.625 -11.261)" fill="#66cfec"/>
        <path id="Trazado_721425" data-name="Trazado 721425" d="M99.939,28.8c.017-4.059.575-4.738,3.2-4.64,1.08.041,1.512.17,1.286,1.462-.268,1.523-.039,3.128-.227,4.673-.094.775,1.415,2.181-.67,2.313-1.49.094-3.262.489-3.387-1.93-.04-.779-.164-1.553-.2-1.878" transform="translate(-47.194 -11.403)" fill="#66cfec"/>
        <path id="Trazado_721426" data-name="Trazado 721426" d="M7.995,36.561c.022-3.85.58-4.515,3.216-4.414,1.115.043,1.5.23,1.257,1.485-.264,1.348.025,2.809-.271,4.144-.21.944,1.758,2.536-.89,2.894-2.351.317-3.112-.764-3.245-2.793-.034-.521-.053-1.043-.066-1.315" transform="translate(-3.775 -15.176)" fill="#66cfec"/>
        <path id="Trazado_721427" data-name="Trazado 721427" d="M87.276,126.585c-.042,5.276,1.488,5.012-5.067,4.562.869-.917,1.652-1.67,2.348-2.5.714-.849,1.343-1.77,2.009-2.659l.711.6" transform="translate(-38.821 -59.496)" fill="#f1694d"/>
        <path id="Trazado_721428" data-name="Trazado 721428" d="M28.439,56.29h3.377c.068,1.177-.639,2.348-1.369,2.438-1.107.137-1.267-1.286-2.009-2.438" transform="translate(-13.43 -26.582)" fill="#62c8e4"/>
        <path id="Trazado_721429" data-name="Trazado 721429" d="M212.1,55.831c1.575.46,2.914-.519,3.47.774.214.5-.612,1.913-1.347,1.924-1.138.016-1.282-1.313-2.123-2.7" transform="translate(-100.16 -26.365)" fill="#62c8e4"/>
        <path id="Trazado_721430" data-name="Trazado 721430" d="M216.512,22.17c-1.57-.458-2.909.52-3.465-.773-.213-.5.613-1.914,1.347-1.924,1.137-.016,1.285,1.311,2.117,2.7" transform="translate(-100.591 -9.196)" fill="#62c8e4"/>
        <path id="Trazado_721431" data-name="Trazado 721431" d="M32.264,21.889H29.015c.13-1.1.642-2.339,1.521-2.383,1.006-.051,1.313,1.289,1.728,2.383" transform="translate(-13.702 -9.21)" fill="#62c8e4"/>
        <path id="Trazado_721432" data-name="Trazado 721432" d="M120.5,13.907c.657-1.1.828-2.476,1.934-2.409.775.046,1.247,1.244,1.471,2.246-1.016.472-2.011.223-3.405.163" transform="translate(-56.905 -5.429)" fill="#62c8e4"/>
        <path id="Trazado_721433" data-name="Trazado 721433" d="M124.048,48.252c-.274,1.169-.735,2.37-1.513,2.417-1.108.066-1.279-1.3-1.809-2.2,1.11-.514,2.105-.263,3.322-.214" transform="translate(-57.01 -22.737)" fill="#62c8e4"/>
        <path id="Trazado_721434" data-name="Trazado 721434" d="M41.7,59.39c.9-2.287,1.422-3.89,3.778-3.049C44.8,57.715,43.5,58.246,41.7,59.39" transform="translate(-19.694 -26.498)" fill="#62c8e4"/>
        <path id="Trazado_721435" data-name="Trazado 721435" d="M137.918,48.453a7.731,7.731,0,0,1-3.666,2.477c.516-1.9,1.088-3.4,3.666-2.477" transform="translate(-63.397 -22.749)" fill="#62c8e4"/>
        <path id="Trazado_721436" data-name="Trazado 721436" d="M41.791,18.973a7.251,7.251,0,0,1,3.833,2.4c-2.408,1.192-2.87-.665-3.833-2.4" transform="translate(-19.735 -8.96)" fill="#62c8e4"/>
        <path id="Trazado_721437" data-name="Trazado 721437" d="M225.646,18.958a6.649,6.649,0,0,1,3.852,2.5c-2.417,1.078-2.873-.763-3.852-2.5" transform="translate(-106.556 -8.952)" fill="#62c8e4"/>
        <path id="Trazado_721438" data-name="Trazado 721438" d="M133.722,10.992a7.5,7.5,0,0,1,3.913,2.458c-2.491,1.1-2.946-.733-3.913-2.458" transform="translate(-63.147 -5.191)" fill="#62c8e4"/>
        <path id="Trazado_721439" data-name="Trazado 721439" d="M229.8,56.374a7.7,7.7,0,0,1-3.547,2.646c.458-2.065,1.119-3.445,3.547-2.646" transform="translate(-106.841 -26.513)" fill="#62c8e4"/>
        <path id="Trazado_721440" data-name="Trazado 721440" d="M14.686,56.445c2.272-.693,3.188.125,3.369,2.4a8.247,8.247,0,0,1-3.369-2.4" transform="translate(-6.935 -26.542)" fill="#62c8e4"/>
        <path id="Trazado_721441" data-name="Trazado 721441" d="M110.169,50.939a6.9,6.9,0,0,1-3.071-2.27c2.452-.569,2.452-.569,3.071,2.27" transform="translate(-50.575 -22.842)" fill="#62c8e4"/>
        <path id="Trazado_721442" data-name="Trazado 721442" d="M198.689,21.684a7.136,7.136,0,0,1,3.209-2.413c.047,2.215-.888,3.013-3.209,2.413" transform="translate(-93.826 -9.1)" fill="#62c8e4"/>
        <path id="Trazado_721443" data-name="Trazado 721443" d="M18.146,19.091c-.719,2.747-.719,2.747-3.312,2.5a7.588,7.588,0,0,1,3.312-2.5" transform="translate(-7.005 -9.015)" fill="#62c8e4"/>
        <path id="Trazado_721444" data-name="Trazado 721444" d="M106.813,13.56a7.493,7.493,0,0,1,3.27-2.335c-.207,2.129-.924,3.187-3.27,2.335" transform="translate(-50.44 -5.301)" fill="#62c8e4"/>
        <path id="Trazado_721445" data-name="Trazado 721445" d="M198.745,56.584c2.744-.4,2.744-.4,3.127,2.285a7.288,7.288,0,0,1-3.127-2.285" transform="translate(-93.853 -26.628)" fill="#62c8e4"/>
        <path id="Trazado_721446" data-name="Trazado 721446" d="M146.464,98.225c.12,1.533-.326,2.315-2.123,2.159a37.613,37.613,0,0,0-6.478,0c-1.8.156-2.242-.626-2.123-2.159-.125-1.536.323-2.307,2.12-2.149a37.164,37.164,0,0,0,6.485,0c1.8-.158,2.244.613,2.12,2.149" transform="translate(-64.091 -45.36)"/>
        <path id="Trazado_721447" data-name="Trazado 721447" d="M102.489,98.224c.119,1.532-.326,2.314-2.123,2.158a37.7,37.7,0,0,0-6.476,0c-1.8.156-2.242-.626-2.123-2.158-.127-1.537.325-2.306,2.119-2.149a37.264,37.264,0,0,0,6.484,0c1.794-.158,2.246.611,2.119,2.149" transform="translate(-43.326 -45.36)"/>
        <path id="Trazado_721448" data-name="Trazado 721448" d="M105.268,152.1c6.324,0,12.651.079,18.972-.05,1.821-.037,1.93.719,1.913,2.149-.016,1.384-.032,2.184-1.889,2.171q-19.236-.143-38.473,0c-1.817.013-1.929-.718-1.913-2.147.016-1.385.028-2.21,1.89-2.172,6.5.132,13,.051,19.5.051" transform="translate(-39.609 -71.801)"/>
        <path id="Trazado_721449" data-name="Trazado 721449" d="M122.94,136.107c4.215,0,8.434.109,12.643-.05,1.85-.071,1.9.761,1.9,2.162s-.065,2.182-1.9,2.158q-12.906-.169-25.816,0c-1.844.024-1.9-.762-1.9-2.162s.06-2.224,1.9-2.158c4.385.156,8.78.05,13.17.05" transform="translate(-50.938 -64.248)"/>
        <path id="Trazado_721450" data-name="Trazado 721450" d="M85.64,172.252c-2.213.59-1.6-1.086-1.792-2.318-.347-2.2,1.1-1.73,2.379-1.911,2.209-.313,1.737,1.111,1.909,2.389.294,2.178-1.048,1.955-2.5,1.84" transform="translate(-39.571 -79.324)"/>
        <path id="Trazado_721451" data-name="Trazado 721451" d="M101.821,172.21c-2.294.613-1.806-.962-1.988-2.244-.306-2.145,1.032-1.779,2.354-1.949,2.148-.276,1.793,1.037,1.946,2.364.241,2.093-.915,2.1-2.313,1.829" transform="translate(-47.123 -79.325)"/>
        <path id="Trazado_721452" data-name="Trazado 721452" d="M118.259,172.244c-1.478.18-2.7.256-2.439-1.863.161-1.324-.2-2.64,1.947-2.364,1.323.17,2.661-.2,2.355,1.949-.183,1.283.3,2.854-1.863,2.277" transform="translate(-54.677 -79.325)"/>
        <path id="Trazado_721453" data-name="Trazado 721453" d="M160.015,186.281c.511,1.95-.64,1.963-2.139,2.066-1.883.13-2-.707-2.09-2.249-.1-1.884.71-2.018,2.255-2.086,1.842-.081,2.342.61,1.974,2.269" transform="translate(-73.562 -86.892)"/>
        <path id="Trazado_721454" data-name="Trazado 721454" d="M173.894,184.122c1.715-.4,2.266.24,2.23,2.008-.033,1.614-.316,2.282-2.124,2.222-1.609-.053-2.3-.314-2.217-2.127.073-1.566.225-2.589,2.111-2.1" transform="translate(-81.118 -86.89)"/>
        <path id="Trazado_721455" data-name="Trazado 721455" d="M189.587,188.245c-2.2.576-1.607-1.08-1.8-2.316-.335-2.188,1.1-1.735,2.378-1.911,2.192-.3,1.742,1.106,1.91,2.388.283,2.161-1.043,1.959-2.492,1.839" transform="translate(-88.657 -86.879)"/>
      </g>
    </g>
  </g>
</svg>
