<svg xmlns="http://www.w3.org/2000/svg" xmlns:xlink="http://www.w3.org/1999/xlink" width="376.853" height="331.256" viewBox="0 0 376.853 331.256">
  <defs>
    <clipPath id="clip-path">
      <rect id="Rectángulo_351222" data-name="Rectángulo 351222" width="338.309" height="306.818" fill="none"/>
    </clipPath>
    <clipPath id="clip-path-3">
      <rect id="Rectángulo_351220" data-name="Rectángulo 351220" width="210.942" height="105.83" fill="none"/>
    </clipPath>
  </defs>
  <g id="Grupo_1018495" data-name="Grupo 1018495" transform="translate(10171.93 6686.181)">
    <path id="Polígono_2" data-name="Polígono 2" d="M149.223,35.931a24,24,0,0,1,41.553,0l128.4,222.055A24,24,0,0,1,298.4,294H41.6a24,24,0,0,1-20.777-36.014Z" transform="translate(-10150.889 -6686.181)" fill="#bcf987"/>
    <path id="Trazado_721127" data-name="Trazado 721127" d="M118.73,15.45C126.61-.167,147.359.456,156.1,16.571L277.566,240.484c8.752,16.134-1.092,35.692-17.714,35.193L28.9,268.752c-16.622-.5-27.546-20.679-19.657-36.314Z" transform="translate(-10176.914 -6387.475) rotate(-82)" fill="#cda7ff"/>
    <g id="Grupo_1018281" data-name="Grupo 1018281" transform="translate(-10133.386 -6661.743)">
      <g id="Grupo_1018280" data-name="Grupo 1018280" clip-path="url(#clip-path)">
        <g id="Grupo_1018279" data-name="Grupo 1018279">
          <g id="Grupo_1018278" data-name="Grupo 1018278" clip-path="url(#clip-path)">
            <path id="Trazado_721128" data-name="Trazado 721128" d="M141.764,110.371H56.628c-4.239,0-6.536-3.34-5.112-7.4L75.437,34.72a10.7,10.7,0,0,1,9.5-6.544h80.629c3.962,0,6.412,2.937,5.438,6.544l-19.81,68.251a10.292,10.292,0,0,1-9.43,7.4" transform="translate(49.832 27.481)" fill="#af9810"/>
            <rect id="Rectángulo_351188" data-name="Rectángulo 351188" width="108.569" height="77.251" transform="matrix(0.252, -0.968, 0.968, 0.252, 116.967, 105.078)" fill="#bcbec0"/>
            <rect id="Rectángulo_351189" data-name="Rectángulo 351189" width="108.568" height="77.25" transform="translate(114.626 106.517) rotate(-68.52)" fill="#d1d3d4"/>
            <path id="Trazado_721129" data-name="Trazado 721129" d="M126.8,133.642,57.125,96.9l54.11-94.122,66.971,38.5Z" transform="translate(55.715 2.711)" fill="#e6e7e8"/>
            <rect id="Rectángulo_351190" data-name="Rectángulo 351190" width="3.302" height="65.261" transform="translate(168.001 17.565) rotate(-60.2)" fill="#bcbec0"/>
            <rect id="Rectángulo_351191" data-name="Rectángulo 351191" width="3.303" height="65.262" transform="translate(163.984 27.064) rotate(-60.17)" fill="#bcbec0"/>
            <rect id="Rectángulo_351192" data-name="Rectángulo 351192" width="3.303" height="65.262" transform="translate(156.632 36.579) rotate(-60.171)" fill="#bcbec0"/>
            <rect id="Rectángulo_351193" data-name="Rectángulo 351193" width="3.303" height="65.261" transform="matrix(0.497, -0.868, 0.868, 0.497, 151.668, 46.094)" fill="#bcbec0"/>
            <rect id="Rectángulo_351194" data-name="Rectángulo 351194" width="3.303" height="65.262" transform="matrix(0.497, -0.868, 0.868, 0.497, 146.163, 55.607)" fill="#bcbec0"/>
            <rect id="Rectángulo_351195" data-name="Rectángulo 351195" width="3.302" height="65.262" transform="translate(139.532 65.121) rotate(-60.171)" fill="#bcbec0"/>
            <path id="Trazado_721130" data-name="Trazado 721130" d="M82.287,38.29v-2.2a5.89,5.89,0,0,0-5.873-5.871H55.866a5.89,5.89,0,0,0-5.873,5.871v64.587A7.729,7.729,0,0,0,57.7,108.38h44.769V38.29Z" transform="translate(48.759 29.471)" fill="#f9ed32"/>
            <path id="Trazado_721131" data-name="Trazado 721131" d="M118.027,34.3H76.559v70.09h41.468a7.727,7.727,0,0,0,7.706-7.706V42.01a7.727,7.727,0,0,0-7.706-7.706" transform="translate(74.669 33.457)" fill="#e0ce2f"/>
            <rect id="Rectángulo_351196" data-name="Rectángulo 351196" width="23.854" height="9.908" transform="translate(102.422 65.191)" fill="#fff"/>
            <rect id="Rectángulo_351197" data-name="Rectángulo 351197" width="85.57" height="1.834" transform="translate(7.522 125.551) rotate(-27.077)" fill="#939598"/>
            <path id="Trazado_721132" data-name="Trazado 721132" d="M80.422,44.668,4.23,83.619l.849,1.659,110.286,27.743Z" transform="translate(4.126 43.565)" fill="#a7a9aa"/>
            <path id="Trazado_721133" data-name="Trazado 721133" d="M4.66,65.227l34.5,67.483L115.351,93.76l-.4-.792Z" transform="translate(4.545 63.617)" fill="#bcbec0"/>
            <rect id="Rectángulo_351198" data-name="Rectángulo 351198" width="85.572" height="2.446" transform="matrix(0.891, -0.455, 0.455, 0.891, 43.692, 196.303)" fill="#939598"/>
            <rect id="Rectángulo_351199" data-name="Rectángulo 351199" width="94.651" height="7.642" transform="matrix(0.89, -0.455, 0.455, 0.89, 0, 120.812)" fill="#bcbec0"/>
            <rect id="Rectángulo_351200" data-name="Rectángulo 351200" width="94.651" height="7.642" transform="translate(40.775 200.572) rotate(-27.077)" fill="#bcbec0"/>
            <path id="Trazado_721134" data-name="Trazado 721134" d="M69.233,75.081l-51.439,26.3L27.674,120.7,99.823,83.822l-.612-1.2Z" transform="translate(17.355 73.228)" fill="#939598"/>
            <path id="Trazado_721135" data-name="Trazado 721135" d="M64.545,69.721,43.835,80.309,73.813,87.85Z" transform="translate(42.753 68)" fill="#7e8082"/>
            <path id="Trazado_721136" data-name="Trazado 721136" d="M62.42,70.853,44.974,79.771l25.252,6.353Z" transform="translate(43.864 69.104)" fill="#bcbec0"/>
            <path id="Trazado_721137" data-name="Trazado 721137" d="M70.294,75.368,19.013,101.584,27.5,118.19,96.228,83.055l-.681-1.335Z" transform="translate(18.544 73.507)" fill="#bcbec0"/>
            <path id="Trazado_721138" data-name="Trazado 721138" d="M62.42,70.853,44.974,79.771l25.252,6.353Z" transform="translate(43.864 69.104)" fill="#a7a9aa"/>
            <path id="Trazado_721139" data-name="Trazado 721139" d="M70.294,75.368,19.013,101.584,27.5,118.19,96.228,83.055l-.681-1.335Z" transform="translate(18.544 73.507)" fill="#bcbec0"/>
            <rect id="Rectángulo_351201" data-name="Rectángulo 351201" width="18.518" height="3.056" transform="matrix(0.89, -0.455, 0.455, 0.89, 67.295, 168.818)" fill="#6d6e71"/>
            <path id="Trazado_721140" data-name="Trazado 721140" d="M81.51,77.3,71.629,57.973,24.407,82.113l31.961,8.04Z" transform="translate(23.805 56.542)" fill="#7e8082"/>
            <path id="Trazado_721141" data-name="Trazado 721141" d="M21.669,102.264l47.007-24.03-31.961-8.04L11.788,82.937Z" transform="translate(11.497 68.462)" fill="#939598"/>
            <path id="Trazado_721142" data-name="Trazado 721142" d="M77.993,75.709,69.505,59.1,25.547,81.576l27.459,6.908Z" transform="translate(24.916 57.646)" fill="#bcbec0"/>
            <path id="Trazado_721143" data-name="Trazado 721143" d="M21.5,99.749,65.237,77.388,37.778,70.481,13.007,83.144Z" transform="translate(12.686 68.741)" fill="#bcbec0"/>
            <path id="Trazado_721144" data-name="Trazado 721144" d="M77.993,75.709,69.505,59.1,25.547,81.576l27.459,6.908Z" transform="translate(24.916 57.646)" fill="#a7a9aa"/>
            <path id="Trazado_721145" data-name="Trazado 721145" d="M21.5,99.749,65.237,77.388,37.778,70.481,13.007,83.144Z" transform="translate(12.686 68.741)" fill="#bcbec0"/>
            <path id="Trazado_721146" data-name="Trazado 721146" d="M42.616,72.169l-1.393-2.722-9.752,4.986,4.5,1.132Z" transform="translate(30.695 67.733)" fill="#58595b"/>
            <path id="Trazado_721147" data-name="Trazado 721147" d="M29.454,78.138,39.3,73.1l-4.5-1.134-6.738,3.445Z" transform="translate(27.368 70.194)" fill="#6d6e71"/>
            <rect id="Rectángulo_351202" data-name="Rectángulo 351202" width="79.109" height="8.255" transform="translate(12.089 125.277) rotate(-27.078)" fill="#808285"/>
            <path id="Trazado_721148" data-name="Trazado 721148" d="M56.8,44.524,23.441,61.579l-1.264-2.473a.3.3,0,0,0-.4-.13L5.876,67.1a.3.3,0,0,0-.132.4l1.4,2.74,3.346,6.544,9.454,18.493a.3.3,0,0,0,.4.13l49.527-25.32a.3.3,0,0,0,.13-.4l-12.8-25.037a.3.3,0,0,0-.4-.13" transform="translate(5.571 43.393)" fill="#e6850e"/>
            <rect id="Rectángulo_351203" data-name="Rectángulo 351203" width="12.134" height="4.615" transform="translate(14.2 111.393) rotate(-27.074)" fill="#fff"/>
            <path id="Trazado_721149" data-name="Trazado 721149" d="M61.283,43.19,27.922,60.245l-1.264-2.473a.3.3,0,0,0-.4-.13l-15.9,8.126a.3.3,0,0,0-.13.4l1.4,2.738,3.346,6.546,9.454,18.491a.3.3,0,0,0,.4.132l49.527-25.32a.3.3,0,0,0,.13-.4L61.686,43.32a.3.3,0,0,0-.4-.13" transform="translate(9.941 42.092)" fill="#f9ed32"/>
            <rect id="Rectángulo_351204" data-name="Rectángulo 351204" width="12.134" height="4.615" transform="translate(23.05 108.757) rotate(-27.078)" fill="#fff"/>
            <path id="Trazado_721150" data-name="Trazado 721150" d="M87.929,66.655,78.049,47.327,6.8,83.749l31.961,8.04Z" transform="translate(6.635 46.158)" fill="#7e8082"/>
            <path id="Trazado_721151" data-name="Trazado 721151" d="M16.226,85.556,39.209,73.807,7.25,65.765l-.9.462Z" transform="translate(6.189 64.142)" fill="#939598"/>
            <path id="Trazado_721152" data-name="Trazado 721152" d="M84.413,65.064,75.925,48.458,7.942,83.214,35.4,90.119Z" transform="translate(7.746 47.262)" fill="#bcbec0"/>
            <path id="Trazado_721153" data-name="Trazado 721153" d="M16.053,83.038,35.77,72.958,8.311,66.053l-.747.381Z" transform="translate(7.378 64.422)" fill="#bcbec0"/>
            <path id="Trazado_721154" data-name="Trazado 721154" d="M16.053,83.038,35.77,72.958,8.311,66.053l-.747.381Z" transform="translate(7.378 64.422)" fill="#bcbec0"/>
            <path id="Trazado_721155" data-name="Trazado 721155" d="M84.413,65.064,75.925,48.458,7.942,83.214,35.4,90.119Z" transform="translate(7.746 47.262)" fill="#a7a9aa"/>
            <rect id="Rectángulo_351205" data-name="Rectángulo 351205" width="18.518" height="3.057" transform="translate(44.68 124.58) rotate(-27.073)" fill="#58595b"/>
            <path id="Trazado_721156" data-name="Trazado 721156" d="M158.263,33.5l-13.272-5.464-.514,1.252,7.806,18.734Z" transform="translate(140.911 27.344)" fill="#00c0b4"/>
            <path id="Trazado_721157" data-name="Trazado 721157" d="M161.584,28.669l-34.647,84.166,13.272,5.464,29.183-70.894Z" transform="translate(123.803 27.962)" fill="#07b3a8"/>
            <path id="Trazado_721158" data-name="Trazado 721158" d="M167.341,36.125,154.408,30.8l-5.979,14.525,7.609,18.254Z" transform="translate(144.765 30.041)" fill="#04a898"/>
            <path id="Trazado_721159" data-name="Trazado 721159" d="M162.839,38.154l-29.183,70.894,12.932,5.323,23.86-57.962Z" transform="translate(130.356 37.212)" fill="#089a8b"/>
            <path id="Trazado_721160" data-name="Trazado 721160" d="M157.206,30.615l-24.14,58.641,10.55,4.344,19.8-48.093Z" transform="translate(129.782 29.859)" fill="#f5f6f6"/>
            <path id="Trazado_721161" data-name="Trazado 721161" d="M155.932,34.84,145.384,30.5l-.1.229,6.206,14.892Z" transform="translate(141.701 29.746)" fill="#fff"/>
            <path id="Trazado_721162" data-name="Trazado 721162" d="M163.076,36.9l-10.208-4.2-4.439,10.781,6.007,14.41Z" transform="translate(144.766 31.889)" fill="#ecedee"/>
            <path id="Trazado_721163" data-name="Trazado 721163" d="M158.2,38.154l-19.8,48.093,10.21,4.2,15.6-37.885Z" transform="translate(134.99 37.212)" fill="#e2e3e4"/>
            <path id="Trazado_721164" data-name="Trazado 721164" d="M136.658,76.713a6.029,6.029,0,1,1,4.591-11.151c.053.022.1.047.154.071l.041.02a6.023,6.023,0,0,1-4.583,11.133l-.043-.014c-.053-.02-.107-.038-.16-.059" transform="translate(129.643 63.502)" fill="#6d6e71"/>
            <path id="Trazado_721165" data-name="Trazado 721165" d="M133.766,68.742a5.128,5.128,0,0,0,2.791,6.7c.057.024.117.041.174.061l3.9-9.47c-.057-.026-.111-.055-.168-.079a5.131,5.131,0,0,0-6.7,2.791" transform="translate(130.087 63.946)" fill="#f5f6f6"/>
            <path id="Trazado_721166" data-name="Trazado 721166" d="M138.974,65.8l-3.9,9.47a5.124,5.124,0,0,0,3.9-9.47" transform="translate(131.741 64.176)" fill="#e2e3e4"/>
            <path id="Trazado_721167" data-name="Trazado 721167" d="M176.855,38.96,163.582,33.5l-11.3,27.455,7.808,18.736Z" transform="translate(148.523 32.67)" fill="#f5940c"/>
            <path id="Trazado_721168" data-name="Trazado 721168" d="M164.062,47.4,140.2,105.358l13.272,5.464,18.4-44.69Z" transform="translate(136.742 46.226)" fill="#eb9114"/>
            <path id="Trazado_721169" data-name="Trazado 721169" d="M185.931,41.586,173,36.262,156.234,76.989l7.607,18.256Z" transform="translate(152.378 35.367)" fill="#e6850e"/>
            <path id="Trazado_721170" data-name="Trazado 721170" d="M165.318,56.881l-18.4,44.69,12.93,5.323,13.075-31.759Z" transform="translate(143.295 55.477)" fill="#d4811a"/>
            <path id="Trazado_721171" data-name="Trazado 721171" d="M174.523,40.3l-10.548-4.344L153.092,62.394,159.3,77.286Z" transform="translate(149.314 35.071)" fill="#fff"/>
            <path id="Trazado_721172" data-name="Trazado 721172" d="M159.685,49.341,146.332,81.78l10.548,4.344,9.011-21.888Z" transform="translate(142.72 48.123)" fill="#f5f6f6"/>
            <path id="Trazado_721173" data-name="Trazado 721173" d="M181.667,42.36l-10.208-4.2L156.235,75.143l6,14.412Z" transform="translate(152.379 37.215)" fill="#ecedee"/>
            <path id="Trazado_721174" data-name="Trazado 721174" d="M160.684,56.881l-9.011,21.888,10.208,4.2,4.81-11.68Z" transform="translate(147.929 55.477)" fill="#e2e3e4"/>
            <path id="Trazado_721175" data-name="Trazado 721175" d="M149.924,82.175a6.029,6.029,0,1,1,4.591-11.151c.053.022.1.047.154.071l.042.02a6.023,6.023,0,0,1-4.583,11.133l-.043-.014q-.08-.027-.16-.059" transform="translate(142.581 68.828)" fill="#6d6e71"/>
            <path id="Trazado_721176" data-name="Trazado 721176" d="M147.031,74.2a5.128,5.128,0,0,0,2.791,6.7c.057.024.117.041.174.061l3.9-9.47c-.057-.026-.111-.055-.168-.079a5.131,5.131,0,0,0-6.7,2.791" transform="translate(143.024 69.272)" fill="#f5f6f6"/>
            <path id="Trazado_721177" data-name="Trazado 721177" d="M152.24,71.261l-3.9,9.472a5.125,5.125,0,0,0,3.9-9.472" transform="translate(144.68 69.502)" fill="#e2e3e4"/>
            <rect id="Rectángulo_351206" data-name="Rectángulo 351206" width="92.372" height="14.352" transform="matrix(0.578, -0.816, 0.816, 0.578, 211.324, 117.793)" fill="#f9ed32"/>
            <rect id="Rectángulo_351207" data-name="Rectángulo 351207" width="92.372" height="13.985" transform="translate(223.03 126.091) rotate(-54.66)" fill="#d7cc2b"/>
            <rect id="Rectángulo_351208" data-name="Rectángulo 351208" width="63.667" height="11.407" transform="translate(227.986 99.382) rotate(-54.665)" fill="#fff"/>
            <rect id="Rectángulo_351209" data-name="Rectángulo 351209" width="63.666" height="11.041" transform="matrix(0.578, -0.816, 0.816, 0.578, 237.296, 105.982)" fill="#e6e7e8"/>
            <path id="Trazado_721178" data-name="Trazado 721178" d="M117.184,67.177a6.215,6.215,0,0,1-1.021-.537l-.036-.024a1.5,1.5,0,0,1-.144-.093,6.03,6.03,0,0,1,5.776-10.5,6.217,6.217,0,0,1,1.2.66c.047.036.089.071.134.1l.034.03a6.022,6.022,0,0,1-5.942,10.359" transform="translate(110.638 54.195)" fill="#6d6e71"/>
            <path id="Trazado_721179" data-name="Trazado 721179" d="M121.991,56.971a5.13,5.13,0,1,0-5.934,8.369c.049.036.1.065.154.1l5.924-8.354c-.049-.038-.095-.079-.144-.115" transform="translate(111.083 54.642)" fill="#fff"/>
            <path id="Trazado_721180" data-name="Trazado 721180" d="M122.064,63.6a5.127,5.127,0,0,0-1.073-7.038l-5.924,8.356a5.125,5.125,0,0,0,7-1.318" transform="translate(112.227 55.166)" fill="#e6e7e8"/>
            <rect id="Rectángulo_351210" data-name="Rectángulo 351210" width="10.439" height="128.557" transform="matrix(0.381, -0.925, 0.925, 0.381, 193.323, 128.985)" fill="#94a3aa"/>
            <path id="Trazado_721181" data-name="Trazado 721181" d="M30.1,154.028l4.166,7.1,31.293-51.741L57.329,109Z" transform="translate(29.353 106.308)" fill="#077d71"/>
            <path id="Trazado_721182" data-name="Trazado 721182" d="M44.18,158.852l10.511,3.461,0,0,1.886.62,8.792,2.9,1.489.49,7.5,2.467,1.231.4v0l6.483,2.133,1.039.342,5.669,1.869.9.294.948.312,13.229-21.875-1.118-1.043-.715-.67L97.68,146.5l-.834-.776-4.954-4.632h0l-.986-.92-5.715-5.335-1.2-1.12-6.669-6.228-1.535-1.434L67.9,118.691l-1.632-1.523L57.328,109,30.1,154.028l11.484,3.966Z" transform="translate(29.353 106.308)" fill="#089a8b"/>
            <path id="Trazado_721183" data-name="Trazado 721183" d="M19.4,128.324l30.2,34.594,28.334-28.346L61.618,115.884,47.732,99.978Z" transform="translate(18.919 97.511)" fill="#b8b9ba"/>
            <path id="Trazado_721184" data-name="Trazado 721184" d="M26.187,132.068l1.025,1.173,24.077-24.087-1.025-1.173Z" transform="translate(25.541 105.316)" fill="#a3a5a6"/>
            <path id="Trazado_721185" data-name="Trazado 721185" d="M24.686,129.651l1.023,1.173L48.376,108.15l-1.023-1.173Z" transform="translate(24.077 104.336)" fill="#a3a5a6"/>
            <path id="Trazado_721186" data-name="Trazado 721186" d="M23.185,128.629,24.21,129.8l24.077-24.087-1.025-1.173Z" transform="translate(22.612 101.962)" fill="#a3a5a6"/>
            <path id="Trazado_721187" data-name="Trazado 721187" d="M42.65,104.4,21.684,125.373l1.023,1.173,20.966-20.974Z" transform="translate(21.149 101.822)" fill="#a3a5a6"/>
            <path id="Trazado_721188" data-name="Trazado 721188" d="M28.706,134.257l22.667-22.675-1.023-1.173L27.683,133.084Z" transform="translate(27 107.684)" fill="#a3a5a6"/>
            <path id="Trazado_721189" data-name="Trazado 721189" d="M30.2,136.667,54.281,112.58l-1.023-1.173L29.178,135.5Z" transform="translate(28.458 108.657)" fill="#a3a5a6"/>
            <path id="Trazado_721190" data-name="Trazado 721190" d="M31.7,137.329l21.95-21.958L52.625,114.2l-21.95,21.958Z" transform="translate(29.918 111.38)" fill="#a3a5a6"/>
            <path id="Trazado_721191" data-name="Trazado 721191" d="M33.194,140.094l24.077-24.087-1.023-1.173L32.17,138.921Z" transform="translate(31.376 112)" fill="#a3a5a6"/>
            <path id="Trazado_721192" data-name="Trazado 721192" d="M34.691,141.808l24.077-24.087-1.023-1.173L33.665,140.634Z" transform="translate(32.835 113.671)" fill="#a3a5a6"/>
            <path id="Trazado_721193" data-name="Trazado 721193" d="M20.365,140.069,58,165.245l22.272-33.9-20.33-13.6-17.3-11.575Z" transform="translate(19.862 103.55)" fill="#d1d3d4"/>
            <path id="Trazado_721194" data-name="Trazado 721194" d="M28.411,141.388l1.276.853,18.926-28.8-1.276-.853Z" transform="translate(27.709 109.805)" fill="#bcbec0"/>
            <path id="Trazado_721195" data-name="Trazado 721195" d="M26.54,139.3l1.276.853,17.815-27.115-1.276-.853Z" transform="translate(25.885 109.418)" fill="#bcbec0"/>
            <path id="Trazado_721196" data-name="Trazado 721196" d="M24.67,138.885l1.276.853,18.926-28.8-1.276-.853Z" transform="translate(24.061 107.364)" fill="#bcbec0"/>
            <path id="Trazado_721197" data-name="Trazado 721197" d="M39.279,110.714,22.8,135.8l1.276.851,16.48-25.081Z" transform="translate(22.236 107.982)" fill="#bcbec0"/>
            <path id="Trazado_721198" data-name="Trazado 721198" d="M31.55,142.654l17.817-27.115-1.278-.853L30.274,141.8Z" transform="translate(29.527 111.855)" fill="#bcbec0"/>
            <path id="Trazado_721199" data-name="Trazado 721199" d="M33.414,144.735l18.926-28.8-1.274-.853-18.927,28.8Z" transform="translate(31.344 112.237)" fill="#bcbec0"/>
            <path id="Trazado_721200" data-name="Trazado 721200" d="M35.276,144.724l17.252-26.258-1.276-.853L34,143.871Z" transform="translate(33.163 114.71)" fill="#bcbec0"/>
            <path id="Trazado_721201" data-name="Trazado 721201" d="M37.14,147.229l18.926-28.8-1.274-.853-18.926,28.8Z" transform="translate(34.981 114.669)" fill="#bcbec0"/>
            <path id="Trazado_721202" data-name="Trazado 721202" d="M39,148.476,57.93,119.67l-1.274-.851-18.926,28.8Z" transform="translate(36.799 115.886)" fill="#bcbec0"/>
            <path id="Trazado_721203" data-name="Trazado 721203" d="M32.205,148.228l6.985,2.615,2.062.772,8.865,3.32,0,0,1.687.632,8.3,3.109,1.48.553L69.4,162.16l1.343.5v0l7.38,2.763,1.235.46,5.219,1.958,10.386-17.173L47.931,122.227Z" transform="translate(31.41 119.21)" fill="#21d8c2"/>
            <path id="Trazado_721204" data-name="Trazado 721204" d="M40.166,134.935,87.2,163.38l11.1-18.353-4.768-4.014-1.043-.877-5.946-5.007h0l-1.134-.954-6.274-5.282-1.256-1.055-6.633-5.586-1.448-1.219-7.016-5.906-1.369-1.152L55.731,109.2Z" transform="translate(39.175 106.502)" fill="#0ac6b3"/>
            <path id="Trazado_721205" data-name="Trazado 721205" d="M49.086,125.57l-6.457,3.538,5.306,10.649,6.748-3.694Z" transform="translate(41.577 122.471)" fill="#fff"/>
            <path id="Trazado_721206" data-name="Trazado 721206" d="M55.017,131.469l-.093,3.945,4.168-7.765-3.8-7.972L55.2,123.76l-6.88.956-5.235,8.654,4.8-2.513Z" transform="translate(42.021 116.723)" fill="#fff"/>
            <path id="Trazado_721207" data-name="Trazado 721207" d="M52.088,129.9l11.86-.861-.616-7.336-11.884.529Z" transform="translate(50.179 118.694)" fill="#fff"/>
            <path id="Trazado_721208" data-name="Trazado 721208" d="M58.159,134.1l-3.567-1.687L60,139.371l8.826-.241-3.692-1.74,1.914-6.679-5.788-8.292.352,5.4Z" transform="translate(53.244 119.397)" fill="#fff"/>
            <path id="Trazado_721209" data-name="Trazado 721209" d="M51.51,141.064l6.337,3.745,6.451-10L57.675,130.9Z" transform="translate(50.238 127.664)" fill="#fff"/>
            <path id="Trazado_721210" data-name="Trazado 721210" d="M58.444,132.251l-8.806.377-4.915,7.336,3.558-2,4.336,5.428,10.112.085-4.608-2.844L55,134.183Z" transform="translate(43.62 128.987)" fill="#fff"/>
            <path id="Trazado_721211" data-name="Trazado 721211" d="M132.651,108.164l28.006,20.3-3.283,4.529.593.433.595.429,2.675-3.69.687,4.3.7-.3.606-.261.089-.038-.909-5.689-.047-.3-30.033-21.768L95.011,157.6l11.84,8.583.433-.595.431-.593-10.655-7.722Z" transform="translate(92.666 103.495)" fill="#ffaa71"/>
            <path id="Trazado_721212" data-name="Trazado 721212" d="M139.955,128.088l-25.6-18.558-1,1.383,8.691,6.3.095-.128,16.911,12.257Z" transform="translate(110.552 106.827)" fill="#ffaa71"/>
            <rect id="Rectángulo_351211" data-name="Rectángulo 351211" width="1.707" height="10.735" transform="matrix(0.587, -0.81, 0.81, 0.587, 221.983, 220.387)" fill="#ffaa71"/>
            <rect id="Rectángulo_351212" data-name="Rectángulo 351212" width="1.707" height="10.736" transform="translate(220.063 223.035) rotate(-54.073)" fill="#ffaa71"/>
            <rect id="Rectángulo_351213" data-name="Rectángulo 351213" width="2.105" height="10.735" transform="matrix(0.587, -0.81, 0.81, 0.587, 212.432, 233.566)" fill="#ffaa71"/>
            <rect id="Rectángulo_351214" data-name="Rectángulo 351214" width="2.105" height="10.736" transform="matrix(0.587, -0.81, 0.81, 0.587, 208.865, 238.486)" fill="#ffaa71"/>
            <rect id="Rectángulo_351215" data-name="Rectángulo 351215" width="2.106" height="10.734" transform="translate(205.299 243.407) rotate(-54.066)" fill="#ffaa71"/>
            <rect id="Rectángulo_351216" data-name="Rectángulo 351216" width="2.106" height="10.734" transform="translate(201.733 248.327) rotate(-54.066)" fill="#ffaa71"/>
            <rect id="Rectángulo_351217" data-name="Rectángulo 351217" width="2.105" height="10.735" transform="translate(198.167 253.247) rotate(-54.073)" fill="#ffaa71"/>
            <rect id="Rectángulo_351218" data-name="Rectángulo 351218" width="2.106" height="10.734" transform="translate(194.601 258.168) rotate(-54.066)" fill="#ffaa71"/>
            <path id="Trazado_721213" data-name="Trazado 721213" d="M166.384,135.941l-.047-.3-3.542-2.568c-.3.089-.583.174-.889.263l-.051.016-.838.245,3.619,2.625-2.967,4.093-.776,1.071-4.205,5.8a.726.726,0,0,0-.059.743.712.712,0,0,0,.223.28l10.967,7.951-27.212,37.543-39.568-28.678,3.716-5.124.431-.595.431-.595,2.912-4.02,1.237-1.7,2.331-3.214,1.237-1.7,2.329-3.216,1.237-1.7,2.329-3.216,1.237-1.7,2.331-3.216,1.237-1.7,2.329-3.216,1.237-1.7,6.4-8.826,1-1.383.919-1.264.719-.994,15.129,10.965.442.318.593.431.595.433.713.516.788-.336c.261-.113.525-.225.786-.336l-1.426-1.033-.595-.431-.593-.431L136.3,113.873l-.579.8-1,1.383-.917,1.264-1,1.383-6.4,8.826-1.235,1.7-2.331,3.216-1.237,1.7-2.331,3.216-1.235,1.7-2.331,3.216-1.235,1.7-2.331,3.216-1.237,1.7-2.331,3.216-1.235,1.7-2.914,4.018-.431.595-.431.595-4.575,6.313,41.944,30.4,28.682-39.572-.049-.3ZM158.3,147.455l6.91-9.535,2.625,16.445Z" transform="translate(96.547 111.062)" fill="#ffaa71"/>
            <path id="Trazado_721214" data-name="Trazado 721214" d="M131.867,127.1l-.369-.269L118.33,117.29l-.263.363-.739,1.019,12.7,9.2,1.839-.776" transform="translate(114.433 114.395)" fill="#ffaa71"/>
            <path id="Trazado_721215" data-name="Trazado 721215" d="M133.416,127.843l-.84-.608-3.648-2.643-1.169.346-.887.265-.006,0,6.092,4.415.672.488,0,0,.117-.162.608-.84.275-.377-.377-.273Z" transform="translate(123.735 121.517)" fill="#ffaa71"/>
            <path id="Trazado_721216" data-name="Trazado 721216" d="M129.6,127.5l-12.241-8.871-1,1.383,11.577,8.391c.49-.267,1.041-.565,1.665-.9" transform="translate(113.485 115.701)" fill="#ffaa71"/>
            <path id="Trazado_721217" data-name="Trazado 721217" d="M124.9,125.793l-.036.01.041.032,8.316,6.027.433.312,1-1.381-.433-.314-7.3-5.292-2.023.606" transform="translate(121.787 122.097)" fill="#ffaa71"/>
            <path id="Trazado_721218" data-name="Trazado 721218" d="M126.223,128.547c.308-.17.685-.375,1.14-.622l-10.975-7.955-1,1.383,10.339,7.492c.168-.095.322-.213.5-.3" transform="translate(112.538 117.009)" fill="#ffaa71"/>
            <path id="Trazado_721219" data-name="Trazado 721219" d="M122.567,126.1l5.318,3.854,5.667,4.109.435.314,1-1.383-.433-.314-7.052-5.11-2.645-1.918Z" transform="translate(119.542 122.546)" fill="#ffaa71"/>
            <path id="Trazado_721220" data-name="Trazado 721220" d="M135.275,141.707l-8.273-6-.595-.429-.595-.433-1.329-.964c-.1.448-.273,1.138-.541,2.21l.636.46.593.429.595.433,8.275,6Z" transform="translate(120.884 130.58)" fill="#ffaa71"/>
            <path id="Trazado_721221" data-name="Trazado 721221" d="M120.463,130.722l-7.706-5.584-.225.312-1.009,1.393,8.4,6.086.444-1.8Z" transform="translate(108.77 122.049)" fill="#ffaa71"/>
            <path id="Trazado_721222" data-name="Trazado 721222" d="M132.5,143.488l-8.273-6-.537-.387-.429,1.721-.121.48,8.123,5.888Z" transform="translate(120.098 133.72)" fill="#ffaa71"/>
            <path id="Trazado_721223" data-name="Trazado 721223" d="M110.727,127.941l-1.011,1.393,9.239,6.7a3.008,3.008,0,0,1,1.339.095l.261-1.061.1-.4-9.7-7.03Z" transform="translate(107.008 124.479)" fill="#ffaa71"/>
            <path id="Trazado_721224" data-name="Trazado 721224" d="M130.455,145.565l-7.648-5.545c-.17.182-.332.363-.527.547-.049.075-.409.664-.707,1.16l7.646,5.543Z" transform="translate(118.571 136.564)" fill="#ffaa71"/>
            <path id="Trazado_721225" data-name="Trazado 721225" d="M108.92,130.432l-1.009,1.393,9.381,6.8.442-1.8.026-.1c.02-.1.053-.2.079-.3l-8.691-6.3Z" transform="translate(105.248 126.908)" fill="#ffaa71"/>
            <path id="Trazado_721226" data-name="Trazado 721226" d="M126.341,146.628l-3.66-2.653-.545,2.2,2.969,2.153Z" transform="translate(119.121 140.421)" fill="#ffaa71"/>
            <path id="Trazado_721227" data-name="Trazado 721227" d="M107.115,132.922l-1.009,1.393,12.612,9.142a25.7,25.7,0,0,1-.6-2.558,3.672,3.672,0,0,1-.045-.508l-10.736-7.781Z" transform="translate(103.487 129.337)" fill="#ffaa71"/>
            <path id="Trazado_721228" data-name="Trazado 721228" d="M122.316,150.11l1.237-1.7-1.667-1.209-.547,2.2Z" transform="translate(118.343 143.564)" fill="#ffaa71"/>
            <path id="Trazado_721229" data-name="Trazado 721229" d="M105.31,135.414l-1.009,1.393,13.744,9.962.243-.99,1.75.431.026-.1.1-.4-14.625-10.6Z" transform="translate(101.726 131.767)" fill="#ffaa71"/>
            <path id="Trazado_721230" data-name="Trazado 721230" d="M103.728,137.6l-.431.595-.8,1.1L118.23,150.7l.354-1.43.192-.768V148.5l-15.044-10.906Z" transform="translate(99.965 134.196)" fill="#ffaa71"/>
            <path id="Trazado_721231" data-name="Trazado 721231" d="M181.631,120.511l.2-4.079.194-4.077-5.163,1.859-.241.087-.012-.032c-.018-.053-.038-.107-.057-.16l-.66.225c-.314.1-.622.211-.93.316a2.413,2.413,0,0,0-.235-.273c-.022-.024-.049-.043-.073-.067a2.038,2.038,0,0,0-.462-.346,2.542,2.542,0,0,0-.217-.132,3.978,3.978,0,0,0-.557-.231,4.969,4.969,0,0,0-.772-.178,10.72,10.72,0,0,0-4.083.356,29.409,29.409,0,0,0-4.079,1.385c-6.056,2.386-13.359,4.913-16.676,6.042-1.106.377-1.768.6-1.794.606a2.827,2.827,0,0,0,.286.229,4.761,4.761,0,0,0,.8.466,4.634,4.634,0,0,0,1.243.371,4.244,4.244,0,0,0,1.035.032,4.758,4.758,0,0,0,1.169-.257,6.525,6.525,0,0,0,1.958-1.142c.18-.065.4-.14.648-.227l.67-.227c3.153-1.063,9.4-3.072,12.429-4.042.466-.15.855-.277,1.146-.367l.583-.188a3.81,3.81,0,0,1,.539-.111,2.445,2.445,0,0,1,1.031.049,1.434,1.434,0,0,1,.156.063c-2.212.78-4.282,1.527-6.242,2.254-.081.032-.16.061-.239.089-.818.306-1.614.6-2.4.9-.2.073-.4.148-.591.223-.857.328-1.7.654-2.532.98-.731.286-1.452.573-2.169.857-.446.178-.883.358-1.324.535s-.883.354-1.321.533c-.94.383-1.873.768-2.811,1.16-1.877.778-3.765,1.576-5.724,2.412q-2.385,1.016-4.962,2.123c-.235.1-.46.2-.7.3l-.494.211-.2.085-1.007.433c-.259.111-.521.221-.786.336l-.786.336-.786.336q-1.5.64-3.1,1.32c-.091.038-.172.073-.263.113-.316.134-.664.279-.984.415l-.061.026c-.427.18-.867.367-1.306.551-.158.067-.31.132-.472.2-.356.15-.683.29-1.047.442.014.034.024.065.036.1s.03.081.043.12c-.041.024-.081.045-.122.067-.113.061-.215.119-.324.176l-1.661.9-.29.156-.043.024c-.067.038-.124.067-.19.1-.257.138-.494.267-.717.389l-.281.152c-.211.117-.391.213-.575.314-.34.184-.652.354-.907.494-.055.028-.122.065-.18.1-.132.067-.263.13-.4.215a7.343,7.343,0,0,0-.636.421,7.571,7.571,0,0,0-1.446,1.4l-.036.04c.034.006.075.008.109.014.227.036.466.069.735.091a9.492,9.492,0,0,0,1,.026c.31-.008.6-.03.873-.061s.521-.073.751-.118c.247-.045.527-.1.841-.162l.12-.024.012,0,.484-.095c.626-.122,1.377-.267,2.293-.446.585-.115,1.233-.241,1.96-.385l.036.1c.014.041.03.083.043.122.1-.028.184-.053.28-.083l.666-.2,1.393-.417c.332-.1.68-.205,1.005-.3.29-.085.593-.178.877-.263l.008,0,.887-.263c.4-.118.782-.233,1.169-.348q1.92-.569,3.712-1.1l.711-.207c.154-.047.322-.1.476-.142l.067-.02.166-.047.658-.2.887-.261c.3-.087.6-.176.889-.263,1.306-.383,2.584-.76,3.818-1.126,3.064-.909,5.952-1.778,8.853-2.686.452-.142.907-.288,1.359-.431s.9-.284,1.359-.431c.735-.237,1.474-.476,2.22-.723,5.48-1.8,11.368-3.891,18.858-6.767-.022-.063-.045-.126-.067-.19Zm-55.4,17.041-2.291.448-.425.083-.192-.527-.231-.646,1.284-.7c.444-.241.936-.508,1.521-.828.446-.241.93-.5,1.47-.8l.909,2.522.016.045Zm29.574-8.344-2.173-6.037c.516-.211,1.035-.421,1.555-.628L157.4,128.7l-1.6.506M177.048,115.5l-.089-.545,4.277-1.539-.314,6.568-2,.721q-.936-2.6-1.873-5.2" transform="translate(116.711 109.582)" fill="#ffaa71"/>
            <path id="Trazado_721232" data-name="Trazado 721232" d="M126.773,134.375a1.792,1.792,0,0,0-.231.085,1.9,1.9,0,0,0-.512.186l.119-.472c.034-.134.067-.267.1-.4.156-.62.308-1.229.45-1.8.194-.764.367-1.452.494-1.956l.431-1.709c.043-.162.085-.322.119-.486a1.39,1.39,0,0,0-.277-1.134,3.043,3.043,0,0,0-.215-.263,2.593,2.593,0,0,0-2.509-.778,2.29,2.29,0,0,0-.383.087,2.925,2.925,0,0,0-.352.16,1.344,1.344,0,0,0-.666.715,8.233,8.233,0,0,0-.235.907l-.387,1.57-.442,1.8-.1.4-.444,1.8-.581,2.361-.444,1.8-.1.4-.446,1.8-.059.243c-.026-.045-.055-.093-.087-.138a2.015,2.015,0,0,0-1.912-.589,2.337,2.337,0,0,0-1.258.859,3.332,3.332,0,0,0-.557.984,4.756,4.756,0,0,0-.142.543l-.02.077-.1.4-.442,1.8-.273,1.108c-.059.245-.128.492-.2.741-.045.162-.089.33-.134.494-.095.363-.186.731-.245,1.1a3.006,3.006,0,0,0,.1.913c.032.164.075.354.124.567.146.62.373,1.476.693,2.625.077.281.154.559.243.875.168.595.294,1.037.312,1.13a8.012,8.012,0,0,1-.02,1.165v.014l-.4-.1a.514.514,0,0,0-.622.375l-.229.928-.1.4-.286,1.154-1.25-.31-.036.142-.839,3.4-.188.762,0,.006-.19.768-.342,1.381-.012.049-1.173,4.743,17.347,12.573.192-.768.982-3.972.545-2.206,1.029-4.16.545-2.2,1.027-4.158.393-1.584-.95-.235-.693-.172.318-1.286.3-1.2a.512.512,0,0,0-.375-.62l-.543-.134c.152-.612.326-1.3.421-1.665.032-.124.057-.221.065-.247.049-.1.243-.431.468-.8.33-.545.723-1.177.826-1.294.148-.14.269-.277.4-.415a5.692,5.692,0,0,0,1.519-2.467l.207-.843.073-.29.306-1.237c.026-.107.063-.253.093-.373.047-.192.093-.371.148-.593.1-.385.2-.806.316-1.246.3-1.181.539-2.125.731-2.9.271-1.086.444-1.809.527-2.218a2.734,2.734,0,0,0,.065-.409.5.5,0,0,0-.016-.235v0a1.007,1.007,0,0,0-.03-.1,2.419,2.419,0,0,0-.263-.593,2.277,2.277,0,0,0-1.357-1.047,2.039,2.039,0,0,0-1.452.178,2.014,2.014,0,0,0-.348.225l-.014.008,0-.016c.024-.091.047-.184.075-.28l.032-.118.059-.225a2,2,0,0,0-.3-1.932,2.352,2.352,0,0,0-2.844-.646,1.987,1.987,0,0,0-.393.284,2.129,2.129,0,0,0-.273.279,2.655,2.655,0,0,0-.2.259,2.485,2.485,0,0,0,.036-.377,2.288,2.288,0,0,0-.026-.5,2,2,0,0,0-.48-1.035,2.58,2.58,0,0,0-1.944-.721,2.457,2.457,0,0,0-.3.01m-2.206-7.6.028-.146c.032-.014.061-.03.093-.041a1.582,1.582,0,0,1,1.393.036,2.042,2.042,0,0,1,.174.126,1.605,1.605,0,0,1,.241.182l.047.049-.034.166-.16.806a.994.994,0,0,1-1.161.776,1.019,1.019,0,0,1-.78-1.161Zm4.745,31.919.071.018.314.077.186.047.5.122.047.01-.073.3-.419,1.691-1.27-.314-.65-.16-.768-.19-.768-.192-3.848-.95-4.237-1.047-1-.247-1.853-.458.186-.751.1-.4.207-.834.061.016.508.126.5.124,1.318.326,5.823,1.44,3.524.871.768.19Zm-3.882-19.273a5.671,5.671,0,0,0,.188-.721c.012-.053.03-.1.041-.152.026-.126.053-.253.083-.375l.095-.4c.073-.314.221-.944.356-1.438a4.034,4.034,0,0,1,.209-.654.806.806,0,0,1,.535-.286,1.593,1.593,0,0,1,1.316.385,1.2,1.2,0,0,1,.207,1.084l-.233.944-.148.593c-.03.12-.063.241-.1.363a5.357,5.357,0,0,0-.2.877.817.817,0,0,0,.306.8.92.92,0,0,0,.84.087c.4-.122.731-.855.954-1.523.111-.328.2-.642.249-.855a1.742,1.742,0,0,1,.4-.8,1.088,1.088,0,0,1,.29-.265l0,0a1.309,1.309,0,0,1,1.584.4.869.869,0,0,1,.124.843c-.012.059-.02.113-.038.182l-.061.223-.024.095a11.926,11.926,0,0,0-.385,1.732c-.065.569.014.926.294,1.13a.785.785,0,0,0,.186.095.659.659,0,0,0,.77-.318,2.892,2.892,0,0,0,.361-.788,1.055,1.055,0,0,1,.608-.634,1.024,1.024,0,0,1,.561-.069.493.493,0,0,1,.075,0,1.335,1.335,0,0,1,.745.591,1.169,1.169,0,0,1,.134.28.492.492,0,0,0,.012.075c0,.03-.016.089-.024.13-.065.336-.229,1.033-.439,1.884-.259,1.051-.575,2.3-.83,3.3-.077.3-.146.575-.215.851-.13.516-.253,1-.344,1.369l-.205.834-.312,1.258-.069.279a4.853,4.853,0,0,1-1.359,2.106c-.093.093-.17.182-.271.277a11.639,11.639,0,0,0-.954,1.438c-.28.462-.52.875-.549.936a6.6,6.6,0,0,0-.292,1.035c-.071.279-.16.632-.277,1.1l-.439-.109-.768-.19-.942-.233-5.446-1.347-4.838-1.2a10.275,10.275,0,0,0,.028-1.549c-.012-.091-.067-.3-.239-.917-.034-.117-.063-.221-.1-.373-.156-.551-.4-1.434-.63-2.281-.051-.2-.1-.4-.152-.589a10.4,10.4,0,0,1-.35-1.675c.032-.2.079-.4.128-.61.067-.29.144-.583.223-.869.073-.259.144-.514.207-.77l.172-.7.444-1.8.1-.4.126-.51a3.388,3.388,0,0,1,.107-.423,2.336,2.336,0,0,1,.409-.727,1.3,1.3,0,0,1,.67-.452,1.021,1.021,0,0,1,.818.172l.034.024a1.639,1.639,0,0,1,.067.855,4.423,4.423,0,0,1-.073.5c-.057.332-.132.664-.225,1a2.18,2.18,0,0,0-.1.891.8.8,0,0,0,.286.573.758.758,0,0,0,.6.069h.01c.46-.192.555-.755.624-1.165l.1-.425.581-2.357.444-1.8.1-.4.444-1.8.581-2.359.444-1.8.1-.4.444-1.8.28-1.136a1.723,1.723,0,0,0,.466.541,1.686,1.686,0,0,0,.674.292,1.7,1.7,0,0,0,1.29-.259l.016-.014-.152.6c-.136.541-.267,1.053-.393,1.557q-.237.945-.452,1.8c-.034.132-.067.271-.1.4-.164.654-.312,1.244-.448,1.8-.239.958-.435,1.75-.581,2.361-.184.76-.3,1.26-.314,1.383a.83.83,0,0,0,.241.685l.146.109a.686.686,0,0,0,.583.1.866.866,0,0,0,.551-.549" transform="translate(107.788 122.484)" fill="#ffaa71"/>
            <g id="Grupo_1018277" data-name="Grupo 1018277" transform="translate(73.341 139.514)" style="mix-blend-mode: multiply;isolation: isolate">
              <g id="Grupo_1018276" data-name="Grupo 1018276">
                <g id="Grupo_1018275" data-name="Grupo 1018275" clip-path="url(#clip-path-3)">
                  <g id="Grupo_1018274" data-name="Grupo 1018274">
                    <g id="Grupo_1018273" data-name="Grupo 1018273">
                      <g id="Grupo_1018272" data-name="Grupo 1018272" clip-path="url(#clip-path-3)">
                        <path id="Trazado_721233" data-name="Trazado 721233" d="M239.678,89.738l8.391-5.811-19.858-.737,5.063-3.506L206.568,78.7a12.739,12.739,0,0,0-4.516-1.351l-.1-2.037-.132-2.576a2.163,2.163,0,0,0-2.248-2.1l-3.01.176-.915.053-3.4.2-5.345.314L102.358,76.32l-.427.024.008.154-4.628,1.961-8.13,3.447-.873.369,9.335,2.744,1.163.342L37.129,110.629l22.72,1-7.923,3.245,13.128.577L51.545,120.98l12.269.537L47.138,128.35l18.143.794-18.5,7.581,13.27.581-17.673,7.24,13.049.573-8.593,3.52,12.269.537-16.674,6.831,18.141.794-18.5,7.581,14.576.638-12.687,5.2,142.456,6.24L240.1,139.273l-9.79-.363,7.9-5.474-11.133-.413,11.494-7.963-5.916-.219,10.323-7.149-9.839-.365,5.383-3.727-6.542-.241,10.945-7.579-11.137-.413,11.5-7.963-5.916-.219,10.323-7.151Z" transform="translate(-37.129 -70.628)" fill="#c6c6c6"/>
                      </g>
                    </g>
                  </g>
                </g>
              </g>
            </g>
            <path id="Trazado_721234" data-name="Trazado 721234" d="M40.583,138.347l142.456,6.24L236.729,107.4l-110.608-4.1Z" transform="translate(39.582 100.755)" fill="#b6bec5"/>
            <path id="Trazado_721235" data-name="Trazado 721235" d="M39.628,135.392l142.456,6.242,53.689-37.185-110.608-4.1Z" transform="translate(38.65 97.873)" fill="#dee6ed"/>
            <path id="Trazado_721236" data-name="Trazado 721236" d="M39.811,131.153l142.456,6.242,53.689-37.187-110.608-4.1Z" transform="translate(38.828 93.738)" fill="#b6bec5"/>
            <path id="Trazado_721237" data-name="Trazado 721237" d="M42.042,127.423l142.456,6.24,53.689-37.185-110.608-4.1Z" transform="translate(41.004 90.1)" fill="#dee6ed"/>
            <path id="Trazado_721238" data-name="Trazado 721238" d="M39.786,125.351l120.407,5.274,22.048.968,53.689-37.185-110.608-4.1Z" transform="translate(38.804 88.08)" fill="#b6bec5"/>
            <path id="Trazado_721239" data-name="Trazado 721239" d="M42.014,121.391l142.456,6.24,53.689-37.185-110.608-4.1Z" transform="translate(40.977 84.218)" fill="#dee6ed"/>
            <path id="Trazado_721240" data-name="Trazado 721240" d="M42.2,117.152l142.456,6.24,53.689-37.185-110.608-4.1Z" transform="translate(41.155 80.083)" fill="#b6bec5"/>
            <path id="Trazado_721241" data-name="Trazado 721241" d="M44.427,113.421l142.456,6.24,53.689-37.185-110.608-4.1Z" transform="translate(43.331 76.444)" fill="#dee6ed"/>
            <path id="Trazado_721242" data-name="Trazado 721242" d="M44.62,110.328l142.456,6.242,53.689-37.187-110.608-4.1Z" transform="translate(43.519 73.427)" fill="#b6bec5"/>
            <path id="Trazado_721243" data-name="Trazado 721243" d="M58.737,91.75,167.992,96.4l5.485-3.542L66.64,88.382Z" transform="translate(57.287 86.2)" fill="#a2a8b1"/>
            <path id="Trazado_721244" data-name="Trazado 721244" d="M66.438,88.326l104.6,4.322,5.009-3.232L73.664,85.246Z" transform="translate(64.798 83.142)" fill="#a2a8b1"/>
            <path id="Trazado_721245" data-name="Trazado 721245" d="M73.485,85.2l100.322,4.032,4.587-2.961-98.278-3.9Z" transform="translate(71.671 80.34)" fill="#a2a8b1"/>
            <path id="Trazado_721246" data-name="Trazado 721246" d="M79.957,82.33l96.38,3.773,4.221-2.724-94.493-3.65Z" transform="translate(77.984 77.76)" fill="#a2a8b1"/>
            <path id="Trazado_721247" data-name="Trazado 721247" d="M85.923,79.691l92.735,3.54,3.893-2.513L91.565,77.287Z" transform="translate(83.803 75.379)" fill="#a2a8b1"/>
            <path id="Trazado_721248" data-name="Trazado 721248" d="M37.129,103.378l89.014,3.9L98.925,78.063Z" transform="translate(36.212 76.136)" fill="#dae0ed"/>
            <path id="Trazado_721249" data-name="Trazado 721249" d="M76.872,79.079l-8.46,3.467,27.22,29.215,53.442,2.341,53.689-37.185-93.107-3.449c-8.474,8.549-21.505,9.855-32.784,5.612" transform="translate(66.723 71.654)" fill="#cbcfdc"/>
            <path id="Trazado_721250" data-name="Trazado 721250" d="M72.7,79.4c11.279,4.243,24.31,2.937,32.784-5.612l-17.5-.648Z" transform="translate(70.901 71.334)" fill="#dae0ed"/>
            <path id="Trazado_721251" data-name="Trazado 721251" d="M80.491,91.027l55.017,2.343,5.485-3.54L76.871,87.141Z" transform="translate(74.973 84.99)" fill="#b7bac8"/>
            <path id="Trazado_721252" data-name="Trazado 721252" d="M59.149,86.235l-7.9,3.368,54.238,2.309-3.621-3.887Z" transform="translate(49.981 84.106)" fill="#c6ccd9"/>
            <path id="Trazado_721253" data-name="Trazado 721253" d="M76.8,87.07l72.526,3,5.009-3.232L73.52,83.544Z" transform="translate(71.705 81.482)" fill="#b7bac8"/>
            <path id="Trazado_721254" data-name="Trazado 721254" d="M66.173,83.1l-7.226,3.08L91.018,87.5l-3.285-3.526Z" transform="translate(57.492 81.049)" fill="#c6ccd9"/>
            <path id="Trazado_721255" data-name="Trazado 721255" d="M72.625,80.225l-6.631,2.827,11.834.474-2.995-3.214Z" transform="translate(64.365 78.245)" fill="#c6ccd9"/>
            <path id="Trazado_721256" data-name="Trazado 721256" d="M73.463,83.484l88.488,3.554,4.589-2.959L70.468,80.27Z" transform="translate(68.729 78.289)" fill="#b7bac8"/>
            <path id="Trazado_721257" data-name="Trazado 721257" d="M72.466,80.183l96.38,3.771,4.221-2.722-94.493-3.65Z" transform="translate(70.678 75.666)" fill="#b7bac8"/>
            <path id="Trazado_721258" data-name="Trazado 721258" d="M78.432,77.544l92.735,3.54,3.9-2.513L84.076,75.14Z" transform="translate(76.496 73.285)" fill="#b7bac8"/>
            <path id="Trazado_721259" data-name="Trazado 721259" d="M117.964,73.3l.277,5.436,3.008-.176a2.2,2.2,0,0,0,2.025-2.349L123.11,73Z" transform="translate(115.052 71.195)" fill="#96a6b6"/>
            <path id="Trazado_721260" data-name="Trazado 721260" d="M120.849,70.632l-3.008.176.243,4.8,5.148-.3-.132-2.576a2.165,2.165,0,0,0-2.25-2.1" transform="translate(114.932 68.885)" fill="#b6bec5"/>
            <path id="Trazado_721261" data-name="Trazado 721261" d="M70.2,78.781l.427-.026-.435-.128Z" transform="translate(68.462 76.687)" fill="#e2632a"/>
            <path id="Trazado_721262" data-name="Trazado 721262" d="M69.943,73.687l.419-.178-.427.026Z" transform="translate(68.209 71.695)" fill="#fe7031"/>
            <path id="Trazado_721263" data-name="Trazado 721263" d="M152.675,73.716l-82.4,4.82.277,5.438,84.538-4.946,5.345-.312-.275-5.438Z" transform="translate(68.54 71.469)" fill="#03cbb7"/>
            <path id="Trazado_721264" data-name="Trazado 721264" d="M154.689,71.161,70.151,76.107l.243,4.8,82.4-4.82,7.482-.439-.243-4.8Z" transform="translate(68.42 69.098)" fill="#18ddc5"/>
            <path id="Trazado_721265" data-name="Trazado 721265" d="M119.058,70.773l-3.4.2.243,4.8,3.4-.2.915-.053-.245-4.8Z" transform="translate(112.8 68.974)" fill="#16b8ef"/>
            <path id="Trazado_721266" data-name="Trazado 721266" d="M119.181,73.2l-3.4.2.277,5.438,3.4-.2.915-.053L120.1,73.15Z" transform="translate(112.92 71.344)" fill="#00a8e0"/>
            <path id="Trazado_721267" data-name="Trazado 721267" d="M63.91,76.578l-.871.369,9.335,2.744-.184-3.6Z" transform="translate(61.483 74.214)" fill="#424651"/>
            <path id="Trazado_721268" data-name="Trazado 721268" d="M63.48,78.04l8.281-.486-.15-2.961Z" transform="translate(61.913 72.752)" fill="#585a60"/>
            <path id="Trazado_721269" data-name="Trazado 721269" d="M72.385,75.966l-4.713.275.182,3.6,4.8,1.41.435.128-.277-5.438Z" transform="translate(66.002 74.066)" fill="#edcd2c"/>
            <path id="Trazado_721270" data-name="Trazado 721270" d="M72.224,73.687,67.6,75.649l.15,2.963,4.713-.275.427-.026-.243-4.8Z" transform="translate(65.927 71.695)" fill="#fcde48"/>
            <path id="Trazado_721271" data-name="Trazado 721271" d="M78.062,83.345l.253,3.891c1.825.166,4.674.419,9.734.865q-.237-3.538-.466-7.076c-4.95,1.2-7.737,1.881-9.521,2.319" transform="translate(76.135 79.026)" fill="#16b8ef"/>
            <path id="Trazado_721272" data-name="Trazado 721272" d="M124.531,89.884l7.267-.549,4.178-13.4-10.062.759Z" transform="translate(121.457 74.058)" fill="#16b8ef"/>
            <path id="Trazado_721273" data-name="Trazado 721273" d="M107.42,77.767l.879,13.4c1.242-.047,2.493-.1,3.761-.158l-.9-13.655c-1.262.134-2.5.271-3.743.411" transform="translate(104.769 75.447)" fill="#444147"/>
            <path id="Trazado_721274" data-name="Trazado 721274" d="M82.681,83.826q.255,3.879.508,7.755c18.773-.354,31.568-.324,44.64-.721l-.853-13.025c-13,1.57-25.659,3.522-44.295,5.991" transform="translate(80.64 75.914)" fill="#585a60"/>
            <path id="Trazado_721275" data-name="Trazado 721275" d="M146.061,75.924c-2.714-1.936-7.613-2.475-14.552-1.6-13.928,1.5-31.406,2.374-31.579,2.382,0,0,3.216,5.833,10.212,2.558,4.932-.361,26.025-1.126,26.232-1.132a4.747,4.747,0,0,1,2.463.636c.476.34,1.035.98.407,2.613-.52,1.345-.162,1.96.229,2.238,1.562,1.116,6.923-2.187,8.529-3.226l.205-.132.034-.257a4.578,4.578,0,0,0-2.181-4.081" transform="translate(97.463 72.093)" fill="#585a60"/>
            <path id="Trazado_721276" data-name="Trazado 721276" d="M105.105,78.1l.853,13.023q2.287-.068,4.6-.156l-.879-13.4c-1.535.172-3.056.352-4.573.535" transform="translate(102.511 75.65)" fill="#16b8ef"/>
            <path id="Trazado_721277" data-name="Trazado 721277" d="M109.315,78.575l.895,13.655c9.3-.425,19.352-1.134,32.239-2.4q-.447-6.862-.9-13.723c-12.926.683-22.977,1.491-32.235,2.467" transform="translate(106.617 74.229)" fill="#585a60"/>
            <path id="Trazado_721278" data-name="Trazado 721278" d="M78.385,82.846a12.117,12.117,0,0,0-2.927,1.7,15.1,15.1,0,0,0,2.8,1.082,14.7,14.7,0,0,0,2.6.466q-.127-1.947-.255-3.891a11.468,11.468,0,0,0-2.214.646" transform="translate(73.596 80.171)" fill="#444147"/>
          </g>
        </g>
      </g>
    </g>
  </g>
</svg>
