<svg xmlns="http://www.w3.org/2000/svg" xmlns:xlink="http://www.w3.org/1999/xlink" width="169" height="169" viewBox="0 0 169 169">
  <defs>
    <clipPath id="clip-path">
      <rect id="Rect치ngulo_351445" data-name="Rect치ngulo 351445" width="125.002" height="130.186" fill="none"/>
    </clipPath>
  </defs>
  <g id="Grupo_1018502" data-name="Grupo 1018502" transform="translate(-719.001 -7543.244)">
    <g id="Grupo_1018363" data-name="Grupo 1018363" transform="translate(-18 5485.244)">
      <g id="Grupo_159183" data-name="Grupo 159183" transform="translate(737.001 2058)">
        <path id="Uni칩n_12" data-name="Uni칩n 12" d="M84.5,0A84.5,84.5,0,1,1,0,84.5,84.5,84.5,0,0,1,84.5,0Z" fill="#cda7ff"/>
      </g>
    </g>
    <g id="Grupo_1018455" data-name="Grupo 1018455" transform="translate(738 7562.012)">
      <g id="Grupo_1018454" data-name="Grupo 1018454" clip-path="url(#clip-path)">
        <path id="Trazado_721903" data-name="Trazado 721903" d="M3.891,154.942q0-2.445.008-4.89c1.885-.585,1.9-2.092,1.895-3.683-.017-16.155.052-32.312-.075-48.466-.02-2.536.744-3.029,3.114-3.006,12.264.12,24.53.055,36.795.056,1.539,0,3.149.148,3.636-1.88l4.911,0q.041,36.92.111,73.84c0,1.427-.572,1.647-1.8,1.644-14.3-.031-28.592,0-42.887-.038-2.828-.007-3.745-1.008-3.806-3.89-.049-2.283-.029-4.568-.009-6.852.013-1.4-.31-2.529-1.9-2.839" transform="translate(-1.913 -45.766)" fill="#fe9c4d"/>
        <path id="Trazado_721904" data-name="Trazado 721904" d="M47.35,80.334c-.487,2.029-2.1,1.88-3.636,1.88-12.265,0-24.53.064-36.794-.056-2.371-.023-3.135.47-3.115,3.006.127,16.155.058,32.31.076,48.466,0,1.591-.011,3.1-1.9,3.683C.392,136.9,0,135.817,0,134.26q.058-25.9.007-51.8c0-2,.543-3.616,2.657-3.988,1.264-.223,1.172-.91,1.17-1.766-.006-2.032-.051-4.065.025-6.094A3.177,3.177,0,0,1,7.408,67.2c15.152,0,30.3-.041,45.456.045A11.009,11.009,0,0,1,61.6,71.727c.716.9,1.071.932,1.814.01,2.687-3.335,6.262-4.592,10.506-4.571,14.221.072,28.441.024,42.663.029,3.739,0,4.578.861,4.606,4.67.008,1.1.018,2.2,0,3.3-.03,1.639-.375,3.2,2.084,3.714,1.717.358,1.737,2.234,1.735,3.82q-.024,24-.01,48c0,7.025.012,14.051,0,21.077-.012,5.084-2.764,7.867-7.815,7.872q-21.077.021-42.155-.009c-1.464,0-2.647.027-3.5,1.639-.787,1.485-2.449,1.95-4.167,1.937q-4.825-.037-9.65,0c-1.72.016-3.366-.443-4.182-1.916-.862-1.553-2-1.671-3.489-1.668q-20.95.051-41.9.018c-5.408,0-8.089-2.693-8.1-8.1-.006-2.2.044-4.4-.017-6.6-.04-1.468.411-2.476,1.97-2.745,1.585.311,1.908,1.443,1.9,2.839-.021,2.283-.04,4.568.008,6.851.062,2.882.978,3.884,3.806,3.891,14.3.035,28.591.007,42.887.038,1.224,0,1.8-.218,1.8-1.644q-.1-36.92-.111-73.84c.306-1.508,1.265-2.041,2.748-1.986,1.751.066,3.505.016,5.29.016-.856-4.92-3.762-7.321-8.9-7.335-12.93-.035-25.86-.012-38.79-.012-4.979,0-4.856,0-5.019,4.975-.069,2.1.656,2.426,2.53,2.412,11.324-.082,22.649-.027,33.973-.056,1.551,0,2.908.1,3.254,1.982m64.336-9.21q-10.767-.052-21.534-.1c-5.661-.016-11.322-.052-16.982.016-4.075.05-7.037,2.2-8.181,5.593-.407,1.208-.463,1.772,1.149,1.764,15.206-.071,30.413-.071,45.619-.091,1.43.033,2.861.069,4.291.1.692.015,1.2.02,1.385-.967,1.1-5.915.083-7.069-5.748-6.314m3.647,11.194c-13.691-.035-27.381-.049-41.071-.133-1.467-.009-1.607.64-1.605,1.831q.036,34.994-.025,69.987c-.005,1.8.814,1.821,2.14,1.818,10.9-.031,21.808-.008,32.712-.024,2.447,0,4.893-.1,7.34-.155,4.956.878,6.434-.3,6.435-5.171q.005-31.595,0-63.19c0-5.785,0-5.785-5.927-4.962M68.9,120.511c0-11.843-.074-23.688.061-35.53.027-2.428-.748-3.051-3-2.886a50.667,50.667,0,0,1-7.354,0c-2.062-.149-2.543.61-2.533,2.575.075,14.889.041,29.778.041,44.667,0,8.967.066,17.935-.045,26.9-.029,2.362.575,3.449,3.114,3.236a40.55,40.55,0,0,1,6.592,0c2.465.2,3.2-.744,3.174-3.178-.1-11.927-.047-23.856-.047-35.784" transform="translate(0 -33.026)" fill="#060403"/>
        <path id="Trazado_721905" data-name="Trazado 721905" d="M98.758,25.693a10.43,10.43,0,0,1,.307-1.487c1.528-4.251.511-7.625-3.332-10.126a3.2,3.2,0,0,1-1.611-2.194,2.306,2.306,0,0,1,2.484-2.824c5.245.16,8.216-2.36,9.917-7.206.864-2.464,3.624-2.476,4.5-.026,1.714,4.815,4.632,7.229,9.9,7.268,2.754.02,3.623,2.748,1.424,4.373-4.227,3.123-5.349,6.771-3.724,11.721a2.276,2.276,0,0,1-3.461,2.715c-4.4-3.181-8.36-3.227-12.738,0-1.711,1.261-3.671-.159-3.663-2.214m9.8-20.121c-1.121,5.085-4.073,7.108-8.909,6.939,4.126,2.635,5.056,6.176,3.58,10.721,3.85-3.2,7.429-2.859,11.261-.1-2.036-4.719-.32-7.958,3.67-10.555-6.324-1.155-6.324-1.155-9.6-7.009" transform="translate(-46.269 0)" fill="#080807"/>
        <path id="Trazado_721906" data-name="Trazado 721906" d="M39.22,33.431a13.3,13.3,0,0,1,.286-1.336,4.381,4.381,0,0,0-1.6-5.321c-1.05-.795-2.156-1.774-1.534-3.413.593-1.562,1.957-1.747,3.339-1.775a3.891,3.891,0,0,0,4.027-3.029c.4-1.276,1-2.606,2.683-2.665,1.83-.064,2.526,1.325,2.9,2.7.629,2.3,2.285,2.879,4.316,3.007,1.341.084,2.533.378,3.063,1.8.562,1.506-.38,2.5-1.393,3.23-2.114,1.526-2.429,3.446-1.684,5.754A2.646,2.646,0,0,1,52.85,35.6a2.547,2.547,0,0,1-3.287-.162c-2.082-1.632-3.946-1.412-6.13-.018-2.218,1.415-4.14.42-4.214-1.984m12.536-8.245c-2.947-.2-4.473-1.288-5.281-3.863-.653,2.744-2.41,3.577-4.895,3.977,2.34,1.434,2.316,3.442,2.183,5.831,1.957-1.677,3.684-1.361,5.584-.175-.231-2.216-.248-4.151,2.408-5.769" transform="translate(-17.796 -7.813)" fill="#060605"/>
        <path id="Trazado_721907" data-name="Trazado 721907" d="M171.733,32.616c1.429-2.644-.067-4.672-2.313-6.74-1.751-1.613-.816-4.006,1.628-4.132,2.914-.151,4.656-1.315,5.467-4.1A2.343,2.343,0,0,1,179,15.876a2.307,2.307,0,0,1,2.259,1.731c.791,2.8,2.533,3.961,5.447,4.132,2.564.15,3.443,2.618,1.516,4.3a6.207,6.207,0,0,0-2.259,6.786c.613,2.736-1.406,4.153-3.757,2.683a5.474,5.474,0,0,0-6.6-.013c-2.273,1.426-4.014.192-3.872-2.883m7.146-10.648c-.775,2.3-2.646,2.831-4.859,3.309,2.148,1.5,2.57,3.349,1.8,6,2.156-1.906,4.036-1.4,6.618-.148-1.9-2.87-.167-4.31,1.211-6.07a4.81,4.81,0,0,1-4.773-3.091" transform="translate(-82.863 -7.806)" fill="#070705"/>
        <path id="Trazado_721908" data-name="Trazado 721908" d="M54.691,84.057c-.345-1.879-1.7-1.986-3.254-1.982-11.324.028-22.649-.026-33.973.056-1.874.013-2.6-.314-2.53-2.412.163-4.971.04-4.975,5.019-4.975,12.93,0,25.86-.023,38.79.012,5.135.014,8.04,2.415,8.9,7.335-1.785,0-3.54.05-5.29-.015-1.483-.056-2.442.478-2.748,1.985l-4.911,0" transform="translate(-7.341 -36.749)" fill="#dcdcdb"/>
        <path id="Trazado_721909" data-name="Trazado 721909" d="M185.087,170.173c-2.446.054-4.893.151-7.34.155-10.9.017-21.808-.006-32.712.024-1.326,0-2.145-.019-2.14-1.818q.1-34.994.024-69.987c0-1.191.138-1.839,1.605-1.831,13.691.084,27.381.1,41.072.133q-.006,2.925-.012,5.849a5.634,5.634,0,0,0-3.345-.964c-9.983.017-19.965-.011-29.948.02-3.361.011-4.288,1.027-4.292,4.489q-.014,11.04,0,22.08c0,3.529.951,4.489,4.548,4.5,9.813.02,19.627,0,29.441.018a5.918,5.918,0,0,0,3.6-.971q0,2.453,0,4.907c-.67-.062-1.339-.177-2.009-.178q-16.33-.017-32.661-.012c-1.416,0-2.907.009-2.918,1.914-.01,1.957,1.58,1.9,2.937,1.9,5.654.025,11.309.066,16.963.007,5.9-.063,11.81.279,17.707-.221.013,8.59.009,17.18.054,25.77a13.627,13.627,0,0,1-.57,4.218m-23.112-22.4c3.971,0,7.941-.011,11.912.006,1.4.006,2.624-.259,2.612-1.981-.012-1.584-1.205-1.883-2.475-1.885q-11.786-.021-23.571,0c-1.268,0-2.465.289-2.483,1.876-.02,1.722,1.195,2,2.6,1.991,3.8-.016,7.6-.006,11.4-.006" transform="translate(-70.264 -47.557)" fill="#fe9c4d"/>
        <path id="Trazado_721910" data-name="Trazado 721910" d="M123.144,134.931c0,11.928-.057,23.857.048,35.784.021,2.434-.71,3.374-3.175,3.178a40.55,40.55,0,0,0-6.592,0c-2.539.213-3.143-.874-3.114-3.236.111-8.966.045-17.934.045-26.9,0-14.889.034-29.778-.041-44.667-.01-1.966.471-2.725,2.533-2.575a50.664,50.664,0,0,0,7.354,0c2.256-.166,3.031.458,3,2.886-.135,11.842-.061,23.686-.061,35.53" transform="translate(-54.241 -47.446)" fill="#d78241"/>
        <path id="Trazado_721911" data-name="Trazado 721911" d="M226.4,136.525q0-2.453,0-4.907a6.44,6.44,0,0,0,.716-3.419q-.024-11.165,0-22.33a6.434,6.434,0,0,0-.717-3.418q.005-2.925.011-5.849c5.927-.822,5.927-.822,5.927,4.963q0,31.595,0,63.19c0,4.869-1.479,6.049-6.435,5.171a13.622,13.622,0,0,0,.569-4.218c-.045-8.59-.042-17.18-.054-25.77a2.3,2.3,0,0,0-.02-3.411" transform="translate(-111.082 -47.309)" fill="#bf6c2e"/>
        <path id="Trazado_721912" data-name="Trazado 721912" d="M174.4,82.016c-15.207.02-30.413.02-45.619.091-1.612.008-1.556-.557-1.149-1.764,1.144-3.4,4.105-5.543,8.181-5.593,5.66-.069,11.321-.033,16.981-.016q10.768.03,21.534.1.036,3.591.072,7.182" transform="translate(-62.638 -36.736)" fill="#dcdcdb"/>
        <path id="Trazado_721913" data-name="Trazado 721913" d="M219.8,81.937q-.036-3.591-.072-7.182c5.832-.755,6.848.4,5.748,6.314-.183.987-.693.982-1.385.967q-2.145-.047-4.291-.1" transform="translate(-108.046 -36.657)" fill="#a3a3a3"/>
        <path id="Trazado_721914" data-name="Trazado 721914" d="M113.92,10.962c3.278,5.854,3.278,5.854,9.6,7.009-3.99,2.6-5.706,5.836-3.67,10.555-3.832-2.763-7.411-3.1-11.261.1,1.477-4.546.546-8.086-3.58-10.721,4.836.169,7.788-1.854,8.909-6.939" transform="translate(-51.636 -5.39)" fill="#f6d961"/>
        <path id="Trazado_721915" data-name="Trazado 721915" d="M56.969,30.442C54.314,32.06,54.331,34,54.562,36.211c-1.9-1.185-3.628-1.5-5.584.175.133-2.389.157-4.4-2.183-5.831,2.484-.4,4.242-1.233,4.895-3.977.807,2.575,2.334,3.665,5.281,3.863" transform="translate(-23.009 -13.069)" fill="#f0d45e"/>
        <path id="Trazado_721916" data-name="Trazado 721916" d="M184.2,27.864a4.81,4.81,0,0,0,4.773,3.091c-1.378,1.761-3.114,3.2-1.211,6.07-2.582-1.251-4.462-1.758-6.618.148.766-2.651.344-4.5-1.8-6,2.213-.478,4.084-1.007,4.859-3.309" transform="translate(-88.187 -13.701)" fill="#f0d45e"/>
        <path id="Trazado_721917" data-name="Trazado 721917" d="M190.518,107.554a6.434,6.434,0,0,1,.717,3.418q-.024,11.165,0,22.33a6.445,6.445,0,0,1-.716,3.419,5.92,5.92,0,0,1-3.6.971c-9.813-.02-19.627,0-29.441-.017-3.6-.008-4.543-.967-4.548-4.5q-.014-11.04,0-22.08c0-3.461.931-4.478,4.292-4.488,9.983-.031,19.966,0,29.949-.02a5.635,5.635,0,0,1,3.345.964m-18.344,26.257c4.484,0,8.969-.047,13.452.028,1.359.023,1.9-.246,1.885-1.766q-.127-9.9-.005-19.8c.015-1.413-.353-1.851-1.809-1.84q-13.579.1-27.158,0c-1.517-.012-1.793.537-1.78,1.9.061,6.514.077,13.029-.009,19.543-.02,1.557.4,2.01,1.973,1.973,4.481-.108,8.967-.038,13.451-.038" transform="translate(-75.196 -52.412)" fill="#0e0905"/>
        <path id="Trazado_721918" data-name="Trazado 721918" d="M190.516,175.34a2.3,2.3,0,0,1,.02,3.411c-5.9.5-11.8.158-17.707.22-5.654.06-11.309.019-16.963-.006-1.357-.006-2.947.055-2.937-1.9.01-1.905,1.5-1.915,2.918-1.914q16.33.011,32.66.012c.67,0,1.339.116,2.009.178" transform="translate(-75.198 -86.124)" fill="#010100"/>
        <path id="Trazado_721919" data-name="Trazado 721919" d="M166.884,193.427c-3.8,0-7.6-.011-11.4.006-1.406.006-2.621-.269-2.6-1.991.019-1.586,1.215-1.873,2.483-1.876q11.786-.02,23.571,0c1.27,0,2.464.3,2.475,1.885.013,1.722-1.209,1.986-2.612,1.981-3.971-.016-7.941-.006-11.912-.006" transform="translate(-75.173 -93.208)" fill="#0e0905"/>
        <path id="Trazado_721920" data-name="Trazado 721920" d="M175.873,137.53c-4.484,0-8.97-.07-13.451.038-1.572.038-1.993-.415-1.973-1.973.085-6.514.07-13.029.009-19.543-.013-1.362.263-1.91,1.78-1.9q13.578.1,27.158,0c1.456-.01,1.824.427,1.809,1.84q-.106,9.9.005,19.8c.019,1.52-.526,1.789-1.885,1.766-4.483-.076-8.968-.028-13.452-.028" transform="translate(-78.895 -56.131)" fill="#fbcf9e"/>
      </g>
    </g>
  </g>
</svg>
