<svg id="Grupo_1018351" data-name="Grupo 1018351" xmlns="http://www.w3.org/2000/svg" xmlns:xlink="http://www.w3.org/1999/xlink" width="189.189" height="200.868" viewBox="0 0 189.189 200.868">
  <defs>
    <clipPath id="clip-path">
      <rect id="Rectángulo_351319" data-name="Rectángulo 351319" width="189.19" height="200.868" fill="none"/>
    </clipPath>
  </defs>
  <g id="Grupo_1018350" data-name="Grupo 1018350" clip-path="url(#clip-path)">
    <path id="Trazado_721557" data-name="Trazado 721557" d="M126.14,190.786c4.861-3.789,10.071-2.727,15.078-2.707a6.315,6.315,0,0,0,5.663-2.507c4.619-5.838,9.515-11.458,14.262-17.2,3.284-3.968,3.138-8.825-.281-12.7a11.914,11.914,0,0,1-2.993-5.423,48.916,48.916,0,0,1-.186-17.9c.8-4.717,4.417-7.664,9.376-8.13a47.493,47.493,0,0,1,9,0,10.437,10.437,0,0,1,9.689,9.664,75.958,75.958,0,0,1-.054,14.481c-.177,1.867-.584,3.9-1.869,5.053-3.5,3.144-2.853,6.842-2.185,10.714a4.164,4.164,0,0,0,1.608,2.949c2.818,2.121,3.753,5.1,3.957,8.552.608,10.3,1.974,20.556,1.99,30.892.02,12.83-7.08,19.893-19.86,19.894q-74.7.007-149.407,0C7.048,226.427.036,219.47,0,206.625c-.031-10.995,1.443-21.9,2.1-32.851a7.644,7.644,0,0,1,2.887-5.816c1.885-1.4,2.349-3.112,2.687-5.287.5-3.184.914-5.975-1.865-8.542a8.908,8.908,0,0,1-2.416-6.467c-.077-4.441-.246-8.894-.02-13.324a10.577,10.577,0,0,1,9.657-10.126,44.845,44.845,0,0,1,5.478-.172c9.322.016,13.385,4.056,13.4,13.3,0,3.137,0,6.274-.027,9.411a13.534,13.534,0,0,1-3.825,9.174,9.266,9.266,0,0,0-.316,12.086c4.906,5.945,9.933,11.791,14.758,17.8a5.8,5.8,0,0,0,4.978,2.273c5.246.119,10.77-1.4,15.857,3.158,0-2.35-.119-3.769.02-5.162.94-9.473,6.405-14.992,15.3-17.667,5.492-1.652,6.264-3.051,6.219-8.774a3.964,3.964,0,0,0-2-3.843c-3.382-2.114-4.779-5.379-4.771-9.309.012-5.228-.068-10.458.022-15.685.122-7.041,4.843-11.7,11.888-11.819,3.267-.055,6.538-.083,9.8.009,6.48.184,11.144,4.68,11.316,11.09.153,5.747.029,11.5.036,17.254a10.151,10.151,0,0,1-4.36,8.345c-3.8,2.95-2.964,9.931,1.4,11.9.474.214.97.382,1.462.556,12.758,4.542,15.824,8.634,16.466,22.653M101,152.125l.038-.033.762-.385a.337.337,0,0,0,.4-.234c4.633-1.91,2.911-6.02,3.249-9.412.23-2.306-1.581-2.231-3.037-2.558-2.594-.861-5.178-1.751-7.782-2.579-7.043-2.241-10.08.31-10.666,7.522-.52,6.417,4.293,7.635,8.074,10.061,3.238,2.078,5.637-.031,8.058-1.822l.9-.56m-33.284,60.21c.691-3.256,3.274-2.836,5.593-2.838q33.706-.02,67.411-.037c2.308,0,4.774.394,6.768-1.287,1-.839,2.178-1.891,1.665-3.249-.419-1.108-1.853-.509-2.812-.51Q95,204.369,43.66,204.423c-1.045,0-2.666-.738-3.068.693-.432,1.536.933,2.566,2.1,3.437a6.658,6.658,0,0,0,4.131.921c3.4.041,6.793.031,10.19.015,2.027-.009,3.612.565,4.042,2.821-.262,1.548-1.048,3-2.637,2.974-7.523-.138-15.5,2.06-22.012-3.857-.641-1.689-1.816-3.375-1.823-5.067-.023-5.687-4.832-7.73-7.868-11.221-.277,5.575-1.407,11.165,2.186,16.1-.551,1.6-1.426,2.9-3.354,2.624a4.875,4.875,0,0,1-4.129-4.65c-.211-5.6-3.782-5.129-7.487-4.892-.911.058-1.828.009-2.741.009-5.627,0-6.171.659-5.174,6.285a11.545,11.545,0,0,0,.314,1.13c1.721,6.083,6.23,8.92,14.318,8.921q73.831.013,147.662-.015a32.1,32.1,0,0,0,5.444-.459,11.053,11.053,0,0,0,8.639-7.153c2.6-6.255,1.021-8.61-5.481-8.743-4.574-.094-9.3-.779-9.544,5.962-.017.462-.455.929-.747,1.358-.823,1.207-1.7,2.4-3.389,2.266-1.9-.147-2.669-1.394-2.855-3.138,3.659-4.866,2.144-10.3,1.969-15.645-2.2,2.962-6.352,4.265-6.7,8.325a17.888,17.888,0,0,1-2.23,7.317c-2.5,2.6-5.312,4.661-9.109,4.665q-36.193.039-72.386.044c-2.257,0-3.794-.743-4.21-3.117m-6.726-14.063c-1.43-3.186-3.369-4.352-6.128-4.3a60.667,60.667,0,0,0-6.658.082c-4.625.606-7.817-1.032-10.619-4.833-4.1-5.564-8.78-10.7-13.231-16.006-3.24-3.861-6.543-4.984-10.657-3.679-4.768,1.514-5.683,2.88-6.12,9.109-.192,2.736-.47,5.468-.586,8.207-.157,3.715-2.162,8.632-.014,10.781,1.864,1.865,6.913.551,10.554.635a5.741,5.741,0,0,0,1.561-.047c.454-.119,1.223-.486,1.211-.711-.181-3.542,1.452-7.313-.993-10.569-1.205-1.605-2.227-3.152-.489-4.8,1.908-1.807,3.557-.656,5.031.9q6.335,6.687,12.693,13.354c.993,1.046,1.926,1.941,3.615,1.916,6.778-.1,13.559-.042,20.832-.042m67.165,0c6.695,0,12.947-.1,19.193.049a6.753,6.753,0,0,0,5.769-2.4c4.086-4.566,8.416-8.914,12.655-13.344,1.34-1.4,2.905-1.9,4.479-.539a2.67,2.67,0,0,1,.163,4.158c-3.168,3.386-2.056,7.662-1.262,11.1.524,2.274,4.585.6,7.036.938,1.408.194,2.874-.068,4.3.059,2.094.188,2.614-.543,2.4-2.662-.608-5.965-1.161-11.952-1.314-17.941-.108-4.273-1.919-6.794-5.891-8.069a8.979,8.979,0,0,0-10.2,2.8c-3.134,3.669-6.616,7.13-9.2,11.159-5.172,8.066-11.738,12.4-21.662,10.457-2.8-.547-4.992.9-6.459,4.238m-27.657-.006h9.282c11.169,0,11.182,0,10.408-11.263-.418-6.067-3.428-10.214-9.219-12.269-2.2-.78-4.433-1.5-6.557-2.457a5.573,5.573,0,0,0-5.175.632c-1.673.945-.038,2.559.268,3.77a73.893,73.893,0,0,0,3.021,9.662c1.762,4.337,2.5,8.278-2.029,11.926m-11.858-.009c-5.5-4.148-2.755-8.837-1.455-13.37q1.185-4.134,2.338-8.278c.956-3.45-.561-5.26-4.076-4.289A51.69,51.69,0,0,0,75.3,176.3a10.834,10.834,0,0,0-5.847,9.186c-.253,3.508-.074,7.047-.133,10.571-.022,1.34.183,2.242,1.875,2.224,5.816-.061,11.632-.024,17.448-.024M163,143.095a18.341,18.341,0,0,0,.464,5.429,8.443,8.443,0,0,0,11.6,5.3c2.04-.954,3.656-2,.462-3.733-2.807-1.518-4.628-3.668-4.406-7.182.085-1.346-6.3-4.732-7.54-4.227-.661.269-.544.806-.56,1.282-.035,1.042-.011,2.086-.017,3.128m-136.844.024c-.392-1.276.8-3.167-.689-4.4-.853-.7-7.469,2.776-7.383,3.882.319,4.053-2.084,6.218-5.162,7.982-1.927,1.1-1.123,2.029.222,2.728a10.288,10.288,0,0,0,3.29,1.1c6.064.815,9.711-3.358,9.722-11.3M94.746,125c-1.955,0-3.92-.129-5.86.031a4.791,4.791,0,0,0-4.684,4.429c-.239,1.583.25,2.963,2.029,1.655,3.154-2.318,6.133-1.192,9.233-.141,2.587.877,5.206,1.657,7.8,2.51,1.135.373,1.907.484,2.189-1.112a6.093,6.093,0,0,0-5.241-7.328c-1.8-.189-3.644-.033-5.468-.044m-69.913,7.269c-2.6-2.352-10.02-3.462-12.657-1.714-5.811,3.855-1.942,9.773-3.323,15.074,2.4-.686,3.467-1.6,3.333-3.7-.217-3.367,1.649-5.291,4.635-6.427,2.634-1,5.229-2.1,8.012-3.23m138.863-.244c3.311,1.35,5.667,2.423,8.1,3.278,3.292,1.157,5.405,3.061,5.173,6.851-.122,2.008.929,2.986,3.327,3.176-1.463-5.024,2.633-11.342-3.275-14.536-3.709-2.005-8.515-1.834-13.326,1.23M94.1,167.285c.389,0,.878.152,1.15-.026,1.24-.813,4.132,1.167,3.829-2.246-.221-2.493-.405-4.918-4.082-3.739a6.9,6.9,0,0,1-2.691-.186c-.573-.068-1.091-.6-1.594.312-1.794,3.26-.3,5.926,3.387,5.885m.776,14.846-.754.072c-.726,2.6-1.317,5.24-2.224,7.771-.661,1.845.679,2.555,1.518,3.6a1.281,1.281,0,0,0,2.244,0c.877-1.021,2.41-1.7,1.806-3.5-.882-2.642-1.729-5.294-2.591-7.942M16.66,163.259c1-.655,3.217,1.43,3.156-1.179-.066-2.79-2.581-1.125-3.937-1.6-1.371-.483-2.281-.012-2.16,1.626.184,2.5,2.019.538,2.942,1.156m155.734.161c.642-1.106,3.213,1.685,3.04-1.671-.074-1.445-.831-1.818-2-1.356-1.423.564-4.085-1.261-4.167,1.813-.064,2.4,1.912.663,3.125,1.213" transform="translate(0 -25.564)" fill="#060606"/>
    <path id="Trazado_721558" data-name="Trazado 721558" d="M151.6,27.425c.445-2.39,2.029-3.05,4.268-3.032,7.313.057,14.629-.042,21.941.042,5.442.062,9.012,3.3,9.061,8.68q.21,22.919,0,45.842c-.037,4.5-2.5,7.258-6.889,8.259a5.029,5.029,0,0,0-3.094,2.016c-5.681,7.211-14.822,7.354-20.274.162-1.371-1.808-2.807-1.94-4.659-1.936-12.016.024-24.033-.107-36.046.068-5.189.075-9.293-1.151-11.167-6.748-5.607,4.249-11.4,5.321-17.584,2-.94-.5-1.536-.669-2.19.477C82.775,87.1,79.107,87.524,75.14,87.5c-12.015-.076-24.032.017-36.047-.067a5.645,5.645,0,0,0-5.2,2.441,12.147,12.147,0,0,1-19.313.115,8.111,8.111,0,0,0-4.654-2.994A7.369,7.369,0,0,1,4.121,79.54C4,69.746,4.084,59.95,4.026,50.155A3.715,3.715,0,0,1,6.7,46.308c2.555.457,3.234,2.094,3.21,4.524-.086,8.881,0,17.763-.054,26.644-.013,2.411.514,4.141,3.382,4.132,2.526-.008,3.908,1.582,5.193,3.559,3.092,4.761,8.493,4.9,11.422.132,1.748-2.847,3.916-3.776,7.083-3.753,12.93.1,25.86.044,38.791.033,1.794,0,3.829.382,4.263-2.241.937-2.675.157-3.789-2.835-3.731-7.315.144-14.634.069-21.951.04-7.878-.031-11.54-3.665-11.558-11.47-.024-10.192-.074-20.386.041-30.578.029-2.53-.542-3.771-3.265-2.989-8.687-.053-17.375,0-26.058-.211C11,30.321,9.517,31.469,9.859,34.89c.247,2.471.015,4.775-3.175,5.21C2.021,37.8,4.126,33.716,4.5,30.434c.4-3.526,4.08-5.948,8.153-5.988,9.01-.09,18.027-.193,27.031.054,3.257.089,4.322-.722,4.021-4.023a82.309,82.309,0,0,1-.04-10.571C43.887,4.074,47.857.06,53.656.046q40.747-.094,81.5,0c5.986.013,9.8,3.985,10.012,10.213.195,5.732.2,11.472.287,17.209-.1,1.415-.3,2.831-.3,4.247-.026,10.944.029,21.889-.031,32.833-.042,7.491-3.592,11.036-11.017,11.093q-10.358.078-20.716,0c-2.063-.013-3.46.339-2.48,2.863-.348,3.324,2,3.08,4.118,3.081,13.069.009,26.14.045,39.209-.027,2.86-.016,4.9.814,6.514,3.365,3.318,5.247,8.459,5.192,11.868-.018,1.14-1.742,2.4-3.269,4.554-3.234,3.329.052,3.775-1.808,3.762-4.542-.072-14.116-.1-28.233.02-42.347.028-3.191-.963-4.464-4.26-4.378-6.791.177-13.591.031-20.388.064-2.274.011-4.2-.367-4.7-3.039M94.406,5.937c-13.068,0-26.135-.025-39.2.013-4.594.014-5.524.966-5.53,5.544q-.035,26.267,0,52.533c0,4.837.937,5.776,5.669,5.79,7.84.022,15.683.1,23.521-.036,3.471-.061,5.857,1.016,7.693,4.153,3.888,6.641,11.865,6.6,15.811-.064a7.532,7.532,0,0,1,7.339-4.086c7.708.127,15.419.044,23.129.038,5.516,0,6.421-.882,6.423-6.267q.011-25.678,0-51.357c0-5.48-.785-6.252-6.431-6.258q-19.21-.021-38.419,0" transform="translate(-0.796 0)" fill="#080808"/>
    <path id="Trazado_721559" data-name="Trazado 721559" d="M180.95,34.935c.5,2.672,2.426,3.051,4.7,3.039,6.8-.034,13.6.112,20.388-.064,3.3-.086,4.288,1.186,4.26,4.377-.125,14.114-.093,28.231-.021,42.347.014,2.734-.433,4.595-3.762,4.542-2.15-.035-3.413,1.492-4.553,3.234-3.409,5.21-8.551,5.265-11.868.018-1.613-2.551-3.654-3.38-6.514-3.365-13.069.071-26.14.035-39.21.027-2.12,0-4.465.243-4.118-3.081,8.218-.009,16.436.009,24.654-.035,7.446-.04,12.295-4.794,12.317-12.163.037-12.914-.009-25.829-.021-38.743l3.747-.134" transform="translate(-30.141 -7.509)" fill="#a6c5d1"/>
    <path id="Trazado_721560" data-name="Trazado 721560" d="M7.5,48.423c3.19-.435,3.422-2.738,3.175-5.21-.342-3.421,1.145-4.57,4.505-4.489,8.683.209,17.371.159,26.058.212.007,11.478-.04,22.958.04,34.436.057,8.165,5.394,13.412,13.456,13.423,6.13.009,12.262-.031,18.392.019,2.58.02,5.235-.457,7.681.847-.434,2.623-2.47,2.241-4.264,2.242-12.93.01-25.861.062-38.791-.034-3.167-.024-5.334.905-7.083,3.753-2.93,4.772-8.33,4.628-11.422-.132-1.284-1.978-2.667-3.567-5.193-3.559-2.867.009-3.4-1.721-3.381-4.132.052-8.881-.033-17.764.054-26.644.024-2.43-.656-4.067-3.211-4.525q-.008-3.1-.017-6.208" transform="translate(-1.612 -8.323)" fill="#a6c5d1"/>
    <path id="Trazado_721561" data-name="Trazado 721561" d="M177.124,35.081c.012,12.914.059,25.829.021,38.743-.022,7.369-4.87,12.124-12.316,12.163-8.218.043-16.436.026-24.654.035-.981-2.523.417-2.876,2.48-2.862q10.357.068,20.716,0c7.424-.056,10.975-3.6,11.016-11.092.061-10.944.006-21.889.032-32.834,0-1.415.2-2.831.3-4.247l2.405.09" transform="translate(-30.062 -7.521)" fill="#83abbf"/>
    <path id="Trazado_721562" data-name="Trazado 721562" d="M37.948,234.775c6.517,5.917,14.49,3.719,22.013,3.857,1.589.03,2.375-1.426,2.636-2.975l6.658.027c.416,2.375,1.953,3.121,4.21,3.117q36.194-.048,72.386-.044c3.8,0,6.606-2.068,9.109-4.665a19.5,19.5,0,0,0,6.959,0c.186,1.744.957,2.991,2.854,3.138,1.687.131,2.567-1.058,3.389-2.266.293-.429.73-.9.747-1.358.247-6.74,4.97-6.057,9.545-5.962,6.5.134,8.08,2.489,5.481,8.744a11.051,11.051,0,0,1-8.64,7.152,32.1,32.1,0,0,1-5.444.46q-73.831.035-147.662.014c-8.088,0-12.6-2.839-14.318-8.92-.106-.377-.246-.747-.314-1.13-1-5.626-.453-6.283,5.174-6.285.914,0,1.831.049,2.741-.009,3.7-.236,7.276-.707,7.487,4.892a4.875,4.875,0,0,0,4.13,4.65c1.928.277,2.8-1.021,3.354-2.624l7.505.183" transform="translate(-1.538 -48.913)" fill="#4c718c"/>
    <path id="Trazado_721563" data-name="Trazado 721563" d="M62.632,211.988c-7.274,0-14.054-.059-20.832.042-1.69.025-2.622-.869-3.615-1.916q-6.341-6.682-12.693-13.354c-1.473-1.554-3.121-2.705-5.031-.9-1.737,1.645-.715,3.191.49,4.8,2.445,3.256.812,7.027.993,10.569.012.225-.758.593-1.211.711a5.742,5.742,0,0,1-1.561.047c-3.641-.084-8.69,1.23-10.554-.635-2.148-2.149-.144-7.066.014-10.781.115-2.739.394-5.471.586-8.207.437-6.229,1.353-7.6,6.121-9.109,4.114-1.306,7.416-.183,10.657,3.679,4.451,5.3,9.131,10.441,13.231,16.006,2.8,3.8,5.994,5.439,10.619,4.833a60.664,60.664,0,0,1,6.658-.082c2.759-.053,4.7,1.113,6.128,4.3" transform="translate(-1.64 -39.279)" fill="#f881a3"/>
    <path id="Trazado_721564" data-name="Trazado 721564" d="M163.247,212c1.466-3.337,3.658-4.785,6.459-4.238,9.924,1.938,16.49-2.391,21.663-10.457,2.584-4.03,6.066-7.489,9.2-11.159a8.978,8.978,0,0,1,10.2-2.794c3.971,1.275,5.782,3.795,5.891,8.068.152,5.989.7,11.977,1.313,17.942.217,2.118-.3,2.849-2.4,2.661-1.423-.127-2.89.135-4.3-.059-2.451-.337-6.511,1.336-7.036-.938-.794-3.439-1.905-7.716,1.262-11.1a2.669,2.669,0,0,0-.163-4.158c-1.573-1.364-3.139-.861-4.479.539-4.238,4.43-8.568,8.778-12.655,13.345a6.757,6.757,0,0,1-5.768,2.4c-6.247-.148-12.5-.05-19.193-.05" transform="translate(-35.091 -39.294)" fill="#80d4f9"/>
    <path id="Trazado_721565" data-name="Trazado 721565" d="M78.809,235.692l-6.659-.027c-.429-2.254-2.014-2.829-4.041-2.819-3.4.016-6.794.026-10.19-.015a6.664,6.664,0,0,1-4.131-.921c-1.172-.871-2.536-1.9-2.1-3.438.4-1.43,2.023-.692,3.068-.693q51.341-.061,102.683-.008c.959,0,2.394-.6,2.812.51.513,1.358-.669,2.41-1.665,3.249-1.993,1.681-4.46,1.283-6.768,1.287q-33.706.062-67.411.037c-2.32,0-4.9-.418-5.593,2.838" transform="translate(-11.092 -48.921)" fill="#f8a882"/>
    <path id="Trazado_721566" data-name="Trazado 721566" d="M127.469,212.766c4.529-3.648,3.79-7.59,2.029-11.926a73.763,73.763,0,0,1-3.021-9.662c-.307-1.211-1.941-2.825-.268-3.77a5.569,5.569,0,0,1,5.174-.632c2.124.956,4.357,1.677,6.557,2.457,5.792,2.054,8.8,6.2,9.219,12.269.774,11.262.761,11.263-10.407,11.263h-9.282" transform="translate(-26.97 -40.062)" fill="#67d494"/>
    <path id="Trazado_721567" data-name="Trazado 721567" d="M107.619,212.807c-5.816,0-11.633-.038-17.448.024-1.692.018-1.9-.884-1.875-2.224.06-3.525-.12-7.063.133-10.571a10.834,10.834,0,0,1,5.847-9.186,51.7,51.7,0,0,1,10.148-3.98c3.515-.97,5.032.839,4.077,4.289q-1.148,4.145-2.338,8.278c-1.3,4.533-4.045,9.222,1.455,13.37" transform="translate(-18.978 -40.112)" fill="#67d494"/>
    <path id="Trazado_721568" data-name="Trazado 721568" d="M123.077,157.4c-2.421,1.791-4.821,3.9-8.058,1.824-3.782-2.427-8.595-3.646-8.074-10.062.586-7.212,3.621-9.763,10.666-7.522,2.6.828,5.188,1.717,7.781,2.578q-.107,5.984-.212,11.97a.337.337,0,0,1-.4.235c-.449-.258-.692-.108-.761.385l-.038.033q-.452.278-.9.559" transform="translate(-22.98 -30.276)" fill="#fadbc1"/>
    <path id="Trazado_721569" data-name="Trazado 721569" d="M207.636,148.49c0-1.043-.021-2.087.014-3.128.016-.477-.1-1.014.56-1.283,1.24-.5,7.624,2.88,7.54,4.227-.222,3.514,1.6,5.663,4.406,7.182,3.2,1.729,1.579,2.78-.461,3.733a8.444,8.444,0,0,1-11.6-5.3,18.258,18.258,0,0,1-.46-5.429" transform="translate(-44.631 -30.96)" fill="#f2d4bb"/>
    <path id="Trazado_721570" data-name="Trazado 721570" d="M29.382,148.512c-.011,7.938-3.658,12.11-9.722,11.3a10.277,10.277,0,0,1-3.29-1.1c-1.345-.7-2.149-1.623-.221-2.727,3.079-1.764,5.48-3.929,5.162-7.982-.087-1.107,6.529-4.588,7.382-3.882,1.49,1.233.3,3.123.689,4.4" transform="translate(-3.225 -30.957)" fill="#f2d4bb"/>
    <path id="Trazado_721571" data-name="Trazado 721571" d="M117.785,126.658a54.247,54.247,0,0,1,5.468.038,6.093,6.093,0,0,1,5.241,7.328c-.282,1.6-1.054,1.485-2.189,1.112-2.6-.853-5.215-1.633-7.8-2.51-3.1-1.05-6.079-2.178-9.233.141-1.779,1.309-2.268-.072-2.029-1.655a4.791,4.791,0,0,1,4.684-4.428c1.941-.16,3.906-.031,5.86-.026" transform="translate(-23.04 -27.214)" fill="#4c718c"/>
    <path id="Trazado_721572" data-name="Trazado 721572" d="M27.254,135.222c-2.783,1.127-5.378,2.229-8.011,3.23-2.986,1.135-4.852,3.06-4.636,6.426.135,2.1-.937,3.017-3.332,3.7,1.381-5.3-2.489-11.219,3.323-15.073,2.636-1.749,10.059-.639,12.656,1.713" transform="translate(-2.422 -28.514)" fill="#c07a49"/>
    <path id="Trazado_721573" data-name="Trazado 721573" d="M208.517,134.914c4.811-3.063,9.617-3.235,13.326-1.229,5.908,3.194,1.813,9.511,3.275,14.536-2.4-.191-3.449-1.168-3.327-3.177.232-3.789-1.881-5.694-5.173-6.85-2.434-.855-4.79-1.928-8.1-3.279" transform="translate(-44.822 -28.452)" fill="#c07a49"/>
    <path id="Trazado_721574" data-name="Trazado 721574" d="M43.621,232.293l-7.505-.183c-3.592-4.94-2.463-10.53-2.186-16.1,3.037,3.49,7.846,5.534,7.868,11.221.007,1.691,1.183,3.378,1.823,5.067" transform="translate(-7.21 -46.431)" fill="#f5f7f8"/>
    <path id="Trazado_721575" data-name="Trazado 721575" d="M202.391,231.6a19.5,19.5,0,0,1-6.959,0,17.912,17.912,0,0,0,2.23-7.317c.346-4.06,4.5-5.363,6.7-8.326.175,5.344,1.69,10.78-1.969,15.646" transform="translate(-42.009 -46.421)" fill="#f5f7f8"/>
    <path id="Trazado_721576" data-name="Trazado 721576" d="M118.728,178.77c-3.692.041-5.181-2.624-3.387-5.885.5-.912,1.021-.381,1.594-.312a6.891,6.891,0,0,0,2.69.186c3.677-1.179,3.862,1.246,4.082,3.738.3,3.414-2.588,1.434-3.829,2.247-.272.178-.761.026-1.15.026" transform="translate(-24.63 -37.049)" fill="#f2d4bb"/>
    <path id="Trazado_721577" data-name="Trazado 721577" d="M119.987,199.437c.862,2.648,1.71,5.3,2.591,7.942.6,1.808-.929,2.484-1.806,3.5-.735.855-1.512.912-2.245,0-.838-1.047-2.179-1.756-1.517-3.6.908-2.531,1.5-5.176,2.223-7.772l.754-.071" transform="translate(-25.114 -42.87)" fill="#67d494"/>
    <path id="Trazado_721578" data-name="Trazado 721578" d="M130.183,157.106q.106-5.986.212-11.97c1.457.327,3.268.252,3.037,2.558-.338,3.391,1.385,7.5-3.249,9.412" transform="translate(-27.983 -31.198)" fill="#f8a882"/>
    <path id="Trazado_721579" data-name="Trazado 721579" d="M20.414,174.585c-.922-.618-2.758,1.345-2.942-1.155-.121-1.638.789-2.109,2.16-1.627,1.356.477,3.871-1.188,3.937,1.6.061,2.609-2.153.524-3.156,1.179" transform="translate(-3.753 -36.891)" fill="#f2d4bb"/>
    <path id="Trazado_721580" data-name="Trazado 721580" d="M218.742,174.722c-1.214-.55-3.19,1.188-3.125-1.213.082-3.074,2.744-1.25,4.167-1.813,1.168-.462,1.925-.089,2,1.356.173,3.356-2.4.564-3.04,1.671" transform="translate(-46.347 -36.867)" fill="#f8a882"/>
    <path id="Trazado_721581" data-name="Trazado 721581" d="M128.705,161.033c.069-.494.312-.644.762-.386l-.762.386" transform="translate(-27.666 -34.505)" fill="#f8a882"/>
    <path id="Trazado_721582" data-name="Trazado 721582" d="M127.5,161.774q.452-.28.9-.559l-.9.559" transform="translate(-27.408 -34.654)" fill="#f8a882"/>
    <path id="Trazado_721583" data-name="Trazado 721583" d="M106.988,7.561q19.21,0,38.419,0c5.646.006,6.43.778,6.431,6.258q.011,25.678,0,51.356c0,5.386-.908,6.262-6.423,6.267-7.71.007-15.421.089-23.129-.038a7.534,7.534,0,0,0-7.339,4.086c-3.946,6.66-11.922,6.705-15.81.064-1.837-3.136-4.224-4.213-7.694-4.153-7.838.137-15.68.059-23.521.036-4.732-.013-5.664-.953-5.669-5.79q-.026-26.266,0-52.533c.006-4.578.936-5.53,5.531-5.543,13.067-.039,26.135-.014,39.2-.014m-.895,16.8q15.067,0,30.133.007c2.181,0,4.541-.009,4.618-2.882.087-3.183-2.473-3.165-4.754-3.165q-29.938-.011-59.876-.006c-2.178,0-4.542.068-4.611,2.927-.077,3.174,2.437,3.131,4.747,3.127q14.872-.022,29.742-.007m-.138,9.232q-15.274,0-30.548-.006c-2.028,0-3.807.44-3.8,2.872,0,2.373,1.656,2.92,3.755,2.916q30.939-.041,61.88-.01c2.117,0,3.68-.693,3.608-3.065-.067-2.2-1.691-2.7-3.562-2.7-.914,0-1.828-.008-2.741-.008q-14.295,0-28.59,0M91.883,48.682c-5.47,0-10.941.027-16.411-.014-2.045-.016-3.781.437-3.866,2.814-.086,2.4,1.594,2.993,3.665,2.99q16.216-.018,32.432.009c2.049.005,3.873-.524,3.9-2.81.025-2.506-1.877-3.037-4.087-3.01-5.21.063-10.42.02-15.629.021" transform="translate(-13.378 -1.624)" fill="#e6eaee"/>
    <path id="Trazado_721584" data-name="Trazado 721584" d="M90.045,87.658c-2.446-1.3-5.1-.827-7.681-.848-6.13-.049-12.261-.009-18.391-.018-8.062-.012-13.4-5.258-13.457-13.424-.079-11.478-.032-22.957-.039-34.436,2.723-.782,3.294.458,3.265,2.989-.115,10.191-.064,20.385-.041,30.578.018,7.8,3.68,11.438,11.557,11.47,7.317.029,14.637.1,21.952-.04,2.991-.059,3.771,1.055,2.835,3.731" transform="translate(-10.848 -8.319)" fill="#83abbf"/>
    <path id="Trazado_721585" data-name="Trazado 721585" d="M108.657,27.311q-14.872,0-29.742.007c-2.311,0-4.824.046-4.747-3.128.068-2.858,2.433-2.927,4.611-2.926q29.938,0,59.876.005c2.281,0,4.841-.017,4.754,3.166-.078,2.873-2.438,2.885-4.618,2.882q-15.066-.025-30.133-.007" transform="translate(-15.942 -4.571)" fill="#0e0f0f"/>
    <path id="Trazado_721586" data-name="Trazado 721586" d="M108.52,40.723q14.294,0,28.59,0c.914,0,1.828,0,2.741.008,1.871.007,3.5.5,3.562,2.7.071,2.372-1.491,3.066-3.608,3.065q-30.941-.018-61.88.01c-2.1,0-3.751-.543-3.755-2.916,0-2.432,1.773-2.876,3.8-2.872q15.273.02,30.548,0" transform="translate(-15.943 -8.753)" fill="#010101"/>
    <path id="Trazado_721587" data-name="Trazado 721587" d="M94.447,59.936c5.21,0,10.42.042,15.629-.02,2.21-.027,4.112.5,4.087,3.01-.024,2.285-1.847,2.815-3.9,2.81q-16.216-.044-32.432-.009c-2.071,0-3.75-.593-3.665-2.989.085-2.377,1.821-2.829,3.866-2.814,5.469.041,10.94.014,16.411.013" transform="translate(-15.943 -12.879)" fill="#010101"/>
  </g>
</svg>
