<svg xmlns="http://www.w3.org/2000/svg" xmlns:xlink="http://www.w3.org/1999/xlink" width="169" height="169" viewBox="0 0 169 169">
  <defs>
    <clipPath id="clip-path">
      <rect id="Rect치ngulo_351307" data-name="Rect치ngulo 351307" width="127.851" height="127.828" fill="none"/>
    </clipPath>
  </defs>
  <g id="Grupo_1018496" data-name="Grupo 1018496" transform="translate(-1069.666 -5291.95)">
    <g id="Grupo_1015077" data-name="Grupo 1015077" transform="translate(-18.334 3233.951)">
      <g id="Grupo_159184" data-name="Grupo 159184" transform="translate(1088 2057.999)">
        <path id="Uni칩n_12" data-name="Uni칩n 12" d="M84.5,0A84.5,84.5,0,1,1,0,84.5,84.5,84.5,0,0,1,84.5,0Z" transform="translate(0 0)" fill="#cda7ff"/>
      </g>
    </g>
    <g id="Grupo_1018324" data-name="Grupo 1018324" transform="translate(1091 5311.776)">
      <g id="Grupo_1018323" data-name="Grupo 1018323" clip-path="url(#clip-path)">
        <path id="Trazado_721364" data-name="Trazado 721364" d="M55.46,134.756q-.042,12.235-.084,24.47c-.023,6.171-3.379,9.578-9.5,9.585q-18.223.022-36.447,0C3.459,168.8.015,165.376.011,159.424Q-.01,128.3.012,97.17c0-5.8,3.472-9.236,9.257-9.285q4.387-.037,8.774-.086c5.305.029,10.618.243,15.914.031,4.454-.178,8.623-.077,11.52,4,.039.055.166.047.251.069,2.536,3.294,5.688,5.991,8.625,8.895,1.015,1.035,1.038,2.319,1.038,3.672,0,10.1.04,20.195.069,30.292M4.267,128.287q0,15.561.006,31.122c.006,3.4,1.516,5.118,4.676,5.128q18.752.058,37.5,0c2.97-.009,4.64-1.66,4.646-4.618.033-17.733-.006-35.467.055-53.2.006-1.631-.607-1.874-2-1.822-2.568.095-5.144-.042-7.712.047-2.3.08-3.206-.95-3.124-3.2.09-2.48-.089-4.971.058-7.445.1-1.731-.418-2.217-2.173-2.2-8.777.093-17.555.038-26.333.045-4.182,0-5.6,1.4-5.6,5.548q-.012,15.295,0,30.59m38.5-32.708c-.506,5.614-.3,5.808,4.684,4.766l-4.684-4.766" transform="translate(0 -41.02)" fill="#010101"/>
        <path id="Trazado_721365" data-name="Trazado 721365" d="M30.39,42.707c-1.8.29-2.369-.412-2.453-2.276C27.013,19.883,41.535,2.616,62.414.241,81.7-1.952,99.773,11.03,103.884,30.881c.429,2.071.493,4.218.716,6.331.255,2.42-.864,3.314-3.257,3.3-10.2-.068-20.4.057-30.593-.092-2.428-.036-4,.54-4.884,2.851-.343.9-1.068,1.652-1.4,2.553-.681,1.846-1.789,2.081-3.357,1.141-1.14-.815-1.617-1.672-.589-3,.8-1.04,1.255-2.352,2.05-3.4,1.2-1.586.923-2.9-.043-4.537-4.68-7.913-9.3-15.862-13.784-23.888-1.076-1.926-1.81-1.979-3.424-.652C36.3,18.9,31.979,28.421,32.263,40.049c.036,1.468.063,2.691-1.873,2.658m53.192-6.494c4.962,0,9.923-.026,14.884.018,1.267.011,1.877-.116,1.7-1.722-2.417-22.3-26.031-36.249-46.846-27.7-2.039.838-1.957,1.528-.973,3.2Q59.5,22.128,66.41,34.388a3.239,3.239,0,0,0,3.352,1.865c4.6-.115,9.213-.04,13.821-.04" transform="translate(-13.035 0)" fill="#050403"/>
        <path id="Trazado_721366" data-name="Trazado 721366" d="M32.577,51.983c1.936.034,1.909-1.19,1.874-2.658C34.167,37.7,38.492,28.173,47.508,20.76c1.615-1.327,2.348-1.274,3.424.652,4.484,8.024,9.1,15.975,13.784,23.887.966,1.634,1.245,2.951.043,4.537-.8,1.048-1.247,2.359-2.05,3.4-1.029,1.332-.551,2.189.589,3a10.888,10.888,0,0,1-2.348,3.915c-.086-.022-.213-.015-.251-.069-2.9-4.075-7.065-4.176-11.52-4-5.3.213-10.608,0-15.913-.031l-.689-4.073" transform="translate(-15.223 -9.277)" fill="#e13f41"/>
        <path id="Trazado_721367" data-name="Trazado 721367" d="M159.2,191.906c3.365,0,6.731-.03,10.1.006,5.292.058,8.84,3.554,8.925,8.792q.065,3.985,0,7.971c-.084,5.127-3.587,8.724-8.672,8.772q-10.494.1-20.989,0a8.441,8.441,0,0,1-8.652-8.519q-.1-4.249,0-8.5a8.459,8.459,0,0,1,8.664-8.508c3.541-.057,7.084-.011,10.628-.012m-.17,21.3c3.364,0,6.727.033,10.09-.01,3.147-.039,4.773-1.618,4.835-4.694.053-2.566.057-5.134,0-7.7-.067-2.946-1.688-4.594-4.639-4.614q-10.222-.071-20.446,0c-3.076.02-4.655,1.683-4.7,4.819-.039,2.478-.044,4.957,0,7.435.057,3.109,1.653,4.71,4.775,4.754,3.362.047,6.727.011,10.09.011" transform="translate(-65.357 -89.668)" fill="#030303"/>
        <path id="Trazado_721368" data-name="Trazado 721368" d="M103.138,144.986c-.029-10.1-.072-20.194-.069-30.292,0-1.354-.023-2.637-1.038-3.673,3.182-1.953,3.279-1.932,4.882,1.046-1.144,1.214-.526,2.021.475,3.008,5.988,5.9,11.877,11.9,17.883,17.785,1.214,1.189,1.289,1.87-.175,2.759-1.509.916-2.87,2.1-4.439,2.88-1.292.64-1.317,1.406-.888,2.5l-1.322,1.29c-1.963-1.907-3.976-3.767-5.87-5.741-1.064-1.108-1.742-1.595-3.138-.2-1.443,1.437-1.076,2.2.181,3.331,1.436,1.3,2.713,2.771,4.059,4.167l-4.141.645c-.044-1.817-1.046-1.84-2.6-1.817-1.923.029-1.823,1.082-1.834,2.32h-1.959" transform="translate(-47.678 -51.249)" fill="#88c8e3"/>
        <path id="Trazado_721369" data-name="Trazado 721369" d="M192.789,49.539c-2.745,0-5.491.044-8.235-.009a8.48,8.48,0,0,1-8.662-8.514q-.1-4.248,0-8.5A8.439,8.439,0,0,1,184.54,24q8.367-.1,16.736,0a8.436,8.436,0,0,1,8.662,8.506q.1,4.248,0,8.5a8.474,8.474,0,0,1-8.649,8.527c-2.832.055-5.667.01-8.5.01m-.031-4.263c2.742,0,5.486.042,8.228-.011,3-.058,4.616-1.627,4.689-4.566.066-2.652.071-5.309,0-7.962-.078-2.8-1.7-4.439-4.506-4.472q-8.226-.094-16.455,0c-2.934.033-4.5,1.693-4.559,4.689-.051,2.564-.057,5.132,0,7.7.068,2.959,1.667,4.549,4.641,4.613,2.653.057,5.308.012,7.962.012" transform="translate(-82.17 -11.191)" fill="#030303"/>
        <path id="Trazado_721370" data-name="Trazado 721370" d="M149.924,89.981c-.318-3.152,2.037-1.977,3.508-2.119,1.941-.188,3.014.648,2.974,2.734a38.254,38.254,0,0,1-5.48,19.143,38.814,38.814,0,0,1-5.154,6.729c-1.333,1.416-2.559,1.669-4.046.174q-12.361-12.431-24.783-24.8c-.736-.735-1.285-1.531-.862-2.583a2.409,2.409,0,0,1,2.584-1.427c4.073.035,8.15.12,12.217-.036,1.791-.069,2.343.569,2.184,2.186.167,1.652-.463,2.294-2.219,2.168-2.331-.168-4.684-.041-7.638-.041,6.808,6.8,13.175,13.143,19.5,19.523.841.848,1.265.511,1.853-.22a34.432,34.432,0,0,0,7.415-17.86c.068-.564.352-1.439-.625-1.39-1.863.094-1.162-1.324-1.428-2.18" transform="translate(-54.174 -41.01)" fill="#040404"/>
        <path id="Trazado_721371" data-name="Trazado 721371" d="M156.306,91.517c.266.856-.435,2.274,1.428,2.18.977-.049.693.827.625,1.39a34.433,34.433,0,0,1-7.415,17.86c-.588.731-1.012,1.068-1.853.22-6.326-6.38-12.694-12.719-19.5-19.523,2.954,0,5.307-.127,7.638.041,1.755.126,2.385-.515,2.219-2.168l5.226.049a7.515,7.515,0,0,1-1.013,1.177c-1.31,1.012-1.429,1.819-.1,3.077,1.22,1.157,1.913,1.353,3.1,0,1.488-1.7,3.226-3.189,4.855-4.769,1.52.964,3.2.3,4.8.468" transform="translate(-60.556 -42.547)" fill="#e8d796"/>
        <path id="Trazado_721372" data-name="Trazado 721372" d="M119.357,166.481c-1.346-1.4-2.623-2.87-4.059-4.167-1.257-1.136-1.623-1.894-.181-3.332,1.4-1.39,2.073-.9,3.138.205,1.895,1.973,3.907,3.833,5.87,5.74.966,1.024,2,2,2.883,3.085a4.742,4.742,0,0,0,4.116,1.77c10.888-.082,21.777-.021,32.666-.065,1.553-.006,2.58-.08,2.536,2.1-.04,1.974-.691,2.234-2.429,2.222q-17.129-.116-34.259,0a5.42,5.42,0,0,1-4.429-1.8c-1.851-2.011-3.892-3.847-5.852-5.758" transform="translate(-53.358 -73.893)" fill="#010101"/>
        <path id="Trazado_721373" data-name="Trazado 721373" d="M162.939,83.955c-1.63,1.58-3.367,3.066-4.855,4.77-1.184,1.354-1.877,1.159-3.1,0-1.327-1.258-1.208-2.065.1-3.077a7.488,7.488,0,0,0,1.012-1.177c2.464-2.4,4.96-4.775,7.376-7.225a4.214,4.214,0,0,1,3.276-1.342c10.355.045,20.711.1,31.064-.036,2.086-.027,1.882.96,2,2.361.145,1.733-.517,2.009-2.081,2-8.85-.075-17.706.145-26.549-.123-3.629-.11-6.29.866-8.247,3.851" transform="translate(-71.986 -35.454)" fill="#010101"/>
        <path id="Trazado_721374" data-name="Trazado 721374" d="M123.509,142.2c-.43-1.089-.4-1.855.887-2.5,1.569-.778,2.93-1.965,4.439-2.88,1.465-.889,1.389-1.57.175-2.759-6.006-5.882-11.894-11.884-17.882-17.785-1-.987-1.619-1.794-.475-3.008,1.322-1.44,2.327-1.314,3.759.16,6.476,6.666,13.107,13.18,19.667,19.764,2.09,2.1,2.07,2.748-.044,4.763a52.033,52.033,0,0,1-6.752,5.117c-1.772,1.21-2.926,1.2-3.775-.876" transform="translate(-51.419 -52.459)" fill="#030404"/>
        <path id="Trazado_721375" data-name="Trazado 721375" d="M107.774,173.925c.011-1.239-.089-2.292,1.834-2.321,1.559-.023,2.56,0,2.6,1.817.436,1.925-.545,2.392-2.279,2.582-1.792.2-2.268-.523-2.159-2.078" transform="translate(-50.355 -80.187)" fill="#040404"/>
        <path id="Trazado_721376" data-name="Trazado 721376" d="M8.006,132.08q0-15.3,0-30.59c0-4.146,1.418-5.545,5.6-5.548,8.778-.007,17.556.048,26.333-.045,1.755-.019,2.276.468,2.173,2.2-.147,2.474.032,4.966-.058,7.445-.082,2.248.821,3.278,3.124,3.2,2.568-.09,5.144.047,7.712-.047,1.393-.052,2.006.192,2,1.822-.061,17.733-.022,35.467-.055,53.2-.005,2.957-1.675,4.608-4.645,4.617q-18.752.055-37.5,0c-3.16-.01-4.67-1.723-4.676-5.128q-.025-15.561-.006-31.122m17.034-2.066c-3.719,0-7.444.112-11.156-.046-1.937-.082-1.617,1.056-1.62,2.177s-.3,2.2,1.622,2.175q11.156-.173,22.316,0c1.931.03,1.616-1.057,1.619-2.178s.307-2.255-1.623-2.173c-3.713.157-7.437.046-11.157.046m6.391-12.78c3.01,0,6.027-.123,9.028.044,1.938.108,1.619-1.053,1.62-2.173s.309-2.217-1.62-2.176q-9.026.193-18.058,0c-1.932-.042-1.618,1.056-1.619,2.177s-.315,2.281,1.621,2.173c3-.167,6.018-.044,9.028-.044m8.522,25.557c3.01,0,6.027-.124,9.028.044,1.945.109,1.61-1.062,1.617-2.177s.3-2.213-1.623-2.172q-9.026.192-18.058,0c-1.939-.042-1.609,1.065-1.616,2.18s-.3,2.276,1.624,2.169c3-.166,6.017-.044,9.028-.044m-17.276,8.519c3.1,0,6.2-.109,9.294.04,1.937.094,1.565-1.09,1.6-2.2.033-1.181.206-2.181-1.655-2.145q-9.026.181-18.059,0c-1.933-.037-1.565,1.093-1.595,2.2-.032,1.18-.211,2.243,1.656,2.141,2.913-.159,5.841-.042,8.762-.042m-2.16-25.556c2.3,0,4.613-.14,6.9.044,1.86.15,1.925-.75,1.924-2.173s-.067-2.248-1.922-2.179c-4.242.158-8.5.109-12.741.02-1.627-.034-2.506.059-2.506,2.16s.875,2.248,2.506,2.155c1.941-.11,3.892-.026,5.839-.026m21.824-4.258c-2.3,0-4.613.14-6.9-.044-1.867-.151-1.917.76-1.921,2.177s.076,2.244,1.925,2.176c4.242-.157,8.5-.11,12.741-.019,1.633.035,2.5-.068,2.5-2.163s-.884-2.243-2.51-2.152c-1.941.109-3.892.026-5.84.026m-23.787,21.3c1.68,0,3.366-.09,5.039.023,2.074.14,1.359-1.34,1.432-2.319.078-1.041.3-2.092-1.5-2.007-3.264.156-6.542.032-9.814.056-.548,0-1.173-.237-1.455.682-.706,2.306.149,3.558,2.581,3.564,1.238,0,2.477,0,3.715,0M16.765,100.2a16.675,16.675,0,0,1-2.382-.019c-1.768-.258-2.162.476-2.187,2.171-.027,1.787.548,2.3,2.233,2.135a20.979,20.979,0,0,1,4.234,0c1.772.192,2.162-.489,2.188-2.182.027-1.787-.552-2.359-2.233-2.121a13.344,13.344,0,0,1-1.853.014m29.588,34.075a14.466,14.466,0,0,1,2.118.017c1.752.26,2.177-.452,2.195-2.162.018-1.772-.527-2.315-2.227-2.141a21.211,21.211,0,0,1-3.97,0c-1.66-.144-2.473.1-2.482,2.168-.01,2.116.906,2.3,2.513,2.125a17.2,17.2,0,0,1,1.854-.011m-4.284,17.043a14.9,14.9,0,0,1,2.127.017c1.742.254,2.2-.425,2.216-2.161.012-1.778-.528-2.327-2.237-2.152a19.557,19.557,0,0,1-3.987,0c-1.722-.178-2.266.386-2.275,2.171-.01,1.823.615,2.368,2.295,2.139a13.808,13.808,0,0,1,1.861-.013m2.4,4.249a16.471,16.471,0,0,1-2.128-.015c-1.68-.221-2.3.316-2.295,2.14.01,1.785.551,2.35,2.275,2.171a19.6,19.6,0,0,1,3.987,0c1.707.175,2.249-.373,2.237-2.152-.012-1.735-.474-2.423-2.216-2.16a12.61,12.61,0,0,1-1.861.014m6.1-40.11c.12-1.462.33-2.806-1.857-2.517-1.293.171-2.718-.29-2.41,1.927.179,1.292-.284,2.742,1.929,2.4,1.247-.192,2.925.411,2.339-1.811" transform="translate(-3.74 -44.812)" fill="#eddb99"/>
        <path id="Trazado_721377" data-name="Trazado 721377" d="M80.122,102.419l4.684,4.766c-4.984,1.041-5.189.848-4.684-4.766" transform="translate(-37.353 -47.86)" fill="#e4b631"/>
        <path id="Trazado_721378" data-name="Trazado 721378" d="M104.445,39.955c-4.607,0-9.216-.074-13.821.04a3.24,3.24,0,0,1-3.352-1.864Q80.345,25.883,73.213,13.749c-.984-1.667-1.066-2.358.973-3.2C95,2,118.615,15.947,121.032,38.25c.174,1.606-.436,1.733-1.7,1.722-4.961-.043-9.923-.018-14.884-.018" transform="translate(-33.898 -3.742)" fill="#a0c12a"/>
        <path id="Trazado_721379" data-name="Trazado 721379" d="M162.783,216.939c-3.364,0-6.728.037-10.091-.011-3.122-.044-4.718-1.644-4.774-4.754-.045-2.478-.04-4.957,0-7.435.049-3.137,1.627-4.8,4.7-4.819q10.222-.068,20.445,0c2.952.021,4.573,1.668,4.639,4.614.059,2.566.054,5.134,0,7.7-.063,3.076-1.689,4.655-4.835,4.694-3.363.042-6.727.01-10.09.01m-2.348-10.649c1.677,0,3.366-.118,5.03.031,1.908.171,1.6-1.045,1.613-2.173.011-1.157.242-2.247-1.643-2.155-3.171.156-6.357.1-9.533.016-1.277-.033-1.6.382-1.65,1.638-.07,1.861.176,3.039,2.48,2.677a24.172,24.172,0,0,1,3.7-.034m4.364,8.519c1.677,0,3.364-.107,5.03.03,1.748.143,1.566-.957,1.489-2.012-.072-1,.585-2.386-1.465-2.3-3.085.123-6.183.122-9.269-.006-1.6-.067-2.076.348-2.1,2.019-.027,1.859.473,2.528,2.344,2.3a33.658,33.658,0,0,1,3.97-.031M175.539,204.3c.337-1.625-.041-2.446-1.96-2.325-1.5.094-2.445.114-2.3,2.071.108,1.5.119,2.465,2.074,2.3,1.453-.127,2.722-.02,2.189-2.041m-23.271,6.3c-1.672-.369-2.369.137-2.288,1.991.068,1.558.208,2.378,2.1,2.275,1.555-.085,2.4-.213,2.268-2.108-.1-1.513-.121-2.669-2.083-2.158" transform="translate(-69.106 -93.405)" fill="#88cae4"/>
        <path id="Trazado_721380" data-name="Trazado 721380" d="M196.5,49.021c-2.654,0-5.31.045-7.962-.012-2.974-.064-4.573-1.654-4.641-4.613-.059-2.564-.053-5.132,0-7.7.06-3,1.626-4.656,4.559-4.689q8.227-.093,16.455,0c2.807.032,4.428,1.673,4.505,4.471.074,2.652.068,5.309,0,7.962-.072,2.939-1.692,4.507-4.689,4.565-2.742.053-5.485.011-8.228.011M194.6,38.375a17.453,17.453,0,0,1,2.112.014c1.565.191,2.181-.313,2.133-2.012-.044-1.582-.249-2.5-2.136-2.288a21.586,21.586,0,0,1-4.222.005c-1.669-.144-2.279.356-2.279,2.153s.614,2.347,2.279,2.141a17.351,17.351,0,0,1,2.113-.014m4.119,8.519c.528,0,1.057-.008,1.585,0,1.485.027,2.842.342,2.842-2.122,0-2.446-1.327-2.165-2.829-2.139-1.145.021-2.293.053-3.435-.008-1.455-.078-2.454-.03-2.425,2,.027,1.9.6,2.542,2.413,2.28a13.033,13.033,0,0,1,1.848-.013m8.552-10.35c.2-1.511.142-2.708-1.917-2.453-1.2.149-2.569-.251-2.322,1.786.151,1.24-.407,2.8,1.846,2.52,1.263-.155,2.907.381,2.392-1.854m-17.049,8.165c.46-1.937-.638-2.07-2.191-2.122-1.657-.055-2.07.5-2.069,2.1,0,1.647.361,2.3,2.168,2.274,1.714-.029,2.489-.47,2.092-2.247" transform="translate(-85.915 -14.936)" fill="#2c7eb1"/>
        <path id="Trazado_721381" data-name="Trazado 721381" d="M28.761,159.9c3.719,0,7.444.111,11.157-.046,1.931-.081,1.626,1.047,1.623,2.173s.312,2.208-1.619,2.178q-11.156-.174-22.316,0c-1.925.03-1.625-1.048-1.622-2.174s-.317-2.259,1.62-2.177c3.713.158,7.438.046,11.157.046" transform="translate(-7.46 -74.695)"/>
        <path id="Trazado_721382" data-name="Trazado 721382" d="M42.624,132.174c-3.01,0-6.027-.123-9.028.044-1.936.108-1.622-1.05-1.621-2.173s-.313-2.218,1.618-2.177q9.026.193,18.059,0c1.929-.042,1.621,1.053,1.62,2.176s.317,2.282-1.62,2.174c-3-.167-6.017-.044-9.028-.044" transform="translate(-14.933 -59.752)"/>
        <path id="Trazado_721383" data-name="Trazado 721383" d="M58.617,180.149c-3.01,0-6.027-.122-9.028.044-1.929.107-1.632-1.04-1.624-2.169s-.323-2.222,1.616-2.18q9.026.194,18.058,0c1.922-.04,1.63,1.044,1.623,2.172s.328,2.286-1.617,2.177c-3-.168-6.017-.044-9.028-.044" transform="translate(-22.404 -82.17)"/>
        <path id="Trazado_721384" data-name="Trazado 721384" d="M26.391,196.142c-2.921,0-5.85-.117-8.762.042-1.868.1-1.689-.961-1.656-2.141.03-1.109-.338-2.238,1.595-2.2q9.027.174,18.059,0c1.861-.037,1.688.963,1.655,2.144-.031,1.109.341,2.293-1.6,2.2-3.091-.15-6.2-.04-9.294-.04" transform="translate(-7.455 -89.645)"/>
        <path id="Trazado_721385" data-name="Trazado 721385" d="M24.173,148.161c-1.947,0-3.9-.084-5.839.026-1.631.093-2.506-.056-2.506-2.156s.878-2.193,2.506-2.159c4.246.089,8.5.138,12.74-.02,1.855-.069,1.922.758,1.923,2.179s-.064,2.323-1.925,2.173c-2.286-.184-4.6-.044-6.9-.044" transform="translate(-7.396 -67.219)"/>
        <path id="Trazado_721386" data-name="Trazado 721386" d="M64.726,143.9c1.947,0,3.9.083,5.839-.026,1.625-.091,2.511.046,2.509,2.152s-.87,2.2-2.5,2.163c-4.246-.091-8.5-.137-12.74.019-1.85.068-1.931-.748-1.926-2.176s.054-2.327,1.921-2.176c2.286.184,4.6.044,6.9.044" transform="translate(-26.124 -67.214)"/>
        <path id="Trazado_721387" data-name="Trazado 721387" d="M22.075,180.148c-1.238,0-2.476,0-3.714,0-2.433-.005-3.288-1.258-2.581-3.564.281-.919.907-.679,1.454-.682,3.272-.025,6.549.1,9.814-.056,1.8-.085,1.578.966,1.5,2.007-.074.979.642,2.458-1.432,2.319-1.672-.113-3.359-.023-5.039-.023" transform="translate(-7.262 -82.169)"/>
        <path id="Trazado_721388" data-name="Trazado 721388" d="M20.443,103.91A13.342,13.342,0,0,0,22.3,103.9c1.68-.238,2.259.334,2.233,2.121-.026,1.694-.415,2.374-2.188,2.182a21.014,21.014,0,0,0-4.233,0c-1.686.161-2.26-.348-2.234-2.135.026-1.694.42-2.428,2.188-2.171a16.668,16.668,0,0,0,2.382.019" transform="translate(-7.417 -48.524)"/>
        <path id="Trazado_721389" data-name="Trazado 721389" d="M76.164,164.15a17.34,17.34,0,0,0-1.854.011c-1.606.175-2.522-.008-2.513-2.125.009-2.063.822-2.311,2.482-2.168a21.214,21.214,0,0,0,3.97,0c1.7-.174,2.244.369,2.226,2.141-.017,1.709-.442,2.422-2.195,2.161a14.465,14.465,0,0,0-2.118-.017" transform="translate(-33.55 -74.689)"/>
        <path id="Trazado_721390" data-name="Trazado 721390" d="M68.307,196.132a13.9,13.9,0,0,0-1.861.013c-1.68.23-2.3-.315-2.295-2.139.01-1.785.552-2.349,2.275-2.171a19.56,19.56,0,0,0,3.987,0c1.708-.175,2.249.374,2.237,2.152-.012,1.736-.474,2.415-2.216,2.161a14.9,14.9,0,0,0-2.127-.017" transform="translate(-29.977 -89.629)" fill="#050403"/>
        <path id="Trazado_721391" data-name="Trazado 721391" d="M72.571,207.845a12.61,12.61,0,0,0,1.861-.014c1.741-.264,2.2.424,2.215,2.16.012,1.779-.53,2.326-2.237,2.152a19.557,19.557,0,0,0-3.987,0c-1.723.178-2.265-.387-2.274-2.172-.01-1.824.615-2.361,2.295-2.14a16.37,16.37,0,0,0,2.128.015" transform="translate(-31.845 -97.092)" fill="#050403"/>
        <path id="Trazado_721392" data-name="Trazado 721392" d="M84.121,130.368c.586,2.222-1.092,1.619-2.339,1.811-2.213.341-1.75-1.109-1.929-2.4-.308-2.217,1.118-1.756,2.411-1.927,2.187-.289,1.977,1.055,1.857,2.517" transform="translate(-37.295 -59.726)"/>
        <path id="Trazado_721393" data-name="Trazado 721393" d="M166.011,208.135a24.178,24.178,0,0,0-3.7.034c-2.3.362-2.55-.816-2.48-2.677.047-1.256.373-1.671,1.65-1.638,3.177.082,6.362.14,9.533-.015,1.885-.092,1.654,1,1.643,2.154-.011,1.129.3,2.344-1.613,2.174-1.664-.149-3.352-.031-5.03-.031" transform="translate(-74.682 -95.249)"/>
        <path id="Trazado_721394" data-name="Trazado 721394" d="M174.1,224.129a33.656,33.656,0,0,0-3.97.03c-1.872.224-2.372-.445-2.345-2.3.025-1.671.5-2.086,2.1-2.02,3.085.128,6.183.129,9.269.006,2.05-.082,1.393,1.3,1.465,2.3.077,1.055.259,2.155-1.489,2.012-1.667-.136-3.353-.029-5.031-.029" transform="translate(-78.403 -102.725)"/>
        <path id="Trazado_721395" data-name="Trazado 721395" d="M196.044,206.129c.532,2.022-.736,1.914-2.189,2.041-1.956.17-1.966-.8-2.074-2.295-.142-1.957.8-1.977,2.3-2.071,1.92-.12,2.3.7,1.96,2.325" transform="translate(-89.611 -95.231)"/>
        <path id="Trazado_721396" data-name="Trazado 721396" d="M154.1,219.9c1.963-.511,1.981.645,2.083,2.158.129,1.895-.713,2.023-2.268,2.108-1.9.1-2.036-.717-2.1-2.275-.08-1.854.616-2.36,2.288-1.991" transform="translate(-70.937 -102.702)"/>
        <path id="Trazado_721397" data-name="Trazado 721397" d="M200.167,40.213a17.341,17.341,0,0,0-2.112.014c-1.665.205-2.279-.345-2.279-2.141s.609-2.3,2.278-2.153a21.592,21.592,0,0,0,4.223-.005c1.886-.21,2.092.706,2.136,2.288.047,1.7-.569,2.2-2.134,2.011a17.448,17.448,0,0,0-2.112-.014" transform="translate(-91.485 -16.775)"/>
        <path id="Trazado_721398" data-name="Trazado 721398" d="M208.013,56.229a13.033,13.033,0,0,0-1.848.014c-1.81.262-2.385-.385-2.413-2.281-.029-2.031.97-2.079,2.425-2,1.142.062,2.29.029,3.435.009,1.5-.027,2.828-.308,2.828,2.138,0,2.464-1.357,2.149-2.842,2.122-.528-.01-1.057,0-1.586,0" transform="translate(-95.212 -24.271)"/>
        <path id="Trazado_721399" data-name="Trazado 721399" d="M224.061,38.379c.515,2.235-1.129,1.7-2.392,1.854-2.253.276-1.7-1.281-1.846-2.52-.248-2.038,1.121-1.638,2.322-1.786,2.058-.255,2.113.941,1.917,2.453" transform="translate(-102.708 -16.772)"/>
        <path id="Trazado_721400" data-name="Trazado 721400" d="M192.063,54.025c.4,1.777-.378,2.218-2.093,2.247-1.806.031-2.167-.627-2.168-2.274,0-1.595.412-2.15,2.069-2.1,1.553.052,2.651.185,2.191,2.122" transform="translate(-87.759 -24.252)"/>
      </g>
    </g>
  </g>
</svg>
