<svg xmlns="http://www.w3.org/2000/svg" xmlns:xlink="http://www.w3.org/1999/xlink" width="169" height="169" viewBox="0 0 169 169">
  <defs>
    <clipPath id="clip-path">
      <rect id="Rect치ngulo_351305" data-name="Rect치ngulo 351305" width="131.647" height="131.109" fill="none"/>
    </clipPath>
  </defs>
  <g id="Grupo_1018495" data-name="Grupo 1018495" transform="translate(-719.001 -5291.951)">
    <g id="Grupo_1015076" data-name="Grupo 1015076" transform="translate(-18 3233.951)">
      <g id="Grupo_159183" data-name="Grupo 159183" transform="translate(737.001 2058)">
        <path id="Uni칩n_12" data-name="Uni칩n 12" d="M84.5,0A84.5,84.5,0,1,1,0,84.5,84.5,84.5,0,0,1,84.5,0Z" fill="#cda7ff"/>
      </g>
    </g>
    <g id="Grupo_1018320" data-name="Grupo 1018320" transform="translate(735 5310)">
      <g id="Grupo_1018319" data-name="Grupo 1018319" clip-path="url(#clip-path)">
        <path id="Trazado_721317" data-name="Trazado 721317" d="M59.8,110.8c0,5.8-.1,11.432.047,17.056.061,2.422-.644,3.263-3.174,3.249q-26.765-.147-53.531,0c-2.6.015-3.142-.93-3.137-3.288q.1-36.58,0-73.16c-.008-2.449.732-3.3,3.215-3.263,8.822.116,17.649-.09,26.467.12,2.992.071,5.148-.408,6.252-3.444a17.358,17.358,0,0,1,1.886-2.906c-5.451,0-10.528,0-15.605,0-4.1,0-4.1,0-4.105-4.141,0-12.491.071-24.982-.056-37.472C18.027.826,18.81-.017,21.59,0Q49.1.173,76.608,0c2.68-.015,3.386.889,3.342,3.436-.136,7.73.068,15.467-.118,23.195-.058,2.415.608,3.374,2.978,3.931,4.629,1.087,4.589,1.255,4.59-3.589,0-2.577.039-5.155-.011-7.732-.033-1.695.536-2.537,2.4-2.527q15.614.079,31.228,0c1.776-.008,2.479.62,2.473,2.427q-.063,18.884.007,37.769c.009,1.948-.738,2.671-2.63,2.611-2.575-.081-5.158.054-7.731-.046-1.577-.061-1.749.464-1.43,1.9a40.584,40.584,0,0,1-3.869,28.775c-.879,1.64-.378,2.405.72,3.492q10.046,9.932,19.976,19.98a9.847,9.847,0,0,1,1.984,11.759A10.154,10.154,0,0,1,120.251,131a10.68,10.68,0,0,1-6.689-3.491c-6.427-6.47-12.933-12.865-19.305-19.387-1.335-1.366-2.247-1.492-3.972-.586-9.614,5.049-19.771,5.881-30.485,3.267M28.342,32.98a3.955,3.955,0,0,1,3.369.107c1.268.567,4.408-1.535,3.941-2.462a23.975,23.975,0,0,0-2.516-3.976c-.719-.92-1.564-.65-2.088.356-.992,1.906-2.348,3.624-2.967,5.724-.094.166-.189.332-.283.5l.544-.248M98.631,39.1c.251.188.339.832.763.481.3-.248.1-.7-.252-.962a16.4,16.4,0,0,1-.224-7.36,6.513,6.513,0,0,1,6.746-5.1c3.092.077,5.963,2.257,6.328,5.23.321,2.617.7,5.352-.763,7.834-.444.755-.8,1.39.344,1.854,5.977,2.433,7.619,7.3,7.412,13.217-.024.722-.307,1.97.671,1.977,1.349.011.778-1.357.781-2.1.045-10.7-.027-21.4.08-32.1.021-2.117-.829-2.393-2.609-2.37-6.44.081-12.881-.031-19.319.062-2.637.038-6.143-1.2-7.663.587-1.3,1.52-.194,4.937-.511,7.47-.491,3.931.456,6.836,4.389,8.488,1.417.595,2.559,1.841,3.828,2.787M36.015,94.034c-.308-3.185-2.434-3.244-4.736-3.143-1.071.047-2.4.094-2.5-1.418-.108-1.614,1.233-1.6,2.31-1.525,2.631.177,1.415-1.3,1.036-2.353-.335-.934-1.239-.761-2-.929-1.636-.36-2.05-1.638-.741-2.449,1.612-1,1.109-2.01.794-3.225-.422-1.627-1.75-.993-2.705-1-5.947-.055-11.9-.02-17.844-.035-1.159,0-2.719.251-2.794-1.4C6.742,74.546,8.5,75.005,9.693,75c5.948-.038,11.9-.022,17.844-.014,1.039,0,1.957.07,1.907-1.484-.043-1.338-.6-1.668-1.814-1.64-2.577.058-5.155.018-7.733.015-3.668,0-7.337.007-11-.021-.912-.007-1.826-.155-2.083-1.263a1.1,1.1,0,0,1,.718-1.437A9.225,9.225,0,0,1,9.868,68.9c5.849-.02,11.7-.087,17.547.031,1.914.039,1.961-.953,2.1-2.359.18-1.823-.978-1.574-2.053-1.576q-4.758-.006-9.517,0c-1.017,0-2.158.005-2.225-1.351-.076-1.542,1.127-1.624,2.272-1.626q3.123-.007,6.245,0c5.868,0,5.776-.03,7.6-5.64.579-1.779.1-1.973-1.473-1.964-8.327.049-16.655.068-24.982-.013-1.791-.017-2.384.482-2.379,2.332q.084,34.648.012,69.3c0,1.477.328,2.081,1.957,2.075q24.983-.08,49.966-.009c1.371,0,1.922-.348,1.9-1.818-.076-4.955-.061-9.914,0-14.87.013-1.158-.525-1.6-1.41-2.25-2.061-1.507-3.626.492-5.489.473-13.382-.137-26.767-.067-40.15-.085-1.217,0-2.97.405-2.958-1.5s1.782-1.453,2.983-1.455c12.393-.024,24.785-.005,37.177-.042.657,0,1.529.479,1.982-.306-2.454-2.9-5.588-3.5-9.134-3.218a78.094,78.094,0,0,1-8.026.023c-1.183-.027-2.96.531-3.007-1.415s1.707-1.517,2.917-1.533c3.078-.042,6.158-.014,9.427-.014a4.94,4.94,0,0,0-5.592-3.083,26.385,26.385,0,0,1-3.863.014c-1.22-.045-2.921.372-2.892-1.581.026-1.773,1.631-1.34,2.746-1.379,1.476-.052,2.953-.013,4.47-.013m35.076,15.021c20.357.6,38.541-16.594,38.635-38.348.087-20.007-15.319-38.7-38.572-38.838C49.468,31.737,32.507,48.684,32.387,70.5c-.123,22.34,18.656,39.233,38.7,38.553m-13.9-79.582c1.211-1.9,2.153-3.4,3.107-4.88,2.732-4.256,6.131-4.224,8.614.085.544.943,1.03,1.92,1.6,2.846,1.389,2.251,3.8,1.4,5.659,1.43,1.364.025.685-1.951.7-3,.074-6.636-.039-13.275.082-19.91.039-2.176-.331-3.074-2.848-3.055Q49,3.179,23.883,3.006c-2.181-.011-2.867.492-2.839,2.771.13,10.1.049,20.207.082,30.312,0,.446-.455,1.171.422,1.408a3.44,3.44,0,0,0,.4-.478c1.612-2.839,3.229-5.676,4.82-8.527,4.075-7.3,5.719-7.465,10.544-.874,1.057,1.443,1.5,1.035,2.223-.175q1.894-3.19,3.944-6.289c2.443-3.681,6.156-3.624,8.57.123,1.66,2.577,3.259,5.192,5.138,8.2m65.022,98.522a6.95,6.95,0,0,0,5.707-4.287,6.466,6.466,0,0,0-1.344-7.668c-6.651-6.791-13.422-13.464-20.122-20.207-.856-.861-1.35-1.126-2.247.085a37.287,37.287,0,0,1-7.514,7.555c-1.349,1.017-1.306,1.64-.194,2.742,6.613,6.551,13.162,13.164,19.777,19.712a7.378,7.378,0,0,0,5.937,2.067M33.879,42.219c2.723-.238,5.291.9,6.874-.556a72.732,72.732,0,0,1,14.2-10.252c-3.415-.7-6.836.722-10.147-.2-.129-.036-.327.194-.5.292-.942.535-1.871,1.2-3.033.672-.874-.4-1.277.16-1.649.758-1.814,2.915-3.614,5.838-5.746,9.288m69.1,1.314a52.629,52.629,0,0,1,7.081,12.006c.773,1.891,2.628.682,3.971.941a1.345,1.345,0,0,0,1.718-.741C117.8,51.2,114.2,44.3,109.24,43.578a46.815,46.815,0,0,0-6.256-.045m6.2-9.455c-.056-1.165.1-2.349-.688-3.4a3.563,3.563,0,0,0-4.19-1.366c-2.617.84-2.611,3.1-2.612,5.336,0,2.125.419,4,2.737,4.649a3.56,3.56,0,0,0,4.135-1.511c.818-1.155.523-2.456.617-3.713m-86.11,7.829c6.861,1.042,7.883.548,10.148-4.9-5.962-1.933-8.24-.832-10.148,4.9M42.059,29.083c2.661-1.243,4.375-2.329,6.459-.71,1.14.885,1.946-.895,2.929-1.378.915-.449-.149-1.139-.408-1.652a21.483,21.483,0,0,0-1.7-2.75c-1.065-1.493-2.238-1.531-3.26.016-1.24,1.877-2.381,3.819-4.023,6.475M66.544,27.19c-.556-1.308-.6-3.071-2.416-2.5-.922.29-1.824,1.555-1.454,2.3.991,2,2.552-.659,3.869.2" transform="translate(0 0)" fill="#060707"/>
        <path id="Trazado_721318" data-name="Trazado 721318" d="M38.057,130.988c-1.517,0-3-.039-4.47.013-1.115.039-2.721-.394-2.746,1.379-.029,1.953,1.672,1.536,2.892,1.581a26.38,26.38,0,0,0,3.863-.014,4.94,4.94,0,0,1,5.592,3.083c-3.269,0-6.349-.028-9.428.014-1.21.017-2.964-.413-2.917,1.533s1.824,1.388,3.007,1.415a78.106,78.106,0,0,0,8.027-.023c3.546-.283,6.679.315,9.133,3.218-.453.785-1.323.3-1.98.306-12.393.036-24.785.018-37.177.042-1.2,0-2.971-.466-2.983,1.455s1.742,1.5,2.958,1.5c13.384.018,26.769-.052,40.151.085,1.862.019,3.427-1.979,5.489-.473.885.647,1.423,1.092,1.409,2.25-.057,4.956-.071,9.914,0,14.87.023,1.47-.528,1.821-1.9,1.818q-24.983-.054-49.966.009c-1.63.005-1.96-.6-1.957-2.075q.054-34.648-.012-69.3c0-1.849.588-2.349,2.379-2.332,8.327.081,16.655.062,24.983.013,1.574-.009,2.051.185,1.473,1.964-1.826,5.61-1.736,5.639-7.6,5.64q-3.123,0-6.246,0c-1.146,0-2.349.084-2.272,1.626.067,1.356,1.208,1.35,2.225,1.351q4.758.005,9.517,0c1.075,0,2.232-.247,2.053,1.576-.139,1.406-.186,2.4-2.1,2.359-5.847-.118-11.7-.051-17.547-.031a9.225,9.225,0,0,0-2.341.256,1.105,1.105,0,0,0-.719,1.437c.257,1.108,1.172,1.256,2.084,1.263,3.668.027,7.336.018,11,.021,2.577,0,5.156.043,7.732-.015,1.212-.028,1.772.3,1.814,1.64.05,1.555-.868,1.486-1.906,1.484-5.949-.008-11.9-.024-17.845.014-1.19.008-2.95-.452-2.859,1.557.075,1.654,1.635,1.4,2.794,1.4,5.948.014,11.9-.02,17.845.035.955.009,2.282-.626,2.7,1,.315,1.215.818,2.225-.794,3.225-1.308.811-.895,2.089.741,2.449.763.168,1.667,0,2,.929.379,1.057,1.595,2.53-1.036,2.353-1.077-.073-2.418-.089-2.311,1.525.1,1.512,1.43,1.465,2.5,1.418,2.3-.1,4.429-.042,4.737,3.143M8.872,129.343c0,2.766.077,5.536-.026,8.3-.077,2.069.513,3.1,2.828,3.024,4.244-.138,8.5-.11,12.744-.008,1.979.048,2.619-.815,2.607-2.645-.038-5.731-.051-11.462.008-17.192.02-2.02-.784-2.837-2.827-2.793-4.148.089-8.3.1-12.448,0-2.219-.053-2.992.888-2.912,3.018.1,2.763.026,5.532.026,8.3m23.035,26.307q-7.277,0-14.553,0c-2.277,0-4.555-.019-6.83.049-.96.029-1.773.45-1.721,1.607.044.993.8,1.293,1.632,1.385a16.1,16.1,0,0,0,1.779.058q19.752,0,39.5,0a10.79,10.79,0,0,0,2.063-.15,1.408,1.408,0,0,0,.082-2.753,13.606,13.606,0,0,0-2.351-.186q-9.8-.021-19.6-.008m0-3.1q10.406,0,20.811,0c1.058,0,2.155-.129,2.139-1.449-.015-1.238-1.027-1.552-2.126-1.531-.3.006-.595,0-.892,0q-20.068,0-40.136.01c-1.234,0-2.93-.3-2.827,1.643.092,1.72,1.7,1.31,2.814,1.315,6.739.029,13.478.014,20.217.012" transform="translate(-2.042 -36.954)" fill="#a5afb7"/>
        <path id="Trazado_721319" data-name="Trazado 721319" d="M93.094,130.7c-20.048.68-38.827-16.212-38.7-38.553.12-21.818,17.082-38.765,38.768-38.634,23.253.141,38.659,18.831,38.572,38.838-.094,21.754-18.279,38.946-38.635,38.348m-.155-70.316A31.431,31.431,0,0,0,61.132,92.323c.142,18.691,14.777,31.758,32.054,31.751a31.844,31.844,0,1,0-.247-63.686" transform="translate(-22.003 -21.65)" fill="#33475c"/>
        <path id="Trazado_721320" data-name="Trazado 721320" d="M71.466,31.5c-1.88-3-3.478-5.619-5.138-8.2-2.415-3.747-6.128-3.8-8.571-.124q-2.052,3.092-3.944,6.289c-.719,1.211-1.166,1.618-2.223.174-4.825-6.59-6.469-6.422-10.544.875-1.592,2.85-3.208,5.688-4.82,8.527a3.479,3.479,0,0,1-.4.478c-.877-.238-.421-.962-.423-1.408-.033-10.1.048-20.208-.081-30.311-.029-2.279.657-2.783,2.838-2.771q25.111.135,50.222-.015C90.9,5,91.265,5.9,91.226,8.076c-.12,6.635-.007,13.274-.082,19.91-.011,1.047.667,3.023-.7,3-1.859-.034-4.271.822-5.659-1.429-.571-.925-1.058-1.9-1.6-2.846C80.7,22.4,77.3,22.367,74.572,26.624c-.953,1.485-1.9,2.977-3.106,4.88m1.3-22.929a6.307,6.307,0,0,0-6.412,6.066,6.43,6.43,0,0,0,6.373,6.475,6.171,6.171,0,0,0,6.145-6.293,5.994,5.994,0,0,0-6.106-6.249" transform="translate(-14.273 -2.031)" fill="#4d7bb6"/>
        <path id="Trazado_721321" data-name="Trazado 721321" d="M187.216,192.6a7.379,7.379,0,0,1-5.937-2.066c-6.614-6.549-13.164-13.163-19.777-19.712-1.113-1.1-1.155-1.725.194-2.743a37.3,37.3,0,0,0,7.513-7.555c.9-1.211,1.39-.946,2.246-.085,6.7,6.742,13.472,13.416,20.123,20.207a6.468,6.468,0,0,1,1.344,7.668,6.952,6.952,0,0,1-5.707,4.287" transform="translate(-65.001 -64.609)" fill="#33485d"/>
        <path id="Trazado_721322" data-name="Trazado 721322" d="M159.962,52.266c-1.268-.949-2.41-2.2-3.827-2.79-3.934-1.652-4.88-4.558-4.388-8.488.317-2.533-.785-5.95.511-7.47,1.52-1.784,5.026-.548,7.663-.587,6.439-.093,12.88.019,19.319-.062,1.78-.023,2.63.253,2.609,2.369-.108,10.7-.036,21.4-.08,32.1,0,.741.568,2.109-.781,2.1-.977-.008-.7-1.256-.67-1.978.206-5.919-1.436-10.783-7.413-13.217-1.139-.463-.788-1.1-.343-1.854,1.464-2.482,1.084-5.217.763-7.834-.364-2.973-3.237-5.152-6.328-5.23a6.512,6.512,0,0,0-6.745,5.1,16.4,16.4,0,0,0,.224,7.361l-.512.485" transform="translate(-61.333 -13.168)" fill="#4c7bb5"/>
        <path id="Trazado_721323" data-name="Trazado 721323" d="M56.894,63.419c2.133-3.451,3.932-6.374,5.746-9.288.372-.6.776-1.153,1.649-.758,1.161.525,2.09-.136,3.033-.672.171-.1.371-.328.5-.292,3.311.925,6.732-.492,10.147.2a72.7,72.7,0,0,0-14.2,10.252c-1.584,1.455-4.152.318-6.875.556" transform="translate(-23.016 -21.2)" fill="#f3c75c"/>
        <path id="Trazado_721324" data-name="Trazado 721324" d="M172.949,73.047a46.805,46.805,0,0,1,6.256.045c4.96.719,8.556,7.623,6.514,12.162a1.343,1.343,0,0,1-1.717.741c-1.343-.26-3.2.949-3.971-.941a52.633,52.633,0,0,0-7.081-12.007" transform="translate(-69.966 -29.514)" fill="#47b9ab"/>
        <path id="Trazado_721325" data-name="Trazado 721325" d="M178.28,53.853c-.1,1.255.2,2.556-.62,3.711a3.561,3.561,0,0,1-4.135,1.51c-2.317-.65-2.737-2.524-2.737-4.648,0-2.238,0-4.5,2.612-5.336a3.564,3.564,0,0,1,4.19,1.366c.789,1.046.632,2.23.69,3.4" transform="translate(-69.092 -19.774)" fill="#f2a036"/>
        <path id="Trazado_721326" data-name="Trazado 721326" d="M38.753,66.45c1.907-5.737,4.186-6.838,10.148-4.9-2.265,5.452-3.287,5.946-10.148,4.9" transform="translate(-15.677 -24.543)" fill="#e49733"/>
        <path id="Trazado_721327" data-name="Trazado 721327" d="M70.634,43.663c1.642-2.656,2.783-4.6,4.023-6.475,1.022-1.547,2.195-1.509,3.26-.016a21.347,21.347,0,0,1,1.7,2.75c.259.514,1.323,1.2.408,1.652-.983.484-1.789,2.264-2.928,1.378-2.085-1.618-3.8-.533-6.459.71" transform="translate(-28.575 -14.58)" fill="#f3c75c"/>
        <path id="Trazado_721328" data-name="Trazado 721328" d="M47.16,50.451c.619-2.1,1.975-3.817,2.967-5.724.524-1.006,1.369-1.276,2.088-.356a24.014,24.014,0,0,1,2.516,3.976c.466.927-2.674,3.028-3.941,2.462A3.955,3.955,0,0,0,47.42,50.7l-.26-.251" transform="translate(-19.078 -17.723)" fill="#e49733"/>
        <path id="Trazado_721329" data-name="Trazado 721329" d="M109.066,43.89c-1.318-.854-2.878,1.8-3.869-.2-.371-.747.532-2.012,1.454-2.3,1.82-.573,1.86,1.19,2.416,2.5" transform="translate(-42.523 -16.7)" fill="#e49733"/>
        <path id="Trazado_721330" data-name="Trazado 721330" d="M166.149,64.846c.353.258.553.715.253.963-.425.351-.512-.293-.765-.479l.511-.484" transform="translate(-67.008 -26.233)" fill="#4c7bb5"/>
        <path id="Trazado_721331" data-name="Trazado 721331" d="M47.227,55.215l-.544.248.284-.5.26.251" transform="translate(-18.885 -22.236)" fill="#e49733"/>
        <path id="Trazado_721332" data-name="Trazado 721332" d="M11.449,147.467c0-2.766.079-5.536-.026-8.3-.08-2.13.693-3.071,2.911-3.018,4.148.1,8.3.09,12.449,0,2.042-.044,2.847.773,2.826,2.793-.058,5.73-.045,11.461-.007,17.192.012,1.83-.628,2.693-2.607,2.645-4.246-.1-8.5-.13-12.744.008-2.315.075-2.9-.955-2.828-3.024.1-2.763.026-5.532.026-8.3m2.992-.05c0,2.078.063,4.159-.021,6.234-.06,1.458.307,2.193,1.958,2.126,2.668-.109,5.345-.089,8.015-.006,1.5.047,2.132-.411,2.1-2-.079-4.155-.062-8.313-.005-12.469.02-1.454-.368-2.2-1.994-2.152-2.768.088-5.542.06-8.313.008-1.262-.024-1.789.448-1.755,1.732.058,2.176.016,4.354.013,6.532" transform="translate(-4.619 -55.078)" fill="#0a0b0b"/>
        <path id="Trazado_721333" data-name="Trazado 721333" d="M34.457,199.334q9.8,0,19.6.008a13.608,13.608,0,0,1,2.351.186,1.408,1.408,0,0,1-.083,2.753,10.874,10.874,0,0,1-2.062.15q-19.752.012-39.5,0a16.262,16.262,0,0,1-1.779-.058c-.836-.093-1.587-.392-1.632-1.386-.052-1.157.762-1.579,1.722-1.607,2.275-.068,4.553-.047,6.829-.049q7.278-.007,14.554,0" transform="translate(-4.591 -80.64)" fill="#101112"/>
        <path id="Trazado_721334" data-name="Trazado 721334" d="M34.507,192.094c-6.739,0-13.478.016-20.217-.013-1.112,0-2.722.4-2.814-1.315-.1-1.947,1.592-1.642,2.827-1.643q20.068-.024,40.136-.01c.3,0,.595.008.892,0,1.1-.021,2.11.293,2.126,1.531.016,1.32-1.081,1.449-2.139,1.449q-10.406-.007-20.811,0" transform="translate(-4.641 -76.503)" fill="#060707"/>
        <path id="Trazado_721335" data-name="Trazado 721335" d="M97.519,65.056a31.844,31.844,0,1,1,.247,63.686c-17.276.007-31.912-13.06-32.054-31.751A31.431,31.431,0,0,1,97.519,65.056m-.012,2.976a28.854,28.854,0,0,0,.118,57.708,28.855,28.855,0,1,0-.118-57.708" transform="translate(-26.583 -26.318)" fill="#030606"/>
        <path id="Trazado_721336" data-name="Trazado 721336" d="M93.883,10.99a5.994,5.994,0,0,1,6.106,6.249,6.171,6.171,0,0,1-6.145,6.293,6.431,6.431,0,0,1-6.373-6.475,6.308,6.308,0,0,1,6.412-6.066m3.174,6.153c-.17-1.851-1.108-3.078-3.122-3.143a3.029,3.029,0,0,0-3.418,3.22,3.044,3.044,0,0,0,3.12,3.265c2.057.07,3.239-1.16,3.42-3.342" transform="translate(-35.385 -4.446)" fill="#060707"/>
        <path id="Trazado_721337" data-name="Trazado 721337" d="M16.477,149.452c0-2.178.043-4.356-.014-6.531-.034-1.284.492-1.756,1.755-1.732,2.77.052,5.544.08,8.313-.008,1.626-.052,2.014.7,1.994,2.152-.057,4.156-.074,8.314.005,12.469.03,1.593-.607,2.051-2.1,2-2.669-.083-5.347-.1-8.014.006-1.652.067-2.019-.668-1.959-2.126.085-2.075.022-4.156.023-6.234" transform="translate(-6.654 -57.113)" fill="#4a77b0"/>
        <path id="Trazado_721338" data-name="Trazado 721338" d="M99.619,70.055a28.854,28.854,0,1,1-28.687,28.74,28.865,28.865,0,0,1,28.687-28.74M77.181,98.184c0,6.175,2.374,12.259,5.925,15.828.748.753,1.511,1.882,2.7.776,1.125-1.045.239-1.91-.464-2.791-6.873-8.608-6.872-17.53,0-26.214.691-.874,1.608-1.777.48-2.8s-1.983-.064-2.729.76a22.389,22.389,0,0,0-5.909,14.444" transform="translate(-28.695 -28.341)" fill="#47b9ab"/>
        <path id="Trazado_721339" data-name="Trazado 721339" d="M99.128,19.187c-.182,2.182-1.364,3.412-3.42,3.342a3.044,3.044,0,0,1-3.12-3.265,3.029,3.029,0,0,1,3.418-3.22c2.014.064,2.952,1.292,3.122,3.143" transform="translate(-37.456 -6.49)" fill="#f3c75c"/>
        <path id="Trazado_721340" data-name="Trazado 721340" d="M81.427,106.662a22.389,22.389,0,0,1,5.909-14.444c.746-.824,1.6-1.788,2.729-.76s.211,1.929-.48,2.8c-6.867,8.684-6.869,17.606,0,26.214.7.881,1.589,1.746.464,2.791-1.19,1.105-1.953-.024-2.7-.776-3.551-3.569-5.926-9.653-5.925-15.828" transform="translate(-32.941 -36.819)" fill="#040a09"/>
      </g>
    </g>
  </g>
</svg>
