<svg id="Grupo_1018359" data-name="Grupo 1018359" xmlns="http://www.w3.org/2000/svg" xmlns:xlink="http://www.w3.org/1999/xlink" width="216.431" height="203.725" viewBox="0 0 216.431 203.725">
  <defs>
    <clipPath id="clip-path">
      <rect id="Rectángulo_351321" data-name="Rectángulo 351321" width="216.431" height="203.725" fill="none"/>
    </clipPath>
  </defs>
  <g id="Grupo_1018358" data-name="Grupo 1018358" clip-path="url(#clip-path)">
    <path id="Trazado_721622" data-name="Trazado 721622" d="M40.1,164.439c-1.626-.605-3.03-1.283-3.232-3.392-1.826-19.092,9.5-30.948,23.382-33.442,4.924-.885,10.1-.422,15.164-.462,7.379-.058,14.758-.015,22.168-.015.052-2.1-1.348-2.058-2.252-2.493C85.3,119.814,78.9,112.074,76.7,101.125c-.431-2.145-1.313-2.5-3.274-2.77-13.717-1.88-19.866-16.455-11.7-27.7a7.09,7.09,0,0,0,1.422-4.646c-.069-3.378-.052-6.758-.01-10.136a15.2,15.2,0,0,0-1.582-7.65c-2.777-5.3-1.206-11.614,3.622-15.556a5.3,5.3,0,0,0,2.358-4.816A12.8,12.8,0,0,1,80,14.588c1.947-.109,3.084-.242,3.98-2.468C86.87,4.94,93.49,2.084,100.864,4.592a3.316,3.316,0,0,0,3.949-.835c5.621-5.035,12.557-5.017,18.206.1,1.44,1.3,2.391,1.22,3.983.68,7.115-2.414,13.722.458,16.676,7.3.791,1.831,1.494,2.693,3.772,2.775,7.785.281,12.846,5.833,12.781,13.787a4.18,4.18,0,0,0,1.8,3.807c5.734,4.665,6.989,10.814,3.586,17.281-1.843,3.5-.794,7.163-.938,10.74-.183,4.553.171,8.687,2.881,13.089,6.281,10.2-.824,23.344-12.949,24.989-2.409.327-3.139.993-3.657,3.361-2.235,10.211-8.181,17.686-17.507,22.484-1.168.6-2.8.6-3.384,2.191.731,1.375,2,.745,2.99.75,9.715.055,19.431-.014,29.146.045,16.256.1,28.534,12.3,28.668,28.558.1,12.106.053,24.215.01,36.322-.027,7.444-3.97,11.643-11.375,11.655q-65.685.1-131.369,0c-7.19-.012-11.183-4.234-11.259-11.346-.054-5.067.057-10.138-.039-15.2-.046-2.423.583-4.15,3.231-4.56,2.375.5,3.075,2.11,3.017,4.353-.074,2.876-.018,5.756-.018,8.986a8.7,8.7,0,0,0,1.535-.851q16.131-16.091,32.237-32.208a5.242,5.242,0,0,0,1.565-2.394c2.713-9.862,5.943-12.341,15.952-12.622,1.41-.039,3.569.984,3.524-2.074-.039-2.633-1.648-2.424-3.383-2.421-9.565.017-19.131-.1-28.694.042-8.49.123-15.147,3.746-19.611,11.094-2.737,4.507-3.31,9.505-3.1,14.627.1,2.48-.381,4.469-3,5.346m73.736-36.847c-10.249-.849-11.509.242-9.527,8.119.331,1.316.712,2.331,2.175,2.758,1.954.573,3.253,2.156,4.752,3.419.248,1.477,1.38,1.529,2.531,1.606,4.736.316,8.6-2.867,9.69-8.013,1.586-7.455,1-8.216-6.287-8.117-1.112.015-2.222.149-3.334.227M68.967,170.08c-7.591,7.482-15.208,14.94-22.741,22.48-.863.864-2.83,1.47-1.918,3.212.791,1.508,2.483,1.608,4.09,1.59,6.034-.071,12.068-.1,18.1-.151,7.351,2.068,11.333-2.857,15.532-7.418,1.071-1.164.6-1.9-.244-2.825-2.83-3.107-3.576-6.852-3.471-10.943.125-4.853.029-9.712.029-15.318a80.258,80.258,0,0,0-9.379,9.372m27.952,15.036c1.681.081,3.363.229,5.045.225,1.771-.006,3.49-.439,4.044-2.368.519-1.81-.779-2.717-2.149-3.649-2.886-1.964-2.73-3.981.179-5.88,3.011-1.967,2.789-3.811-.136-5.756-2.832-1.883-2.919-4,.025-5.916s3.13-3.783.091-5.76c-2.873-1.87-3.031-3.929-.212-5.931,1.32-.938,2.769-1.774,2.214-3.613-.642-2.128-2.5-2.44-4.448-2.338-1.263.065-2.525.121-3.789.181-11.148-.762-13.228,1.153-13.23,12.18q0,8.834,0,17.668c.008,9.375,2.75,11.8,12.364,10.958M137.519,47.7c7.96,1.325,13.01,5.814,14.254,13.864.533,3.444,3.2,2.411,4.823,2.611,2.194.271,1.278-2.019,1.31-3.187.153-5.549-.435-11.038,2.638-16.3,1.9-3.246-.107-6.616-3.488-7.8-3.942-1.378-5.06-3.2-3.635-7.178a6.206,6.206,0,0,0-2.046-7.259,6.877,6.877,0,0,0-7.489-.829c-4.115,1.815-5.436.814-5.481-3.939a7.441,7.441,0,0,0-3.977-6.91c-2.684-1.526-5.127-.672-7.459.935-4.25,2.929-4.193,2.884-7.1-1.684-2.036-3.205-4.8-4.631-8.548-2.749-2.339.253-3.173,2.095-4.042,3.869-1.471,3-3.281,3.535-5.892,1.14-2.329-2.138-5.126-3.054-8.128-1.487-2.9,1.513-3.974,4.06-3.911,7.347.079,4.085-1.51,5.241-5.133,3.611-2.913-1.31-5.515-1.207-7.876.72-2.611,2.131-2.856,5.1-1.825,8.087,1.018,2.95.49,4.633-2.73,5.756-4.266,1.488-6.51,5.278-4.589,8.45,3.1,5.122,2.369,10.5,2.591,15.9.052,1.262-1.064,3.7,1.384,3.53,1.749-.119,4.277.638,4.934-3C77.73,52.234,83.622,47.832,92.8,47.8q22.36-.067,44.719-.1m-2.511,6.823c-14.61-.055-29.22-.2-43.829-.118-5.263.03-8.506,3.53-8.733,8.846-.114,2.665-.143,5.344-.008,8.006.129,2.567-.775,4.339-3.214,5.257-1.95-.516-3.36-1.593-3.3-3.772.07-2.347-1.262-2.429-3-2.155-4.6.724-8.654,5.677-8.649,10.6.005,4.811,3.773,9.652,8.194,10.538,2.063.414,3.675.317,3.438-2.507-.206-2.441.859-4.052,3.381-4.51,2.321.528,3.131,2.127,3.115,4.343-.014,2.106-.059,4.215.025,6.319.459,11.405,6.054,19.658,16.5,23.722,8.911,3.465,18.375,3.091,27.657.605,10.172-2.314,18.38-12.329,18.64-23.342.255-10.836.156-21.683.071-32.523-.05-6.35-3.674-9.507-10.293-9.31m37.154,142.7c2.382.049,4.764.078,7.146.151,3.757.117,5.37-1.9,5.373-5.437.012-12.2.26-24.418-.085-36.613-.377-13.381-11.068-22.746-24.186-21.761-9.279-.069-18.557-.118-27.836-.228-1.649-.02-2.355.382-2.712,2.245-1.734,9.073-6.6,13.555-15.523,14.425-3.349.327-3.521,1.783-2.9,4.762,1.3,6.242-.012,12.653.54,18.977a.707.707,0,0,1-.173.378c-1.059,1.527-.758,2.89-.084,4.613,2.486,6.356-1.612,12.465-8.426,12.771a48.279,48.279,0,0,1-9.271-.047c-4.879-.732-7.273,2.063-9.744,5.5a4.815,4.815,0,0,0,1.075.366c24.9.018,49.8-.012,74.7.084,2.506.01,3.032-.871,2.979-3.153-.137-5.9-.053-11.814-.042-17.722.005-2.4-.294-5.307,3.124-5.368,3.751-.067,3.352,3.048,3.367,5.555.034,5.908.056,11.816-.014,17.723-.023,1.955.145,3.442,2.691,2.775M163.471,81.237c.033-4.733-3.709-9.573-8.186-10.563-2.046-.452-3.542-.377-3.464,2.472q.222,8,0,16.009c-.076,2.754,1.276,3,3.411,2.583,4.405-.853,8.205-5.673,8.239-10.5" transform="translate(-5.66 0)" fill="#050303"/>
    <path id="Trazado_721623" data-name="Trazado 721623" d="M14.121,70.662C11.146,62.133,8.339,54.085,5.53,46.038,4.42,42.86,3.344,39.67,2.18,36.512,1.093,33.56-.349,30.5,3.249,28.307c3.693-2.252,5.674.607,7.67,2.989Q27.045,50.538,43.14,69.807q1.082,1.294,2.178,2.578c1.51,1.779,2.729,3.6,1.487,6.085-1.224,2.452-3.39,2.671-5.729,2.623-1.406-.029-2.825.108-4.219-.028-3.005-.293-3.6.589-2.518,3.537,3.773,10.265,7.278,20.63,10.884,30.957.324.927.682,1.844.963,2.784a4.285,4.285,0,0,1-1.946,5.116,4.336,4.336,0,0,1-5.471-.331,16.25,16.25,0,0,1-2-2.166Q19.7,100.585,2.641,80.2c-1.619-1.936-3.55-3.8-2.169-6.71,1.334-2.813,3.846-2.907,6.469-2.836,2.208.06,4.42.013,7.18.013M15.015,53.1l-.045.065c1.867,5.553,3.767,11.1,5.592,16.665,1.494,4.557-.21,7-4.957,7.312-2.1.14-4.3-.431-6.809.634L25.973,97.831l.008-.008a.724.724,0,0,0,.46.64l8.384,10.272,1-.524c-1.381-4.017-2.889-7.995-4.112-12.059-1.808-6-4.931-11.6-5.6-17.954,1.466-3.6,4.649-3.443,7.719-3.534,1.473.107,2.961.44,4.441-.194-6.334-9.794-24.5-30.231-26.988-30.495,1.006,2.374,2.032,4.792,3.057,7.21.014.714,0,1.438.678,1.916" transform="translate(0 -4.243)" fill="#070706"/>
    <path id="Trazado_721624" data-name="Trazado 721624" d="M217.9,57.929c-1.233-1.947-.847-3.619.616-5.341,6.373-7.507,12.682-15.069,19-22.623,1.815-2.17,3.908-3.351,6.592-1.631,2.606,1.669,2.511,4,1.546,6.674q-5.491,15.24-10.748,30.562c-.535,1.551-1.477,3.053-1.217,5.1,2.843,0,5.639,0,8.434,0a4.811,4.811,0,0,1,4.728,2.906c.89,1.9.318,3.559-.94,5.063q-18.27,21.857-36.555,43.7c-1.656,1.977-3.831,2.545-6.041,1.274-2.37-1.362-2.884-3.477-1.915-6.167,3.751-10.426,7.37-20.9,11.034-31.356,1.75-4.992,1.747-4.986-3.378-5A34.948,34.948,0,0,1,204,80.959c-3.4-.513-5.236-3.782-3.356-6.546a110.867,110.867,0,0,1,8-9.767c1.077-1.249,2.542-.925,3.924-.457,3.748,5.044-2.788,6.674-3.529,10.613,2.152,0,4.208-.037,6.261.008,5.026.109,6.752,2.559,5.138,7.4-1.9,5.7-3.892,11.381-5.844,17.07l-3.4,9.161.942.668,26.33-31.448a8.088,8.088,0,0,0-4.726-.315c-2.937-.223-6-.171-7.637-3.349a12.506,12.506,0,0,1,1.093-5.738c2.468-7.024,4.972-14.036,7.383-21.08.364-1.062,1.487-2.151.036-3.889L226.162,53.7c-2.634,1.642-3.455,6.828-8.261,4.227" transform="translate(-30.851 -4.246)" fill="#070706"/>
    <path id="Trazado_721625" data-name="Trazado 721625" d="M40.717,188.767c2.618-.877,3.1-2.865,3-5.345-.215-5.122.359-10.121,3.1-14.627,4.463-7.349,11.121-10.972,19.611-11.1,9.563-.138,19.129-.025,28.694-.042,1.734,0,3.344-.211,3.383,2.422.045,3.058-2.115,2.035-3.524,2.074-10.008.281-13.24,2.76-15.952,12.621a5.233,5.233,0,0,1-1.565,2.394q-16.11,16.112-32.237,32.208a8.739,8.739,0,0,1-1.535.852c0-3.23-.056-6.11.018-8.987.058-2.243-.642-3.849-3.017-4.352l.03-8.123" transform="translate(-6.28 -24.329)" fill="#f8626c"/>
    <path id="Trazado_721626" data-name="Trazado 721626" d="M219.571,62.709c4.806,2.6,5.627-2.585,8.261-4.227-.479,5.775-2.987,10.97-4.93,16.285-1.209,3.308-.251,4.1,2.767,4,.7-.025,1.408,0,2.112.005,1.641,3.178,4.7,3.126,7.637,3.349-3.8,5.733-8.428,10.806-13.02,15.875-1.909,2.107-2.8,5.367-6.129,6.06,1.952-5.689,3.941-11.365,5.844-17.07,1.614-4.836-.112-7.286-5.138-7.4-2.053-.045-4.109-.008-6.261-.008.741-3.939,7.277-5.569,3.529-10.613a22.422,22.422,0,0,0,5.329-6.26" transform="translate(-32.521 -9.026)" fill="#f9dc74"/>
    <path id="Trazado_721627" data-name="Trazado 721627" d="M180.852,221.551c-2.545.666-2.714-.82-2.691-2.775.069-5.907.047-11.815.014-17.723-.014-2.507.384-5.622-3.367-5.555-3.418.062-3.12,2.968-3.124,5.368-.011,5.908-.1,11.817.041,17.722.053,2.282-.473,3.163-2.978,3.153-24.9-.095-49.8-.066-74.7-.084a4.8,4.8,0,0,1-1.075-.366c2.471-3.442,4.864-6.237,9.744-5.5a48.279,48.279,0,0,0,9.271.047c6.814-.306,10.912-6.415,8.426-12.771-.674-1.723-.975-3.086.084-4.613a.7.7,0,0,0,.173-.378c-.552-6.324.764-12.735-.54-18.977-.622-2.979-.449-4.435,2.9-4.762,8.918-.87,13.788-5.352,15.523-14.425.357-1.863,1.063-2.266,2.712-2.245,9.278.11,18.557.159,27.835.228,7.771,5.131,12.33,12.308,12.559,21.63.305,12.36.047,24.734.11,37.1a19.964,19.964,0,0,1-.917,4.929" transform="translate(-14.35 -24.333)" fill="#fc636e"/>
    <path id="Trazado_721628" data-name="Trazado 721628" d="M86.991,86.439c2.439-.918,3.342-2.69,3.214-5.257-.134-2.662-.1-5.341.009-8.006.227-5.317,3.47-8.817,8.732-8.846,14.609-.083,29.219.063,43.829.118.145,2.162,2.155,3.84,1.6,6.182-1.4-.669-2.719-1.24-4.353-.425-2.991,1.494-6.084,2.786-9.118,4.2-1.84.855-3.071,2.2-2.136,4.3,1.019,2.284,2.943,2.272,4.957,1.353,3.551-1.62,7.089-3.269,10.632-4.907.037,10.266-.01,20.533.151,30.8a29.377,29.377,0,0,1-3.063,12.934c-1.828,4-5.552,6.631-7.092,10.74-9.282,2.485-18.746,2.859-27.656-.605-10.449-4.063-16.044-12.316-16.5-23.722-.085-2.1-.04-4.213-.025-6.319.015-2.216-.795-3.816-3.116-4.343l-.066-8.194m34.621,38.072c1.543,0,3.087.006,4.631,0,5.852-.024,9.387-2.2,10.52-6.469,1.263-4.757-1.056-10.674-5.745-12.881a21.41,21.41,0,0,0-18.7-.022c-4.724,2.209-7.044,8.034-5.814,12.845,1.093,4.277,4.659,6.5,10.473,6.528,1.543.007,3.088,0,4.631,0m-7.778-32.078a7.97,7.97,0,0,0,6.53,8.065c1.876.317,3.373-.181,4.136-1.988.817-1.937-.126-3.356-1.851-4.047-4.086-1.637-3.282-2.771.2-4.039a2.769,2.769,0,0,0,1.876-3.357,3.176,3.176,0,0,0-3.378-2.53c-4.063-.11-7.49,3.439-7.509,7.9M101.777,69.649c-1.725.264-2.723.89-3.256,2.207a2.584,2.584,0,0,0,.938,3.366,54.84,54.84,0,0,0,11.85,5.321,2.694,2.694,0,0,0,3.137-1.6,2.521,2.521,0,0,0-.538-3.444c-3.819-2.644-8.225-4.1-12.132-5.85M101.5,87.992h-.045c0,.976-.064,1.958.014,2.928.15,1.876,1,3.214,3.06,3.3a2.982,2.982,0,0,0,3.318-3.023,29.893,29.893,0,0,0-.055-6.26,2.917,2.917,0,0,0-3.175-2.72,3.071,3.071,0,0,0-3.087,2.85,17.17,17.17,0,0,0-.03,2.922m40.313.253h.042c0-.7.014-1.4,0-2.093-.049-2.216-.86-3.931-3.348-3.9-2.261.026-3.072,1.67-3.142,3.683a35.275,35.275,0,0,0,.095,5.433,2.954,2.954,0,0,0,3.049,2.866c2.051.036,3.048-1.175,3.285-3.06a23.6,23.6,0,0,0,.021-2.926" transform="translate(-13.426 -9.925)" fill="#c56c57"/>
    <path id="Trazado_721629" data-name="Trazado 721629" d="M142.966,49.028q-22.36.051-44.719.1c-9.178.027-15.07,4.43-16.691,13.4-.657,3.633-3.185,2.876-4.934,3-2.448.167-1.332-2.268-1.384-3.53-.222-5.4.512-10.776-2.59-15.9-1.921-3.171.323-6.961,4.589-8.45,3.22-1.123,3.749-2.805,2.731-5.755-1.031-2.988-.787-5.957,1.824-8.087,2.363-1.926,4.964-2.03,7.876-.72,3.624,1.63,5.213.474,5.134-3.611-.063-3.287,1.013-5.834,3.91-7.347,3-1.567,5.8-.652,8.128,1.486,2.611,2.4,4.42,1.86,5.891-1.14.87-1.774,1.7-3.616,4.043-3.869.355,1.953,2.118,2.524,3.507,3.3a38.557,38.557,0,0,1,8.555,6.652,49.131,49.131,0,0,1,14.131,30.477" transform="translate(-11.105 -1.328)" fill="#544d55"/>
    <path id="Trazado_721630" data-name="Trazado 721630" d="M151.146,48.875A49.131,49.131,0,0,0,137.015,18.4a38.557,38.557,0,0,0-8.555-6.652c-1.389-.772-3.152-1.343-3.507-3.3,3.748-1.881,6.511-.455,8.548,2.749,2.9,4.567,2.846,4.614,7.1,1.684,2.331-1.607,4.774-2.461,7.459-.934a7.441,7.441,0,0,1,3.977,6.909c.044,4.753,1.366,5.755,5.48,3.939a6.876,6.876,0,0,1,7.489.83,6.2,6.2,0,0,1,2.046,7.258c-1.424,3.981-.306,5.8,3.635,7.178,3.381,1.181,5.383,4.55,3.488,7.8-3.073,5.265-2.485,10.753-2.639,16.3-.032,1.169.885,3.459-1.309,3.188-1.626-.2-4.291.832-4.823-2.612-1.245-8.049-6.294-12.538-14.254-13.863" transform="translate(-19.285 -1.174)" fill="#423e42"/>
    <path id="Trazado_721631" data-name="Trazado 721631" d="M194.746,221.579a19.964,19.964,0,0,0,.917-4.929c-.063-12.367.2-24.741-.11-37.1-.229-9.323-4.788-16.5-12.559-21.63,13.119-.984,23.81,8.38,24.187,21.761.344,12.2.1,24.408.085,36.613,0,3.538-1.616,5.553-5.374,5.437-2.381-.073-4.763-.1-7.145-.151" transform="translate(-28.243 -24.362)" fill="#f44553"/>
    <path id="Trazado_721632" data-name="Trazado 721632" d="M105.657,211.427c-9.614.845-12.356-1.582-12.364-10.957q-.009-8.834,0-17.668c0-11.027,2.081-12.941,13.23-12.18a64.475,64.475,0,0,1,.923,11.257q-.2,10.313,0,20.632a17.025,17.025,0,0,1-1.791,8.917" transform="translate(-14.398 -26.311)" fill="#b65b4a"/>
    <path id="Trazado_721633" data-name="Trazado 721633" d="M143,129.647c1.54-4.11,5.263-6.74,7.093-10.741a29.385,29.385,0,0,0,3.062-12.934c-.161-10.264-.113-20.532-.151-30.8a5,5,0,0,0,.017-4.52c.551-2.342-1.459-4.02-1.6-6.183,6.621-.2,10.244,2.96,10.293,9.31.085,10.841.185,21.688-.071,32.524-.26,11.013-8.468,21.028-18.64,23.342" transform="translate(-22.071 -9.949)" fill="#b65b4a"/>
    <path id="Trazado_721634" data-name="Trazado 721634" d="M67.85,228.252c-6.034.047-12.068.079-18.1.151-1.608.019-3.3-.082-4.09-1.59-.913-1.741,1.055-2.348,1.917-3.211,7.534-7.54,15.15-15,22.741-22.481.031.841.079,1.683.09,2.525.066,5.116-.979,10.484,4.161,14.212,1.723,1.251.058,2.386-.8,3.442-1.92,2.363-4.925,3.8-5.918,6.952" transform="translate(-7.01 -31.041)" fill="#fc4654"/>
    <path id="Trazado_721635" data-name="Trazado 721635" d="M71.943,226.542c.993-3.149,4-4.589,5.918-6.952.858-1.055,2.524-2.191.8-3.442-5.14-3.729-4.095-9.1-4.161-14.212-.011-.842-.059-1.684-.09-2.525a80.189,80.189,0,0,1,9.379-9.372c0,5.607.1,10.465-.03,15.317-.106,4.09.642,7.837,3.471,10.944.841.923,1.314,1.661.243,2.824-4.2,4.561-8.18,9.487-15.531,7.418" transform="translate(-11.104 -29.331)" fill="#f72b39"/>
    <path id="Trazado_721636" data-name="Trazado 721636" d="M107.914,211.418a17.025,17.025,0,0,0,1.791-8.917q-.2-10.313,0-20.632a64.475,64.475,0,0,0-.923-11.257c1.263-.06,2.525-.116,3.788-.181,1.953-.1,3.807.211,4.449,2.339.554,1.838-.894,2.675-2.215,3.613-2.819,2-2.66,4.062.213,5.931,3.038,1.977,2.847,3.844-.092,5.76s-2.857,4.034-.025,5.917c2.925,1.945,3.148,3.789.136,5.756-2.908,1.9-3.065,3.916-.179,5.88,1.37.933,2.668,1.839,2.149,3.649-.554,1.929-2.273,2.363-4.044,2.368-1.681.005-3.363-.144-5.045-.225" transform="translate(-16.655 -26.302)" fill="#a04d3c"/>
    <path id="Trazado_721637" data-name="Trazado 721637" d="M84.263,89.377l.066,8.194c-2.522.458-3.586,2.068-3.381,4.51.238,2.825-1.374,2.922-3.438,2.507-4.42-.886-8.189-5.727-8.194-10.538-.005-4.923,4.051-9.876,8.649-10.6,1.74-.274,3.072-.192,3,2.156-.065,2.178,1.345,3.257,3.3,3.772" transform="translate(-10.698 -12.863)" fill="#a04d3c"/>
    <path id="Trazado_721638" data-name="Trazado 721638" d="M184.486,94.1c-.034,4.829-3.834,9.648-8.239,10.5-2.135.414-3.487.171-3.411-2.583q.223-8,0-16.009c-.079-2.849,1.417-2.924,3.464-2.472,4.477.99,8.219,5.83,8.186,10.563" transform="translate(-26.675 -12.861)" fill="#a04d3c"/>
    <path id="Trazado_721639" data-name="Trazado 721639" d="M127.443,150.835c1.111-.079,2.222-.212,3.334-.227,7.29-.1,7.872.661,6.287,8.117-1.094,5.145-4.954,8.329-9.69,8.013-1.15-.077-2.283-.13-2.53-1.607,2.733-4.426,2.924-9.314,2.6-14.3" transform="translate(-19.268 -23.244)" fill="#a04d3c"/>
    <path id="Trazado_721640" data-name="Trazado 721640" d="M126.034,150.834c.325,4.982.134,9.87-2.6,14.3-1.5-1.262-2.8-2.846-4.753-3.418-1.462-.428-1.844-1.443-2.174-2.759-1.981-7.877-.723-8.968,9.526-8.119" transform="translate(-17.86 -23.242)" fill="#b65b4a"/>
    <path id="Trazado_721641" data-name="Trazado 721641" d="M35.435,79.331c-3.071.091-6.254-.062-7.719,3.534-5.479.095-5.864.634-4.03,5.75.328.915.9,1.759,1.131,2.692.937,3.726,3.391,7.082,2.763,11.192L10.4,82.445c2.507-1.066,4.707-.495,6.808-.634,4.748-.316,6.452-2.755,4.957-7.312-1.825-5.567-3.725-11.11-5.592-16.665,1.2-.4,1.711.407,2.367,1.192,2.14,2.562,4.543,4.924,6.515,7.605,3.194,4.342,7.409,7.876,9.975,12.7" transform="translate(-1.606 -8.91)" fill="#f9dc74"/>
    <path id="Trazado_721642" data-name="Trazado 721642" d="M29.822,107.086c.628-4.11-1.826-7.465-2.763-11.192-.234-.933-.8-1.776-1.131-2.692-1.834-5.115-1.449-5.654,4.03-5.75.671,6.356,3.794,11.95,5.6,17.954,1.224,4.064,2.731,8.042,4.112,12.059l-1,.524-8.384-10.272c.343-.571-.02-.633-.46-.64Z" transform="translate(-3.849 -13.497)" fill="#f6ca58"/>
    <path id="Trazado_721643" data-name="Trazado 721643" d="M35.888,77.673c-2.567-4.825-6.781-8.359-9.975-12.7-1.972-2.681-4.375-5.043-6.515-7.605-.656-.785-1.171-1.592-2.367-1.192l.045-.066a1.507,1.507,0,0,0-.678-1.915c-1.026-2.418-2.051-4.835-3.057-7.209,2.491.264,20.654,20.7,26.988,30.495-1.48.633-2.967.3-4.441.194" transform="translate(-2.059 -7.252)" fill="#f6ca58"/>
    <path id="Trazado_721644" data-name="Trazado 721644" d="M16.955,55.51a1.507,1.507,0,0,1,.678,1.915c-.682-.476-.665-1.2-.678-1.915" transform="translate(-2.617 -8.567)" fill="#f9dc74"/>
    <path id="Trazado_721645" data-name="Trazado 721645" d="M30.723,110.659c.44.008.8.07.46.64a.724.724,0,0,1-.46-.64" transform="translate(-4.742 -17.079)" fill="#f9dc74"/>
    <path id="Trazado_721646" data-name="Trazado 721646" d="M229.913,76.871c-.7,0-1.409-.03-2.112-.005-3.019.1-3.976-.691-2.767-4,1.943-5.315,4.451-10.51,4.93-16.285l8.46-10.419c1.451,1.74.328,2.828-.036,3.89-2.411,7.044-4.914,14.056-7.383,21.079a12.52,12.52,0,0,0-1.093,5.739" transform="translate(-34.653 -7.125)" fill="#f6ca58"/>
    <path id="Trazado_721647" data-name="Trazado 721647" d="M216.663,108.331c3.329-.693,4.221-3.953,6.129-6.06,4.592-5.069,9.219-10.143,13.02-15.875a8.088,8.088,0,0,1,4.726.315l-26.331,31.448-.942-.667q1.7-4.581,3.4-9.161" transform="translate(-32.915 -13.302)" fill="#f6ca58"/>
    <path id="Trazado_721648" data-name="Trazado 721648" d="M125.115,131.575c-1.544,0-3.088.006-4.631,0-5.815-.026-9.38-2.25-10.473-6.527-1.23-4.811,1.089-10.636,5.814-12.846a21.41,21.41,0,0,1,18.7.023c4.688,2.206,7.007,8.123,5.745,12.88-1.133,4.271-4.668,6.446-10.521,6.47-1.543.006-3.087,0-4.63,0m3.372-6.493c2.409.45,5.256.946,5.672-2.3.4-3.093-1.555-5.247-4.811-5.762a12.678,12.678,0,0,0-2.461.08,41.774,41.774,0,0,0-6.244.037,5.011,5.011,0,0,0-4.53,5.593c.188,2.85,2.773,2.623,4.87,2.591,2.5-.039,5-.156,7.5-.24" transform="translate(-16.929 -16.987)" fill="#050303"/>
    <path id="Trazado_721649" data-name="Trazado 721649" d="M118.732,96.126c.019-4.457,3.447-8.007,7.509-7.9a3.176,3.176,0,0,1,3.378,2.53,2.769,2.769,0,0,1-1.876,3.357c-3.478,1.268-4.282,2.4-.2,4.039,1.724.691,2.667,2.111,1.851,4.047-.763,1.807-2.26,2.305-4.136,1.988a7.97,7.97,0,0,1-6.531-8.065" transform="translate(-18.325 -13.617)" fill="#070706"/>
    <path id="Trazado_721650" data-name="Trazado 721650" d="M103.835,70.624c3.907,1.75,8.313,3.207,12.133,5.851a2.521,2.521,0,0,1,.537,3.444,2.7,2.7,0,0,1-3.137,1.6A54.878,54.878,0,0,1,101.517,76.2a2.581,2.581,0,0,1-.938-3.365c.532-1.318,1.53-1.943,3.255-2.208" transform="translate(-15.484 -10.9)" fill="#070706"/>
    <path id="Trazado_721651" data-name="Trazado 721651" d="M151.945,71.633a5,5,0,0,1-.017,4.52c-3.544,1.637-7.082,3.286-10.632,4.907-2.014.919-3.938.931-4.957-1.353-.936-2.1.3-3.448,2.136-4.3,3.034-1.411,6.127-2.7,9.118-4.2,1.633-.816,2.956-.245,4.353.425" transform="translate(-20.993 -10.928)" fill="#050303"/>
    <path id="Trazado_721652" data-name="Trazado 721652" d="M104.134,91.261a17.17,17.17,0,0,1,.03-2.922,3.072,3.072,0,0,1,3.087-2.85,2.917,2.917,0,0,1,3.175,2.721,29.828,29.828,0,0,1,.055,6.259,2.983,2.983,0,0,1-3.318,3.024c-2.055-.09-2.909-1.428-3.06-3.3-.078-.971-.014-1.952-.014-2.929h.045" transform="translate(-16.061 -13.194)" fill="#070706"/>
    <path id="Trazado_721653" data-name="Trazado 721653" d="M150.629,91.52a23.6,23.6,0,0,1-.021,2.926c-.238,1.886-1.235,3.1-3.285,3.06a2.954,2.954,0,0,1-3.049-2.866,35.275,35.275,0,0,1-.095-5.433c.069-2.013.88-3.657,3.142-3.683,2.488-.03,3.3,1.685,3.348,3.9.016.7,0,1.4,0,2.093h-.042" transform="translate(-22.244 -13.2)" fill="#070706"/>
    <path id="Trazado_721654" data-name="Trazado 721654" d="M129.657,126.346c-2.5.084-5,.2-7.5.24-2.1.032-4.682.259-4.87-2.591a5.011,5.011,0,0,1,4.53-5.593,41.765,41.765,0,0,1,6.243-.037,11.063,11.063,0,0,1,1.6,7.981" transform="translate(-18.099 -18.251)" fill="#f9969d"/>
    <path id="Trazado_721655" data-name="Trazado 721655" d="M131.626,126.343a11.063,11.063,0,0,0-1.6-7.981,12.689,12.689,0,0,1,2.462-.08c3.256.515,5.208,2.669,4.811,5.762-.416,3.246-3.263,2.749-5.672,2.3" transform="translate(-20.068 -18.249)" fill="#f8626c"/>
  </g>
</svg>
