<svg xmlns="http://www.w3.org/2000/svg" xmlns:xlink="http://www.w3.org/1999/xlink" width="169" height="169" viewBox="0 0 169 169">
  <defs>
    <clipPath id="clip-path">
      <rect id="Rect치ngulo_351313" data-name="Rect치ngulo 351313" width="131.668" height="131.557" fill="none"/>
    </clipPath>
  </defs>
  <g id="Grupo_1018499" data-name="Grupo 1018499" transform="translate(6438.334 6426.05)">
    <g id="Grupo_1018326" data-name="Grupo 1018326" transform="translate(-7526.334 -8484.049)">
      <g id="Grupo_159184" data-name="Grupo 159184" transform="translate(1088 2057.999)">
        <path id="Uni칩n_12" data-name="Uni칩n 12" d="M84.5,0A84.5,84.5,0,1,1,0,84.5,84.5,84.5,0,0,1,84.5,0Z" transform="translate(0 0)" fill="#cda7ff"/>
      </g>
    </g>
    <g id="Grupo_1018335" data-name="Grupo 1018335" transform="translate(-6419.668 -6408.563)">
      <g id="Grupo_1018334" data-name="Grupo 1018334" clip-path="url(#clip-path)">
        <path id="Trazado_721478" data-name="Trazado 721478" d="M55.11,40.612c1.964.086,2.9,1.695,4.017,2.908s1.995,1.355,3.472.547a28.906,28.906,0,0,1,6.367-2.64c1.742-.463,2.179-1.3,2-2.885-.084-.761,0-1.54-.015-2.311-.056-2.239,1.009-3.306,3.264-3.292,5.054.031,10.107-.011,15.16.025,2.7.02,3.7.812,3.383,3.583-.378,3.357.826,5.068,4.068,5.565a3.748,3.748,0,0,1,1.428.551c3.177,2.063,5.976,2.6,8.49-1.178.976-1.468,2.729-1.158,4.031.14q5.64,5.624,11.26,11.267c1.647,1.662,1.268,3.371-.4,4.612-2.637,1.958-3.208,4.064-1.153,6.74A3.079,3.079,0,0,1,121,65.41c.863,3.821,2.534,6.4,7.159,5.511,1.565-.3,2.5,1.018,2.516,2.6.045,5.481.059,10.963,0,16.444a2.549,2.549,0,0,1-3.265,2.685c-3.5-.575-5.46.683-5.935,4.229a3.336,3.336,0,0,1-.552,1.426c-2.218,3.147-2.348,5.824,1.212,8.252,1.464,1,1.259,2.735-.037,4.043-3.738,3.771-7.507,7.511-11.263,11.263-1.649,1.647-3.121,1.216-4.656-.257-3.074-2.951-3.1-2.921-6.912-1.2a4.05,4.05,0,0,1-.687.341c-3.94.9-6.892,2.437-5.876,7.422.318,1.56-1.132,2.395-2.7,2.4q-8.093.044-16.188.006c-2.218-.013-2.846-1.406-2.885-3.406-.083-4.317-.132-4.3-4-5.776a15.023,15.023,0,0,1-3.5-1.54c-2.141-1.546-3.5-.85-5.114.932-2.779,3.074-3.5,2.972-6.426.051-3.211-3.208-6.433-6.407-9.625-9.634-2.158-2.182-2.137-3.156.012-5.374a9.832,9.832,0,0,1,1.279-1.26c1.484-1.048,1.447-2.1.574-3.662a33.4,33.4,0,0,1-2.625-6.378,2.17,2.17,0,0,0-2.463-1.882c-5.992-.026-5.991-.087-5.989-6.165,0-3.94-.01-7.88.009-11.82.014-3.167.634-3.794,3.716-3.857a7.318,7.318,0,0,1,1.283.008c2.112.337,3.391-.364,3.711-2.634a6.568,6.568,0,0,1,.981-2.624c2.175-3.292,2.583-6.152-1.192-8.729-1.375-.939-1.148-2.618.057-3.838,3.791-3.838,7.619-7.641,11.443-11.447a2.7,2.7,0,0,1,2.049-.938m.032,6.224c-.436.4-.815.718-1.166,1.068a59.948,59.948,0,0,1-4.941,4.857c-2.12,1.665-1.975,2.889.033,4.461,1.356,1.061,2.658,2.4,1.45,4.369a43.3,43.3,0,0,0-5.082,12.262c-.338,1.357-1.339,1.836-2.612,2.1-1.518.321-3.63-.919-4.452.675-.666,1.29-.161,3.185-.171,4.811a20.962,20.962,0,0,1-.028,3.078c-.379,2.43.439,3.449,2.983,3.044,2.815-.448,4.25.912,4.782,3.687a28.771,28.771,0,0,0,3.252,8.326c2.3,4.2,2.359,4.233-.947,7.528-1.069,1.064-1.309,1.729-.055,2.821a35.069,35.069,0,0,1,4.712,4.719c1.671,2.141,2.9,1.942,4.466-.052,1.058-1.345,2.393-2.674,4.368-1.458a42.983,42.983,0,0,0,12.26,5.085,2.872,2.872,0,0,1,2.111,2.608c.3,1.522-.916,3.633.655,4.458,1.28.672,3.182.16,4.809.168a19.857,19.857,0,0,1,2.822.021c2.59.39,3.718-.469,3.334-3.234-.261-1.884.136-3.594,2.444-4.144a39.271,39.271,0,0,0,11.774-4.915,2.63,2.63,0,0,1,3.507.4,25.4,25.4,0,0,1,2,1.995c.835,1,1.483,1.093,2.426.046a41.128,41.128,0,0,1,4.914-4.882c2.116-1.669,1.97-2.9-.054-4.45-1.483-1.136-2.654-2.573-1.363-4.6a38.992,38.992,0,0,0,4.906-11.778,2.9,2.9,0,0,1,2.7-2.341c1.484-.213,3.571.722,4.319-.5.732-1.193.241-3.144.265-4.762a28.525,28.525,0,0,1,.031-3.592c.324-2.257-.479-2.927-2.76-2.805-3.642.2-4.051-.257-4.956-3.723a32.069,32.069,0,0,0-4.108-9.624c-1.329-2.023-1.113-3.647.716-5.148.33-.27.58-.641.918-.9,1.292-.971,1.428-1.826.084-2.98A32.738,32.738,0,0,1,110.952,49c-1.709-2.187-3.05-2.069-4.63.055-1.466,1.97-3.192,2.209-5.33.787a30.775,30.775,0,0,0-10.379-4.266,3.329,3.329,0,0,1-2.933-3.834c.035-.683-.052-1.375.015-2.053.12-1.21-.309-1.664-1.579-1.617a59.024,59.024,0,0,1-7.444-.028c-2.239-.2-2.7.62-2.613,2.7.159,3.8-.189,4.085-3.9,5.079a35.949,35.949,0,0,0-8.741,3.606c-3.537,2.047-3.539,2.038-6.523-.919-.538-.533-1.1-1.044-1.757-1.67" transform="translate(-16.055 -16)" fill="#050403"/>
        <path id="Trazado_721479" data-name="Trazado 721479" d="M206.079,24.009c6.288-.04,10.658,5.586,8.842,11.06-.664,2-.13,3.233.919,4.815q20.221,30.509,6.186,64.363c-.392.943-.757,1.968-1.8,2.38a2.489,2.489,0,0,1-2.843-.544,2.73,2.73,0,0,1-.333-3.328A58.3,58.3,0,0,0,221.157,90.4c3.581-17.313.265-33.224-9.63-47.832a2.6,2.6,0,0,0-3.283-1.327,7.992,7.992,0,0,1-8.562-3.326,8.144,8.144,0,0,1-.865-8.929,8.464,8.464,0,0,1,7.263-4.979m4.146,8.847a3.579,3.579,0,0,0-7.154-.251,3.579,3.579,0,0,0,7.154.251" transform="translate(-96.116 -11.662)" fill="#050606"/>
        <path id="Trazado_721480" data-name="Trazado 721480" d="M29.838,147.1a8.355,8.355,0,0,1-5.185,7.3,8.126,8.126,0,0,1-9.3-1.458c-2.628-2.349-3.765-5.405-2.518-8.8.73-1.986.154-3.231-.905-4.819q-19.439-29.135-7.2-62c.149-.4.308-.8.49-1.181.68-1.436,1.65-2.536,3.387-1.856,1.769.693,2.078,2.074,1.374,3.782a59.456,59.456,0,0,0-3.5,11.221c-3.392,17.331.027,33.23,10.034,47.759.768,1.114,1.461,1.224,2.745.936,5.5-1.233,10.608,2.959,10.577,9.123m-8.927,2.94a3.581,3.581,0,1,0-3.368-3.79,3.668,3.668,0,0,0,3.368,3.79" transform="translate(0 -35.978)" fill="#060606"/>
        <path id="Trazado_721481" data-name="Trazado 721481" d="M151.049,197.893a8.377,8.377,0,0,1,7.268,5.3,8.092,8.092,0,0,1-1.443,9.091c-2.406,2.725-5.516,3.841-9.021,2.586a4.041,4.041,0,0,0-4.171.572q-27.125,18.636-58.614,8.943c-1.811-.555-3.7-1.227-2.988-3.6.705-2.352,2.593-1.951,4.445-1.353a60.877,60.877,0,0,0,54.034-8c1.165-.814,1.659-1.447,1.278-3.076-1.276-5.445,3.083-10.569,9.211-10.459m-.931,12.29a3.582,3.582,0,0,0,.418-7.152,3.582,3.582,0,0,0-.418,7.152" transform="translate(-39.796 -96.126)" fill="#060606"/>
        <path id="Trazado_721482" data-name="Trazado 721482" d="M32.094,29.786a8.364,8.364,0,0,1-7.283-5.24,8.1,8.1,0,0,1,1.371-9.1c2.387-2.757,5.473-3.858,9-2.655a4.087,4.087,0,0,0,4.179-.509Q65.152-5.561,95.5,2.522c1.909.509,3.641,1.233,2.952,3.579-.654,2.229-2.567,1.879-4.28,1.4a60.091,60.091,0,0,0-44.113,4.24,68.5,68.5,0,0,0-7.689,4.6,2.279,2.279,0,0,0-1.118,2.912c1.263,5.478-3.007,10.595-9.161,10.527m4.253-8.7a3.575,3.575,0,1,0-3.578,3.56,3.658,3.658,0,0,0,3.578-3.56" transform="translate(-11.654 0)" fill="#060606"/>
        <path id="Trazado_721483" data-name="Trazado 721483" d="M68.772,231.833c1.5.328,2.552,1.1,2.462,2.764a2.284,2.284,0,0,1-2.48,2.38,2.408,2.408,0,0,1-2.617-2.554c-.014-1.622,1.062-2.412,2.635-2.59" transform="translate(-32.126 -112.613)" fill="#0c0d0d"/>
        <path id="Trazado_721484" data-name="Trazado 721484" d="M178.164,11.805a2.451,2.451,0,0,1,2.539,2.621,2.339,2.339,0,0,1-2.648,2.479,2.385,2.385,0,0,1-2.41-2.494,2.378,2.378,0,0,1,2.52-2.606" transform="translate(-85.319 -5.734)" fill="#0c0c0c"/>
        <path id="Trazado_721485" data-name="Trazado 721485" d="M59.842,51.631c.66.626,1.219,1.138,1.757,1.67,2.984,2.958,2.986,2.966,6.523.919a35.968,35.968,0,0,1,8.741-3.606c3.707-.995,4.055-1.274,3.9-5.079-.087-2.075.375-2.9,2.613-2.7a58.93,58.93,0,0,0,7.444.028c1.271-.047,1.7.407,1.579,1.617-.067.678.021,1.37-.015,2.053a3.329,3.329,0,0,0,2.933,3.834,30.764,30.764,0,0,1,10.379,4.266c2.137,1.421,3.864,1.183,5.33-.787,1.58-2.124,2.92-2.241,4.63-.055a32.71,32.71,0,0,0,4.529,4.539c1.343,1.154,1.207,2.009-.084,2.98-.339.255-.589.625-.918.9-1.83,1.5-2.046,3.126-.716,5.148a32.077,32.077,0,0,1,4.108,9.624c.905,3.466,1.314,3.919,4.956,3.723,2.281-.122,3.084.548,2.76,2.8a28.538,28.538,0,0,0-.031,3.592c-.025,1.618.467,3.569-.265,4.762-.747,1.218-2.835.283-4.319.5a2.9,2.9,0,0,0-2.7,2.341,38.986,38.986,0,0,1-4.906,11.778c-1.291,2.031-.12,3.468,1.363,4.6,2.024,1.549,2.17,2.781.054,4.45a41.051,41.051,0,0,0-4.914,4.882c-.944,1.047-1.592.953-2.426-.046a25.222,25.222,0,0,0-2-1.995,2.629,2.629,0,0,0-3.507-.4,39.285,39.285,0,0,1-11.774,4.915c-2.308.55-2.7,2.26-2.444,4.144.384,2.765-.744,3.624-3.334,3.234a19.861,19.861,0,0,0-2.822-.021c-1.627-.008-3.529.5-4.809-.168-1.571-.825-.351-2.936-.655-4.458a2.872,2.872,0,0,0-2.11-2.608,42.983,42.983,0,0,1-12.26-5.085c-1.975-1.216-3.31.113-4.368,1.458-1.568,1.995-2.794,2.193-4.466.052a35.074,35.074,0,0,0-4.712-4.719c-1.254-1.091-1.014-1.756.055-2.82,3.307-3.295,3.245-3.332.947-7.528a28.776,28.776,0,0,1-3.252-8.326c-.532-2.775-1.967-4.135-4.782-3.687-2.545.4-3.362-.614-2.983-3.044a20.962,20.962,0,0,0,.028-3.078c.009-1.627-.5-3.522.171-4.811.823-1.594,2.934-.354,4.452-.675,1.273-.269,2.274-.747,2.612-2.1a43.3,43.3,0,0,1,5.082-12.262c1.208-1.972-.094-3.308-1.45-4.369-2.008-1.572-2.153-2.8-.033-4.461A59.947,59.947,0,0,0,58.676,52.7c.352-.349.731-.671,1.166-1.068m42.321,23.44c1.037-1.2,1.392-2.469.288-3.8-1.2-1.443-2.582-1.233-4-.35l-3.809-2.083c.432-2.477-1.053-3.326-3.121-3.8A22.1,22.1,0,0,0,65,91.262C67.421,103.3,79.854,111.014,91.974,108c11.944-2.968,19.278-15.61,15.889-27.265-.576-1.981-1.591-2.945-3.678-2.575a9.451,9.451,0,0,0-2.022-3.089" transform="translate(-20.754 -20.795)" fill="#fcb753"/>
        <path id="Trazado_721486" data-name="Trazado 721486" d="M215.133,37.713a3.579,3.579,0,1,1-3.457-3.7,3.678,3.678,0,0,1,3.457,3.7" transform="translate(-101.025 -16.52)" fill="#4ab4ee"/>
        <path id="Trazado_721487" data-name="Trazado 721487" d="M37.475,215.036a3.581,3.581,0,1,1,.429-7.15,3.581,3.581,0,0,1-.429,7.15" transform="translate(-16.564 -100.979)" fill="#4ab4ee"/>
        <path id="Trazado_721488" data-name="Trazado 721488" d="M211.359,215.031a3.582,3.582,0,1,1,3.784-3.375,3.7,3.7,0,0,1-3.784,3.375" transform="translate(-101.037 -100.974)" fill="#f65a5a"/>
        <path id="Trazado_721489" data-name="Trazado 721489" d="M41.264,37.609a3.575,3.575,0,0,1-7.15-.018,3.575,3.575,0,1,1,7.15.018" transform="translate(-16.571 -16.525)" fill="#f75a5a"/>
        <path id="Trazado_721490" data-name="Trazado 721490" d="M115.235,89.289c-1.118,1.881-2.825,1.546-4.541,1.218a16.891,16.891,0,1,0,13.17,13.6c-.384-1.943-1.518-4.018.918-5.492,2.087-.37,3.1.594,3.678,2.575,3.388,11.656-3.945,24.3-15.889,27.266-12.12,3.012-24.553-4.7-26.976-16.739a22.1,22.1,0,0,1,26.518-26.223c2.068.471,3.553,1.32,3.121,3.8" transform="translate(-41.351 -41.249)" fill="#050403"/>
        <path id="Trazado_721491" data-name="Trazado 721491" d="M154.244,100.962a2.863,2.863,0,0,1-3.68-.628c-.975-1.141-.658-2.345-.036-3.526,1.422-.881,2.809-1.091,4,.352,1.1,1.333.749,2.606-.288,3.8" transform="translate(-72.834 -46.686)" fill="#090805"/>
      </g>
    </g>
  </g>
</svg>
