<svg xmlns="http://www.w3.org/2000/svg" xmlns:xlink="http://www.w3.org/1999/xlink" width="319.701" height="312.652" viewBox="0 0 319.701 312.652">
  <defs>
    <clipPath id="clip-path">
      <rect id="Rectángulo_351139" data-name="Rectángulo 351139" width="319.701" height="312.652" fill="none"/>
    </clipPath>
    <clipPath id="clip-path-3">
      <rect id="Rectángulo_351125" data-name="Rectángulo 351125" width="179.225" height="164.845" fill="none"/>
    </clipPath>
  </defs>
  <g id="Grupo_1018494" data-name="Grupo 1018494" transform="translate(10124.082 7213.86)">
    <g id="Grupo_1018268" data-name="Grupo 1018268" transform="translate(-10124.082 -7213.86)">
      <g id="Grupo_1018267" data-name="Grupo 1018267" clip-path="url(#clip-path)">
        <g id="Grupo_1018266" data-name="Grupo 1018266">
          <g id="Grupo_1018265" data-name="Grupo 1018265" clip-path="url(#clip-path)">
            <path id="Trazado_720934" data-name="Trazado 720934" d="M133.174,91.024A66.587,66.587,0,1,1,66.586,24.436a66.586,66.586,0,0,1,66.588,66.588" transform="translate(0 21.022)" fill="#bcf987"/>
            <path id="Trazado_720935" data-name="Trazado 720935" d="M233.441,83.4A66.587,66.587,0,1,1,166.855,16.81,66.586,66.586,0,0,1,233.441,83.4" transform="translate(86.26 14.462)" fill="#bcf987"/>
            <path id="Trazado_720936" data-name="Trazado 720936" d="M232.266,163.066a66.587,66.587,0,1,1-66.588-66.588,66.586,66.586,0,0,1,66.588,66.588" transform="translate(85.249 83)" fill="#bcf987"/>
            <path id="Trazado_720937" data-name="Trazado 720937" d="M158.561,303.423q-2.76,0-5.51-.1a.859.859,0,0,1-.824-.891.813.813,0,0,1,.891-.822q5.1.2,10.215.022h.03a.857.857,0,0,1,.028,1.713c-1.609.054-3.222.08-4.829.082m15.055-.792a.855.855,0,0,1-.087-1.706c1-.106,1.994-.221,2.986-.346,2.35-.294,4.748-.66,7.129-1.088a.869.869,0,0,1,1,.694.855.855,0,0,1-.694.993c-2.409.435-4.837.8-7.214,1.1q-1.51.19-3.023.35c-.03,0-.061,0-.091,0m-30.781-.089a.882.882,0,0,1-.1-.006c-3.427-.391-6.868-.913-10.228-1.559a.856.856,0,1,1,.324-1.682c3.317.636,6.714,1.153,10.1,1.537a.858.858,0,0,1-.095,1.71m51-3.536a.856.856,0,0,1-.212-1.685c3.278-.839,6.576-1.81,9.8-2.882a.857.857,0,1,1,.541,1.626c-3.267,1.086-6.6,2.067-9.919,2.917a.943.943,0,0,1-.214.024m-71.175-.344a.859.859,0,0,1-.227-.032c-3.341-.923-6.658-1.985-9.858-3.163a.858.858,0,1,1,.593-1.609c3.153,1.161,6.425,2.21,9.718,3.12a.857.857,0,0,1-.227,1.684m90.673-6.133a.858.858,0,0,1-.326-1.65c3.118-1.282,6.251-2.7,9.316-4.206a.856.856,0,1,1,.755,1.537c-3.1,1.525-6.267,2.956-9.419,4.255a.849.849,0,0,1-.327.065m-109.946-.971a.85.85,0,0,1-.365-.08q-.82-.388-1.635-.783c-2.534-1.239-5.067-2.6-7.529-4.039a.858.858,0,0,1,.869-1.479c2.422,1.419,4.917,2.759,7.41,3.977q.8.391,1.617.772a.857.857,0,0,1-.366,1.632m128.38-8.107a.856.856,0,0,1-.428-1.6c2.936-1.7,5.856-3.518,8.678-5.406a.858.858,0,0,1,.952,1.427c-2.852,1.907-5.8,3.747-8.775,5.46a.831.831,0,0,1-.428.115m-146.1-2.268a.851.851,0,0,1-.5-.158c-2.794-1.992-5.54-4.135-8.157-6.373a.856.856,0,0,1,1.111-1.3c2.582,2.206,5.287,4.32,8.04,6.28a.857.857,0,0,1-.5,1.555m163.186-9.155a.855.855,0,0,1-.521-1.535c2.69-2.063,5.352-4.243,7.91-6.478a.856.856,0,0,1,1.127,1.287c-2.584,2.262-5.274,4.465-8,6.55a.844.844,0,0,1-.519.175M70.045,267.849a.87.87,0,0,1-.612-.253c-2.411-2.446-4.747-5.028-6.95-7.672a.857.857,0,0,1,1.319-1.1c2.169,2.608,4.476,5.153,6.853,7.562a.856.856,0,0,1-.61,1.458M264.326,258.5a.857.857,0,0,1-.6-1.464c2.405-2.391,4.762-4.894,7.011-7.441a.857.857,0,0,1,1.285,1.135c-2.273,2.577-4.658,5.1-7.088,7.521a.863.863,0,0,1-.6.249m-207.415-6.44a.857.857,0,0,1-.7-.365c-1.972-2.826-3.84-5.765-5.557-8.734a.856.856,0,1,1,1.483-.858c1.693,2.928,3.536,5.823,5.48,8.609a.855.855,0,0,1-.7,1.347M277.925,243.1a.859.859,0,0,1-.679-1.382c2.087-2.7,4.1-5.492,5.979-8.293a.856.856,0,1,1,1.421.954c-1.9,2.835-3.935,5.655-6.044,8.386a.854.854,0,0,1-.677.335m-121.751-2.164c-1.449,0-2.906-.048-4.325-.149a.857.857,0,1,1,.121-1.71,63.982,63.982,0,0,0,10.131-.125.867.867,0,0,1,.932.776.856.856,0,0,1-.778.93c-2.043.184-4.087.277-6.081.277m-14.4-1.812a.84.84,0,0,1-.223-.032,45.139,45.139,0,0,1-9.722-3.845.857.857,0,0,1,.817-1.507,43.61,43.61,0,0,0,9.352,3.7.857.857,0,0,1-.223,1.684m30.546-.078a.857.857,0,0,1-.192-1.693c1.693-.387,3.4-.837,5.075-1.338,1.563-.465,3.14-.979,4.688-1.533a.856.856,0,1,1,.577,1.613c-1.578.564-3.183,1.088-4.777,1.564-1.71.508-3.451.965-5.181,1.364a.841.841,0,0,1-.19.022m-125.69-4.77a.858.858,0,0,1-.778-.491c-1.468-3.136-2.8-6.351-3.974-9.562a.857.857,0,1,1,1.611-.584c1.15,3.161,2.469,6.329,3.916,9.419A.856.856,0,0,1,47,234.2a.842.842,0,0,1-.363.08m145.02-2.117a.856.856,0,0,1-.376-1.626,92.862,92.862,0,0,0,8.89-4.961.855.855,0,1,1,.915,1.444,92.832,92.832,0,0,1-9.056,5.056.867.867,0,0,1-.374.087m-67.728-2.807a.846.846,0,0,1-.586-.233,44.1,44.1,0,0,1-6.7-8.027.855.855,0,1,1,1.432-.936,42.688,42.688,0,0,0,6.442,7.715.852.852,0,0,1,.037,1.209.842.842,0,0,1-.623.272m165.444-3.315a.86.86,0,0,1-.74-1.287c1.695-2.937,3.309-5.973,4.8-9.022a.857.857,0,0,1,1.54.753c-1.505,3.084-3.138,6.156-4.855,9.127a.855.855,0,0,1-.742.43m-80.395-4.878a.858.858,0,0,1-.539-1.524,85.163,85.163,0,0,0,7.508-6.861.856.856,0,1,1,1.232,1.189,86.985,86.985,0,0,1-7.661,7,.851.851,0,0,1-.539.192M39.6,214.984a.855.855,0,0,1-.828-.638q-.519-1.951-.965-3.925c-.467-2.048-.88-4.134-1.228-6.193a.856.856,0,1,1,1.689-.283c.344,2.026.75,4.078,1.209,6.1q.441,1.945.952,3.868a.862.862,0,0,1-.61,1.049.9.9,0,0,1-.22.026m73.071-2.634a.859.859,0,0,1-.8-.543,57.753,57.753,0,0,1-2.9-10.012.861.861,0,0,1,.677-1.006.872.872,0,0,1,1.006.679,56.031,56.031,0,0,0,2.809,9.715.857.857,0,0,1-.486,1.111.828.828,0,0,1-.311.058m66.658-.765a.856.856,0,0,1-.16-1.7,34.844,34.844,0,0,0,9.439-3.289.857.857,0,1,1,.787,1.522,36.464,36.464,0,0,1-9.9,3.449.818.818,0,0,1-.162.015m119.046-4.015a.88.88,0,0,1-.32-.061.857.857,0,0,1-.474-1.116c1.271-3.153,2.437-6.388,3.468-9.608a.857.857,0,0,1,1.633.521c-1.046,3.263-2.227,6.535-3.512,9.728a.854.854,0,0,1-.794.538M223.23,206.41a.854.854,0,0,1-.686-1.369c1.153-1.544,2.26-3.146,3.285-4.759.783-1.23,1.535-2.5,2.238-3.765a.857.857,0,1,1,1.5.83c-.72,1.3-1.49,2.6-2.29,3.856-1.049,1.65-2.18,3.287-3.362,4.865a.86.86,0,0,1-.685.342m-25.81-4.05a.856.856,0,0,1-.577-1.49,40.319,40.319,0,0,0,6.543-7.618.846.846,0,0,1,1.185-.244.855.855,0,0,1,.244,1.187,41.838,41.838,0,0,1-6.82,7.943.852.852,0,0,1-.575.221M36.167,194.74a.855.855,0,0,1-.852-.789c-.236-3.027-.357-6.117-.359-9.186l.006-1.161a.856.856,0,0,1,.856-.85h.007a.86.86,0,0,1,.85.863l-.006,1.148c0,3.025.121,6.068.352,9.05a.854.854,0,0,1-.787.921.417.417,0,0,1-.067,0m72.544-2.465a.857.857,0,0,1-.858-.835c-.011-.487-.017-.973-.017-1.46q0-1.554.08-3.094c.1-1.933.285-3.9.554-5.838a.873.873,0,0,1,.967-.729.857.857,0,0,1,.729.967c-.264,1.89-.446,3.8-.541,5.685-.05,1-.074,2-.074,3.008,0,.473,0,.947.017,1.419a.858.858,0,0,1-.837.876Zm124.46-3.789a.855.855,0,0,1-.8-1.166,79.04,79.04,0,0,0,3.053-9.694.856.856,0,1,1,1.663.409,80.129,80.129,0,0,1-3.12,9.9.855.855,0,0,1-.8.547m71.46-.487a.807.807,0,0,1-.2-.022.856.856,0,0,1-.634-1.032c.789-3.295,1.466-6.665,2.017-10.018a.856.856,0,1,1,1.689.279c-.554,3.391-1.243,6.8-2.039,10.137a.859.859,0,0,1-.833.657m-96.055-2.643a.819.819,0,0,1-.266-.041.858.858,0,0,1-.549-1.081,34.476,34.476,0,0,0,1.382-5.946,36.952,36.952,0,0,0,.331-3.908.857.857,0,0,1,1.713.052,38.341,38.341,0,0,1-.348,4.093,36.186,36.186,0,0,1-1.449,6.241.858.858,0,0,1-.815.59M36.363,174.2c-.028,0-.054,0-.082,0a.858.858,0,0,1-.772-.934c.327-3.406.807-6.857,1.425-10.254a.858.858,0,0,1,1.687.309c-.61,3.35-1.083,6.751-1.4,10.109a.859.859,0,0,1-.854.774m75.167-2.21a.835.835,0,0,1-.249-.037.858.858,0,0,1-.571-1.07,66.536,66.536,0,0,1,3.788-9.69.857.857,0,1,1,1.542.748,64.575,64.575,0,0,0-3.689,9.443.857.857,0,0,1-.82.606m126.558-3.417a.88.88,0,0,1-.1-.006.859.859,0,0,1-.752-.952,85.551,85.551,0,0,0,.592-10.057.9.9,0,0,1,.858-.908.814.814,0,0,1,.856.806v.1a87.394,87.394,0,0,1-.6,10.26.856.856,0,0,1-.85.755m69.871-.85c-.028,0-.054,0-.08,0a.858.858,0,0,1-.776-.932c.309-3.358.5-6.792.579-10.2a.831.831,0,0,1,.874-.839.858.858,0,0,1,.839.874c-.076,3.453-.273,6.926-.584,10.325a.861.861,0,0,1-.852.778M7.176,166.734a.859.859,0,0,1-.852-.774c-.326-3.408-.532-6.879-.608-10.325a.858.858,0,0,1,.837-.878.894.894,0,0,1,.876.837c.076,3.406.279,6.835.6,10.2a.859.859,0,0,1-.772.936c-.028,0-.054,0-.084,0M209.3,165.063a.857.857,0,0,1-.833-.664,43.1,43.1,0,0,0-3.416-9.46.856.856,0,1,1,1.533-.763,44.573,44.573,0,0,1,3.551,9.837.858.858,0,0,1-.642,1.029.977.977,0,0,1-.193.02M40.048,154a.847.847,0,0,1-.223-.03.855.855,0,0,1-.6-1.051c.9-3.328,1.957-6.647,3.133-9.867a.857.857,0,0,1,1.609.59c-1.157,3.174-2.2,6.448-3.088,9.726a.858.858,0,0,1-.828.632m80.436-.417a.841.841,0,0,1-.495-.158.855.855,0,0,1-.2-1.192,59.73,59.73,0,0,1,6.732-7.953.858.858,0,1,1,1.205,1.22,57.707,57.707,0,0,0-6.539,7.722.854.854,0,0,1-.7.361m117.586-5.52a.855.855,0,0,1-.848-.757,88.019,88.019,0,0,0-1.78-10.018.857.857,0,1,1,1.667-.4,89.8,89.8,0,0,1,1.814,10.217.856.856,0,0,1-.752.951.592.592,0,0,1-.1.007m70.344-.878a.856.856,0,0,1-.856-.817c-.154-3.367-.426-6.8-.809-10.193a.855.855,0,0,1,.755-.947.885.885,0,0,1,.947.755c.389,3.432.664,6.9.817,10.306a.854.854,0,0,1-.817.893l-.037,0m-108.158-.387a.856.856,0,0,1-.666-.316,44.931,44.931,0,0,0-7.192-7.045.856.856,0,0,1,1.051-1.352,46.592,46.592,0,0,1,7.471,7.315.858.858,0,0,1-.664,1.4m-193.537-.6-.045,0a.857.857,0,0,1-.811-.9c.169-3.416.465-6.879.88-10.3a.856.856,0,1,1,1.7.206c-.407,3.38-.7,6.8-.871,10.18a.855.855,0,0,1-.854.815m128.344-6.952a.856.856,0,0,1-.474-1.568,53.671,53.671,0,0,1,9.2-4.911.857.857,0,0,1,.657,1.583,52.153,52.153,0,0,0-8.909,4.753.849.849,0,0,1-.476.143M47.095,134.7a.863.863,0,0,1-.363-.08.854.854,0,0,1-.415-1.137c1.457-3.131,3.064-6.219,4.775-9.188a.856.856,0,0,1,1.483.858c-1.684,2.923-3.269,5.97-4.7,9.052a.856.856,0,0,1-.776.495m137.043-.381a.876.876,0,0,1-.35-.074,45.078,45.078,0,0,0-9.6-3.045.856.856,0,1,1,.333-1.68,46.741,46.741,0,0,1,9.964,3.161.857.857,0,0,1-.352,1.639m-30.206-2.934a.857.857,0,0,1-.173-1.7,54.079,54.079,0,0,1,10.373-1.124h.007a.858.858,0,0,1,.007,1.715,52.274,52.274,0,0,0-10.04,1.085.691.691,0,0,1-.175.02M233.3,128.1a.86.86,0,0,1-.805-.56,83.13,83.13,0,0,0-4.083-9.313.857.857,0,1,1,1.524-.783,85.081,85.081,0,0,1,4.169,9.5.858.858,0,0,1-.508,1.1.915.915,0,0,1-.3.05m72.81-1.343a.858.858,0,0,1-.843-.705c-.6-3.326-1.315-6.693-2.134-10a.857.857,0,0,1,1.663-.413c.828,3.345,1.553,6.745,2.158,10.111a.858.858,0,0,1-.694,1,.811.811,0,0,1-.151.011M9.18,125.8a.954.954,0,0,1-.162-.015.857.857,0,0,1-.681-1c.638-3.349,1.406-6.742,2.283-10.085a.856.856,0,0,1,1.656.435c-.865,3.306-1.622,6.66-2.257,9.971a.857.857,0,0,1-.839.7m48.184-8.872a.856.856,0,0,1-.7-1.349c1.194-1.695,2.454-3.386,3.747-5.023q1.27-1.61,2.6-3.166a.856.856,0,0,1,1.3,1.112q-1.306,1.535-2.558,3.116c-1.274,1.613-2.517,3.28-3.689,4.947a.857.857,0,0,1-.7.363m166.544-7.051a.856.856,0,0,1-.705-.37,84.218,84.218,0,0,0-6.252-8.022.857.857,0,0,1,1.285-1.133,86.239,86.239,0,0,1,6.379,8.183.856.856,0,0,1-.219,1.191.841.841,0,0,1-.487.151m77.273-3.058a.859.859,0,0,1-.817-.6c-1.027-3.237-2.171-6.479-3.4-9.644a.857.857,0,1,1,1.6-.623c1.245,3.2,2.4,6.478,3.44,9.748a.865.865,0,0,1-.817,1.118m-286.8-.9a.853.853,0,0,1-.813-1.127c1.085-3.248,2.292-6.507,3.589-9.69a.857.857,0,0,1,1.587.646c-1.284,3.149-2.478,6.373-3.549,9.586a.857.857,0,0,1-.813.586m56.3-4.623a.858.858,0,0,1-.6-1.47c2.448-2.389,5.047-4.707,7.73-6.892a.856.856,0,1,1,1.081,1.328c-2.642,2.152-5.2,4.437-7.612,6.788a.854.854,0,0,1-.6.246m139.69-6.824a.85.85,0,0,1-.575-.22,92.574,92.574,0,0,0-7.934-6.385.857.857,0,0,1,1-1.392,94.621,94.621,0,0,1,8.081,6.5A.857.857,0,0,1,211,94.185a.846.846,0,0,1-.634.283M86.606,88.329a.858.858,0,0,1-.48-1.57c2.856-1.922,5.83-3.735,8.842-5.393a.858.858,0,1,1,.826,1.5c-2.967,1.631-5.9,3.419-8.71,5.313a.84.84,0,0,1-.478.147m207.117-.664a.856.856,0,0,1-.776-.5c-1.436-3.083-2.99-6.15-4.617-9.121a.857.857,0,0,1,1.5-.824c1.646,3,3.216,6.107,4.667,9.223a.857.857,0,0,1-.778,1.218M22.135,86.886a.854.854,0,0,1-.772-1.23c1.5-3.088,3.116-6.167,4.807-9.149a.857.857,0,1,1,1.49.846c-1.674,2.95-3.272,6-4.755,9.049a.855.855,0,0,1-.77.484M193.7,82.493a.869.869,0,0,1-.422-.112,97.541,97.541,0,0,0-9.119-4.552.857.857,0,0,1,.686-1.57,100.7,100.7,0,0,1,9.277,4.628.859.859,0,0,1-.422,1.605m-89.1-4.052a.856.856,0,0,1-.342-1.641c3.176-1.382,6.435-2.623,9.685-3.685a.858.858,0,0,1,.532,1.631c-3.2,1.042-6.407,2.262-9.534,3.624a.879.879,0,0,1-.34.071m70.275-4.152a.848.848,0,0,1-.259-.039,97.947,97.947,0,0,0-9.858-2.578A.856.856,0,0,1,165.111,70a100.243,100.243,0,0,1,10.031,2.621.856.856,0,0,1-.26,1.672m-50.755-2.216a.857.857,0,0,1-.186-1.693,103.441,103.441,0,0,1,10.219-1.732.858.858,0,1,1,.2,1.7,100.972,100.972,0,0,0-10.047,1.7.813.813,0,0,1-.186.02m30.654-1.927c-.028,0-.056,0-.086,0-3.053-.3-6.133-.45-9.158-.45l-1.016,0h-.009a.857.857,0,0,1-.007-1.713l1.032-.006c3.081,0,6.217.154,9.326.459a.857.857,0,0,1-.082,1.71m129.07-.5a.859.859,0,0,1-.725-.4c-1.831-2.87-3.776-5.707-5.782-8.427a.857.857,0,1,1,1.378-1.018c2.028,2.753,4,5.622,5.851,8.526a.855.855,0,0,1-.264,1.183.839.839,0,0,1-.458.134M32.272,69.014a.86.86,0,0,1-.716-1.328c1.884-2.874,3.886-5.72,5.944-8.453a.856.856,0,0,1,1.369,1.029c-2.037,2.707-4.015,5.52-5.88,8.364a.857.857,0,0,1-.716.389m239.378-15.9a.852.852,0,0,1-.653-.3c-2.2-2.6-4.522-5.134-6.889-7.547a.857.857,0,1,1,1.224-1.2c2.394,2.443,4.738,5.012,6.971,7.638a.857.857,0,0,1-.653,1.412M44.634,52.595a.856.856,0,0,1-.649-1.414c2.247-2.61,4.6-5.168,7.006-7.6a.856.856,0,1,1,1.22,1.2c-2.374,2.409-4.7,4.939-6.928,7.517a.845.845,0,0,1-.649.3M257.265,38.445a.865.865,0,0,1-.569-.214c-1.661-1.468-3.363-2.9-5.058-4.255q-1.409-1.125-2.848-2.216a.857.857,0,1,1,1.034-1.365q1.457,1.105,2.883,2.245c1.717,1.371,3.44,2.82,5.125,4.3a.857.857,0,0,1-.567,1.5m-198.2-.48a.858.858,0,0,1-.567-1.5c2.59-2.292,5.272-4.5,7.977-6.576a.857.857,0,0,1,1.044,1.36c-2.673,2.048-5.326,4.234-7.886,6.5a.846.846,0,0,1-.567.216m181.832-11.93a.845.845,0,0,1-.467-.14c-2.833-1.838-5.784-3.605-8.764-5.248a.856.856,0,0,1,.828-1.5c3.017,1.661,6,3.449,8.87,5.311a.857.857,0,0,1-.467,1.576m-165.53-.569a.856.856,0,0,1-.471-1.57c2.887-1.907,5.86-3.713,8.838-5.373a.856.856,0,0,1,.833,1.5c-2.939,1.639-5.877,3.425-8.729,5.3a.833.833,0,0,1-.473.143M222.9,16.11a.834.834,0,0,1-.361-.08c-3.066-1.423-6.234-2.763-9.415-3.981a.857.857,0,0,1,.614-1.6c3.216,1.232,6.42,2.588,9.523,4.028a.857.857,0,0,1-.361,1.633M93.3,15.454a.855.855,0,0,1-.361-1.631c3.112-1.447,6.318-2.8,9.53-4.016a.858.858,0,0,1,.6,1.605c-3.17,1.2-6.338,2.534-9.413,3.962a.8.8,0,0,1-.361.08m110.415-6.7a.786.786,0,0,1-.251-.039c-3.224-.993-6.541-1.9-9.863-2.692a.857.857,0,0,1,.4-1.667c3.356.8,6.712,1.715,9.969,2.723a.856.856,0,0,1-.253,1.674m-91.207-.592a.857.857,0,0,1-.247-1.678c3.269-.982,6.632-1.87,10-2.632a.857.857,0,0,1,.378,1.672c-3.328.753-6.652,1.631-9.882,2.6a.823.823,0,0,1-.247.037m71.218-4.171a.765.765,0,0,1-.145-.013c-3.33-.569-6.738-1.038-10.127-1.4a.857.857,0,0,1,.177-1.7c3.427.361,6.874.835,10.239,1.41a.857.857,0,0,1-.143,1.7m-51.184-.383a.857.857,0,0,1-.134-1.7c3.376-.53,6.827-.954,10.26-1.261a.871.871,0,0,1,.93.776.858.858,0,0,1-.778.93c-3.4.305-6.809.724-10.144,1.248a.813.813,0,0,1-.134.011m30.747-1.762h-.033c-3.432-.138-6.85-.166-10.224-.082h-.022a.858.858,0,0,1-.022-1.715q5.134-.126,10.336.082a.858.858,0,0,1-.033,1.715" transform="translate(4.917 0)" fill="#cda7ff" stroke="#cda7ff" stroke-width="6"/>
            <path id="Trazado_720938" data-name="Trazado 720938" d="M48.749,7.161V81.882H109.3V7.161Z" transform="translate(41.939 6.16)" fill="#d1d3d4"/>
            <rect id="Rectángulo_351082" data-name="Rectángulo 351082" width="51.454" height="2.532" transform="translate(94.485 42.106)" fill="#bcbec0"/>
            <rect id="Rectángulo_351083" data-name="Rectángulo 351083" width="48.437" height="2.532" transform="translate(94.485 34.769)" fill="#bcbec0"/>
            <rect id="Rectángulo_351084" data-name="Rectángulo 351084" width="51.454" height="2.532" transform="translate(94.485 27.434)" fill="#bcbec0"/>
            <rect id="Rectángulo_351085" data-name="Rectángulo 351085" width="44.805" height="2.532" transform="translate(94.483 20.097)" fill="#bcbec0"/>
            <rect id="Rectángulo_351086" data-name="Rectángulo 351086" width="48.437" height="2.532" transform="translate(94.485 49.415)" fill="#bcbec0"/>
            <rect id="Rectángulo_351087" data-name="Rectángulo 351087" width="51.454" height="2.532" transform="translate(94.485 56.726)" fill="#bcbec0"/>
            <rect id="Rectángulo_351088" data-name="Rectángulo 351088" width="46.906" height="2.532" transform="translate(94.485 64.037)" fill="#bcbec0"/>
            <rect id="Rectángulo_351089" data-name="Rectángulo 351089" width="51.454" height="2.532" transform="translate(94.485 71.346)" fill="#bcbec0"/>
            <rect id="Rectángulo_351090" data-name="Rectángulo 351090" width="51.454" height="2.534" transform="translate(94.485 78.656)" fill="#bcbec0"/>
            <path id="Trazado_720939" data-name="Trazado 720939" d="M101.973,14.212H58.6V88.932h60.551V31.388Z" transform="translate(50.413 12.226)" fill="#e6e7e8"/>
            <rect id="Rectángulo_351091" data-name="Rectángulo 351091" width="51.454" height="2.532" transform="translate(112.809 55.221)" fill="#bcbec0"/>
            <rect id="Rectángulo_351092" data-name="Rectángulo 351092" width="51.454" height="2.532" transform="translate(112.809 47.886)" fill="#bcbec0"/>
            <rect id="Rectángulo_351093" data-name="Rectángulo 351093" width="51.454" height="2.532" transform="translate(112.809 40.551)" fill="#bcbec0"/>
            <rect id="Rectángulo_351094" data-name="Rectángulo 351094" width="42.528" height="2.534" transform="translate(115.084 33.212)" fill="#bcbec0"/>
            <rect id="Rectángulo_351095" data-name="Rectángulo 351095" width="48.413" height="2.532" transform="translate(115.849 62.532)" fill="#bcbec0"/>
            <rect id="Rectángulo_351096" data-name="Rectángulo 351096" width="51.454" height="2.532" transform="translate(112.809 69.843)" fill="#bcbec0"/>
            <rect id="Rectángulo_351097" data-name="Rectángulo 351097" width="51.454" height="2.532" transform="translate(112.809 77.154)" fill="#bcbec0"/>
            <rect id="Rectángulo_351098" data-name="Rectángulo 351098" width="51.454" height="2.534" transform="translate(112.809 84.462)" fill="#bcbec0"/>
            <rect id="Rectángulo_351099" data-name="Rectángulo 351099" width="51.454" height="2.532" transform="translate(112.809 91.773)" fill="#bcbec0"/>
            <path id="Trazado_720940" data-name="Trazado 720940" d="M81.915,31.388H99.093L81.915,14.212Z" transform="translate(70.471 12.227)" fill="#f1f2f2"/>
            <path id="Trazado_720941" data-name="Trazado 720941" d="M99.092,23.445H81.914L99.092,40.621Z" transform="translate(70.471 20.17)" fill="#a7a9ac"/>
            <path id="Trazado_720942" data-name="Trazado 720942" d="M65.284,34.041H92.027v9.912h-25.8Z" transform="translate(56.164 29.285)" fill="#bcbec0"/>
            <path id="Trazado_720943" data-name="Trazado 720943" d="M75.311,47.867,68.582,36.4l1.751-1.029,4.829,8.23,6.076-12.228,1.818.9Z" transform="translate(59.002 26.993)" fill="#ed1c24"/>
            <path id="Trazado_720944" data-name="Trazado 720944" d="M88.911,32.674a14.237,14.237,0,1,0-.394,21.286L93.768,58.8l-1.209,1.312,20.733,19.115,4.7-5.092L97.254,55.018l-1.209,1.312-5.252-4.841a14.238,14.238,0,0,0-1.883-18.815M75.489,53.494a11.019,11.019,0,1,1,14.125-6.582,11.018,11.018,0,0,1-14.125,6.582" transform="translate(55.94 24.866)" fill="#3d5872"/>
            <path id="Trazado_720945" data-name="Trazado 720945" d="M117.455,23.473v82.153h66.573V23.473Z" transform="translate(101.047 20.194)" fill="#d1d3d4"/>
            <rect id="Rectángulo_351100" data-name="Rectángulo 351100" width="56.57" height="2.785" transform="translate(222.677 75.314)" fill="#bcbec0"/>
            <rect id="Rectángulo_351101" data-name="Rectángulo 351101" width="53.253" height="2.785" transform="translate(222.677 67.248)" fill="#bcbec0"/>
            <rect id="Rectángulo_351102" data-name="Rectángulo 351102" width="56.57" height="2.783" transform="translate(222.677 59.184)" fill="#bcbec0"/>
            <rect id="Rectángulo_351103" data-name="Rectángulo 351103" width="49.259" height="2.785" transform="translate(222.677 51.117)" fill="#bcbec0"/>
            <rect id="Rectángulo_351104" data-name="Rectángulo 351104" width="53.253" height="2.785" transform="translate(222.677 83.351)" fill="#bcbec0"/>
            <rect id="Rectángulo_351105" data-name="Rectángulo 351105" width="56.57" height="2.785" transform="translate(222.677 91.389)" fill="#bcbec0"/>
            <rect id="Rectángulo_351106" data-name="Rectángulo 351106" width="51.57" height="2.785" transform="translate(222.677 99.426)" fill="#bcbec0"/>
            <rect id="Rectángulo_351107" data-name="Rectángulo 351107" width="56.57" height="2.785" transform="translate(222.677 107.462)" fill="#bcbec0"/>
            <rect id="Rectángulo_351108" data-name="Rectángulo 351108" width="56.57" height="2.785" transform="translate(222.677 115.501)" fill="#bcbec0"/>
            <path id="Trazado_720946" data-name="Trazado 720946" d="M135.911,20.279l-18.428,80.06,64.876,14.933,9.956-43.252,8.472-36.808Z" transform="translate(101.071 17.446)" fill="#eff1f2"/>
            <rect id="Rectángulo_351109" data-name="Rectángulo 351109" width="2.785" height="56.57" transform="matrix(0.224, -0.974, 0.974, 0.224, 233.327, 72.212)" fill="#dadcde"/>
            <rect id="Rectángulo_351110" data-name="Rectángulo 351110" width="2.785" height="53.253" transform="matrix(0.224, -0.975, 0.975, 0.224, 235.134, 64.37)" fill="#dadcde"/>
            <rect id="Rectángulo_351111" data-name="Rectángulo 351111" width="2.785" height="56.571" transform="matrix(0.224, -0.974, 0.974, 0.224, 236.945, 56.492)" fill="#dadcde"/>
            <rect id="Rectángulo_351112" data-name="Rectángulo 351112" width="2.784" height="49.26" transform="matrix(0.224, -0.975, 0.975, 0.224, 238.753, 48.634)" fill="#dadcde"/>
            <rect id="Rectángulo_351113" data-name="Rectángulo 351113" width="2.784" height="53.253" transform="translate(231.524 80.047) rotate(-77.036)" fill="#dadcde"/>
            <rect id="Rectángulo_351114" data-name="Rectángulo 351114" width="2.785" height="56.57" transform="translate(229.721 87.881) rotate(-77.038)" fill="#dadcde"/>
            <rect id="Rectángulo_351115" data-name="Rectángulo 351115" width="2.784" height="51.57" transform="translate(227.917 95.712) rotate(-77.038)" fill="#dadcde"/>
            <rect id="Rectángulo_351116" data-name="Rectángulo 351116" width="2.784" height="56.57" transform="translate(226.115 103.544) rotate(-77.038)" fill="#dadcde"/>
            <rect id="Rectángulo_351117" data-name="Rectángulo 351117" width="2.784" height="56.57" transform="matrix(0.224, -0.975, 0.975, 0.224, 224.312, 111.378)" fill="#dadcde"/>
            <rect id="Rectángulo_351118" data-name="Rectángulo 351118" width="87.877" height="53.966" transform="translate(210.053 83.265)" fill="#ebd50c"/>
            <path id="Trazado_720947" data-name="Trazado 720947" d="M156.852,83.813,112.914,44.76h87.877Z" transform="translate(97.14 38.507)" fill="#c9b528"/>
            <path id="Trazado_720948" data-name="Trazado 720948" d="M156.852,78.109l-43.939-33.35h87.877Z" transform="translate(97.14 38.506)" fill="#f9ed32"/>
            <rect id="Rectángulo_351119" data-name="Rectángulo 351119" width="23.734" height="9.761" transform="translate(267.586 119.154)" fill="#eff1f2"/>
            <rect id="Rectángulo_351120" data-name="Rectángulo 351120" width="82.08" height="5.752" transform="translate(19.98 133.518)" fill="#414042"/>
            <path id="Trazado_720949" data-name="Trazado 720949" d="M7.09,64.971V75.242a5.191,5.191,0,0,0,5.175,5.175H93.927A5.191,5.191,0,0,0,99.1,75.242V64.971Z" transform="translate(6.1 55.895)" fill="#58595b"/>
            <path id="Trazado_720950" data-name="Trazado 720950" d="M99.1,56.368a5.191,5.191,0,0,0-5.175-5.175H12.265A5.191,5.191,0,0,0,7.09,56.368V76.824H99.1Z" transform="translate(6.1 44.042)" fill="#939598"/>
            <path id="Trazado_720951" data-name="Trazado 720951" d="M17.131,44.657V62.886a5.191,5.191,0,0,0,5.175,5.175h44.3a5.191,5.191,0,0,0,5.175-5.175V44.657Z" transform="translate(14.738 38.419)" fill="#58595b"/>
            <path id="Trazado_720952" data-name="Trazado 720952" d="M17.131,44.48V58.241a5.191,5.191,0,0,0,5.175,5.177h44.3a5.191,5.191,0,0,0,5.175-5.177V44.48Z" transform="translate(14.738 38.266)" fill="#939598"/>
            <rect id="Rectángulo_351121" data-name="Rectángulo 351121" width="44.035" height="24.188" transform="translate(37.178 70.589)" fill="#939598"/>
            <path id="Trazado_720953" data-name="Trazado 720953" d="M52.748,59.673H41.482c-.72,0-1.308.374-1.308.832v6.279c0,.46.588.833,1.308.833H52.748c.72,0,1.308-.374,1.308-.833V60.5c0-.458-.588-.832-1.308-.832" transform="translate(34.562 51.337)" fill="#6d6e71"/>
            <path id="Trazado_720954" data-name="Trazado 720954" d="M53,60.12H48.544a.6.6,0,0,0-.517.659V65.74a.6.6,0,0,0,.517.659H53a.6.6,0,0,0,.517-.659V60.779A.6.6,0,0,0,53,60.12" transform="translate(41.318 51.722)" fill="#eb4747"/>
            <path id="Trazado_720955" data-name="Trazado 720955" d="M56.882,60.12H52.43a.6.6,0,0,0-.517.659V65.74a.6.6,0,0,0,.517.659h4.452a.6.6,0,0,0,.515-.659V60.779a.6.6,0,0,0-.515-.659" transform="translate(44.661 51.722)" fill="#00a79d"/>
            <path id="Trazado_720956" data-name="Trazado 720956" d="M46.121,61.086H26.834a4.709,4.709,0,0,0-2.24.281v2.124a4.736,4.736,0,0,0,2.24.281H46.121a4.721,4.721,0,0,0,2.236-.281V61.367a4.694,4.694,0,0,0-2.236-.281" transform="translate(21.158 52.553)" fill="#e6e7e8"/>
            <rect id="Rectángulo_351122" data-name="Rectángulo 351122" width="37.104" height="44.108" transform="translate(43.094 62.372)" fill="#bcbec0"/>
            <rect id="Rectángulo_351123" data-name="Rectángulo 351123" width="38.655" height="42.463" transform="translate(39.868 64.017)" fill="#e6e7e8"/>
            <path id="Trazado_720957" data-name="Trazado 720957" d="M67.105,64.971H19.455L41.8,87.319h25.3Z" transform="translate(16.737 55.895)" fill="#3b3c3d"/>
            <path id="Trazado_720958" data-name="Trazado 720958" d="M18.572,64.971V87.319H42.561L20.215,64.971Z" transform="translate(15.978 55.895)" fill="#4e4f4f"/>
            <path id="Trazado_720959" data-name="Trazado 720959" d="M59.91,84.282V66.207H21.255v1.049L38.282,84.282Z" transform="translate(18.286 56.959)" fill="#cdcece"/>
            <path id="Trazado_720960" data-name="Trazado 720960" d="M38.282,83.8,21.255,66.771V83.8Z" transform="translate(18.286 57.444)" fill="#e6e7e8"/>
            <path id="Trazado_720961" data-name="Trazado 720961" d="M51.04,75.2V72.567H27.051L29.68,75.2Z" transform="translate(23.272 62.43)" fill="#a3a5a6"/>
            <path id="Trazado_720962" data-name="Trazado 720962" d="M23.165,75.2h9.858l-2.629-2.629H23.165Z" transform="translate(19.929 62.43)" fill="#bcbec0"/>
            <path id="Trazado_720963" data-name="Trazado 720963" d="M52.939,72.988V70.359h-28.1l2.629,2.629Z" transform="translate(21.373 60.53)" fill="#a3a5a6"/>
            <path id="Trazado_720964" data-name="Trazado 720964" d="M23.165,72.988h5.75l-2.629-2.629H23.165Z" transform="translate(19.929 60.53)" fill="#bcbec0"/>
            <path id="Trazado_720965" data-name="Trazado 720965" d="M30.247,89.889h7.11v1.637l.564.13.564.13V88.762H25.349l2.448.564Z" transform="translate(21.808 76.362)" fill="#35799b"/>
            <path id="Trazado_720966" data-name="Trazado 720966" d="M9.289,102.533h2.255l.435-1.9H9.289Z" transform="translate(7.991 86.578)" fill="#35799b"/>
            <path id="Trazado_720967" data-name="Trazado 720967" d="M13.242,97.688H9.289v1.9h3.518Z" transform="translate(7.991 84.042)" fill="#35799b"/>
            <path id="Trazado_720968" data-name="Trazado 720968" d="M14.5,94.739H9.289v1.9h4.779Z" transform="translate(7.992 81.504)" fill="#35799b"/>
            <path id="Trazado_720969" data-name="Trazado 720969" d="M15.767,91.79H9.29v1.894h6.042Z" transform="translate(7.992 78.967)" fill="#35799b"/>
            <path id="Trazado_720970" data-name="Trazado 720970" d="M47.818,103.36l-.564-.13-8.182-1.883-8.23-1.9-15.608-3.59-.964-.223-.052.223-.374,1.624L22.4,99.451l8.23,1.9,16.627,3.827.564.13.564.128.766.179.426-1.847-1.192-.275Z" transform="translate(11.911 82.278)" fill="#35799b"/>
            <path id="Trazado_720971" data-name="Trazado 720971" d="M47.248,100.2l-.564-.13-7.558-1.739L30.9,96.439,15.288,92.845l-.357-.082-.019.082-.406,1.764,7.943,1.831,8.232,1.894,16,3.683.564.13.564.128,4.2.967.426-1.845-4.623-1.066Z" transform="translate(12.48 79.805)" fill="#35799b"/>
            <path id="Trazado_720972" data-name="Trazado 720972" d="M30.736,95.318l15.379,3.54.564.13.566.13.58.132L48.25,97.4l-1.006-.231-.566-.13-.564-.13-8.373-1.927-6.79-1.563L15.593,89.889l-.424,1.845,7.337,1.689Z" transform="translate(13.05 77.332)" fill="#35799b"/>
            <path id="Trazado_720973" data-name="Trazado 720973" d="M62.516,105.268l-.729.647-.727.647-4.787,4.256-.566.5-.564.5-1.3,1.159L52.1,114.523l-3.276,2.911-1.738,1.544-1.157,1.029-2.119,1.884-.011.009-1.726,1.535-2.294,2.039-.984.872-1.148,1.021-.588.523-2.5,2.223-3.09-2.746-1.157-1.029-.973-.865-1.979-1.76L25.323,121.9l-2.13-1.894-1.4-1.239-2.625-2.335-.326-.288-1.806-1.605-2.6-2.311-.482-.428-.48-.426-.48-.428-2.017-1.791-.564-.5-.564-.5-5.183-4.608v36.711H64.455V103.545l-1.211,1.077ZM59.957,134.6H43.811v-6.639H59.957Z" transform="translate(4.021 89.08)" fill="#35799b"/>
            <path id="Trazado_720974" data-name="Trazado 720974" d="M62.914,118.185,67.8,96.942l-11.53-2.655-.564-.13-.564-.128-9.623-2.217-2.45-.562-2.45-.566L22.571,86.528l-.958,4.156-.128.566-.13.562-1.036,4.506-.437,1.894-.828,3.592-.435,1.9-.826,3.592-.437,1.894-.826,3.592-.435,1.894-.809,3.514h-4.3V91.811h9.791l.13-.562.128-.566H9.858v27.5H4.673l29.891,22.686,27.32-20.735.7-.532.7-.532,1.166-.887h-1.54Zm-4.649,0,.167-.731-2.16-.495-.564-.13-.564-.13-8.8-2.028-8.23-1.894L22.5,109.185l-1.572-.361-.084.361-.34,1.485,9.158,2.108,8.23,1.894,15.268,3.514H37.234l-15.268-3.514-2.262-.519-.119.519L19.278,116l9.51,2.188H16.441l.809-3.514.435-1.894.826-3.592.437-1.894.828-3.592.433-1.9.828-3.592.437-1.894,1.036-4.506.13-.562.128-.566.646-2.8,12.178,2.8,2.448.566,2.452.562,14.652,3.375.564.128.564.13L66.45,97.787l-4.7,20.4Z" transform="translate(4.02 74.44)" fill="#35799b"/>
            <g id="Grupo_1018264" data-name="Grupo 1018264" transform="translate(63.997 110.082)" style="mix-blend-mode: multiply;isolation: isolate">
              <g id="Grupo_1018263" data-name="Grupo 1018263">
                <g id="Grupo_1018262" data-name="Grupo 1018262" clip-path="url(#clip-path-3)">
                  <g id="Grupo_1018261" data-name="Grupo 1018261">
                    <g id="Grupo_1018260" data-name="Grupo 1018260">
                      <g id="Grupo_1018259" data-name="Grupo 1018259" clip-path="url(#clip-path-3)">
                        <path id="Trazado_720975" data-name="Trazado 720975" d="M213.146,195.2l-6.091.419-.486-7.069-2.969.2v0c-.188-2.859-.456-6.933-.419-7.184a70.373,70.373,0,0,1,1.8-7.069c1.384-2.511,2.649-5.525,2.456-8.446l-.452-6.513a13.191,13.191,0,0,0,4.625-10.008V72.39a13.254,13.254,0,0,0-13.216-13.216H85.692A13.253,13.253,0,0,0,72.479,72.39v40.482l-13.655,18.56a24.6,24.6,0,0,0-4.783,14.575v15.647l-.885,1.974-1.7-.884L48.263,169.7l-2.015-.934L34.4,188.551l46.039,25.84,11.212-24.612-2.7-1.246,2.7-4.852-3.43-1.788,8.515-18.235.121-.913h57.766l.175,2.578c.153,2.154.119,4.415.446,6.533.285,1.751,8.613,13.781,8.942,14.5a36.852,36.852,0,0,1,1.434,5v0l-2.83.192.484,7.069-4.974.34,2.1,25.058,53.227-3.049Z" transform="translate(-34.401 -59.174)" fill="#b4b4b5"/>
                      </g>
                    </g>
                  </g>
                </g>
              </g>
            </g>
            <path id="Trazado_720976" data-name="Trazado 720976" d="M43.57,150.579l2.582-5.761V129.17a24.609,24.609,0,0,1,4.785-14.575l16.9-22.977L87.153,78.743l4.924,43.712-3.229,24.366L79.5,166.843Z" transform="translate(37.483 67.743)" fill="#eab38b"/>
            <path id="Trazado_720977" data-name="Trazado 720977" d="M180.783,59.174H68.084A13.253,13.253,0,0,0,54.87,72.39v77.138a13.253,13.253,0,0,0,13.214,13.216h112.7A13.254,13.254,0,0,0,194,149.527V72.39a13.254,13.254,0,0,0-13.216-13.216" transform="translate(47.205 50.908)" fill="#414042"/>
            <rect id="Rectángulo_351126" data-name="Rectángulo 351126" width="114.299" height="84.188" transform="translate(112.34 119.772)" fill="#d1d3d4"/>
            <path id="Trazado_720978" data-name="Trazado 720978" d="M132.866,89.281a4.908,4.908,0,1,1-4.907-4.909,4.909,4.909,0,0,1,4.907,4.909" transform="translate(105.86 72.586)" fill="#d1d3d4"/>
            <path id="Trazado_720979" data-name="Trazado 720979" d="M63.825,88.846a3.966,3.966,0,1,1-3.966-3.968,3.967,3.967,0,0,1,3.966,3.968" transform="translate(48.085 73.021)" fill="#939598"/>
            <rect id="Rectángulo_351127" data-name="Rectángulo 351127" width="45.896" height="34.406" transform="translate(172.817 139.597)" fill="#bcbec0"/>
            <rect id="Rectángulo_351128" data-name="Rectángulo 351128" width="90.204" height="13.517" transform="translate(123.258 186.468)" fill="#bcbec0"/>
            <path id="Trazado_720980" data-name="Trazado 720980" d="M105.821,111,95.894,82.226l2.883-1,7.577,21.965,16.328-32.273L125.4,72.3Z" transform="translate(82.498 61.015)" fill="#eb4747"/>
            <rect id="Rectángulo_351129" data-name="Rectángulo 351129" width="18.291" height="3.551" transform="translate(142.124 128.385)" fill="#bcbec0"/>
            <rect id="Rectángulo_351130" data-name="Rectángulo 351130" width="18.291" height="3.553" transform="translate(142.124 134.813)" fill="#bcbec0"/>
            <rect id="Rectángulo_351131" data-name="Rectángulo 351131" width="18.291" height="3.553" transform="translate(142.124 141.242)" fill="#bcbec0"/>
            <rect id="Rectángulo_351132" data-name="Rectángulo 351132" width="18.291" height="3.551" transform="translate(142.124 147.671)" fill="#bcbec0"/>
            <rect id="Rectángulo_351133" data-name="Rectángulo 351133" width="17.846" height="23.341" transform="translate(120.743 128.385)" fill="#fff"/>
            <path id="Trazado_720981" data-name="Trazado 720981" d="M82.537,85.572c-.452-.925-.954-1.931-1-1.966s-2.467-.772-4.005-1.239c-.482-.145-.878-.262-1.094-.326l-.4-1.163L76,80.907V79.768a1.448,1.448,0,0,0,.307-.3,1.649,1.649,0,0,0,.246-.519c.08-.281.045-.724.257-.949.192-.2.385-.286.523-.567a3.326,3.326,0,0,0,.286-1.605c-.007-.151-.087-.4-.285-.259-.087.065-.045.227-.127.281l-.009,0c.073-.242.147-.491.169-.606a7.783,7.783,0,0,0,.117-1.135,3.437,3.437,0,0,0-.413-2.571A2.731,2.731,0,0,0,75.088,70.3c-.028,0-.352.033-.311.071a1.551,1.551,0,0,0-.683-.216,4.2,4.2,0,0,0-3.371,1.181c-.865.791-.737,1.8-.638,2.783a5.819,5.819,0,0,0,.125,1.04,1.982,1.982,0,0,1,.084.526.167.167,0,0,0-.058-.11c-.2-.145-.277.108-.285.259a3.327,3.327,0,0,0,.288,1.605c.136.281.327.363.521.567.212.225.179.668.257.949a1.649,1.649,0,0,0,.246.519,1.825,1.825,0,0,0,.435.391v1.049l-.039-.033-.4,1.161c-.1.03-.246.074-.424.127-.054.017-.112.035-.171.052l-.188.058c-.1.028-.2.06-.309.091-1.54.467-3.942,1.2-4.005,1.239s-.634,1.207-1.109,2.182a1.458,1.458,0,0,0-.151.649v4.987H82.751V86.493a2.1,2.1,0,0,0-.214-.921" transform="translate(55.838 60.302)" fill="#a7a9ac"/>
            <rect id="Rectángulo_351134" data-name="Rectángulo 351134" width="40.495" height="5.066" transform="translate(121.459 155.395)" fill="#bcbec0"/>
            <rect id="Rectángulo_351135" data-name="Rectángulo 351135" width="40.495" height="5.066" transform="translate(121.459 163.748)" fill="#bcbec0"/>
            <rect id="Rectángulo_351136" data-name="Rectángulo 351136" width="40.497" height="5.066" transform="translate(121.876 173.088)" fill="#bcbec0"/>
            <path id="Trazado_720982" data-name="Trazado 720982" d="M91.9,103.008a1.445,1.445,0,0,0-.006.158,3.661,3.661,0,0,1-.03.467,4.747,4.747,0,0,1-.8,2.033c-.052.076-.106.153-.164.223a5.688,5.688,0,0,1-3.944,2.151H73.046l-5.235,21.349,1.5,8.131,5.067-1.018-14.369,6.1-10.5-12.538L55.948,95.5H67.811l13.2,2.2,1.525.255,7.609,1.271a5.61,5.61,0,0,1,1.764,3.782" transform="translate(42.596 82.159)" fill="#eab38b"/>
            <path id="Trazado_720983" data-name="Trazado 720983" d="M41.5,123.246l3.855-8.4,40.2,20.936-3.388,6.1Z" transform="translate(35.701 98.803)" fill="#fff"/>
            <path id="Trazado_720984" data-name="Trazado 720984" d="M34.4,137.867l11.846-19.781,45.406,21.008L80.44,163.707Z" transform="translate(29.596 101.59)" fill="#808285"/>
            <path id="Trazado_720985" data-name="Trazado 720985" d="M76.772,101.873a1.444,1.444,0,0,0-.006.158c-.009.091-.015.182-.026.277a4.977,4.977,0,0,1-.675,1.968,20.675,20.675,0,0,1-3.492-.493C66.012,101.664,67,97.836,67.4,96.82l7.609,1.271a5.61,5.61,0,0,1,1.764,3.782" transform="translate(57.728 83.295)" fill="#f2c4a5"/>
            <path id="Trazado_720986" data-name="Trazado 720986" d="M148.381,169.958c-.229.166-1.066.074-1.334.093l-2.578.175c-2.616.18-2.184,1.148-4.792,1.323-6.357.443-12.778-.113-19.128.322l-7.024.476c-.411.032-2.27.422-2.562.127-.171-.156-.158-1.014-.206-1.239-.048-.272-.223-1.142-.463-2.193a36.4,36.4,0,0,0-1.434-5c-.327-.713-8.656-12.745-8.941-14.5-.329-2.119-.294-4.379-.446-6.533L98.854,134c-.043-.67-.151-1.38-.14-2.058.061-2.041.817-4.175,2.532-5.2a3.908,3.908,0,0,1,3.983-.13c.9.655,1.172,1.968,1.44,2.99a21.559,21.559,0,0,1,.526,4.515c.063,1.948.655,2.679,1.066,2.318.58-.486.145-2.219.108-2.837l-2.85-41.483c-.076-1.176-.273-2.418-.242-3.6a2.059,2.059,0,0,1,.512-1.22,3.437,3.437,0,0,1,.242-.281.337.337,0,0,1,.037-.035,7.064,7.064,0,0,1,.614-.554,5.742,5.742,0,0,1,6.6-.51,6.1,6.1,0,0,1,.668.428.3.3,0,0,0,.039.028,3.348,3.348,0,0,1,.681.675,2.12,2.12,0,0,1,.4,1.034c.063.668.087,1.319.138,1.991.169,2.517,1.808,29.034,2.087,30.481.216,1.137,1.445.973,1.483-.147a31.171,31.171,0,0,0-.231-3.4c-.108-1.55-.6-6.723-.307-7.657.824-2.554,4.9-3.33,7.023-2.1a4.594,4.594,0,0,1,2.175,3.817l.3,4.374a25.9,25.9,0,0,0,.231,3.337c.21,1,.856.979,1.57.48.655-.458.636-4.649.543-6.02a5.456,5.456,0,0,1,1.345-4.485,5.026,5.026,0,0,1,6.279-.5c1.438.9,1.652,2.21,1.756,3.737s.123,7.315,1.392,7.3c.558,0,.614-1.916.621-2.452a4.352,4.352,0,0,1,4.016-4.318,5.064,5.064,0,0,1,4.442,2.405.024.024,0,0,1,0-.017.24.24,0,0,1,.069.11.176.176,0,0,1,.047.074c.011.009.011.017.024.026l0,.013c.361,1.2,1.168,15.827,1.578,21.87l.469,6.744c.193,2.921-1.073,5.934-2.456,8.446a69.874,69.874,0,0,0-1.8,7.069c-.039.251.229,4.325.419,7.185.082,1.192.141,2.175.171,2.586.026.357.164.772-.063.938" transform="translate(84.924 73.221)" fill="#eab38b"/>
            <rect id="Rectángulo_351137" data-name="Rectángulo 351137" width="43.879" height="8.578" transform="translate(192.388 242.458) rotate(-3.921)" fill="#fff"/>
            <path id="Trazado_720987" data-name="Trazado 720987" d="M156.327,158.063l-.48-25.769L101,136.056l2.1,25.058Z" transform="translate(86.894 113.813)" fill="#808285"/>
            <path id="Trazado_720988" data-name="Trazado 720988" d="M107.574,94.463c-2.151.463-4.2-1.537-4.567-4.442l-.294-2.43a5.575,5.575,0,0,1-.047-.61,7.344,7.344,0,0,1,.614-.554,5.742,5.742,0,0,1,6.6-.51,6.1,6.1,0,0,1,.668.428c.013.011.026.019.039.028l.236,1.942c.355,2.913-1.109,5.676-3.246,6.148" transform="translate(88.325 73.221)" fill="#f2c4a5"/>
            <path id="Trazado_720989" data-name="Trazado 720989" d="M116.458,78.358c4.359,0,7.131,2.939,7.131,7.171,0,3.732-2.418,5.629-4.461,5.629a2.079,2.079,0,0,1-2.294-1.585h-.041a3.405,3.405,0,0,1-2.523,1.418c-1.524,0-2.629-1.146-2.629-3.045,0-2.376,1.689-4.982,4.109-4.982a1.724,1.724,0,0,1,1.624,1.021h.043l.272-.856h1.52l-.9,4.4c-.353,1.418.022,2.1,1.044,2.1,1.293,0,2.647-1.542,2.647-4.022,0-3.17-1.791-5.756-5.732-5.756-3.65,0-7.194,3.107-7.194,7.882a5.807,5.807,0,0,0,6.152,6.234,7.079,7.079,0,0,0,3.272-.856l.562,1.334A7.921,7.921,0,0,1,115.04,95.5c-4.128,0-7.631-2.586-7.631-7.672,0-5.713,4.148-9.465,9.049-9.465m-1.689,11.069c.5,0,1.021-.313,1.648-1.083l.541-3.064a1.294,1.294,0,0,0-1.146-.731c-1.438,0-2.316,1.857-2.316,3.252,0,1.127.5,1.626,1.272,1.626" transform="translate(92.404 67.412)" fill="#1ca2c6"/>
          </g>
        </g>
      </g>
    </g>
  </g>
</svg>
