<svg xmlns="http://www.w3.org/2000/svg" xmlns:xlink="http://www.w3.org/1999/xlink" width="169" height="169" viewBox="0 0 169 169">
  <defs>
    <clipPath id="clip-path">
      <rect id="Rect치ngulo_351400" data-name="Rect치ngulo 351400" width="114.764" height="132.54" fill="none"/>
    </clipPath>
  </defs>
  <g id="Grupo_1018517" data-name="Grupo 1018517" transform="translate(-1069.666 -6129.56)">
    <g id="Grupo_1018398" data-name="Grupo 1018398" transform="translate(-18.334 4071.561)">
      <g id="Grupo_159184" data-name="Grupo 159184" transform="translate(1088 2057.999)">
        <path id="Uni칩n_12" data-name="Uni칩n 12" d="M84.5,0A84.5,84.5,0,1,1,0,84.5,84.5,84.5,0,0,1,84.5,0Z" transform="translate(0 0)" fill="#cda7ff"/>
      </g>
    </g>
    <g id="Grupo_1018408" data-name="Grupo 1018408" transform="translate(1097.236 6147.46)">
      <g id="Grupo_1018407" data-name="Grupo 1018407" clip-path="url(#clip-path)">
        <path id="Trazado_721732" data-name="Trazado 721732" d="M69.721,117.013c1.286,3.615,2.534,6.983,3.668,10.389.343,1.029,1.023.986,1.807.984,1.9,0,3.793.037,5.688-.013,1.484-.039,2.691.426,2.737,2.02s-1.09,2.148-2.607,2.147q-23.659-.023-47.317,0c-1.53,0-2.619-.612-2.556-2.2.057-1.426,1.135-1.879,2.53-1.989,2.509-.2,5.613,1.17,7.377-.666,1.575-1.639,1.841-4.539,2.671-6.888.423-1.2.814-2.405,1.28-3.787-11.407,0-22.6,0-33.793,0-7.724,0-11.2-3.471-11.2-11.177q0-33.1,0-66.2C0,32.424,3.554,28.9,10.826,28.894c7.326-.009,14.653-.051,21.978.036a3.194,3.194,0,0,0,3.235-1.887C40.009,20,44.067,13.011,48.126,6.021,52.8-2.019,61.973-2,66.651,6.05c4.016,6.915,8.038,13.828,11.949,20.8a3.573,3.573,0,0,0,3.665,2.056c7.325-.1,14.651-.067,21.977-.035,6.886.03,10.513,3.682,10.516,10.552q.011,33.487,0,66.974c0,6.956-3.7,10.605-10.73,10.611q-15.772.012-31.545,0ZM8.761,33.231c-3.247.55-4.617,2.285-4.621,5.979q-.019,21.318-.005,42.636c0,8.269-.017,16.538.008,24.806.012,3.79,1.642,5.682,5.142,6.118.946.032,1.893.091,2.839.091q45.764.007,91.527,0c5.238,0,6.97-1.729,6.97-6.982q.005-31.158,0-62.317c0-1.81.075-3.625-.029-5.429-.157-2.747-1.9-4.885-4.383-4.929-7.409-.13-14.822-.072-22.233-.072-.586,0-1.241-.057-1.085.947a4.829,4.829,0,0,0,4.4,3.8c4.654.007,9.308,0,13.962,0,3.362.006,3.731.362,3.731,3.69q.009,31.417,0,62.834c0,3.172-.5,3.659-3.811,3.673-4.481.019-8.963.005-13.445.005q-36.973,0-73.945,0c-3.38,0-4.012-.486-4.013-3.208-.013-21.289.011-42.578-.034-63.868-.005-2.385,1.021-3.193,3.291-3.15,4.566.086,9.148-.188,13.7.105,2.716.174,3.839-1.127,4.834-3.212.655-1.372.183-1.644-1.09-1.635q-10.856.08-21.712.117M56.369,4.419c-2.342.2-3.573,1.795-4.634,3.634q-7.2,12.491-14.424,24.974c-4.591,7.955-9.2,15.9-13.749,23.877-1.987,3.488-1.129,6.563,2.207,8.5a4.7,4.7,0,0,0,2.91.845c19.137.005,38.275.055,57.412-.032,5.017-.022,7.7-4.793,5.2-9.153Q77.036,32.207,62.626,7.435c-1.385-2.391-3.418-3.574-6.257-3.017m-29.5,38.1c.186-.6-.234-.418-.522-.408l-9.293.028c-2.573-.616-3.234.326-3.215,2.981q.2,27.9.012,55.8c-.015,2.611.725,3.434,3.179,2.686a3.892,3.892,0,0,0,.755.149q40.723.018,81.446.054c1.465,0,1.662-.574,1.649-1.809-.053-4.912-.022-9.826-.022-14.739q0-21.463-.034-42.925c0-.771.7-2.2-.814-2.246-4.058-.125-8.122-.042-12.557-.042,2.642,4.591,5.032,8.664,7.345,12.781,4.193,7.462-.492,15.546-9.081,15.567q-28.312.07-56.625,0c-8.753-.021-13.333-8.1-9.021-15.75q3.412-6.054,6.8-12.123M57.24,128.381c3.354,0,6.708-.036,10.06.018,1.386.022,2.126-.1,1.414-1.806-1.09-2.611-2.038-5.289-2.908-7.983A1.989,1.989,0,0,0,63.579,117q-6.191.068-12.382,0a1.988,1.988,0,0,0-2.242,1.59c-.866,2.695-1.816,5.372-2.9,7.984-.691,1.659-.054,1.854,1.385,1.826,3.266-.063,6.535-.02,9.8-.02" transform="translate(0 0)" fill="#040505"/>
        <path id="Trazado_721733" data-name="Trazado 721733" d="M32.919,81.294l9.293-.028.522.408q-3.4,6.062-6.8,12.123c-4.312,7.653.268,15.73,9.021,15.75q28.312.068,56.625,0c8.59-.021,13.275-8.1,9.081-15.567-2.313-4.116-4.7-8.19-7.345-12.781,4.435,0,8.5-.082,12.556.042,1.517.047.811,1.475.814,2.246q.069,21.462.034,42.925c0,4.913-.031,9.826.022,14.739.013,1.235-.183,1.812-1.649,1.809q-40.723-.074-81.446-.054a3.891,3.891,0,0,1-.755-.149q.012-30.732.024-61.464" transform="translate(-15.867 -39.155)" fill="#e5eff8"/>
        <path id="Trazado_721734" data-name="Trazado 721734" d="M79.7,8.41c2.839-.557,4.873.625,6.257,3.016q14.361,24.8,28.665,49.631c2.5,4.36-.184,9.131-5.2,9.153-19.137.086-38.275.037-57.412.032A4.7,4.7,0,0,1,49.1,69.4c-1.424-4.151-.692-7.854,1.61-11.635,9.92-16.3,18.8-33.209,28.99-49.352m.871,56.064c1.638,0,3.277.051,4.913-.01,3.556-.135,5.553-1.835,6.167-5.362a2.928,2.928,0,0,1,1.881-2.5c2.588-1.109,3.686-3.224,3.685-5.975,0-2.672.065-5.347-.023-8.016A13.706,13.706,0,0,0,85.983,29.29,25.956,25.956,0,0,0,74.95,29.4c-5.611,1.366-9.09,5.006-10.37,10.648-.791,3.488-.262,7.044-.363,10.568A5.883,5.883,0,0,0,67.875,56.6a2.793,2.793,0,0,1,1.817,1.974c1.217,4.8,2.636,5.888,7.52,5.9q1.681,0,3.362,0" transform="translate(-23.334 -3.991)" fill="#fbe231"/>
        <path id="Trazado_721735" data-name="Trazado 721735" d="M15.442,64.088q10.856-.054,21.712-.117c1.272-.009,1.745.262,1.09,1.635-1,2.085-2.118,3.387-4.834,3.212-4.549-.293-9.131-.019-13.7-.105-2.27-.043-3.3.765-3.291,3.15.045,21.289.02,42.578.034,63.868,0,2.722.634,3.207,4.013,3.208q36.973.009,73.945,0c4.482,0,8.963.014,13.445,0,3.308-.014,3.811-.5,3.811-3.673q.008-31.417,0-62.834c0-3.327-.37-3.684-3.731-3.69-4.654-.008-9.308,0-13.962,0a4.829,4.829,0,0,1-4.4-3.8c-.156-1,.5-.947,1.085-.947,7.412,0,14.824-.058,22.233.072,2.48.043,4.225,2.182,4.383,4.929.1,1.8.028,3.619.029,5.429q0,31.159,0,62.317c0,5.253-1.732,6.981-6.97,6.981q-45.764,0-91.527,0c-.946,0-1.893-.06-2.839-.091-2.551-2.743-2.082-6.149-2.082-9.456q.006-30.043-.017-60.086c-.006-3.435-.184-6.858,1.575-10" transform="translate(-6.681 -30.857)" fill="#2a4c82"/>
        <path id="Trazado_721736" data-name="Trazado 721736" d="M12.61,64.2c-1.758,3.139-1.581,6.563-1.575,10q.057,30.044.017,60.086c0,3.308-.469,6.713,2.082,9.456-3.5-.437-5.13-2.329-5.142-6.118-.025-8.269-.008-16.538-.008-24.806q0-21.318.006-42.636c0-3.693,1.374-5.429,4.62-5.979" transform="translate(-3.848 -30.966)" fill="#264576"/>
        <path id="Trazado_721737" data-name="Trazado 721737" d="M99.893,237.407c-3.268,0-6.536-.043-9.8.02-1.439.028-2.076-.168-1.385-1.826,1.087-2.613,2.037-5.289,2.9-7.984a1.988,1.988,0,0,1,2.242-1.59q6.19.066,12.382,0a1.989,1.989,0,0,1,2.227,1.61c.869,2.694,1.817,5.372,2.908,7.983.712,1.706-.028,1.828-1.414,1.806-3.353-.054-6.707-.018-10.06-.018" transform="translate(-42.653 -109.026)" fill="#233f6c"/>
        <path id="Trazado_721738" data-name="Trazado 721738" d="M29.945,81.238q-.012,30.732-.024,61.464c-2.454.748-3.194-.075-3.179-2.686q.162-27.9-.012-55.8c-.019-2.654.642-3.6,3.215-2.981" transform="translate(-12.893 -39.098)" fill="#ced8e0"/>
        <path id="Trazado_721739" data-name="Trazado 721739" d="M77.34,8.536C67.151,24.679,58.27,41.59,48.35,57.888c-2.3,3.782-3.034,7.484-1.61,11.635-3.336-1.94-4.194-5.014-2.207-8.5,4.545-7.98,9.158-15.922,13.749-23.876Q65.49,24.655,72.706,12.17C73.767,10.331,75,8.732,77.34,8.536" transform="translate(-20.971 -4.117)" fill="#dec72b"/>
        <path id="Trazado_721740" data-name="Trazado 721740" d="M51.415,81.731l-.522-.408c.288-.009.708-.188.522.408" transform="translate(-24.549 -39.212)" fill="#ced8e0"/>
        <path id="Trazado_721741" data-name="Trazado 721741" d="M95.261,83.557c-1.12,0-2.241,0-3.362,0-4.884-.012-6.3-1.1-7.52-5.9a2.794,2.794,0,0,0-1.818-1.974A5.882,5.882,0,0,1,78.9,69.7c.1-3.524-.429-7.08.363-10.568,1.281-5.642,4.759-9.282,10.37-10.648a25.957,25.957,0,0,1,11.033-.108,13.7,13.7,0,0,1,11.214,13.322c.088,2.669.022,5.344.023,8.016,0,2.75-1.1,4.865-3.685,5.974a2.929,2.929,0,0,0-1.881,2.5c-.613,3.527-2.61,5.227-6.167,5.361-1.635.062-3.275.011-4.913.012M90.2,79.141c0-1.047.008-1.981,0-2.915-.014-1.314.6-2.228,1.906-2.3,1.462-.084,2.159.86,2.221,2.271.031.687.019,1.377.011,2.066-.008.673.122,1.132.975,1.165.97.037,1.187-.443,1.148-1.253-.017-.344.009-.689,0-1.033-.056-1.556.066-3.173,2.061-3.2,2.018-.025,2.079,1.587,2.115,3.147.016.661-.535,1.82.478,1.93,1.114.122,1.084-1.091,1.212-1.918a5.762,5.762,0,0,1,3.662-4.909,2.545,2.545,0,0,0,1.8-2.762c-.076-2.5.042-5-.04-7.491a9.8,9.8,0,0,0-9.929-9.768c-1.636-.035-3.273-.038-4.908,0a9.791,9.791,0,0,0-9.837,9.593c-.108,2.579.008,5.167-.045,7.749A2.379,2.379,0,0,0,84.656,72.1a5.969,5.969,0,0,1,3.831,5.089c.123.836.109,1.774,1.715,1.95" transform="translate(-38.021 -23.072)" fill="#070703"/>
        <path id="Trazado_721742" data-name="Trazado 721742" d="M94.112,83.158c-1.606-.177-1.592-1.114-1.715-1.95a5.968,5.968,0,0,0-3.831-5.089,2.378,2.378,0,0,1-1.633-2.589c.053-2.583-.064-5.17.044-7.749a9.791,9.791,0,0,1,9.838-9.593c1.635-.039,3.273-.036,4.908,0a9.8,9.8,0,0,1,9.929,9.768c.083,2.495-.036,5,.04,7.491a2.546,2.546,0,0,1-1.8,2.762,5.761,5.761,0,0,0-3.662,4.909c-.128.828-.1,2.04-1.212,1.919-1.013-.11-.463-1.27-.478-1.93-.036-1.56-.1-3.173-2.115-3.147-1.995.025-2.118,1.641-2.061,3.2.012.344-.013.689,0,1.033.039.81-.178,1.29-1.148,1.253-.853-.033-.982-.491-.975-1.165s.019-1.378-.011-2.066c-.062-1.411-.758-2.355-2.221-2.271-1.31.075-1.921.99-1.906,2.3.01.934,0,1.868,0,2.915m4.094-16.905a4.551,4.551,0,1,0-4.69,4.457,4.559,4.559,0,0,0,4.69-4.457m11.3-.082a4.541,4.541,0,1,0-4.339,4.533,4.537,4.537,0,0,0,4.339-4.533" transform="translate(-41.931 -27.089)" fill="#eee"/>
        <path id="Trazado_721743" data-name="Trazado 721743" d="M100.235,71.486a4.551,4.551,0,1,1-4.411-4.476,4.559,4.559,0,0,1,4.411,4.476" transform="translate(-43.959 -32.322)" fill="#0a0a0a"/>
        <path id="Trazado_721744" data-name="Trazado 721744" d="M122.077,71.409a4.541,4.541,0,1,1-4.742-4.387,4.539,4.539,0,0,1,4.742,4.387" transform="translate(-54.505 -32.327)" fill="#060606"/>
      </g>
    </g>
  </g>
</svg>
